<svg xmlns="http://www.w3.org/2000/svg" width="100%" height="100%" viewBox="0 0 1624.00 1624.00">
  <g transform="translate(112.00,1312.00) scale(1,-1)">
    <path d="M922 1200H930Q1027 1200 1074 1092Q1094 972 1130 972Q1154 961 1214 792L1206 788H1150Q1089 888 1038 888Q1017 888 922 856H910Q838 856 766 940H742Q715 940 654 884Q608 860 586 860H574Q523 860 482 908Q464 924 446 924Q423 924 366 880Q344 876 330 876H306Q222 876 186 1020V1024Q186 1085 282 1124H302Q350 1124 410 1080H414Q424 1080 534 1148L570 1156H574Q628 1156 682 1108Q719 1100 726 1100Q778 1100 846 1176Q885 1200 922 1200ZM1090 764H1278Q1286 763 1286 756V-192Q1286 -200 1278 -200H122Q114 -200 114 -192V292L118 300L570 148Q582 192 582 196Q120 349 114 360V488Q115 496 122 496L1070 180V184Q1078 206 1078 228Q594 388 590 396V520L594 528Q705 488 1082 364V756Q1083 764 1090 764Z" fill="param(fill) #111111" fill-opacity="param(fill-opacity) 1" stroke="param(outline) none" stroke-opacity="param(outline-opacity) 1" stroke-width="param(outline-width) 0" stroke-linejoin="round"/>
  </g>
</svg>
