<svg xmlns="http://www.w3.org/2000/svg" width="100%" height="100%" viewBox="0 0 1624.00 1624.00">
  <g transform="translate(112.00,1312.00) scale(1,-1)">
    <path d="M698 1200 886 1020V1144Q887 1152 894 1152H1118Q1126 1151 1126 1144V780L1366 536L1358 532H1174V-192Q1174 -200 1166 -200H230Q222 -200 222 -192V532H42Q34 532 34 540ZM698 1100 206 604H290Q298 603 298 596V-128H1102V596Q1103 604 1110 604H1194L1054 748V1080H962V844H950Q950 855 698 1100ZM698 620Q839 620 890 512Q898 476 898 460Q881 452 834 452Q829 452 806 516Q767 552 706 552H686Q582 543 582 492Q578 492 578 476Q578 410 718 388Q914 356 914 216Q914 119 782 72Q752 64 726 64H710Q551 64 498 180Q486 223 486 244Q504 252 538 252H550Q555 252 574 188Q632 128 710 128Q827 128 842 216V220Q842 295 674 320Q506 359 506 472Q506 601 686 620Z" fill="param(fill) #111111" fill-opacity="param(fill-opacity) 1" stroke="param(outline) none" stroke-opacity="param(outline-opacity) 1" stroke-width="param(outline-width) 0" stroke-linejoin="round"/>
  </g>
</svg>
