<svg xmlns="http://www.w3.org/2000/svg" width="100%" height="100%" viewBox="0 0 1624.00 1624.00">
  <g transform="translate(112.00,1312.00) scale(1,-1)">
    <path d="M764 1200H792Q846 1200 876 1168Q916 1176 948 1176H956Q1120 1168 1120 1096Q1116 1096 1116 1092Q1156 1068 1156 1048Q1136 988 1056 988Q998 988 956 1028Q825 992 696 992H644Q508 992 396 1020Q318 1012 288 1012Q156 1012 100 1064L96 1072V1088Q96 1116 208 1140Q254 1140 296 1168L344 1176Q420 1165 420 1152Q484 1164 548 1188Q569 1192 588 1192Q637 1192 680 1168Q709 1200 764 1200ZM1156 996H1160Q1196 991 1196 960V952Q1191 916 1160 916H1156Q1123 916 1116 960Q1129 996 1156 996ZM1184 892Q1212 892 1212 864Q1205 850 1188 844Q1176 844 1164 868Q1170 885 1184 892ZM712 828H932Q940 827 940 820V428H1072V820Q1073 828 1080 828H1296Q1304 827 1304 820V-192Q1304 -200 1296 -200H104Q96 -200 96 -192V408Q97 416 104 416H704V820Q705 828 712 828Z" fill="param(fill) #111111" fill-opacity="param(fill-opacity) 1" stroke="param(outline) none" stroke-opacity="param(outline-opacity) 1" stroke-width="param(outline-width) 0" stroke-linejoin="round"/>
  </g>
</svg>
