<svg xmlns="http://www.w3.org/2000/svg" width="100%" height="100%" viewBox="0 0 1624.00 1624.00">
  <g transform="translate(112.00,1312.00) scale(1,-1)">
    <path d="M704 1200H728Q818 1200 856 1044Q860 1037 860 1028Q976 1084 1036 1084H1060Q1134 1084 1164 1012Q1169 961 1172 956Q1172 850 1060 760Q981 724 916 724Q848 724 828 752V756Q840 774 912 820L924 840V848Q924 900 888 900Q860 900 772 820H752V828Q752 841 748 848Q760 903 760 928Q760 972 700 972Q663 972 656 920Q660 859 660 808Q652 807 652 800Q641 800 516 916Q500 920 488 920Q460 908 460 884Q469 861 564 792Q588 764 588 736V728Q568 696 528 696Q413 696 288 840Q248 918 248 960V968Q248 1068 376 1084H396Q462 1084 556 1048V1052Q585 1145 664 1192Q696 1200 704 1200ZM52 648H536V644Q411 479 48 20H44V640Q45 648 52 648ZM668 648H1348Q1356 647 1356 640V552Q1356 531 1140 268Q831 -137 772 -200H52Q44 -200 44 -192V-148ZM1352 372H1356V-192Q1356 -200 1348 -200H908V-196Q926 -166 1352 372Z" fill="param(fill) #111111" fill-opacity="param(fill-opacity) 1" stroke="param(outline) none" stroke-opacity="param(outline-opacity) 1" stroke-width="param(outline-width) 0" stroke-linejoin="round"/>
  </g>
</svg>
