<svg xmlns="http://www.w3.org/2000/svg" width="100%" height="100%" viewBox="0 0 1624.00 1624.00">
  <g transform="translate(112.00,1312.00) scale(1,-1)">
    <path d="M476 1142H972Q980 1141 980 1134V786Q980 778 956 778L980 754V662Q980 654 972 654H476Q468 654 468 662V758L484 778Q468 778 468 786V1134Q469 1142 476 1142ZM512 1098V826H932V1098ZM656 590Q646 532 632 518Q632 526 624 526L520 418Q524 410 524 406Q488 394 452 386Q452 390 448 390Q464 462 472 462Q480 458 484 458L588 566Q580 566 580 574V578Q631 590 656 590ZM732 594H736L808 578V570L804 562L912 458H924L944 390Q940 390 940 386Q880 402 868 402L872 422Q847 440 764 522L756 518Q744 542 732 594ZM8 342H504Q512 341 512 334V-14Q512 -22 488 -22L512 -46V-134Q512 -142 504 -142H8Q0 -142 0 -134V-42Q0 -40 16 -22Q0 -22 0 -14V334Q1 342 8 342ZM896 342H1392Q1400 341 1400 334V-14Q1400 -22 1376 -22V-26Q1389 -26 1400 -46V-134Q1400 -142 1392 -142H896Q888 -142 888 -134V-42Q908 -26 908 -22Q888 -22 888 -14V334Q889 342 896 342ZM44 298V26H468V298ZM936 298V26H1356V298ZM624 298Q628 290 628 286H780V294Q789 294 848 262V258Q835 243 784 218Q780 226 780 230H628V218H620Q556 253 556 258V262Q565 262 624 298Z" fill="param(fill) #111111" fill-opacity="param(fill-opacity) 1" stroke="param(outline) none" stroke-opacity="param(outline-opacity) 1" stroke-width="param(outline-width) 0" stroke-linejoin="round"/>
  </g>
</svg>
