<svg xmlns="http://www.w3.org/2000/svg" width="100%" height="100%" viewBox="0 0 1624.00 1624.00">
  <g transform="translate(112.00,1312.00) scale(1,-1)">
    <path d="M688 1200H696L1212 692Q1212 684 1204 684H176V688Q176 701 688 1200ZM240 612H296Q304 611 304 604V28Q304 20 296 20H240Q232 20 232 28V604Q233 612 240 612ZM452 612H508Q516 611 516 604V28Q516 20 508 20H452Q444 20 444 28V604Q445 612 452 612ZM668 612H720Q728 611 728 604V28Q728 20 720 20H664Q656 20 656 28V600Q656 606 668 612ZM880 612H932Q940 611 940 604V28Q940 20 932 20H880Q872 20 872 28V604Q873 612 880 612ZM1092 612H1144Q1152 611 1152 604V28Q1152 20 1144 20H1092Q1084 20 1084 28V604Q1085 612 1092 612ZM140 -40H1260Q1268 -41 1268 -48V-192Q1268 -200 1260 -200H140Q132 -200 132 -192V-48Q133 -40 140 -40Z" fill="param(fill) #111111" fill-opacity="param(fill-opacity) 1" stroke="param(outline) none" stroke-opacity="param(outline-opacity) 1" stroke-width="param(outline-width) 0" stroke-linejoin="round"/>
  </g>
</svg>
