<svg xmlns="http://www.w3.org/2000/svg" width="100%" height="100%" viewBox="0 0 1624.00 1624.00">
  <g transform="translate(112.00,1312.00) scale(1,-1)">
    <path d="M698 1200 886 1020V1148Q887 1156 894 1156H1118Q1126 1155 1126 1148V780L1366 536L1358 532H1174V-192Q1174 -200 1166 -200H230Q222 -200 222 -192V532H42Q34 532 34 540ZM698 1100 206 604H290Q298 603 298 596V-128H1102V596Q1103 604 1110 604H1194L1054 748V1080H962V844H950Q950 855 698 1100Z" fill="param(fill) #111111" fill-opacity="param(fill-opacity) 1" stroke="param(outline) none" stroke-opacity="param(outline-opacity) 1" stroke-width="param(outline-width) 0" stroke-linejoin="round"/>
  </g>
</svg>
