<svg xmlns="http://www.w3.org/2000/svg" width="100%" height="100%" viewBox="0 0 1624.00 1624.00">
  <g transform="translate(112.00,1312.00) scale(1,-1)">
    <path d="M704 1102H800Q808 1101 808 1094V342H936V1094Q937 1102 944 1102H1040Q1048 1101 1048 1094V342H1168V1094Q1169 1102 1176 1102H1272Q1280 1101 1280 1094V342H1392Q1400 341 1400 334V-94Q1400 -102 1392 -102H8Q0 -102 0 -94V342L248 570H256V346Q456 530 504 570H508V342H696V1094Q697 1102 704 1102ZM52 274V194H268V274ZM324 274V194H536V274ZM592 274V194H808V274ZM864 274V194H1076V274ZM1132 274V194H1348V274ZM52 150V70H268V150ZM324 150V70H536V150ZM592 150V70H808V150ZM864 150V70H1076V150ZM1132 150V70H1348V150Z" fill="param(fill) #111111" fill-opacity="param(fill-opacity) 1" stroke="param(outline) none" stroke-opacity="param(outline-opacity) 1" stroke-width="param(outline-width) 0" stroke-linejoin="round"/>
  </g>
</svg>
