<svg xmlns="http://www.w3.org/2000/svg" width="100%" height="100%" viewBox="0 0 1624.00 1624.00">
  <g transform="translate(112.00,1312.00) scale(1,-1)">
    <path d="M60 1136Q77 1136 168 1056Q407 884 696 884Q1054 884 1320 1128Q1335 1136 1352 1136Q1400 1131 1400 1116V1000Q1156 736 1108 612Q1072 496 1056 496Q1002 492 964 492H576Q496 492 336 496Q278 665 192 780Q129 864 44 948Q0 980 0 1016V1116Q0 1131 60 1136ZM232 444H1168Q1176 443 1176 436V344Q1176 332 1112 332H1068V184Q1068 176 1060 176H968Q960 176 960 184V336H860V184Q860 176 848 176Q755 180 752 180L748 188V336H660Q652 335 652 328V184Q652 176 644 176H548Q540 176 540 184V336Q463 332 440 332V184Q440 176 432 176H340Q332 176 332 184V336H232Q224 336 224 344V436Q225 444 232 444ZM472 288Q520 285 520 276V260Q520 231 508 228Q464 231 464 240V280Q465 288 472 288ZM888 288H932L940 284L936 264V236L932 228Q880 231 880 240V280Q881 288 888 288ZM232 128H1168L1176 124L1172 76V28Q1172 20 1164 20H236Q230 20 224 32V120Q225 128 232 128ZM340 -28H432Q440 -29 440 -36V-84Q440 -136 428 -136H340Q332 -136 332 -128V-36Q333 -28 340 -28ZM548 -28H644Q652 -29 652 -36Q648 -88 648 -120V-128Q648 -136 640 -136H548Q540 -136 540 -128V-36Q541 -28 548 -28ZM760 -28H852Q860 -29 860 -36V-128Q860 -136 852 -136H760Q752 -136 752 -128V-36Q753 -28 760 -28ZM968 -28H1060Q1068 -29 1068 -36V-128Q1068 -136 1060 -136H968Q960 -136 960 -128V-36Q961 -28 968 -28Z" fill="param(fill) #111111" fill-opacity="param(fill-opacity) 1" stroke="param(outline) none" stroke-opacity="param(outline-opacity) 1" stroke-width="param(outline-width) 0" stroke-linejoin="round"/>
  </g>
</svg>
