<svg xmlns="http://www.w3.org/2000/svg" width="100%" height="100%" viewBox="0 0 1624.00 1624.00">
  <g transform="translate(112.00,1312.00) scale(1,-1)">
    <path d="M704 1200H708Q1390 682 1396 672V-192Q1396 -200 1388 -200H12Q4 -200 4 -192V672Q16 688 704 1200ZM80 612V596L604 468V496Q605 504 612 504H716V508Q687 584 668 584Q605 584 560 672Q552 706 552 716Q552 811 660 852Q677 852 692 856Q828 831 828 724V700Q828 627 728 588H724L756 504H888Q898 504 912 580Q880 602 880 640V656Q880 723 968 740H984Q1072 721 1072 656V640Q1072 567 972 556H968L948 560Q944 532 932 504H972Q980 503 980 496V264Q980 256 972 256H892L992 -84H984L832 256H728Q716 244 584 -80H580V-76Q584 -52 668 256H612Q604 256 604 264V400H600L80 212V-132H1308V620Q1204 696 708 1096Q524 960 80 612ZM80 564V244L540 408V456Q95 564 80 564Z" fill="param(fill) #111111" fill-opacity="param(fill-opacity) 1" stroke="param(outline) none" stroke-opacity="param(outline-opacity) 1" stroke-width="param(outline-width) 0" stroke-linejoin="round"/>
  </g>
</svg>
