<svg xmlns="http://www.w3.org/2000/svg" width="100%" height="100%" viewBox="0 0 1624.00 1624.00">
  <g transform="translate(112.00,1312.00) scale(1,-1)">
    <path d="M268 1040Q285 1028 368 768Q372 768 372 764L364 760H168L160 764Q245 1011 260 1040ZM172 756H356Q370 742 420 580L412 576H108Q148 718 172 756ZM952 740Q1219 740 1368 460Q1400 367 1400 336V332Q1400 324 1392 324H516Q508 324 508 332Q508 449 640 604Q781 740 952 740ZM408 572Q427 548 492 312Q520 244 520 212H484V0Q988 4 1252 4H1384Q1392 3 1392 -4V-32Q1392 -40 1384 -40H52L44 -36Q48 24 48 52V212H8Q0 212 0 220Q104 548 116 572ZM540 320H592L600 316Q600 310 596 268Q596 184 612 184Q612 192 652 196V320H1380Q1388 319 1388 312V16Q1388 8 1380 8H540Q532 8 532 16V312Q533 320 540 320ZM996 312Q996 296 988 296H932Q924 296 924 308H920Q920 296 912 296H876V16H1048V292Q1040 302 1040 312H1036Q1036 296 1028 296H1008Q1000 296 1000 312ZM84 212V208Q84 191 80 164Q84 156 84 152Q108 152 108 184L104 212ZM224 212V8H308V212Z" fill="param(fill) #111111" fill-opacity="param(fill-opacity) 1" stroke="param(outline) none" stroke-opacity="param(outline-opacity) 1" stroke-width="param(outline-width) 0" stroke-linejoin="round"/>
  </g>
</svg>
