<svg xmlns="http://www.w3.org/2000/svg" width="100%" height="100%" viewBox="0 0 1624.00 1624.00">
  <g transform="translate(112.00,1312.00) scale(1,-1)">
    <path d="M700 1054Q732 1027 732 990Q934 852 1100 726V722H1024Q1033 714 1392 514L1400 502V482Q1400 474 1392 474H1360V450Q1358 438 1328 438H1296V-30Q1296 -38 1288 -38H1276Q1268 -38 1268 -30V166H912V162Q948 64 948 54Q942 54 936 42V-46Q936 -54 928 -54H920Q912 -54 912 -34H496Q488 -34 488 -18H484Q484 -54 476 -54H472Q464 -54 464 -46V46Q452 46 452 54V58Q452 69 488 166H128V-30Q128 -38 120 -38H112Q104 -38 104 -30V438H44Q36 438 36 446V466L40 474Q0 474 0 482V506Q8 518 352 706Q353 714 380 718V722H300V726Q345 763 672 998Q672 1038 700 1054ZM484 726V722H908V726ZM128 438V290H152V306Q152 318 156 318L152 338V410L156 438ZM172 438Q172 420 176 414Q172 373 172 350V286Q179 290 192 290V438ZM236 438V370Q236 344 232 290H292V438ZM1104 438V290H1164V438ZM1208 438V290H1228V438ZM1248 438V290H1268V438ZM328 418V310Q329 302 336 302H384V418ZM412 418V302H500V418ZM580 418V182H680V418ZM720 418V182H820V418ZM900 418V302H988V418ZM1016 418V302H1068V418ZM128 274V186H152V274ZM172 274V186H192V274ZM212 274V186H232V274ZM252 274V186H268V274ZM288 274V186H308V274ZM328 274V186H348V274ZM368 274V186H384V274ZM404 274V186H424V274ZM444 274V186H460V274ZM480 274V186H492Q503 186 528 274ZM868 274V270Q892 217 900 186H916Q920 226 920 246V274ZM936 274V186H956V274ZM976 274V186H992V274ZM1012 274V186H1032V274ZM1052 274V186H1072V274ZM1092 274V186H1108V274ZM1128 274V186H1148V274ZM1168 274V186H1188V274ZM1208 274V186H1224V274ZM1244 274V186H1268V274ZM508 158 504 138H596V130H504Q496 129 496 122V118H904Q900 126 900 130H700V138H896V142Q890 158 884 158ZM484 86H916Q916 110 888 110H508Q484 110 484 86ZM488 62V2H904L912 -2V62ZM500 50H900Q908 49 908 42V26Q908 18 900 18H500Q492 18 492 26V42Q493 50 500 50Z" fill="param(fill) #111111" fill-opacity="param(fill-opacity) 1" stroke="param(outline) none" stroke-opacity="param(outline-opacity) 1" stroke-width="param(outline-width) 0" stroke-linejoin="round"/>
  </g>
</svg>
