<svg xmlns="http://www.w3.org/2000/svg" width="100%" height="100%" viewBox="0 0 1624.00 1624.00">
  <g transform="translate(112.00,1312.00) scale(1,-1)">
    <path d="M564 1088H768Q776 1087 776 1080V356H840V780Q847 809 924 940H928Q1011 805 1012 784V616H1076V928Q1077 936 1084 936H1192Q1200 935 1200 928V-4H1392Q1400 -5 1400 -12V-80Q1400 -88 1392 -88H8Q0 -88 0 -80V-12Q1 -4 8 -4H200V728Q201 736 208 736H364Q372 735 372 728V248H436V508Q437 516 444 516H556V1080Q557 1088 564 1088Z" fill="param(fill) #111111" fill-opacity="param(fill-opacity) 1" stroke="param(outline) none" stroke-opacity="param(outline-opacity) 1" stroke-width="param(outline-width) 0" stroke-linejoin="round"/>
  </g>
</svg>
