<svg xmlns="http://www.w3.org/2000/svg" width="100%" height="100%" viewBox="0 0 1624.00 1624.00">
  <g transform="translate(112.00,1312.00) scale(1,-1)">
    <path d="M1020 1018 1168 846Q1131 817 352 278Q347 278 332 298V302Q978 980 1020 1018ZM1288 634Q1344 493 1364 418Q1242 386 400 182Q388 200 388 210Q1019 510 1288 634ZM152 286Q251 286 300 166Q300 138 304 134Q304 26 180 -18H132Q43 -18 0 106V150Q0 230 108 278Q144 283 152 286ZM1396 214 1400 206V-10L1396 -18Q470 74 408 86V106Q408 120 788 150Z" fill="param(fill) #111111" fill-opacity="param(fill-opacity) 1" stroke="param(outline) none" stroke-opacity="param(outline-opacity) 1" stroke-width="param(outline-width) 0" stroke-linejoin="round"/>
  </g>
</svg>
