<svg xmlns="http://www.w3.org/2000/svg" width="100%" height="100%" viewBox="0 0 1624.00 1624.00">
  <g transform="translate(112.00,1312.00) scale(1,-1)">
    <path d="M448 1076H952Q966 1067 1032 904H1392Q1400 903 1400 896V-68Q1400 -76 1392 -76H8Q0 -76 0 -68V896Q1 904 8 904H52V996Q53 1004 60 1004H372Q380 1003 380 996V936H384Q436 1076 448 1076ZM80 820V4H1320V820H956Q941 837 876 996H528Q520 991 448 820ZM700 716Q892 716 964 508Q972 457 972 444Q972 269 780 188Q738 176 696 176Q528 176 444 356Q432 389 428 448Q428 616 608 700Q645 716 700 716ZM532 448Q532 325 668 284Q672 284 700 280Q831 280 864 428Q864 444 868 444Q868 566 732 608Q729 608 700 612Q592 612 544 504Z" fill="param(fill) #111111" fill-opacity="param(fill-opacity) 1" stroke="param(outline) none" stroke-opacity="param(outline-opacity) 1" stroke-width="param(outline-width) 0" stroke-linejoin="round"/>
  </g>
</svg>
