<svg xmlns="http://www.w3.org/2000/svg" width="100%" height="100%" viewBox="0 0 1624.00 1624.00">
  <g transform="translate(112.00,1312.00) scale(1,-1)">
    <path d="M892 1180 896 1172Q856 1087 836 1076V1072Q836 818 924 560Q1239 400 1276 376H1280Q1332 376 1392 444H1400V440Q1384 308 1280 308V28Q1299 28 1344 52V48Q1344 6 1280 -8V-80Q1280 -88 1272 -88H1256Q1248 -88 1248 -80V0H1132V-80Q1132 -88 1124 -88H1104V0H1000V-68Q1035 -63 1068 -40V-48Q1068 -95 1000 -100V-172Q1000 -180 992 -180H980Q972 -180 972 -172V-100H924V-172Q924 -180 916 -180H896Q888 -180 888 -172V-96L880 -100H844V-172Q844 -180 836 -180H824Q813 -180 812 -160H604Q604 -180 596 -180H580Q572 -180 572 -172V-100H564L524 -104V-172Q524 -180 516 -180H500Q492 -180 492 -172V-100H448V-172Q448 -180 440 -180H420Q412 -180 412 -172V-108Q344 -101 344 -40H348Q389 -72 412 -72V0H312V-80Q312 -88 304 -88H276Q268 -88 268 -80V0H168V-84Q168 -92 160 -92H136Q128 -92 128 -84V-24Q128 0 96 0Q72 28 72 56V60H76Q105 32 128 28V308Q128 315 56 328Q0 387 0 452H4Q74 380 128 380Q143 380 472 548Q572 861 572 1076H568Q529 1076 508 1176H512Q660 1158 660 1124L668 1108Q688 1120 700 1120H704Q716 1120 736 1108Q757 1172 820 1172Q844 1172 892 1180ZM936 524V520Q968 442 968 432H972Q1010 432 1060 460V464Q940 524 936 524ZM360 456Q388 440 424 432L452 500Q448 500 448 504Q360 467 360 456ZM1064 460Q1064 414 1004 392Q1000 392 1000 388V28H1252V360Q1251 366 1064 460ZM156 364V28H416V388L364 416Q353 416 348 456ZM444 384Q440 106 440 28H572V384ZM596 384V324H816V384ZM844 384V28H972V384ZM600 300V28H696V300ZM724 300V108Q724 82 720 28H816V300ZM224 280H352Q360 279 360 272V144Q360 100 348 100H224Q216 100 216 108V272Q217 280 224 280ZM476 280H536Q544 279 544 272V112Q544 104 536 104H476Q468 104 468 112V272Q469 280 476 280ZM872 280 880 276H924Q932 275 932 268V108Q932 100 924 100H876Q868 100 868 108Q868 143 864 196Q868 241 868 276Q872 276 872 280ZM1064 276H1188Q1196 275 1196 268V152Q1196 100 1184 100H1064Q1056 100 1056 108V268Q1057 276 1064 276ZM604 0V-28H816V0ZM604 -52V-76H816V-52ZM604 -104V-124L652 -128H756Q776 -128 816 -124V-108Q722 -104 676 -104Z" fill="param(fill) #111111" fill-opacity="param(fill-opacity) 1" stroke="param(outline) none" stroke-opacity="param(outline-opacity) 1" stroke-width="param(outline-width) 0" stroke-linejoin="round"/>
  </g>
</svg>
