<svg xmlns="http://www.w3.org/2000/svg" width="100%" height="100%" viewBox="0 0 1614.72 1614.72">
  <g transform="translate(107.36,1307.36) scale(1,-1)">
    <path d="M160 966H168Q261 628 316 582Q316 515 236 354H76L80 326H236Q336 459 336 694Q336 770 328 814H336Q393 626 484 534H492V526L472 446Q532 503 532 726H540Q581 494 616 494Q616 484 664 470V466Q612 343 568 286Q321 294 288 298L292 270H584Q696 388 696 546V574H704V546Q704 388 816 270H1108L1112 298Q1087 294 828 286Q755 414 736 466V470Q816 493 816 546Q860 687 860 726H868V722Q871 498 928 446V450Q908 516 908 526V534Q975 587 1016 682Q1064 804 1064 814H1072Q1064 773 1064 686Q1064 462 1164 326H1320L1324 354H1168Q1136 376 1088 554Q1088 558 1084 586Q1118 586 1200 862Q1208 871 1232 966H1240V846Q1240 519 1396 358V354H1344Q1288 77 1288 58Q1305 53 1312 38V34H88V38Q88 41 112 62Q112 75 56 354H4V358Q160 519 160 846ZM84 306Q101 218 108 218H176V306ZM196 306V218H280L268 298H232L220 306ZM1168 298H1132L1120 218H1204V306H1180ZM1224 306V218H1292Q1299 218 1316 306ZM128 298H148Q154 298 160 286V242Q160 236 148 230H128Q120 230 120 238V290Q121 298 128 298ZM1252 298H1272Q1280 297 1280 290V238Q1280 230 1272 230H1252Q1246 230 1240 242V286Q1240 292 1252 298ZM228 278H244Q250 278 256 266V234Q256 226 248 226H224Q216 226 216 234V266Q216 272 228 278ZM1156 278H1172Q1178 278 1184 266V234Q1184 226 1176 226H1152Q1144 226 1144 234V266Q1144 272 1156 278ZM628 246 632 238 644 70H684V258ZM716 258V70H756V74L768 242Q772 242 772 246ZM296 250Q302 170 312 170H340V174Q340 203 332 226L340 230H376Q388 230 392 170H428V174Q428 203 420 226L428 230H464Q476 230 480 170H516V174Q516 203 508 226L516 230H552Q564 230 568 170H600Q596 174 588 250ZM812 250Q804 174 800 170H832Q836 230 848 230H884L892 226Q884 204 884 170H920Q924 230 936 230H972L980 226Q972 204 972 170H1008Q1012 230 1024 230H1060L1068 226Q1060 204 1060 170H1088Q1098 170 1104 250ZM108 198 132 70H176V198ZM196 198V70H300Q284 178 284 198ZM1116 198V194Q1116 179 1100 70H1204V198ZM1224 198V70H1268L1292 198ZM308 150 320 70H612L600 150H572Q580 106 580 90L572 86H540Q529 86 520 150H484Q492 106 492 90L484 86H452Q441 86 432 150H396Q404 106 404 90L396 86H364Q353 86 344 150ZM800 150 788 70H1080L1092 150H1060Q1052 150 1044 90L1036 86H1004Q996 86 996 94Q996 107 1004 150H972Q964 150 956 90L948 86H916Q908 86 908 94Q908 107 916 150H884Q876 150 868 90L860 86H828Q820 86 820 94Q820 107 828 150Z" fill="param(fill) #111111" fill-opacity="param(fill-opacity) 1" stroke="param(outline) none" stroke-opacity="param(outline-opacity) 1" stroke-width="param(outline-width) 0" stroke-linejoin="round"/>
  </g>
</svg>
