<svg xmlns="http://www.w3.org/2000/svg" width="100%" height="100%" viewBox="0 0 1619.36 1619.36">
  <g transform="translate(109.68,1309.68) scale(1,-1)">
    <path d="M698 1056Q825 970 834 968V960H722V912L742 908H754Q879 908 1030 876V996H1038L1166 912V904H1058V876Q1058 868 1150 844Q1218 816 1258 788V900L1262 908Q1395 823 1398 816V812H1290V760Q1314 730 1314 712V696Q1314 663 1266 616V532H1322Q1330 531 1330 524Q1326 524 1266 460V404L1286 408H1326V400Q1294 364 1294 360H1390Q1398 359 1398 352V-48Q1398 -56 1390 -56H918Q912 -55 878 -8V-4H922Q968 -4 998 76Q1138 76 1258 160Q1339 233 1354 280H1290Q1282 280 1282 288V352Q1277 352 1266 332V264H1318V260Q1171 108 1010 108V160Q1010 171 1090 180V252L1014 240L1010 248V304Q1010 312 1090 324V380L1014 372L1010 380V436Q1010 444 1022 444Q1035 444 1090 448V480Q1090 528 1082 528Q863 484 706 484Q548 484 306 528V524Q302 480 302 448Q372 444 390 444L394 436V380Q394 372 386 372L302 380V324Q394 313 394 300V248Q394 240 386 240L306 252V180Q394 176 394 152Q394 133 398 112L390 108H358Q229 108 74 260V264H126V332Q116 352 110 352V288Q110 280 102 280H38V276Q81 192 178 128Q238 96 394 72Q423 -4 474 -4H514V-8Q480 -55 474 -56H10Q2 -56 2 -48V352Q3 360 10 360H106L74 396V400H126V472L78 524V532H106L126 528V604Q58 662 58 696Q58 735 98 776V900Q99 908 106 908L206 836Q301 871 334 872V1004H342Q470 921 470 916V912H362V880Q567 912 694 912V1048ZM578 872V868L606 644Q653 648 674 648H766L786 644L830 872H826Q750 872 698 876Q652 872 578 872ZM318 828Q350 764 426 624Q507 644 582 644L534 868Q396 852 318 828ZM866 868 810 644Q950 632 974 632L1082 828Q994 852 866 868ZM150 716Q150 637 490 568Q592 556 638 556H750Q1029 556 1230 680Q1246 701 1246 716V720Q1246 783 1118 816Q1001 612 982 600Q900 572 694 572Q390 572 390 632Q288 808 278 816Q150 783 150 716ZM126 812V796Q145 808 150 808V812ZM678 796H710Q718 795 718 788V752Q718 744 710 744H678Q670 744 670 752V788Q671 796 678 796ZM926 788Q970 784 970 772Q962 732 954 732Q910 740 910 748Q921 787 926 788ZM474 784Q484 773 490 740Q479 730 446 724Q437 739 430 768Q445 777 474 784ZM1118 720H1122Q1154 698 1154 692V688Q1135 656 1130 656H1126Q1094 675 1094 680V688Q1113 720 1118 720ZM290 712H302Q302 705 322 676Q321 670 282 648L258 684V696Q268 696 290 712ZM166 576V500Q167 493 254 464V472Q254 484 258 548Q173 576 166 576ZM1130 536Q1134 477 1134 456Q1222 487 1222 492V572Q1130 543 1130 536ZM166 436V364Q210 352 254 336V348Q254 368 258 408ZM418 440Q553 428 622 428H782Q851 428 986 440V132Q986 38 922 12Q899 12 894 8Q846 8 798 56H594Q543 8 502 8Q418 23 418 68ZM1130 400 1134 360V332Q1143 332 1222 356V428ZM446 416V68Q469 36 494 36H502Q536 36 570 68V244Q571 252 578 252H818Q826 251 826 244V68Q853 36 878 36H890Q924 36 950 68V408Q828 396 754 396H674Q563 396 446 416ZM694 352H714Q770 352 794 284Q784 276 782 276H614Q606 276 606 288Q606 341 694 352ZM170 296V224Q237 204 258 204Q262 231 262 248V272ZM1126 264V220L1130 192Q1209 216 1218 216V288Q1211 288 1126 264ZM586 32H806Q816 29 874 -52V-56H518V-52Q571 21 586 32Z" fill="param(fill) #111111" fill-opacity="param(fill-opacity) 1" stroke="param(outline) none" stroke-opacity="param(outline-opacity) 1" stroke-width="param(outline-width) 0" stroke-linejoin="round"/>
  </g>
</svg>
