<svg xmlns="http://www.w3.org/2000/svg" width="100%" height="100%" viewBox="0 0 1619.36 1619.36">
  <g transform="translate(109.68,1309.68) scale(1,-1)">
    <path d="M460 1198Q468 1197 468 1190V1186Q460 1186 460 1194ZM792 1194Q895 1078 900 1078Q1122 1078 1264 1010Q1264 1008 1272 998V986L1256 966V-114Q1224 -181 800 -198H656Q299 -198 152 -126Q152 -120 144 -110V966Q128 984 128 986V998Q128 1051 528 1082Q479 1162 472 1182Q560 1092 560 1082L600 1086H656Q718 1086 856 1082ZM588 1058V1054Q625 1009 684 926L704 922L928 930Q928 946 872 1054Q771 1058 712 1058ZM188 994V986Q201 969 312 942L400 838Q512 926 540 926H600Q566 1023 540 1054Q188 1032 188 994ZM920 1050Q958 1004 1004 938Q1212 962 1212 990V994Q1212 1031 920 1050ZM188 950V-70Q335 -14 648 -14H752Q1065 -14 1212 -70V950Q1144 926 1020 914Q1036 887 1036 866V854Q1036 822 1020 770Q1034 770 1160 790V54Q1160 37 952 18L948 26V42Q948 51 1092 62Q1092 69 1136 70V282Q1088 270 952 258L948 266V278Q948 291 1100 302Q1100 308 1136 310V518Q995 498 948 498V518Q948 527 1136 546V758Q1024 741 1000 734Q972 684 808 506Q764 439 764 386Q764 321 920 22V18Q676 297 676 370V394Q676 487 864 670Q948 781 948 862Q940 904 940 906Q844 898 708 898H700Q708 868 708 858Q708 735 532 570Q436 457 436 390V386Q436 318 592 18V14Q344 300 344 374Q344 485 508 642Q616 761 616 854V870L612 898H576L552 902Q527 902 416 814L400 810L492 698V686H484Q456 686 356 826Q298 926 292 926Q231 934 188 950ZM356 870V866Q370 834 388 834Q360 870 356 870ZM188 -102Q188 -157 696 -166H716Q1212 -156 1212 -102Q1212 -51 700 -34Q188 -51 188 -102Z" fill="param(fill) #111111" fill-opacity="param(fill-opacity) 1" stroke="param(outline) none" stroke-opacity="param(outline-opacity) 1" stroke-width="param(outline-width) 0" stroke-linejoin="round"/>
  </g>
</svg>
