<svg xmlns="http://www.w3.org/2000/svg" width="100%" height="100%" viewBox="0 0 1614.72 1614.72">
  <g transform="translate(107.36,1307.36) scale(1,-1)">
    <path d="M700 994Q782 936 1376 470Q1396 454 1396 450V442Q1383 442 1364 430H1356L1348 434Q1348 418 1228 374Q1228 358 1216 358H924V354H1216L1220 346V318Q1220 310 1176 310V306Q1220 306 1220 298V270L1212 258V46Q1212 42 1224 6H1184L1176 10Q1188 31 1188 50V266Q1172 266 1156 294Q1148 284 1148 274H1132V278L1136 286Q1122 290 1120 290Q1115 274 1100 266H1072Q1052 278 1052 294H1048Q1037 294 1036 274H1032L1016 294Q997 266 968 266Q940 279 940 298Q936 298 920 274L904 294Q901 294 892 282L896 242V42Q896 30 908 10L900 6H860Q872 44 872 66V206Q872 240 868 306L876 310H928V314Q908 314 908 322V398H916V374H932Q940 374 940 382V442Q940 448 928 454H916V434H908V650L912 670Q904 669 904 662V378L896 366Q904 365 904 358V334Q904 326 896 326Q836 330 836 354H828Q820 354 820 338H804L800 358H792Q792 336 760 330Q720 330 720 358H716L704 350L688 358Q688 330 644 330Q638 330 608 358L600 346Q604 346 604 342L596 338H592Q584 338 584 346Q588 346 588 350Q574 354 572 354Q557 326 508 326L504 334V358H188Q176 382 160 382Q61 416 56 434L48 430H40V442L32 438H24L4 442V450Q178 596 700 994ZM652 918 656 910V898Q636 898 636 890V882H632L612 886L616 866L608 862H604L592 870V862Q596 854 596 850L588 846L576 854H572V830H560L552 834Q552 810 544 810Q536 810 536 822H532V798H524L512 806Q512 802 508 794Q512 786 512 782L504 778Q496 778 496 790Q488 790 488 778Q492 770 492 766L484 762H472Q472 746 464 746H452V730H432Q432 721 428 714L420 718H412V702H420Q422 702 432 710H436L464 690V694Q460 702 460 706H948V702L932 686V682Q966 710 976 710Q984 706 988 706L992 714V718L972 714L968 722Q972 730 972 734H968L952 730L948 738Q952 746 952 750H948Q941 746 932 746V770L920 762Q912 762 912 770V774L916 782H908Q900 778 896 778L892 786V790L896 798Q873 798 868 802L872 810V818L856 810Q852 816 852 834Q839 826 832 826Q832 830 828 830L832 850V854H828L816 846Q812 846 804 862Q796 858 792 858L788 866L792 886H788Q781 882 772 882H768V902L752 894Q724 970 704 970H696Q675 961 664 922Q660 922 652 918ZM700 918Q938 724 944 714V710H456V714Q476 738 700 918ZM692 890Q672 866 504 726V730L524 754V758Q522 758 484 722H916Q916 728 904 734L900 726Q884 731 704 890ZM736 878V870H740V878ZM696 878H700L868 738V730H824Q815 731 704 830H700V826Q798 742 800 734V730H748Q702 770 700 770Q656 730 640 730H600V734Q685 818 696 818V826Q671 809 580 730H532V734ZM756 862V858Q756 852 768 846V850Q768 856 756 862ZM628 846V842Q636 842 636 850V854Q628 853 628 846ZM784 838V834Q784 828 800 818V822Q800 828 784 838ZM600 826V818H604V826ZM812 814V810Q812 804 828 794V798Q828 804 812 814ZM488 806V798H492V806ZM572 798V794Q580 794 580 802V806Q572 805 572 798ZM468 790V782H472V790ZM840 790V786Q840 781 860 766V770Q860 775 840 790ZM544 774V770Q552 770 552 778V782Q544 781 544 774ZM696 778V774H704V778ZM448 774V766H452V774ZM868 766V762Q868 757 888 742V746Q888 751 868 766ZM428 758V750H432V758ZM700 762Q706 762 728 734V730H672V734Q672 740 700 762ZM404 734V730Q412 730 412 738V742Q404 741 404 734ZM384 722V714H388V722ZM1004 710Q1004 704 996 694H1012V702Q1012 710 1004 710ZM364 706V698H368V706ZM392 702 396 694Q396 686 388 686H380V694H376V682Q380 674 380 670Q396 686 404 686V702ZM340 682V678Q348 678 348 686V690Q340 689 340 682ZM1016 678H1028V686H1024Q1016 685 1016 678ZM320 666V662Q328 662 328 670V674Q320 673 320 666ZM356 674 360 654Q368 654 368 662V666Q368 674 360 674ZM1036 666V662H1048V674H1044Q1036 673 1036 666ZM300 650V646Q308 646 308 654V658Q300 657 300 650ZM336 658Q336 645 332 638L324 642H316V638Q320 630 320 626Q316 626 316 622H320L348 646V654Q344 654 336 658ZM516 658V606H624V630L628 658ZM636 658V606L684 602H728Q772 602 772 622V638L768 658ZM780 658V606L844 602Q892 605 892 614V630L888 658ZM1052 646H1060Q1068 646 1068 654V658H1064Q1058 658 1052 646ZM280 634V630Q288 630 288 638V642Q280 641 280 634ZM1076 634V630H1080Q1088 630 1088 638V642H1084Q1076 641 1076 634ZM924 634V622H928V634ZM256 614V610Q262 610 268 622V626Q262 626 256 614ZM296 626V622L300 614Q294 610 276 610Q280 602 280 598H288Q312 612 312 618Q312 626 304 626ZM1092 618V614Q1108 620 1108 626H1100Q1092 625 1092 618ZM968 614V566H972V614ZM1112 602V598Q1120 602 1124 602V614Q1118 614 1112 602ZM236 598V594Q242 594 248 606V610Q242 610 236 598ZM260 602Q260 579 256 574H260Q266 574 272 586Q264 596 264 602ZM1136 602 1132 582H1136Q1144 582 1144 590V602ZM216 582V578Q222 578 228 590V594Q222 594 216 582ZM656 590Q656 586 652 578Q656 570 656 566H744Q750 566 756 578Q756 584 744 590ZM772 590V486Q772 478 764 478H632V470H764Q772 470 772 458V422H776V462H784Q784 446 792 446H800Q812 450 812 470V578Q798 582 796 582L776 578V590ZM1016 590V550H1020V590ZM240 586V578Q244 570 244 566Q236 565 236 558H240Q246 558 252 570V574Q252 580 240 586ZM516 578V454Q517 446 524 446H536Q548 446 548 510Q544 565 544 578Q530 582 528 582Q520 578 516 578ZM556 578V454Q556 448 572 442Q572 450 584 450V578Q570 582 568 582Q560 578 556 578ZM592 522Q592 515 596 450L616 446L624 458V578L604 582Q592 582 592 522ZM820 570V510Q820 442 840 442L852 458V558Q852 582 836 582Q820 576 820 570ZM860 570V450L880 446Q892 446 892 498V530Q892 582 876 582Q860 576 860 570ZM1148 570 1156 566 1164 578V582H1160Q1154 582 1148 570ZM196 566V562Q204 562 204 570V574Q196 573 196 566ZM336 574V530H340V574ZM220 566V562Q221 554 228 554H232V558Q232 566 224 566ZM1168 562V558Q1169 550 1176 550L1184 566H1180Q1172 562 1168 562ZM172 546V542Q178 542 184 554V558Q178 558 172 546ZM1088 558V530H1092V558ZM204 554V534H208Q228 545 228 550H224Q216 546 212 546Q212 554 204 554ZM1076 554V542H1080V554ZM1188 542Q1189 534 1196 534L1200 554Q1194 554 1188 542ZM304 550V534H308V550ZM316 550V542H320V550ZM152 530V526Q158 526 164 538V542Q158 542 152 530ZM288 534V530H296V542Q288 541 288 534ZM648 542Q640 529 640 518V498Q640 492 652 486Q660 490 664 490V538Q650 542 648 542ZM684 542V494Q692 494 692 502V542ZM716 542 712 534V498H724V534Q724 542 716 542ZM748 542Q748 540 740 530V510Q740 496 752 486Q760 490 764 490V538Q750 542 748 542ZM1112 542V530H1116V542ZM184 534 188 526Q184 518 184 514Q190 514 196 526Q196 534 188 534ZM1204 526H1216V534H1212Q1204 533 1204 526ZM72 466V462Q114 491 144 522V526Q73 471 72 466ZM168 526Q168 522 164 522Q168 514 168 510H180V514Q180 520 168 526ZM1212 522V518H1220V522ZM1224 518V510H1236V522Q1228 518 1224 518ZM148 510V502Q149 494 156 494H160V498Q160 504 148 510ZM960 506V486H964V506ZM1244 502V494H1248Q1256 494 1256 502V506Q1248 502 1244 502ZM412 502V490H416V502ZM324 498V486H328V498ZM396 498V490H400V498ZM472 498V490H476V498ZM128 494V486Q129 478 136 478Q144 482 148 482V490Q135 490 128 494ZM1260 482H1276V490H1268Q1260 489 1260 482ZM1316 478V470H1320V478ZM112 474V466H120V474ZM1280 466H1292V474H1288Q1280 473 1280 466ZM92 462V458Q92 452 104 446V454Q104 462 96 462ZM176 462V446H180V462ZM1300 454V450H1308V462Q1300 461 1300 454ZM1336 462V454H1340V462ZM48 446V442Q56 442 56 450V454Q48 453 48 446ZM196 446V374H220V446Q220 454 212 454H204Q196 453 196 446ZM232 406Q232 403 236 374H252Q260 374 260 382V446Q260 454 252 454H244Q232 454 232 406ZM276 454 272 434V382Q273 374 280 374H296L300 394V422Q300 452 288 454ZM312 454 308 426V402L312 374H328Q336 374 336 382V426L332 454ZM344 430V414L348 374H372V434L368 454H356Q344 450 344 430ZM384 442V382Q385 374 392 374H404Q412 374 412 382V442Q412 448 400 454H396Q390 454 384 442ZM428 446V374H452V446Q452 454 444 454H436Q428 453 428 446ZM468 446V374H492V446Q492 454 484 454H476Q468 453 468 446ZM952 450V374Q964 374 964 370Q980 376 980 382V430Q980 454 964 454Q956 450 952 450ZM992 414Q998 370 1008 370Q1016 374 1020 374V446Q1020 454 1012 454H1004Q996 454 992 414ZM1036 446V418Q1036 409 1032 402Q1036 395 1036 386V374H1060V446Q1060 454 1052 454H1044Q1036 453 1036 446ZM1072 446V374H1088Q1096 374 1096 382V446Q1096 454 1088 454H1080Q1072 453 1072 446ZM1108 446V382Q1109 374 1116 374H1132L1136 422V430Q1136 451 1124 454H1116Q1108 453 1108 446ZM1148 446V374Q1156 374 1156 370Q1172 376 1172 382V446Q1172 454 1164 454H1156Q1148 453 1148 446ZM1188 454 1184 434V402Q1184 385 1192 370Q1212 375 1212 382V430Q1212 451 1200 454ZM1316 438 1324 434H1332V450H1328Q1322 450 1316 438ZM72 446V434H88V438Q88 446 80 446ZM508 410V378H512Q512 406 520 406H688Q696 406 696 378H700V410ZM724 410V406H896V410ZM192 354H492Q500 353 500 346V314Q517 314 540 306Q536 259 536 238V42Q536 29 548 14V6H500Q512 44 512 54V266Q512 296 500 298Q492 274 484 274Q476 274 476 282L480 290H464Q464 269 424 266Q396 276 396 294H392L376 274L360 294Q343 266 324 266H316Q297 266 280 294L272 282Q276 282 276 278L264 270Q256 270 256 278L260 286Q246 290 244 290Q235 266 216 266V34Q228 19 228 6H188L180 10Q192 30 192 42V258L184 270V298Q185 306 192 306H236V310H188L184 318V346Q185 354 192 354ZM400 314V310H464V314ZM964 262H1156Q1164 261 1164 254V18L1160 10L1132 14Q979 10 964 10Q964 14 960 14Q956 153 956 214V254Q957 262 964 262ZM976 246Q977 238 984 238H1004Q1050 238 1144 242V246ZM976 226V218H1148V226ZM976 202V198H1148V206H1004ZM976 186Q980 178 980 174Q1103 178 1148 178V182H1012ZM976 162V154H1148V162ZM976 142Q977 134 984 134H1148V142ZM976 122V110Q1016 114 1036 114H1096L1144 110V122ZM976 98V90H1144V98ZM976 78V70H1144V78ZM976 58V46L1016 50Q1092 46 1120 46L1148 50V54H1096Q1056 54 976 58ZM976 34Q977 26 984 26H1136Q1144 26 1144 34Z" fill="param(fill) #111111" fill-opacity="param(fill-opacity) 1" stroke="param(outline) none" stroke-opacity="param(outline-opacity) 1" stroke-width="param(outline-width) 0" stroke-linejoin="round"/>
  </g>
</svg>
