<svg xmlns="http://www.w3.org/2000/svg" width="100%" height="100%" viewBox="0 0 1624.00 1624.00">
  <g transform="translate(112.00,1312.00) scale(1,-1)">
    <path d="M696 958Q853 761 872 730L864 726H524L516 730Q659 925 696 958ZM112 934Q339 878 568 834Q525 765 480 726H176Q121 808 108 930Q112 930 112 934ZM1276 934 1280 926Q1241 726 1212 726H904Q900 727 820 830V838Q1082 882 1276 934ZM172 710H468V706Q364 562 336 538H40Q32 538 32 546Q168 710 172 710ZM884 710Q930 665 1020 542L1012 538H376Q368 538 368 546Q495 709 504 710ZM920 710H1216Q1265 661 1352 546V538H1052Q920 691 920 710ZM20 522H1368Q1376 521 1376 514V506Q1376 498 1368 498H20Q12 498 12 506V514Q13 522 20 522ZM128 478H448Q456 477 456 470V378Q456 336 452 250L444 246H172Q161 246 120 474ZM480 478H488Q500 476 500 446V318Q500 302 496 286Q500 271 500 254V170Q500 98 488 98H480Q472 98 472 106V470Q473 478 480 478ZM524 478H876Q884 477 884 470V370Q884 330 880 250L872 246H792Q784 246 784 254V330Q784 434 696 434Q622 434 612 342V254Q612 246 604 246H524Q516 246 516 254V470Q517 478 524 478ZM908 478H920Q928 477 928 470Q924 237 924 106Q924 98 916 98H908Q900 98 900 106V470Q901 478 908 478ZM952 478H1272V474Q1233 246 1220 246H952Q944 246 944 254V470Q945 478 952 478ZM232 354V318Q232 294 272 294H344Q368 294 368 318V358Q368 418 320 438H300Q232 438 232 354ZM1028 354V306Q1031 294 1060 294H1148Q1154 294 1160 306V374Q1152 438 1096 438Q1028 438 1028 354ZM172 230H448Q456 229 456 222V210Q456 202 448 202H180Q172 202 172 210ZM524 230H876Q884 229 884 222V210Q884 202 876 202H772V102Q772 94 764 94H748Q740 94 740 102V126L744 134H652V102Q652 94 644 94H632Q624 94 624 102V202H524Q516 202 516 210V222Q517 230 524 230ZM952 230H1220V214Q1220 208 1208 202H952Q944 202 944 210V222Q945 230 952 230ZM652 202V162H740V202ZM272 186H284Q292 185 292 178V106Q292 98 284 98H272Q264 98 264 106V178Q265 186 272 186ZM1108 186H1124L1132 182L1128 174V106Q1128 98 1120 98H1108Q1100 98 1100 106V178Q1101 186 1108 186ZM76 78H1324Q1381 78 1400 46L1392 42H8Q0 42 0 50Q27 78 76 78Z" fill="param(fill) #111111" fill-opacity="param(fill-opacity) 1" stroke="param(outline) none" stroke-opacity="param(outline-opacity) 1" stroke-width="param(outline-width) 0" stroke-linejoin="round"/>
  </g>
</svg>
