<svg xmlns="http://www.w3.org/2000/svg" width="100%" height="100%" viewBox="0 0 1624.00 1624.00">
  <g transform="translate(112.00,1312.00) scale(1,-1)">
    <path d="M520 892H532Q536 892 568 848V844H508Q500 844 500 852Q509 892 520 892ZM876 892H888Q900 892 908 848L900 844H840V848Q841 857 876 892ZM704 872Q726 872 736 852V844H672V852Q682 872 704 872ZM508 828H904Q985 697 992 664H424L416 668Q482 799 508 828ZM408 648H992Q1029 648 1268 468V464H140V468Q389 648 408 648ZM104 548H108Q118 548 156 536H188Q196 535 196 528L120 476H116Q103 476 92 536Q92 542 104 548ZM1296 548H1304Q1316 544 1316 524V520Q1306 476 1292 476Q1225 518 1216 532V536H1256ZM268 448H276Q284 447 284 440V260H372V440Q373 448 380 448H520Q528 447 528 440V168Q528 160 520 160H380Q372 160 372 168V236H368Q298 232 284 232V168Q284 160 276 160H264Q256 160 256 168Q260 376 260 444ZM552 448H860Q868 447 868 440V168Q868 160 860 160H796Q775 160 772 172V380H640V168Q640 160 632 160H628Q544 160 544 172V440Q545 448 552 448ZM892 448H1032Q1040 447 1040 440V260H1124V440Q1125 448 1132 448H1144Q1152 447 1152 440V172Q1152 166 1140 160H1132Q1124 160 1124 168V232H1040V168Q1040 160 1032 160H892Q884 160 884 168V440Q885 448 892 448ZM84 148H1316Q1380 148 1400 112L1392 108H8Q0 108 0 116Q27 148 84 148Z" fill="param(fill) #111111" fill-opacity="param(fill-opacity) 1" stroke="param(outline) none" stroke-opacity="param(outline-opacity) 1" stroke-width="param(outline-width) 0" stroke-linejoin="round"/>
  </g>
</svg>
