<svg xmlns="http://www.w3.org/2000/svg" width="100%" height="100%" viewBox="0 0 1624.00 1624.00">
  <g transform="translate(112.00,1312.00) scale(1,-1)">
    <path d="M748 986H792Q1035 986 1192 746Q1238 634 1248 626Q1305 582 1344 506Q1400 385 1400 338V42Q1400 36 1388 30H1364Q1358 30 1352 42V346H1232V62Q1228 50 1208 50Q1192 50 1184 66V346H1064V142Q1056 126 1040 126Q1012 132 1012 142V346H896V30Q896 24 880 14H856Q850 14 844 26V346H724V170Q724 164 712 158H684Q676 158 676 166V346H556V30Q550 14 528 14Q512 14 504 30V346H388V126Q388 116 360 110Q336 118 336 126V346H216V26Q212 14 192 14Q171 14 168 26V346H48V30Q48 24 36 18H8Q0 18 0 26V350Q67 548 228 646L324 686Q395 866 584 954Q680 986 748 986ZM392 694 400 698H412Q647 698 796 482H800Q913 698 1080 698Q1101 698 1156 686Q1033 930 768 930H756Q525 930 392 698ZM88 406V402Q516 398 716 398H764L772 426Q629 638 428 638Q220 638 88 406ZM824 434Q840 405 840 398H1336Q1236 638 1064 638Q926 638 824 434Z" fill="param(fill) #111111" fill-opacity="param(fill-opacity) 1" stroke="param(outline) none" stroke-opacity="param(outline-opacity) 1" stroke-width="param(outline-width) 0" stroke-linejoin="round"/>
  </g>
</svg>
