<svg xmlns="http://www.w3.org/2000/svg" width="100%" height="100%" viewBox="0 0 1624.00 1624.00">
  <g transform="translate(112.00,1312.00) scale(1,-1)">
    <path d="M644 1002H748Q1091 1002 1304 854Q1400 766 1400 678V630Q1390 554 1332 554H1304Q1184 554 1060 630Q1040 651 1040 666V674Q1040 686 1068 770V778Q1068 813 1000 822H984Q978 822 972 810V786Q972 593 1096 478Q1236 329 1236 218Q1248 163 1276 98L1280 78Q1266 -2 1180 -2H156Q104 -2 104 70V74Q104 88 140 170Q168 329 220 378Q416 577 416 670Q428 675 432 798Q432 832 416 834Q365 834 336 770Q364 691 364 666Q364 595 132 546Q113 542 80 542H68Q0 542 0 626V662Q0 880 364 970Q499 1002 644 1002ZM40 642Q40 578 80 578H84Q192 578 316 650Q324 663 324 674Q296 747 296 754V778Q296 835 412 870L432 874Q464 874 472 814V782Q472 563 312 418Q188 287 188 194Q180 158 148 74V54Q158 34 180 34H1160Q1236 34 1236 82Q1236 96 1200 186Q1177 330 1116 398Q932 579 932 718Q932 739 928 786Q928 866 980 866Q1116 844 1116 782Q1116 770 1084 674V670Q1084 622 1300 590H1316Q1356 590 1356 650Q1356 868 956 946Q831 966 748 966H652Q160 944 56 730Q40 681 40 642ZM516 870Q603 854 684 854H724Q795 854 884 866L888 858V770Q888 690 796 690H596Q512 690 512 754V862ZM556 830V758Q556 726 600 726H796Q844 726 844 762V826Q784 818 744 818H716Q707 818 700 814Q693 818 684 818H660Q619 818 556 830ZM688 658H700Q913 658 992 438Q1000 377 1000 350Q1000 155 792 74Q758 63 696 58Q500 58 412 246Q392 290 392 358Q392 561 592 642Q633 658 688 658ZM432 358Q432 169 628 102Q655 98 672 98H688Q692 98 692 94L700 98H720Q862 98 940 266Q952 309 952 338V382Q952 531 800 606Q756 626 688 626Q510 626 440 430Z" fill="param(fill) #111111" fill-opacity="param(fill-opacity) 1" stroke="param(outline) none" stroke-opacity="param(outline-opacity) 1" stroke-width="param(outline-width) 0" stroke-linejoin="round"/>
  </g>
</svg>
