<svg xmlns="http://www.w3.org/2000/svg" width="100%" height="100%" viewBox="0 0 1614.72 1614.72">
  <g transform="translate(107.36,1307.36) scale(1,-1)">
    <path d="M704 918Q1387 606 1396 606V594Q1322 562 1316 562V322Q1324 306 1336 306V298Q1304 277 1304 274Q1336 261 1336 254Q1304 233 1304 230Q1330 210 1336 210V198Q1307 186 1304 186V178Q1333 166 1336 166V154L1304 142V134Q1316 134 1336 110Q1336 99 1280 82H1272Q1264 82 1264 90Q1292 106 1304 106L1264 138Q1264 148 1304 158V162Q1267 178 1264 178V186Q1301 202 1304 202V206Q1264 225 1264 234V238Q1296 250 1300 250V258Q1264 269 1264 278V282Q1284 282 1304 302Q1299 302 1284 322V542Q1273 542 700 278Q34 584 4 594V606L700 918Z" fill="param(fill) #111111" fill-opacity="param(fill-opacity) 1" stroke="param(outline) none" stroke-opacity="param(outline-opacity) 1" stroke-width="param(outline-width) 0" stroke-linejoin="round"/>
  </g>
</svg>
