<svg xmlns="http://www.w3.org/2000/svg" width="100%" height="100%" viewBox="0 0 1624.00 1624.00">
  <g transform="translate(112.00,1312.00) scale(1,-1)">
    <path d="M420 1024H472Q631 1024 700 912Q758 1024 940 1024H980Q1240 1005 1240 964L1272 900Q1352 896 1380 896Q1400 893 1400 884V-16Q1400 -24 1392 -24L824 16Q762 -16 720 -16H700Q652 -16 576 16L4 -24L0 -16V880Q0 888 12 888Q22 888 120 892Q161 988 184 988Q317 1024 420 1024ZM448 988H424Q350 988 212 960V260H216Q361 284 452 284Q599 284 680 208V828Q680 933 568 976Q512 988 488 988H460Q456 988 456 992ZM940 988H912Q728 964 728 876Q718 876 716 792V204Q786 284 948 284Q1081 284 1188 256V960Q1049 988 960 988H952Q948 988 948 992ZM168 912Q112 805 112 796V136H116Q172 244 172 256V912ZM1224 912V260Q1224 251 1280 144H1284V796Q1284 803 1228 912ZM1292 864Q1320 821 1320 808V72Q1320 64 1312 64Q1273 64 800 96Q753 64 708 64H688Q637 64 608 96Q125 64 80 64L76 72V804Q76 813 100 860H96L72 856H32V12Q528 52 596 52Q642 20 696 20H716Q756 20 816 52Q870 52 1368 12V860L1320 864ZM140 100H144L616 136Q631 111 680 100V104Q680 187 580 232Q517 248 464 248H448Q322 248 196 216Q196 209 140 100ZM720 108V100Q739 100 796 136L1264 100Q1206 220 1192 220Q1052 248 948 248H936Q720 248 720 108Z" fill="param(fill) #111111" fill-opacity="param(fill-opacity) 1" stroke="param(outline) none" stroke-opacity="param(outline-opacity) 1" stroke-width="param(outline-width) 0" stroke-linejoin="round"/>
  </g>
</svg>
