<svg xmlns="http://www.w3.org/2000/svg" width="100%" height="100%" viewBox="0 0 1624.00 1624.00">
  <g transform="translate(112.00,1312.00) scale(1,-1)">
    <path d="M1234 1200Q1314 1146 1314 1140Q1238 1022 1238 1004L1158 36L1150 32H1006V28Q1078 1 1078 -56Q1078 -59 1082 -80Q1082 -200 974 -200H946Q838 -200 838 -76Q838 -2 910 28V32H402V28Q474 4 474 -76V-92Q474 -157 422 -188Q403 -200 362 -200H342Q234 -188 234 -100V-80Q234 -2 302 28H306V32H142Q134 32 134 40V128Q135 136 142 136H1062L1078 352Q251 484 86 516V1052Q87 1060 94 1060H1142Q1201 1159 1234 1200ZM190 956V828L422 816V956ZM526 956V808L758 792V956ZM862 956V784Q906 784 1114 768Q1126 933 1130 956ZM190 724V600H194Q209 600 422 564V708Q400 712 190 724ZM526 704V548Q744 512 758 512V688Q558 700 526 704ZM862 680V492Q906 488 1090 456Q1090 493 1106 664Q1080 668 862 680Z" fill="param(fill) #111111" fill-opacity="param(fill-opacity) 1" stroke="param(outline) none" stroke-opacity="param(outline-opacity) 1" stroke-width="param(outline-width) 0" stroke-linejoin="round"/>
  </g>
</svg>
