<svg xmlns="http://www.w3.org/2000/svg" width="100%" height="100%" viewBox="0 0 1624.00 1624.00">
  <g transform="translate(112.00,1312.00) scale(1,-1)">
    <path d="M804 1076H808Q816 1075 816 1068V752Q811 747 780 732Q740 674 740 500Q740 252 816 252V-68Q816 -76 808 -76H804Q724 -76 640 60Q552 226 552 484V516Q552 930 756 1064Q794 1076 804 1076ZM848 1076H940Q968 1063 968 1016V796Q968 744 924 744H848Q840 744 840 752V1068Q841 1076 848 1076ZM1284 756Q1400 648 1400 492V456Q1400 354 1324 236H1316Q1296 247 1296 252V256Q1368 354 1368 484Q1368 620 1264 736Q1264 741 1284 756ZM112 752H116Q136 742 136 736V732Q32 620 32 492V480Q32 476 28 476L32 468V456Q32 353 104 252V244Q98 244 88 236H80Q0 337 0 456V496Q0 639 112 752ZM1124 680H1128Q1212 598 1212 484V452Q1212 392 1156 296Q1135 296 1132 308Q1188 396 1188 476Q1188 575 1112 664V668Q1112 674 1124 680ZM284 664H288Q298 656 304 656V648Q224 561 224 464Q224 381 280 288Q267 280 260 280Q200 364 200 468Q200 577 284 664ZM436 588 448 572V568Q408 538 408 492Q410 457 444 424Q444 419 424 404Q376 441 376 496Q392 588 436 588ZM964 588H972Q1020 548 1020 496Q1020 448 980 412H976Q971 412 956 432Q982 455 988 496Q988 531 952 564V568Q964 581 964 588ZM848 256H924Q968 256 968 196V-16Q968 -63 940 -76H848Q840 -76 840 -68V248Q841 256 848 256Z" fill="param(fill) #111111" fill-opacity="param(fill-opacity) 1" stroke="param(outline) none" stroke-opacity="param(outline-opacity) 1" stroke-width="param(outline-width) 0" stroke-linejoin="round"/>
  </g>
</svg>
