<svg xmlns="http://www.w3.org/2000/svg" width="100%" height="100%" viewBox="0 0 1624.00 1624.00">
  <g transform="translate(112.00,1312.00) scale(1,-1)">
    <path d="M808 1200Q867 1192 876 1184Q800 847 792 832Q715 832 704 764V236Q704 179 800 164Q876 -174 876 -188Q818 -200 800 -200Q614 -116 608 -100Q488 254 488 504Q488 788 620 1112Q800 1200 808 1200ZM896 1180H900Q984 1171 984 1156Q915 873 896 820Q857 828 820 828V832ZM104 1056Q199 998 260 952Q254 952 248 940L308 884V880Q308 872 296 872L396 768V764Q233 871 232 876L248 892Q213 919 192 940L204 956L104 1052ZM1296 1056 1200 952Q1206 952 1212 940L1152 880Q1158 880 1164 868V864L1012 764H1008L1108 868V872Q1096 872 1096 880L1152 932Q1142 940 1136 940V944Q1157 969 1296 1056ZM1008 236H1012L1164 136V132L1152 116Q1211 67 1212 60L1200 44Q1206 44 1296 -56H1292Q1145 42 1136 56V60Q1152 60 1152 72Q1137 80 1096 120Q1096 128 1108 128V132ZM396 232 296 128Q304 124 308 124V116Q308 112 248 60L256 48V44Q120 -52 108 -52L204 48Q196 52 192 52V64L248 104Q232 122 232 124V128Q391 232 396 232ZM900 180Q916 130 984 -160Q979 -169 900 -180Q892 -159 820 168Q832 172 900 180Z" fill="param(fill) #111111" fill-opacity="param(fill-opacity) 1" stroke="param(outline) none" stroke-opacity="param(outline-opacity) 1" stroke-width="param(outline-width) 0" stroke-linejoin="round"/>
  </g>
</svg>
