<svg xmlns="http://www.w3.org/2000/svg" width="100%" height="100%" viewBox="0 0 1624.00 1624.00">
  <g transform="translate(112.00,1312.00) scale(1,-1)">
    <path d="M184 1152H196Q552 805 552 788V776Q532 724 532 712Q532 670 640 584Q641 578 716 512L884 672L880 720V760Q880 985 1148 1100Q1207 1116 1240 1116Q1355 1116 1396 992L1400 936Q1393 856 1324 748Q1191 592 1020 592L952 600Q929 570 800 432Q1205 59 1292 -32V-48Q1226 -140 1192 -140Q1167 -140 952 100L716 344Q352 -54 244 -152H228Q132 -83 132 -44Q132 -23 440 260Q474 286 584 388Q628 432 636 432V436Q470 620 452 620H444Q431 620 368 592Q351 592 0 956V972Q0 981 20 984L260 752H280L284 772L56 1012V1028Q57 1036 64 1036H80L320 808H340V828Q290 885 112 1072V1080Q112 1086 128 1096H132Q208 1028 348 892Q377 864 392 864L400 876Q400 894 336 956Q172 1119 172 1132V1140Q172 1146 184 1152Z" fill="param(fill) #111111" fill-opacity="param(fill-opacity) 1" stroke="param(outline) none" stroke-opacity="param(outline-opacity) 1" stroke-width="param(outline-width) 0" stroke-linejoin="round"/>
  </g>
</svg>
