<svg xmlns="http://www.w3.org/2000/svg" width="100%" height="100%" viewBox="0 0 1624.00 1624.00">
  <g transform="translate(112.00,1312.00) scale(1,-1)">
    <path d="M328 1200H908Q913 1200 988 1120V532H1000Q1050 532 1064 496Q1088 437 1108 180Q1120 120 1152 120H1172Q1178 120 1200 148V532Q1200 539 1116 600L1096 628V764Q1096 792 1128 808Q1117 905 1060 980Q1052 993 1052 1004L1132 1052H1136Q1203 941 1268 864Q1316 776 1316 712V124Q1280 28 1212 28Q1180 20 1136 20Q1034 20 992 220H988V-28H1200Q1208 -29 1208 -36V-192Q1208 -200 1200 -200H92Q84 -200 84 -192V-36Q85 -28 92 -28H244V1120Q246 1127 328 1200ZM376 1020V752H860V1020Z" fill="param(fill) #111111" fill-opacity="param(fill-opacity) 1" stroke="param(outline) none" stroke-opacity="param(outline-opacity) 1" stroke-width="param(outline-width) 0" stroke-linejoin="round"/>
  </g>
</svg>
