<svg xmlns="http://www.w3.org/2000/svg" width="100%" height="100%" viewBox="0 0 1624.00 1624.00">
  <g transform="translate(112.00,1312.00) scale(1,-1)">
    <path d="M228 1200H1172Q1319 1200 1392 1028Q1400 998 1400 972V32Q1400 -123 1216 -196L1176 -200H232Q83 -200 8 -24Q0 6 0 32V972Q0 1121 172 1192Q202 1200 228 1200ZM208 956V608Q208 600 200 600H120Q114 600 108 588Q114 572 120 572H496Q508 700 616 700Q715 700 732 580V572Q872 561 872 548V308H912V548Q913 554 1004 580Q1036 609 1036 628V952Q1036 994 720 1032H468Q367 1032 212 964ZM316 936H476Q484 935 484 928V812Q484 804 476 804H316Q308 804 308 812V928Q309 936 316 936ZM620 936H912Q920 935 920 928V812Q920 804 912 804H620Q612 804 612 812V928Q613 936 620 936ZM512 580Q530 476 604 476H628Q700 476 720 576Q705 680 616 680H604Q532 680 512 580ZM604 608H624Q630 608 636 596V572Q636 566 620 556H604Q598 556 588 572V592Q588 598 604 608ZM140 512Q140 476 172 476H188Q220 476 220 516Q220 552 188 552H172Q140 552 140 512ZM52 460V40Q52 -89 204 -144Q225 -148 244 -148H1164Q1234 -148 1296 -88Q1352 -36 1352 88V460H944V288H1124Q1132 287 1132 280V-48Q1132 -56 1124 -56H660Q652 -56 652 -48V280Q653 288 660 288H836V460Z" fill="param(fill) #111111" fill-opacity="param(fill-opacity) 1" stroke="param(outline) none" stroke-opacity="param(outline-opacity) 1" stroke-width="param(outline-width) 0" stroke-linejoin="round"/>
  </g>
</svg>
