<svg xmlns="http://www.w3.org/2000/svg" width="100%" height="100%" viewBox="0 0 1624.00 1624.00">
  <g transform="translate(112.00,1312.00) scale(1,-1)">
    <path d="M648 854H740Q1104 829 1104 754Q1132 707 1132 642Q1115 634 1068 634H1040Q908 650 908 686Q908 750 704 750Q484 750 484 666Q406 626 344 626Q264 633 264 650Q292 802 352 802Q508 854 648 854ZM36 806Q42 806 48 794Q20 734 20 642V622Q20 594 28 546L20 542H8Q0 590 0 618V658Q0 742 32 806ZM1364 806Q1387 806 1400 662V618Q1400 590 1392 542H1380Q1372 542 1372 550Q1380 590 1380 622V642Q1380 728 1352 798ZM116 770 132 762Q112 708 112 650Q112 629 116 582L100 574Q92 592 92 626V662Q97 758 116 770ZM1288 770Q1308 718 1308 662V626Q1308 592 1300 574L1284 582Q1288 629 1288 650Q1288 708 1268 762Q1281 770 1288 770ZM188 738H192Q198 738 204 726Q196 700 192 642Q196 626 196 614Q183 606 176 606L172 614V670Q176 738 188 738ZM1208 738H1212Q1224 738 1228 670V614Q1228 606 1220 606Q1204 612 1204 618L1208 646Q1204 696 1196 730ZM692 714Q876 695 876 674V602Q876 591 1000 390Q1020 355 1036 274L1028 270H364L356 274Q357 332 524 594V674Q524 695 684 714ZM912 646Q998 614 1052 614Q1089 614 1136 626L1140 618V614Q1140 526 1076 526H1032Q912 536 912 610ZM488 642V622Q488 518 344 518Q260 518 260 606V618L268 622Q311 610 340 610H360Q403 610 488 642ZM368 254H1032Q1040 253 1040 246V154Q1040 146 1032 146H368Q360 146 360 154V246Q361 254 368 254Z" fill="param(fill) #111111" fill-opacity="param(fill-opacity) 1" stroke="param(outline) none" stroke-opacity="param(outline-opacity) 1" stroke-width="param(outline-width) 0" stroke-linejoin="round"/>
  </g>
</svg>
