<svg xmlns="http://www.w3.org/2000/svg" width="100%" height="100%" viewBox="0 0 1619.36 1619.36">
  <g transform="translate(109.68,1309.68) scale(1,-1)">
    <path d="M738 1046Q778 1034 1390 810V802L662 558Q11 820 2 830V834ZM1350 746V546Q1350 540 1322 518H1318Q1312 518 1294 542V726Q1294 737 1350 746ZM1082 658 1086 650V358Q923 218 706 218Q495 218 334 358V642L338 650Q661 518 670 518ZM1318 502H1334Q1340 502 1358 478V458Q1350 442 1334 434H1318Q1286 434 1286 466V470Q1286 502 1318 502ZM1354 442H1362Q1375 442 1398 370V38Q1398 30 1390 30H1382Q1374 30 1374 38V358Q1374 367 1346 430V434Q1347 442 1354 442ZM1286 434H1294Q1306 434 1306 418Q1266 356 1266 342V26Q1266 20 1250 10Q1244 10 1238 22V350Q1238 371 1286 434ZM1334 394H1346Q1354 393 1354 386V-18Q1354 -24 1342 -30H1334Q1326 -30 1326 -22V386Q1327 394 1334 394ZM1298 378H1306Q1312 378 1318 366V-38Q1318 -46 1310 -46H1298Q1286 -42 1286 -22V354Q1289 378 1298 378Z" fill="param(fill) #111111" fill-opacity="param(fill-opacity) 1" stroke="param(outline) none" stroke-opacity="param(outline-opacity) 1" stroke-width="param(outline-width) 0" stroke-linejoin="round"/>
  </g>
</svg>
