<svg xmlns="http://www.w3.org/2000/svg" width="100%" height="100%" viewBox="0 0 1624.00 1624.00">
  <g transform="translate(112.00,1312.00) scale(1,-1)">
    <path d="M688 1134H720Q961 1134 1104 914Q1164 799 1164 678H1392Q1400 677 1400 670V-126Q1400 -134 1392 -134H8Q0 -134 0 -126V670Q1 678 8 678H236Q236 988 536 1110Q612 1134 688 1134ZM308 694V678H1092V694Q1092 938 840 1042Q768 1062 720 1062H684Q449 1062 340 842Q308 771 308 694ZM108 570V450H440V570ZM512 570V450H884V570ZM956 570V450H1292V570ZM108 378V182H440V378ZM512 378V182H884V378ZM956 378V182H1292V378ZM108 110V-26H440V110ZM512 110V-26H884V110ZM956 110V-26H1292V110Z" fill="param(fill) #111111" fill-opacity="param(fill-opacity) 1" stroke="param(outline) none" stroke-opacity="param(outline-opacity) 1" stroke-width="param(outline-width) 0" stroke-linejoin="round"/>
  </g>
</svg>
