<svg xmlns="http://www.w3.org/2000/svg" width="100%" height="100%" viewBox="0 0 1624.00 1624.00">
  <g transform="translate(112.00,1312.00) scale(1,-1)">
    <path d="M1392 1136H1400V24Q1400 16 1392 16H920Q912 16 912 24V204H744Q736 204 736 212V280Q737 288 744 288H1180V760H860V764Q944 828 1392 1136ZM404 1048Q607 1048 684 872Q688 845 688 828V404Q688 248 572 248H564V244L800 -132L792 -136H712Q708 -136 664 -80H128Q128 -92 88 -136H8Q0 -136 0 -128Q11 -117 240 248Q140 248 120 332Q112 383 112 428V812Q112 975 304 1036Q363 1048 404 1048ZM256 984V888H260Q333 924 380 924H412Q455 924 544 888V992Q468 1020 408 1020H400Q299 1019 256 984ZM140 828V808Q219 872 232 872V976Q140 920 140 828ZM568 976V876Q613 847 660 808V836Q660 918 568 976ZM140 748V708H256Q264 707 264 700V620Q264 612 256 612H140V364H652Q660 364 660 372V612H544Q536 612 536 620V700Q537 708 544 708H660V748Q598 837 460 876Q444 884 416 884H380Q261 884 140 748ZM396 860Q468 847 468 792Q454 724 408 724H388Q341 724 328 796Q328 841 396 860ZM356 792Q356 759 396 748Q440 755 440 788V804Q426 832 400 832H396Q356 827 356 792ZM152 684V640H240V684ZM560 684V640H648V684ZM292 200H508Q484 236 484 244H324Q318 244 292 200ZM232 88H572Q544 133 544 140H264Q255 140 232 88ZM168 -20H632V-16Q608 25 608 32H200Q195 32 168 -20Z" fill="param(fill) #111111" fill-opacity="param(fill-opacity) 1" stroke="param(outline) none" stroke-opacity="param(outline-opacity) 1" stroke-width="param(outline-width) 0" stroke-linejoin="round"/>
  </g>
</svg>
