<svg xmlns="http://www.w3.org/2000/svg" width="100%" height="100%" viewBox="0 0 1624.00 1624.00">
  <g transform="translate(112.00,1312.00) scale(1,-1)">
    <path d="M660 1200H740Q975 1200 1200 992Q1400 768 1400 540V460Q1400 225 1192 0Q968 -200 740 -200H660Q425 -200 200 8Q0 232 0 460V540Q0 775 208 1000Q432 1200 660 1200ZM44 500Q44 187 316 -32Q505 -156 700 -156Q1013 -156 1232 116Q1356 306 1356 500Q1356 813 1084 1032Q895 1156 700 1156Q387 1156 168 884Q44 695 44 500ZM700 1076H704Q756 1049 756 944Q768 911 768 852V724Q768 716 1296 460V372H1292Q1168 388 768 456V452Q760 180 760 124Q756 116 756 112Q824 56 920 -32V-76Q908 -76 756 -20H732L700 -76H696Q696 -70 680 -20H652Q625 -23 484 -80L480 -72V-36Q480 -33 644 112Q636 393 636 456Q134 372 104 372V456Q119 470 632 716V832Q651 1060 680 1060Q698 1076 700 1076Z" fill="param(fill) #111111" fill-opacity="param(fill-opacity) 1" stroke="param(outline) none" stroke-opacity="param(outline-opacity) 1" stroke-width="param(outline-width) 0" stroke-linejoin="round"/>
  </g>
</svg>
