<svg xmlns="http://www.w3.org/2000/svg" width="100%" height="100%" viewBox="0 0 1624.00 1624.00">
  <g transform="translate(112.00,1312.00) scale(1,-1)">
    <path d="M148 822Q1224 822 1224 754Q1336 527 1336 518H36Q28 518 28 526Q80 814 116 814Q131 822 148 822ZM172 602Q177 578 184 578H248Q254 578 260 590V694Q255 734 244 734H216Q180 734 180 634Q176 602 172 602ZM324 718V598Q327 574 336 574H376Q389 574 396 570L420 574H444V726Q404 730 384 730H348Q324 728 324 718ZM464 726V574Q477 574 532 570L580 574L584 594V690Q584 721 568 726Q556 726 492 730ZM648 702V614Q648 570 668 570H768V722L728 726H660Q648 722 648 702ZM788 722V590L792 570H896Q904 570 904 578V714Q904 726 860 726H816ZM996 714V610L1000 570Q1145 566 1208 566H1268V570Q1208 700 1200 706Q1113 714 996 714ZM32 502H1340Q1352 502 1380 374Q1392 374 1400 358V294Q1373 271 1372 258H1268Q1263 258 1244 314Q1210 350 1176 350H1172Q1105 350 1080 294Q1080 260 1060 258Q964 258 396 262Q365 358 292 358Q227 358 200 278H92Q0 278 0 298V358Q7 374 24 374V494Q25 502 32 502ZM296 346Q376 329 376 266V254Q362 178 300 178H280Q229 178 208 258Q223 346 296 346ZM1168 346Q1252 330 1252 266Q1252 192 1180 178H1160Q1101 178 1084 258V262Q1103 346 1168 346ZM240 266V254Q240 211 296 206Q340 206 348 266Q338 314 292 314H288Q240 304 240 266ZM1116 262V254Q1116 211 1172 206Q1224 219 1224 258Q1224 307 1168 314H1164Q1122 314 1116 262Z" fill="param(fill) #111111" fill-opacity="param(fill-opacity) 1" stroke="param(outline) none" stroke-opacity="param(outline-opacity) 1" stroke-width="param(outline-width) 0" stroke-linejoin="round"/>
  </g>
</svg>
