<svg xmlns="http://www.w3.org/2000/svg" width="100%" height="100%" viewBox="0 0 1624.00 1624.00">
  <g transform="translate(112.00,1312.00) scale(1,-1)">
    <path d="M396 1154Q625 1006 968 702Q1311 419 1400 334L1352 -2H1344Q1324 29 1312 122Q1263 254 1136 254H1108Q1074 254 1016 242Q733 426 724 426Q580 230 556 202Q508 234 508 238V242L668 462V470Q659 470 464 622V626L616 906Q616 910 368 1118Q383 1148 396 1154ZM380 458 384 450V242Q384 234 308 214Q204 145 204 58L196 54H8Q0 54 0 62Q9 434 24 434ZM56 390V242H232V406Q99 390 56 390ZM400 214H436Q556 214 608 66L612 26Q612 -94 472 -150L448 -154H400Q296 -154 244 -10Q240 6 240 22V38Q240 160 380 210Q387 214 400 214ZM1088 214H1124Q1215 214 1276 90Q1284 64 1284 54V6Q1284 -79 1168 -146Q1129 -154 1124 -154H1088Q970 -154 920 -10L916 30Q916 157 1056 210Q1072 214 1088 214ZM628 154Q678 154 908 142V138Q872 82 872 18H652Q645 18 628 142Q620 142 620 150ZM312 38V26Q329 -86 416 -86H428Q508 -86 532 14V38Q510 138 424 138Q312 118 312 38ZM992 38V18Q1011 -82 1108 -82Q1195 -82 1212 30V38Q1194 138 1100 138Q992 120 992 38Z" fill="param(fill) #111111" fill-opacity="param(fill-opacity) 1" stroke="param(outline) none" stroke-opacity="param(outline-opacity) 1" stroke-width="param(outline-width) 0" stroke-linejoin="round"/>
  </g>
</svg>
