<svg xmlns="http://www.w3.org/2000/svg" width="100%" height="100%" viewBox="0 0 1624.00 1624.00">
  <g transform="translate(112.00,1312.00) scale(1,-1)">
    <path d="M334 1200H1066Q1162 1176 1162 1108V336Q1162 251 1078 160L1058 156H1002L1226 -196L1218 -200H182Q174 -200 174 -192Q187 -179 394 152V156H330Q279 184 246 288Q238 304 238 332V1112Q238 1175 334 1200ZM418 1088V1076Q418 1020 478 1020Q538 1025 538 1068V1088Q538 1140 494 1140H462Q418 1140 418 1088ZM846 1084Q846 1020 910 1020Q970 1020 970 1080V1084Q970 1140 918 1140H894Q854 1140 846 1084ZM346 948V548H654V948ZM734 948V548H1042V948ZM446 48H954V52Q907 143 902 144H498Q487 142 446 48ZM350 -124H1050Q994 -34 994 -28H410Q405 -28 350 -124Z" fill="param(fill) #111111" fill-opacity="param(fill-opacity) 1" stroke="param(outline) none" stroke-opacity="param(outline-opacity) 1" stroke-width="param(outline-width) 0" stroke-linejoin="round"/>
  </g>
</svg>
