<svg xmlns="http://www.w3.org/2000/svg" width="100%" height="100%" viewBox="0 0 1624.00 1624.00">
  <g transform="translate(112.00,1312.00) scale(1,-1)">
    <path d="M700 1180Q756 1151 756 1092Q780 970 780 916V756Q792 751 912 672Q912 716 920 716H980Q988 715 988 708V616Q997 612 1080 556Q1080 596 1088 596H1152Q1160 595 1160 588V508Q1162 502 1400 340V244L1396 236Q876 448 864 448H780L768 40Q776 40 960 -128V-172Q960 -180 952 -180Q777 -112 768 -112H736Q727 -112 708 -176H696Q696 -169 676 -112H640Q627 -112 448 -180L444 -172V-128Q577 -3 636 40Q624 388 624 448H544Q523 448 4 236L0 244V336Q6 348 240 504V588Q241 596 248 596H312Q320 596 320 556L412 616V708Q413 716 420 716H484Q492 715 492 708V676H496Q614 753 624 756V920Q645 1156 672 1156Q698 1180 700 1180Z" fill="param(fill) #111111" fill-opacity="param(fill-opacity) 1" stroke="param(outline) none" stroke-opacity="param(outline-opacity) 1" stroke-width="param(outline-width) 0" stroke-linejoin="round"/>
  </g>
</svg>
