<svg xmlns="http://www.w3.org/2000/svg" width="100%" height="100%" viewBox="0 0 1624.00 1624.00">
  <g transform="translate(112.00,1312.00) scale(1,-1)">
    <path d="M560 762H568Q596 762 600 758Q627 762 644 762H844Q872 744 872 722V622H948V614H872V602H1352V610Q1381 610 1388 566Q1400 566 1400 558V498Q1400 486 1384 486V434Q1396 419 1396 406V362Q1396 346 1336 346H1272Q1238 346 1200 350Q1152 346 1152 342Q1130 238 1052 238H1024Q979 238 940 302Q930 350 924 350H360V338Q360 256 252 238H248Q157 238 140 350H28L20 354L24 394Q24 421 0 442V462Q29 530 80 554Q80 570 348 610Q353 610 484 746Q523 762 560 762ZM412 622Q464 622 464 602H468Q499 602 580 598Q597 598 684 606Q688 676 688 690Q688 730 664 730Q650 734 620 734H584Q486 734 468 690Q432 655 412 622ZM708 390H712Q712 418 720 418H840V422H716L712 430V594L716 602L736 598H788Q840 598 840 618V710Q840 734 816 734H732Q708 734 708 694ZM1172 626H1176Q1222 626 1316 622V614H1032V622Q1126 626 1172 626ZM604 562V546Q605 538 612 538H668Q676 538 676 546V562ZM404 554V390H408V554ZM120 378H140Q182 458 252 458Q325 458 356 378H380V382Q380 392 368 414Q374 418 392 418V422Q354 422 340 450Q288 478 264 478H248Q158 478 120 386ZM872 478V422H876V478ZM916 422V418H924L912 378H928Q980 454 1020 454L1044 458Q1105 458 1152 378H1168Q1168 385 1156 414Q1164 414 1164 422Q1157 422 1092 470Q1064 478 1044 478H1028Q989 478 924 422ZM1240 422V418H1320V422ZM200 350Q210 298 244 298H248Q300 298 300 350Q289 398 256 398Q200 393 200 350ZM992 346Q1001 298 1036 298H1048Q1092 305 1092 350Q1092 388 1040 398Q992 387 992 350ZM244 374H248Q276 374 276 346Q268 328 260 326H252Q224 326 224 350Q230 367 244 374ZM1044 374Q1064 368 1064 346V338Q1058 322 1036 322H1032Q1026 322 1016 338V342Q1016 366 1044 374Z" fill="param(fill) #111111" fill-opacity="param(fill-opacity) 1" stroke="param(outline) none" stroke-opacity="param(outline-opacity) 1" stroke-width="param(outline-width) 0" stroke-linejoin="round"/>
  </g>
</svg>
