<svg xmlns="http://www.w3.org/2000/svg" width="100%" height="100%" viewBox="0 0 1624.00 1624.00">
  <g transform="translate(112.00,1312.00) scale(1,-1)">
    <path d="M328 1200H908Q913 1200 988 1120V532H1000Q1050 532 1064 496Q1088 437 1108 180Q1120 120 1152 120H1172Q1178 120 1200 148V532Q1200 539 1116 600L1096 628V764Q1096 792 1128 808Q1118 893 1076 956Q1052 989 1052 1004L1132 1052H1136Q1203 941 1268 864Q1316 776 1316 712V124Q1280 28 1212 28Q1180 20 1136 20Q1034 20 992 220H988V-28H1200Q1208 -29 1208 -36V-192Q1208 -200 1200 -200H92Q84 -200 84 -192V-36Q85 -28 92 -28H244V1120Q246 1127 328 1200ZM376 1020V752H860V1020ZM408 652V388H828V652ZM464 612H508Q516 611 516 604V560Q516 552 508 552H464Q456 552 456 560V604Q457 612 464 612ZM580 612H664Q672 611 672 604V432Q672 424 664 424H580Q572 424 572 432V604Q573 612 580 612ZM732 612H776Q784 611 784 604V560Q784 552 776 552H732Q724 552 724 560V604Q725 612 732 612ZM464 484H508Q516 483 516 476V432Q516 424 508 424H464Q456 424 456 432V476Q457 484 464 484ZM732 484H776Q784 483 784 476V432Q784 424 776 424H732Q724 424 724 432V476Q725 484 732 484Z" fill="param(fill) #111111" fill-opacity="param(fill-opacity) 1" stroke="param(outline) none" stroke-opacity="param(outline-opacity) 1" stroke-width="param(outline-width) 0" stroke-linejoin="round"/>
  </g>
</svg>
