<svg xmlns="http://www.w3.org/2000/svg" width="100%" height="100%" viewBox="0 0 1624.00 1624.00">
  <g transform="translate(112.00,1312.00) scale(1,-1)">
    <path d="M900 918Q928 918 928 890V342Q918 322 896 322H168Q151 354 132 354H28Q20 354 16 398Q20 502 20 562V806Q20 820 16 842Q16 918 44 918ZM1060 722Q1240 717 1240 686Q1329 585 1380 446Q1384 408 1384 374V302Q1384 273 1372 270H1220Q1154 346 1100 346H952Q944 346 944 354V650Q944 718 988 718Q1038 718 1060 722ZM1016 662V530Q1016 470 1128 454Q1279 406 1312 406Q1332 417 1332 442Q1332 521 1292 570Q1252 662 1200 662ZM40 346H136Q142 346 148 334V242Q144 230 124 230H32Q10 230 0 250V314Q0 346 40 346ZM940 330H1096Q1140 324 1140 314Q1135 314 1096 322Q1020 322 984 246V242Q1030 314 1104 314Q1212 288 1212 206V198Q1212 107 1112 82H1076Q980 114 980 178V222H976Q976 198 968 198H952Q944 198 944 206V274H772Q772 264 776 242Q772 206 768 198Q662 194 600 194H572Q546 194 492 198Q470 82 388 82H360Q273 82 256 210H252V166Q252 158 244 158H240Q232 158 232 166V194H228Q164 194 164 250V274Q166 310 176 310H304V306Q256 260 256 226V218H260Q285 314 380 314Q408 314 440 294V302H432V310H892Q918 310 940 330ZM1164 302H1172V298H1164ZM448 294V290Q448 284 464 274H468Q468 279 448 294ZM468 266V262H476V266ZM784 270Q831 266 852 266H932Q940 265 940 258V174Q940 166 932 166H852Q780 166 780 178V262ZM1224 266Q1308 262 1340 262L1344 254Q1344 218 1312 218Q1255 210 1232 210L1216 262ZM1372 266H1392Q1400 265 1400 258V202Q1400 194 1376 190Q1348 194 1348 202V254Q1352 266 1372 266ZM316 206Q327 142 364 142H380Q428 142 428 206Q413 254 376 254Q334 254 316 206ZM1040 194Q1053 142 1088 142H1100Q1143 142 1152 198Q1152 248 1088 254Q1040 238 1040 194ZM484 238V230H488V238ZM980 234V226H984V234ZM488 222V214H492V222ZM368 222H380Q400 210 400 194Q392 176 384 174H376Q348 174 348 202Q348 207 368 222ZM1100 222H1104Q1110 222 1120 206V190Q1120 184 1104 174H1088Q1082 174 1072 190V194Q1072 222 1100 222ZM1340 210 1344 202Q1344 194 1336 194H1236V202Q1328 210 1340 210Z" fill="param(fill) #111111" fill-opacity="param(fill-opacity) 1" stroke="param(outline) none" stroke-opacity="param(outline-opacity) 1" stroke-width="param(outline-width) 0" stroke-linejoin="round"/>
  </g>
</svg>
