<svg xmlns="http://www.w3.org/2000/svg" width="100%" height="100%" viewBox="0 0 1624.00 1624.00">
  <g transform="translate(112.00,1312.00) scale(1,-1)">
    <path d="M84 740H1268Q1384 645 1384 540V424Q1400 424 1400 416V356Q1400 348 1392 348H1176Q1157 260 1088 260H1068Q984 281 984 336V348H352Q333 260 268 260H244Q160 282 160 336V348H8Q0 348 0 356V424Q12 439 12 452V556Q12 698 64 736ZM48 596H144V696H84Q69 684 48 596ZM220 696V596H348V696ZM428 696V596H552V696ZM620 696V596H756V696ZM832 696V596H972V696ZM1028 696V596H1164V696ZM1216 696V596H1324V600Q1324 667 1276 696ZM220 360V348Q220 316 260 316Q292 316 292 352V356Q292 392 252 392Q220 389 220 360ZM1040 356Q1045 316 1076 316H1080Q1116 316 1116 352V356Q1116 392 1080 392H1076Q1040 387 1040 356Z" fill="param(fill) #111111" fill-opacity="param(fill-opacity) 1" stroke="param(outline) none" stroke-opacity="param(outline-opacity) 1" stroke-width="param(outline-width) 0" stroke-linejoin="round"/>
  </g>
</svg>
