<svg xmlns="http://www.w3.org/2000/svg" width="100%" height="100%" viewBox="0 0 1624.00 1624.00">
  <g transform="translate(112.00,1312.00) scale(1,-1)">
    <path d="M670 1200Q1194 816 1282 744V-192Q1282 -200 1274 -200H946Q938 -200 938 -192V180Q939 188 946 188H1178V692L610 1116V1124Q655 1192 670 1200ZM306 772H722Q826 762 826 744Q882 380 882 344V-84Q882 -92 874 -92H814V-176Q814 -184 806 -184H742Q734 -184 734 -176V-92H262V-176Q262 -184 254 -184H190Q182 -184 182 -176V-92H126Q118 -92 118 -84V376Q151 756 166 756Q274 772 306 772ZM186 668Q170 402 166 372H830Q802 635 802 668ZM170 136V116Q170 85 214 76Q266 76 266 128Q261 176 218 176Q170 168 170 136ZM718 120Q718 83 766 76Q814 83 814 120V132Q806 176 770 176Q718 176 718 120ZM274 24V-28H722V24Z" fill="param(fill) #111111" fill-opacity="param(fill-opacity) 1" stroke="param(outline) none" stroke-opacity="param(outline-opacity) 1" stroke-width="param(outline-width) 0" stroke-linejoin="round"/>
  </g>
</svg>
