<svg xmlns="http://www.w3.org/2000/svg" width="100%" height="100%" viewBox="0 0 1624.00 1624.00">
  <g transform="translate(112.00,1312.00) scale(1,-1)">
    <path d="M520 1200H668Q676 1199 676 1192V1112H724V1192Q725 1200 732 1200H880Q888 1199 888 1192V1112H1012Q1106 1112 1132 1032V300Q1132 219 1052 136L1032 132H984L1192 -196L1184 -200H1072Q1038 -158 900 108Q896 116 896 120H504Q395 -103 324 -200H216Q208 -200 208 -192Q221 -179 416 132H372Q301 132 268 296V1032Q295 1112 372 1112H512V1192Q513 1200 520 1200ZM516 1072V976H884V1072ZM368 924V552H1028V924ZM436 344V336Q436 284 488 284H496Q548 284 548 328V348Q544 396 504 396H480Q436 396 436 344ZM840 348V328Q847 284 884 284H900Q952 284 952 336V344Q952 396 900 396H884Q844 396 840 348Z" fill="param(fill) #111111" fill-opacity="param(fill-opacity) 1" stroke="param(outline) none" stroke-opacity="param(outline-opacity) 1" stroke-width="param(outline-width) 0" stroke-linejoin="round"/>
  </g>
</svg>
