<svg xmlns="http://www.w3.org/2000/svg" width="100%" height="100%" viewBox="0 0 1624.00 1624.00">
  <g transform="translate(112.00,1312.00) scale(1,-1)">
    <path d="M370 1200H1066Q1097 1200 1178 1176Q1258 662 1258 620V-56Q1258 -64 1250 -64H1162V-192Q1162 -200 1154 -200H1054Q1046 -200 1046 -192V-64H354V-192Q354 -200 346 -200H246Q238 -200 238 -192V-64H150Q142 -64 142 -56V632Q196 1180 210 1180Q346 1200 370 1200ZM242 1052Q214 647 214 616H1186L1146 1052ZM214 256Q214 184 290 184H294Q358 188 358 244V264Q358 328 286 328Q214 328 214 256ZM1022 252V248Q1022 184 1086 184H1102Q1166 184 1166 256Q1166 328 1090 328Q1022 328 1022 252ZM366 108V28H1034V108Z" fill="param(fill) #111111" fill-opacity="param(fill-opacity) 1" stroke="param(outline) none" stroke-opacity="param(outline-opacity) 1" stroke-width="param(outline-width) 0" stroke-linejoin="round"/>
  </g>
</svg>
