<svg xmlns="http://www.w3.org/2000/svg" width="100%" height="100%" viewBox="0 0 1624.00 1624.00">
  <g transform="translate(112.00,1312.00) scale(1,-1)">
    <path d="M8 1012H120Q128 1011 128 1004V972Q128 964 120 964H48V876Q48 868 40 868H8Q0 868 0 876V1004Q1 1012 8 1012ZM208 1012H380Q388 1011 388 1004V972Q388 964 380 964H208Q200 964 200 972V1004Q201 1012 208 1012ZM472 1012H644Q652 1011 652 1004V972Q652 964 644 964H472Q464 964 464 972V1004Q465 1012 472 1012ZM732 1012H904Q912 1011 912 1004V972Q912 964 904 964H732Q724 964 724 972V1004Q725 1012 732 1012ZM996 1012H1168Q1176 1011 1176 1004V972Q1176 964 1168 964H996Q988 964 988 972V1004Q989 1012 996 1012ZM1256 1012H1392Q1400 1011 1400 1004V876Q1400 868 1392 868H1360Q1352 868 1352 876V964H1256Q1248 964 1248 972V1004Q1249 1012 1256 1012ZM776 820H812Q820 819 820 812Q724 585 724 564V536H740Q802 536 908 532Q973 611 988 620H1008V616Q976 527 976 516Q1003 504 1008 504V496Q1002 496 976 488V480L1008 388L1000 384H984Q912 459 912 468H892Q831 468 724 464V432Q724 425 820 184L812 180H776Q699 288 692 288Q656 288 656 296V320Q656 328 672 328Q651 367 644 368H608Q600 368 600 376V400Q600 408 616 408V412Q585 464 580 464H528Q407 464 392 500Q400 536 516 536H584Q587 546 620 596Q600 596 600 604V624Q601 632 608 632H644Q651 633 672 672Q656 672 656 680V704Q656 712 704 716Q765 816 776 820ZM8 796H40Q48 795 48 788V648Q48 640 40 640H8Q0 640 0 648V788Q1 796 8 796ZM1360 796H1392Q1400 795 1400 788V648Q1400 640 1392 640H1360Q1352 640 1352 648V788Q1353 796 1360 796ZM8 564H40Q48 563 48 556V416Q48 408 40 408H8Q0 408 0 416V556Q1 564 8 564ZM1360 564H1392Q1400 563 1400 556V416Q1400 408 1392 408H1360Q1352 408 1352 416V556Q1353 564 1360 564ZM8 332H40Q48 331 48 324V184Q48 176 40 176H8Q0 176 0 184V324Q1 332 8 332ZM1360 332H1392Q1400 331 1400 324V184Q1400 176 1392 176H1360Q1352 176 1352 184V324Q1353 332 1360 332ZM8 100H40Q48 99 48 92V36H120Q128 35 128 28V-4Q128 -12 120 -12H8Q0 -12 0 -4V92Q1 100 8 100ZM1360 100H1392Q1400 99 1400 92V-4Q1400 -12 1392 -12H1256Q1248 -12 1248 -4V28Q1249 36 1256 36H1352V92Q1353 100 1360 100ZM208 36H380Q388 35 388 28V-4Q388 -12 380 -12H208Q200 -12 200 -4V28Q201 36 208 36ZM472 36H644Q652 35 652 28V-4Q652 -12 644 -12H472Q464 -12 464 -4V28Q465 36 472 36ZM732 36H904Q912 35 912 28V-4Q912 -12 904 -12H732Q724 -12 724 -4V28Q725 36 732 36ZM996 36H1168Q1176 35 1176 28V-4Q1176 -12 1168 -12H996Q988 -12 988 -4V28Q989 36 996 36Z" fill="param(fill) #111111" fill-opacity="param(fill-opacity) 1" stroke="param(outline) none" stroke-opacity="param(outline-opacity) 1" stroke-width="param(outline-width) 0" stroke-linejoin="round"/>
  </g>
</svg>
