<svg xmlns="http://www.w3.org/2000/svg" width="100%" height="100%" viewBox="0 0 1624.00 1624.00">
  <g transform="translate(112.00,1312.00) scale(1,-1)">
    <path d="M946 1200Q1058 1190 1058 1092V1060Q1044 952 970 952Q970 948 946 948H918Q810 962 810 1036Q806 1036 806 1060V1088Q816 1200 914 1200ZM790 896H1146Q1181 896 1198 840V380Q1193 364 1162 364H1142Q1098 370 1098 384V740H1078V-132Q1078 -188 1006 -188H1002Q954 -183 954 -140V400H910V-136Q897 -188 858 -188H838Q786 -183 786 -144V740L686 620H422Q410 624 410 644V680Q410 711 426 716H650Q664 746 790 896ZM350 576H358L438 548V544Q413 460 398 460Q330 488 318 496Q350 567 350 576ZM478 448Q514 380 514 364L434 324Q394 402 394 408Q463 448 478 448ZM246 372H282Q293 372 342 -52Q348 -52 350 -112H502Q562 357 570 368H650L658 364L578 -200H282Q271 -200 242 68Q238 68 202 364Q218 372 246 372ZM390 296Q474 280 474 272Q458 194 450 184Q375 201 362 208Q379 296 390 296Z" fill="param(fill) #111111" fill-opacity="param(fill-opacity) 1" stroke="param(outline) none" stroke-opacity="param(outline-opacity) 1" stroke-width="param(outline-width) 0" stroke-linejoin="round"/>
  </g>
</svg>
