<svg xmlns="http://www.w3.org/2000/svg" width="100%" height="100%" viewBox="0 0 1624.00 1624.00">
  <g transform="translate(112.00,1312.00) scale(1,-1)">
    <path d="M700 968Q1381 215 1400 184Q1400 181 1372 128Q1369 128 1296 184Q1312 59 1312 36L1304 32H1240Q1231 32 1220 96H1212Q1205 32 1192 32H832Q821 32 760 296Q744 344 700 532H696Q577 32 568 32H92L84 36Q88 48 100 180H96Q32 128 28 128Q0 177 0 192Q696 968 700 968Z" fill="param(fill) #111111" fill-opacity="param(fill-opacity) 1" stroke="param(outline) none" stroke-opacity="param(outline-opacity) 1" stroke-width="param(outline-width) 0" stroke-linejoin="round"/>
  </g>
</svg>
