<svg xmlns="http://www.w3.org/2000/svg" width="100%" height="100%" viewBox="0 0 1624.00 1624.00">
  <g transform="translate(112.00,1312.00) scale(1,-1)">
    <path d="M296 982H1116Q1124 981 1124 974V878Q1124 870 1116 870H960L1044 550H1388Q1396 549 1396 542V454Q1396 446 1388 446H1092L1196 22L1188 18H1076Q1067 18 932 446H496Q484 438 412 178Q365 24 356 18H236Q228 18 228 26L336 446H8Q0 446 0 454V542Q1 550 8 550H360L456 870H296Q288 870 288 878V974Q289 982 296 982ZM600 870 524 550H896V554Q820 870 812 870ZM8 698H240Q248 697 248 690V642Q248 634 240 634H8Q0 634 0 642V690Q1 698 8 698ZM1156 690H1392Q1400 689 1400 682V630Q1400 622 1392 622H1156Q1148 622 1148 630V682Q1149 690 1156 690Z" fill="param(fill) #111111" fill-opacity="param(fill-opacity) 1" stroke="param(outline) none" stroke-opacity="param(outline-opacity) 1" stroke-width="param(outline-width) 0" stroke-linejoin="round"/>
  </g>
</svg>
