<svg xmlns="http://www.w3.org/2000/svg" width="100%" height="100%" viewBox="0 0 1624.00 1624.00">
  <g transform="translate(112.00,1312.00) scale(1,-1)">
    <path d="M742 1200Q968 1200 1066 1020Q1082 964 1082 920H1170Q1178 919 1178 912V648Q1178 640 1170 640H1082V552H1254Q1262 551 1262 544V176Q1262 168 1254 168H1082V-84H1170Q1178 -85 1178 -92V-192Q1178 -200 1170 -200H242Q234 -200 234 -192V-92Q235 -84 242 -84H330V172H146Q138 172 138 180V544Q139 552 146 552H330V640H246Q238 640 238 648V912Q239 920 246 920H330V932Q330 1150 638 1200ZM702 1144H678Q477 1144 406 1000Q394 962 390 920H1030V924Q1030 1090 794 1140Q759 1144 734 1144H714Q710 1144 710 1148ZM298 864V696H1114V864ZM390 640V-84H1022V640ZM706 548Q831 548 890 400Q890 361 894 360Q894 231 746 176Q720 176 706 172Q575 172 522 324Q522 345 518 360Q518 492 670 544Q703 544 706 548ZM206 492V228H330V492ZM1082 488V228H1214V488ZM618 372V348Q634 272 694 272H718Q794 286 794 348V368Q778 448 714 448H694Q618 432 618 372Z" fill="param(fill) #111111" fill-opacity="param(fill-opacity) 1" stroke="param(outline) none" stroke-opacity="param(outline-opacity) 1" stroke-width="param(outline-width) 0" stroke-linejoin="round"/>
  </g>
</svg>
