<svg xmlns="http://www.w3.org/2000/svg" width="100%" height="100%" viewBox="0 0 1624.00 1624.00">
  <g transform="translate(112.00,1312.00) scale(1,-1)">
    <path d="M1172 1162Q1184 1162 1260 666Q1272 624 1400 -158L1392 -162H1312Q1302 -162 1272 54L1096 1082H976Q972 1010 888 206Q912 206 912 198V170Q912 162 904 162H812Q776 8 768 -2H764Q751 -2 732 10L768 162H632L668 10Q650 -2 632 -2Q624 12 588 162H496Q488 162 488 170V198Q488 206 512 206Q424 1065 424 1082H304L92 -162H8Q0 -162 0 -154Q216 1142 224 1162ZM460 1082Q528 431 528 402L628 470H776Q815 439 872 402Q872 415 940 1082ZM696 642H704Q780 627 780 574V554Q780 492 700 478Q620 495 620 554V566Q634 642 696 642ZM536 350 548 206H604V398Q541 361 536 350ZM796 398V206H852Q864 333 864 354Q813 389 796 398Z" fill="param(fill) #111111" fill-opacity="param(fill-opacity) 1" stroke="param(outline) none" stroke-opacity="param(outline-opacity) 1" stroke-width="param(outline-width) 0" stroke-linejoin="round"/>
  </g>
</svg>
