<svg xmlns="http://www.w3.org/2000/svg" width="100%" height="100%" viewBox="0 0 1624.00 1624.00">
  <g transform="translate(112.00,1312.00) scale(1,-1)">
    <path d="M1012 1166H1016Q1134 1166 1188 1070Q1317 1070 1348 906L1296 798Q1400 712 1400 614V606Q1400 503 1260 450Q1246 450 1204 414Q1139 378 1068 378Q1059 378 1008 386Q1008 338 1016 174Q1021 174 1060 190Q1068 177 1068 166Q1068 159 1016 138Q1024 -20 1024 -62Q1049 -128 1080 -162V-166H888L880 -162Q916 -70 920 -50L932 354L936 382Q869 358 832 358H800Q773 358 732 402Q588 432 588 546L592 570H584Q428 601 428 718V742Q428 848 584 946Q647 966 672 966H720Q720 1074 916 1150Q961 1166 1012 1166ZM72 282H520Q528 281 528 274V202Q528 194 520 194H476V166H520Q528 165 528 158V86Q528 78 520 78H476V50H588Q596 49 596 42V-38Q596 -46 588 -46H508V-158Q508 -166 500 -166H444Q436 -166 436 -158V-46H156V-158Q156 -166 148 -166H92Q84 -166 84 -158V-46H8Q0 -46 0 -38V42Q1 50 8 50H116V78H72Q64 78 64 86V158Q65 166 72 166H116V194H72Q64 194 64 202V274Q65 282 72 282ZM168 194V166H428V194ZM168 78V50H428V78Z" fill="param(fill) #111111" fill-opacity="param(fill-opacity) 1" stroke="param(outline) none" stroke-opacity="param(outline-opacity) 1" stroke-width="param(outline-width) 0" stroke-linejoin="round"/>
  </g>
</svg>
