<svg xmlns="http://www.w3.org/2000/svg" width="100%" height="100%" viewBox="0 0 1624.00 1624.00">
  <g transform="translate(112.00,1312.00) scale(1,-1)">
    <path d="M284 1146H308Q387 1146 404 1034Q404 952 296 930Q188 954 188 1038V1042Q210 1146 284 1146ZM1144 1146H1168Q1244 1146 1264 1038Q1242 934 1164 934H1148Q1066 934 1048 1042V1046Q1070 1146 1144 1146ZM708 1134H756Q764 1133 764 1126V-130Q764 -138 756 -138H708Q700 -138 700 -130V1126Q701 1134 708 1134ZM280 910H316Q462 910 500 814Q592 511 592 486V482Q592 450 548 442H544Q499 442 472 590Q461 608 424 754H400Q540 288 540 270L532 266H408V-110Q403 -146 372 -146H336Q308 -134 308 -98V266H284V-94Q284 -131 252 -146H220Q198 -146 180 -114V266H60Q52 266 52 274Q52 280 188 754H168Q100 489 72 450L56 438H44Q20 438 0 474V498Q99 870 132 870Q161 910 280 910ZM1096 910H1212Q1345 910 1372 850Q1392 829 1400 790V422Q1384 394 1352 394H1348Q1322 394 1308 422V738H1288V-82Q1288 -139 1220 -146Q1164 -140 1164 -98V398H1148V-66Q1148 -126 1100 -146H1088Q1024 -146 1024 -86V738H1004V426Q989 394 952 394Q908 394 908 458V746Q908 866 1004 902Q1047 910 1096 910Z" fill="param(fill) #111111" fill-opacity="param(fill-opacity) 1" stroke="param(outline) none" stroke-opacity="param(outline-opacity) 1" stroke-width="param(outline-width) 0" stroke-linejoin="round"/>
  </g>
</svg>
