<svg xmlns="http://www.w3.org/2000/svg" width="100%" height="100%" viewBox="0 0 1624.00 1624.00">
  <g transform="translate(112.00,1312.00) scale(1,-1)">
    <path d="M422 1200Q437 1200 606 756H546Q532 756 490 892H310Q302 883 254 756H202Q194 756 194 764L362 1200ZM390 1140Q372 1059 322 940H470Q414 1078 398 1140ZM962 1080Q1078 1067 1078 992Q1078 969 1082 964Q1082 844 962 844Q846 844 846 964Q859 1076 938 1076Q956 1076 962 1080ZM834 800H1154Q1198 800 1206 740V328Q1206 318 1170 312Q1114 312 1114 344V656H1094V-160Q1078 -188 1046 -188H1030Q982 -188 982 -140V344H942V-144Q934 -188 898 -188H870Q830 -180 830 -148V656Q743 548 738 548H502Q486 555 486 576Q486 636 506 636H702ZM434 508Q464 508 514 476Q514 463 482 400Q412 427 406 436Q434 502 434 508ZM550 392Q582 329 586 316Q517 280 510 280Q498 298 474 356Q543 392 550 392ZM306 320H370Q383 320 434 -120H570Q626 288 634 320H706Q714 319 714 312L642 -200H374Q361 -200 326 116Q322 117 298 316ZM470 252Q546 239 546 228Q533 152 522 152Q446 164 446 176Q460 252 470 252Z" fill="param(fill) #111111" fill-opacity="param(fill-opacity) 1" stroke="param(outline) none" stroke-opacity="param(outline-opacity) 1" stroke-width="param(outline-width) 0" stroke-linejoin="round"/>
  </g>
</svg>
