<svg xmlns="http://www.w3.org/2000/svg" width="100%" height="100%" viewBox="0 0 1624.00 1624.00">
  <g transform="translate(112.00,1312.00) scale(1,-1)">
    <path d="M362 1200H398Q517 1200 546 1088V1068L518 1064H494Q487 1064 478 1104Q447 1148 386 1148Q286 1148 286 1084V1076Q286 1026 438 1004Q517 980 550 932Q562 895 562 876Q562 761 394 744H390Q241 744 210 872V888Q213 900 242 900H258Q269 896 286 840Q332 800 398 800Q502 809 502 872Q502 938 330 964Q226 1001 226 1068V1080Q226 1184 362 1200ZM946 1072Q1066 1072 1066 956Q1066 840 950 840H942Q834 840 834 944V968Q834 1072 946 1072ZM822 796H1138Q1182 796 1190 736V328Q1190 322 1174 312H1130Q1108 312 1098 332V652H1078V-152Q1078 -188 1030 -188H1014Q966 -184 966 -144V344H926V-148Q926 -183 870 -192Q814 -185 814 -144V652H810Q807 639 726 544H486Q480 544 474 556V596Q474 626 486 628H690Q795 773 822 796ZM426 504Q502 481 502 472Q474 410 474 400H466Q394 423 394 432Q417 504 426 504ZM534 388Q570 328 570 312L498 276Q462 336 462 352V356ZM362 320Q370 279 422 -120H558Q610 282 618 316H690Q698 315 698 308Q642 -122 626 -200H358Q347 -200 334 -44Q306 123 286 316H294Q315 316 362 320ZM454 252 534 232 514 148 430 168Q446 242 454 252Z" fill="param(fill) #111111" fill-opacity="param(fill-opacity) 1" stroke="param(outline) none" stroke-opacity="param(outline-opacity) 1" stroke-width="param(outline-width) 0" stroke-linejoin="round"/>
  </g>
</svg>
