<svg xmlns="http://www.w3.org/2000/svg" width="100%" height="100%" viewBox="0 0 1624.00 1624.00">
  <g transform="translate(112.00,1312.00) scale(1,-1)">
    <path d="M1016 986Q1055 986 1116 938Q1157 881 1160 826Q1160 717 1032 670L996 666Q868 666 836 818V826Q836 941 964 986ZM468 910H476Q1132 450 1176 414V410H372V414Q536 560 536 634V662Q525 730 480 730H468Q435 730 272 610Q164 542 120 542L108 558Q108 633 384 886Q432 910 468 910ZM192 378Q228 378 404 302Q460 278 520 278H524Q585 278 752 350Q823 378 868 378Q931 378 1156 266Q1175 266 1196 262Q1264 262 1400 318V250Q1400 235 1256 198Q1230 194 1204 194H1184Q1143 194 940 286Q896 298 864 298Q807 298 596 206Q554 194 532 194H504Q446 194 252 290Q214 298 192 298Q125 298 4 246L0 254V314Q0 329 148 370ZM196 198Q223 198 436 110Q479 98 508 98H524Q584 98 784 182Q827 194 848 194H876Q943 194 1112 106Q1161 82 1200 82Q1262 82 1400 138V70Q1400 55 1244 14H1184Q1140 14 952 102Q900 118 868 118Q800 118 600 26Q551 14 532 14H508Q444 14 260 106Q223 118 184 118Q127 118 4 66L0 74V134Q0 149 160 194Q193 194 196 198Z" fill="param(fill) #111111" fill-opacity="param(fill-opacity) 1" stroke="param(outline) none" stroke-opacity="param(outline-opacity) 1" stroke-width="param(outline-width) 0" stroke-linejoin="round"/>
  </g>
</svg>
