<svg xmlns="http://www.w3.org/2000/svg" width="100%" height="100%" viewBox="0 0 1624.00 1624.00">
  <g transform="translate(112.00,1312.00) scale(1,-1)">
    <path d="M978 1200H998Q1006 1199 1006 1192V484Q1006 479 1130 448Q1278 394 1342 300Q1394 239 1394 180V156Q1394 40 1194 -100Q1018 -200 930 -200H878Q716 -200 578 -40Q520 93 402 172Q328 249 50 352Q6 383 6 408V428Q6 478 150 528Q298 548 398 548H418Q600 548 970 488V944H966Q923 933 902 892Q854 780 810 780L782 784H746Q732 784 730 988L738 992H754Q826 992 826 1060Q895 1168 954 1168Q961 1164 970 1164V1192Q971 1200 978 1200ZM974 472V312Q946 295 946 292Q952 272 986 272H990Q1030 277 1030 288V292Q1030 295 1002 312V472Z" fill="param(fill) #111111" fill-opacity="param(fill-opacity) 1" stroke="param(outline) none" stroke-opacity="param(outline-opacity) 1" stroke-width="param(outline-width) 0" stroke-linejoin="round"/>
  </g>
</svg>
