<svg xmlns="http://www.w3.org/2000/svg" width="100%" height="100%" viewBox="0 0 1624.00 1624.00">
  <g transform="translate(112.00,1312.00) scale(1,-1)">
    <path d="M56 906H92Q138 906 148 838V430H1248V618Q1248 722 1312 722H1336Q1400 711 1400 666V102Q1400 94 1392 94H1256Q1248 94 1248 102V278H148V102Q148 94 140 94H8Q0 94 0 102V850Q13 906 56 906ZM328 810Q405 810 432 718V698Q432 625 356 598L328 594Q220 614 220 694V706Q220 773 304 806ZM512 758Q554 758 560 706V510Q560 467 504 462H256Q200 462 200 522Q200 574 244 574H452V714Q452 753 512 758ZM592 758H1096Q1179 758 1204 690V470Q1204 462 1196 462H592Q584 462 584 470V750Q585 758 592 758Z" fill="param(fill) #111111" fill-opacity="param(fill-opacity) 1" stroke="param(outline) none" stroke-opacity="param(outline-opacity) 1" stroke-width="param(outline-width) 0" stroke-linejoin="round"/>
  </g>
</svg>
