<svg xmlns="http://www.w3.org/2000/svg" width="100%" height="100%" viewBox="0 0 1624.00 1624.00">
  <g transform="translate(112.00,1312.00) scale(1,-1)">
    <path d="M978 1200H998Q1006 1199 1006 1192V304Q1032 304 1042 284V280Q1042 263 974 260Q944 260 934 280V284Q934 290 970 312V944H966Q923 933 902 892Q854 780 810 780L782 784H746Q732 784 730 988L738 992H754Q826 992 826 1060Q895 1168 954 1168Q961 1164 970 1164V1192Q971 1200 978 1200ZM398 548H418Q620 548 954 488L958 480V460L954 452Q610 512 442 512H250Q146 512 46 444L38 432V424Q38 366 118 356Q248 332 494 152Q549 95 630 -32Q752 -160 866 -160H898Q1047 -160 1242 -20Q1358 86 1358 164Q1358 352 1030 436L1026 444V468L1030 476Q1201 442 1322 328Q1394 244 1394 180V156Q1394 40 1194 -100Q1018 -200 930 -200H878Q716 -200 578 -40Q520 93 402 172Q328 249 50 352Q6 383 6 408V428Q6 478 150 528Q298 548 398 548Z" fill="param(fill) #111111" fill-opacity="param(fill-opacity) 1" stroke="param(outline) none" stroke-opacity="param(outline-opacity) 1" stroke-width="param(outline-width) 0" stroke-linejoin="round"/>
  </g>
</svg>
