<svg xmlns="http://www.w3.org/2000/svg" width="100%" height="100%" viewBox="0 0 1624.00 1624.00">
  <g transform="translate(112.00,1312.00) scale(1,-1)">
    <path d="M608 1192H680Q925 1192 980 1084Q1024 1028 1084 928H1088L1172 976H1176Q1067 728 1032 676L712 704V712Q800 754 800 764Q636 1058 612 1060Q561 1112 476 1112H428Q512 1192 608 1192ZM448 1080H476Q593 1080 672 908Q532 662 512 636Q240 788 232 800V804Q369 1043 396 1072Q432 1080 448 1080ZM1224 712 1372 440Q1372 363 1268 292Q1230 268 1136 268Q1072 272 1072 316Q973 475 936 552Q1189 700 1224 712ZM344 664 484 368Q480 368 480 364Q395 416 388 416V412Q228 141 228 124Q220 106 220 72V64Q220 -9 272 -76V-80H268Q217 -80 116 28Q0 214 0 292V328Q0 414 108 580Q26 628 20 628V636ZM1392 384Q1400 368 1400 340V296Q1400 168 1216 -36Q1144 -92 988 -92H904V-192H900Q889 -186 712 72V76Q877 317 900 340H904V240H1176Q1190 240 1212 236Q1277 236 1360 324ZM328 232H636Q644 231 644 224V-88Q644 -96 636 -96H336Q256 -36 256 64Q256 127 328 232Z" fill="param(fill) #111111" fill-opacity="param(fill-opacity) 1" stroke="param(outline) none" stroke-opacity="param(outline-opacity) 1" stroke-width="param(outline-width) 0" stroke-linejoin="round"/>
  </g>
</svg>
