<svg xmlns="http://www.w3.org/2000/svg" width="100%" height="100%" viewBox="0 0 1624.00 1624.00">
  <g transform="translate(112.00,1312.00) scale(1,-1)">
    <path d="M700 1104Q714 1095 1324 28Q1347 -7 1400 -100L1392 -104H8Q0 -104 0 -96Q8 -88 696 1104ZM700 932Q661 857 160 -8H1244Q728 884 704 932ZM704 584Q728 584 728 556Q728 550 712 540H700Q694 540 684 556V568Q686 576 704 584ZM880 568Q1152 104 1196 16H564L556 20Q568 120 648 120Q696 120 696 140V144L692 180Q712 240 764 240Q776 240 784 264Q780 333 780 376Q780 385 816 440Q816 465 812 500Q812 546 880 568ZM604 488H624Q662 488 664 436Q655 410 632 400H604Q572 417 572 448Q572 470 604 488ZM524 420H544Q549 420 564 400V392Q564 368 536 360Q504 363 504 392V400Q504 405 524 420ZM636 356Q668 356 668 324V316Q654 292 632 292Q614 299 604 316V324Q604 356 636 356ZM564 308H576Q582 308 588 296V284Q584 272 564 272L552 288V296Q552 302 564 308ZM460 288H476Q481 288 496 268V260Q496 232 468 232Q440 232 440 260V268Q440 273 460 288ZM380 156H388Q431 156 436 100Q436 67 384 52Q332 66 332 104Q342 156 380 156ZM268 72H276Q282 72 288 60V52Q288 46 276 40H264Q256 40 256 48V60Q256 66 268 72Z" fill="param(fill) #111111" fill-opacity="param(fill-opacity) 1" stroke="param(outline) none" stroke-opacity="param(outline-opacity) 1" stroke-width="param(outline-width) 0" stroke-linejoin="round"/>
  </g>
</svg>
