<svg xmlns="http://www.w3.org/2000/svg" width="100%" height="100%" viewBox="0 0 1624.00 1624.00">
  <g transform="translate(112.00,1312.00) scale(1,-1)">
    <path d="M336 822Q374 822 612 818Q624 803 624 762V670H884Q892 669 892 662L880 466L872 462Q451 430 276 430H264Q84 430 0 666L8 670H252Q313 798 336 822ZM908 550H916Q948 478 984 478Q1009 470 1020 462Q1016 408 1016 382V346L1012 338Q905 342 892 350Q908 527 908 550ZM1276 374H1284Q1292 373 1292 366V322H1312Q1320 321 1320 314V230H1368L1396 234L1400 226V186Q1400 178 1392 178H464Q439 178 404 230V242Q490 246 532 246H576Q603 242 604 234Q764 230 844 230H1112V298Q1132 309 1132 314Q1132 322 1144 322V358Q1145 366 1152 366H1216Q1224 365 1224 358V322H1268V366Q1269 374 1276 374Z" fill="param(fill) #111111" fill-opacity="param(fill-opacity) 1" stroke="param(outline) none" stroke-opacity="param(outline-opacity) 1" stroke-width="param(outline-width) 0" stroke-linejoin="round"/>
  </g>
</svg>
