<svg xmlns="http://www.w3.org/2000/svg" width="100%" height="100%" viewBox="0 0 1624.00 1624.00">
  <g transform="translate(112.00,1312.00) scale(1,-1)">
    <path d="M1188 1178H1196Q1264 1178 1376 894Q1400 785 1400 698V658Q1372 74 1372 -26Q1372 -62 1288 -90Q1272 -90 1272 -118Q1217 -178 1208 -178H12Q6 -178 0 -166V-114L4 -106L12 -110H104V-2Q105 6 112 6H136V66Q137 74 144 74H160Q168 73 168 66V6H228V54Q229 62 236 62H316Q324 61 324 54V6Q348 6 348 -14Q368 -14 368 -22V-110Q407 -110 1016 -106L1036 -94H1120V-90Q1056 -90 1024 -30V-26Q1024 149 992 642Q992 987 1180 1174ZM804 1002H816Q822 1002 828 990V-78Q822 -94 800 -94H528Q507 -94 500 -78V342Q476 342 476 382V434Q476 478 496 478H500V510Q503 534 512 534H792V990Q792 996 804 1002Z" fill="param(fill) #111111" fill-opacity="param(fill-opacity) 1" stroke="param(outline) none" stroke-opacity="param(outline-opacity) 1" stroke-width="param(outline-width) 0" stroke-linejoin="round"/>
  </g>
</svg>
