<svg xmlns="http://www.w3.org/2000/svg" width="100%" height="100%" viewBox="0 0 1619.36 1619.36">
  <g transform="translate(109.68,1309.68) scale(1,-1)">
    <path d="M594 986Q786 859 786 654L778 650H510Q505 650 490 710Q487 710 462 742Q553 935 594 986ZM186 982H198Q326 743 326 738Q290 716 278 662L270 658H10Q2 658 2 666V682Q2 848 186 982ZM1030 794 1134 694V762Q1135 770 1142 770H1262Q1270 769 1270 762V562Q1306 520 1398 426V422H1294V22Q1294 14 1286 14H770Q762 14 762 22V422H662V426Q857 627 1030 794ZM390 742H398Q486 725 486 658V638Q486 572 394 554Q302 572 302 642V654Q321 742 390 742ZM1030 738Q1028 731 754 462H798Q806 461 806 454V54H1254V454Q1255 462 1262 462H1306L1226 546V726H1178V598H1170ZM354 546Q367 538 378 538H406Q414 538 446 546L586 318V306Q491 258 402 258H394Q280 258 202 314Q331 523 350 546Z" fill="param(fill) #111111" fill-opacity="param(fill-opacity) 1" stroke="param(outline) none" stroke-opacity="param(outline-opacity) 1" stroke-width="param(outline-width) 0" stroke-linejoin="round"/>
  </g>
</svg>
