<svg xmlns="http://www.w3.org/2000/svg" width="100%" height="100%" viewBox="0 0 1624.00 1624.00">
  <g transform="translate(112.00,1312.00) scale(1,-1)">
    <path d="M668 974H684Q795 974 924 770Q1102 513 1304 298L1400 210Q1349 118 1172 66Q1039 26 876 26H836Q764 26 508 106Q447 118 416 118Q285 110 208 110Q121 110 0 190V198Q54 370 360 726Q583 974 668 974ZM604 902V842L608 822H744Q752 822 752 830V902Q752 908 740 914H616Q610 914 604 902ZM428 774V582Q429 574 436 574H512Q518 574 524 586V762Q524 786 492 786H460Q431 786 428 774ZM604 774V750L608 730H744Q752 730 752 738V774Q750 786 720 786H636Q607 786 604 774ZM800 750V622Q800 616 812 610H888Q912 610 912 634V734Q912 755 900 758H808Q800 757 800 750ZM572 686V594Q572 588 584 582H704Q710 582 716 594V686Q714 698 684 698H604Q575 698 572 686ZM308 638V542L312 522H372Q380 522 380 530V638Q380 644 368 650H320Q314 650 308 638ZM784 566V478Q784 472 796 466H992Q1016 466 1016 498V546Q1016 576 1004 578H796Q790 578 784 566ZM468 510V462Q468 430 496 430H700L720 434V538L700 542H480Q468 540 468 510ZM204 470V394Q205 386 212 386H404Q410 386 416 398V458Q416 482 392 482H216Q210 482 204 470ZM1028 430V250Q1032 238 1052 238H1104Q1128 238 1128 254Q1128 299 1132 422Q1126 438 1120 438H1036Q1028 437 1028 430ZM840 390V298Q840 292 852 286H940L960 290V390Q960 396 948 402H852Q846 402 840 390ZM456 366V162Q456 156 468 150H560Q566 150 572 162V366Q568 378 548 378H480Q456 376 456 366ZM628 358V278Q629 270 636 270H776Q784 270 784 278V358Q780 370 760 370H652Q628 368 628 358ZM92 330V262Q92 256 104 250H240L260 254V330Q256 342 236 342H124Q95 342 92 330ZM312 314V162Q312 156 324 150H384Q396 153 396 182V302Q396 338 368 338H344Q312 338 312 314ZM1196 270V154Q1196 148 1208 142H1276Q1288 145 1288 174V238Q1288 282 1268 282H1208Q1202 282 1196 270ZM724 210V106L728 86H892L896 106V218Q896 228 880 230Q850 230 740 234Q724 230 724 210ZM116 186V178Q116 149 128 146H236Q248 149 248 178V186Q248 216 236 218H128Q116 216 116 186ZM624 194V114L644 110H664Q670 110 676 122V190Q676 196 664 202H632Q624 201 624 194ZM932 178V82Q932 76 944 70H1116Q1123 70 1128 90Q1124 124 1124 146V178Q1124 186 1116 186H940Q932 185 932 178Z" fill="param(fill) #111111" fill-opacity="param(fill-opacity) 1" stroke="param(outline) none" stroke-opacity="param(outline-opacity) 1" stroke-width="param(outline-width) 0" stroke-linejoin="round"/>
  </g>
</svg>
