<svg xmlns="http://www.w3.org/2000/svg" width="100%" height="100%" viewBox="0 0 1624.00 1624.00">
  <g transform="translate(112.00,1312.00) scale(1,-1)">
    <path d="M492 770H880Q898 752 1036 530L1396 542Q1396 538 1400 538Q1251 316 1172 238L1144 234H1124Q1087 234 1048 282Q1015 238 992 230H964Q919 230 880 282V286Q838 238 808 238H776Q740 242 696 282Q659 242 636 242H616Q589 242 540 290Q513 246 472 246Q443 254 392 286Q364 238 324 238Q286 242 240 286Q206 246 168 246Q83 246 52 386Q36 413 0 518L8 522H784Q673 693 668 694H492Q484 694 484 702V762Q485 770 492 770ZM748 694Q847 535 852 534H940Q846 685 832 694Z" fill="param(fill) #111111" fill-opacity="param(fill-opacity) 1" stroke="param(outline) none" stroke-opacity="param(outline-opacity) 1" stroke-width="param(outline-width) 0" stroke-linejoin="round"/>
  </g>
</svg>
