<svg xmlns="http://www.w3.org/2000/svg" width="100%" height="100%" viewBox="0 0 1624.00 1624.00">
  <g transform="translate(112.00,1312.00) scale(1,-1)">
    <path d="M1128 1200 1324 1004V1000Q1236 849 1236 708Q1236 649 1316 400L1320 352Q1320 115 988 -52Q700 -153 700 -200H696Q661 -140 468 -76Q325 -33 164 120Q76 233 76 332V368Q76 417 156 672V720Q156 724 160 724Q160 836 76 996Q272 1192 280 1192Q398 1112 512 1112Q598 1112 696 1156Q786 1112 876 1112Q1012 1112 1124 1200ZM416 804V732H468Q516 732 516 672V332Q516 260 464 260H416V188H776V260H712Q681 260 668 284V452Q669 460 676 460H800Q979 460 1024 556Q1036 587 1036 612V660Q1036 779 856 804ZM676 728H732Q880 728 880 636V628Q880 536 744 536H676Q668 536 668 544V720Q669 728 676 728Z" fill="param(fill) #111111" fill-opacity="param(fill-opacity) 1" stroke="param(outline) none" stroke-opacity="param(outline-opacity) 1" stroke-width="param(outline-width) 0" stroke-linejoin="round"/>
  </g>
</svg>
