<svg xmlns="http://www.w3.org/2000/svg" width="100%" height="100%" viewBox="0 0 1624.00 1624.00">
  <g transform="translate(112.00,1312.00) scale(1,-1)">
    <path d="M680 1098H704Q709 1098 724 1078V1058Q710 1034 688 1034Q670 1041 660 1058V1078Q660 1083 680 1098ZM756 958Q820 939 820 898V878Q804 822 764 822H744Q703 822 684 886Q699 958 756 958ZM524 794H544Q550 794 560 778V758Q560 752 544 742H524Q518 742 508 758V778Q508 784 524 794ZM904 762 1400 -94 1392 -98H408Q400 -98 400 -90Q400 -30 452 30Q486 62 540 62Q575 58 584 58Q616 64 616 90V106Q616 123 612 150Q636 242 704 242Q760 242 760 314L744 434Q744 470 808 566V582Q808 600 796 670Q796 716 904 762ZM492 638H500Q568 625 568 570Q551 498 496 498Q433 498 424 574Q424 625 492 638ZM644 554H664Q670 554 680 538V530Q680 502 652 502H644Q632 505 624 530Q630 547 644 554ZM340 502H372Q404 485 404 454Q390 410 356 410Q322 410 308 454Q308 485 340 502ZM520 430H524Q572 420 572 382Q572 355 540 334H516Q483 334 472 382Q486 430 520 430ZM244 322H276Q304 302 304 278Q304 244 256 234Q234 234 216 266V282Q216 304 244 322ZM184 174Q264 157 264 94V90Q248 10 184 10Q104 27 104 90V94Q120 174 184 174ZM376 162H380Q385 162 400 142V126Q400 121 380 106H376Q352 106 344 134Q352 162 376 162ZM168 -46H176Q198 -46 204 -62V-82Q198 -98 176 -98H168Q163 -98 148 -78V-66Q148 -61 168 -46ZM16 -50H32Q38 -50 48 -66V-82Q48 -88 32 -98H16Q10 -98 0 -82V-66Q0 -60 16 -50Z" fill="param(fill) #111111" fill-opacity="param(fill-opacity) 1" stroke="param(outline) none" stroke-opacity="param(outline-opacity) 1" stroke-width="param(outline-width) 0" stroke-linejoin="round"/>
  </g>
</svg>
