<svg xmlns="http://www.w3.org/2000/svg" width="100%" height="100%" viewBox="0 0 1624.00 1624.00">
  <g transform="translate(112.00,1312.00) scale(1,-1)">
    <path d="M592 928H640Q726 928 792 808Q804 764 804 744H1084Q1205 744 1268 588Q1272 573 1272 556V296H1392Q1400 295 1400 288V236Q1400 228 1392 228H884Q884 141 760 80Q732 72 712 72H688Q572 72 520 208Q516 215 516 228H8Q0 228 0 236V288Q1 296 8 296H128V568Q128 630 208 712Q275 744 316 744H428V748Q428 871 572 924Q579 928 592 928ZM492 744H736V756Q736 846 612 864H608Q517 864 492 744ZM328 676V296H516Q516 352 604 420Q635 441 700 448Q816 448 876 324Q884 304 884 296H1200V564Q1200 637 1100 676ZM200 564V296H256V656Q200 611 200 564ZM580 264V252Q580 152 700 136H708Q783 136 816 224Q820 229 820 252V264Q820 338 748 372Q722 380 712 380H696Q580 366 580 264Z" fill="param(fill) #111111" fill-opacity="param(fill-opacity) 1" stroke="param(outline) none" stroke-opacity="param(outline-opacity) 1" stroke-width="param(outline-width) 0" stroke-linejoin="round"/>
  </g>
</svg>
