<svg xmlns="http://www.w3.org/2000/svg" width="100%" height="100%" viewBox="0 0 1624.00 1624.00">
  <g transform="translate(112.00,1312.00) scale(1,-1)">
    <path d="M1124 1200Q1324 1003 1324 996Q1336 843 1336 764V672Q1336 80 876 -108Q704 -200 688 -200Q377 -52 272 56Q64 282 64 700V792Q64 873 72 996Q272 1192 276 1192Q394 1112 512 1112Q594 1112 692 1156Q784 1112 872 1112Q1008 1112 1120 1200ZM416 860V788H472Q516 788 516 732V384Q516 316 448 316H416V244H776V316H748Q668 316 668 340V508Q669 516 676 516H732Q1001 516 1020 612Q1031 612 1036 672V716Q1013 860 852 860ZM676 784H756Q880 784 880 684Q880 592 704 592H676Q668 592 668 600V776Q669 784 676 784Z" fill="param(fill) #111111" fill-opacity="param(fill-opacity) 1" stroke="param(outline) none" stroke-opacity="param(outline-opacity) 1" stroke-width="param(outline-width) 0" stroke-linejoin="round"/>
  </g>
</svg>
