<svg xmlns="http://www.w3.org/2000/svg" width="100%" height="100%" viewBox="0 0 1624.00 1624.00">
  <g transform="translate(112.00,1312.00) scale(1,-1)">
    <path d="M374 1200Q440 1152 530 1152Q601 1152 702 1200Q794 1152 870 1152Q960 1152 1026 1200L1058 1140Q1125 1060 1210 1060L1234 1064H1254V1060Q1182 955 1182 868V852Q1182 697 1282 288Q1290 256 1290 220V188Q1290 -11 1054 -80Q808 -152 742 -176Q705 -200 698 -200Q637 -156 358 -88Q174 -17 150 48Q110 105 110 188V220Q110 263 202 676Q218 759 218 852V868Q218 951 146 1064H166Q179 1064 186 1060Q316 1060 370 1200ZM550 1052Q509 1052 410 1068Q366 1017 298 980Q314 922 322 828L318 808V796Q318 685 222 304Q210 232 210 180Q210 56 402 8Q483 -20 686 -64Q686 -66 698 -72Q775 -48 998 4Q1166 67 1166 104Q1181 104 1190 188Q1190 281 1106 612Q1082 726 1082 796V808Q1082 817 1078 824Q1086 919 1102 984Q1056 1000 986 1068Q899 1052 846 1052Q785 1052 698 1076Q622 1052 550 1052ZM462 884H714Q889 884 930 756Q942 718 946 668Q946 511 830 448Q774 428 710 428H542V124Q542 116 534 116H462Q454 116 454 124V876Q455 884 462 884ZM542 792V520H666Q815 520 834 576Q854 613 854 652V656Q854 788 730 788Q706 792 626 792Z" fill="param(fill) #111111" fill-opacity="param(fill-opacity) 1" stroke="param(outline) none" stroke-opacity="param(outline-opacity) 1" stroke-width="param(outline-width) 0" stroke-linejoin="round"/>
  </g>
</svg>
