<svg xmlns="http://www.w3.org/2000/svg" width="100%" height="100%" viewBox="0 0 1624.00 1624.00">
  <g transform="translate(112.00,1312.00) scale(1,-1)">
    <path d="M1272 1184H1276L1120 508H1112Q924 600 884 612Q644 236 608 196Q552 305 512 364Q248 76 192 24H188L360 636H364Q491 533 516 516Q660 905 680 940H684Q685 935 912 804Q912 813 1272 1184ZM1224 92H1240Q1248 91 1248 84V16H1276Q1284 15 1284 8V-112H1288Q1386 -108 1396 -108L1400 -116V-160Q1400 -181 1388 -184H84Q43 -184 0 -100V-96L8 -92H252Q261 -92 292 -108Q578 -112 728 -112H996V-12Q997 -4 1004 -4H1024Q1024 16 1044 16V72Q1045 80 1052 80H1144Q1152 79 1152 72V16H1216V84Q1217 92 1224 92Z" fill="param(fill) #111111" fill-opacity="param(fill-opacity) 1" stroke="param(outline) none" stroke-opacity="param(outline-opacity) 1" stroke-width="param(outline-width) 0" stroke-linejoin="round"/>
  </g>
</svg>
