<svg xmlns="http://www.w3.org/2000/svg" width="100%" height="100%" viewBox="0 0 1619.36 1619.36">
  <g transform="translate(109.68,1309.68) scale(1,-1)">
    <path d="M806 1198H810Q813 1120 898 838V818Q894 768 894 766Q1000 838 1094 838Q1210 838 1294 750Q1195 518 1006 518V514Q1170 462 1250 334Q1258 308 1258 298Q1113 146 1010 146Q913 146 854 266H850V262Q870 214 870 142Q870 -3 678 -198Q554 40 554 130V154Q554 207 566 286V290H562Q477 166 346 166Q240 166 106 250V254Q111 326 238 462Q339 533 398 538V542Q226 542 226 762Q246 1010 274 1046Q432 999 502 950Q533 922 574 870Q586 948 806 1198ZM602 778Q602 748 618 690Q593 682 586 682Q579 688 566 766Q526 880 446 926Q342 986 298 986Q274 856 274 770V762Q274 625 378 586Q430 571 526 562V530Q526 523 434 510Q247 444 174 310L166 282V278Q246 226 334 226Q511 226 598 434Q606 434 638 426Q614 295 614 250V194Q614 99 690 -102Q810 31 810 186V202Q810 284 762 418Q782 430 794 430H802Q903 206 1022 206Q1107 206 1202 306Q1202 381 930 494Q882 500 882 510V514Q882 544 894 546H914Q1120 546 1246 738Q1185 794 1110 794Q968 794 822 642L802 666Q848 734 850 782Q778 1068 778 1094Q602 889 602 806Z" fill="param(fill) #111111" fill-opacity="param(fill-opacity) 1" stroke="param(outline) none" stroke-opacity="param(outline-opacity) 1" stroke-width="param(outline-width) 0" stroke-linejoin="round"/>
  </g>
</svg>
