<svg xmlns="http://www.w3.org/2000/svg" width="100%" height="100%" viewBox="0 0 1624.00 1624.00">
  <g transform="translate(112.00,1312.00) scale(1,-1)">
    <path d="M616 918H716Q727 918 884 334Q908 238 956 238H968Q998 238 1052 310H1060Q1100 238 1140 238H1148Q1179 238 1236 310Q1290 240 1328 238Q1346 238 1376 262Q1382 262 1400 238Q1400 221 1328 202Q1289 202 1236 254Q1182 202 1156 202H1140Q1101 202 1056 254Q998 202 968 202H948L920 210L924 202V174Q924 96 804 82H776Q641 82 604 206Q580 206 528 254Q481 202 440 202H436Q400 202 344 254Q297 202 260 202H244Q219 202 160 254Q115 202 80 202H64Q27 202 0 238Q12 258 24 258Q51 238 64 238H76Q113 241 156 306V310H164Q218 238 252 238Q297 238 340 310H352Q397 238 436 238H440Q474 238 528 310H536Q580 242 608 242V378Q572 386 528 430Q475 374 440 374Q403 374 344 430Q295 374 252 374Q206 384 160 430Q114 374 72 374Q30 374 0 414Q0 419 20 434H24Q56 410 76 410Q102 410 164 486H168Q168 450 256 410Q295 410 340 486H352Q352 449 440 410Q524 452 524 486H528Q582 418 608 418V554Q580 554 528 602Q479 550 440 550H432Q403 550 344 602Q293 550 264 550H252Q217 550 160 602Q112 550 84 550H64Q27 550 0 586Q15 610 20 610H24Q50 586 68 586Q109 586 164 662Q216 586 252 586H256Q290 586 344 658H348Q403 586 440 586Q474 588 528 658H532Q569 605 608 590V722Q557 749 528 778Q479 726 448 726H436Q398 726 344 778Q299 726 260 726H248Q214 726 160 778Q118 726 80 726H60Q26 726 0 762Q0 767 20 782H24Q48 764 72 758Q101 758 164 834H168Q190 784 252 758H256Q317 781 340 834H352Q352 811 424 762Q428 762 436 758Q475 758 524 834H528Q583 766 608 766V910Q609 918 616 918Z" fill="param(fill) #111111" fill-opacity="param(fill-opacity) 1" stroke="param(outline) none" stroke-opacity="param(outline-opacity) 1" stroke-width="param(outline-width) 0" stroke-linejoin="round"/>
  </g>
</svg>
