<svg xmlns="http://www.w3.org/2000/svg" width="100%" height="100%" viewBox="0 0 1624.00 1624.00">
  <g transform="translate(112.00,1312.00) scale(1,-1)">
    <path d="M1116 1200Q1320 1013 1320 992Q1336 877 1336 760V672Q1336 75 836 -124Q804 -148 688 -200Q346 -37 268 56Q64 283 64 724V816Q64 1016 88 1016Q199 1119 272 1192H276Q391 1112 508 1112Q589 1112 692 1156Q779 1112 868 1112Q1009 1112 1116 1200ZM692 948Q625 684 616 684L384 816H380V812Q500 603 508 576V572L248 504V496L508 428V424Q508 416 380 184H384Q601 309 620 316Q684 93 692 52Q700 52 768 312Q772 312 772 316Q1007 184 1012 184Q887 404 880 428L1140 496V504L880 572Q887 596 1012 816H1008L772 684Q764 703 696 948Z" fill="param(fill) #111111" fill-opacity="param(fill-opacity) 1" stroke="param(outline) none" stroke-opacity="param(outline-opacity) 1" stroke-width="param(outline-width) 0" stroke-linejoin="round"/>
  </g>
</svg>
