<svg xmlns="http://www.w3.org/2000/svg" width="100%" height="100%" viewBox="0 0 1624.00 1624.00">
  <g transform="translate(112.00,1312.00) scale(1,-1)">
    <path d="M386 1200Q392 1200 402 1184Q326 1105 326 1008Q326 937 378 848V844L370 840H362Q306 910 306 984V1024Q306 1123 386 1200ZM1014 1200Q1094 1123 1094 1024V984Q1094 910 1038 840H1030Q1022 840 1022 852Q1070 928 1070 996V1008Q1070 1108 998 1188ZM902 1148Q966 1090 966 1008Q966 954 926 880H918Q912 880 906 892Q946 946 946 1004Q946 1066 894 1136V1144ZM506 1140Q512 1140 518 1128Q462 1060 462 992Q462 957 498 876Q498 868 490 868Q446 924 446 984V1000Q446 1081 506 1140ZM606 1088Q612 1088 622 1072Q590 1049 590 1020Q594 991 614 972V968Q614 962 602 956Q570 978 570 1012V1028Q570 1062 606 1088ZM794 1084Q830 1055 830 1020Q830 1000 806 960H798Q792 960 786 972V976Q806 999 806 1020Q806 1042 782 1068Q788 1084 794 1084ZM654 1052H742Q750 1051 750 1044V956Q750 948 742 948H654Q646 948 646 956V1044Q647 1052 654 1052ZM782 936Q792 936 834 684L1006 -196L998 -200Q964 -162 698 76Q640 26 394 -200Q394 -196 390 -196Q586 827 610 936ZM566 624 694 500H698Q703 500 826 628L770 916H626Q615 916 570 628Q566 628 566 624ZM562 596 514 328Q674 476 674 480Q623 541 562 596ZM722 484Q723 477 882 324Q850 496 834 596Q829 596 722 484ZM506 284Q529 267 694 120Q743 157 878 288Q872 299 698 464Q692 464 506 284ZM502 260Q426 -96 418 -148Q421 -148 682 96Q552 217 502 260ZM718 100Q859 -45 974 -148V-144Q894 249 894 260Q828 202 722 100Z" fill="param(fill) #111111" fill-opacity="param(fill-opacity) 1" stroke="param(outline) none" stroke-opacity="param(outline-opacity) 1" stroke-width="param(outline-width) 0" stroke-linejoin="round"/>
  </g>
</svg>
