<svg xmlns="http://www.w3.org/2000/svg" width="100%" height="100%" viewBox="0 0 1624.00 1624.00">
  <g transform="translate(112.00,1312.00) scale(1,-1)">
    <path d="M658 1200H742Q750 1199 750 1192V1108Q750 1100 742 1100H658Q650 1100 650 1108V1192Q651 1200 658 1200ZM478 1192Q570 1147 570 1056Q570 959 474 916L470 924V1184Q471 1192 478 1192ZM926 1192 930 1184V924L926 916Q830 959 830 1056Q830 1120 886 1172Q913 1192 926 1192ZM614 1080H782Q797 1080 838 852Q846 838 1066 -192Q1053 -200 1042 -200H1034L702 72H698Q395 -179 366 -200H358Q337 -200 334 -188Q538 771 606 1076ZM634 1044Q634 1033 550 652L702 524L846 652L762 1044ZM542 612Q486 355 486 340Q646 476 670 500Q657 518 542 612ZM730 500Q730 496 914 340V344Q858 596 858 608H854Q745 520 730 500ZM490 300V296L698 120L914 292L702 476ZM466 268 382 -140Q438 -100 674 100Q657 109 466 268ZM730 96Q994 -124 1018 -140V-136Q938 241 930 260Q901 243 730 96Z" fill="param(fill) #111111" fill-opacity="param(fill-opacity) 1" stroke="param(outline) none" stroke-opacity="param(outline-opacity) 1" stroke-width="param(outline-width) 0" stroke-linejoin="round"/>
  </g>
</svg>
