<svg xmlns="http://www.w3.org/2000/svg" width="100%" height="100%" viewBox="0 0 1624.00 1624.00">
  <g transform="translate(112.00,1312.00) scale(1,-1)">
    <path d="M1128 1200 1324 1004V1000Q1236 849 1236 708Q1236 649 1316 400L1320 352Q1320 115 988 -52Q700 -153 700 -200H696Q661 -140 468 -76Q325 -33 164 120Q76 233 76 332V368Q76 417 156 672V728Q156 853 76 996Q272 1192 280 1192Q398 1112 512 1112Q598 1112 696 1156Q786 1112 876 1112Q1012 1112 1124 1200ZM696 916Q636 672 624 672Q467 764 408 792V788Q408 784 528 576Q528 564 284 504V496Q528 436 528 424Q436 267 408 208H412Q416 208 624 328Q636 328 696 84H704Q764 328 776 328Q933 236 992 208V212Q992 216 872 424Q872 436 1116 496V504Q872 564 872 576Q964 733 992 792H988Q984 792 776 672Q764 672 704 916Z" fill="param(fill) #111111" fill-opacity="param(fill-opacity) 1" stroke="param(outline) none" stroke-opacity="param(outline-opacity) 1" stroke-width="param(outline-width) 0" stroke-linejoin="round"/>
  </g>
</svg>
