<svg xmlns="http://www.w3.org/2000/svg" width="100%" height="100%" viewBox="0 0 1624.00 1624.00">
  <g transform="translate(112.00,1312.00) scale(1,-1)">
    <path d="M794 1200Q805 1200 858 924Q886 819 1102 -192Q1087 -200 1070 -200H1066L702 100L334 -200H330Q298 -200 298 -184Q586 1157 598 1200ZM534 732Q551 723 702 592Q704 598 862 732L766 1164H634Q627 1164 586 972Q550 789 534 732ZM526 688 462 392H466Q655 555 670 564Q656 582 530 688ZM866 688 730 564Q750 552 934 392V400Q878 661 870 688ZM698 544Q698 540 470 344Q481 329 702 152Q912 322 934 344Q908 362 698 544ZM442 308 350 -136Q634 92 670 128L450 308ZM730 128Q1026 -120 1050 -136V-132L954 308Q764 150 730 128Z" fill="param(fill) #111111" fill-opacity="param(fill-opacity) 1" stroke="param(outline) none" stroke-opacity="param(outline-opacity) 1" stroke-width="param(outline-width) 0" stroke-linejoin="round"/>
  </g>
</svg>
