<svg xmlns="http://www.w3.org/2000/svg" width="100%" height="100%" viewBox="0 0 1624.00 1624.00">
  <g transform="translate(112.00,1312.00) scale(1,-1)">
    <path d="M378 1200Q444 1152 534 1152Q605 1152 706 1200Q780 1152 866 1152Q951 1152 1026 1200Q1057 1114 1134 1076Q1201 1060 1206 1060L1230 1064H1246Q1254 1063 1254 1056Q1178 970 1178 852Q1178 696 1278 288Q1286 256 1286 220V176Q1286 -42 930 -116Q741 -165 702 -200Q634 -154 362 -88Q178 -17 154 48Q114 105 114 188V220Q114 263 206 676Q222 758 222 852V868Q222 951 150 1064H170Q183 1064 190 1060Q320 1060 374 1200ZM554 1052Q513 1052 414 1068Q370 1017 302 980Q322 901 322 844V796Q322 684 226 304Q214 230 214 180Q214 56 406 8Q491 -20 702 -68V1076Q626 1052 554 1052Z" fill="param(fill) #111111" fill-opacity="param(fill-opacity) 1" stroke="param(outline) none" stroke-opacity="param(outline-opacity) 1" stroke-width="param(outline-width) 0" stroke-linejoin="round"/>
  </g>
</svg>
