<svg xmlns="http://www.w3.org/2000/svg" width="100%" height="100%" viewBox="0 0 1619.36 1619.36">
  <g transform="translate(109.68,1309.68) scale(1,-1)">
    <path d="M380 1198Q507 1120 516 1106Q510 1106 504 1094Q512 1094 560 1046L552 1034L628 950H624Q531 1007 492 1042V1046Q504 1046 504 1054Q456 1096 456 1098Q462 1098 468 1110L380 1194ZM1020 1194 940 1106Q948 1102 952 1102V1098Q952 1094 896 1042Q908 1042 908 1034Q786 942 772 942L860 1034Q852 1034 852 1042V1046L896 1090Q890 1090 884 1102V1106Q1014 1194 1020 1194ZM668 982H736Q744 981 744 974V902Q744 894 736 894H668Q660 894 660 902V974Q661 982 668 982ZM628 886H780Q900 802 908 802V790Q896 790 896 782Q903 782 952 734L940 718Q1016 649 1016 638H1012Q897 712 884 730V734Q896 734 896 742L848 786Q854 786 860 798Q857 798 784 874V866Q1012 -174 1012 -194H1008Q1001 -198 992 -198H984Q723 19 700 34Q680 14 420 -198H412Q392 -198 392 -190Q392 -174 616 862Q611 862 548 794Q554 794 560 782Q504 733 504 730Q516 730 516 722Q434 660 380 634Q380 638 468 722Q460 722 460 730V734L504 778Q498 778 492 790V794Q503 794 628 886ZM576 522Q607 499 704 414Q761 471 828 522Q772 764 756 854H652Q642 854 600 630Q596 630 576 522ZM568 490 520 262Q542 276 680 398Q671 400 568 490ZM724 398Q862 276 884 262Q836 471 836 490Q734 402 724 398ZM524 222V218Q533 218 700 74Q841 183 880 222L704 374H700ZM504 198 432 -146H436Q636 18 676 54Q676 59 504 198ZM728 58V54Q935 -121 972 -146V-142Q900 183 900 194Z" fill="param(fill) #111111" fill-opacity="param(fill-opacity) 1" stroke="param(outline) none" stroke-opacity="param(outline-opacity) 1" stroke-width="param(outline-width) 0" stroke-linejoin="round"/>
  </g>
</svg>
