<svg xmlns="http://www.w3.org/2000/svg" width="100%" height="100%" viewBox="0 0 1624.00 1624.00">
  <g transform="translate(112.00,1312.00) scale(1,-1)">
    <path d="M1248 1070Q1256 1069 1256 1062Q1252 1040 1252 1030L1280 1054H1284V1038L1280 998Q1299 998 1332 910Q1400 819 1400 802V786Q1377 754 1352 754H1348L1248 802Q1213 802 1176 822V818Q1157 818 1096 658Q1054 613 1004 450Q976 450 928 206Q916 126 916 106Q916 58 956 -66Q921 -70 912 -70Q872 -70 872 -2Q866 -2 860 10Q864 152 864 174Q864 224 856 286H852L812 126V42Q812 31 840 -46Q834 -51 800 -54Q756 -54 756 14Q750 14 740 30Q764 195 764 270V414H792V418Q529 418 432 466H416L396 462V458L416 462Q463 455 480 438Q480 426 356 314Q312 254 312 206V78Q312 29 348 -42Q328 -54 308 -54H304Q272 -54 272 -22V-2Q248 2 248 18L232 274Q228 288 228 290Q184 290 140 26V22L168 -58V-66L148 -70H116Q96 -59 96 -54V-18Q79 -18 72 -2Q104 162 124 302Q184 356 184 446Q184 466 164 598Q164 662 212 726H208Q144 695 144 634Q135 634 132 482V418Q132 217 4 178L0 186Q18 284 36 554Q69 685 140 734Q233 790 304 790Q539 770 660 770Q759 770 924 862Q1093 1011 1212 1030Q1242 1070 1248 1070ZM348 410V406Q353 406 368 426V430Q363 430 348 410ZM804 414V410H816V414ZM820 410V406H828V410Z" fill="param(fill) #111111" fill-opacity="param(fill-opacity) 1" stroke="param(outline) none" stroke-opacity="param(outline-opacity) 1" stroke-width="param(outline-width) 0" stroke-linejoin="round"/>
  </g>
</svg>
