<svg xmlns="http://www.w3.org/2000/svg" width="100%" height="100%" viewBox="0 0 1624.00 1624.00">
  <g transform="translate(112.00,1312.00) scale(1,-1)">
    <path d="M262 1200H278Q536 1200 702 1028Q858 1200 1122 1200H1138Q1172 1200 1238 1196V1188Q1238 1180 1146 1168Q994 1124 850 1052Q778 1012 778 1008Q1011 947 1142 804Q1270 675 1342 520L1334 516H1330Q1224 646 1086 764Q920 896 730 940Q742 167 742 -16Q761 -155 798 -196L790 -200H630L622 -196Q666 -164 666 168L678 940H674Q480 907 258 716Q157 621 70 516H66L58 520Q116 648 230 776Q389 934 490 964Q516 980 622 1008V1012Q346 1164 162 1184V1196Q228 1200 262 1200Z" fill="param(fill) #111111" fill-opacity="param(fill-opacity) 1" stroke="param(outline) none" stroke-opacity="param(outline-opacity) 1" stroke-width="param(outline-width) 0" stroke-linejoin="round"/>
  </g>
</svg>
