<svg xmlns="http://www.w3.org/2000/svg" width="100%" height="100%" viewBox="0 0 1624.00 1624.00">
  <g transform="translate(112.00,1312.00) scale(1,-1)">
    <path d="M690 1200H710Q785 1200 818 1032V1020L814 1012Q748 1028 690 1028Q643 1028 582 1012Q582 1016 578 1016Q611 1200 690 1200ZM710 984H718Q964 984 1122 680Q1170 538 1170 436V396Q1170 121 946 -68Q833 -152 702 -152H678Q477 -152 322 68Q222 229 222 420Q222 731 482 924Q588 984 710 984ZM1130 972Q1222 972 1330 792Q1370 709 1370 652V640Q1370 634 1354 624H1338Q1184 764 1126 764Q1103 817 1006 912Q1050 972 1130 972ZM258 968H286Q347 968 390 912V908Q314 829 270 760Q219 760 58 620H42Q36 620 30 632V652Q30 803 206 952Q243 968 258 968ZM298 16H302Q434 -124 462 -124V-136Q353 -200 298 -200H286Q226 -193 226 -140Q226 -91 298 16ZM1094 16H1098Q1170 -84 1170 -144Q1170 -192 1110 -200H1098Q1044 -200 934 -136V-132Q1005 -82 1094 16Z" fill="param(fill) #111111" fill-opacity="param(fill-opacity) 1" stroke="param(outline) none" stroke-opacity="param(outline-opacity) 1" stroke-width="param(outline-width) 0" stroke-linejoin="round"/>
  </g>
</svg>
