<svg xmlns="http://www.w3.org/2000/svg" width="100%" height="100%" viewBox="0 0 1624.00 1624.00">
  <g transform="translate(112.00,1312.00) scale(1,-1)">
    <path d="M1260 1104Q1279 1104 1296 1072H1300L1304 1092H1312Q1324 1092 1332 1056H1340Q1340 1068 1348 1068Q1356 1068 1364 1036H1368Q1369 1044 1376 1044H1384Q1394 1044 1400 1000V984Q1400 977 1384 940Q1394 940 1400 908V904L1396 896L1368 900H1352Q1352 877 1368 816Q1368 793 1336 780L1308 792V788Q1308 452 1212 388Q1149 318 1080 292Q1049 282 936 168Q932 152 932 140Q987 -36 1024 -36Q1107 -40 1128 -48V-56Q1089 -68 1036 -68V-72Q1058 -72 1072 -96Q1072 -104 1064 -104Q1005 -97 944 -44Q916 -52 888 -56L884 -48Q897 -35 936 -12Q933 51 836 168Q797 260 704 260H696V256Q784 243 784 220Q700 169 700 120Q692 72 692 44V32Q692 -11 804 -20Q828 -39 828 -44Q824 -44 824 -48Q821 -44 724 -36H720V-40Q760 -51 760 -80V-84H756Q705 -68 648 -8H644Q618 -16 608 -16Q584 -7 584 0Q652 15 652 68L668 176Q652 280 640 280Q600 280 560 400Q560 444 492 444Q485 444 472 452Q472 455 488 488H484Q433 484 428 480Q428 484 424 484L428 504V524H364V528L376 568Q354 568 316 556H312V568Q312 589 336 624L296 620H284V624Q284 649 328 684V688H324Q274 680 264 680Q264 684 260 684Q270 715 332 752Q268 763 268 776V780Q316 796 328 796V800Q299 812 260 812Q225 812 136 780L132 788Q200 856 296 876H300V880H280Q174 880 36 748Q12 713 4 712H0Q0 802 116 908Q173 948 184 948V952H172Q158 952 64 928H60Q143 1036 316 1036Q425 1036 488 980V984L484 1004H492Q575 958 636 776Q665 648 712 648Q992 695 992 736Q1173 980 1228 980V988Q1176 991 1176 1028V1036Q1176 1053 1184 1068Q1211 1056 1216 1056Q1212 1063 1208 1092Q1227 1092 1256 1064V1068Q1256 1080 1248 1100Q1256 1104 1260 1104ZM684 264V260H692V264Z" fill="param(fill) #111111" fill-opacity="param(fill-opacity) 1" stroke="param(outline) none" stroke-opacity="param(outline-opacity) 1" stroke-width="param(outline-width) 0" stroke-linejoin="round"/>
  </g>
</svg>
