<svg xmlns="http://www.w3.org/2000/svg" width="100%" height="100%" viewBox="0 0 1624.00 1624.00">
  <g transform="translate(112.00,1312.00) scale(1,-1)">
    <path d="M1208 1200Q1208 1196 1212 1196Q1192 1123 1192 1120Q1286 1088 1304 1044Q1342 966 1372 916Q1372 857 1312 808Q1228 794 1228 752Q1224 737 1224 720L1260 572V568Q1249 478 1124 296Q1100 252 1100 224Q1100 154 1132 4Q1200 -10 1200 -52Q1200 -75 1160 -100Q1172 -120 1172 -132V-144Q1172 -169 1072 -172Q1011 -172 988 -120Q986 -84 976 -84Q840 -95 840 -104Q868 -146 868 -172Q859 -200 852 -200H756Q438 -200 388 -140Q342 -93 224 -12Q112 109 112 244V272Q112 435 276 664Q332 769 332 856V864Q332 966 232 984H212Q104 965 104 888Q104 845 184 800Q208 784 208 764V756Q208 724 164 724Q87 724 32 836L28 864V900Q28 1033 176 1084Q203 1088 220 1088H228Q369 1088 424 936L436 856Q436 715 272 452Q216 348 216 284Q216 169 340 52Q363 410 404 476Q449 619 556 688Q644 744 796 744Q872 768 872 828Q880 841 912 956Q952 1058 1124 1180Q1202 1200 1208 1200Z" fill="param(fill) #111111" fill-opacity="param(fill-opacity) 1" stroke="param(outline) none" stroke-opacity="param(outline-opacity) 1" stroke-width="param(outline-width) 0" stroke-linejoin="round"/>
  </g>
</svg>
