<svg xmlns="http://www.w3.org/2000/svg" width="100%" height="100%" viewBox="0 0 1619.36 1619.36">
  <g transform="translate(109.68,1309.68) scale(1,-1)">
    <path d="M1154 970H1174Q1236 970 1338 882Q1376 871 1398 846Q1387 770 1322 770Q1322 766 1318 766L1290 778Q1268 774 1246 774V770Q1287 770 1354 738V730Q1286 714 1286 710L1266 714H1242Q1213 714 1198 638Q1116 433 1046 338Q1006 252 1006 198Q1006 185 1050 94Q1020 82 1006 82Q958 94 958 150H954V122Q954 113 986 62L990 38Q960 30 914 30Q882 74 882 106Q890 193 890 226V370Q820 366 806 366Q693 366 582 466Q571 466 450 310Q398 260 398 234V214Q398 183 430 134V110H386L366 114Q366 110 362 110Q382 74 382 62Q382 56 366 50Q274 50 274 174Q274 216 310 338V366Q286 512 286 534V558Q302 622 302 642H298Q122 642 90 690Q2 766 2 770Q2 778 46 782Q56 782 190 718Q202 718 218 714L542 730L746 714Q916 714 1058 886Q1058 949 1154 970Z" fill="param(fill) #111111" fill-opacity="param(fill-opacity) 1" stroke="param(outline) none" stroke-opacity="param(outline-opacity) 1" stroke-width="param(outline-width) 0" stroke-linejoin="round"/>
  </g>
</svg>
