<svg xmlns="http://www.w3.org/2000/svg" width="100%" height="100%" viewBox="0 0 1624.00 1624.00">
  <g transform="translate(112.00,1312.00) scale(1,-1)">
    <path d="M800 1200H812Q937 1200 984 1100H1000Q1116 1100 1156 936V928Q1156 911 1100 816Q1212 726 1212 616V608Q1212 503 1064 448Q1049 448 1004 408Q936 372 860 372Q851 372 800 380Q800 156 812 156Q840 172 852 172H856Q864 151 864 148Q855 139 808 120Q816 -68 816 -92Q844 -167 876 -196V-200H672L664 -196Q708 -107 708 -4Q720 312 720 376Q648 348 600 348Q547 348 512 396Q356 426 356 552V572Q279 572 208 656Q188 693 188 716V760Q188 825 280 920Q361 992 484 992Q492 988 496 988Q496 1119 744 1196Q778 1200 800 1200Z" fill="param(fill) #111111" fill-opacity="param(fill-opacity) 1" stroke="param(outline) none" stroke-opacity="param(outline-opacity) 1" stroke-width="param(outline-width) 0" stroke-linejoin="round"/>
  </g>
</svg>
