<svg xmlns="http://www.w3.org/2000/svg" width="100%" height="100%" viewBox="0 0 1624.00 1624.00">
  <g transform="translate(112.00,1312.00) scale(1,-1)">
    <path d="M618 1200H630Q666 1171 666 1148Q666 1132 614 1096Q594 1072 590 1040Q598 1027 598 1020Q624 1020 662 1068Q683 1072 686 1072Q706 1043 706 1028V1024Q706 1008 598 968Q598 956 582 956V952Q642 938 642 916Q630 889 610 880H598Q595 880 558 924Q510 881 510 784Q510 764 690 744H710Q768 744 806 856Q838 912 906 912H914Q1073 912 1094 852Q1114 743 1114 652Q1085 625 970 560Q942 529 942 496Q942 401 990 300Q1031 300 1122 340V348L1078 404Q1098 431 1118 440H1122Q1136 440 1158 380Q1181 380 1210 488L1226 500H1230Q1262 500 1278 476Q1278 451 1230 424Q1222 409 1222 392V388Q1242 388 1242 384Q1286 384 1338 460L1346 464H1354Q1374 455 1398 424V408Q1398 385 1306 376Q1267 348 1266 340L1298 312Q1350 314 1350 320Q1351 328 1358 328L1386 304Q1386 252 1350 252Q1279 300 1226 300Q1161 300 954 236Q921 236 894 332Q873 360 870 360Q819 224 766 224Q764 219 702 204V196Q873 151 898 104Q884 69 734 12Q734 -1 778 -4Q820 -4 922 84Q930 88 934 88Q934 86 958 60Q958 21 910 16Q886 -3 886 -8Q915 -20 922 -20H934Q947 -20 1006 4H1014Q1025 4 1038 -40Q1038 -51 1002 -80Q994 -80 946 -52H934Q927 -52 890 -68Q904 -92 990 -140L1002 -156V-160Q981 -200 958 -200H950Q848 -68 814 -68Q814 -59 706 -48Q672 -52 650 -52Q526 -52 526 -32V-28Q579 39 678 80V84Q505 144 410 144Q342 163 342 268Q342 315 290 468H282Q214 324 166 324Q154 350 154 360V420Q154 433 158 440L154 464V480Q154 611 122 652Q95 681 14 732L2 748V752Q2 758 50 800H54Q67 792 106 716L138 688Q150 714 150 724V744Q134 792 134 816V820Q167 836 174 836Q201 825 206 812V800Q206 788 182 736V732Q182 715 198 684Q208 695 238 752L246 756H250Q281 756 290 736V724Q202 622 202 576V568Q202 560 210 528H214Q268 671 314 696H318Q336 687 394 524H402Q433 598 562 672V676Q438 732 438 740Q445 796 506 976V996Q506 1053 454 1148V1156Q464 1156 502 1184H514L526 1148Q518 1132 518 1104Q518 1088 546 1068Q564 1070 602 1188Z" fill="param(fill) #111111" fill-opacity="param(fill-opacity) 1" stroke="param(outline) none" stroke-opacity="param(outline-opacity) 1" stroke-width="param(outline-width) 0" stroke-linejoin="round"/>
  </g>
</svg>
