<svg xmlns="http://www.w3.org/2000/svg" width="100%" height="100%" viewBox="0 0 1624.00 1624.00">
  <g transform="translate(112.00,1312.00) scale(1,-1)">
    <path d="M724 736H736Q768 736 876 632Q876 612 1156 584Q1400 537 1400 512Q1400 488 1292 468Q1244 426 960 388Q787 368 720 368H660Q619 356 520 352V356L536 376H532Q521 376 440 368Q440 340 408 316H404Q379 361 360 380Q356 380 348 384Q308 382 308 376Q254 280 192 264Q184 274 184 276V284Q184 300 196 352Q196 375 112 440Q0 574 0 628L4 636Q38 629 172 512Q278 448 288 448Q356 448 368 528Q376 528 376 536Q401 525 432 504Q461 504 704 580Q728 616 728 636Q716 696 716 732Z" fill="param(fill) #111111" fill-opacity="param(fill-opacity) 1" stroke="param(outline) none" stroke-opacity="param(outline-opacity) 1" stroke-width="param(outline-width) 0" stroke-linejoin="round"/>
  </g>
</svg>
