<svg xmlns="http://www.w3.org/2000/svg" width="100%" height="100%" viewBox="0 0 1624.00 1624.00">
  <g transform="translate(112.00,1312.00) scale(1,-1)">
    <path d="M1284 986 1288 978V970Q1288 943 1260 902Q1336 818 1400 766V746Q1376 702 1336 702Q1327 702 1320 706Q1265 690 1236 686Q1202 690 1176 698Q1176 690 1188 690Q1188 676 1136 602Q1118 561 1080 418Q1030 350 984 350V354Q984 366 992 382V386H988Q964 348 944 150V146Q944 127 980 46Q966 38 944 38Q921 38 892 82V142Q892 342 808 342H796V338Q861 338 872 254L860 150Q868 109 880 70Q862 58 844 58Q823 58 796 106Q808 199 808 238Q808 281 784 342Q657 314 592 314Q507 314 420 350Q420 337 344 322Q304 264 304 218V206Q304 137 364 70V66Q358 50 336 50H324Q280 50 260 106Q252 106 252 114V154Q252 176 220 242Q226 283 316 354Q324 358 328 358V362H324Q227 317 180 182Q172 137 172 118V102Q172 85 208 30V26Q204 14 184 14H168Q117 14 100 82Q116 205 116 226Q116 242 108 286Q128 326 128 338Q96 400 96 450V542Q96 600 104 674V678H100Q77 577 56 306Q51 306 44 266Q48 250 48 238L4 170H0V190Q0 266 36 282Q46 331 64 646Q89 754 152 794Q187 814 200 814H212Q331 798 592 782Q665 782 948 834Q1111 896 1148 914Q1148 950 1156 950Q1204 938 1204 934Q1240 934 1284 986ZM104 690V682H108V690ZM332 366V362H344V366ZM352 366V362H372V366ZM408 354V350H416V354Z" fill="param(fill) #111111" fill-opacity="param(fill-opacity) 1" stroke="param(outline) none" stroke-opacity="param(outline-opacity) 1" stroke-width="param(outline-width) 0" stroke-linejoin="round"/>
  </g>
</svg>
