<svg xmlns="http://www.w3.org/2000/svg" width="100%" height="100%" viewBox="0 0 1624.00 1624.00">
  <g transform="translate(112.00,1312.00) scale(1,-1)">
    <path d="M960 1156Q1115 1100 1128 808Q1276 763 1364 624Q1400 566 1400 536V516Q1400 508 1392 508H1368V504Q1376 491 1376 480Q1376 459 1152 412Q1124 412 1048 444Q1048 439 1124 388Q1041 212 988 212H984L968 224Q940 148 940 92V68Q953 -56 996 -56Q1112 -56 1112 -96Q1124 -105 1124 -124V-128Q1072 -156 984 -156H976Q894 -156 864 -104Q700 132 700 216V232Q700 241 704 248V252H700Q692 224 692 204V196Q692 187 732 68Q647 -7 488 -32L464 -36V-32Q512 129 512 176V204Q512 242 488 280H484V276Q500 235 500 204V168Q500 105 428 -44V-64L444 -68Q454 -44 536 -44Q611 -44 640 -120V-140Q565 -156 528 -156H484Q272 -156 272 -128L268 -120Q284 -88 284 -68V-60H268Q195 -80 176 -80Q61 -80 28 8Q0 33 0 60Q20 65 20 72Q0 89 0 120V132Q0 156 16 156Q40 156 68 120Q60 165 60 192Q60 443 336 608Q466 676 624 676Q663 676 752 668Q918 704 936 716L964 744Q950 769 876 848Q796 963 796 1056Q796 1077 820 1092H836Q881 1092 952 996H956V1000Q933 1048 928 1088Q928 1126 960 1156Z" fill="param(fill) #111111" fill-opacity="param(fill-opacity) 1" stroke="param(outline) none" stroke-opacity="param(outline-opacity) 1" stroke-width="param(outline-width) 0" stroke-linejoin="round"/>
  </g>
</svg>
