<svg xmlns="http://www.w3.org/2000/svg" width="100%" height="100%" viewBox="0 0 1624.00 1624.00">
  <g transform="translate(112.00,1312.00) scale(1,-1)">
    <path d="M8 746H384Q392 745 392 738V694Q392 686 384 686H228V262Q228 254 220 254H168Q160 254 160 262V686H8Q0 686 0 694V738Q1 746 8 746ZM460 746H548Q555 746 664 418L688 334H692Q760 551 836 746H916Q924 745 924 738V262Q924 254 916 254H864Q856 254 856 262V646H852Q736 290 712 254H660Q651 254 524 650H520V262Q520 254 512 254H460Q452 254 452 262V738Q453 746 460 746ZM1032 746H1256Q1356 746 1392 658L1400 630V594Q1400 469 1248 454H1092V262Q1092 254 1084 254H1032Q1024 254 1024 262V738Q1025 746 1032 746ZM1092 686V514H1220Q1332 514 1332 602Q1332 686 1232 686Z" fill="param(fill) #111111" fill-opacity="param(fill-opacity) 1" stroke="param(outline) none" stroke-opacity="param(outline-opacity) 1" stroke-width="param(outline-width) 0" stroke-linejoin="round"/>
  </g>
</svg>
