<svg xmlns="http://www.w3.org/2000/svg" width="100%" height="100%" viewBox="0 0 1624.00 1624.00">
  <g transform="translate(112.00,1312.00) scale(1,-1)">
    <path d="M8 1052H416Q624 1052 676 908Q692 865 692 828V820Q692 653 516 592Q456 585 456 576Q538 564 716 260Q720 257 760 192L752 188H620Q612 194 432 472Q357 568 292 568H116V196Q116 188 108 188H8Q0 188 0 196V1044Q1 1052 8 1052ZM116 956V672H348Q504 672 548 736Q568 780 572 812Q572 935 424 952Q390 956 336 956ZM1120 828H1156Q1306 828 1380 644Q1400 586 1400 524V488Q1400 262 1200 184Q1152 172 1120 172Q1040 172 964 248V-44Q964 -52 956 -52H864Q856 -52 856 -44V808Q857 816 864 816H948Q956 815 956 808V740Q1027 828 1120 828ZM956 512V480Q956 334 1052 280Q1089 264 1124 264Q1231 264 1276 396Q1288 444 1288 484V536Q1288 679 1172 736Q1131 741 1124 744Q1019 744 968 600Q956 552 956 512Z" fill="param(fill) #111111" fill-opacity="param(fill-opacity) 1" stroke="param(outline) none" stroke-opacity="param(outline-opacity) 1" stroke-width="param(outline-width) 0" stroke-linejoin="round"/>
  </g>
</svg>
