<svg xmlns="http://www.w3.org/2000/svg" width="100%" height="100%" viewBox="0 0 1624.00 1624.00">
  <g transform="translate(112.00,1312.00) scale(1,-1)">
    <path d="M8 964H244Q533 964 572 888Q644 818 644 728Q644 606 524 540V532Q688 476 688 308Q688 158 540 80Q468 48 304 48H8Q0 48 0 56V956Q1 964 8 964ZM1064 964H1112Q1257 964 1340 816Q1356 769 1356 744V720Q1356 606 1236 548V544Q1296 544 1368 452Q1400 395 1400 340V300Q1400 152 1228 60Q1172 36 1112 36H1068Q896 36 812 236Q812 244 804 292Q827 300 916 308Q961 132 1084 132H1108Q1228 132 1276 276Q1280 304 1280 324Q1280 433 1168 484Q1136 492 1128 492H1096Q1060 492 1028 480Q1028 484 1024 484Q1032 566 1040 584L1048 580Q1201 580 1236 696Q1240 718 1240 728Q1240 855 1092 872Q969 872 936 728Q932 721 932 708Q816 721 816 732Q824 808 896 892Q976 964 1064 964ZM124 852V580H304Q481 580 508 648Q520 684 520 708V720Q505 844 412 844Q373 852 296 852ZM124 468V160H356Q560 160 560 312Q560 468 364 468Z" fill="param(fill) #111111" fill-opacity="param(fill-opacity) 1" stroke="param(outline) none" stroke-opacity="param(outline-opacity) 1" stroke-width="param(outline-width) 0" stroke-linejoin="round"/>
  </g>
</svg>
