<svg xmlns="http://www.w3.org/2000/svg" width="100%" height="100%" viewBox="0 0 1624.00 1624.00">
  <g transform="translate(112.00,1312.00) scale(1,-1)">
    <path d="M8 860H1392Q1400 859 1400 852V148Q1400 140 1392 140H8Q0 140 0 148V852Q1 860 8 860ZM44 816V184H1356V816ZM716 716Q847 716 900 580Q912 556 912 504V496Q912 320 740 288Q722 288 716 284Q573 284 524 440L516 488Q516 671 676 712Q715 712 716 716ZM172 708H484Q492 707 492 700V664Q492 656 484 656H356V300Q356 292 348 292H308Q300 292 300 300V656H172Q164 656 164 664V700Q165 708 172 708ZM984 708H1028Q1036 707 1036 700V344H1228Q1236 343 1236 336V300Q1236 292 1228 292H984Q976 292 976 300V700Q977 708 984 708ZM576 492Q576 385 668 344Q700 336 716 336Q805 336 840 424Q852 450 852 488V512Q838 664 716 664Q595 664 580 524Q576 496 576 492Z" fill="param(fill) #111111" fill-opacity="param(fill-opacity) 1" stroke="param(outline) none" stroke-opacity="param(outline-opacity) 1" stroke-width="param(outline-width) 0" stroke-linejoin="round"/>
  </g>
</svg>
