<svg xmlns="http://www.w3.org/2000/svg" width="100%" height="100%" viewBox="0 0 1624.00 1624.00">
  <g transform="translate(112.00,1312.00) scale(1,-1)">
    <path d="M8 1090H496Q793 1090 868 890Q892 829 892 762V742Q892 541 716 442Q641 394 332 394H156V-74Q156 -82 148 -82H8Q0 -82 0 -74V1082Q1 1090 8 1090ZM1236 1066 1240 1058V770H1376Q1384 769 1384 762V662Q1384 654 1376 654H1240V134Q1240 46 1316 46H1320Q1330 46 1380 50Q1400 -40 1400 -78Q1355 -90 1312 -90H1276Q1156 -90 1112 -6Q1092 36 1092 150V654H992Q984 654 984 662V762Q985 770 992 770H1092V974Q1109 992 1236 1066ZM156 950V538H472Q652 538 704 638Q728 681 728 730V762Q728 893 592 942Q548 950 492 950Z" fill="param(fill) #111111" fill-opacity="param(fill-opacity) 1" stroke="param(outline) none" stroke-opacity="param(outline-opacity) 1" stroke-width="param(outline-width) 0" stroke-linejoin="round"/>
  </g>
</svg>
