<svg xmlns="http://www.w3.org/2000/svg" width="100%" height="100%" viewBox="0 0 1624.00 1624.00">
  <g transform="translate(112.00,1312.00) scale(1,-1)">
    <path d="M8 970H404Q617 970 688 822Q705 775 712 702Q712 508 524 438Q452 418 260 418H124V50Q124 42 116 42H8Q0 42 0 50V962Q1 970 8 970ZM124 858V534H396Q580 534 580 706Q580 821 460 854Q425 858 400 858ZM1112 730H1152Q1296 730 1372 582L1392 518Q1361 510 1280 498Q1255 586 1200 618Q1160 634 1132 634H1124Q986 634 948 490Q936 453 936 406V342Q936 173 1076 130Q1097 126 1116 126H1128Q1232 126 1272 234Q1287 290 1292 290Q1400 282 1400 266Q1400 185 1296 82Q1213 30 1144 30H1104Q917 30 840 218Q816 277 816 350V402Q816 639 1020 718Q1078 730 1112 730Z" fill="param(fill) #111111" fill-opacity="param(fill-opacity) 1" stroke="param(outline) none" stroke-opacity="param(outline-opacity) 1" stroke-width="param(outline-width) 0" stroke-linejoin="round"/>
  </g>
</svg>
