<svg xmlns="http://www.w3.org/2000/svg" width="100%" height="100%" viewBox="0 0 1624.00 1624.00">
  <g transform="translate(112.00,1312.00) scale(1,-1)">
    <path d="M272 888H316Q517 888 572 704L576 664L568 660Q498 656 480 656Q460 742 420 768Q375 796 308 796H280Q153 796 128 708Q128 688 124 688Q124 606 272 576Q476 532 520 492Q600 427 600 336Q600 189 420 124Q384 112 332 112H292Q91 112 16 276Q0 319 0 356V360Q0 372 92 376Q112 286 144 260Q207 204 304 204H336Q452 204 492 292Q497 298 500 332Q500 419 344 452Q28 508 28 668V688Q28 827 200 880Q240 888 272 888ZM660 672H744Q758 672 864 252Q871 252 952 572Q979 672 988 672H1072Q1084 661 1184 260H1188Q1296 637 1312 672H1392Q1400 671 1400 664L1232 128L1224 124H1140Q1126 124 1076 344Q1048 425 1028 532H1024Q924 134 912 124H824Q809 129 752 344Q740 372 652 668Z" fill="param(fill) #111111" fill-opacity="param(fill-opacity) 1" stroke="param(outline) none" stroke-opacity="param(outline-opacity) 1" stroke-width="param(outline-width) 0" stroke-linejoin="round"/>
  </g>
</svg>
