<svg xmlns="http://www.w3.org/2000/svg" width="100%" height="100%" viewBox="0 0 1624.00 1624.00">
  <g transform="translate(112.00,1312.00) scale(1,-1)">
    <path d="M8 1082H372Q565 1082 628 950Q676 862 676 746Q676 500 488 422Q428 402 352 402H120V-58Q120 -66 112 -66H8Q0 -66 0 -58V1074Q1 1082 8 1082ZM1296 1082H1392Q1400 1081 1400 1074V-58Q1400 -66 1392 -66H1296Q1288 -66 1288 -58V1074Q1289 1082 1296 1082ZM120 946V538H280Q471 538 504 594Q552 658 552 746Q552 912 420 942Q353 946 316 946ZM952 786Q1134 786 1184 646Q1200 592 1200 458V182Q1200 -2 1232 -62L1224 -66H1120Q1096 -23 1096 34Q986 -82 868 -82H836Q699 -82 648 86Q640 129 640 170Q640 326 804 398Q992 431 1084 462V510Q1084 666 928 666Q822 666 788 578Q772 520 764 506Q660 523 660 534Q680 646 728 702Q809 786 952 786ZM760 162V154Q760 40 888 30Q1035 30 1080 206Q1084 260 1084 286V346Q1005 315 832 278Q760 243 760 162Z" fill="param(fill) #111111" fill-opacity="param(fill-opacity) 1" stroke="param(outline) none" stroke-opacity="param(outline-opacity) 1" stroke-width="param(outline-width) 0" stroke-linejoin="round"/>
  </g>
</svg>
