<svg xmlns="http://www.w3.org/2000/svg" width="100%" height="100%" viewBox="0 0 1624.00 1624.00">
  <g transform="translate(112.00,1312.00) scale(1,-1)">
    <path d="M8 962H712Q720 961 720 954V862Q720 854 712 854H424V58Q424 50 416 50H304Q296 50 296 58V854H8Q0 854 0 862V954Q1 962 8 962ZM836 962H936Q944 961 944 954V646Q1021 726 1108 726H1136Q1307 726 1380 530Q1400 473 1400 418V366Q1400 135 1196 46Q1151 38 1132 38H1096Q1009 38 936 126V58Q936 50 928 50H836Q828 50 828 58V954Q829 962 836 962ZM932 386Q932 202 1032 150Q1062 134 1108 130Q1220 130 1272 278Q1284 343 1284 382Q1284 584 1152 626Q1112 630 1112 634Q994 634 944 482Q937 440 932 386Z" fill="param(fill) #111111" fill-opacity="param(fill-opacity) 1" stroke="param(outline) none" stroke-opacity="param(outline-opacity) 1" stroke-width="param(outline-width) 0" stroke-linejoin="round"/>
  </g>
</svg>
