<svg xmlns="http://www.w3.org/2000/svg" width="100%" height="100%" viewBox="0 0 1624.00 1624.00">
  <g transform="translate(112.00,1312.00) scale(1,-1)">
    <path d="M8 870H580Q588 869 588 862V790Q588 782 580 782H344V138Q344 130 336 130H248Q240 130 240 138V782H8Q0 782 0 790V862Q1 870 8 870ZM908 678H936Q1018 678 1072 590Q1134 678 1220 678H1252Q1342 678 1384 594Q1400 562 1400 518V138Q1400 130 1392 130H1316Q1308 130 1308 138V442Q1308 560 1272 582Q1234 598 1216 598Q1084 598 1084 426V138Q1084 130 1076 130H996Q988 130 988 138V498Q988 598 892 598Q842 598 796 550Q768 506 768 426V138Q768 130 760 130H680Q672 130 672 138V662Q673 670 680 670H748Q756 669 756 662V598Q822 678 908 678Z" fill="param(fill) #111111" fill-opacity="param(fill-opacity) 1" stroke="param(outline) none" stroke-opacity="param(outline-opacity) 1" stroke-width="param(outline-width) 0" stroke-linejoin="round"/>
  </g>
</svg>
