<svg xmlns="http://www.w3.org/2000/svg" width="100%" height="100%" viewBox="0 0 1619.36 1619.36">
  <g transform="translate(109.68,1309.68) scale(1,-1)">
    <path d="M10 762H410Q418 761 418 754V706Q418 698 410 698H246V246Q246 238 238 238H182Q174 238 174 246V698H10Q2 698 2 706V754Q3 762 10 762ZM494 762H726Q857 762 886 642V598Q886 496 774 458Q724 450 690 450H558V246Q558 238 550 238H494Q486 238 486 246V754Q487 762 494 762ZM978 762H1034Q1042 761 1042 754V510L1298 762H1390V758L1178 550V546L1398 246V238H1314Q1289 263 1126 498H1122Q1042 422 1042 418V246Q1042 238 1034 238H978Q970 238 970 246V754Q971 762 978 762ZM558 698V514H654Q802 514 802 566Q807 566 814 610Q814 698 710 698Z" fill="param(fill) #111111" fill-opacity="param(fill-opacity) 1" stroke="param(outline) none" stroke-opacity="param(outline-opacity) 1" stroke-width="param(outline-width) 0" stroke-linejoin="round"/>
  </g>
</svg>
