<svg xmlns="http://www.w3.org/2000/svg" width="100%" height="100%" viewBox="0 0 1624.00 1624.00">
  <g transform="translate(112.00,1312.00) scale(1,-1)">
    <path d="M412 1082H472Q721 1082 832 882Q864 800 864 746Q835 738 720 734Q701 832 656 882Q575 946 480 946H412Q239 946 192 818Q188 796 188 782V770Q188 654 428 610Q796 536 856 402Q896 338 896 278V242Q896 59 676 -50Q576 -82 512 -82H444Q162 -82 44 126Q0 204 0 290V294Q0 303 140 314Q156 214 200 154Q305 54 452 54H492Q677 54 740 186Q748 214 748 234V250Q748 395 456 442Q199 506 136 566Q40 657 40 770Q40 979 280 1062Q353 1082 412 1082ZM1240 1038 1244 1030V754H1376Q1384 753 1384 746V654Q1384 646 1376 646H1244V182Q1244 58 1300 58H1332L1380 62Q1388 50 1400 -62Q1357 -73 1296 -78Q1155 -78 1116 22Q1104 68 1104 118V646H1008Q1000 646 1000 654V746Q1001 754 1008 754H1104V954Q1104 959 1240 1038Z" fill="param(fill) #111111" fill-opacity="param(fill-opacity) 1" stroke="param(outline) none" stroke-opacity="param(outline-opacity) 1" stroke-width="param(outline-width) 0" stroke-linejoin="round"/>
  </g>
</svg>
