<svg xmlns="http://www.w3.org/2000/svg" width="100%" height="100%" viewBox="0 0 1624.00 1624.00">
  <g transform="translate(112.00,1312.00) scale(1,-1)">
    <path d="M8 768H412Q420 767 420 760V712Q420 704 412 704H248V248Q248 240 240 240H180Q172 240 172 248V704H8Q0 704 0 712V760Q1 768 8 768ZM496 768H724Q859 768 892 660Q896 638 896 624V596Q896 508 788 464Q737 452 616 452H564V248Q564 240 556 240H496Q488 240 488 248V760Q489 768 496 768ZM992 768H1048Q1056 767 1056 760V484Q1056 340 1112 312Q1156 296 1188 296Q1324 296 1324 424Q1328 424 1328 464V760Q1329 768 1336 768H1392Q1400 767 1400 760V432Q1400 292 1288 244Q1243 232 1216 232H1180Q984 232 984 448V760Q985 768 992 768ZM564 704V520H696Q820 520 820 604V612Q820 704 716 704Z" fill="param(fill) #111111" fill-opacity="param(fill-opacity) 1" stroke="param(outline) none" stroke-opacity="param(outline-opacity) 1" stroke-width="param(outline-width) 0" stroke-linejoin="round"/>
  </g>
</svg>
