<svg xmlns="http://www.w3.org/2000/svg" width="100%" height="100%" viewBox="0 0 1078.80 1078.80">
  <g transform="translate(-160.60,1039.40) scale(1,-1)">
    <path d="M700 761Q808 761 884.5 684.5Q961 608 961 500Q961 392 884.5 315.5Q808 239 700 239Q592 239 515.5 315.5Q439 392 439 500Q439 608 515.5 684.5Q592 761 700 761ZM700 965Q893 965 1029.0 829.0Q1165 693 1165 500Q1165 307 1029.0 171.0Q893 35 700 35Q507 35 371.0 171.0Q235 307 235 500Q235 693 371.0 829.0Q507 965 700 965ZM700 908Q531 908 412 788Q292 669 292 500Q292 331 412 212Q531 92 700 92Q869 92 988 212Q1108 331 1108 500Q1108 669 988 788Q869 908 700 908ZM700 696Q619 696 561.5 638.5Q504 581 504 500Q504 419 561.5 361.5Q619 304 700 304Q781 304 838.5 361.5Q896 419 896 500Q896 581 838.5 638.5Q781 696 700 696Z" fill="param(fill) #111111" fill-opacity="param(fill-opacity) 1" stroke="param(outline) none" stroke-opacity="param(outline-opacity) 1" stroke-width="param(outline-width) 0" stroke-linejoin="round"/>
  </g>
</svg>
