<svg xmlns="http://www.w3.org/2000/svg" width="100%" height="100%" viewBox="0 0 1153.04 1153.04">
  <g transform="translate(-123.48,1076.52) scale(1,-1)">
    <path d="M700 997Q906 997 1051.5 851.5Q1197 706 1197 500Q1197 294 1051.5 148.5Q906 3 700 3Q494 3 348.5 148.5Q203 294 203 500Q203 706 348.5 851.5Q494 997 700 997ZM700 895Q536 895 420.5 779.5Q305 664 305 500Q305 336 420.5 220.5Q536 105 700 105Q864 105 979.5 220.5Q1095 336 1095 500Q1095 664 979.5 779.5Q864 895 700 895Z" fill="param(fill) #111111" fill-opacity="param(fill-opacity) 1" stroke="param(outline) none" stroke-opacity="param(outline-opacity) 1" stroke-width="param(outline-width) 0" stroke-linejoin="round"/>
  </g>
</svg>
