<svg xmlns="http://www.w3.org/2000/svg" width="100%" height="100%" viewBox="0 0 1074.16 1074.16">
  <g transform="translate(-162.92,1037.08) scale(1,-1)">
    <path d="M700 83Q873 83 995.5 205.0Q1118 327 1118 500Q1118 673 995.5 795.5Q873 918 700 918Q527 918 405.0 795.5Q283 673 283 500Q283 327 405.0 205.0Q527 83 700 83ZM700 37Q509 37 373.0 173.0Q237 309 237 500Q237 692 373.0 827.5Q509 963 700 963Q892 963 1027.5 827.5Q1163 692 1163 500Q1163 309 1027.5 173.0Q892 37 700 37Z" fill="param(fill) #111111" fill-opacity="param(fill-opacity) 1" stroke="param(outline) none" stroke-opacity="param(outline-opacity) 1" stroke-width="param(outline-width) 0" stroke-linejoin="round"/>
  </g>
</svg>
