<svg xmlns="http://www.w3.org/2000/svg" width="100%" height="100%" viewBox="0 0 1624.00 1624.00">
  <g transform="translate(112.00,1312.00) scale(1,-1)">
    <path d="M664 1030H736Q1010 1030 1248 834Q1400 670 1400 534V466Q1400 324 1236 154Q998 -30 736 -30H664Q390 -30 152 166Q0 331 0 466V534Q0 676 164 846Q402 1030 664 1030ZM112 502Q112 215 508 94Q611 70 692 70H696L400 494V502L696 930H688Q347 930 156 670Q112 580 112 502ZM704 930 1000 502V494L704 70H708Q1011 70 1216 286Q1288 386 1288 510Q1288 744 964 886Q832 930 712 930Z" fill="param(fill) #111111" fill-opacity="param(fill-opacity) 1" stroke="param(outline) none" stroke-opacity="param(outline-opacity) 1" stroke-width="param(outline-width) 0" stroke-linejoin="round"/>
  </g>
</svg>
