<svg xmlns="http://www.w3.org/2000/svg" width="100%" height="100%" viewBox="0 0 1624.00 1624.00">
  <g transform="translate(112.00,1312.00) scale(1,-1)">
    <path d="M468 1184H492Q529 1184 540 1124Q520 1090 520 1084Q600 856 608 844Q669 856 672 856V980Q644 1000 644 1004V1016Q661 1044 696 1044H704Q728 1029 728 1008Q718 984 704 984V856H708Q730 856 800 844L888 1092Q868 1100 868 1136Q883 1184 916 1184H928Q968 1184 976 1128Q976 1092 920 1072Q920 1065 836 828Q844 828 900 796Q976 894 976 900Q968 913 968 924V932Q968 938 980 944H1000Q1044 936 1044 904Q1044 876 992 872Q988 861 924 780L1000 696Q1224 819 1224 824Q1233 884 1276 884H1296Q1332 867 1332 832V824Q1332 790 1280 776Q1270 776 1244 788L1016 660Q1028 640 1040 596Q1152 612 1168 620Q1168 642 1188 652H1200Q1228 632 1228 608V588Q1228 574 1188 568L1172 588Q1063 568 1048 568V444L1308 388V392Q1308 404 1352 412Q1400 395 1400 364V356Q1394 304 1352 304H1348Q1307 304 1292 352Q1277 352 1040 408Q1028 375 1012 344L1120 276Q1140 288 1152 288H1156Q1162 288 1172 272Q1172 225 1144 212H1124Q1106 212 1100 256Q1093 256 996 320Q996 293 884 204V200Q971 36 1000 -28H1012Q1055 -28 1064 -88Q1064 -128 1000 -136Q956 -115 956 -88V-76Q956 -68 968 -44Q857 172 844 184H840Q827 175 780 164Q797 48 804 36Q836 31 836 4Q812 -24 788 -24H772Q752 -14 752 8V16Q760 32 772 32Q768 46 752 160H732Q698 160 624 164L552 -92Q572 -102 572 -124V-136Q561 -184 528 -184H512Q479 -184 468 -140V-124Q468 -89 516 -76Q584 160 584 176Q580 176 524 204Q452 108 452 92Q460 92 464 68Q458 48 436 48Q405 48 384 80V84Q384 106 408 120L428 116Q428 120 500 220Q473 241 452 260Q308 128 256 88L260 68V64Q247 12 208 12Q152 21 152 64V68Q152 111 208 120L236 116L428 292Q400 318 392 348Q279 300 272 300V288Q272 266 252 256Q220 256 204 312Q204 335 248 340Q248 334 260 328Q276 328 376 376Q364 413 364 420Q116 372 104 364Q104 336 56 324H48Q0 334 0 372V380Q0 432 56 432Q74 432 100 408L356 456Q352 512 352 528H348L224 544Q224 531 196 516Q168 524 168 568Q168 589 188 600H212Q234 572 244 572L356 556Q356 589 388 660L152 784Q148 772 128 772H120Q68 785 68 824Q79 880 120 880Q176 871 176 824V816L408 692V696L448 748L364 840Q342 836 328 836Q316 840 316 860Q316 885 348 908H368Q374 908 392 884Q392 873 384 860Q468 768 472 768Q546 828 568 828Q487 1080 476 1080Q432 1088 432 1124V1132Q432 1167 468 1184ZM448 496Q448 320 620 256Q664 244 704 244Q894 244 948 448Q952 482 952 504Q952 695 752 752L696 756Q509 756 452 556Q448 516 448 496Z" fill="param(fill) #111111" fill-opacity="param(fill-opacity) 1" stroke="param(outline) none" stroke-opacity="param(outline-opacity) 1" stroke-width="param(outline-width) 0" stroke-linejoin="round"/>
  </g>
</svg>
