<svg xmlns="http://www.w3.org/2000/svg" width="100%" height="100%" viewBox="0 0 1092.72 1092.72">
  <g transform="translate(-153.64,1046.36) scale(1,-1)">
    <path d="M700 971Q895 971 1033.0 833.0Q1171 695 1171 500Q1171 305 1033.0 167.0Q895 29 700 29Q505 29 367.0 167.0Q229 305 229 500Q229 695 367.0 833.0Q505 971 700 971ZM700 770Q588 770 509.0 691.0Q430 612 430 500Q430 388 509.0 309.0Q588 230 700 230Q812 230 891.0 309.0Q970 388 970 500Q970 612 891.0 691.0Q812 770 700 770Z" fill="param(fill) #111111" fill-opacity="param(fill-opacity) 1" stroke="param(outline) none" stroke-opacity="param(outline-opacity) 1" stroke-width="param(outline-width) 0" stroke-linejoin="round"/>
  </g>
</svg>
