<svg xmlns="http://www.w3.org/2000/svg" width="100%" height="100%" viewBox="0 0 1619.36 1619.36">
  <g transform="translate(109.68,1309.68) scale(1,-1)">
    <path d="M386 902H422Q637 902 770 674Q791 615 794 614Q890 614 1058 498Q1125 458 1206 458Q1271 458 1398 566V558Q1290 342 1142 342Q1113 342 890 394H886Q790 384 786 366Q736 226 594 142Q502 98 422 98H386Q164 98 30 342Q2 426 2 482V518Q2 739 246 874Q331 902 386 902ZM90 510V490Q90 289 310 198Q352 186 394 186H426Q589 186 690 366Q716 446 738 446Q810 470 846 470H878Q918 470 1022 438Q885 538 762 538H726Q720 538 694 630Q593 814 414 814H394Q193 814 102 594Q90 552 90 510Z" fill="param(fill) #111111" fill-opacity="param(fill-opacity) 1" stroke="param(outline) none" stroke-opacity="param(outline-opacity) 1" stroke-width="param(outline-width) 0" stroke-linejoin="round"/>
  </g>
</svg>
