<svg xmlns="http://www.w3.org/2000/svg" width="100%" height="100%" viewBox="0 0 1619.36 1619.36">
  <g transform="translate(109.68,1309.68) scale(1,-1)">
    <path d="M694 1198H702Q726 1088 966 686Q1102 416 1102 258V206Q1102 24 934 -118Q824 -198 714 -198H686Q451 -198 322 58Q298 127 298 190V238Q298 497 598 990Q672 1134 694 1198ZM694 1046Q694 1015 486 610Q390 408 390 222V206Q390 202 386 202L390 194V178Q390 -20 626 -118Q662 -126 698 -130V1046Z" fill="param(fill) #111111" fill-opacity="param(fill-opacity) 1" stroke="param(outline) none" stroke-opacity="param(outline-opacity) 1" stroke-width="param(outline-width) 0" stroke-linejoin="round"/>
  </g>
</svg>
