<svg xmlns="http://www.w3.org/2000/svg" width="100%" height="100%" viewBox="0 0 1624.00 1624.00">
  <g transform="translate(112.00,1312.00) scale(1,-1)">
    <path d="M664 1200H736Q744 1199 744 1192V992Q744 985 832 972Q943 934 1012 876L1164 1024Q1169 1024 1224 964L1076 812Q1184 669 1184 548L1192 544H1392Q1400 543 1400 536V464Q1400 456 1392 456H1192Q1185 456 1172 368Q1134 257 1076 188L1224 36Q1224 31 1164 -24L1012 124Q869 16 748 16L744 8V-192Q744 -200 736 -200H664Q656 -200 656 -192V8Q656 15 568 28Q457 66 388 124L236 -24Q231 -24 176 36L324 188Q216 332 216 452L208 456H8Q0 456 0 464V536Q1 544 8 544H208Q215 544 228 632Q266 743 324 812L176 964Q176 969 236 1024L388 876Q532 984 652 984L656 992V1192Q657 1200 664 1200ZM292 500Q292 289 484 156Q590 92 700 92Q953 92 1080 352Q1108 441 1108 500Q1108 740 868 872Q772 908 700 908Q460 908 328 668Q292 572 292 500Z" fill="param(fill) #111111" fill-opacity="param(fill-opacity) 1" stroke="param(outline) none" stroke-opacity="param(outline-opacity) 1" stroke-width="param(outline-width) 0" stroke-linejoin="round"/>
  </g>
</svg>
