<svg xmlns="http://www.w3.org/2000/svg" width="100%" height="100%" viewBox="0 0 1619.36 1619.36">
  <g transform="translate(109.68,1309.68) scale(1,-1)">
    <path d="M644 1198H652Q667 1037 772 870Q846 780 1076 534Q1172 413 1172 254V218Q1172 -22 872 -170Q786 -198 708 -198H680Q419 -198 276 38Q228 134 228 246V278Q228 457 412 722Q542 924 600 1074ZM636 1010Q636 912 400 546Q308 383 308 274V270Q308 -12 568 -110Q627 -126 692 -126H700Q934 -126 1052 74Q1092 149 1092 238V250Q1092 430 940 574Q697 810 688 866Q640 959 640 1010ZM596 474Q632 474 632 442Q632 379 664 282H660Q576 282 484 254Q444 341 444 434Q444 456 596 474Z" fill="param(fill) #111111" fill-opacity="param(fill-opacity) 1" stroke="param(outline) none" stroke-opacity="param(outline-opacity) 1" stroke-width="param(outline-width) 0" stroke-linejoin="round"/>
  </g>
</svg>
