<svg xmlns="http://www.w3.org/2000/svg" width="100%" height="100%" viewBox="0 0 1619.36 1619.36">
  <g transform="translate(109.68,1309.68) scale(1,-1)">
    <path d="M678 1198H690Q1098 442 1098 206V182Q1098 -58 838 -178Q774 -198 722 -198H682Q443 -198 326 50Q302 118 302 174V210Q302 427 662 1166Q668 1167 678 1198ZM862 290Q886 213 886 186Q886 100 774 6Q724 -10 670 -22Q701 -74 770 -74H786Q909 -74 978 86Q981 94 986 130Q986 217 898 282Z" fill="param(fill) #111111" fill-opacity="param(fill-opacity) 1" stroke="param(outline) none" stroke-opacity="param(outline-opacity) 1" stroke-width="param(outline-width) 0" stroke-linejoin="round"/>
  </g>
</svg>
