<svg xmlns="http://www.w3.org/2000/svg" width="100%" height="100%" viewBox="0 0 1624.00 1624.00">
  <g transform="translate(112.00,1312.00) scale(1,-1)">
    <path d="M1056 1152Q1277 1030 1372 760Q1400 662 1400 580V564Q1400 556 1392 556H908Q902 556 888 628Q868 672 820 720Q1049 1147 1056 1152ZM336 1148H348Q580 715 580 708Q524 676 500 596Q496 564 488 564H8Q0 564 0 572V584Q0 872 268 1100Q289 1117 336 1148ZM700 712H708Q814 712 860 596Q868 581 868 564V528Q868 441 752 388Q711 383 704 380Q540 408 540 536V556Q540 667 668 708Q684 712 700 712ZM624 364Q656 344 708 344Q732 344 796 360L1048 -56V-60Q896 -152 732 -152H684Q510 -152 360 -56Q612 356 624 364Z" fill="param(fill) #111111" fill-opacity="param(fill-opacity) 1" stroke="param(outline) none" stroke-opacity="param(outline-opacity) 1" stroke-width="param(outline-width) 0" stroke-linejoin="round"/>
  </g>
</svg>
