<svg xmlns="http://www.w3.org/2000/svg" width="100%" height="100%" viewBox="0 0 1619.36 1619.36">
  <g transform="translate(109.68,1309.68) scale(1,-1)">
    <path d="M700 1198Q801 1021 856 942Q1180 515 1180 238V182Q1180 -64 832 -178Q745 -198 716 -198H684Q422 -198 268 18Q220 97 220 186V238Q220 518 512 894Q604 1030 696 1198ZM696 1050Q630 903 416 610Q296 411 296 238V206Q296 -16 580 -110Q653 -122 688 -122H692Q913 -122 1064 54Q1108 120 1108 210V226Q1108 464 896 730Q755 931 704 1050ZM840 622Q953 467 994 413Q1017 353 1017 319Q1017 312 1016 306Q1016 251 912 202Q890 198 876 198H856Q733 198 716 322V350Q716 426 840 622ZM840 574Q744 407 744 350V318Q744 236 864 222H872Q972 222 992 326Q992 386 840 574Z" fill="param(fill) #111111" fill-opacity="param(fill-opacity) 1" stroke="param(outline) none" stroke-opacity="param(outline-opacity) 1" stroke-width="param(outline-width) 0" stroke-linejoin="round"/>
  </g>
</svg>
