<svg xmlns="http://www.w3.org/2000/svg" width="100%" height="100%" viewBox="0 0 1619.36 1619.36">
  <g transform="translate(109.68,1309.68) scale(1,-1)">
    <path d="M644 1198H652Q681 1007 760 890Q760 875 1088 518Q1172 402 1172 254V218Q1172 -22 872 -170Q786 -198 708 -198H680Q419 -198 276 38Q228 134 228 246V278Q228 457 412 722Q542 924 600 1074ZM448 426Q448 340 488 258Q565 286 660 286V290Q636 336 624 462Q609 470 592 470Q448 457 448 426Z" fill="param(fill) #111111" fill-opacity="param(fill-opacity) 1" stroke="param(outline) none" stroke-opacity="param(outline-opacity) 1" stroke-width="param(outline-width) 0" stroke-linejoin="round"/>
  </g>
</svg>
