<svg xmlns="http://www.w3.org/2000/svg" width="100%" height="100%" viewBox="0 0 1624.00 1624.00">
  <g transform="translate(112.00,1312.00) scale(1,-1)">
    <path d="M690 1200H710Q718 1199 718 1192V912Q718 904 710 904H690Q682 904 682 912V1192Q683 1200 690 1200ZM434 1140H446Q446 1131 586 888Q586 878 554 872Q414 1121 414 1128ZM962 1140H966Q986 1130 986 1124Q848 874 842 872H838Q814 881 814 888Q953 1137 962 1140ZM702 796 1086 -196 1078 -200H1034Q1022 -200 926 68Q702 645 702 656H698Q442 -31 370 -200H322Q314 -200 314 -192L698 796ZM330 772H610Q618 771 618 764V736Q618 728 610 728H330Q322 728 322 736V764Q323 772 330 772ZM778 772H1058Q1066 771 1066 764V736Q1066 728 1058 728H778Q770 728 770 736V764Q771 772 778 772ZM694 -32H706Q769 -32 786 -116Q769 -200 714 -200H686Q631 -200 614 -116Q631 -32 694 -32Z" fill="param(fill) #111111" fill-opacity="param(fill-opacity) 1" stroke="param(outline) none" stroke-opacity="param(outline-opacity) 1" stroke-width="param(outline-width) 0" stroke-linejoin="round"/>
  </g>
</svg>
