<svg xmlns="http://www.w3.org/2000/svg" width="100%" height="100%" viewBox="0 0 1624.00 1624.00">
  <g transform="translate(112.00,1312.00) scale(1,-1)">
    <path d="M8 1200H1392Q1400 1199 1400 1192V-192Q1400 -200 1392 -200H8Q0 -200 0 -192V1192Q1 1200 8 1200ZM112 1088V-88H1288V1088ZM704 732Q863 732 928 548Q928 546 932 496Q932 337 748 272Q746 272 696 268Q537 268 472 452Q472 454 468 504Q468 663 652 728Q654 728 704 732Z" fill="param(fill) #111111" fill-opacity="param(fill-opacity) 1" stroke="param(outline) none" stroke-opacity="param(outline-opacity) 1" stroke-width="param(outline-width) 0" stroke-linejoin="round"/>
  </g>
</svg>
