<svg xmlns="http://www.w3.org/2000/svg" width="100%" height="100%" viewBox="0 0 1624.00 1624.00">
  <g transform="translate(112.00,1312.00) scale(1,-1)">
    <path d="M580 1200H600Q608 1199 608 1192V912Q608 904 600 904H580Q572 904 572 912V1192Q573 1200 580 1200ZM772 1200H792Q800 1199 800 1192V912Q800 904 792 904H772Q764 904 764 912V1192Q765 1200 772 1200ZM320 1140Q460 889 460 884Q445 872 432 872H428L288 1128Q308 1140 320 1140ZM1060 1140H1064Q1084 1130 1084 1124V1120Q946 878 940 872H936Q912 881 912 888Q1051 1137 1060 1140ZM592 796H600Q684 580 696 540H704Q704 548 800 796H808Q808 787 1192 -196L1184 -200H1136Q1120 -180 944 292L804 652H800Q800 637 728 464L984 -196L976 -200H932Q918 -200 756 244Q724 316 704 380H696Q488 -181 472 -200H424L416 -196L672 460Q600 642 600 652Q592 647 448 272Q284 -174 264 -200H216L208 -196Q592 787 592 796ZM92 772H372Q380 771 380 764V736Q380 728 372 728H92Q84 728 84 736V764Q85 772 92 772ZM1028 772H1308Q1316 771 1316 764V736Q1316 728 1308 728H1028Q1020 728 1020 736V764Q1021 772 1028 772ZM696 -32H704Q784 -48 784 -112V-124Q769 -200 708 -200H692Q616 -185 616 -124V-112Q632 -32 696 -32Z" fill="param(fill) #111111" fill-opacity="param(fill-opacity) 1" stroke="param(outline) none" stroke-opacity="param(outline-opacity) 1" stroke-width="param(outline-width) 0" stroke-linejoin="round"/>
  </g>
</svg>
