<svg xmlns="http://www.w3.org/2000/svg" width="100%" height="100%" viewBox="0 0 1624.00 1624.00">
  <g transform="translate(112.00,1312.00) scale(1,-1)">
    <path d="M680 1200H720Q728 1199 728 1192V760H952Q960 759 960 752V528H1392Q1400 527 1400 520V480Q1400 472 1392 472H960V248Q960 240 952 240H728V-192Q728 -200 720 -200H680Q672 -200 672 -192V240H448Q440 240 440 248V472H8Q0 472 0 480V520Q1 528 8 528H440V752Q441 760 448 760H672V1192Q673 1200 680 1200Z" fill="param(fill) #111111" fill-opacity="param(fill-opacity) 1" stroke="param(outline) none" stroke-opacity="param(outline-opacity) 1" stroke-width="param(outline-width) 0" stroke-linejoin="round"/>
  </g>
</svg>
