<svg xmlns="http://www.w3.org/2000/svg" width="100%" height="100%" viewBox="0 0 1619.36 1619.36">
  <g transform="translate(109.68,1309.68) scale(1,-1)">
    <path d="M700 1198Q717 1175 1316 -110L1308 -114H820Q782 -198 716 -198H684Q618 -198 580 -114H92L84 -110Q683 1175 700 1198ZM696 1022Q652 926 652 918Q1064 -9 1080 -30H1192L704 1022ZM612 846Q586 781 544 706Q865 -19 876 -30H1004Q623 840 612 846ZM440 482 636 42Q662 58 696 58H704Q740 58 772 38V42Q604 412 512 626Q507 626 440 482ZM336 258Q352 227 464 -30H572Q580 -30 588 -2Q408 394 408 406Q378 364 336 258ZM296 186Q296 178 196 -30H396Q307 175 296 186ZM628 -70Q638 -142 700 -142Q772 -132 772 -70Q762 2 700 2Q628 -8 628 -70Z" fill="param(fill) #111111" fill-opacity="param(fill-opacity) 1" stroke="param(outline) none" stroke-opacity="param(outline-opacity) 1" stroke-width="param(outline-width) 0" stroke-linejoin="round"/>
  </g>
</svg>
