<svg xmlns="http://www.w3.org/2000/svg" width="100%" height="100%" viewBox="0 0 1624.00 1624.00">
  <g transform="translate(112.00,1312.00) scale(1,-1)">
    <path d="M722 1200Q730 1200 858 776L1294 872Q1318 837 1318 824Q1286 796 1018 500Q1272 226 1318 172Q1304 143 1294 128Q879 224 858 224V220L726 -196L718 -200H682Q665 -181 586 92Q543 224 538 224H534Q124 132 106 132H102Q82 166 82 176Q104 194 382 500L82 832Q100 872 106 872L542 776Q654 1138 678 1200ZM698 1052Q690 1011 586 696Q232 776 226 776V772L474 500L222 224Q575 304 586 304Q634 173 698 -52H702Q790 237 814 304H818Q1163 228 1174 228L930 500V504L1178 776H1174L814 696L702 1052Z" fill="param(fill) #111111" fill-opacity="param(fill-opacity) 1" stroke="param(outline) none" stroke-opacity="param(outline-opacity) 1" stroke-width="param(outline-width) 0" stroke-linejoin="round"/>
  </g>
</svg>
