<svg xmlns="http://www.w3.org/2000/svg" width="100%" height="100%" viewBox="0 0 1624.00 1624.00">
  <g transform="translate(112.00,1312.00) scale(1,-1)">
    <path d="M688 1200H716Q769 1200 848 1100Q925 1040 992 1040H1048Q1150 1036 1160 1016L988 840L1044 788Q1047 796 1216 960H1224Q1247 913 1264 748Q1289 674 1380 576Q1400 543 1400 516V480Q1400 426 1300 348Q1236 296 1236 124Q1229 40 1212 40Q1209 48 1040 212L988 156Q996 153 1160 -16V-20Q1104 -44 972 -56Q901 -71 796 -176Q758 -200 732 -200H692Q639 -200 556 -100Q490 -44 400 -44H320Q287 -44 240 -24V-16L412 160L356 212Q353 204 184 40Q164 40 140 240Q116 316 20 412Q0 449 0 472V504Q0 570 108 652Q160 726 160 812Q160 818 156 868Q160 906 176 960H184L360 788L412 844Q404 847 240 1016V1024Q303 1047 436 1060Q515 1082 612 1176Q645 1200 688 1200Z" fill="param(fill) #111111" fill-opacity="param(fill-opacity) 1" stroke="param(outline) none" stroke-opacity="param(outline-opacity) 1" stroke-width="param(outline-width) 0" stroke-linejoin="round"/>
  </g>
</svg>
