<svg xmlns="http://www.w3.org/2000/svg" width="100%" height="100%" viewBox="0 0 1624.00 1624.00">
  <g transform="translate(112.00,1312.00) scale(1,-1)">
    <path d="M244 1200H1156Q1164 1199 1164 1192V32H1280Q1288 31 1288 24V-48Q1288 -56 1280 -56H876Q876 -123 776 -184Q747 -200 712 -200H688Q569 -200 520 -56H120Q112 -56 112 -48V24Q113 32 120 32H236V1192Q237 1200 244 1200ZM316 1112V884Q357 920 536 1112ZM316 760V536Q321 537 864 1112H652Q618 1082 316 760ZM316 188 1084 996V1112H980Q316 420 316 412ZM316 68V32H520Q571 127 604 132L1084 648V876Q1081 876 316 68ZM740 156Q798 156 864 64Q1084 292 1084 300V524Q741 165 740 156ZM948 32H1084V176ZM596 -20Q615 -120 688 -120H700Q800 -110 800 -20V-8Q800 66 696 84Q615 84 596 -20Z" fill="param(fill) #111111" fill-opacity="param(fill-opacity) 1" stroke="param(outline) none" stroke-opacity="param(outline-opacity) 1" stroke-width="param(outline-width) 0" stroke-linejoin="round"/>
  </g>
</svg>
