<svg xmlns="http://www.w3.org/2000/svg" width="100%" height="100%" viewBox="0 0 1624.00 1624.00">
  <g transform="translate(112.00,1312.00) scale(1,-1)">
    <path d="M636 1104H764Q1135 1104 1356 976Q1400 937 1400 912V88Q1400 13 1164 -56Q952 -104 764 -104H636Q265 -104 44 24Q0 63 0 88V912Q0 987 236 1056Q448 1104 636 1104ZM668 1024H656Q302 1024 112 908L108 900Q154 852 276 824Q457 780 696 780H704Q1100 780 1276 884Q1292 902 1292 904Q1108 1024 744 1024H732Q716 1024 700 1028Q685 1024 668 1024ZM80 808V176Q80 91 176 56Q387 -24 632 -24H668Q685 -24 700 -28Q716 -24 732 -24H768Q1056 -24 1264 76Q1320 105 1320 176V808Q1100 700 708 700H692Q300 700 80 808Z" fill="param(fill) #111111" fill-opacity="param(fill-opacity) 1" stroke="param(outline) none" stroke-opacity="param(outline-opacity) 1" stroke-width="param(outline-width) 0" stroke-linejoin="round"/>
  </g>
</svg>
