<svg xmlns="http://www.w3.org/2000/svg" width="100%" height="100%" viewBox="0 0 1624.00 1624.00">
  <g transform="translate(112.00,1312.00) scale(1,-1)">
    <path d="M648 1168H724Q732 1168 852 784Q864 752 876 708H1364Q1389 683 1400 632Q1026 362 996 344L1148 -128L1080 -168H1072Q708 100 684 112Q638 82 304 -164Q229 -127 224 -116Q372 328 372 344Q31 585 0 616V620Q25 683 44 708H488Q496 708 628 1128Q640 1168 648 1168ZM544 624H116Q139 605 464 396V392L336 -40Q355 -29 688 216L1040 -40V-36L908 376Q1256 621 1256 624H824Q816 624 688 1064Q679 1064 572 688Q553 626 544 624Z" fill="param(fill) #111111" fill-opacity="param(fill-opacity) 1" stroke="param(outline) none" stroke-opacity="param(outline-opacity) 1" stroke-width="param(outline-width) 0" stroke-linejoin="round"/>
  </g>
</svg>
