<svg xmlns="http://www.w3.org/2000/svg" width="100%" height="100%" viewBox="0 0 1624.00 1624.00">
  <g transform="translate(112.00,1312.00) scale(1,-1)">
    <path d="M236 756H272Q424 756 504 580Q516 533 516 496Q516 382 412 292H712Q720 291 720 284V252Q720 244 712 244H236Q103 244 16 404Q0 450 0 484V516Q0 676 196 752ZM876 756H908Q1057 756 1136 584Q1148 550 1152 504Q1152 387 1048 292H1392Q1400 291 1400 284V252Q1400 244 1392 244H876Q722 244 644 424Q632 471 632 504Q632 664 808 744Q840 756 876 756ZM48 504V496Q48 354 208 296Q235 292 252 292H264Q404 292 460 448Q468 490 468 500Q468 643 308 704Q281 708 264 708H252Q105 708 52 544Q48 523 48 504ZM684 516V484Q684 362 832 300Q860 292 880 292H904Q1024 292 1088 428Q1100 454 1100 492V508Q1100 644 948 700Q932 708 904 708H880Q759 708 692 568Q684 532 684 516Z" fill="param(fill) #111111" fill-opacity="param(fill-opacity) 1" stroke="param(outline) none" stroke-opacity="param(outline-opacity) 1" stroke-width="param(outline-width) 0" stroke-linejoin="round"/>
  </g>
</svg>
