<svg xmlns="http://www.w3.org/2000/svg" width="100%" height="100%" viewBox="0 0 1624.00 1624.00">
  <g transform="translate(112.00,1312.00) scale(1,-1)">
    <path d="M700 1200Q908 996 1136 764V-192Q1136 -200 1128 -200H1048Q1040 -200 1040 -192V712Q766 1006 696 1072Q417 857 360 820V592H640Q648 591 648 584V504Q648 496 640 496H360V100H640Q648 99 648 92V12Q648 4 640 4H360V-192Q360 -200 352 -200H272Q264 -200 264 -192V872Q265 877 700 1200Z" fill="param(fill) #111111" fill-opacity="param(fill-opacity) 1" stroke="param(outline) none" stroke-opacity="param(outline-opacity) 1" stroke-width="param(outline-width) 0" stroke-linejoin="round"/>
  </g>
</svg>
