<svg xmlns="http://www.w3.org/2000/svg" width="100%" height="100%" viewBox="0 0 1624.00 1624.00">
  <g transform="translate(112.00,1312.00) scale(1,-1)">
    <path d="M648 1200H752Q760 1199 760 1192V804Q760 796 752 796H648Q640 796 640 804V1192Q641 1200 648 1200ZM8 560H396Q404 559 404 552V448Q404 440 396 440H8Q0 440 0 448V552Q1 560 8 560ZM1004 560H1392Q1400 559 1400 552V448Q1400 440 1392 440H1004Q996 440 996 448V552Q997 560 1004 560ZM648 204H752Q760 203 760 196V-192Q760 -200 752 -200H648Q640 -200 640 -192V196Q641 204 648 204Z" fill="param(fill) #111111" fill-opacity="param(fill-opacity) 1" stroke="param(outline) none" stroke-opacity="param(outline-opacity) 1" stroke-width="param(outline-width) 0" stroke-linejoin="round"/>
  </g>
</svg>
