<svg xmlns="http://www.w3.org/2000/svg" width="100%" height="100%" viewBox="0 0 1624.00 1624.00">
  <g transform="translate(112.00,1312.00) scale(1,-1)">
    <path d="M680 1174H732Q908 1128 908 970Q908 838 756 778Q719 773 708 770Q572 770 512 914Q504 942 504 962V986Q504 1107 652 1170ZM104 926 704 330Q956 587 1300 926H1304Q1310 926 1400 830L804 230L1100 -70Q1097 -79 996 -174L696 122L408 -162H404Q398 -162 308 -66L596 226Q339 478 0 822Q3 831 104 926Z" fill="param(fill) #111111" fill-opacity="param(fill-opacity) 1" stroke="param(outline) none" stroke-opacity="param(outline-opacity) 1" stroke-width="param(outline-width) 0" stroke-linejoin="round"/>
  </g>
</svg>
