<svg xmlns="http://www.w3.org/2000/svg" width="100%" height="100%" viewBox="0 0 1624.00 1624.00">
  <g transform="translate(112.00,1312.00) scale(1,-1)">
    <path d="M1012 964H1052Q1128 964 1224 808Q1285 695 1344 420Q1376 265 1400 40L1392 36H1304Q1293 36 1276 260Q1189 836 1020 836Q813 836 704 92Q698 36 688 36H596Q585 36 492 264Q303 692 292 704Q104 75 84 36H8L0 40L276 952H284L616 172H620Q767 964 1012 964Z" fill="param(fill) #111111" fill-opacity="param(fill-opacity) 1" stroke="param(outline) none" stroke-opacity="param(outline-opacity) 1" stroke-width="param(outline-width) 0" stroke-linejoin="round"/>
  </g>
</svg>
