<svg xmlns="http://www.w3.org/2000/svg" width="100%" height="100%" viewBox="0 0 1619.36 1619.36">
  <g transform="translate(109.68,1309.68) scale(1,-1)">
    <path d="M686 1198H714Q939 1198 1074 974Q1122 885 1122 790V758Q1122 641 970 366L706 -198H694L298 642Q278 706 278 758V790Q278 1025 518 1158Q598 1198 686 1198ZM518 814Q518 688 650 638Q691 633 698 630Q882 658 882 814V822Q882 951 730 994Q718 994 702 998Q563 998 518 842Z" fill="param(fill) #111111" fill-opacity="param(fill-opacity) 1" stroke="param(outline) none" stroke-opacity="param(outline-opacity) 1" stroke-width="param(outline-width) 0" stroke-linejoin="round"/>
  </g>
</svg>
