<svg xmlns="http://www.w3.org/2000/svg" width="100%" height="100%" viewBox="0 0 1624.00 1624.00">
  <g transform="translate(112.00,1312.00) scale(1,-1)">
    <path d="M694 1200H722Q994 1200 1142 788L1146 740V700Q1146 603 978 456Q866 388 766 388Q766 384 762 384Q777 265 786 -76Q794 -144 806 -180Q778 -200 754 -200H686Q654 -200 654 -176Q622 0 622 224V380Q542 388 502 420Q254 628 254 792V804Q254 934 370 1072Q541 1200 694 1200ZM394 828V812Q460 607 562 548Q599 532 614 532V660Q614 736 678 736H690Q754 736 754 656V524H758Q911 524 970 680Q982 730 982 768V776Q982 929 818 1036Q762 1068 686 1068Q634 1068 538 1020Q485 1020 414 916Q394 856 394 828Z" fill="param(fill) #111111" fill-opacity="param(fill-opacity) 1" stroke="param(outline) none" stroke-opacity="param(outline-opacity) 1" stroke-width="param(outline-width) 0" stroke-linejoin="round"/>
  </g>
</svg>
