<svg xmlns="http://www.w3.org/2000/svg" width="100%" height="100%" viewBox="0 0 1619.36 1619.36">
  <g transform="translate(109.68,1309.68) scale(1,-1)">
    <path d="M686 1198H714Q939 1198 1074 974Q1122 885 1122 790V758Q1122 648 978 378Q720 -163 706 -198H694L298 642Q278 706 278 758V790Q278 1025 518 1158Q598 1198 686 1198ZM378 770Q378 582 570 482Q633 454 706 454Q894 454 994 646Q1022 701 1022 782Q1022 994 794 1086Q744 1098 706 1098H694Q486 1098 394 878Q378 836 378 770Z" fill="param(fill) #111111" fill-opacity="param(fill-opacity) 1" stroke="param(outline) none" stroke-opacity="param(outline-opacity) 1" stroke-width="param(outline-width) 0" stroke-linejoin="round"/>
  </g>
</svg>
