<svg xmlns="http://www.w3.org/2000/svg" width="100%" height="100%" viewBox="0 0 1624.00 1624.00">
  <g transform="translate(112.00,1312.00) scale(1,-1)">
    <path d="M682 1200H718Q967 1200 1106 940Q1138 845 1138 784V740Q1138 629 906 252Q796 70 730 -120Q718 -200 706 -200H694Q683 -189 650 -60Q560 156 338 520Q262 676 262 740V784Q262 1007 486 1148Q582 1200 682 1200ZM290 756Q290 648 550 216Q698 -60 698 -120H702Q702 -28 1054 576Q1110 704 1110 760Q1110 997 886 1128Q800 1172 698 1172Q426 1172 310 888Q290 802 290 756ZM702 956Q806 956 846 836Q850 814 850 804Q850 679 698 656Q573 656 550 808Q575 952 690 952Q690 956 702 956Z" fill="param(fill) #111111" fill-opacity="param(fill-opacity) 1" stroke="param(outline) none" stroke-opacity="param(outline-opacity) 1" stroke-width="param(outline-width) 0" stroke-linejoin="round"/>
  </g>
</svg>
