<svg xmlns="http://www.w3.org/2000/svg" width="100%" height="100%" viewBox="0 0 1619.36 1619.36">
  <g transform="translate(109.68,1309.68) scale(1,-1)">
    <path d="M674 1198H726Q931 1198 1102 1006Q1214 856 1214 710V662Q1214 497 1066 302Q901 65 702 -198H698Q218 439 218 506Q186 579 186 662V710Q186 915 378 1086Q527 1198 674 1198ZM306 678Q306 472 502 342Q596 290 694 290H706Q963 290 1078 566Q1094 651 1094 682Q1094 919 862 1042Q778 1078 698 1078Q453 1078 330 822Q306 738 306 678Z" fill="param(fill) #111111" fill-opacity="param(fill-opacity) 1" stroke="param(outline) none" stroke-opacity="param(outline-opacity) 1" stroke-width="param(outline-width) 0" stroke-linejoin="round"/>
  </g>
</svg>
