<svg xmlns="http://www.w3.org/2000/svg" width="100%" height="100%" viewBox="0 0 1624.00 1624.00">
  <g transform="translate(112.00,1312.00) scale(1,-1)">
    <path d="M706 1200Q826 1170 826 1068V1052Q826 997 750 944V848H986Q994 847 994 840V748Q994 740 986 740H750V-92Q834 -92 1062 -8Q1030 52 1030 64Q1347 92 1374 96L1378 88L1146 -168H1142Q1142 -164 1110 -100Q861 -200 706 -200H646Q500 -200 286 -108L258 -172H254Q232 -154 22 88Q26 88 26 92L370 60Q370 49 338 -12H342Q532 -92 642 -92V740H406Q394 743 394 772V840Q395 848 402 848H642V948Q562 986 562 1052V1080Q562 1156 670 1200ZM638 1080V1072Q638 1016 694 1016Q750 1016 750 1072V1080Q740 1128 702 1128H686Q638 1118 638 1080Z" fill="param(fill) #111111" fill-opacity="param(fill-opacity) 1" stroke="param(outline) none" stroke-opacity="param(outline-opacity) 1" stroke-width="param(outline-width) 0" stroke-linejoin="round"/>
  </g>
</svg>
