<svg xmlns="http://www.w3.org/2000/svg" width="100%" height="100%" viewBox="0 0 1624.00 1624.00">
  <g transform="translate(112.00,1312.00) scale(1,-1)">
    <path d="M632 1200H652V1196Q538 1119 416 1004Q530 891 700 728Q832 855 980 1008Q843 1139 752 1196V1200Q903 1200 1060 1080Q1232 915 1232 720H1224Q1088 896 1032 952L756 672Q1084 344 1084 332V320H1308Q1316 319 1316 312V-192Q1316 -200 1308 -200H92Q84 -200 84 -192V312Q85 320 92 320H312Q312 349 404 428L644 672L364 952Q229 802 172 720H168Q168 931 368 1108Q507 1200 632 1200ZM404 320H992Q785 536 700 616Q564 486 404 320ZM136 268V-152H1264V268ZM360 200H452Q572 200 572 116Q572 38 476 32H396V-76Q396 -84 388 -84H360Q352 -84 352 -76V192Q353 200 360 200ZM620 200H644Q652 199 652 192V-48H780Q788 -49 788 -56V-76Q788 -84 780 -84H620Q612 -84 612 -76V192Q613 200 620 200ZM836 200H928Q1044 200 1044 128V100Q1044 40 952 32H872V-76Q872 -84 864 -84H836Q828 -84 828 -76V192Q829 200 836 200ZM396 164V68H476Q528 68 528 116V120Q528 164 444 164ZM872 164V68H952Q1004 68 1004 112V120Q1004 164 920 164Z" fill="param(fill) #111111" fill-opacity="param(fill-opacity) 1" stroke="param(outline) none" stroke-opacity="param(outline-opacity) 1" stroke-width="param(outline-width) 0" stroke-linejoin="round"/>
  </g>
</svg>
