<svg xmlns="http://www.w3.org/2000/svg" width="100%" height="100%" viewBox="0 0 1624.00 1624.00">
  <g transform="translate(112.00,1312.00) scale(1,-1)">
    <path d="M632 1200H652V1196Q538 1119 416 1004Q530 891 700 728Q832 855 980 1008Q843 1139 752 1196V1200Q903 1200 1060 1080Q1232 915 1232 720H1224Q1088 896 1032 952L756 672Q1084 344 1084 332V320H1308Q1316 319 1316 312V-192Q1316 -200 1308 -200H92Q84 -200 84 -192V312Q85 320 92 320H312Q312 349 404 428L644 672L364 952Q229 802 172 720H168Q168 931 368 1108Q507 1200 632 1200ZM404 320H992Q785 536 700 616Q564 486 404 320ZM136 268V-152H1264V268ZM360 200H440Q552 200 552 136V124Q552 85 520 72V64Q551 64 568 0Q568 -84 440 -84H360Q352 -84 352 -76V192Q353 200 360 200ZM696 200H728Q742 182 848 -80L840 -84H808Q799 -84 772 0H660Q651 -5 624 -84H592Q584 -84 584 -76Q686 190 696 200ZM832 200H1040Q1048 199 1048 192V172Q1048 164 1040 164H956V-76Q956 -84 948 -84H924Q916 -84 916 -76V164H832Q824 164 824 172V192Q825 200 832 200ZM392 164V84H476Q512 84 512 116V128Q512 164 428 164ZM708 156Q708 137 668 36H756Q715 156 708 156ZM392 44V-48H436Q524 -48 524 -4V4Q524 40 476 44Z" fill="param(fill) #111111" fill-opacity="param(fill-opacity) 1" stroke="param(outline) none" stroke-opacity="param(outline-opacity) 1" stroke-width="param(outline-width) 0" stroke-linejoin="round"/>
  </g>
</svg>
