<svg xmlns="http://www.w3.org/2000/svg" width="100%" height="100%" viewBox="0 0 1619.36 1619.36">
  <g transform="translate(109.68,1309.68) scale(1,-1)">
    <path d="M518 1092 590 992Q472 939 330 820L702 452Q848 593 1046 796Q1035 803 838 1004V1008Q838 1013 922 1092Q1265 760 1270 732Q1398 483 1398 476Q1354 508 1118 720Q981 589 778 376L1170 -20Q1170 -25 1098 -92L698 304Q495 95 306 -88H302Q297 -88 238 -24V-16L626 376Q452 555 254 748Q150 630 106 512H102Q9 568 2 580V584Q178 936 518 1092Z" fill="param(fill) #111111" fill-opacity="param(fill-opacity) 1" stroke="param(outline) none" stroke-opacity="param(outline-opacity) 1" stroke-width="param(outline-width) 0" stroke-linejoin="round"/>
  </g>
</svg>
