<svg xmlns="http://www.w3.org/2000/svg" width="100%" height="100%" viewBox="0 0 1624.00 1624.00">
  <g transform="translate(112.00,1312.00) scale(1,-1)">
    <path d="M632 1200H652V1196Q538 1119 416 1004Q530 891 700 728Q832 855 980 1008Q843 1139 752 1196V1200Q903 1200 1060 1080Q1232 915 1232 720H1224Q1088 896 1032 952L756 672Q1084 344 1084 332V320H1308Q1316 319 1316 312V-192Q1316 -200 1308 -200H92Q84 -200 84 -192V312Q85 320 92 320H312Q312 349 404 428L644 672L364 952Q229 802 172 720H168Q168 931 368 1108Q507 1200 632 1200ZM404 320H992Q785 536 700 616Q564 486 404 320ZM136 268V-152H1264V268ZM344 200H436Q552 200 552 120V112Q552 44 468 32H376V-76Q376 -84 368 -84H344Q336 -84 336 -76V192Q337 200 344 200ZM580 200H792Q800 199 800 192V172Q800 164 792 164H708V-76Q708 -84 700 -84H672Q664 -84 664 -76V164H580Q572 164 572 172V192Q573 200 580 200ZM840 200H864Q872 199 872 192V64L1012 200H1056V196Q1055 192 944 84L1064 -80L1056 -84H1020Q1015 -84 912 56L872 12V-76Q872 -84 864 -84H840Q832 -84 832 -76V192Q833 200 840 200ZM376 164V68H460Q508 68 508 108V124Q508 164 436 164Z" fill="param(fill) #111111" fill-opacity="param(fill-opacity) 1" stroke="param(outline) none" stroke-opacity="param(outline-opacity) 1" stroke-width="param(outline-width) 0" stroke-linejoin="round"/>
  </g>
</svg>
