<svg xmlns="http://www.w3.org/2000/svg" width="100%" height="100%" viewBox="0 0 1624.00 1624.00">
  <g transform="translate(112.00,1312.00) scale(1,-1)">
    <path d="M632 1200H652V1196Q538 1119 416 1004Q530 891 700 728Q832 855 980 1008Q843 1139 752 1196V1200Q903 1200 1060 1080Q1232 915 1232 720H1224Q1088 896 1032 952L756 672Q1084 344 1084 332V320H1308Q1316 319 1316 312V-192Q1316 -200 1308 -200H92Q84 -200 84 -192V312Q85 320 92 320H312Q312 349 404 428L644 672L364 952Q229 802 172 720H168Q168 931 368 1108Q507 1200 632 1200ZM404 320H992Q785 536 700 616Q564 486 404 320ZM136 268V-152H1264V268ZM416 204Q516 189 516 128V124Q516 116 508 116H476Q476 168 412 168Q367 168 352 140V116Q358 98 484 64Q524 33 524 8V-12Q524 -75 416 -88Q300 -75 300 8L308 12H332L360 -36Q404 -52 420 -52Q484 -45 484 -8V8Q484 27 348 64Q312 91 312 116V136Q312 194 416 204ZM580 200H768Q776 199 776 192V172Q776 164 768 164H612V80H760Q768 79 768 72V52Q768 44 760 44H612V-48H776Q784 -49 784 -56V-76Q784 -84 776 -84H580Q572 -84 572 -76V192Q573 200 580 200ZM840 200H884Q893 200 964 -32H968Q1044 200 1052 200H1092Q1100 199 1100 192V-76Q1100 -84 1092 -84H1068Q1060 -84 1060 -76V132H1056Q998 -53 976 -84H952Q943 -84 876 128Q872 135 872 144H868V-76Q868 -84 860 -84H840Q832 -84 832 -76V192Q833 200 840 200Z" fill="param(fill) #111111" fill-opacity="param(fill-opacity) 1" stroke="param(outline) none" stroke-opacity="param(outline-opacity) 1" stroke-width="param(outline-width) 0" stroke-linejoin="round"/>
  </g>
</svg>
