<svg xmlns="http://www.w3.org/2000/svg" width="100%" height="100%" viewBox="0 0 1624.00 1624.00">
  <g transform="translate(112.00,1312.00) scale(1,-1)">
    <path d="M748 1200H756Q807 1200 816 1136Q800 1076 756 1076H748Q701 1076 688 1140Q700 1200 748 1200ZM592 1196Q652 1183 652 1124Q652 1080 584 1068Q528 1082 528 1128V1140Q528 1183 592 1196ZM908 1168H916Q963 1168 972 1100Q956 1044 916 1044H908Q848 1053 848 1096V1116Q848 1160 908 1168ZM432 1148H444Q497 1148 504 1080Q504 1035 440 1024H436Q380 1038 380 1084V1096Q393 1148 432 1148ZM1044 1104Q1104 1095 1104 1052V1032Q1104 988 1044 980H1036Q989 980 980 1048Q980 1093 1044 1104ZM284 1052H296Q336 1052 352 992Q339 928 292 928H288Q233 928 224 996Q238 1052 284 1052ZM744 1052Q787 1052 804 988Q789 924 740 924Q688 924 676 992Q690 1052 744 1052ZM608 1044Q650 1044 668 980Q652 916 604 916Q551 916 540 984Q540 1034 608 1044ZM896 1012Q960 1000 960 952Q947 888 904 888H888Q843 888 832 952Q832 1000 896 1012ZM476 996Q532 982 532 936V924Q519 872 480 872H460Q418 872 408 940Q408 986 476 996ZM1196 976Q1252 962 1252 916V904Q1252 864 1192 848Q1128 861 1128 908V912Q1128 967 1196 976ZM1044 912Q1108 899 1108 844Q1093 784 1048 784Q980 796 980 848Q999 912 1044 912ZM352 908H364Q416 895 416 856V836Q416 801 360 784H356Q298 784 292 852Q306 908 352 908ZM148 904H168Q220 891 220 852V836Q220 789 152 780Q107 780 96 844Q105 904 148 904ZM732 896Q788 878 788 844V824Q788 781 724 768Q675 768 664 840Q664 884 732 896ZM560 868H568Q628 859 628 816V796Q628 754 568 744H560Q513 744 504 812Q520 868 560 868ZM880 836H892Q952 830 952 776V768Q952 721 884 712Q828 728 828 768V776Q838 836 880 836ZM1284 820H1296Q1348 807 1348 768V756Q1348 703 1280 696Q1235 696 1224 760V764Q1238 820 1284 820ZM1120 792H1140Q1192 779 1192 740V728Q1192 675 1124 668Q1081 668 1068 732V736Q1082 792 1120 792ZM100 772Q156 756 156 716V708Q147 648 104 648H84Q40 648 32 708V716Q32 763 100 772ZM248 760H252Q310 760 316 692Q300 636 260 636H252Q192 645 192 688V700Q202 760 248 760ZM420 752H424Q482 752 488 684Q472 628 432 628H416Q376 628 360 688Q375 752 420 752ZM700 700Q844 700 900 540Q904 519 904 500V484Q904 357 752 296Q711 288 696 288Q565 288 504 436Q496 452 496 480V508Q496 637 656 696Q683 700 700 700ZM1012 696Q1068 680 1068 640V624Q1068 584 1008 568Q944 582 944 628V632Q944 689 1012 696ZM1328 672H1340Q1383 672 1396 608Q1383 548 1324 548Q1280 548 1268 616Q1282 672 1328 672ZM1168 660H1188Q1232 660 1240 600V592Q1240 545 1172 536Q1116 552 1116 592V604Q1129 660 1168 660ZM548 512V488Q548 384 668 344Q691 344 696 340Q815 340 852 472V496Q852 599 744 640Q738 644 700 648Q599 648 556 544Q548 529 548 512ZM64 616Q124 600 124 556V548Q124 501 60 488Q0 500 0 548V556Q0 607 64 616ZM208 604H220Q276 588 276 548V540Q269 480 216 480H212Q152 487 152 540V544Q152 590 208 604ZM356 588H376Q428 573 428 536V524Q428 478 372 464H360Q315 464 304 528V532Q321 588 356 588ZM692 576H712Q764 576 784 496Q769 412 704 412H696Q629 412 616 496Q633 576 692 576ZM1036 536Q1084 536 1096 472Q1086 408 1032 408Q972 424 972 464V476Q972 527 1036 536ZM1176 524H1188Q1248 514 1248 472V460Q1248 414 1192 400H1180Q1124 416 1124 456V468Q1141 524 1176 524ZM1340 512Q1400 500 1400 452V444Q1400 393 1336 384Q1276 400 1276 444V452Q1276 499 1340 512ZM228 468Q284 452 284 412V404Q278 344 224 344H220Q160 351 160 404V412Q160 459 228 468ZM76 452Q120 452 132 384Q118 328 72 328H60Q17 328 4 392Q17 452 76 452ZM392 428H400Q447 428 456 360Q440 304 400 304H392Q332 313 332 356V376Q332 420 392 428ZM976 372H980Q1025 372 1040 308Q1024 248 984 248H968Q921 248 912 316Q912 361 976 372ZM1140 368H1156Q1208 355 1208 316V296Q1208 257 1152 244H1148Q1090 244 1084 312Q1100 368 1140 368ZM1296 352H1316Q1360 352 1368 292V284Q1368 237 1300 228Q1244 244 1244 284V292Q1253 352 1296 352ZM276 336Q332 320 332 280V268Q318 212 280 212H260Q208 225 208 264V276Q208 329 276 336ZM120 304Q165 304 176 240V236Q162 180 116 180H104Q52 193 52 232V244Q52 297 120 304ZM512 288Q572 273 572 232V216Q572 172 508 160Q458 160 448 224Q457 288 512 288ZM836 256Q884 256 896 192V188Q881 128 836 128Q772 141 772 184V196Q772 247 836 256ZM672 228H680Q727 228 736 160Q720 104 680 104H664Q612 118 612 156V176Q612 219 672 228ZM352 220Q405 220 420 160Q406 92 356 92Q304 92 292 160Q307 220 352 220ZM1040 220H1044Q1108 212 1108 156V152Q1094 96 1048 96H1044Q984 105 984 148V160Q984 206 1040 220ZM1248 220Q1293 220 1304 156Q1295 96 1252 96H1232Q1188 96 1180 156V164Q1180 211 1248 220ZM208 152Q272 139 272 92V88Q272 33 204 24Q148 38 148 84V96Q148 136 208 152ZM928 136Q992 122 992 76V72Q992 16 924 8Q868 22 868 68V80Q868 120 928 136ZM496 116H516Q558 116 568 48Q568 5 504 -8H500Q455 -8 440 56Q456 116 496 116ZM800 88Q860 72 860 28V20Q860 -27 796 -40Q736 -26 736 16V32Q736 76 800 88ZM660 80Q713 80 724 12Q724 -34 660 -48Q596 -33 596 16Q611 80 660 80ZM1108 72H1112Q1167 72 1176 4Q1162 -52 1116 -52H1104Q1064 -52 1048 8Q1061 72 1108 72ZM348 20H364Q411 20 420 -48Q420 -93 356 -104Q296 -95 296 -52V-32Q309 20 348 20ZM960 -24H964Q1010 -24 1020 -84V-96Q1007 -148 968 -148H956Q903 -148 896 -80Q896 -35 960 -24ZM484 -44H492Q552 -53 552 -96V-116Q552 -160 492 -168H484Q437 -168 428 -100Q444 -44 484 -44ZM816 -68Q872 -82 872 -128V-140Q872 -183 808 -196Q748 -183 748 -124Q748 -80 816 -68ZM644 -76H652Q699 -76 712 -140Q700 -200 652 -200H644Q593 -200 584 -136Q600 -76 644 -76Z" fill="param(fill) #111111" fill-opacity="param(fill-opacity) 1" stroke="param(outline) none" stroke-opacity="param(outline-opacity) 1" stroke-width="param(outline-width) 0" stroke-linejoin="round"/>
  </g>
</svg>
