<svg xmlns="http://www.w3.org/2000/svg" width="100%" height="100%" viewBox="0 0 1624.00 1624.00">
  <g transform="translate(112.00,1312.00) scale(1,-1)">
    <path d="M632 1200H652V1196Q538 1119 416 1004Q530 891 700 728Q832 855 980 1008Q843 1139 752 1196V1200Q903 1200 1060 1080Q1232 915 1232 720H1224Q1088 896 1032 952L756 672Q1084 344 1084 332V320H1308Q1316 319 1316 312V-192Q1316 -200 1308 -200H92Q84 -200 84 -192V312Q85 320 92 320H312Q312 349 404 428L644 672L364 952Q229 802 172 720H168Q168 931 368 1108Q507 1200 632 1200ZM404 320H992Q785 536 700 616Q564 486 404 320ZM136 268V-152H1264V268ZM972 204Q1059 204 1096 100Q1100 72 1100 52Q1100 -37 1020 -76Q993 -88 960 -88Q851 -88 828 52Q828 150 908 192Q934 204 972 204ZM308 200H352Q363 200 432 -28H440Q512 200 524 200H560Q568 199 568 192V-76Q568 -84 560 -84H540Q532 -84 532 -76V140H528Q458 -84 444 -84H424Q412 -84 344 136H340V-76Q340 -84 332 -84H308Q300 -84 300 -76V192Q301 200 308 200ZM632 200H656Q664 199 664 192V-48H792Q800 -49 800 -56V-76Q800 -84 792 -84H632Q624 -84 624 -76V192Q625 200 632 200ZM872 52Q872 -30 948 -52H960Q1056 -52 1056 48V76Q1056 161 956 168Q884 168 872 64Z" fill="param(fill) #111111" fill-opacity="param(fill-opacity) 1" stroke="param(outline) none" stroke-opacity="param(outline-opacity) 1" stroke-width="param(outline-width) 0" stroke-linejoin="round"/>
  </g>
</svg>
