<svg xmlns="http://www.w3.org/2000/svg" width="100%" height="100%" viewBox="0 0 1624.00 1624.00">
  <g transform="translate(112.00,1312.00) scale(1,-1)">
    <path d="M632 1200H652V1196Q538 1119 416 1004Q530 891 700 728Q832 855 980 1008Q843 1139 752 1196V1200Q903 1200 1060 1080Q1232 915 1232 720H1224Q1088 896 1032 952L756 672Q1084 344 1084 332V320H1308Q1316 319 1316 312V-192Q1316 -200 1308 -200H92Q84 -200 84 -192V312Q85 320 92 320H312Q312 349 404 428L644 672L364 952Q229 802 172 720H168Q168 931 368 1108Q507 1200 632 1200ZM404 320H992Q785 536 700 616Q564 486 404 320ZM136 268V-152H1264V268ZM340 200H384Q396 200 468 -32H472Q545 200 556 200H596Q604 199 604 192V-76Q604 -84 596 -84H572Q564 -84 564 -76V136H560Q495 -68 480 -84H456Q445 -84 376 140H372V-76Q372 -84 364 -84H340Q332 -84 332 -76V192Q333 200 340 200ZM664 200H692Q697 199 840 -8V192Q841 200 848 200H872Q880 199 880 192V-76Q880 -84 872 -84H844L696 128V-76Q696 -84 688 -84H664Q656 -84 656 -76V192Q657 200 664 200ZM944 200H972Q980 199 980 192V-48H1108Q1116 -49 1116 -56V-76Q1116 -84 1108 -84H944Q936 -84 936 -76V192Q937 200 944 200Z" fill="param(fill) #111111" fill-opacity="param(fill-opacity) 1" stroke="param(outline) none" stroke-opacity="param(outline-opacity) 1" stroke-width="param(outline-width) 0" stroke-linejoin="round"/>
  </g>
</svg>
