<svg xmlns="http://www.w3.org/2000/svg" width="100%" height="100%" viewBox="0 0 1624.00 1624.00">
  <g transform="translate(112.00,1312.00) scale(1,-1)">
    <path d="M832 1200H1064Q1208 1181 1208 1068V1060Q1208 984 1132 948V944Q1232 905 1232 832V804Q1232 712 1132 672Q1092 660 1040 660H832Q784 670 784 708V1152Q794 1200 832 1200ZM676 1124 680 1116V620Q704 596 872 484Q1068 348 1068 344V340H928V-192Q928 -200 920 -200H316Q308 -200 308 -192V340H168V344Q293 437 560 616V948L216 912V920Q222 920 676 1124ZM896 1116V980H956Q1088 980 1088 1020Q1096 1020 1096 1040V1064Q1096 1116 980 1116ZM896 900V744H1012Q1120 744 1120 828V832Q1120 896 1012 896Q1012 900 948 900Z" fill="param(fill) #111111" fill-opacity="param(fill-opacity) 1" stroke="param(outline) none" stroke-opacity="param(outline-opacity) 1" stroke-width="param(outline-width) 0" stroke-linejoin="round"/>
  </g>
</svg>
