<svg xmlns="http://www.w3.org/2000/svg" width="100%" height="100%" viewBox="0 0 1624.00 1624.00">
  <g transform="translate(112.00,1312.00) scale(1,-1)">
    <path d="M1006 1200H1046Q1182 1200 1242 1068Q1246 1061 1246 1048V1040Q1246 1013 1214 996H1194Q1165 996 1130 1064Q1095 1112 1038 1112H1010Q890 1086 890 944V916Q890 812 950 768Q982 748 1006 748H1046Q1123 748 1162 864Q1180 880 1182 880H1206Q1246 872 1246 840V820Q1246 744 1130 676Q1087 660 1050 660H1022Q838 660 786 848Q778 888 778 928V936Q778 1131 958 1192Q986 1200 1006 1200ZM662 1124 666 1116V620Q718 576 1058 348V340H914V-192Q914 -200 906 -200H302Q294 -200 294 -192V340H154V344L546 620V948L202 912V920Q208 920 662 1124Z" fill="param(fill) #111111" fill-opacity="param(fill-opacity) 1" stroke="param(outline) none" stroke-opacity="param(outline-opacity) 1" stroke-width="param(outline-width) 0" stroke-linejoin="round"/>
  </g>
</svg>
