<svg xmlns="http://www.w3.org/2000/svg" width="100%" height="100%" viewBox="0 0 1624.00 1624.00">
  <g transform="translate(112.00,1312.00) scale(1,-1)">
    <path d="M650 1200H750Q758 1199 758 1192V704H938Q946 703 946 696V280H1102Q1110 279 1110 272V116H1338Q1346 115 1346 108V-192Q1346 -200 1338 -200H62Q54 -200 54 -192V108Q55 116 62 116H290V272Q291 280 298 280H454V696Q455 704 462 704H642V1192Q643 1200 650 1200Z" fill="param(fill) #111111" fill-opacity="param(fill-opacity) 1" stroke="param(outline) none" stroke-opacity="param(outline-opacity) 1" stroke-width="param(outline-width) 0" stroke-linejoin="round"/>
  </g>
</svg>
