<svg xmlns="http://www.w3.org/2000/svg" width="100%" height="100%" viewBox="0 0 1624.00 1624.00">
  <g transform="translate(112.00,1312.00) scale(1,-1)">
    <path d="M664 1120H704Q771 1120 824 1072H820Q777 1084 748 1084Q611 1084 556 912Q556 890 552 868Q552 721 692 660Q720 652 740 652H764Q780 652 832 664Q789 629 756 624V440H760Q995 440 1204 244Q1316 122 1316 36H1392Q1400 35 1400 28V-112Q1400 -120 1392 -120H8Q0 -120 0 -112V28Q1 36 8 36H84Q84 183 344 360Q507 440 644 440V616Q546 616 456 748Q428 798 428 864V880Q428 1027 596 1108Q633 1120 664 1120ZM792 1024H796L832 900H968V896Q958 880 860 816L904 688L896 684Q863 713 788 764Q787 759 688 688H680V692L720 816Q613 890 612 896V900H748Q783 1024 792 1024Z" fill="param(fill) #111111" fill-opacity="param(fill-opacity) 1" stroke="param(outline) none" stroke-opacity="param(outline-opacity) 1" stroke-width="param(outline-width) 0" stroke-linejoin="round"/>
  </g>
</svg>
