<svg xmlns="http://www.w3.org/2000/svg" width="100%" height="100%" viewBox="0 0 1624.00 1624.00">
  <g transform="translate(112.00,1312.00) scale(1,-1)">
    <path d="M642 1200H666Q713 1200 750 1020Q762 1001 806 828H810Q890 1126 914 1176Q943 1200 958 1200H986Q1055 1200 1090 1004Q1140 837 1146 832Q1235 1154 1254 1184L1278 1200H1310Q1343 1200 1358 1152V1144Q1358 1110 1214 700Q1183 660 1158 660H1126Q1065 660 1026 856Q1014 878 978 1016H974Q883 668 850 668Q850 660 822 660H802Q735 660 694 832Q594 1115 594 1136V1152Q594 1185 642 1200ZM550 1124 554 1116V620L942 344V340H802V-192Q802 -200 794 -200H190Q182 -200 182 -192V340H42V344Q219 473 434 616V948L90 912V920Q96 920 550 1124Z" fill="param(fill) #111111" fill-opacity="param(fill-opacity) 1" stroke="param(outline) none" stroke-opacity="param(outline-opacity) 1" stroke-width="param(outline-width) 0" stroke-linejoin="round"/>
  </g>
</svg>
