<svg xmlns="http://www.w3.org/2000/svg" width="100%" height="100%" viewBox="0 0 1624.00 1624.00">
  <g transform="translate(112.00,1312.00) scale(1,-1)">
    <path d="M1006 1200H1062Q1179 1200 1242 1084V1056Q1242 1020 1186 1012Q1164 1012 1114 1084Q1075 1116 1038 1116H1026Q914 1116 878 1004Q870 956 870 928Q870 773 994 748Q1009 744 1030 744Q1101 744 1158 784V860H1114Q1018 860 1018 900V904Q1026 944 1058 944H1202Q1258 939 1258 896V764Q1258 700 1082 664Q1081 660 1042 660H1006Q847 660 778 820Q758 870 758 936Q758 1119 922 1184Q965 1200 1006 1200ZM654 1124 658 1116V620L1042 336V332H902V-192Q902 -200 894 -200H290Q282 -200 282 -192V332H142V336L526 620V948L190 912V920Q194 920 654 1124Z" fill="param(fill) #111111" fill-opacity="param(fill-opacity) 1" stroke="param(outline) none" stroke-opacity="param(outline-opacity) 1" stroke-width="param(outline-width) 0" stroke-linejoin="round"/>
  </g>
</svg>
