<svg xmlns="http://www.w3.org/2000/svg" width="100%" height="100%" viewBox="0 0 1624.00 1624.00">
  <g transform="translate(112.00,1312.00) scale(1,-1)">
    <path d="M620 1200V1196Q620 1187 540 940H760L768 936L580 596H952Q960 595 960 588V-192Q960 -200 952 -200H172Q164 -200 164 -192V588Q165 596 172 596H512Q519 596 608 836H396Q396 845 580 1200ZM912 1188H916Q960 1188 960 1120V912Q960 808 1052 808Q1144 808 1144 908V1100Q1144 1188 1188 1188H1196Q1220 1188 1236 1156V896Q1222 736 1076 736H1036Q928 736 884 820Q868 867 868 904V1144Q875 1188 912 1188Z" fill="param(fill) #111111" fill-opacity="param(fill-opacity) 1" stroke="param(outline) none" stroke-opacity="param(outline-opacity) 1" stroke-width="param(outline-width) 0" stroke-linejoin="round"/>
  </g>
</svg>
