<svg xmlns="http://www.w3.org/2000/svg" width="100%" height="100%" viewBox="0 0 1610.08 1610.08">
  <g transform="translate(105.04,1305.04) scale(1,-1)">
    <path d="M786 1194H794V994H798Q818 994 862 1178L870 1182H890V1170Q862 1028 862 1014Q866 999 866 978H870L954 1154H962V1150L938 978V974H942Q1017 1097 1034 1110H1046Q1054 1109 1054 1102Q928 835 846 726L818 722Q782 722 742 754V874Q742 985 786 1194ZM530 1170H538Q591 975 622 946H626V1158H634V1154Q678 866 678 802V754Q524 654 498 654H494Q469 654 202 862L154 914V918H170L282 870H290Q194 991 194 998Q198 1010 202 1010L346 894H362V898L270 1058L278 1062H294L410 950V958Q362 1062 362 1074V1106H366L458 998V1006Q434 1137 434 1154H438Q461 1154 530 990H554Q530 1081 530 1118ZM466 966Q466 942 490 942Q498 952 498 954V966L494 986H478Q471 986 466 966ZM1238 938H1246V918L1158 806H1162Q1287 862 1310 866Q1255 804 1158 738L1154 730H1166L1330 778H1334Q1342 777 1342 770V750Q1342 739 934 586H930Q906 639 906 658Q906 693 1030 778Q1163 887 1238 938ZM306 866 302 846 306 826H330L334 846L330 866ZM58 778Q256 714 466 606L478 558L470 554Q399 554 66 658Q38 674 38 678V682H42Q57 682 230 658H234V662Q54 746 54 754V770ZM1382 610 1386 602V590Q1386 581 1114 538V534Q1200 514 1214 514Q1229 514 1382 510L1386 502V486Q1386 478 1378 478H1142V474L1374 426V418H1154V414Q1154 394 1378 330V322H1370Q1357 322 1350 318Q1303 318 954 418Q934 439 934 446Q934 558 1018 558Q1018 568 1382 610ZM14 494H434Q440 494 458 470V462Q314 418 210 418H38V426Q220 450 290 450Q290 460 14 486ZM450 402H458Q510 396 510 350Q398 223 282 154Q227 107 154 62L150 70V86L262 202H250L118 154H106V162Q127 189 262 270Q262 278 254 278Q233 278 66 226H58V230Q58 255 306 354Q419 402 450 402ZM898 350H934Q1221 135 1266 90V86Q1266 81 1246 66H1238Q1124 154 1102 154V138L1202 6Q1198 -2 1198 -6H1194L1054 106V90Q1120 -2 1126 -38V-54H1122L1006 58V50L1058 -114V-126H1054L938 30V-2L962 -94V-150H954L870 26H866V18L890 -194H886Q859 -169 786 138Q766 187 766 230V250Q871 350 898 350ZM554 302Q691 264 710 250V66H702L678 82H674L634 -178H626V58H622Q605 58 538 -194H530V-150Q530 -132 554 34Q537 25 458 -134Q440 -150 438 -150H434V-138L482 26V34Q472 30 366 -126H362V-94Q362 -79 410 42V54L294 -58H278L270 -54Q297 19 506 258Q554 298 554 302Z" fill="param(fill) #111111" fill-opacity="param(fill-opacity) 1" stroke="param(outline) none" stroke-opacity="param(outline-opacity) 1" stroke-width="param(outline-width) 0" stroke-linejoin="round"/>
  </g>
</svg>
