<svg xmlns="http://www.w3.org/2000/svg" width="100%" height="100%" viewBox="0 0 1624.00 1624.00">
  <g transform="translate(112.00,1312.00) scale(1,-1)">
    <path d="M1196 1170H1224Q1260 1165 1260 1134V1114Q1260 1084 948 946Q816 874 792 874H772Q753 883 744 902V934Q753 964 1020 1082Q1147 1152 1196 1170ZM444 1134Q496 1134 496 1086Q492 1048 388 930L364 926H348Q329 935 320 954V974Q320 1005 424 1130ZM784 1122Q824 1113 824 1082V1074Q824 1033 692 966Q627 918 584 906Q540 915 540 946V958Q540 999 772 1122ZM1024 830H1320Q1380 830 1380 790V762Q1371 743 1352 734H1000Q977 734 964 762V790Q964 830 1024 830ZM1032 638H1048Q1093 631 1204 470L1396 226L1400 202V186Q1395 150 1364 150H1348Q1269 219 1120 426Q1008 562 1000 590Q1000 622 1032 638ZM228 486H248Q276 474 276 438V430Q220 365 84 286Q79 282 48 266Q0 273 0 306V326Q73 408 180 462Q180 472 228 486ZM940 446H968Q1014 446 1056 298Q1188 -10 1228 -94Q1232 -115 1232 -118Q1225 -162 1192 -162H1176Q1130 -162 1092 -22Q912 375 912 390V418Q921 437 940 446ZM308 418Q360 409 360 370Q250 131 220 86Q202 70 200 70H168Q140 82 140 118Q140 148 272 398Q287 411 308 418ZM584 346Q636 346 636 298Q620 -58 600 -58Q587 -69 568 -74Q527 -74 520 -14Q530 334 556 334Q571 346 584 346ZM768 346Q820 346 852 126Q908 -98 908 -146Q885 -170 880 -170H856Q805 -170 776 50Q720 278 720 306Q720 339 768 346ZM420 326H432Q476 319 476 282Q455 57 448 42Q434 30 404 26Q380 26 360 62V82Q360 279 420 326Z" fill="param(fill) #111111" fill-opacity="param(fill-opacity) 1" stroke="param(outline) none" stroke-opacity="param(outline-opacity) 1" stroke-width="param(outline-width) 0" stroke-linejoin="round"/>
  </g>
</svg>
