<svg xmlns="http://www.w3.org/2000/svg" width="100%" height="100%" viewBox="0 0 1624.00 1624.00">
  <g transform="translate(112.00,1312.00) scale(1,-1)">
    <path d="M420 1106Q804 1069 804 1058Q1028 701 1028 690Q1032 658 1056 198Q1386 46 1400 34V30Q1352 -81 1352 -90H1348Q1296 -74 976 62Q590 -106 572 -106L128 166Q0 461 0 470Q128 826 140 834Q413 1106 420 1106ZM504 962Q268 744 268 738Q176 462 176 454Q270 250 284 250Q300 242 580 54Q867 183 892 198Q756 383 756 390Q676 769 660 802Z" fill="param(fill) #111111" fill-opacity="param(fill-opacity) 1" stroke="param(outline) none" stroke-opacity="param(outline-opacity) 1" stroke-width="param(outline-width) 0" stroke-linejoin="round"/>
  </g>
</svg>
