<svg xmlns="http://www.w3.org/2000/svg" width="100%" height="100%" viewBox="0 0 1624.00 1624.00">
  <g transform="translate(112.00,1312.00) scale(1,-1)">
    <path d="M232 772H260Q390 772 468 636Q496 581 496 528Q496 413 396 324H680Q688 323 688 316V284Q688 276 680 276H256Q82 276 12 444Q0 476 0 512V540Q0 691 176 764Q206 772 232 772ZM836 772H1132Q1212 707 1212 704V380Q1375 311 1400 260Q1385 230 1376 228Q1295 309 1168 356V680Q1162 680 1112 720H876V408Q848 300 792 228Q763 244 756 244V248L808 356Q828 400 828 420V764Q829 772 836 772ZM44 524Q44 409 160 344Q199 324 244 324H248Q393 324 444 484Q448 505 448 524Q448 664 300 720L248 728Q106 728 48 568Q48 551 44 524Z" fill="param(fill) #111111" fill-opacity="param(fill-opacity) 1" stroke="param(outline) none" stroke-opacity="param(outline-opacity) 1" stroke-width="param(outline-width) 0" stroke-linejoin="round"/>
  </g>
</svg>
