<svg xmlns="http://www.w3.org/2000/svg" width="100%" height="100%" viewBox="0 0 1624.00 1624.00">
  <g transform="translate(112.00,1312.00) scale(1,-1)">
    <path d="M584 1126Q616 1078 616 1062L32 730Q0 785 0 790Q574 1126 584 1126ZM820 1126Q1383 805 1400 786Q1369 730 1364 730Q860 1022 784 1062Q784 1084 820 1126ZM680 1066H736Q744 1065 744 1058V-54H1280Q1288 -55 1288 -62V-118Q1288 -126 1280 -126H680Q672 -126 672 -118V1058Q673 1066 680 1066Z" fill="param(fill) #111111" fill-opacity="param(fill-opacity) 1" stroke="param(outline) none" stroke-opacity="param(outline-opacity) 1" stroke-width="param(outline-width) 0" stroke-linejoin="round"/>
  </g>
</svg>
