<svg xmlns="http://www.w3.org/2000/svg" width="100%" height="100%" viewBox="0 0 1624.00 1624.00">
  <g transform="translate(112.00,1312.00) scale(1,-1)">
    <path d="M272 1040H456Q563 1040 696 880Q753 987 888 1032Q904 1040 932 1040H1116Q1121 1040 1136 1020V1000Q1136 964 1080 964H932Q856 964 756 840Q732 799 732 760V300Q732 228 692 228Q656 233 656 264V748Q656 890 464 964H308Q252 964 252 1000V1008Q252 1030 272 1040ZM588 556 592 548V496Q592 487 408 468Q68 372 68 264V252Q68 143 368 64Q525 28 616 28H764Q1033 28 1260 152Q1332 203 1332 252V264Q1332 387 960 472Q792 486 792 496V548Q793 556 800 556Q974 544 1104 508Q1308 444 1372 348Q1399 307 1400 276V244Q1345 6 812 -40H608Q425 -40 172 56Q0 152 0 248V268Q0 419 340 520Q381 537 588 556Z" fill="param(fill) #111111" fill-opacity="param(fill-opacity) 1" stroke="param(outline) none" stroke-opacity="param(outline-opacity) 1" stroke-width="param(outline-width) 0" stroke-linejoin="round"/>
  </g>
</svg>
