<svg xmlns="http://www.w3.org/2000/svg" width="100%" height="100%" viewBox="0 0 1624.00 1624.00">
  <g transform="translate(112.00,1312.00) scale(1,-1)">
    <path d="M782 1200H838L862 1180H890Q923 1180 962 1076V960Q975 941 1034 908Q1106 827 1106 796Q1106 794 1110 744Q1106 702 1106 676Q1193 643 1226 592V540Q1226 534 1206 488V476Q1238 444 1278 324Q1326 245 1326 224V120Q1326 88 1294 88H1178Q1144 88 1038 172Q982 188 958 188H878Q854 188 826 208H794L786 204Q822 -175 822 -192Q809 -200 798 -200H750L742 -196Q754 141 754 188Q677 151 618 108H602L534 172Q517 172 402 72H398Q347 132 322 132H314Q283 132 258 128Q74 145 74 156V168Q133 248 182 248Q310 294 310 416Q314 416 314 452Q294 474 294 476V492Q301 519 458 572V576Q458 597 462 612Q462 668 418 696Q436 721 522 776L602 904Q635 904 662 1024Q727 1091 758 1096V1168Q758 1190 782 1200Z" fill="param(fill) #111111" fill-opacity="param(fill-opacity) 1" stroke="param(outline) none" stroke-opacity="param(outline-opacity) 1" stroke-width="param(outline-width) 0" stroke-linejoin="round"/>
  </g>
</svg>
