<svg xmlns="http://www.w3.org/2000/svg" width="100%" height="100%" viewBox="0 0 1624.00 1624.00">
  <g transform="translate(112.00,1312.00) scale(1,-1)">
    <path d="M648 1200H772Q937 1177 1052 1088Q1199 945 1200 908Q1264 795 1264 652V632Q1264 315 952 128Q919 112 764 64V-192Q764 -200 756 -200H684Q676 -200 676 -192V64Q612 64 460 124Q364 161 256 280Q136 451 136 576V680Q136 780 216 940Q369 1117 464 1156Q589 1200 648 1200ZM572 1164V804Q600 769 672 720H684V1180H680Q638 1180 572 1164ZM720 1152V900L724 880Q777 880 892 1032Q869 1072 848 1156Q815 1172 740 1180Q720 1174 720 1152ZM424 1100V1084Q495 1016 536 1016V1128Q528 1144 516 1144Q431 1100 424 1100ZM888 1132V1128Q899 1064 912 1064Q958 1080 968 1100Q930 1132 908 1132ZM360 1052H396Q396 1058 384 1064H372Q366 1064 360 1052ZM724 828Q735 700 744 700H760Q1016 816 1068 844Q1084 931 1084 964V1016Q1065 1045 1036 1064H996Q955 1064 804 892Q784 872 724 828ZM288 968V940Q288 914 500 588Q624 480 676 468Q684 478 684 480V652Q604 738 544 776Q536 808 536 844V896Q536 924 540 984L388 1020Q288 1020 288 968ZM1100 864Q1168 880 1168 900V904Q1168 927 1132 964H1124Q1106 951 1100 864ZM204 844Q210 844 324 812Q284 887 248 916H244Q237 915 204 844ZM892 728V720Q968 740 1180 764Q1183 772 1220 784Q1208 848 1196 848H1164Q1157 848 892 728ZM192 820 188 812V804Q235 753 400 652H416V656L352 772Q319 784 192 820ZM1144 708V704Q1224 696 1240 696L1232 760Q1150 708 1144 708ZM172 748Q152 676 152 628H156Q272 658 272 696Q196 748 176 748ZM740 628Q740 534 748 484Q1120 728 1124 736H1116L848 692Q800 692 740 632ZM748 448Q748 336 772 336Q1207 589 1232 616Q1236 623 1236 632V644Q1177 684 1112 684Q754 458 748 448ZM172 568Q293 426 372 388Q624 248 660 236H676V392Q654 443 552 508Q352 648 328 648H316Q269 648 172 584ZM1056 468Q1056 462 1156 368H1164Q1219 449 1236 548V564H1228Q1219 564 1056 468ZM204 432V428Q215 379 272 316Q288 300 296 300Q388 313 388 324Q366 369 212 432ZM752 236Q752 152 776 100Q836 100 1028 208Q1136 309 1136 320V328Q1045 432 1008 432Q988 432 756 288Q756 262 752 236ZM320 256Q366 203 436 168Q557 100 624 100H676Q676 208 632 208Q483 300 448 300Q320 283 320 256Z" fill="param(fill) #111111" fill-opacity="param(fill-opacity) 1" stroke="param(outline) none" stroke-opacity="param(outline-opacity) 1" stroke-width="param(outline-width) 0" stroke-linejoin="round"/>
  </g>
</svg>
