<svg xmlns="http://www.w3.org/2000/svg" width="100%" height="100%" viewBox="0 0 1614.72 1614.72">
  <g transform="translate(107.36,1307.36) scale(1,-1)">
    <path d="M696 1146H704Q704 1013 728 370H732Q799 644 864 758Q983 984 1192 1062V1058Q953 884 868 602Q824 482 784 226V218H788Q871 406 1012 566Q1128 712 1364 774L1396 782V774Q1319 751 1188 662Q952 484 812 62Q1001 302 1208 302H1216Q1279 302 1396 266V258L1316 266Q1075 266 920 90Q844 10 788 -74Q852 -74 852 -106Q834 -146 732 -146H668Q548 -146 548 -98Q570 -74 612 -74Q460 164 256 242Q178 266 84 266L4 258V266Q121 302 184 302H192Q399 302 588 62V66Q588 96 456 374Q382 505 260 622Q154 711 16 774H4V782Q210 739 340 618Q526 422 612 218H616V222Q584 435 540 586Q445 888 208 1058V1062H212Q424 979 544 742Q602 638 668 370H672Q696 1013 696 1146Z" fill="param(fill) #111111" fill-opacity="param(fill-opacity) 1" stroke="param(outline) none" stroke-opacity="param(outline-opacity) 1" stroke-width="param(outline-width) 0" stroke-linejoin="round"/>
  </g>
</svg>
