<svg xmlns="http://www.w3.org/2000/svg" width="100%" height="100%" viewBox="0 0 1624.00 1624.00">
  <g transform="translate(112.00,1312.00) scale(1,-1)">
    <path d="M686 1200Q700 1200 706 1156V1052Q740 1052 750 976V952L706 916Q722 908 730 908Q754 918 754 932H762V888Q762 866 822 784V776Q773 728 722 704V700H830L838 696Q838 659 738 652Q738 648 718 640Q726 612 730 612L818 640L822 632V628Q815 619 718 564V540Q718 529 758 524H798Q815 524 894 580H898V568Q861 523 810 492H806Q785 492 722 500V492L718 468Q722 452 734 452Q751 452 890 464V460L854 420H886Q936 436 942 436Q966 418 966 400Q886 371 750 296Q734 288 722 288V284Q722 271 782 260H794Q951 364 966 364L970 356Q965 356 902 288H906Q920 288 994 304L998 296Q951 260 718 196V168Q761 156 790 156H918L1034 188L1038 180Q931 124 902 124Q849 124 734 136Q718 132 718 112V108Q718 68 814 68H834Q896 68 1054 152H1058V144Q1058 89 1006 80L934 56V52H938Q1067 68 1082 68V60Q851 -12 814 -12H746Q725 -12 718 -28V-192Q718 -200 710 -200H686Q673 -200 658 -24L638 -28H542Q522 -28 414 4H322V8L334 24V32Q334 34 318 52V64H322Q380 52 394 52Q399 52 434 56V60L322 124V128H334L482 84H490Q554 84 658 96V128Q574 124 542 124Q374 154 374 188Q368 188 350 212V216H486Q486 220 410 284V288H414Q565 216 594 216Q597 212 630 212Q674 215 674 236Q674 259 510 288Q420 340 406 364V372L434 404V412Q418 433 418 448L426 452H438L550 420H622Q645 420 670 448Q670 454 642 476H622Q580 460 570 460H558Q454 476 454 492V496H534L482 564V568H486Q493 568 586 508H594Q619 511 642 540V552Q554 589 554 600V604Q555 612 562 612Q633 588 666 584Q674 600 674 612Q670 620 670 624Q529 635 514 648V656H654Q660 656 670 672Q659 683 578 700L554 728Q614 759 614 764L602 804H606Q629 804 658 788Q666 792 670 792V800L610 852V856Q630 878 630 892Q626 900 626 904H634Q652 892 662 892Q674 908 674 916Q662 927 618 944V952Q634 952 642 968V1000Q670 1068 670 1072Q658 1091 658 1108Q668 1200 686 1200ZM718 764Q724 764 742 788H738Q718 782 718 764ZM602 728Q610 712 626 712V728ZM490 404Q490 382 610 364H618Q653 379 654 388Q506 404 490 404ZM702 312H718Q748 312 834 372V392Q714 392 714 360ZM618 328Q618 318 658 312V344H654Q618 337 618 328ZM502 328Q502 313 562 304H566Q566 314 518 328ZM718 240V228H730V240ZM434 180V176Q537 140 574 140Q584 140 650 164V172Q624 180 614 180ZM718 52V48Q718 20 770 20Q818 24 818 36Q753 52 718 52ZM586 48V36H658V48ZM482 40V24Q482 6 554 -8H558Q594 -1 594 8Q520 40 482 40Z" fill="param(fill) #111111" fill-opacity="param(fill-opacity) 1" stroke="param(outline) none" stroke-opacity="param(outline-opacity) 1" stroke-width="param(outline-width) 0" stroke-linejoin="round"/>
  </g>
</svg>
