<svg xmlns="http://www.w3.org/2000/svg" width="100%" height="100%" viewBox="0 0 1624.00 1624.00">
  <g transform="translate(112.00,1312.00) scale(1,-1)">
    <path d="M752 1200H768Q831 1200 892 940Q1068 976 1092 976Q1175 976 1220 924V916Q1220 860 1156 832Q1072 848 1052 848H1048Q972 820 856 696V688Q856 627 840 436Q843 404 872 404H880Q895 404 1076 488Q1083 492 1092 492Q1288 479 1288 404V380Q1288 338 1232 332L1116 352Q999 352 876 232Q851 232 824 16Q799 -200 740 -200H720Q655 -200 644 -60V-40L664 200V232Q569 338 464 372Q408 404 348 404Q315 394 208 320L180 316H168Q112 316 112 356V368Q112 468 336 512H356Q428 512 636 432Q654 432 660 428L664 448V452Q652 452 652 460Q680 505 680 572V580Q680 643 648 780Q623 780 536 840L508 848L404 832Q320 873 320 920Q320 968 420 992H424Q642 940 656 940Q690 940 696 1136Q715 1200 752 1200Z" fill="param(fill) #111111" fill-opacity="param(fill-opacity) 1" stroke="param(outline) none" stroke-opacity="param(outline-opacity) 1" stroke-width="param(outline-width) 0" stroke-linejoin="round"/>
  </g>
</svg>
