<svg xmlns="http://www.w3.org/2000/svg" width="100%" height="100%" viewBox="0 0 1624.00 1624.00">
  <g transform="translate(112.00,1312.00) scale(1,-1)">
    <path d="M738 1200H762Q778 1192 778 1180L794 1192H798Q802 1192 830 1184Q833 1184 854 1188Q866 1188 902 1136Q927 1122 950 1088Q986 1096 998 1096Q1048 1096 1118 1020Q1118 975 1086 960Q1154 913 1174 892Q1210 842 1210 800V784Q1210 776 1186 688Q1168 661 1118 616L1094 420Q1039 312 998 312H982Q963 312 934 348Q912 352 898 352H886Q886 315 814 280Q778 217 778 96Q778 77 730 -76V-104Q730 -136 770 -136Q780 -116 802 -116Q862 -157 862 -192Q852 -200 850 -200H490Q478 -196 478 -176V-168Q478 -156 550 -148Q616 -113 642 -28Q650 44 654 44L650 52V72Q650 211 590 304Q578 316 538 332Q478 388 418 388Q413 395 374 408L366 404L358 408Q350 404 346 404Q346 415 282 432Q282 460 230 460Q219 481 214 528Q194 547 194 592Q195 608 202 608Q190 642 190 656V692Q211 735 238 772V776Q222 798 222 820Q242 879 306 932Q311 932 330 968Q341 968 354 1024Q438 1075 438 1116Q474 1152 506 1152H530L566 1128Q590 1170 658 1188Q715 1200 738 1200ZM574 1080 522 1112H498Q479 1108 442 1036Q382 1006 382 980V968Q382 962 454 940Q478 916 478 884Q463 872 450 872Q429 912 418 912L366 920Q366 894 278 836L266 820Q266 785 358 776Q386 760 386 752Q391 752 402 788Q408 788 418 804L414 812Q422 836 430 836Q453 836 478 796Q478 790 430 760Q424 708 378 708Q343 741 270 752Q230 698 230 668V648H270Q310 643 310 632V620Q296 588 238 588Q230 587 230 580Q235 562 246 560Q246 579 346 608H350Q354 608 374 580Q437 615 446 628H474Q482 627 482 620V604Q459 584 406 552Q406 524 390 524L330 552Q314 552 278 544V536Q325 520 338 496Q339 504 346 504H350Q358 503 358 496L350 484Q370 484 370 460H398Q410 460 410 432L430 436Q453 434 466 420L474 424Q518 421 634 300Q634 308 646 308L642 328H646Q658 328 674 224Q682 223 682 216Q690 57 690 36Q690 -53 614 -168H646Q654 -140 662 -140H674L686 -148V-132Q686 -120 682 -120Q682 -80 726 32Q746 92 746 220Q777 297 802 324H806Q810 324 810 320Q823 320 838 360Q865 372 882 388Q927 388 974 360L982 364H990L1002 356H1006Q1030 372 1030 408Q1046 414 1046 420V424L1042 444Q1058 444 1066 496Q1046 496 1046 524Q1038 524 1018 536Q977 536 902 476H894V480Q938 525 938 536H942L950 532Q950 536 954 536L950 544Q950 550 962 556Q963 548 970 548H974L986 556Q1008 552 1022 552Q1033 572 1038 572H1062Q1062 579 1074 592V604L1070 628Q1074 648 1086 656Q1086 676 1118 676H1122L1130 672Q1130 690 1154 708L1170 800V808Q1162 818 1162 820Q1162 824 1166 824Q1144 880 1114 880L1118 888V892Q1097 892 1046 936L1042 956Q1048 992 1066 992V1004Q1066 1027 1022 1052L1014 1048L1002 1056H994Q984 1056 950 1040Q924 1052 914 1052Q901 1044 890 1044V1048Q898 1061 898 1068Q891 1068 878 1108Q850 1144 846 1144Q824 1140 814 1140V1144L806 1140H798Q794 1140 794 1144L778 1136Q746 1141 746 1164Q662 1144 626 1140Q611 1125 586 1080ZM982 1028H990V1024H982ZM1110 844H1122Q1128 844 1138 828L1130 824H1106Q1098 824 1098 832Q1098 838 1110 844ZM906 812Q930 808 930 800V792Q930 784 922 784Q912 792 910 792Q900 784 898 784Q888 792 886 792H878L882 784V776Q881 768 842 752V744H838Q809 744 806 756Q806 758 822 776L830 772Q859 780 878 808Q894 812 906 812ZM942 808Q954 808 954 792L962 796H974Q982 795 982 788L990 792Q998 791 998 784Q998 776 990 776L978 784Q978 768 970 768L958 776L954 768Q930 771 930 776L938 792Q934 800 934 804ZM826 780H834V776H826ZM1010 772Q1030 761 1030 748L1038 752H1046L1054 748Q1060 765 1074 772H1082Q1090 771 1090 764Q1058 739 1058 728H1054Q1046 732 1042 732Q1042 726 1030 720L1002 768ZM1122 688H1130V680Q1122 680 1122 688ZM1058 656 1062 648Q1061 641 1026 624Q1026 632 1018 632L998 628L994 636V652H1018Q1022 652 1022 648Q1031 652 1058 656ZM950 644 958 632V628Q946 613 946 604Q954 603 954 596Q950 596 950 592Q958 591 958 584V576Q930 557 930 544H922Q926 576 934 588Q934 592 930 592Q936 644 950 644ZM1062 552V548H1070V560Q1062 559 1062 552ZM1062 532V528H1070V532ZM314 480V476L342 468Q338 475 338 484H334ZM966 448H970Q982 448 982 432Q982 420 950 408V404H934Q926 404 926 412Q946 428 946 436Q956 436 966 448ZM686 -156V-168H706V-164Q700 -164 690 -156ZM794 -160V-168H806Q806 -160 798 -160Z" fill="param(fill) #111111" fill-opacity="param(fill-opacity) 1" stroke="param(outline) none" stroke-opacity="param(outline-opacity) 1" stroke-width="param(outline-width) 0" stroke-linejoin="round"/>
  </g>
</svg>
