<svg xmlns="http://www.w3.org/2000/svg" width="100%" height="100%" viewBox="0 0 1624.00 1624.00">
  <g transform="translate(112.00,1312.00) scale(1,-1)">
    <path d="M716 1190Q928 1190 1016 938Q1065 836 1132 814Q1248 781 1248 746Q1288 675 1288 542Q1288 499 1284 430Q1284 359 1348 322Q1400 232 1400 198V166Q1400 41 1260 -46Q1202 -62 1176 -62Q1111 -62 948 18Q848 33 848 110Q865 170 900 170Q972 170 1132 94Q1168 86 1196 86Q1244 86 1264 174V182Q1264 208 1176 286Q1148 322 1148 390L1164 574Q1156 678 1112 678Q1038 702 984 726Q931 768 872 946Q798 1062 700 1062H696Q551 1062 476 806Q416 706 368 706Q244 680 244 622Q237 622 236 566Q252 407 252 378Q252 291 144 210L136 182V174Q152 86 216 86Q254 86 436 162Q453 170 500 170Q540 170 552 102Q552 34 436 14Q300 -62 216 -62Q76 -62 8 118Q0 146 0 166V198Q11 274 76 346Q109 346 116 430Q112 501 112 546Q112 761 212 798Q352 840 352 886Q362 891 432 1046Q528 1190 680 1190ZM656 174H744Q776 157 776 130V-146Q776 -173 744 -190H656Q624 -173 624 -146V130Q624 157 656 174Z" fill="param(fill) #111111" fill-opacity="param(fill-opacity) 1" stroke="param(outline) none" stroke-opacity="param(outline-opacity) 1" stroke-width="param(outline-width) 0" stroke-linejoin="round"/>
  </g>
</svg>
