<svg xmlns="http://www.w3.org/2000/svg" width="100%" height="100%" viewBox="0 0 1619.36 1619.36">
  <g transform="translate(109.68,1309.68) scale(1,-1)">
    <path d="M686 1198H694Q718 1138 718 1114H730Q782 1146 798 1146H918Q930 1146 938 1110Q914 1088 894 1086V1078L902 1050H1010Q1035 1027 1042 990V950Q1078 943 1078 926L1070 922H1014Q1014 911 1102 890Q1174 752 1174 730Q1104 721 986 646H998Q1171 678 1198 678Q1198 674 1202 674Q1202 618 1042 618Q944 618 718 526V490Q844 482 890 482Q939 482 1130 554Q1138 567 1190 602H1194Q1202 601 1202 594Q1193 522 1182 522Q1178 522 1170 526Q1078 509 1078 490H1170Q1178 489 1178 482V462Q1178 405 1138 366Q1135 346 1126 346H1078Q1014 334 1014 318L1098 286V278H1018V274Q1042 238 1042 222V218H1038Q943 294 894 294Q853 302 822 302Q743 298 718 298V182H994V178Q969 154 938 154H870Q870 152 890 130V122Q853 110 834 110Q796 158 774 158H726Q718 157 718 150L698 -194L690 -198H650L642 -194Q654 4 654 102H650Q596 98 574 98Q557 98 486 122V130L526 126H542Q602 126 642 142Q638 150 638 154H442Q414 185 338 222L334 230V262Q334 282 302 306Q286 328 274 406Q278 406 278 410L286 406H334Q359 406 406 422V438Q359 458 246 494Q218 546 218 558H246Q339 470 422 470V478Q291 622 230 622L206 626V634Q226 637 226 646Q198 664 198 686L206 690H266Q274 690 274 698V702Q222 711 222 730L230 734Q266 734 354 702L378 710Q378 733 282 774H238V778Q258 799 258 814V846Q290 867 290 870V894L286 922Q342 932 342 966V970H346Q351 970 406 910V906H310Q310 902 306 894Q322 857 338 850H522V866Q448 907 426 930Q418 944 362 1010V1014Q362 1036 378 1042Q410 1030 434 1030Q406 1073 406 1098Q449 1108 470 1146Q543 1156 554 1170H558Q663 1074 678 1074L686 1086V1098L626 1174V1182Q672 1186 686 1198ZM790 1190H794Q802 1189 802 1182V1166Q802 1158 794 1158H786Q778 1158 778 1166V1178Q778 1184 790 1190ZM494 1126Q561 989 674 942V1010Q674 1037 590 1102Q534 1126 494 1126ZM714 1042V1014Q715 986 722 986Q870 1047 870 1098V1122H866Q714 1107 714 1042ZM458 1066V1062Q490 990 522 990H526V994Q512 1066 462 1066ZM714 878H722Q767 878 886 930Q918 969 990 1022V1026H898Q866 1026 722 942Q714 925 714 878ZM938 950V938Q1010 953 1010 970V982H1002Q965 982 938 950ZM458 966V962Q482 931 502 922H506V926Q474 966 458 966ZM526 954Q573 843 650 814L670 810H678Q678 918 638 918Q600 958 558 966H542ZM910 882Q910 863 1038 850Q1086 861 1086 870Q1086 877 986 894Q985 902 958 906H922Q910 902 910 882ZM718 834V714Q1010 777 1010 822Q1004 834 894 850Q851 878 842 878Q718 850 718 834ZM1090 826 1086 818 1094 814 1098 822ZM310 818Q334 787 354 778H358Q358 783 318 818ZM398 806V802Q498 658 590 658Q631 642 658 642Q670 662 670 674V766Q658 794 522 798Q522 801 466 818Q414 806 398 806ZM1010 742Q894 742 722 678L718 670Q714 603 714 566V558H734Q760 558 926 634Q944 663 1062 734Q1114 746 1126 758Q1122 774 1102 774H1066Q1010 774 1010 742ZM286 642H290Q330 642 398 666V670H342Q293 670 286 642ZM338 610 454 498Q468 498 526 510Q526 491 658 474V606Q658 619 510 642Q343 633 338 610ZM526 474Q499 406 486 406H470Q322 377 322 358V350Q322 332 434 290H482Q637 290 658 322Q658 442 618 442Q605 450 526 474ZM718 350Q728 322 898 322H906Q1012 350 1126 406Q1126 427 974 462Q718 462 718 434ZM1086 462V458L1106 454Q1127 458 1130 458V462ZM398 230Q443 186 570 186H626Q654 205 654 250L642 274Q581 274 430 234Q408 230 398 230Z" fill="param(fill) #111111" fill-opacity="param(fill-opacity) 1" stroke="param(outline) none" stroke-opacity="param(outline-opacity) 1" stroke-width="param(outline-width) 0" stroke-linejoin="round"/>
  </g>
</svg>
