<svg xmlns="http://www.w3.org/2000/svg" width="100%" height="100%" viewBox="0 0 1610.08 1610.08">
  <g transform="translate(105.04,1305.04) scale(1,-1)">
    <path d="M306 1176 626 808 798 1172H806V780Q1317 856 1394 864Q1371 844 906 612V608L1370 344V336L898 432V428L1014 124H1010Q979 143 798 276H794Q786 241 714 -176H706Q706 -157 590 380H586Q544 342 266 144V152L462 568Q87 580 6 580V588L442 744Q314 1136 306 1176Z" fill="param(fill) #111111" fill-opacity="param(fill-opacity) 1" stroke="param(outline) none" stroke-opacity="param(outline-opacity) 1" stroke-width="param(outline-width) 0" stroke-linejoin="round"/>
  </g>
</svg>
