<svg xmlns="http://www.w3.org/2000/svg" width="100%" height="100%" viewBox="0 0 1624.00 1624.00">
  <g transform="translate(112.00,1312.00) scale(1,-1)">
    <path d="M628 1200H648L704 1148Q735 1200 848 1200Q848 1196 852 1196Q852 1149 760 1120V1116L764 1108L832 1140Q952 1104 952 1072Q956 1072 956 1068L948 1064H876Q876 1052 868 1052Q852 1076 808 1076Q805 1076 776 1072Q780 1064 780 1060L788 1064H824Q881 1050 960 956V924Q960 914 916 904Q888 939 888 952H876V948Q892 917 896 912V904H892Q827 916 808 916H804Q784 820 760 820H756L708 860Q708 881 736 892V904L724 920V936L736 952V960Q730 976 712 980Q716 1002 716 1012Q712 1020 712 1024H708L700 1020Q704 1012 704 1008L700 972Q724 964 724 952Q712 934 712 928Q712 908 724 908V900Q701 900 696 848H692L696 828V824Q696 816 688 816Q660 839 660 848Q655 871 644 892Q644 896 648 904L644 924Q655 945 668 1000Q672 1000 680 1020Q676 1020 668 1024Q648 957 624 900Q628 893 628 884L608 872Q604 916 596 916H592V868Q592 860 540 844L536 852V952L496 948H492Q492 959 512 992L504 996H500Q478 944 460 944Q442 952 440 960V988Q502 1060 524 1060L596 1072L648 1064V1072Q620 1080 600 1080H592Q575 1080 504 1072V1084Q520 1084 520 1092L516 1100Q494 1088 480 1088Q480 1091 452 1116V1136Q452 1148 524 1160Q587 1156 668 1112L672 1120V1124Q635 1145 584 1160Q584 1192 628 1200ZM724 1088Q724 1084 720 1076H724Q732 1076 732 1084V1088ZM552 972Q560 971 560 964V960H548V948H564Q581 980 592 980H608L604 988V996Q636 1024 644 1024V1028L640 1036Q592 1009 592 996Q592 986 552 976ZM752 1036V1032Q752 1023 796 1000Q796 967 804 960Q796 932 796 928V924H808Q812 939 812 972L804 976L808 996V1008L764 1032Q764 1036 760 1036ZM640 860H648V836Q676 816 696 792Q700 688 700 628Q684 620 672 620V608L700 616Q704 608 704 604V480Q668 456 668 452L676 448L708 468L712 460V448Q712 414 716 340Q705 340 672 280Q673 272 680 272Q708 317 708 324H716Q720 226 724 192Q711 192 684 144V140H692L720 176H724Q724 133 732 4Q728 4 688 -52L696 -56L728 -20H732Q732 -125 768 -152Q768 -185 724 -200Q720 -200 712 -196Q690 -200 676 -200H660Q636 -194 636 -104Q644 -104 700 -120V-108Q644 -92 636 -92V84H644L684 52H692V56Q636 104 636 108V208L640 228Q644 228 672 220L676 228Q640 239 640 248V376L644 384Q665 376 676 376V388L640 392V544H644Q646 544 656 536L664 548Q640 562 640 568V704L660 700V704L640 728Z" fill="param(fill) #111111" fill-opacity="param(fill-opacity) 1" stroke="param(outline) none" stroke-opacity="param(outline-opacity) 1" stroke-width="param(outline-width) 0" stroke-linejoin="round"/>
  </g>
</svg>
