<svg xmlns="http://www.w3.org/2000/svg" width="100%" height="100%" viewBox="0 0 1624.00 1624.00">
  <g transform="translate(112.00,1312.00) scale(1,-1)">
    <path d="M696 1166H704L756 854H760Q847 1066 1256 1066H1284V1058Q1108 1014 976 858Q928 789 928 786Q986 802 1040 802Q1233 802 1356 658Q1400 598 1400 542V506Q1400 486 1388 442H1376Q1360 509 1212 578Q1143 594 1092 594Q919 594 868 458Q852 382 828 382Q828 378 816 378H800Q792 310 792 238V234Q792 128 848 -110Q848 -136 852 -162L844 -166H556L548 -162Q560 -58 604 146Q608 181 608 234V238Q608 310 600 378H584Q544 378 544 426Q493 594 320 594H296Q127 594 28 454Q24 446 24 442H12Q0 486 0 506V542Q0 689 220 778Q291 802 368 802Q409 802 472 786Q365 972 140 1054Q137 1054 116 1058V1066H144Q553 1066 640 854H644Z" fill="param(fill) #111111" fill-opacity="param(fill-opacity) 1" stroke="param(outline) none" stroke-opacity="param(outline-opacity) 1" stroke-width="param(outline-width) 0" stroke-linejoin="round"/>
  </g>
</svg>
