<svg xmlns="http://www.w3.org/2000/svg" width="100%" height="100%" viewBox="0 0 1624.00 1624.00">
  <g transform="translate(112.00,1312.00) scale(1,-1)">
    <path d="M672 1200 676 1192Q676 1143 644 1100Q644 1059 664 996H668Q696 1150 704 1160H724Q732 1159 732 1152V1116H736L788 1152L792 1144V1092Q792 1056 736 1044V964H740Q766 970 816 1072Q848 1100 868 1100H896Q904 1099 904 1092Q884 1032 828 1004Q816 977 816 964Q852 958 852 928H860Q918 936 920 936V932Q907 885 876 856V848L880 828H884Q901 888 936 888H944Q984 888 984 832Q972 800 936 800H920Q892 732 892 724V720L956 764Q1027 730 1028 724Q1008 676 948 676Q852 676 852 636Q825 604 724 516V364Q764 384 784 484Q784 507 836 604H844Q848 564 848 544L824 448Q856 461 856 500V528Q920 608 972 608H976Q988 591 988 576Q988 560 936 524Q936 504 896 440H900L1024 472V416Q1024 408 1016 408H1012Q967 408 872 380H832Q720 289 720 268Q709 183 692 -196L684 -200H620Q612 -200 612 -188Q612 -120 640 348Q636 348 540 468L496 504H460Q447 520 376 560L372 568V584Q372 588 388 600Q416 592 440 592Q382 697 376 720H380Q454 720 488 608Q528 539 564 528Q577 536 588 536H592L624 508V560Q624 568 636 568Q636 593 596 616L576 612Q560 612 556 656Q491 705 452 820H424Q376 853 376 896Q380 896 380 900L444 892Q432 907 432 928Q437 968 448 968Q461 960 472 960Q487 1116 496 1116H500Q524 1112 524 1104V932H528Q528 950 552 1084H556Q569 1080 584 1044Q580 977 564 872Q569 872 636 944H640Q621 963 596 1052Q571 1081 528 1120V1180L532 1188Q578 1171 592 1156Q625 1200 672 1200ZM592 1136H588Q566 1157 548 1164V1128Q628 1058 628 996Q647 961 684 916V780Q676 616 664 616H660Q656 616 628 660Q572 660 572 768V800Q572 811 628 912V920Q582 856 572 856Q565 852 556 852L544 868Q560 952 564 1020V1032H560Q547 904 524 904Q514 904 504 944V1056H500Q491 936 484 936Q470 944 452 944Q452 940 448 932Q448 903 492 896Q552 839 552 740Q548 732 548 728H544Q524 732 460 868Q424 880 412 880H396V872Q411 836 456 836Q528 704 536 696Q541 696 576 656V632Q620 648 624 648L612 632V628Q652 606 652 592Q652 583 656 576Q644 549 644 532V512Q656 512 656 504V500Q656 408 644 408Q630 408 596 456Q612 480 612 492Q612 498 584 520Q566 504 564 504H560Q560 513 508 544Q461 614 448 664L408 700H404V696Q476 567 476 556Q395 584 388 584V572Q440 543 472 520L500 524Q600 434 656 352L628 -184H672Q680 -184 680 -176Q688 292 712 292Q820 400 844 400H880Q975 428 1008 428V452Q924 424 908 424H880L872 428Q919 510 928 544Q959 564 968 564V592Q872 568 872 480Q872 457 820 424H812Q804 424 804 436L832 556Q820 556 776 392Q729 340 720 340H716Q708 340 708 348V524Q856 651 856 680Q923 692 980 696Q1008 716 1008 720Q994 720 964 748Q961 748 896 704Q872 704 872 720Q902 816 924 816Q968 816 968 844V856Q968 862 952 872H928Q921 871 884 800H880Q856 823 856 856Q896 906 896 912H848L824 948V940Q824 869 804 856V852Q835 838 860 764V752Q804 611 728 576H716Q708 576 708 584V872Q805 965 820 1024Q849 1024 884 1084H860Q820 1071 796 1008Q796 978 740 944H728Q720 944 720 952V1052L772 1080Q776 1080 776 1084V1120H772Q733 1093 716 1084Q712 1089 712 1112H708Q688 968 676 968H668Q639 968 624 1112Q660 1133 660 1184Q646 1184 592 1136ZM804 956Q804 946 724 864V596H736Q817 673 844 748Q827 818 796 836Q788 836 788 844V848Q788 857 804 884Q804 905 808 952V956ZM588 804V776Q588 676 632 676Q652 673 652 656H656Q668 762 668 912Q652 920 652 932Q647 932 632 876Q628 876 588 804ZM468 884V880Q481 880 528 764H532V776Q532 830 480 884ZM628 492Q628 481 616 452Q618 452 640 432V492Z" fill="param(fill) #111111" fill-opacity="param(fill-opacity) 1" stroke="param(outline) none" stroke-opacity="param(outline-opacity) 1" stroke-width="param(outline-width) 0" stroke-linejoin="round"/>
  </g>
</svg>
