<svg xmlns="http://www.w3.org/2000/svg" width="100%" height="100%" viewBox="0 0 1624.00 1624.00">
  <g transform="translate(112.00,1312.00) scale(1,-1)">
    <path d="M766 1200H778Q786 1200 786 1188Q779 1128 742 1128V916Q754 916 770 908Q858 958 858 1004Q838 1049 838 1056V1092Q867 1120 874 1164H878Q884 1164 926 1116V1112Q926 1107 894 1080Q903 1012 914 1012Q1010 1084 1030 1084Q1086 1084 1114 1008L1066 1012H1018Q941 1012 906 964Q881 964 858 868L830 872H798Q774 872 742 840V476Q749 476 762 468Q938 555 1046 812V852L1110 900Q1147 968 1166 968L1170 960V860Q1170 855 1114 836Q1082 798 1082 776V752Q1119 736 1134 736H1138Q1146 736 1234 788H1250V784Q1241 769 1138 684Q1138 667 1258 648Q1270 604 1270 600Q1266 600 1266 596L1238 600H1234Q1188 600 1146 584Q1128 652 1098 652Q1065 652 1046 600V580Q958 580 858 488Q742 418 742 384V260Q742 254 758 244Q758 268 790 292Q830 276 834 276Q879 291 1058 396Q1159 472 1186 536Q1202 556 1250 556L1254 548V432Q1254 425 1154 412Q1055 367 1034 340V328H1126Q1134 327 1134 320V292Q1134 280 1062 272L1030 240Q1017 246 994 288L974 292Q902 292 878 220Q742 198 742 172V108Q742 94 746 72L742 64L754 -196L746 -200H662L654 -196L670 276Q619 327 422 428H418Q392 414 346 356V292H342Q274 311 274 340Q274 359 258 400Q275 414 350 432L362 448V460Q340 500 246 500H242Q236 500 222 552Q189 592 178 592V600H186L338 532Q387 548 398 548Q404 548 414 532V484Q447 452 642 344H670Q686 486 686 544V628Q525 720 494 720Q270 679 270 652Q270 645 250 628Q130 648 130 696V700Q130 708 142 708Q156 708 218 688Q288 692 446 752V756Q415 768 402 768H350L302 832Q276 832 242 872L250 876H266Q310 860 314 860H318Q326 860 326 868V872Q318 885 274 908V920Q318 962 330 1012H334Q402 994 402 984Q366 945 366 940Q362 918 362 904Q362 859 378 824H414Q416 824 438 844Q460 841 490 780Q654 688 674 688H686V728Q686 928 658 928Q501 1032 466 1032Q430 1034 430 1044V1088L434 1096Q494 1064 506 1064H510L538 1068Q534 1108 534 1128V1132Q544 1152 566 1152Q589 1109 606 1092V1080L570 1040Q574 1033 574 1024Q621 1028 642 1028Q654 1018 658 972Q668 960 682 960Q710 968 710 976V1176Q710 1189 766 1200ZM1014 1044 1022 1040Q1030 1040 1030 1048L1022 1052Q1014 1051 1014 1044ZM962 960H990Q998 959 998 952V904H990Q954 904 954 956ZM1014 652H1018Q1046 652 1050 696L1046 716Q1028 716 1014 652ZM450 688H482Q490 687 490 680Q490 644 466 632Q442 645 442 676V680Q443 688 450 688ZM586 316 590 308V296Q574 268 542 268H538Q530 268 530 276V288Q545 316 586 316Z" fill="param(fill) #111111" fill-opacity="param(fill-opacity) 1" stroke="param(outline) none" stroke-opacity="param(outline-opacity) 1" stroke-width="param(outline-width) 0" stroke-linejoin="round"/>
  </g>
</svg>
