<svg xmlns="http://www.w3.org/2000/svg" width="100%" height="100%" viewBox="0 0 1619.36 1619.36">
  <g transform="translate(109.68,1309.68) scale(1,-1)">
    <path d="M698 1198H702Q739 1149 930 854V846Q820 878 814 878V874L1106 478V474H1102Q875 530 866 530L1210 134V130L778 194V-190Q778 -198 770 -198H630Q622 -198 622 -190V194L190 130V134L534 530H530Q303 474 294 474V478L586 874V878H582L470 846V854Q661 1149 698 1198Z" fill="param(fill) #111111" fill-opacity="param(fill-opacity) 1" stroke="param(outline) none" stroke-opacity="param(outline-opacity) 1" stroke-width="param(outline-width) 0" stroke-linejoin="round"/>
  </g>
</svg>
