<svg xmlns="http://www.w3.org/2000/svg" width="100%" height="100%" viewBox="0 0 1614.72 1614.72">
  <g transform="translate(107.36,1307.36) scale(1,-1)">
    <path d="M564 918H572L724 602Q764 610 796 610H872L1096 878H1100L1036 558Q1048 558 1056 542Q1077 555 1132 598H1136Q1190 539 1200 522L1128 462V414Q1128 397 1120 382L1396 238V230H996V226Q1004 213 1004 202Q1004 122 748 86Q748 82 696 82H636Q477 82 344 158Q19 210 4 210V214Q4 222 220 290Q430 362 444 370Q276 667 268 686H276Q525 526 540 526Q548 536 548 538Z" fill="param(fill) #111111" fill-opacity="param(fill-opacity) 1" stroke="param(outline) none" stroke-opacity="param(outline-opacity) 1" stroke-width="param(outline-width) 0" stroke-linejoin="round"/>
  </g>
</svg>
