<svg xmlns="http://www.w3.org/2000/svg" width="100%" height="100%" viewBox="0 0 1624.00 1624.00">
  <g transform="translate(112.00,1312.00) scale(1,-1)">
    <path d="M944 1200Q972 1176 972 1172Q971 1155 744 936Q736 908 736 888Q841 992 932 1076Q972 1045 972 1024Q953 1019 748 804Q736 789 736 768Q920 952 936 952L968 916V908Q968 890 756 692L732 640H736Q753 640 920 816Q926 816 936 824H940Q968 805 968 796Q968 765 748 564Q732 519 732 512Q747 512 928 700Q947 691 964 668V660Q964 650 744 436Q736 410 736 400V388L932 572H936L964 548Q985 568 992 568Q996 568 1028 544H1032Q1032 582 1028 796Q1028 865 1152 968Q1274 1100 1300 1100H1304Q1310 1100 1332 1072Q1173 896 1100 828L1096 804V792Q1243 934 1292 976Q1327 952 1328 944Q1328 914 1104 708Q1096 678 1096 668H1100L1292 852Q1328 824 1328 812Q1328 793 1148 628Q1096 574 1096 544H1100Q1111 544 1268 708Q1291 724 1300 724Q1318 717 1332 696Q1331 681 1112 468Q1096 445 1096 416Q1103 416 1268 584Q1289 600 1304 600Q1332 580 1332 568Q1332 546 1124 348Q1100 318 1100 300V292L1292 476Q1328 450 1332 440Q1332 424 1132 232Q1092 195 1092 156Q1096 48 1096 -16V-72Q1096 -101 1084 -104H1040Q1032 -104 1032 -96V36Q1032 244 988 244Q918 300 836 392Q732 306 732 244Q728 201 728 148Q728 74 732 -196L724 -200H680Q672 -200 672 -192V204Q672 294 644 312Q608 357 564 396Q564 387 392 220Q376 204 368 164Q372 93 372 48V-96Q372 -104 364 -104H340Q311 -104 308 -92V136Q308 145 312 152Q312 207 220 280Q183 329 68 432Q68 437 112 476Q131 469 296 296L304 292V300Q304 337 112 508Q72 553 72 572Q91 600 96 600Q140 595 276 436L308 416V424Q308 465 204 548Q92 661 72 696L100 728Q118 728 292 548Q298 548 308 540V548Q308 589 136 740Q72 804 72 820L112 852H116L304 668V684Q304 713 204 792Q88 910 72 940Q99 976 120 976Q120 971 308 792V800Q308 843 228 904Q72 1062 72 1072Q85 1095 100 1104Q123 1104 308 908Q372 861 372 808V544Q405 568 420 568Q420 563 440 548H444Q444 560 468 576H472L668 388V396Q668 448 476 608Q456 632 436 664V668Q456 696 468 696Q487 696 640 532L668 512V520Q668 570 488 716Q433 777 432 800Q434 800 460 824Q494 824 652 648Q658 648 668 640V648Q668 681 448 884Q448 892 432 912V916Q432 921 464 948Q496 945 664 764H668V780Q668 808 520 944L436 1032Q436 1062 476 1076Q662 892 668 892V896Q668 953 488 1092Q436 1151 436 1172Q462 1196 464 1196H472Q487 1196 668 1004L704 980Q727 994 904 1180Q935 1200 944 1200ZM440 516Q372 460 372 416Q423 448 464 496ZM960 516 940 492Q993 440 1028 420V428Q1028 459 960 516ZM500 460Q497 448 392 344Q376 323 376 308V288Q458 361 528 436Q502 460 500 460ZM876 432 1024 292H1028V304Q1028 334 904 452V460Q898 460 876 432Z" fill="param(fill) #111111" fill-opacity="param(fill-opacity) 1" stroke="param(outline) none" stroke-opacity="param(outline-opacity) 1" stroke-width="param(outline-width) 0" stroke-linejoin="round"/>
  </g>
</svg>
