<svg xmlns="http://www.w3.org/2000/svg" width="100%" height="100%" viewBox="0 0 1624.00 1624.00">
  <g transform="translate(112.00,1312.00) scale(1,-1)">
    <path d="M984 1184Q1179 853 1208 796H1204L1144 772Q1199 681 1340 484L1344 468Q1249 438 1248 432Q1248 424 1388 200Q1400 180 1400 172Q1310 136 1160 136Q1048 299 1048 328Q1139 354 1156 364Q1104 452 968 640L936 692Q936 702 1004 720Q977 783 880 940Q868 954 868 980Q868 996 972 1172Q972 1178 984 1184ZM416 1180H424Q540 986 540 976L396 720L464 700Q464 679 280 420Q268 409 244 356Q356 334 356 324Q314 233 236 136H232Q0 150 0 176Q152 427 152 436V440Q106 448 56 468V472L252 764V776Q212 788 192 788Q232 900 416 1180ZM696 1168H700Q841 956 948 744L876 716Q928 629 1068 436Q1081 419 1096 380L988 348Q1038 255 1152 76Q1160 63 1160 52Q969 -4 764 -4Q491 -4 240 52Q275 126 396 316Q412 344 412 356Q405 356 304 380Q304 401 488 656Q504 674 528 720Q479 736 456 736V740Q484 824 696 1168ZM296 4H300Q416 -9 416 -20V-148Q416 -156 408 -156H304Q296 -156 296 -148ZM1060 -12Q1068 -28 1068 -56V-116Q1064 -172 1052 -172H964Q950 -172 944 -128V-56Q944 -24 968 -24ZM652 -36H756Q764 -37 764 -44V-176Q764 -184 756 -184H652Q644 -184 644 -176V-44Q645 -36 652 -36Z" fill="param(fill) #111111" fill-opacity="param(fill-opacity) 1" stroke="param(outline) none" stroke-opacity="param(outline-opacity) 1" stroke-width="param(outline-width) 0" stroke-linejoin="round"/>
  </g>
</svg>
