<svg xmlns="http://www.w3.org/2000/svg" width="100%" height="100%" viewBox="0 0 1624.00 1624.00">
  <g transform="translate(112.00,1312.00) scale(1,-1)">
    <path d="M700 1200Q733 1200 756 1116Q772 1116 788 1064V1040Q788 1012 764 984V980Q804 980 824 904Q812 828 784 828V824Q842 824 864 728Q864 685 816 640Q885 640 908 544V540Q908 489 868 452Q964 417 964 340V332Q964 280 900 228Q982 228 1012 120V88Q1012 -4 884 -28H880Q844 -28 804 0H744Q748 -27 760 -196L752 -200H648L640 -196Q652 -27 656 0H596Q558 -28 516 -28Q388 -4 388 88V116Q416 228 500 228Q436 279 436 336Q436 412 520 448Q532 448 532 456Q492 483 492 540V544Q516 640 584 640Q536 683 536 732Q560 824 616 824V828Q587 828 576 908Q598 980 636 980V984Q612 1012 612 1040V1064Q612 1083 652 1132Q666 1200 700 1200Z" fill="param(fill) #111111" fill-opacity="param(fill-opacity) 1" stroke="param(outline) none" stroke-opacity="param(outline-opacity) 1" stroke-width="param(outline-width) 0" stroke-linejoin="round"/>
  </g>
</svg>
