<svg xmlns="http://www.w3.org/2000/svg" width="100%" height="100%" viewBox="0 0 1624.00 1624.00">
  <g transform="translate(112.00,1312.00) scale(1,-1)">
    <path d="M708 1200 796 1164Q862 1164 880 1136Q899 1105 916 1044Q1048 991 1048 932V924Q1026 800 1000 760V756Q1000 749 1068 696Q1112 641 1112 612L1108 604Q1108 594 1152 500V484Q1152 439 1048 380Q1036 380 1024 312Q995 276 956 276Q907 276 900 348Q900 351 860 392Q740 218 740 204Q740 170 756 -196L748 -200H652L644 -196Q656 54 656 124Q516 356 504 356Q464 356 448 292Q425 264 416 264Q248 295 248 360V376Q248 387 292 492Q306 632 392 632H404L428 628Q436 632 440 632Q324 752 324 812V828Q324 856 384 920Q384 946 476 1024Q476 1088 588 1164Q642 1172 684 1200ZM540 628Q616 609 616 560Q637 532 660 532Q680 532 680 692L684 720L672 728Q587 728 540 628ZM720 708V620H728Q778 620 784 660V668Q784 702 760 716H748ZM804 440H792Q782 440 744 452H728Q736 296 736 272H740Q744 284 856 436V460Q844 460 844 464Q840 464 804 440ZM600 360H540Q653 207 656 196H660L672 440H660Q630 440 616 372Z" fill="param(fill) #111111" fill-opacity="param(fill-opacity) 1" stroke="param(outline) none" stroke-opacity="param(outline-opacity) 1" stroke-width="param(outline-width) 0" stroke-linejoin="round"/>
  </g>
</svg>
