<svg xmlns="http://www.w3.org/2000/svg" width="100%" height="100%" viewBox="0 0 1624.00 1624.00">
  <g transform="translate(112.00,1312.00) scale(1,-1)">
    <path d="M760 1200H784Q914 1200 992 984Q1012 919 1012 860Q1012 647 832 544Q786 528 752 528H748L768 228L888 328Q876 350 872 384Q872 477 980 552Q997 564 1052 576Q1148 562 1148 488V468Q1148 351 996 288L972 284Q929 284 896 316Q785 218 772 212L800 -196L792 -200H680V-196Q680 -146 704 144Q671 169 576 252Q538 216 488 216Q373 216 272 372Q252 425 252 460V472Q252 552 316 584Q336 596 368 596H372Q528 596 608 392L612 352V344Q612 297 584 260L704 164Q708 194 732 528H728Q593 528 512 672Q492 720 492 772Q492 942 640 1132Q713 1200 760 1200Z" fill="param(fill) #111111" fill-opacity="param(fill-opacity) 1" stroke="param(outline) none" stroke-opacity="param(outline-opacity) 1" stroke-width="param(outline-width) 0" stroke-linejoin="round"/>
  </g>
</svg>
