<svg xmlns="http://www.w3.org/2000/svg" width="100%" height="100%" viewBox="0 0 1624.00 1624.00">
  <g transform="translate(112.00,1312.00) scale(1,-1)">
    <path d="M540 1200H556Q564 1199 564 1192V1188L552 1172L556 1152Q544 1148 544 1128L548 1120Q544 1112 544 1108Q564 1112 564 1116Q610 1116 624 1084V1080H612V1072L620 1076H628L636 1072Q636 1085 640 1092L664 1080Q664 1086 676 1092H684Q690 1092 696 1080Q690 1080 684 1068Q708 1046 708 1036H712Q712 1044 720 1064Q712 1077 712 1088V1092Q712 1098 728 1108H732Q738 1108 748 1092L744 1072Q759 1072 796 1060L800 1068L792 1080V1088H796L816 1072H828V1076Q820 1086 820 1088L828 1092H836Q852 1080 860 1080V1084Q860 1101 840 1116Q850 1164 864 1164Q874 1156 884 1156V1152Q884 1150 876 1140Q884 1127 884 1120Q888 1120 916 1160Q916 1156 920 1156L916 1116V1108Q928 1108 928 1096Q924 1088 924 1084Q934 1076 940 1076Q968 1092 968 1124H992L1000 1120L996 1100Q1003 1083 1020 1064Q1016 1064 1016 1060Q1024 1059 1024 1052V1048Q1024 1043 984 1020Q999 1005 1032 980Q1028 972 1028 968Q1053 976 1060 976Q1060 972 1064 972V976Q1064 986 1056 1024Q1108 1031 1108 1044H1116V1032H1120Q1120 1044 1128 1044Q1158 1029 1160 1020Q1160 1011 1132 1008V988L1152 1000H1164Q1172 999 1172 992Q1165 992 1160 972H1164Q1177 980 1184 980L1188 972Q1188 964 1176 964L1192 944V936Q1180 928 1180 904Q1188 903 1188 896L1180 884V880Q1204 880 1204 868Q1204 863 1176 848Q1172 855 1172 864Q1142 849 1140 840Q1142 840 1152 832Q1148 824 1148 820L1140 824V812H1148Q1148 821 1172 824L1168 832V836H1184L1196 828Q1207 848 1212 848L1232 836Q1240 860 1252 860V884Q1252 890 1264 896H1276Q1288 896 1288 880L1300 888L1304 880L1288 852Q1292 844 1292 840H1316Q1324 832 1340 832Q1340 872 1372 872Q1372 868 1376 868L1372 860V856L1380 844V840H1372Q1372 832 1388 832Q1388 830 1384 816Q1388 808 1388 804Q1380 804 1380 788H1372V796H1368Q1368 783 1344 772V768L1336 772Q1336 768 1332 760L1304 772H1300V768Q1320 768 1344 736V732H1328L1332 724Q1310 700 1300 700Q1316 681 1316 668Q1308 668 1308 656H1300Q1300 668 1280 668V664L1284 644Q1273 644 1268 620Q1288 620 1288 612Q1288 599 1276 568H1264Q1264 572 1260 580Q1192 577 1192 560Q1194 537 1204 524V516Q1187 497 1176 480L1184 476H1192Q1192 484 1196 484Q1204 480 1208 480L1204 488Q1212 488 1212 500H1220Q1220 488 1228 472Q1204 468 1204 464Q1208 456 1208 452L1200 448H1196L1184 456Q1176 452 1172 452Q1172 458 1160 464V460Q1164 452 1164 448Q1160 440 1160 436H1164L1188 440H1192L1196 420Q1170 394 1124 368H1120V372Q1121 380 1128 380Q1121 402 1108 412Q1101 408 1092 408Q1100 418 1100 420L1092 424Q1092 416 1088 416Q1060 424 1060 436H1056V424L1068 408V404H1064Q1051 409 1040 420L988 408V412L992 420Q976 420 976 428L968 424H956V420Q924 423 924 428Q716 386 716 332Q652 189 652 152Q668 -108 668 -196L660 -200H620L612 -196Q616 -21 616 72V112Q616 277 556 428Q496 493 436 512Q427 536 420 536H416V524H408V528L412 548Q406 548 336 604L308 600Q280 603 280 608Q267 600 256 600H248L240 604Q234 588 228 588Q228 595 192 600V620L196 628Q160 650 160 656Q160 665 184 692H180Q166 688 164 688Q134 696 124 716L116 712H112V776L96 796V800H108Q116 798 124 780L132 784Q143 784 148 756H156L152 764V772H156L184 764L188 772Q168 772 168 780L172 788Q117 828 108 828Q82 820 72 820H68Q45 859 28 868H24L16 864L12 872L40 888L56 880L64 892V896Q64 902 24 924Q24 928 20 936L28 952Q56 950 56 936Q52 928 52 924H60Q61 952 80 952Q80 964 100 964H104Q108 964 108 960L116 964Q124 964 124 952H144Q144 940 164 940Q164 946 184 956H192L212 952V944Q212 935 208 928V916H204V904Q216 904 216 896L212 888Q228 888 228 880L220 868Q220 862 232 856Q236 868 240 868L236 876V932Q220 932 220 936Q236 976 260 1000Q244 1000 244 1008V1028Q211 1052 200 1052V1056Q200 1062 228 1084H232Q240 1084 240 1072H244L252 1076L248 1084L252 1104H244Q244 1088 232 1088L216 1104V1108Q240 1129 240 1136Q276 1136 292 1152H296Q304 1152 304 1136H312Q322 1144 328 1144Q336 1140 340 1140V1132L336 1124H340Q348 1128 352 1128V1080Q356 1080 408 1152V1156L404 1164H420L416 1172V1176Q422 1176 432 1184H456L452 1144V1140Q467 1152 480 1152H484L496 1144Q499 1168 508 1168Q516 1168 516 1156H520Q526 1156 536 1172V1188L532 1196ZM260 1132Q260 1130 252 1120V1112Q272 1112 272 1084H276Q276 1102 288 1120ZM1024 1072H1032V1068H1024ZM264 1000V992Q288 992 288 964H292V1000ZM1284 872V860H1288Q1288 864 1292 872ZM1344 812Q1344 804 1356 804H1360V808ZM812 672V668Q816 660 816 656H804Q744 656 744 464V444H748Q836 578 836 652V656Q836 662 820 672ZM216 636V632Q217 624 224 624Q224 628 228 628Q232 621 232 608H236V628Q230 644 224 644Q216 643 216 636ZM640 608 644 588H632L624 592Q596 507 596 444V436Q668 496 668 540Q668 561 656 612Q649 608 640 608ZM600 400Q620 308 644 236Q667 274 704 384Q726 384 732 604L660 468Q600 409 600 400ZM872 564 868 556H880Q880 564 872 564ZM752 408H756Q853 408 868 460Q874 476 880 476V468Q872 455 872 444V428Q901 440 908 440V444Q908 455 888 456V460Q888 462 912 484V492L904 488H888Q892 509 892 512Q892 524 880 524Q880 536 892 556H888Q872 534 832 524Q790 470 752 408ZM1004 440 996 428V424H1000Q1006 424 1012 436Z" fill="param(fill) #111111" fill-opacity="param(fill-opacity) 1" stroke="param(outline) none" stroke-opacity="param(outline-opacity) 1" stroke-width="param(outline-width) 0" stroke-linejoin="round"/>
  </g>
</svg>
