<svg xmlns="http://www.w3.org/2000/svg" width="100%" height="100%" viewBox="0 0 1624.00 1624.00">
  <g transform="translate(112.00,1312.00) scale(1,-1)">
    <path d="M660 1200H696Q829 1200 892 1032Q896 1005 896 988V980Q896 940 880 900H896Q1052 900 1108 720Q1108 699 1112 684Q1112 636 1076 560H1080Q1196 494 1196 392V360Q1196 245 1052 180L1000 172Q921 172 860 224L728 160L756 -196L748 -200H636V-196L656 120L448 220Q420 212 400 212H364Q279 212 212 332Q204 364 204 372V408Q204 524 348 576V580Q336 606 336 644V660Q336 796 496 860Q460 918 460 968V1000Q460 1125 612 1192Q640 1200 660 1200ZM704 488 716 328H720Q784 360 792 360V384Q792 425 816 476Q789 482 740 524H736Q732 524 704 488ZM572 432H568L572 404V392Q572 357 548 300H552Q661 244 668 244V248L684 472Q621 432 572 432ZM716 308Q726 180 732 180Q816 224 844 232V240Q810 276 792 344Q736 316 716 308ZM536 288Q490 232 468 232V228L660 136V228Z" fill="param(fill) #111111" fill-opacity="param(fill-opacity) 1" stroke="param(outline) none" stroke-opacity="param(outline-opacity) 1" stroke-width="param(outline-width) 0" stroke-linejoin="round"/>
  </g>
</svg>
