<svg xmlns="http://www.w3.org/2000/svg" width="100%" height="100%" viewBox="0 0 1624.00 1624.00">
  <g transform="translate(112.00,1312.00) scale(1,-1)">
    <path d="M660 1200Q805 1200 904 1084Q916 1048 916 1036V1020Q916 911 700 860Q665 856 656 856Q656 828 664 636Q677 643 744 720Q724 746 724 764Q753 856 900 856H932Q1056 856 1104 780V748Q1056 672 932 672H888Q831 672 760 708L668 584V568L672 520H676Q731 556 796 556H824Q984 542 984 472Q984 400 804 388H788Q755 355 684 268Q704 -131 704 -176L708 -196L700 -200H584L576 -196Q592 103 604 372Q496 602 496 612H480Q323 612 296 704V724Q331 816 456 816H460Q579 816 620 748H624Q624 758 628 856H592Q451 856 352 968Q336 1004 336 1032Q336 1155 580 1200ZM616 676Q616 644 504 616Q600 444 608 440L620 672V676ZM676 424V420Q680 353 680 316V304Q771 385 772 392Q736 392 676 424Z" fill="param(fill) #111111" fill-opacity="param(fill-opacity) 1" stroke="param(outline) none" stroke-opacity="param(outline-opacity) 1" stroke-width="param(outline-width) 0" stroke-linejoin="round"/>
  </g>
</svg>
