<svg xmlns="http://www.w3.org/2000/svg" width="100%" height="100%" viewBox="0 0 1624.00 1624.00">
  <g transform="translate(112.00,1312.00) scale(1,-1)">
    <path d="M700 1070Q788 986 788 934Q788 903 732 850V758Q732 748 684 746L680 754V850Q624 895 624 926V938Q624 981 700 1070ZM940 890Q1060 783 1060 694V682Q1060 620 972 582L976 574V506Q976 454 948 454L924 450L920 458V578Q832 636 832 690V698Q832 751 940 890ZM452 886H456Q564 778 564 698V674Q564 633 480 578V526Q480 454 468 454H436Q428 454 428 462V582Q340 629 340 686V706Q340 756 452 886ZM700 634Q852 471 852 366Q852 271 724 230Q728 176 728 150V30H732Q767 57 872 162H880Q886 162 904 138V134Q710 -70 688 -70L496 126Q500 138 524 162H528Q563 131 672 30V90Q672 136 676 230Q548 275 548 362V370Q548 450 684 626Q690 626 700 634ZM1180 634H1188Q1279 554 1336 430Q1344 394 1344 378V370Q1344 324 1308 278Q1260 234 1216 234V374H1204L1176 378V234Q1220 234 1220 202V30Q1256 59 1368 166Q1373 166 1400 134Q1207 -62 1196 -62Q1182 -66 1180 -66Q995 115 988 126Q1003 162 1024 162Q1032 161 1164 30Q1168 90 1168 118V226L1108 258Q1044 299 1044 378Q1044 455 1172 614Q1180 627 1180 634ZM204 630H208Q266 581 332 466Q356 406 356 390V366Q356 272 236 230H232V30Q239 30 376 166Q381 166 412 130V126Q379 87 216 -66H200Q93 24 0 134V138Q14 162 36 162Q167 26 180 26V226Q180 231 108 258Q56 302 56 370Q56 481 204 630ZM188 378Q184 267 184 234H228V378ZM680 378V234H720V370Q720 378 712 378Z" fill="param(fill) #111111" fill-opacity="param(fill-opacity) 1" stroke="param(outline) none" stroke-opacity="param(outline-opacity) 1" stroke-width="param(outline-width) 0" stroke-linejoin="round"/>
  </g>
</svg>
