<svg xmlns="http://www.w3.org/2000/svg" width="100%" height="100%" viewBox="0 0 1624.00 1624.00">
  <g transform="translate(112.00,1312.00) scale(1,-1)">
    <path d="M488 926Q489 918 496 918H524Q585 907 596 898Q650 922 676 922L788 910L812 914H832Q860 881 900 874Q941 878 964 878Q1006 838 1016 838Q1029 846 1040 846H1044Q1055 835 1084 830L1092 834H1168Q1176 834 1176 822H1200Q1233 822 1268 798Q1364 798 1384 742L1400 702L1396 694Q1400 687 1400 678L1384 666H1368Q1368 685 1244 698H1240Q1240 682 1216 682Q1213 682 1184 686Q1184 648 1088 642Q1011 642 856 562Q732 484 732 438Q684 323 684 290V286Q696 172 696 78L676 74Q656 74 616 78Q628 148 628 186V262Q628 370 596 398Q533 447 496 506Q444 534 444 574Q444 593 316 618Q316 623 268 634Q246 630 232 630H212L192 610H180Q180 630 172 630Q165 626 156 626L152 634V658Q116 658 88 602H80Q71 618 56 618Q48 618 48 626Q64 630 64 650V654Q22 654 0 682Q25 766 40 766H44L52 762Q52 774 68 782H124Q145 782 148 794L144 818Q187 858 228 858Q255 882 280 882H284L308 878Q324 886 352 886H392Q392 898 400 898H416L440 894Q445 894 468 922H472L480 918Q481 926 488 926ZM452 862V854L464 838Q488 846 488 854L464 866Q456 862 452 862ZM656 854 652 846V842Q658 842 668 834H676V850ZM788 766V742Q788 733 808 730L816 742Q811 759 796 766ZM976 694Q951 702 944 702Q865 658 852 658Q852 649 872 610H884Q908 610 972 646Q979 646 1068 682V690Q1024 690 1024 718H1000Q982 694 976 694ZM572 666V662Q588 662 588 650L616 654H628V650L592 630V614L664 554V550Q664 516 676 462Q676 439 668 418H676L720 486V514L724 534Q648 605 648 630Q660 659 660 666Q640 686 608 702Q572 692 572 666ZM424 690Q424 686 428 686L424 666V654Q424 650 496 606Q501 593 528 582L532 590V598Q532 657 496 670Q479 698 460 698H444Q424 697 424 690ZM720 670V658Q731 638 736 638H752Q752 650 760 650H768V642Q756 629 756 574Q762 574 768 562V558Q768 554 764 554Q768 542 772 542Q839 583 852 602Q809 670 800 670H792Q792 654 780 654H772V662L776 670L768 674H760ZM668 638V634Q668 604 732 562Q740 580 740 602Q734 620 696 662H688Q683 662 668 638ZM328 646V642Q334 618 420 618V634Q378 658 360 658Q328 656 328 646ZM556 618V562Q556 549 616 470Q630 422 640 422Q652 462 652 478Q652 555 588 594Q588 600 564 618ZM460 602V598Q460 546 536 502H544V510Q544 540 460 602Z" fill="param(fill) #111111" fill-opacity="param(fill-opacity) 1" stroke="param(outline) none" stroke-opacity="param(outline-opacity) 1" stroke-width="param(outline-width) 0" stroke-linejoin="round"/>
  </g>
</svg>
