<svg xmlns="http://www.w3.org/2000/svg" width="100%" height="100%" viewBox="0 0 1624.00 1624.00">
  <g transform="translate(112.00,1312.00) scale(1,-1)">
    <path d="M732 1050H744Q904 765 940 690L932 686H892V682Q1001 484 1024 434H952V430Q1124 123 1124 110H828V-42Q828 -50 820 -50H664Q656 -50 656 -42V110H348Q348 118 520 434H452Q469 485 584 686H540L532 690Q582 786 732 1050ZM736 962Q732 950 608 734H652L660 730L524 482H568L596 478Q596 466 424 158H1048V162Q950 332 876 474L884 478H948V482L812 730L820 734H864Q829 805 740 962ZM324 854Q345 833 492 554V546H456V542L464 526Q443 510 428 510H424Q380 577 380 594H420L324 766H320L228 594H268Q268 583 160 390H208Q216 389 216 382L84 138Q80 130 80 126H320Q328 125 328 118V86L300 70V22H372Q380 21 380 14V-18L376 -26L328 -22H260Q252 -22 252 -14V78H52Q18 78 0 86L140 342H92Q84 342 84 350L188 546H184Q162 550 152 550V558Q307 833 324 854ZM1112 734H1116Q1171 660 1272 466Q1240 458 1240 454Q1328 300 1328 286H1324Q1284 285 1284 278L1400 66L1392 62H1376Q1315 62 1188 58V-18Q1188 -26 1180 -26H1088Q1080 -26 1080 -18V14Q1081 22 1088 22H1144V58Q1123 58 1120 70V98Q1121 106 1128 106H1324V110Q1208 315 1208 330H1256Q1164 495 1164 506H1196Q1124 637 1124 642H1120Q1053 531 1048 530Q1024 546 1016 546Q1016 556 1112 734ZM704 110V-6H780V110Z" fill="param(fill) #111111" fill-opacity="param(fill-opacity) 1" stroke="param(outline) none" stroke-opacity="param(outline-opacity) 1" stroke-width="param(outline-width) 0" stroke-linejoin="round"/>
  </g>
</svg>
