<svg xmlns="http://www.w3.org/2000/svg" width="100%" height="100%" viewBox="0 0 1624.00 1624.00">
  <g transform="translate(112.00,1312.00) scale(1,-1)">
    <path d="M584 1200H628Q852 1200 1032 976Q1076 897 1076 840V816Q1076 742 1000 680Q1000 648 868 608Q863 604 840 604Q832 604 832 612Q875 658 896 756V760Q896 773 852 852Q832 1060 764 1060H744Q724 997 724 972V848Q724 821 680 744Q672 732 668 700Q668 633 776 568Q813 552 844 552H860Q953 552 1016 624H1020V600Q1004 512 864 396Q813 368 772 368H768Q596 368 484 632Q452 726 416 936Q400 1024 324 1112Q448 1200 584 1200ZM768 1016H772Q840 923 840 756Q844 756 844 720Q844 670 776 604H772Q740 732 740 840V864Q740 957 768 1016ZM964 412H968Q968 341 860 168Q826 124 808 -164Q783 -200 776 -200Q744 -200 716 104Q688 182 576 408H584Q711 316 760 316H776Q845 316 964 412Z" fill="param(fill) #111111" fill-opacity="param(fill-opacity) 1" stroke="param(outline) none" stroke-opacity="param(outline-opacity) 1" stroke-width="param(outline-width) 0" stroke-linejoin="round"/>
  </g>
</svg>
