<svg xmlns="http://www.w3.org/2000/svg" width="100%" height="100%" viewBox="0 0 1610.08 1610.08">
  <g transform="translate(105.04,1305.04) scale(1,-1)">
    <path d="M930 1116H962Q1088 1116 1142 992Q1142 989 1146 960Q1142 945 1142 908Q1262 857 1262 760L1258 740Q1346 683 1346 600V588Q1346 488 1190 424Q1123 416 1114 416Q1082 416 998 424V340Q998 244 1002 40H1006Q1266 40 1394 16V8Q1266 -16 702 -16H694Q161 -16 6 8V12Q6 36 462 40L466 60V232Q426 228 406 228H398Q246 244 246 360Q246 392 286 440Q258 477 258 512Q258 579 342 612Q369 612 374 660Q414 724 482 724H510Q566 716 566 696Q522 636 522 580V568Q522 444 682 388Q742 381 742 372Q742 281 630 244H550L522 248L526 208V40Q560 40 654 44Q843 40 906 40V404Q828 396 782 396Q632 396 566 532Q558 564 558 580Q558 644 622 704Q578 753 578 792V808Q578 923 738 960H746Q746 1064 886 1112Q913 1116 930 1116ZM698 -72Q1038 -72 1210 -92V-100Q1108 -116 834 -116H566Q309 -116 194 -100V-92Q265 -77 698 -72Z" fill="param(fill) #111111" fill-opacity="param(fill-opacity) 1" stroke="param(outline) none" stroke-opacity="param(outline-opacity) 1" stroke-width="param(outline-width) 0" stroke-linejoin="round"/>
  </g>
</svg>
