<svg xmlns="http://www.w3.org/2000/svg" width="100%" height="100%" viewBox="0 0 1614.72 1614.72">
  <g transform="translate(107.36,1307.36) scale(1,-1)">
    <path d="M540 1196H544Q616 1046 616 1004Q628 913 628 892Q751 1025 784 1036Q921 1104 1000 1104V1096Q887 946 816 920Q785 900 740 864V860H748L896 876V872L836 800H856Q899 800 928 804Q1061 804 1128 736V732Q1074 740 1000 740Q821 740 716 612H724Q1067 612 1244 452V444Q688 536 676 540Q612 394 612 364V336Q613 328 620 328H628Q656 328 656 376Q772 448 960 448H992Q1169 448 1312 336V328Q893 360 868 364H864V360Q928 338 1064 192L1140 64V60Q1099 60 832 272L804 288V284Q852 148 852 136H848Q745 216 708 320Q682 328 672 328H652Q608 178 608 88Q616 -79 616 -120Q616 -171 584 -196H580Q564 -144 560 -60Q564 -22 564 12V128Q547 304 492 304V300Q492 206 436 108H424V112Q424 144 404 292Q312 156 268 124Q268 118 252 108H248L268 208Q256 228 256 236H248L96 132H88Q130 265 268 340Q334 364 388 364Q468 364 556 316Q560 356 560 376V400Q560 434 528 496V524Q546 544 548 556H544Q384 424 356 420Q317 400 304 400H300V404Q330 476 448 584Q458 592 464 592V596H460Q407 596 184 456H180Q180 513 280 604Q294 604 324 640V648Q284 652 284 660Q303 674 444 740V744Q296 768 296 776Q342 804 368 804Q402 804 452 796V800Q395 886 372 1008H376Q453 976 532 824H536Q516 946 516 1040V1084Q525 1196 540 1196Z" fill="param(fill) #111111" fill-opacity="param(fill-opacity) 1" stroke="param(outline) none" stroke-opacity="param(outline-opacity) 1" stroke-width="param(outline-width) 0" stroke-linejoin="round"/>
  </g>
</svg>
