<svg xmlns="http://www.w3.org/2000/svg" width="100%" height="100%" viewBox="0 0 1624.00 1624.00">
  <g transform="translate(112.00,1312.00) scale(1,-1)">
    <path d="M440 1200H460Q563 1200 612 1072Q683 1072 740 976Q744 942 744 924Q744 916 736 868Q788 825 788 776Q788 756 784 716Q788 701 788 684L768 672Q747 672 728 700V708Q740 746 740 768V772Q740 807 680 856V860Q696 908 696 920V936Q683 1024 584 1024Q573 1024 548 1100Q511 1152 452 1152H436Q380 1152 336 1080H324Q319 1080 280 1088Q180 1077 180 1000V992Q180 976 192 924Q96 902 96 876L92 852V848Q92 843 100 804Q48 754 48 720V704Q48 689 76 624V616Q48 584 48 564V544Q48 507 108 476V460L88 400Q88 378 136 316Q136 240 228 240H544Q652 240 652 300V324L648 348Q648 366 716 388Q716 394 740 412H760Q766 412 772 396Q772 356 700 328Q700 192 544 192H464V188Q464 24 548 -144Q568 -164 572 -180Q566 -200 544 -200H244Q222 -200 216 -180Q216 -171 252 -128Q324 43 324 192H296Q120 192 116 240Q104 240 80 316Q44 348 44 384V392Q44 411 52 456Q0 496 0 544V568Q0 580 20 632Q0 670 0 704V712Q0 767 48 820L44 828V868Q44 900 92 944Q132 959 132 964V992Q132 1099 248 1136H272Q281 1136 316 1132Q367 1200 440 1200ZM976 1200H992Q1009 1200 1020 1108Q1060 969 1160 900Q1166 900 1184 876V868Q1184 847 1080 832Q1128 647 1268 484V472Q1268 453 1148 436Q1171 349 1268 192Q1268 166 1400 48V32Q1385 2 1064 -24Q1064 -85 1140 -176V-184Q1134 -200 1112 -200H856Q835 -200 832 -188V-180Q832 -172 888 -92Q904 -37 904 -24H900Q796 -24 580 20L568 36V48L656 124Q766 279 812 412L820 440Q700 450 700 472V484Q825 637 860 748Q868 748 888 832Q784 846 784 872Q785 883 868 948Q937 1033 964 1188Q964 1194 976 1200ZM868 884Q940 874 940 860V856Q908 678 776 500V492Q864 492 876 460Q806 230 692 100Q673 79 652 52Q773 24 960 24Q1145 24 1316 52Q1143 250 1092 468Q1129 492 1196 492Q1060 685 1028 844V848Q1028 878 1092 884H1100Q1003 987 988 1060L916 932Q910 932 868 884ZM468 984Q476 978 500 908Q514 884 584 868Q584 866 592 856V844Q582 824 556 824Q500 834 456 888Q436 932 436 948V964Q446 984 468 984ZM200 720H212Q282 720 324 628Q332 612 332 584Q332 579 312 564H300Q288 564 268 640Q244 661 176 684Q172 698 172 700Q178 720 200 720ZM568 500H600Q616 492 616 476Q616 458 548 444Q520 432 496 348Q482 344 480 344Q464 344 456 380Q456 439 532 488Q558 500 568 500ZM372 192V164Q372 35 292 -152H496V-148Q416 35 416 188V192ZM948 -24Q912 -123 912 -140V-144Q912 -157 984 -160Q1057 -160 1064 -136Q1064 -127 1024 -28H1016Q995 -28 948 -24Z" fill="param(fill) #111111" fill-opacity="param(fill-opacity) 1" stroke="param(outline) none" stroke-opacity="param(outline-opacity) 1" stroke-width="param(outline-width) 0" stroke-linejoin="round"/>
  </g>
</svg>
