<svg xmlns="http://www.w3.org/2000/svg" width="100%" height="100%" viewBox="0 0 1614.72 1614.72">
  <g transform="translate(107.36,1307.36) scale(1,-1)">
    <path d="M546 1196H554V1188H546ZM510 1184Q522 1173 554 1152H558L550 1180H558Q558 1148 622 1108H626L630 1144H634Q642 1143 642 1136V1128Q634 1089 634 1084V1068Q634 1052 638 1036Q634 1021 634 1004V996H642L662 1008V1004Q606 962 606 876Q606 847 626 804H634Q659 857 666 884H674L670 844Q674 844 698 864V860Q698 855 650 808L646 788V776Q646 754 694 684Q730 734 730 828V840Q730 871 714 1004V1016Q714 1032 722 1068Q706 1098 706 1108Q710 1116 710 1120H718Q719 1084 730 1084Q745 1093 782 1156Q790 1155 790 1148V1144Q742 1085 742 1044H758Q758 1038 734 1024Q742 974 742 964Q777 981 782 992Q778 1034 766 1048Q766 1054 778 1060H786V1044Q786 1028 794 992Q833 992 862 1072H870V1068Q847 988 822 988Q750 955 750 932Q758 873 758 844Q758 803 746 740H750Q786 755 790 768Q790 772 782 808H790Q798 787 798 784Q806 784 806 796H814V792Q814 757 750 724Q718 655 718 572Q718 488 742 488H746Q791 518 814 580Q781 612 754 612V620H774Q766 646 766 656L774 708H782L778 668V664Q778 654 786 628Q794 628 794 644H802V636Q802 603 830 592Q854 651 854 736V780Q854 801 878 848Q878 852 858 876V884Q878 868 882 868V872Q874 920 874 928Q882 941 882 948H890L886 928V920Q886 910 898 868Q942 908 958 908L934 876H986V868Q886 861 886 812Q882 796 882 784Q887 684 894 684Q945 705 958 740Q950 761 950 780Q962 780 978 796V788Q970 775 970 764V724Q1010 740 1054 764L1050 792V820Q1058 820 1058 808H1062Q1080 824 1082 824V820Q1074 795 1074 772Q1130 802 1130 844Q1140 880 1146 880V852Q1146 848 1142 848L1146 840V836Q1123 788 1106 768H1134Q1160 768 1186 792V784Q1186 755 1070 748Q1022 725 986 692Q1016 676 1026 676Q1034 680 1038 680V672Q1017 664 1014 664Q1014 644 1026 644V636H1022Q986 680 974 680Q892 680 830 464Q806 430 806 388Q810 388 810 384Q836 402 930 452Q930 472 974 564Q974 592 982 592L986 564Q1004 580 1014 580Q978 533 978 512Q1013 525 1030 548V540Q1029 522 974 488Q943 396 906 396Q906 388 854 368Q857 352 914 352Q914 344 906 344L842 348Q811 348 774 260H778Q799 264 802 264Q893 252 906 248Q945 248 1002 316Q1026 330 1026 352V400H1034Q1034 384 1046 372Q1038 371 1038 364V344Q1074 344 1122 408H1126V404Q1126 402 1098 360V356L1106 360H1118V352Q1002 324 1002 288Q994 287 994 280Q1057 300 1138 308Q1138 300 1150 300Q1274 319 1274 388V400H1282V392L1286 364Q1226 296 1198 296Q1203 280 1234 280H1254L1282 284V276Q1268 276 1262 260Q1245 268 1174 284H1098Q1057 284 906 220V216Q920 192 1042 184Q1100 132 1114 132Q1114 135 1158 168H1162L1130 128L1146 124Q1186 132 1198 132Q1198 121 1146 112Q1114 112 1030 168H1026V164Q1026 138 1058 100H1054Q1027 114 1010 172H1002Q904 172 886 216Q855 232 838 232H822Q801 232 758 220Q758 217 762 188Q762 155 746 36Q746 -104 814 -132Q838 -144 962 -176V-184L942 -188Q897 -188 838 -184Q768 -192 726 -192Q588 -188 582 -188Q542 -196 502 -196H470Q441 -196 438 -184V-180Q590 -145 590 -96V-56Q590 -7 606 92Q591 207 570 220H562Q490 201 490 140Q478 122 478 116H466Q466 128 450 128V136H482V160H478Q456 148 442 148Q426 152 398 152Q384 94 370 92V96Q378 122 378 132V140Q347 140 314 108H310L306 132Q394 152 394 172V176Q356 248 318 248H310Q301 243 262 176Q249 168 242 168V172Q270 195 270 228Q210 208 198 208Q161 208 146 248Q114 273 114 276H122Q135 273 186 220H194Q273 248 286 248V252Q286 284 254 284H238V292L266 296Q298 268 318 268Q351 268 386 236H390Q395 284 410 284H414V280Q402 260 402 240V228Q402 196 446 188L510 244Q574 271 574 288Q574 329 494 424Q464 476 434 476Q417 476 358 412Q345 404 334 404H318V412H326V416Q306 419 306 428V432H310Q323 424 334 424H342Q359 424 418 488H422Q422 492 302 544Q266 600 198 600Q186 600 162 584V588Q162 593 182 608Q169 636 146 636V644Q158 644 194 620Q210 612 238 612H250Q234 688 202 688Q142 739 122 824V828Q129 828 150 780H154Q157 780 178 812V808L166 768V748Q166 726 230 700H234L262 788Q222 824 222 856V860H230Q230 820 274 796Q322 859 322 880L318 920Q328 920 334 888V884Q334 861 274 752Q262 726 262 696V664Q263 656 270 656L306 684V680Q278 652 278 636V624Q303 580 358 564V596Q358 609 366 652H374Q366 601 366 580Q366 561 398 548Q434 548 434 608V624Q434 678 398 724L406 728Q466 668 466 584Q474 526 534 464Q560 448 594 384L622 376Q658 383 658 424V444Q658 469 594 508Q580 524 562 524V532H578V536L574 564H582Q582 517 650 492L646 500V544Q646 566 650 600Q650 628 494 756Q394 776 394 856Q390 856 390 876Q400 876 426 804L478 784V788Q460 895 454 904Q448 904 430 928H434L466 908Q470 948 470 968H478Q486 913 486 896L482 888Q482 784 574 736Q596 718 626 700V704Q554 832 554 852V884Q554 889 562 928V936Q518 991 518 996V1000Q518 1010 526 1036H534V1008Q537 960 578 960Q586 993 586 996Q574 1023 574 1040H582L590 1012H594Q606 1043 606 1064Q606 1092 514 1168ZM314 700H318V692H314ZM370 680H378V672H370Z" fill="param(fill) #111111" fill-opacity="param(fill-opacity) 1" stroke="param(outline) none" stroke-opacity="param(outline-opacity) 1" stroke-width="param(outline-width) 0" stroke-linejoin="round"/>
  </g>
</svg>
