<svg xmlns="http://www.w3.org/2000/svg" width="100%" height="100%" viewBox="0 0 1624.00 1624.00">
  <g transform="translate(112.00,1312.00) scale(1,-1)">
    <path d="M696 1084H716Q912 1084 1004 868Q1016 818 1016 780V760Q1016 746 1008 692Q1096 627 1096 524V516Q1096 371 932 308Q905 304 888 304H872L824 308Q748 216 748 212Q768 -47 768 -80L760 -84H676L668 -80L692 204Q649 276 628 300Q628 281 512 260Q369 260 308 424Q304 451 304 468V472Q304 589 420 656Q396 708 396 784Q396 966 592 1064Q637 1084 696 1084ZM364 988Q385 984 412 984V980Q368 880 368 800Q368 737 396 672Q268 597 268 484V456Q268 384 328 308Q304 282 304 280L352 224V252L356 280Q396 280 396 232V224Q402 224 424 252Q432 248 436 248V244L400 196L420 -68L412 -72H336L328 -68Q336 15 348 196Q333 209 296 276Q237 240 188 240Q61 240 4 380L0 408V444Q0 541 104 596Q80 661 80 708Q80 876 260 968Q308 984 364 988ZM1052 988Q1205 988 1300 832Q1321 799 1332 708Q1328 669 1320 632Q1400 572 1400 488V452Q1400 363 1280 292Q1237 280 1228 280H1184L1156 284L1088 200Q1092 102 1108 -68L1100 -72H1024Q1016 -72 1016 -64Q1032 158 1036 188Q984 268 984 280V284H988L1036 228H1040Q1040 238 1044 336Q1132 413 1132 512V532Q1132 635 1036 716V720Q1044 766 1044 784V832Q1044 878 1000 984H1004Q1024 984 1052 988ZM700 384Q699 363 644 308Q647 297 692 244H696V248Q696 289 704 380V384ZM736 356Q744 280 744 244Q778 272 808 312V316Q788 316 736 356ZM1076 324Q1084 255 1084 224L1144 288Q1108 301 1080 324Z" fill="param(fill) #111111" fill-opacity="param(fill-opacity) 1" stroke="param(outline) none" stroke-opacity="param(outline-opacity) 1" stroke-width="param(outline-width) 0" stroke-linejoin="round"/>
  </g>
</svg>
