<svg xmlns="http://www.w3.org/2000/svg" width="100%" height="100%" viewBox="0 0 1624.00 1624.00">
  <g transform="translate(112.00,1312.00) scale(1,-1)">
    <path d="M436 1200H456Q627 1200 816 1032Q1024 816 1024 608V580Q1024 372 828 272H820V280Q844 280 844 432Q844 626 700 824H692Q764 679 764 520Q764 381 728 260H712Q566 260 484 480Q476 535 476 576L504 960Q504 1102 436 1192ZM1264 656H1268Q1348 592 1388 416Q1396 399 1396 352V296Q1396 27 1196 -124Q1118 -172 1044 -172H1040Q951 -169 948 -148Q1108 -37 1172 148Q1196 226 1196 268V276H1192Q1186 189 1028 12Q892 -96 860 -96Q812 -23 812 40Q812 195 1028 352Q1264 532 1264 656ZM12 440H16Q79 361 216 328Q498 279 592 248Q748 153 748 40Q748 -16 724 -16H716Q468 -16 276 140H272Q363 -10 608 -84L696 -96V-104Q613 -200 504 -200H468Q293 -200 116 16Q4 174 4 320V356Q4 390 12 440ZM1196 288V280H1200V288Z" fill="param(fill) #111111" fill-opacity="param(fill-opacity) 1" stroke="param(outline) none" stroke-opacity="param(outline-opacity) 1" stroke-width="param(outline-width) 0" stroke-linejoin="round"/>
  </g>
</svg>
