<svg xmlns="http://www.w3.org/2000/svg" width="100%" height="100%" viewBox="0 0 1624.00 1624.00">
  <g transform="translate(112.00,1312.00) scale(1,-1)">
    <path d="M690 1200Q726 1170 726 1120L746 1132H750Q750 1071 774 1060Q774 1046 818 984Q834 988 834 1000H838Q874 962 890 912L918 916Q938 885 938 864Q947 864 954 868Q971 868 990 800H994Q994 809 1014 812Q1033 753 1066 728V696Q1094 696 1110 604L1118 608H1130V532Q1150 531 1150 524Q1138 475 1138 460H1146Q1146 428 1138 388Q1154 388 1154 376Q1139 344 1126 328Q1132 328 1138 316Q1106 160 1070 160V152Q1082 152 1082 144Q1015 77 990 40Q898 16 890 0Q890 -4 882 -4Q774 -4 774 36L766 32H762Q740 32 722 60V96Q722 145 770 176Q937 370 958 468L866 320Q761 179 722 172V352Q722 358 790 476Q842 582 842 624Q829 612 798 524L730 412H722Q714 470 714 548V616Q714 628 758 724V736H754L718 668H710Q694 779 694 808H690V780Q694 678 694 660H686Q641 732 634 732V728Q634 709 698 616Q702 550 702 516V408Q702 400 694 400Q596 513 558 616H554V608Q569 533 678 384Q702 365 702 344V224Q702 204 698 164H694Q571 247 466 400Q436 436 434 436V432Q503 285 698 128V92Q698 8 642 8Q637 -3 582 -28Q494 -21 494 0Q451 21 370 92Q374 99 374 108Q333 136 274 284Q268 284 262 296L266 320Q246 357 246 472Q282 634 282 644H286Q287 636 294 636Q310 696 322 696Q326 688 326 684H330Q340 723 370 764L382 756Q397 802 442 828L474 884H478V876H486Q486 881 502 912H506L518 904Q534 964 562 964Q587 1020 594 1020H606Q606 1043 634 1072Q634 1112 658 1112Q677 1200 690 1200ZM706 32Q712 32 718 20Q718 -200 694 -200H690L678 -188Q694 -46 694 24Z" fill="param(fill) #111111" fill-opacity="param(fill-opacity) 1" stroke="param(outline) none" stroke-opacity="param(outline-opacity) 1" stroke-width="param(outline-width) 0" stroke-linejoin="round"/>
  </g>
</svg>
