<svg xmlns="http://www.w3.org/2000/svg" width="100%" height="100%" viewBox="0 0 1624.00 1624.00">
  <g transform="translate(112.00,1312.00) scale(1,-1)">
    <path d="M144 1076H152Q204 907 292 440V408Q292 294 176 264L172 272V460H120V272Q120 264 112 264Q8 305 8 360Q0 360 0 412Q0 516 140 1068Q144 1068 144 1076ZM512 1076H516Q526 1076 576 836Q664 478 664 404Q664 318 552 256Q548 249 548 240V100H852V252Q855 264 884 264Q916 264 916 224V100Q1017 104 1064 104H1220V264Q1173 264 1120 340Q1108 376 1108 400V416Q1108 501 1240 1052Q1252 1076 1256 1076H1260Q1400 489 1400 408Q1400 295 1284 264L1280 272V460H1228V264H1268Q1288 264 1288 184V160Q1288 140 1284 100H1392Q1400 99 1400 92V48Q1400 40 1392 40Q1163 40 1072 -28Q1021 -65 988 -76L964 -40V-36Q980 -14 1048 36H1028Q921 36 756 -76Q720 -48 720 -32Q799 21 808 24V32H804L764 36Q666 27 512 -76H508L484 -44V-36Q486 -27 568 36H564Q429 36 276 -76Q263 -68 240 -32L324 36H320Q198 36 48 -68Q35 -76 28 -76L0 -40V-36Q74 32 88 32V36L48 40H8Q0 40 0 48V92Q1 100 8 100Q82 104 116 104V108Q112 152 112 184Q116 264 132 264H160Q180 264 180 172V148L176 100H484V248L392 324Q368 366 368 400Q368 511 512 1076ZM876 1072H880Q905 1049 968 732Q1028 507 1028 408Q1028 312 944 272Q924 264 916 264L912 272Q908 444 908 460H868Q860 459 860 452V388Q860 348 856 268Q852 268 852 264Q740 299 740 400V432Q740 486 876 1068ZM492 460Q488 394 488 360V268L508 264H524Q541 264 544 360V380Q544 406 540 460Z" fill="param(fill) #111111" fill-opacity="param(fill-opacity) 1" stroke="param(outline) none" stroke-opacity="param(outline-opacity) 1" stroke-width="param(outline-width) 0" stroke-linejoin="round"/>
  </g>
</svg>
