<svg xmlns="http://www.w3.org/2000/svg" width="100%" height="100%" viewBox="0 0 1624.00 1624.00">
  <g transform="translate(112.00,1312.00) scale(1,-1)">
    <path d="M548 1126H572Q665 1126 716 1034Q718 1034 732 1038Q827 1038 868 886Q868 872 816 782Q916 702 916 610V598Q916 499 784 454Q776 454 724 414Q672 386 596 386Q576 386 548 394V390Q557 -66 576 -66Q601 -107 616 -122V-126H428V-122Q464 -22 464 -6L476 390Q423 366 384 366H352Q324 366 288 406Q237 406 184 458Q152 494 152 550V566Q44 566 0 682V730Q0 802 96 886Q167 938 228 938H276V954Q276 1018 420 1098Q488 1126 548 1126ZM964 1082H976Q1153 809 1164 786H1160Q1073 814 1064 814L1312 478Q1308 478 1308 474L1108 526V522L1400 190Q1396 190 1396 186Q1065 242 1036 242V-78Q1036 -86 1028 -86H912Q904 -86 904 -78V242H900L580 206V214Q697 381 728 386Q888 473 888 478Q940 520 940 586V618Q940 702 856 786Q856 807 888 862Q892 869 892 878Q892 888 872 942Q880 946 964 1082Z" fill="param(fill) #111111" fill-opacity="param(fill-opacity) 1" stroke="param(outline) none" stroke-opacity="param(outline-opacity) 1" stroke-width="param(outline-width) 0" stroke-linejoin="round"/>
  </g>
</svg>
