<svg xmlns="http://www.w3.org/2000/svg" width="100%" height="100%" viewBox="0 0 1624.00 1624.00">
  <g transform="translate(112.00,1312.00) scale(1,-1)">
    <path d="M688 1200H696Q740 1200 740 1188V1140Q740 1129 700 1120Q681 1120 660 1140V1184Q667 1200 688 1200ZM896 1168Q924 1159 924 1120V1116Q924 1087 912 1084H868Q862 1084 844 1108V1148Q859 1168 896 1168ZM500 1164H524Q546 1164 556 1144V1136Q556 1076 504 1076Q472 1091 472 1116V1124Q472 1146 500 1164ZM364 1064H400Q408 1063 408 1056V1000Q408 990 376 984H364Q335 984 332 996V1052Q335 1064 364 1064ZM1004 1064H1036Q1067 1064 1072 1048V1020Q1072 980 1032 980Q1005 987 988 1012Q992 1064 1004 1064ZM804 1040Q864 1031 864 1008Q859 948 820 948Q787 948 780 992Q780 1008 804 1040ZM564 1032H580Q616 1032 616 996Q608 948 576 948H572Q535 948 528 1000Q528 1026 564 1032ZM252 924Q316 924 316 888Q316 836 260 836L228 852Q228 924 252 924ZM1128 924Q1154 924 1172 896V892Q1172 870 1148 840Q1084 840 1084 880V888Q1084 920 1128 924ZM700 900H720Q744 886 744 864V852Q744 829 716 816H696Q659 816 656 868Q672 900 700 900ZM576 864H584Q606 864 612 848V824Q612 793 592 784H564Q528 789 528 820V836Q544 864 576 864ZM828 864H848Q872 846 872 820Q863 784 852 784H832Q780 784 780 828Q799 864 828 864ZM992 864Q1036 864 1036 844Q1040 809 1040 804Q1015 780 1000 776Q956 783 956 816Q956 864 992 864ZM376 856H416Q444 838 444 816Q444 792 420 776H408Q360 776 360 804Q363 856 376 856ZM704 800H712Q789 800 804 688Q804 622 724 592H692Q618 592 596 692V700Q596 775 704 800ZM228 740H236Q260 740 276 716V676Q276 664 232 652H228Q192 657 192 688V700Q198 740 228 740ZM880 740H884Q928 740 928 684Q916 656 888 656H880Q840 656 840 696Q852 740 880 740ZM1188 740Q1208 711 1208 696V688Q1208 657 1192 652H1156Q1124 674 1124 680Q1124 736 1172 736Q1179 740 1188 740ZM528 736H536Q564 718 564 696Q564 655 516 652Q476 661 476 692Q476 729 528 736ZM1008 620Q1035 608 1044 588V572Q1044 542 1000 528Q956 540 956 568Q971 620 1008 620ZM404 616Q432 616 448 576Q445 547 416 520Q389 520 360 556Q367 616 404 616ZM828 612Q872 598 872 580V564Q863 524 832 524Q788 524 788 576Q788 607 828 612ZM572 608H580Q611 608 616 568Q616 524 576 524H568Q528 532 528 564V568Q528 600 572 608ZM672 572H716Q731 572 744 524Q744 492 712 492H692Q660 492 660 536V540Q660 570 672 572ZM1116 556Q1172 556 1172 508Q1163 468 1132 468Q1108 468 1088 496V504Q1096 556 1116 556ZM296 552Q316 534 316 532Q316 468 292 468L268 464Q232 469 232 500V528Q244 552 296 552ZM824 444H832Q872 429 872 388Q863 356 828 356Q788 356 788 392V408Q793 444 824 444ZM580 440Q624 432 624 400Q624 361 572 348Q532 368 532 416Q571 440 580 440ZM368 412Q404 402 412 388Q408 324 396 324H368Q328 330 328 360Q333 412 368 412ZM1032 408Q1063 408 1080 372Q1072 324 1040 324H1028Q988 328 988 364Q988 408 1032 408ZM504 312H516Q551 312 564 256Q564 231 512 224Q472 224 472 256Q487 312 504 312ZM892 312Q936 293 936 276Q929 224 884 224Q844 224 844 276Q844 304 892 312ZM700 276H716Q740 262 740 240V224Q724 173 724 80V-192Q724 -200 716 -200H684Q676 -200 676 -192V180Q664 190 660 228Q669 276 700 276Z" fill="param(fill) #111111" fill-opacity="param(fill-opacity) 1" stroke="param(outline) none" stroke-opacity="param(outline-opacity) 1" stroke-width="param(outline-width) 0" stroke-linejoin="round"/>
  </g>
</svg>
