<svg xmlns="http://www.w3.org/2000/svg" width="100%" height="100%" viewBox="0 0 1624.00 1624.00">
  <g transform="translate(112.00,1312.00) scale(1,-1)">
    <path d="M672 1184H736Q867 1184 912 1060Q924 1031 924 968Q924 892 876 696Q1085 844 1208 844Q1335 844 1384 692Q1400 645 1400 596V580Q1400 448 1232 396Q1147 372 1040 372H980Q984 362 1124 248Q1232 128 1232 32V12Q1232 -65 1096 -160Q1054 -184 1000 -184Q878 -184 776 -12L708 164H700Q586 -184 432 -184H412Q302 -184 196 -48Q176 -4 176 16V56Q176 173 428 368V372H392Q91 372 16 516Q0 547 0 588V600Q0 775 148 840Q198 844 200 844Q317 844 532 692H536V696Q484 871 484 972V980Q484 1119 592 1168Q646 1184 672 1184ZM604 472Q604 392 704 380H708Q792 393 792 464V480Q770 564 728 564H716Q604 564 604 472Z" fill="param(fill) #111111" fill-opacity="param(fill-opacity) 1" stroke="param(outline) none" stroke-opacity="param(outline-opacity) 1" stroke-width="param(outline-width) 0" stroke-linejoin="round"/>
  </g>
</svg>
