<svg xmlns="http://www.w3.org/2000/svg" width="100%" height="100%" viewBox="0 0 1624.00 1624.00">
  <g transform="translate(112.00,1312.00) scale(1,-1)">
    <path d="M622 1200Q659 1173 734 976Q818 764 818 624Q818 527 782 444V440H786Q804 513 970 688Q1102 848 1150 892Q1158 891 1158 884Q1110 720 1030 592Q1017 476 926 348H930Q1128 436 1138 436V432Q948 218 930 192L934 172Q900 132 854 132H850Q737 152 718 152Q690 105 690 12L706 -200H650Q642 -200 642 -192L662 148H658L442 112L438 120Q475 164 494 208H490L470 204Q415 204 386 272Q275 417 242 492Q246 492 246 496L438 392H442Q358 644 358 860V892L362 932H370Q420 738 526 652L586 580Q624 634 650 944Q650 959 618 1160Q618 1181 614 1196Z" fill="param(fill) #111111" fill-opacity="param(fill-opacity) 1" stroke="param(outline) none" stroke-opacity="param(outline-opacity) 1" stroke-width="param(outline-width) 0" stroke-linejoin="round"/>
  </g>
</svg>
