<svg xmlns="http://www.w3.org/2000/svg" width="100%" height="100%" viewBox="0 0 1624.00 1624.00">
  <g transform="translate(112.00,1312.00) scale(1,-1)">
    <path d="M708 890Q836 769 836 582V530Q836 355 736 170Q707 134 692 134Q564 325 564 526V562Q564 764 668 870Q691 890 708 890ZM424 842Q568 788 568 734Q548 522 544 514Q522 527 420 622Q372 649 372 658Q379 842 424 842ZM992 842Q1028 735 1028 654Q949 603 856 510L852 518V558Q852 616 828 754Q926 842 992 842ZM192 686H228Q359 686 528 498Q551 466 592 290L664 138V134Q520 149 308 330Q160 490 160 662V674Q163 686 192 686ZM1216 686H1236L1244 682Q1240 674 1240 670Q1240 356 848 166Q757 134 736 134V138Q736 147 816 314Q848 488 900 534Q1049 686 1216 686ZM156 474Q198 474 228 402Q386 208 556 154Q556 151 612 126V118L592 114H556Q263 114 60 302Q0 380 0 438Q106 474 156 474ZM1220 470H1244Q1341 470 1400 430V426Q1400 329 1212 206Q1020 110 880 110H836Q810 110 780 118V126Q939 176 1088 306Z" fill="param(fill) #111111" fill-opacity="param(fill-opacity) 1" stroke="param(outline) none" stroke-opacity="param(outline-opacity) 1" stroke-width="param(outline-width) 0" stroke-linejoin="round"/>
  </g>
</svg>
