<svg xmlns="http://www.w3.org/2000/svg" width="100%" height="100%" viewBox="0 0 1624.00 1624.00">
  <g transform="translate(112.00,1312.00) scale(1,-1)">
    <path d="M684 1192H724Q872 1192 992 1032Q1020 920 1020 872V836Q1020 772 904 616Q904 602 876 572Q712 675 712 696Q594 903 448 960Q336 993 328 1000V1004Q357 1072 396 1072Q575 1192 684 1192ZM1112 996Q1191 946 1288 852Q1400 713 1400 620V600Q1400 372 1180 292Q1151 280 1100 280Q1020 280 844 344L840 352Q899 555 940 564L1016 656Q1088 787 1088 976Q1098 996 1112 996ZM304 928H336Q465 928 608 752L648 664Q598 634 496 556Q400 547 324 520Q233 479 148 388Q130 370 88 296H72Q0 355 0 560V624Q0 843 216 916Q264 928 304 928ZM696 600Q774 600 812 500Q816 478 816 468Q816 374 688 352Q613 352 576 448Q572 470 572 480Q572 570 696 600ZM504 484Q511 475 520 416Q556 352 556 320Q556 289 540 156Q540 12 668 -160L680 -188L672 -192H520Q374 -192 224 -80Q132 13 132 144Q132 256 188 316Q249 418 388 460Q424 472 504 484ZM632 300 640 296H700Q723 296 764 300Q775 300 972 212Q1015 200 1036 200H1064Q1132 200 1316 248L1320 240Q1320 147 1212 -36Q1076 -184 1012 -184H824Q719 -113 676 -64Q620 37 620 176Q625 290 632 300Z" fill="param(fill) #111111" fill-opacity="param(fill-opacity) 1" stroke="param(outline) none" stroke-opacity="param(outline-opacity) 1" stroke-width="param(outline-width) 0" stroke-linejoin="round"/>
  </g>
</svg>
