<svg xmlns="http://www.w3.org/2000/svg" width="100%" height="100%" viewBox="0 0 1624.00 1624.00">
  <g transform="translate(112.00,1312.00) scale(1,-1)">
    <path d="M530 1200H538Q635 1192 646 1192H662V1188Q656 1169 570 1128Q456 1034 410 944L402 940Q310 1039 310 1068V1076Q422 1200 530 1200ZM862 1176Q980 1161 1078 1088Q1098 1061 1098 1052Q1033 933 966 884Q851 851 754 756Q754 752 710 716H702Q609 810 510 840Q454 881 430 912Q478 1035 718 1172Q751 1172 862 1176ZM266 1012H270Q293 1002 330 924Q432 817 558 764Q750 646 750 340V332Q750 244 730 244H698Q408 244 314 436Q258 555 258 772V856Q258 914 266 1012ZM1126 1012H1130V1008Q1130 979 1142 932Q1134 864 1134 840V740Q1134 411 982 320Q925 272 806 248L790 276Q810 311 810 352Q810 454 734 656Q734 717 978 840Q1066 913 1126 1012ZM658 204 706 200H718Q726 199 726 192V180Q726 78 718 -4Q722 -80 722 -168V-192Q722 -200 714 -200H654L642 -192Q638 -106 638 -64V-16Q638 147 658 204Z" fill="param(fill) #111111" fill-opacity="param(fill-opacity) 1" stroke="param(outline) none" stroke-opacity="param(outline-opacity) 1" stroke-width="param(outline-width) 0" stroke-linejoin="round"/>
  </g>
</svg>
