<svg xmlns="http://www.w3.org/2000/svg" width="100%" height="100%" viewBox="0 0 1614.72 1614.72">
  <g transform="translate(107.36,1307.36) scale(1,-1)">
    <path d="M744 1144 748 1124V1096Q748 1080 760 1028Q760 1019 756 1012Q767 957 780 948Q780 931 772 916Q779 916 792 908Q792 904 788 896L792 840Q788 832 788 828Q796 827 796 820V800L788 788Q794 788 800 776Q796 752 796 740Q804 739 804 732V724Q796 689 796 680Q804 676 808 676V672Q808 660 796 640Q804 639 804 632V628Q804 617 796 604L800 564Q792 528 792 524Q796 524 804 520L776 428Q768 417 740 284Q720 274 720 252V192H728Q800 444 816 468Q831 468 840 512Q849 556 860 556H868Q868 584 876 600L884 596Q930 629 948 676Q961 676 984 704Q996 704 1016 732Q1027 732 1068 768Q1119 800 1140 800Q1163 824 1212 848V840Q1170 784 1124 648Q1100 634 1100 628Q1104 620 1104 616Q1080 592 1072 592V584H1076L1084 588L1088 580Q1048 548 1048 536Q1018 481 992 468L996 460V456Q962 426 948 392Q941 392 928 384L936 368Q900 340 892 340L896 320Q887 311 844 288L848 280Q796 242 796 232Q796 227 752 184V180Q759 180 872 272Q885 280 896 280L912 272Q972 300 996 324H1004Q1004 312 1020 304Q1046 348 1076 348Q1084 344 1088 344Q1088 354 1260 372Q1260 363 1284 356Q1371 376 1396 376Q1319 306 1256 264Q1256 260 1252 260L1224 264Q1219 240 1212 240Q1204 244 1200 244Q1137 208 1112 208L1092 212V188L1052 192H1048Q1048 186 1040 176L992 184Q992 174 984 164L956 168H944Q944 159 940 152L880 164L884 156Q884 148 876 148Q848 152 844 152H828V148Q1027 148 1144 28Q1159 21 1188 -20V-24H1184Q1140 -8 1132 -8Q1123 -8 1088 -12Q1041 0 1012 0L992 -4Q992 16 944 20Q880 54 880 60Q865 88 860 88H832Q820 88 760 124H756Q756 117 828 60Q891 15 908 -44Q908 -53 920 -92H916L864 -36H860L848 -44Q822 -8 768 24Q746 87 724 104Q736 -59 736 -140L728 -144H688L680 -140Q700 45 700 64Q696 79 696 108Q681 107 556 -32Q556 -48 512 -48Q478 -96 472 -96V-92Q472 -19 516 12Q516 43 664 112Q672 122 672 124H668Q645 124 536 72Q498 61 400 48Q400 43 376 36Q372 44 372 48H364Q360 48 336 20L316 32H300Q277 32 180 4Q198 49 336 104Q373 144 412 144L484 160H580V164Q513 172 396 204Q389 204 348 224Q320 224 320 244Q290 244 276 272Q240 272 240 300Q172 323 172 348Q156 348 112 404Q83 404 80 444Q4 472 4 484V488H8Q148 488 348 404Q405 367 456 348Q553 245 612 216Q656 172 668 172V176Q668 193 552 284Q548 300 504 320Q504 331 456 360Q456 392 432 392Q410 432 380 444Q384 449 384 464Q358 474 356 484V508Q320 516 320 528L332 548Q300 557 300 580Q300 603 276 620L280 644Q252 668 252 672Q256 677 256 692Q236 702 236 724L240 732Q216 777 192 956V972H196Q209 967 244 892Q258 892 328 820Q344 820 356 780L364 784H372Q392 766 392 736L408 744Q420 696 444 696Q444 659 476 648Q476 612 504 612Q504 568 524 568Q529 568 540 524Q560 524 560 492V480Q589 480 596 424Q612 424 644 288Q644 280 684 188H688V200Q673 274 652 320Q660 330 660 332V336Q628 403 628 416L644 432Q630 438 616 496Q623 500 636 500Q620 527 620 548V556Q621 564 628 564Q624 573 612 640Q616 656 616 668Q616 680 608 700Q621 708 628 708L616 768H632Q624 797 624 800V804L636 824Q628 837 628 848V856Q628 862 644 868L640 888V908Q660 920 660 972Q714 1079 736 1144Z" fill="param(fill) #111111" fill-opacity="param(fill-opacity) 1" stroke="param(outline) none" stroke-opacity="param(outline-opacity) 1" stroke-width="param(outline-width) 0" stroke-linejoin="round"/>
  </g>
</svg>
