<svg xmlns="http://www.w3.org/2000/svg" width="100%" height="100%" viewBox="0 0 1614.72 1614.72">
  <g transform="translate(107.36,1307.36) scale(1,-1)">
    <path d="M696 1196Q703 1196 720 1136L764 1120Q785 1085 824 992H828Q831 992 932 1020Q932 1016 936 1016Q872 788 872 744Q877 680 888 680Q932 731 1000 904Q1056 872 1084 872Q1109 872 1144 932Q1166 924 1212 924Q1244 940 1256 940H1260L1256 900Q1256 878 1304 844Q1276 717 1268 712Q1268 668 1308 668Q1308 663 1364 644V632Q1343 616 1304 512Q1144 432 1144 376Q1300 349 1300 316Q1341 275 1396 260V248Q1217 162 1208 148Q1204 108 1196 108H1168Q1151 108 1084 124H1056Q1022 124 1008 100V88Q1008 70 1084 -36V-40Q994 -16 964 -16H952Q916 -28 912 -28Q846 24 764 52Q738 84 720 84V80Q720 -12 772 -188L760 -196H744Q722 -196 700 68V84H696Q696 73 536 -56Q476 -100 452 -100Q472 -12 472 12V20Q472 68 428 68Q353 68 244 8Q244 12 240 12Q252 55 252 84V96Q248 115 176 120Q169 116 160 116L156 124Q156 128 160 128Q133 191 56 212Q11 224 4 224V236Q158 332 220 332L312 348Q312 417 200 484L72 616V620Q188 638 188 696V704Q188 750 124 820V824Q164 868 164 872V912L160 940H164Q260 940 292 896Q304 896 320 888Q320 897 356 940H360Q409 784 456 784Q479 784 484 696Q484 660 540 648L536 656V668Q536 724 492 896Q488 911 488 940V964H496Q549 916 568 916Q592 980 592 1040Q588 1075 588 1100Q592 1100 592 1104L612 1100Q642 1109 696 1196Z" fill="param(fill) #111111" fill-opacity="param(fill-opacity) 1" stroke="param(outline) none" stroke-opacity="param(outline-opacity) 1" stroke-width="param(outline-width) 0" stroke-linejoin="round"/>
  </g>
</svg>
