<svg xmlns="http://www.w3.org/2000/svg" width="100%" height="100%" viewBox="0 0 1619.36 1619.36">
  <g transform="translate(109.68,1309.68) scale(1,-1)">
    <path d="M692 1198Q816 1061 824 962Q836 896 836 854Q836 776 744 510Q732 466 732 446V430Q733 422 740 422Q969 742 1100 742Q1152 750 1192 770L1196 762Q1196 607 1112 542Q1047 454 960 454Q960 450 924 438V434H936Q960 434 1132 482H1156Q1195 482 1260 446V442Q1182 302 1068 302Q964 314 784 350H780V346Q1072 208 1072 62V26Q1072 18 1064 18H1040Q900 18 744 286H740V282Q844 -175 844 -198Q792 -167 760 14Q732 155 704 230H696V226Q696 60 560 -90Q542 -112 460 -130Q440 -106 440 -66Q440 12 608 242Q648 317 648 342Q454 170 288 170H280Q157 174 140 194Q287 326 400 326Q557 350 648 382V386L500 422Q422 439 276 558Q176 692 176 754Q172 776 172 798L180 802H184Q367 802 500 626L660 446V450Q536 775 536 838Q532 858 532 890Q532 1024 692 1198Z" fill="param(fill) #111111" fill-opacity="param(fill-opacity) 1" stroke="param(outline) none" stroke-opacity="param(outline-opacity) 1" stroke-width="param(outline-width) 0" stroke-linejoin="round"/>
  </g>
</svg>
