<svg xmlns="http://www.w3.org/2000/svg" width="100%" height="100%" viewBox="0 0 1619.36 1619.36">
  <g transform="translate(109.68,1309.68) scale(1,-1)">
    <path d="M506 1198H510Q542 1195 626 954Q693 847 714 786Q710 745 710 722V706Q710 702 706 702L710 694V670Q710 621 658 550Q650 535 650 518V510L654 482Q738 592 774 622Q813 634 910 722Q942 738 962 738H966Q966 733 974 694V686Q932 590 790 438Q717 386 662 386Q678 344 718 218H726Q726 283 798 366Q816 399 1086 410Q1167 410 1218 414L1222 406Q1101 274 1038 274Q1020 274 894 158Q870 150 746 142Q695 -198 622 -198Q622 -194 618 -194Q710 63 710 138Q688 126 618 118Q478 118 294 386Q178 565 178 582V602H182Q413 354 534 354Q574 347 666 254V258Q633 386 618 386Q470 386 386 566Q378 570 242 810H246Q326 774 486 614Q486 609 566 534Q570 563 574 570Q574 591 498 702Q498 710 494 710L498 738V774Q498 816 478 950Z" fill="param(fill) #111111" fill-opacity="param(fill-opacity) 1" stroke="param(outline) none" stroke-opacity="param(outline-opacity) 1" stroke-width="param(outline-width) 0" stroke-linejoin="round"/>
  </g>
</svg>
