<svg xmlns="http://www.w3.org/2000/svg" width="100%" height="100%" viewBox="0 0 1624.00 1624.00">
  <g transform="translate(112.00,1312.00) scale(1,-1)">
    <path d="M650 1200H654Q740 1200 778 1088L782 1072Q786 1072 814 1080H818Q858 1080 858 988Q901 974 926 960Q922 944 910 844L998 864L1002 856V772Q1050 739 1050 712V696Q1050 667 1026 596H1030Q1056 608 1086 608Q1110 608 1110 560Q1110 546 1090 516V512Q1090 492 1154 480V472Q1154 411 1098 364Q1164 337 1166 328Q1164 293 1114 188Q1188 165 1194 156Q1188 121 1106 80V76L1182 48V36Q1132 -20 1082 -20V-24L1122 -84V-100Q1122 -108 1114 -108H1090Q1062 -108 1002 -112Q998 -140 998 -144H1002Q996 -168 990 -168Q942 -148 838 -132Q817 -126 734 -20L726 -16H718Q691 -16 678 -100Q656 -200 642 -200Q642 -194 626 -184Q666 -35 666 -32Q666 -8 650 -8Q632 -8 606 -80Q569 -120 494 -156Q494 -161 474 -176Q444 -176 430 -136H350L330 -140L326 -132Q354 -72 354 -60H342Q230 -42 230 -20Q263 20 290 20V24Q216 69 206 88V100Q241 132 306 132Q206 224 206 272Q219 280 270 288V292Q226 348 226 388Q249 400 282 412Q282 420 254 520Q314 547 314 556Q320 656 334 656Q339 656 378 664Q354 702 354 760Q422 785 422 792Q418 889 418 916L426 920Q441 920 486 912L490 920V936Q490 1028 558 1072Q574 1122 650 1200Z" fill="param(fill) #111111" fill-opacity="param(fill-opacity) 1" stroke="param(outline) none" stroke-opacity="param(outline-opacity) 1" stroke-width="param(outline-width) 0" stroke-linejoin="round"/>
  </g>
</svg>
