<svg xmlns="http://www.w3.org/2000/svg" width="100%" height="100%" viewBox="0 0 1624.00 1624.00">
  <g transform="translate(112.00,1312.00) scale(1,-1)">
    <path d="M700 1200Q768 1189 768 1144L744 948V880Q744 805 788 672Q825 732 860 1004Q872 1104 908 1104Q960 1090 960 1056Q960 1043 876 788Q864 711 864 660Q864 588 876 588Q944 648 980 848Q988 900 1004 900Q1040 900 1040 852V848Q1040 812 964 648Q920 532 920 440V376H924Q995 419 1064 624Q1088 652 1120 652H1136Q1145 652 1152 616V592Q1152 544 1016 388Q928 168 888 104Q803 5 756 -20Q744 -35 744 -56V-68Q752 -165 752 -176V-180Q742 -200 720 -200H680Q658 -200 648 -180V-176Q656 -79 656 -68V-56Q656 -19 576 32Q486 113 416 312Q411 367 300 492Q249 551 248 592V616Q255 652 264 652H280Q345 652 372 524Q401 441 476 376H480V440Q480 578 368 804Q360 820 360 848V852Q360 900 396 900Q415 900 444 732Q488 615 528 588Q536 610 536 668Q536 788 448 1020L440 1056Q440 1093 496 1104Q539 1104 568 808Q584 737 608 672H612Q656 805 656 880V948L632 1144Q632 1189 700 1200Z" fill="param(fill) #111111" fill-opacity="param(fill-opacity) 1" stroke="param(outline) none" stroke-opacity="param(outline-opacity) 1" stroke-width="param(outline-width) 0" stroke-linejoin="round"/>
  </g>
</svg>
