<svg xmlns="http://www.w3.org/2000/svg" width="100%" height="100%" viewBox="0 0 1619.36 1619.36">
  <g transform="translate(109.68,1309.68) scale(1,-1)">
    <path d="M646 1198Q757 1059 930 930Q1182 718 1182 574V538Q1182 383 962 218Q916 190 874 190H842Q808 190 654 270V266Q662 -136 678 -194L670 -198H626Q618 -198 618 -190Q626 185 626 274H542Q303 274 246 486Q218 544 218 614V646Q218 793 470 962Q609 1097 642 1198Z" fill="param(fill) #111111" fill-opacity="param(fill-opacity) 1" stroke="param(outline) none" stroke-opacity="param(outline-opacity) 1" stroke-width="param(outline-width) 0" stroke-linejoin="round"/>
  </g>
</svg>
