<svg xmlns="http://www.w3.org/2000/svg" width="100%" height="100%" viewBox="0 0 1624.00 1624.00">
  <g transform="translate(112.00,1312.00) scale(1,-1)">
    <path d="M592 1200H612Q652 1175 652 1128Q652 1098 656 988Q649 916 612 872Q609 867 604 800Q643 132 664 132Q697 -39 704 -40Q848 481 848 552V564Q828 584 828 636V656Q858 876 900 876Q900 880 904 880H924Q968 880 968 808Q968 681 896 564Q873 564 860 416Q812 162 748 -44Q945 66 1040 348Q1066 464 1076 464Q1084 451 1084 440V416Q1084 180 904 -4Q814 -74 796 -96H1392Q1400 -97 1400 -104V-192Q1400 -200 1392 -200H8Q0 -200 0 -192V-104Q1 -96 8 -96H644Q405 204 392 288Q374 277 316 172L296 160Q296 164 292 164Q354 324 380 324Q419 324 532 148Q564 104 644 24V28Q576 283 576 656V864Q540 940 540 992V1080Q540 1200 592 1200Z" fill="param(fill) #111111" fill-opacity="param(fill-opacity) 1" stroke="param(outline) none" stroke-opacity="param(outline-opacity) 1" stroke-width="param(outline-width) 0" stroke-linejoin="round"/>
  </g>
</svg>
