<svg xmlns="http://www.w3.org/2000/svg" width="100%" height="100%" viewBox="0 0 1619.36 1619.36">
  <g transform="translate(109.68,1309.68) scale(1,-1)">
    <path d="M594 1198H598Q610 1198 618 1094L646 1118H650Q634 1025 634 1014Q666 1004 666 998Q622 925 622 906V826L626 798Q653 799 690 882L726 906H734Q800 906 822 758V734Q822 642 778 598H774V726Q774 803 730 838Q702 726 670 726Q630 707 630 702V530Q630 467 626 322H630Q653 349 694 430Q716 446 734 446Q754 409 754 398Q710 383 710 326V302H714Q817 378 866 378Q968 378 1090 310L1094 302V298H1090Q1069 298 1054 294L934 302Q794 289 670 206Q618 147 618 38Q618 12 614 -14Q618 -43 618 -86V-122Q618 -150 658 -194L650 -198H562L554 -194L590 -150Q594 -112 594 -78V2Q594 61 518 118Q439 213 346 366Q325 366 314 334H306V402Q307 410 314 410H330Q450 410 550 206Q550 172 586 102H590V106Q594 248 594 330V346Q594 480 538 530H534Q500 382 490 382H486Q466 438 466 498Q466 602 526 662Q564 662 590 606H594V610Q598 787 598 886Q553 913 510 918L474 830H466Q462 870 462 890V894Q462 941 518 966Q534 983 534 998H542L582 970V974Q582 1001 550 1022Q538 1043 538 1078Q558 1090 570 1090Q572 1090 582 1082Z" fill="param(fill) #111111" fill-opacity="param(fill-opacity) 1" stroke="param(outline) none" stroke-opacity="param(outline-opacity) 1" stroke-width="param(outline-width) 0" stroke-linejoin="round"/>
  </g>
</svg>
