<svg xmlns="http://www.w3.org/2000/svg" width="100%" height="100%" viewBox="0 0 1614.72 1614.72">
  <g transform="translate(107.36,1307.36) scale(1,-1)">
    <path d="M480 1196H488Q383 586 380 364V360H384Q476 685 596 912Q634 989 724 1084H728V1080Q589 861 512 572H520Q536 604 556 604Q556 600 560 600L552 560Q566 560 584 624Q594 632 600 632V656Q600 692 632 704Q636 696 636 692Q662 716 680 716H684V712Q674 644 628 644V636H636Q687 660 704 704L776 728H788Q796 727 796 720V716L792 708H800L808 712Q828 707 828 700L816 684V680L832 692Q880 692 880 676Q872 675 872 668Q884 668 884 660L880 652Q968 652 968 604V600L948 596V592Q1010 570 1016 548L1012 540Q1072 520 1072 488Q1064 487 1064 480Q1104 480 1116 448Q1124 432 1124 424Q1120 424 1120 420Q1146 420 1160 360Q1188 338 1188 316Q1188 308 1180 308Q1124 321 1124 360V372Q1098 372 1084 420Q1065 424 1044 476L1028 488V484L1036 472V468Q1036 460 1028 460H1008V452L1056 424Q1064 398 1064 388V376L1056 364Q1096 333 1096 288Q1107 288 1128 204Q1140 185 1156 180Q1180 154 1180 128V124Q1180 116 1172 116H1168Q1136 141 1136 156Q1128 152 1124 152Q1116 156 1112 156Q1140 125 1140 104L1136 96Q1144 54 1144 44L1140 28Q1140 0 1168 -40V-48Q1168 -100 1148 -100V-116Q1164 -133 1164 -156V-160L1156 -172Q1132 -172 1124 -112Q1108 -112 1108 -92H1104V-116Q1104 -120 1112 -148V-172Q1112 -178 1100 -184Q1080 -177 1080 -164H1076Q1076 -181 1064 -196Q1040 -188 1040 -164V-160Q1040 -149 1048 -136L1032 -120Q1025 -124 1016 -124Q988 -34 968 12Q950 97 896 136Q871 136 844 176Q782 212 776 212Q772 200 752 200Q716 208 716 220Q688 204 676 204Q650 212 640 212Q584 212 584 188Q563 184 560 184Q539 184 512 216Q456 220 456 228Q416 228 408 168Q356 -131 356 -192L348 -196H292Q281 -196 260 84Q212 493 212 736V828H220V824Q220 803 304 280H308Q312 302 312 312Q312 668 480 1196ZM788 664Q788 662 784 648Q799 656 816 656V660ZM620 600H624Q658 620 720 636L732 660H724Q646 636 620 600ZM724 616 732 604V600Q732 586 716 568H728Q741 580 748 580Q758 580 780 576Q796 580 812 580Q829 575 836 560Q836 555 816 540H812Q803 540 796 544H792V540L884 476Q888 476 888 472L896 476H920L932 468V472Q932 481 896 492Q876 515 876 560Q859 577 812 588Q808 595 808 604H784Q770 616 736 616ZM616 560H620Q655 560 684 608H680Q616 588 616 560ZM892 596V592H908V596ZM912 564Q968 495 976 480H980V484Q952 564 912 564ZM672 556 676 548V544Q662 524 632 524Q619 524 604 536Q508 485 464 400Q452 372 436 296V292H440Q515 415 652 452Q670 460 692 460V456Q700 460 704 460L740 456Q740 468 764 480H784L804 476V468Q804 466 796 456H800L808 460Q829 460 844 436Q844 428 832 428V424Q896 424 896 400V388Q904 387 904 380L900 372Q940 372 948 320Q983 280 996 280Q984 300 984 312Q988 336 988 348Q957 348 936 412Q902 433 864 440Q847 457 832 496Q771 536 768 536Q768 516 748 516H736Q706 516 692 556ZM980 524V516L996 512Q996 518 984 524ZM484 492Q476 456 476 452Q482 452 488 464V492ZM944 456Q952 443 952 436H956V448Q956 456 948 456ZM424 236Q484 256 580 276Q660 316 660 324Q679 348 684 348Q701 348 728 344L812 384V388Q737 436 680 436Q545 436 424 244ZM944 420Q948 420 956 416V432Q950 432 944 420ZM776 428V424Q780 424 848 384L852 392L780 428ZM1008 384Q1008 380 1004 372L1024 360V364Q1014 384 1008 384ZM860 372V368Q884 353 892 324Q925 291 948 244H952V260Q928 289 928 304V324Q915 324 884 364ZM776 340Q776 311 732 308L712 312Q712 295 684 288Q678 288 648 296Q648 292 644 292Q648 284 648 280Q640 267 640 260H656Q731 248 736 248L764 256Q769 256 796 232Q811 240 832 240Q851 240 868 220V216Q868 214 848 192H888L908 176H928Q915 217 880 236Q860 246 860 268V292L864 300Q841 323 816 332Q816 340 812 340Q809 340 788 336Q780 340 776 340ZM1020 300Q1020 287 1004 272Q1012 232 1032 200Q1032 188 1056 148Q1060 140 1060 136H1064V164Q1036 189 1036 228Q1020 242 1020 260Q1020 274 1024 296V300ZM904 284V276L944 212Q944 216 948 216Q918 271 904 284ZM540 232V228H544Q552 228 580 244V248H568Q540 243 540 232ZM628 244V240H636V244ZM1072 228V224Q1072 218 1084 212V228ZM988 208 984 200Q991 200 1000 172Q996 165 996 156Q1048 94 1048 80L1044 52Q1068 41 1068 24H1072L1076 60L1036 124L1008 192ZM956 156Q961 132 972 132V140L968 160H964ZM1092 148V140H1096V148ZM984 116Q984 105 972 92Q975 80 1004 48Q1012 35 1012 24V20Q1012 6 1008 -16Q1032 -60 1032 -88H1036Q1036 -84 1040 -76Q1040 -73 1036 -52L1040 -24Q1040 36 988 116ZM1100 108Q1096 58 1096 48Q1104 36 1104 20H1108Q1108 33 1112 40L1108 64V84Q1108 88 1112 88Q1107 108 1100 108ZM1072 20Q1072 16 1068 8Q1088 -2 1088 -24V-28Q1088 -36 1068 -36Q1068 -53 1100 -80V-84H1104Q1104 -74 1108 -52Q1104 -31 1104 -28Q1104 -20 1112 0Q1108 7 1108 16H1104Q1104 -8 1096 -8Q1076 4 1076 20ZM1064 -84V-88L1072 -156H1076Q1076 -151 1080 -116Q1068 -96 1068 -84Z" fill="param(fill) #111111" fill-opacity="param(fill-opacity) 1" stroke="param(outline) none" stroke-opacity="param(outline-opacity) 1" stroke-width="param(outline-width) 0" stroke-linejoin="round"/>
  </g>
</svg>
