<svg xmlns="http://www.w3.org/2000/svg" width="100%" height="100%" viewBox="0 0 1614.72 1614.72">
  <g transform="translate(107.36,1307.36) scale(1,-1)">
    <path d="M548 1156H552Q696 902 696 816V736Q696 704 692 660Q696 654 696 636H700Q740 742 948 892Q974 912 988 912H992Q956 827 912 676Q895 642 824 576V572Q902 379 920 316Q920 312 928 276Q1008 422 1060 460Q1068 482 1312 600Q1316 592 1316 588Q1316 557 1244 448Q1227 358 1144 284Q1138 273 992 160H996Q1022 172 1052 172H1072Q1181 172 1396 112V100Q1279 72 1168 16L1120 8Q1038 8 904 84V88Q913 89 956 132H952Q765 -11 712 -24Q724 -137 724 -156H688Q680 -156 680 -148V-132Q680 -116 684 -116L680 -88V-36Q680 96 644 96Q460 204 276 296Q191 344 104 480L20 620Q24 620 24 624Q37 624 136 580Q295 543 364 460L444 348H448Q448 500 512 500Q512 508 612 552V556H608Q477 520 460 520Q387 544 276 696Q241 722 220 748V752Q233 752 240 756Q255 756 488 688Q503 684 524 684H532Q532 702 496 904Q536 1076 536 1092Q536 1121 548 1156ZM688 592Q676 544 676 536Q680 508 680 488L672 484H668Q668 512 620 556L624 508V464Q624 340 540 212H536Q520 212 496 236V232Q559 147 672 108Q676 148 676 168Q676 233 668 452L672 472H680Q695 365 704 4Q708 4 708 -12Q888 96 896 156Q875 128 856 128H852Q748 268 748 356Q748 386 788 528V548Q780 548 700 512L696 520V552L692 592ZM344 236Q390 236 492 168V160Q352 64 268 64H260Q231 64 80 108Q14 120 4 120V124Q67 164 268 224Q323 236 344 236ZM980 156V152H988V156Z" fill="param(fill) #111111" fill-opacity="param(fill-opacity) 1" stroke="param(outline) none" stroke-opacity="param(outline-opacity) 1" stroke-width="param(outline-width) 0" stroke-linejoin="round"/>
  </g>
</svg>
