<svg xmlns="http://www.w3.org/2000/svg" width="100%" height="100%" viewBox="0 0 1624.00 1624.00">
  <g transform="translate(112.00,1312.00) scale(1,-1)">
    <path d="M702 1200Q774 1082 934 916Q1237 625 1270 512Q1302 456 1302 368V332Q1302 99 1106 -52Q1048 -80 1002 -80H990Q852 -80 798 60L758 80Q718 43 718 -44Q718 -50 722 -92Q718 -183 690 -200L682 -172Q690 -108 690 4Q686 64 666 64H654Q622 64 538 -40Q489 -88 414 -88Q278 -88 146 132Q98 248 98 328V364Q113 563 482 1000Q660 1180 702 1200Z" fill="param(fill) #111111" fill-opacity="param(fill-opacity) 1" stroke="param(outline) none" stroke-opacity="param(outline-opacity) 1" stroke-width="param(outline-width) 0" stroke-linejoin="round"/>
  </g>
</svg>
