<svg xmlns="http://www.w3.org/2000/svg" width="100%" height="100%" viewBox="0 0 1624.00 1624.00">
  <g transform="translate(112.00,1312.00) scale(1,-1)">
    <path d="M1006 1200 1010 1192Q1010 1086 934 988Q900 964 826 948Q730 649 730 384V340L794 396Q775 396 766 468Q766 507 834 580Q845 580 878 604Q882 597 882 584H910Q918 584 946 664Q914 728 914 768Q914 840 1026 948Q1058 863 1058 796Q1058 718 966 660Q966 648 942 576Q971 558 998 532Q998 667 1130 712Q1210 740 1242 740Q1205 606 1158 556Q1184 556 1278 452Q1278 444 1162 428Q1065 428 1022 508H1014Q1058 431 1058 416H1050Q987 416 922 436Q730 296 730 220Q730 67 802 -196L794 -200H678Q664 -200 646 -40Q634 34 634 148V252Q634 344 590 400Q555 400 526 476Q462 416 358 396Q366 436 366 444Q338 432 310 432Q244 432 162 476Q261 568 334 568Q355 568 410 544L426 568Q354 628 334 628H310Q181 628 122 820L130 824Q263 805 314 760Q358 701 358 652Q361 652 462 592Q490 597 490 604Q432 796 422 796Q342 820 310 876Q286 939 286 1016Q290 1066 290 1076H294Q462 977 462 884L450 800Q516 624 534 608Q576 602 654 508Q658 501 658 492H662Q698 663 698 724V728Q688 916 666 916Q594 936 562 988Q530 1055 530 1188Q714 1105 714 992Q710 940 702 924Q718 873 734 796H738Q766 883 806 972Q806 1097 862 1124Q862 1142 1006 1200Z" fill="param(fill) #111111" fill-opacity="param(fill-opacity) 1" stroke="param(outline) none" stroke-opacity="param(outline-opacity) 1" stroke-width="param(outline-width) 0" stroke-linejoin="round"/>
  </g>
</svg>
