<svg xmlns="http://www.w3.org/2000/svg" width="100%" height="100%" viewBox="0 0 1614.72 1614.72">
  <g transform="translate(107.36,1307.36) scale(1,-1)">
    <path d="M728 1196H736Q764 1072 764 1028L796 1064H800V1060Q800 1028 804 976Q804 932 764 864H756V872H752Q752 867 736 832Q756 814 756 804H760L792 904L828 932H836Q824 836 824 828H828L844 844H848Q816 719 816 712L868 724V720L824 624L868 604Q868 595 816 508H820L836 512L844 508Q887 528 900 528Q837 416 784 416V400Q785 392 792 392Q815 424 836 424Q861 424 896 412Q861 348 836 340Q805 344 784 352Q776 229 752 120V116H756Q818 264 872 292H876Q968 220 1040 220H1068Q1189 220 1240 256L1244 248Q1244 181 1084 160Q1068 160 888 200H856Q766 84 704 -116Q700 -132 700 -144Q700 -148 704 -148Q700 -196 692 -196H688Q669 -163 648 92Q632 165 604 200Q447 68 416 68Q375 64 352 64Q323 64 300 96V104L336 100Q409 100 512 220Q533 240 584 252Q669 252 700 36H704Q715 88 720 88Q672 232 644 232L488 368Q488 374 472 384H468Q468 359 436 336H388V344Q409 344 424 388L416 392H372Q364 392 364 400V404Q381 404 392 444H384Q344 444 344 452V500Q292 516 292 524V528Q304 528 324 556Q292 556 252 600L260 612Q208 659 208 664L228 660Q234 660 244 676Q184 721 184 744Q188 760 200 760V764Q156 829 156 844V860H160Q209 825 248 720H252V724Q240 781 240 804L248 808H252Q263 808 280 752V740L300 744Q319 705 372 652Q372 646 428 560Q432 553 432 540V508Q459 540 464 540H468Q476 514 476 504Q476 494 468 464H472Q500 480 512 480Q512 437 488 392Q514 366 680 232Q700 203 720 124H728V128Q748 275 760 332Q758 332 708 328Q644 373 644 384Q648 384 648 388Q656 384 660 384Q710 400 728 400Q748 388 760 388Q760 400 764 416H756Q675 416 640 500V508Q661 488 668 488Q694 496 704 496H732Q658 582 644 640L672 608H696V612Q664 672 664 684Q670 684 688 708Q648 799 648 820Q675 792 680 792H688Q636 926 636 936Q642 936 664 888Q677 880 688 880H696L656 1004H660Q740 965 740 916Q749 916 756 984V988H752L748 968H744Q712 1013 712 1068Q712 1090 728 1196ZM272 668V664Q272 655 292 652Q288 659 288 672Q281 668 272 668Z" fill="param(fill) #111111" fill-opacity="param(fill-opacity) 1" stroke="param(outline) none" stroke-opacity="param(outline-opacity) 1" stroke-width="param(outline-width) 0" stroke-linejoin="round"/>
  </g>
</svg>
