<svg xmlns="http://www.w3.org/2000/svg" width="100%" height="100%" viewBox="0 0 1619.36 1619.36">
  <g transform="translate(109.68,1309.68) scale(1,-1)">
    <path d="M660 1198H668Q668 1145 808 1014Q932 837 932 646Q932 453 768 266Q760 62 756 54V50H760Q808 112 808 158Q808 239 936 338Q967 360 1048 378Q1194 330 1220 302Q1140 165 1076 118Q993 74 936 74H932Q896 74 816 98Q756 23 756 6Q748 -198 736 -198H672L664 -194Q696 58 696 70L688 74H684Q673 74 568 2Q513 -30 448 -30Q346 -30 260 82Q180 208 180 310V430Q180 446 240 446H252Q372 446 460 350Q466 350 568 238Q654 161 680 98L688 94H700Q700 105 720 254Q404 383 404 758Q404 955 552 1058Q629 1130 644 1178Q655 1198 660 1198Z" fill="param(fill) #111111" fill-opacity="param(fill-opacity) 1" stroke="param(outline) none" stroke-opacity="param(outline-opacity) 1" stroke-width="param(outline-width) 0" stroke-linejoin="round"/>
  </g>
</svg>
