<svg xmlns="http://www.w3.org/2000/svg" width="100%" height="100%" viewBox="0 0 1624.00 1624.00">
  <g transform="translate(112.00,1312.00) scale(1,-1)">
    <path d="M720 1200H824Q856 1184 856 1156L928 1068H920V1052H928Q1015 1052 1208 936Q1231 908 1236 884Q1221 848 1176 848H1168V844Q1260 720 1260 600V552Q1260 429 1176 300Q1125 170 864 -112Q773 -200 708 -200H684Q621 -200 500 -68Q389 37 276 212Q238 282 204 328Q140 469 140 556V596Q140 738 248 856V860Q224 882 224 908V916Q224 939 252 960Q252 956 256 956Q256 1015 684 1100Q684 1196 716 1196Q716 1200 720 1200ZM744 1148Q744 1044 672 1044Q386 983 296 932Q280 920 280 916V908H308Q358 908 540 960H556Q576 954 576 932Q564 888 564 868V832H580Q606 832 724 940Q731 944 740 944H752Q782 941 916 868Q908 900 908 936V948Q909 956 916 956H924Q945 956 1108 908Q1126 900 1160 900H1164Q1146 929 984 984Q857 1024 792 1032Q772 1044 772 1048V1052Q772 1079 788 1144L780 1148ZM292 680Q276 642 276 632Q276 588 308 588H312Q336 604 336 628V640Q336 676 292 680ZM708 628Q708 588 748 588Q764 609 764 632Q764 663 744 680Q708 680 708 628ZM936 680Q920 642 920 624Q920 588 952 588Q980 588 980 632Q980 680 936 680ZM1136 636V628Q1136 588 1168 588H1180Q1196 625 1196 640Q1196 661 1168 680Q1140 680 1136 636ZM492 624Q492 588 532 588Q545 588 552 652Q547 669 532 676H508Q497 676 492 624ZM244 448Q244 416 276 400Q304 409 304 436V468Q294 485 276 492Q255 492 244 448ZM400 456V436Q400 400 432 400Q456 413 456 444V452Q456 483 436 492Q400 487 400 456ZM616 456V444Q621 400 644 400Q667 400 672 444V452Q672 466 660 492H640Q616 480 616 456ZM844 492Q828 459 828 444Q834 400 856 400Q888 409 888 448Q888 477 868 492ZM1044 456V448Q1044 400 1084 400Q1100 424 1100 444V464Q1100 486 1084 492H1080Q1044 487 1044 456ZM332 264Q343 224 356 224Q392 224 392 272Q392 296 364 316Q332 316 332 264ZM516 272Q521 224 548 224Q571 224 576 268V276Q576 304 548 316Q516 308 516 272ZM972 316Q948 294 948 276V256Q948 234 968 224H976Q1001 224 1008 264Q1000 316 972 316ZM732 276Q732 224 764 224H768Q787 224 792 280Q787 312 760 312Q735 312 732 276ZM660 172Q636 148 636 132V124Q642 80 656 80H676Q687 80 692 120V136Q686 172 660 172ZM848 112Q853 76 884 76Q908 91 908 96Q903 172 880 172Q848 159 848 112ZM436 132V112Q442 76 468 76Q484 76 496 120Q496 149 472 168Q436 168 436 132ZM588 -16V-52Q588 -58 612 -72H624Q638 -72 644 -28Q640 16 628 16H620Q588 16 588 -16ZM732 -48Q732 -82 756 -96H760Q786 -96 792 -56Q783 -8 764 -8Q732 -18 732 -48Z" fill="param(fill) #111111" fill-opacity="param(fill-opacity) 1" stroke="param(outline) none" stroke-opacity="param(outline-opacity) 1" stroke-width="param(outline-width) 0" stroke-linejoin="round"/>
  </g>
</svg>
