<svg xmlns="http://www.w3.org/2000/svg" width="100%" height="100%" viewBox="0 0 1624.00 1624.00">
  <g transform="translate(112.00,1312.00) scale(1,-1)">
    <path d="M582 1200Q634 1192 678 1192Q682 1192 718 1200Q725 1183 734 952Q742 952 742 872Q742 862 650 856H562Q519 856 410 732V736Q410 801 482 856Q500 868 510 868L330 968Q269 1022 170 1064Q158 1073 158 1076V1080Q314 1080 470 960V964Q442 1038 362 1120H370Q451 1081 554 920H570Q619 920 630 988Q622 1034 610 1064H602Q590 975 574 944H566V960Q566 996 582 1152Q578 1179 578 1196Q582 1196 582 1200ZM1062 972V964L994 712Q994 700 974 652Q1212 822 1242 836V832Q1214 742 1110 680Q958 617 958 600H962Q1186 592 1242 592V588Q1190 544 1066 544Q975 544 950 580L946 588Q886 536 878 536V540Q842 718 842 752V760Q842 806 846 900H854Q914 715 914 596Q938 616 938 640Q922 701 922 704Q922 851 1062 972ZM750 844Q730 768 722 616Q730 459 754 376Q773 395 822 480L854 508H858V504Q774 335 766 332Q750 348 742 348Q684 336 650 336H642Q552 344 546 344Q531 344 270 204Q233 188 226 188Q373 380 486 380L490 388Q399 456 246 456Q246 461 222 464V472Q309 492 378 492H418Q469 492 530 400Q546 408 558 408Q579 396 598 396Q626 410 626 472Q626 555 594 592Q594 525 562 436H554Q570 587 570 624Q554 798 554 836Q558 836 558 840L578 836H674Q742 844 750 844ZM534 320Q579 312 638 308Q722 316 754 316Q755 308 762 308Q730 246 730 140V92Q730 33 742 -176Q701 -200 662 -200H578Q570 -200 570 -192Q586 -163 586 -128V-116Q586 -97 578 -52Q571 -52 554 -100H546V-96Q546 -14 554 112Q546 258 526 316Z" fill="param(fill) #111111" fill-opacity="param(fill-opacity) 1" stroke="param(outline) none" stroke-opacity="param(outline-opacity) 1" stroke-width="param(outline-width) 0" stroke-linejoin="round"/>
  </g>
</svg>
