<svg xmlns="http://www.w3.org/2000/svg" width="100%" height="100%" viewBox="0 0 1624.00 1624.00">
  <g transform="translate(112.00,1312.00) scale(1,-1)">
    <path d="M360 978H388Q408 968 408 946Q332 773 332 654V598Q332 561 344 438Q344 241 236 94H224Q149 94 48 242Q0 335 0 414V482Q0 692 164 878Q268 968 360 978ZM516 962Q736 867 736 586Q736 356 556 162Q441 74 352 74H348Q331 84 324 102Q404 283 404 434V438Q392 591 392 602V634Q392 807 492 954Q505 962 516 962ZM972 742Q1242 742 1368 534Q1372 527 1372 518V502Q1372 498 1352 482Q1278 486 1244 486H1220Q1080 486 852 374Q796 350 708 338Q756 488 756 594V642Q756 662 752 702Q862 742 972 742ZM1248 426Q1400 421 1400 390V366Q1400 212 1212 90Q1069 22 948 22H908Q706 22 584 142V146Q611 177 680 274Q803 274 1032 386Q1133 426 1248 426Z" fill="param(fill) #111111" fill-opacity="param(fill-opacity) 1" stroke="param(outline) none" stroke-opacity="param(outline-opacity) 1" stroke-width="param(outline-width) 0" stroke-linejoin="round"/>
  </g>
</svg>
