<svg xmlns="http://www.w3.org/2000/svg" width="100%" height="100%" viewBox="0 0 1624.00 1624.00">
  <g transform="translate(112.00,1312.00) scale(1,-1)">
    <path d="M702 1200H738Q1041 1200 1218 916Q1242 858 1242 840V808Q1242 717 1106 656L1026 644Q965 644 846 688V680Q846 652 850 572L822 576H818V528Q818 499 866 164Q866 120 870 84Q870 -126 750 -184Q698 -200 674 -200H642Q540 -200 502 -40Q498 -39 498 0Q498 100 598 352Q654 504 654 660V664H650Q616 604 582 604H570Q536 604 514 668Q514 702 550 840V844H546Q502 677 494 664L486 660H394Q330 660 254 676V684Q269 738 326 840V844H322Q245 691 234 684Q158 713 158 748V756Q212 951 418 1112Q568 1200 702 1200ZM370 916V908H374V916ZM362 904V896H366V904ZM346 880V872H350V880ZM558 876V868H562V876ZM338 868V860H342V868ZM330 856V848H334V856ZM550 856V848H554V856Z" fill="param(fill) #111111" fill-opacity="param(fill-opacity) 1" stroke="param(outline) none" stroke-opacity="param(outline-opacity) 1" stroke-width="param(outline-width) 0" stroke-linejoin="round"/>
  </g>
</svg>
