<svg xmlns="http://www.w3.org/2000/svg" width="100%" height="100%" viewBox="0 0 1624.00 1624.00">
  <g transform="translate(112.00,1312.00) scale(1,-1)">
    <path d="M982 1200Q1066 1124 1074 1124V1116Q859 873 834 852H830Q832 894 978 1200ZM586 1164H594Q652 1164 718 1112Q718 1138 738 1156Q773 1127 806 1044Q810 1044 842 1068H850Q856 1068 862 1056V1048Q846 908 822 908Q803 860 726 860Q681 860 590 904V916Q627 940 630 940V944Q526 980 526 1028L534 1032H566Q562 1082 562 1088Q572 1164 586 1164ZM978 972Q981 948 990 948Q1047 960 1070 960H1090Q1135 960 1162 940Q1156 924 1138 924V920Q1286 885 1286 836Q1232 782 1154 756V748L1170 720L1162 716H1090Q1010 724 962 748V744Q962 742 970 716L962 712Q918 712 874 792Q866 807 866 824V848Q905 942 974 972ZM394 932Q508 932 546 844Q554 816 554 796Q534 660 422 660H414Q339 660 294 740L282 796Q282 888 394 932ZM342 800V792Q342 733 414 720H430Q481 720 494 792V800Q485 868 426 868H414Q351 868 342 800ZM718 840H730Q810 840 858 744Q866 718 870 684Q870 573 746 536H742V532Q837 532 874 440Q882 412 882 392Q882 311 790 276L766 272H722Q618 299 618 404Q618 487 722 528H730V532Q653 532 614 568V564Q626 522 626 500V496Q626 436 558 376V372Q658 336 658 228Q658 170 586 112V108H598Q624 108 670 68V72Q658 108 658 132V136Q658 212 758 252Q763 256 786 256H806Q880 256 914 160Q918 154 922 116Q922 35 814 -4Q801 -4 794 -8Q742 -8 686 44V40Q694 -3 694 -16Q694 -91 602 -124H566Q545 -124 490 -84H486Q468 -200 386 -200H354Q271 -200 250 -84Q250 -51 286 0V4H262Q182 4 154 116Q154 177 210 228Q114 261 114 344V368Q141 468 202 468Q220 476 254 476H262Q366 443 366 344V336Q360 294 306 240Q327 240 378 196L374 216V220Q374 329 446 360V364Q342 402 342 520L346 540V544H342Q306 484 238 484Q122 498 122 600V612Q122 700 238 716Q350 701 350 624Q354 624 354 596Q350 568 350 564V560H354Q399 648 482 648Q524 648 570 616H574V620Q562 656 562 680V696Q562 816 718 840ZM622 676Q638 592 706 592H726Q791 592 810 680V684Q799 780 726 780H718Q622 768 622 704ZM990 688Q1055 688 1102 600Q1110 574 1110 564V560Q1110 462 1014 432Q1014 424 962 424Q846 456 846 540L842 564Q842 610 902 668Q950 688 990 688ZM178 604Q190 540 238 540Q283 540 298 592Q298 649 242 660Q178 646 178 604ZM906 560V548Q906 492 978 484Q1046 491 1046 548Q1050 548 1050 564Q1050 608 986 632Q906 622 906 560ZM398 508Q409 424 478 424H494Q566 435 566 492V512Q566 575 486 588Q398 572 398 508ZM678 404Q688 328 746 328H754Q822 342 822 392V404Q822 468 742 472Q692 472 678 404ZM1002 424Q1104 424 1134 316Q1138 301 1138 284Q1138 201 1046 168Q1030 160 1002 160H990Q874 190 874 276V292Q874 386 978 420Q996 420 1002 424ZM174 364V352Q174 284 242 284Q293 284 306 352Q292 416 250 416H234Q174 407 174 364ZM934 296V288Q944 216 1006 216Q1078 226 1078 288V292Q1067 364 1010 364Q934 352 934 296ZM430 232Q443 156 506 156H530Q582 156 598 232V252Q584 320 506 320Q439 320 430 232ZM718 128Q732 52 790 52Q852 52 862 128Q848 200 794 200Q718 190 718 128ZM214 124Q225 60 274 60Q338 75 338 116V132Q338 177 282 184H270Q225 184 214 124ZM398 152Q398 40 358 40V36Q412 36 458 -8H462Q485 92 518 92V96Q436 96 402 152ZM522 -4V-12Q535 -64 574 -64H578Q634 -57 634 -16V0Q634 48 554 48Q522 21 522 -4ZM310 -88Q310 -136 374 -144Q430 -132 430 -88Q420 -28 374 -28H370Q310 -33 310 -88Z" fill="param(fill) #111111" fill-opacity="param(fill-opacity) 1" stroke="param(outline) none" stroke-opacity="param(outline-opacity) 1" stroke-width="param(outline-width) 0" stroke-linejoin="round"/>
  </g>
</svg>
