<svg xmlns="http://www.w3.org/2000/svg" width="100%" height="100%" viewBox="0 0 1624.00 1624.00">
  <g transform="translate(112.00,1312.00) scale(1,-1)">
    <path d="M906 1200H914Q1003 1171 1066 1076Q1090 1025 1090 912Q1094 916 1138 920Q1228 920 1270 836V824Q1270 804 1178 796H1162L1114 800V796Q1186 696 1186 540V516Q1186 261 962 20Q704 -200 454 -200H398Q220 -200 138 -92Q130 -66 130 -56V-32Q130 16 226 212Q242 243 278 540Q303 683 422 820Q583 960 782 960Q855 960 926 928V932Q882 1044 882 1192Q895 1200 906 1200ZM218 -32V-36Q218 -85 338 -104Q392 -112 430 -112Q741 -112 970 164Q1098 339 1098 532Q1098 696 1014 776Q905 868 754 868Q627 868 506 772Q386 650 386 584Q373 584 330 264Q324 202 226 4Q218 -22 218 -32ZM610 796H642Q662 780 662 760V744Q648 720 626 720H610Q586 734 586 756Q586 782 610 796ZM562 724Q594 724 594 692V684Q594 670 530 600Q486 525 466 432Q448 416 446 416H434Q402 416 402 448V460Q433 609 510 692Q543 724 562 724Z" fill="param(fill) #111111" fill-opacity="param(fill-opacity) 1" stroke="param(outline) none" stroke-opacity="param(outline-opacity) 1" stroke-width="param(outline-width) 0" stroke-linejoin="round"/>
  </g>
</svg>
