<svg xmlns="http://www.w3.org/2000/svg" width="100%" height="100%" viewBox="0 0 1605.44 1605.44">
  <g transform="translate(102.72,1302.72) scale(1,-1)">
    <path d="M740 1030Q740 1022 464 906Q651 783 716 622Q851 710 936 710Q1131 710 1312 510Q1392 400 1392 318V274Q1392 138 1220 -6Q1165 -30 1148 -30H980Q801 -30 664 86Q542 -30 436 -30H336Q184 -30 68 142Q8 270 8 406Q8 698 276 882V886L16 946V954L316 914Q348 934 384 934H392Q420 934 436 918Q729 1030 740 1030ZM700 462V450Q700 276 1012 114Q1095 90 1140 90Q1304 90 1356 266Q1360 292 1360 318V322Q1360 496 1112 646Q1032 686 972 686H924Q795 686 716 546Q700 497 700 462ZM968 594Q1143 594 1256 382L1268 330Q1268 234 1156 194Q1140 186 1112 186H1088Q948 186 816 370Q800 403 800 430Q800 575 968 594Z" fill="param(fill) #111111" fill-opacity="param(fill-opacity) 1" stroke="param(outline) none" stroke-opacity="param(outline-opacity) 1" stroke-width="param(outline-width) 0" stroke-linejoin="round"/>
  </g>
</svg>
