<svg xmlns="http://www.w3.org/2000/svg" width="100%" height="100%" viewBox="0 0 1624.00 1624.00">
  <g transform="translate(112.00,1312.00) scale(1,-1)">
    <path d="M960 1150H976Q993 1140 1000 1122Q1000 1088 948 1074Q903 1033 900 994Q1044 933 1044 786V730Q1036 633 1036 622V610Q1036 582 1100 494Q1149 626 1172 626Q1181 746 1220 746Q1252 762 1272 762H1300Q1316 762 1352 650Q1400 619 1400 522V478Q1400 190 1156 -34Q998 -150 836 -150H780Q677 -150 536 -94Q452 -150 352 -150H340Q93 -150 4 122Q0 163 0 186V222Q0 364 160 490Q215 521 312 542L316 562Q235 562 184 662Q168 691 168 726V746Q168 802 236 802Q356 802 404 678Q419 687 448 694Q480 684 480 658Q480 634 412 602Q384 563 384 538Q433 530 468 518Q478 542 584 642Q602 642 632 826Q675 941 748 982L832 1006Q832 1067 932 1146ZM528 482Q625 433 676 290Q688 247 688 218V166Q928 238 1052 418V434Q964 569 964 622Q976 709 976 774Q976 886 888 926Q845 934 832 934Q722 934 688 754Q664 598 632 598L528 486ZM236 734V726Q252 630 332 630H340V634Q340 719 236 734ZM548 82Q496 82 396 98L384 82V74Q606 -82 800 -82H824Q1126 -82 1284 254Q1332 363 1332 498V514Q1332 587 1292 618Q1264 673 1264 690H1260Q1249 690 1236 598Q1199 561 1176 498Q1054 233 768 118Q668 82 548 82Z" fill="param(fill) #111111" fill-opacity="param(fill-opacity) 1" stroke="param(outline) none" stroke-opacity="param(outline-opacity) 1" stroke-width="param(outline-width) 0" stroke-linejoin="round"/>
  </g>
</svg>
