<svg xmlns="http://www.w3.org/2000/svg" width="100%" height="100%" viewBox="0 0 1624.00 1624.00">
  <g transform="translate(112.00,1312.00) scale(1,-1)">
    <path d="M1072 946Q1165 923 1248 878Q1400 837 1400 790V782Q1361 687 1288 610L1268 606H1264Q1189 634 1180 634Q1146 634 1080 486Q907 184 636 86Q546 54 388 54H384Q161 54 16 226Q0 247 0 270V314Q0 358 88 370Q98 370 240 398V402Q26 591 8 678Q24 753 60 774H64Q81 774 280 722Q348 702 528 690Q753 690 940 774Q954 797 964 806L960 814Q980 862 1072 946ZM1092 862Q1068 837 1036 794Q1044 781 1044 770V754Q1012 702 808 646Q626 614 568 614Q358 614 104 686H92V682Q120 591 324 438Q385 406 392 406Q676 486 844 578Q947 642 1036 722H1044Q1072 709 1072 690Q803 449 432 366Q309 322 80 286L76 278Q98 219 204 170Q302 130 400 130H432Q846 130 1080 662Q1141 710 1196 710Q1203 710 1260 694Q1312 771 1312 774Q1140 852 1092 862Z" fill="param(fill) #111111" fill-opacity="param(fill-opacity) 1" stroke="param(outline) none" stroke-opacity="param(outline-opacity) 1" stroke-width="param(outline-width) 0" stroke-linejoin="round"/>
  </g>
</svg>
