<svg xmlns="http://www.w3.org/2000/svg" width="100%" height="100%" viewBox="0 0 1624.00 1624.00">
  <g transform="translate(112.00,1312.00) scale(1,-1)">
    <path d="M622 1200H626Q678 1200 726 700Q726 674 626 648V644Q658 275 658 160V136Q658 117 662 96Q662 3 630 -100H634Q700 -77 714 84V172Q662 200 662 228Q686 446 718 484V488H726Q758 488 806 248V232Q806 222 758 180V176Q758 7 726 -76Q816 -18 862 104Q856 104 838 128Q906 201 906 336L914 516Q770 542 770 572V576Q838 637 838 836Q864 980 926 980Q1046 980 1086 568Q1015 525 962 520V492Q962 372 954 276Q1023 340 1058 340H1062Q1214 272 1214 216V212Q1214 151 1058 84Q1016 -200 794 -200H758Q640 -200 518 -76Q471 -37 446 260Q446 308 426 308Q261 308 186 372Q295 407 346 500Q389 600 426 600Q435 600 442 604Q501 604 594 500Q582 611 582 652Q493 652 434 756V764Q549 1200 622 1200ZM490 316Q490 125 550 -24Q574 -64 582 -64H586Q614 0 614 48V104Q614 200 602 376H598Q542 328 490 316ZM910 80Q877 -40 750 -116Q710 -140 694 -140Q698 -156 762 -160Q931 -160 998 16Q1014 66 1014 76H958Z" fill="param(fill) #111111" fill-opacity="param(fill-opacity) 1" stroke="param(outline) none" stroke-opacity="param(outline-opacity) 1" stroke-width="param(outline-width) 0" stroke-linejoin="round"/>
  </g>
</svg>
