<svg xmlns="http://www.w3.org/2000/svg" width="100%" height="100%" viewBox="0 0 1624.00 1624.00">
  <g transform="translate(112.00,1312.00) scale(1,-1)">
    <path d="M500 1200H564Q656 1200 736 1116V1168Q736 1174 752 1184H756Q772 1178 772 1156V1104Q836 1136 880 1136H948Q956 1135 956 1128Q956 1062 852 1040H808Q764 1040 764 1028V1016Q959 1004 1068 968Q1204 903 1280 752Q1312 652 1312 596V556Q1312 316 1128 -8Q996 -200 740 -200H672Q314 -200 176 184Q88 428 88 512V580Q88 816 316 960Q466 1016 724 1016Q732 1029 732 1040V1044H696Q537 1044 484 1168Q478 1168 472 1180V1192ZM176 576V552Q176 460 224 460Q272 476 272 496Q272 536 268 596Q268 701 364 808L372 832Q364 876 328 876Q257 876 188 680Q176 641 176 576ZM204 376Q215 316 256 316Q304 327 304 360V368Q304 416 268 416H244Q204 411 204 376Z" fill="param(fill) #111111" fill-opacity="param(fill-opacity) 1" stroke="param(outline) none" stroke-opacity="param(outline-opacity) 1" stroke-width="param(outline-width) 0" stroke-linejoin="round"/>
  </g>
</svg>
