<svg xmlns="http://www.w3.org/2000/svg" width="100%" height="100%" viewBox="0 0 1624.00 1624.00">
  <g transform="translate(112.00,1312.00) scale(1,-1)">
    <path d="M1268 1200H1280Q1341 1200 1376 1080V1068Q1375 1060 1300 1024Q1196 953 1196 936H1200Q1248 915 1248 888V844Q1248 838 1332 816Q1360 793 1360 784Q1360 766 1312 692V688Q1380 639 1380 616V604Q1355 552 1304 496V484Q1376 400 1376 380V368Q1376 347 1224 292V216Q1224 199 1152 184Q1172 124 1172 112V108Q1172 79 1056 72V68Q1064 46 1064 4Q1064 -16 944 -24L940 -32V-84Q936 -96 916 -96Q875 -96 832 -88Q782 -200 760 -200Q735 -191 696 -156Q664 -200 660 -200H644Q620 -200 580 -152Q528 -200 496 -200Q466 -160 420 -80H416Q372 -112 356 -112H340Q325 -112 296 -24Q192 -12 192 8V28Q192 36 212 72H160Q136 86 136 108V116Q156 165 156 180Q20 210 20 236V244Q20 266 124 352V356Q124 367 76 464V496Q84 518 152 520H164V524Q120 595 120 612Q120 639 244 676Q236 729 236 768Q250 784 320 784H332V800Q332 892 344 892Q387 900 444 904Q440 980 440 1008Q447 1026 464 1036Q480 1036 588 1016Q610 1083 644 1116H656Q682 1116 792 1088Q826 1156 856 1156H860Q882 1156 928 1080H932Q1019 1120 1032 1120H1052Q1066 1120 1072 1076V1036H1084Q1093 1037 1228 1188Q1254 1200 1268 1200ZM804 1012H800Q778 1012 676 1040Q642 936 624 936H600Q582 936 516 952Q520 896 520 880Q520 832 460 832Q408 832 408 824Q408 810 412 740Q412 717 368 712H316Q324 672 324 640Q297 608 228 592H216V584L268 496V480Q256 456 180 452H168V448Q168 432 208 348V336Q208 327 136 260Q248 235 248 200V196Q248 184 228 144H304Q344 144 344 100Q344 91 308 52V48Q368 48 368 -12L376 -16Q419 12 440 12Q467 12 512 -100H520Q563 -64 568 -64H576Q593 -64 636 -100Q650 -52 680 -52Q695 -52 744 -96H748Q767 -12 808 -12H812Q840 -12 856 -20V24Q856 52 976 52H980V68Q980 82 976 104Q988 148 1080 148V152Q1080 162 1068 200V204Q1068 239 1152 260V264Q1148 314 1148 324Q1148 350 1280 392Q1216 473 1216 484V488L1292 608Q1224 653 1224 680Q1224 688 1264 760H1260Q1172 777 1172 828Q1176 849 1176 868Q1124 885 1124 936Q1121 964 1116 964L1040 952Q1000 961 1000 992V1020L996 1028Q919 992 904 992Q873 1007 856 1048Q821 1012 804 1012ZM700 992Q800 940 800 916Q791 892 784 892Q741 892 732 920H720Q705 853 688 844H684Q656 844 656 872V888Q668 899 684 984Q694 992 700 992ZM964 900Q984 894 984 872V808Q981 744 964 744H944Q932 747 932 776V812L936 840Q897 824 880 824H864Q855 824 852 844Q852 879 964 900ZM576 800Q685 765 720 720Q712 696 704 696H696Q678 696 604 732V692L608 668Q608 643 588 632H580Q559 632 556 644Q552 715 552 760V768Q552 792 576 800ZM1096 696Q1124 696 1164 644Q1196 626 1196 600Q1121 544 1080 544Q1062 552 1060 560V580Q1060 593 1124 612Q1080 664 1080 672Q1080 676 1096 696ZM716 660H720Q844 660 844 636V624Q844 620 820 604L780 608H756Q768 549 768 520Q761 500 748 500Q714 500 708 580Q708 584 700 628Q707 660 716 660ZM360 644H468Q498 644 500 632V612Q500 596 440 592L412 596Q444 517 444 504V492Q444 486 428 476H416Q398 491 348 600V632Q348 638 360 644ZM976 572Q1068 494 1068 468V456Q1068 444 944 428H916Q908 428 908 436V448Q908 484 980 484Q980 488 992 488Q992 494 944 536Q948 572 976 572ZM676 452Q696 447 696 440V416Q696 400 608 392Q652 332 652 316Q652 295 640 292H632Q601 292 540 404Q540 408 536 416Q536 441 676 452ZM988 368Q1044 341 1044 244Q1028 236 1000 236H968Q876 239 876 252V276Q879 288 908 288H984Q968 332 968 348Q968 359 988 368ZM428 364H436Q442 364 448 352V336Q431 311 380 292V288Q436 242 436 236V220Q436 214 420 204H416Q388 204 308 284L304 308Q401 364 428 364ZM796 216Q820 216 820 112V104Q820 62 800 60Q652 77 652 100V120Q652 127 680 132L768 116V160Q768 216 792 216ZM496 140Q531 64 536 64Q568 136 592 136Q608 118 608 116V108Q587 26 532 -28H524Q503 -28 460 124Q478 140 496 140Z" fill="param(fill) #111111" fill-opacity="param(fill-opacity) 1" stroke="param(outline) none" stroke-opacity="param(outline-opacity) 1" stroke-width="param(outline-width) 0" stroke-linejoin="round"/>
  </g>
</svg>
