<svg xmlns="http://www.w3.org/2000/svg" width="100%" height="100%" viewBox="0 0 1624.00 1624.00">
  <g transform="translate(112.00,1312.00) scale(1,-1)">
    <path d="M634 1200H646Q782 1200 810 1164Q826 1141 826 1100Q826 1080 822 972Q859 984 890 984H914Q1084 984 1194 848Q1217 808 1218 772Q1214 722 1214 712Q1342 558 1342 392V336Q1342 59 1038 -128Q901 -200 738 -200H694Q384 -200 170 36Q58 179 58 332V372Q58 536 186 712Q200 718 218 780Q257 834 354 884Q396 965 414 984L574 1044Q546 1116 546 1132Q546 1191 634 1200ZM650 1116Q678 963 678 884V872Q678 843 666 840H650L638 848L642 868V892Q642 913 646 960L638 964H614Q476 964 454 908Q454 872 570 832Q610 810 610 804V788Q606 776 586 776Q538 816 482 816H458Q364 804 314 760Q282 728 282 684Q316 580 414 580Q503 580 594 672Q643 772 662 772Q678 766 678 760V756Q642 654 642 592V580Q642 436 842 436Q950 436 990 516Q1010 565 1010 608Q1010 701 814 740H806L754 732Q746 745 746 756V760Q746 777 830 784Q922 784 1046 652Q1081 652 1122 720Q1130 742 1130 776Q998 908 914 908H902Q770 869 770 832Q753 816 738 816Q732 816 726 832Q729 856 734 856L730 884V976Q730 1071 746 1092Q746 1107 650 1116ZM226 548V524L254 516H266Q272 516 282 532V548Q282 572 258 572H238Q226 568 226 548ZM174 352V328Q181 208 206 208H226Q238 211 238 240Q230 332 230 348Q230 360 250 464V468L246 488H234Q183 488 174 352Z" fill="param(fill) #111111" fill-opacity="param(fill-opacity) 1" stroke="param(outline) none" stroke-opacity="param(outline-opacity) 1" stroke-width="param(outline-width) 0" stroke-linejoin="round"/>
  </g>
</svg>
