<svg xmlns="http://www.w3.org/2000/svg" width="100%" height="100%" viewBox="0 0 1619.36 1619.36">
  <g transform="translate(109.68,1309.68) scale(1,-1)">
    <path d="M1010 1198H1022Q1062 1101 1062 1058V1050Q1058 990 1046 990Q1050 982 1050 978H1062V982Q1058 990 1058 994L1070 1002Q1076 1002 1082 990Q1070 977 1070 970V966H1074Q1074 978 1082 978H1086L1134 926V922Q1126 912 1126 906V902H1130Q1130 914 1138 914H1150Q1156 914 1166 898V890Q1166 882 1158 882H1150Q1144 882 1134 898Q1126 894 1122 894V890Q1135 890 1146 870Q1146 864 1134 858H1126Q1120 858 1110 874Q1110 892 1122 910Q1098 920 1098 934V946Q1081 946 1074 962Q1067 958 1058 958V954Q1076 954 1086 934Q1086 922 1066 922Q1066 916 1078 910Q1079 918 1086 918H1094Q1100 918 1110 902V898Q1110 892 1098 886Q1091 886 1074 906Q1066 902 1062 902V898Q1077 897 1086 882V870Q1086 862 1074 862Q1058 868 1050 882V890L1058 902V910L1046 902Q1022 910 1022 934Q1029 938 1038 938L1034 946V954L1042 966Q1026 966 1026 978Q1019 974 1010 974V970Q1030 969 1030 958V950Q1030 942 1022 942Q1006 946 1006 958H998V954L1010 938V930Q1010 922 1002 922Q974 922 974 946H970Q970 937 966 930Q978 930 986 914V906Q986 898 974 898V890H978L986 894Q1004 887 1014 870Q1014 864 998 854Q974 868 974 886H970Q970 877 966 870Q986 858 986 842L970 830Q938 848 938 866Q944 866 950 878V882Q942 878 938 878Q934 878 910 898H906V894L926 870V862Q926 854 918 854H910Q890 870 886 870V866Q902 848 902 846V838Q902 832 890 826Q886 826 866 842V834L882 814Q882 808 870 802H862L846 814H842V806L854 790V782Q854 774 846 774H838L822 786H814L830 766V758Q830 752 818 746L794 762H790Q790 758 806 738V730Q806 722 798 722H790L774 734H766Q786 713 786 702Q776 694 770 694L750 706H742Q758 688 758 686V678Q758 670 750 670H742L722 682V678Q738 660 738 650L726 642H718L702 654H698V650Q714 632 714 622L702 614H698L678 626V622L690 602V598Q690 590 682 590H678Q667 590 654 598V594L666 578V574Q666 562 650 562L634 570V562L642 550V546Q642 540 630 534L610 542V538Q618 525 618 514Q594 514 594 494Q568 473 562 450Q558 450 558 446H562Q570 450 574 450Q592 443 602 426V418Q602 412 590 406Q581 406 554 438H550V422Q582 410 582 390Q576 390 570 378Q538 392 538 406H534V394Q540 394 558 370V366Q558 360 546 354H542Q527 366 518 366V362L534 342V338Q534 326 518 326L502 334V330Q510 317 510 306Q483 306 474 262L486 270H490Q511 262 522 234Q538 234 558 210V198Q558 190 550 190H542Q521 211 498 214Q498 227 474 254V258H470L466 242Q484 235 494 218V210L490 202L510 206Q516 206 534 182V170Q534 162 522 162Q513 162 486 194Q486 185 482 178Q510 168 510 158V146Q510 138 502 138Q466 144 466 170Q472 170 478 182H474L462 174L442 178L450 150L458 154L454 162V170Q478 134 486 134Q486 132 490 118Q480 110 474 110Q456 117 442 138L446 146H426V138L462 102V90L458 82H466Q472 82 506 126Q518 126 530 154H534L546 146L550 154Q542 154 542 162V166Q542 172 554 178H558L570 170H578V174L566 190V194Q566 200 578 206Q582 206 602 190H610Q590 212 590 214V222Q591 230 598 230Q620 230 634 206Q642 210 646 210L614 242V250Q615 258 622 258H630Q658 241 658 218Q690 232 690 238Q691 258 702 258L718 250V254L714 278L722 282H730L742 274H750L738 290V302Q738 310 750 310Q754 310 774 294H778V298L758 322V326Q759 334 766 334H770Q784 334 802 318H806Q782 346 782 354Q792 362 798 362Q803 362 830 338L834 346V350Q806 361 806 382Q816 390 822 390Q850 378 850 358H854Q854 364 862 374Q841 374 830 402Q836 418 842 418Q874 408 874 382H878Q878 395 882 402Q864 409 854 426V434Q854 440 866 446Q884 439 898 418V410L890 398H894L910 422H914V426Q898 426 878 454V458Q878 468 894 470Q909 470 922 442Q932 450 942 450V454Q902 458 902 490L910 494H914Q946 494 946 458H950L954 482Q942 482 926 506V510Q926 516 938 522H946Q970 509 970 486H974Q974 496 982 506Q970 506 950 534V542Q951 550 958 550Q994 544 994 518H998Q998 530 1014 530V534Q974 537 974 570L982 574H994Q1018 560 1018 538H1022Q1022 556 1026 562Q1014 562 998 586V594Q999 602 1006 602Q1042 596 1042 570H1046Q1046 579 1050 586Q1022 603 1022 610V622Q1022 630 1034 630Q1042 626 1046 626Q1046 630 1050 630L1046 638V646Q1047 654 1054 654Q1090 647 1090 626Q1096 626 1102 638Q1075 649 1070 662V674Q1070 682 1082 682Q1087 682 1114 658Q1122 668 1122 670Q1104 670 1090 694V702Q1091 710 1098 710H1110Q1134 696 1134 678H1138Q1138 684 1146 694Q1119 705 1114 718V730L1118 738L1106 746V742Q1110 735 1110 726L1102 722H1090Q1084 722 1062 750Q1062 756 1074 762Q1087 762 1102 750H1118V754Q1086 757 1086 782L1098 790H1106Q1126 779 1126 766Q1122 758 1122 754H1130Q1130 770 1138 770Q1166 770 1166 750H1170Q1190 766 1242 794H1246Q1190 669 982 430V426Q1084 498 1126 498H1142Q1183 498 1198 414Q1198 304 986 178Q926 150 898 150Q842 155 842 166V170Q953 222 1022 338Q1009 346 998 346H986Q923 346 614 26Q490 -86 418 -86H410Q352 -78 346 -78H342Q299 -78 246 -194L238 -198Q195 -181 142 -114V-110Q246 -15 246 10Q226 54 226 102Q226 236 422 506Q439 527 450 566H442Q401 548 282 442H278V446Q491 706 562 706H570Q576 706 582 694V690Q582 679 574 666H578Q883 936 934 1058Q956 1085 1010 1198ZM1142 1054Q1156 1036 1170 1034V1022Q1170 1014 1162 1014H1158Q1143 1034 1134 1034Q1126 1021 1126 1014L1134 1018H1138Q1146 1018 1146 1006L1154 1010H1162L1170 1006Q1171 1014 1178 1014Q1198 1003 1198 990Q1194 982 1194 978Q1198 978 1198 974Q1190 973 1190 966Q1201 963 1238 926Q1238 920 1226 914H1222Q1214 916 1206 934L1198 930L1174 950V942Q1174 940 1190 922V914Q1190 906 1182 906H1174Q1169 906 1154 926V930Q1154 940 1170 942V946H1158Q1158 940 1146 934L1150 926Q1150 918 1142 918L1138 926V930L1142 938Q1130 938 1122 954V962L1130 974Q1094 974 1094 986V990L1102 1002V1006L1082 1002L1078 1010V1018Q1079 1026 1086 1026H1090L1102 1018H1106Q1106 1035 1142 1054ZM1186 1054Q1194 1053 1194 1046V1034Q1180 1030 1178 1030L1174 1038V1042Q1174 1048 1186 1054ZM1222 1046H1230Q1236 1046 1242 1034Q1236 1018 1230 1018H1226Q1220 1018 1214 1030V1038Q1215 1046 1222 1046ZM1198 1030Q1218 1024 1218 1006L1210 1002H1206Q1200 1002 1190 1018V1022Q1191 1030 1198 1030ZM1234 1010H1242Q1248 1010 1254 998Q1254 992 1242 986H1238Q1232 986 1226 998V1002Q1227 1010 1234 1010ZM1110 1002V998Q1122 998 1122 978H1126Q1126 984 1134 994L1122 1002ZM1146 1002Q1178 985 1178 978V974H1182Q1182 978 1186 986Q1180 986 1170 1002Q1162 998 1158 998Q1150 1002 1146 1002ZM1138 994Q1138 976 1134 970Q1142 970 1158 954H1162V958Q1142 977 1142 994ZM1214 990Q1230 984 1230 978V966Q1230 958 1222 958H1218Q1212 958 1202 974V982Q1202 990 1214 990ZM1166 958Q1170 958 1178 954L1186 970H1178Q1172 970 1166 958ZM1242 966Q1248 966 1254 954Q1254 948 1242 942H1238Q1230 942 1230 950V954Q1230 960 1242 966ZM1046 946Q1046 942 1042 934Q1045 934 1062 914V922Q1050 941 1050 946ZM946 926 942 906Q954 906 954 890H958V898Q950 910 950 926ZM1246 922H1250Q1258 921 1258 914Q1258 908 1246 902Q1238 902 1238 910V914Q1239 922 1246 922ZM1010 914H1018Q1024 914 1034 898V890Q1034 884 1022 878Q1016 878 998 902Q998 908 1010 914ZM1202 914H1206Q1218 914 1218 890L1230 898Q1236 898 1242 886V882Q1242 874 1234 874H1230Q1219 886 1198 890L1190 902Q1190 908 1202 914ZM962 898V894H970V898ZM1182 890H1186Q1192 890 1202 874V866Q1202 858 1194 858H1186Q1170 866 1170 882ZM1098 882Q1106 881 1106 874L1102 866Q1126 850 1126 834L1118 830Q1109 830 1066 854Q1066 838 1054 838H1046Q1041 838 1026 858V866Q1027 874 1034 874Q1081 854 1086 854Q1086 866 1098 866L1090 878ZM1214 870H1218Q1226 869 1226 862V858Q1226 850 1218 850H1214Q1206 850 1206 858V862Q1207 870 1214 870ZM1158 866H1166Q1172 866 1182 850V846L1178 838H1182L1194 846H1202Q1210 845 1210 838V834Q1210 828 1198 822Q1191 826 1182 826Q1182 824 1198 806V802Q1198 794 1190 794H1186Q1170 802 1170 814Q1160 806 1158 806H1150Q1145 806 1130 826V830Q1130 836 1142 842Q1149 842 1170 818V830L1150 850V858Q1151 866 1158 866ZM930 850Q962 833 962 814Q952 806 950 806H942Q936 806 918 830V842Q918 850 930 850ZM1006 850H1018Q1024 850 1042 826Q1042 820 1030 814L1034 806V798L1030 790Q1042 790 1058 766V758Q1058 749 1038 746Q1011 782 1006 782Q988 789 974 810V818Q975 826 982 826Q1014 821 1014 802Q1020 802 1026 814Q1001 814 998 846ZM1074 842H1078Q1084 842 1102 818V814Q1102 806 1094 806H1082Q1077 806 1062 826V830Q1062 836 1074 842ZM1050 830H1058Q1058 813 1078 794V786Q1078 778 1070 778H1062Q1056 778 1038 802V806Q1038 816 1054 818L1050 826ZM906 822Q924 815 938 794Q932 778 926 778H922Q916 778 894 806V814Q894 822 906 822ZM1122 818Q1139 813 1146 798V794Q1146 782 1130 782Q1110 788 1110 810Q1110 818 1122 818ZM962 802Q975 802 998 766Q1015 766 1034 738V734Q1034 722 1018 722Q1006 722 982 758Q968 758 950 782V790Q950 796 962 802ZM1018 798Q1019 790 1026 790V798ZM1166 798Q1172 798 1190 774Q1186 762 1166 762Q1166 764 1150 782Q1150 788 1166 798ZM874 794H878Q914 788 914 762Q904 754 902 754H894Q888 754 866 782V786Q867 794 874 794ZM934 774H942Q974 755 974 738Q996 738 1010 714V706Q1010 698 1002 698H990L926 758V766Q927 774 934 774ZM858 770Q876 763 890 742V738Q890 726 874 726Q856 733 846 750V758Q846 764 858 770ZM910 746H922Q928 746 946 722V714L938 702H942L954 710H962Q968 710 986 686V678Q986 670 978 670H970Q942 687 942 694L934 690H930V698L934 706Q908 706 902 742ZM1122 742V738Q1133 738 1146 726H1154V734Q1148 734 1138 742ZM830 742H838Q866 723 866 718V710Q866 704 854 698Q822 711 822 734Q823 742 830 742ZM1054 738Q1072 731 1086 710V706Q1086 694 1070 694Q1052 701 1042 718V726Q1042 732 1054 738ZM890 722H894Q922 712 922 678L934 686Q962 667 962 662V654Q962 648 950 642Q923 653 918 666L910 662Q902 662 902 670L910 674L918 670V678Q895 678 878 706V710Q878 716 890 722ZM810 718Q828 711 842 690V682Q842 674 834 674H822Q816 674 798 698V706Q798 712 810 718ZM1158 714V706H1162V714ZM1026 710H1034Q1053 701 1062 682V678Q1062 672 1050 666H1046Q1041 666 1014 698Q1014 704 1026 710ZM1150 698V694H1158V698ZM870 694Q902 677 902 658Q925 658 938 634V622Q938 614 926 614Q911 614 894 646H890Q890 637 874 634Q874 626 866 626Q830 631 830 662L838 666H850Q876 642 878 642L882 650V654Q870 654 854 678V682Q854 692 870 694ZM786 690H790Q796 690 818 662V654Q818 646 810 646H802Q774 661 774 682ZM1002 682H1014Q1020 682 1038 658V650Q1038 642 1030 642Q1008 642 994 666V674Q995 682 1002 682ZM758 662H766Q794 649 794 626L782 618Q750 633 750 658ZM978 658H986Q992 658 1014 630V622Q1014 614 1006 614Q970 619 970 650Q971 658 978 658ZM1110 646V638H1114V646ZM818 642Q850 631 850 610H858V618H866Q866 604 886 586Q890 579 890 570Q890 562 878 562Q871 562 806 626V634Q806 642 818 642ZM738 638Q756 631 770 610V606Q770 594 754 594Q736 601 726 618V626Q726 632 738 638ZM882 630H890Q896 630 914 606V598Q914 590 906 590H898Q870 604 870 622ZM954 630Q976 630 990 606V598Q990 592 978 586Q960 593 946 614V622Q947 630 954 630ZM1054 626 1050 618Q1066 618 1066 598H1070Q1070 607 1074 614Q1067 614 1054 626ZM798 614Q806 614 866 554V542Q866 534 854 534Q822 549 822 574L814 570Q793 580 782 602Q782 612 798 614ZM718 610Q736 603 746 586V578Q746 572 734 566H730Q720 574 718 574H710L722 558V550Q722 544 710 538Q687 551 678 566V574Q679 582 686 582L706 578V582L702 602Q712 610 718 610ZM930 602Q952 602 966 578V570Q966 562 958 562Q922 567 922 598ZM1054 582H1058Q1066 582 1066 590V594Q1060 594 1054 582ZM774 590Q806 574 806 550L814 554Q846 535 846 518Q836 510 834 510H826Q820 510 798 538L802 546Q774 546 758 574Q758 580 774 590ZM910 578Q925 578 942 554V542Q942 534 934 534H926Q898 549 898 570Q900 570 910 578ZM750 562Q782 545 782 526Q805 526 822 498V494Q822 482 806 482Q788 489 774 510L778 518Q753 518 734 546V550Q734 560 750 562ZM662 554H674Q680 554 698 530V522Q698 514 690 514H682Q676 514 654 542V546Q655 554 662 554ZM890 550Q908 543 918 526V510H898Q892 510 874 534V538Q874 548 890 550ZM722 534H730Q736 534 758 506L754 498Q782 498 798 470L786 454Q750 468 750 494Q727 494 710 522Q710 528 722 534ZM646 530Q664 523 674 506V498Q674 492 662 486Q644 493 630 514V518Q630 528 646 530ZM858 522H862Q894 522 894 490Q894 482 886 482H878Q850 501 850 506V514Q851 522 858 522ZM698 510Q713 510 734 482V478L726 466V462L742 474Q774 458 774 434L766 430Q744 430 730 454L722 450Q714 450 714 458Q722 458 722 466Q706 466 690 490V498ZM618 502H626Q632 502 654 474Q654 468 642 462H630Q606 478 606 494ZM842 498Q860 491 870 474V462Q870 454 858 454Q840 461 826 482V486Q826 496 842 498ZM678 482Q691 482 714 446Q750 441 750 410L738 402Q711 413 706 426V434L710 442H706L698 438Q671 449 666 462V474Q666 482 678 482ZM598 478Q630 461 630 442Q620 434 614 434Q596 441 582 462Q582 468 598 478ZM810 470Q832 470 850 442V438Q850 430 842 430H838Q802 435 802 466ZM650 454Q686 449 686 418L678 414H666Q642 428 642 434V446Q643 454 650 454ZM794 446Q826 431 826 406L818 402H806Q800 402 778 430V434Q778 444 794 446ZM698 434V426H690Q691 434 698 434ZM626 426H638Q673 386 682 386Q687 386 702 366V362Q702 356 690 350H682Q675 350 650 386Q624 386 618 422ZM698 418Q726 405 726 386L714 378H706Q700 378 682 402L674 398H666V402L670 410L678 406Q691 418 698 418ZM766 418H774Q780 418 798 394V382Q798 374 786 374Q768 381 758 398V410Q759 418 766 418ZM602 402Q621 402 642 374Q643 382 650 382H654Q654 362 678 338V330Q678 322 666 322Q648 329 634 350V354L638 362H634Q627 358 618 358Q594 378 594 394Q595 402 602 402ZM738 390H750Q774 376 774 370V358Q774 350 766 350H758Q752 350 730 378V382Q731 390 738 390ZM582 378Q594 378 622 338Q640 338 654 314V306Q654 298 646 298Q623 298 602 334Q586 334 570 358V366Q570 372 582 378ZM642 370V366H650V370ZM718 366Q745 355 754 338Q750 322 738 322Q706 339 706 358Q708 358 718 366ZM558 350Q571 350 594 314Q630 307 630 278Q620 270 614 270Q586 279 586 310L578 306H574Q555 315 546 334V338Q546 344 558 350ZM698 338Q716 331 730 310V306Q730 294 714 294Q696 301 686 318V330Q686 338 698 338ZM534 322H538Q557 313 566 294V290Q566 284 554 278Q536 285 522 306V310Q522 316 534 322ZM670 310H678Q706 293 706 286V278Q706 270 698 270H686Q680 270 662 294V302Q663 310 670 310ZM506 294Q529 294 550 258Q568 258 582 234V226Q582 218 574 218H562Q554 218 534 250Q498 263 498 290ZM574 286H582Q588 286 606 262V254Q606 248 594 242Q562 255 562 278Q564 278 574 286ZM650 286Q668 279 682 258V254Q682 248 670 242H662Q638 256 638 278Q638 286 650 286ZM502 226V222Q510 222 510 214H514V222L506 226ZM458 214V210Q467 186 474 186V202ZM414 114Q414 110 410 102Q442 84 442 66Q436 66 430 54H434Q439 54 454 74V82Q446 82 414 114ZM394 74Q418 48 418 46V42Q418 30 402 30L382 42H378V38Q394 22 394 14Q404 14 430 46Q422 46 422 54Q426 54 426 58Q422 58 402 74ZM358 10Q358 4 370 -2H378Q378 4 366 10Z" fill="param(fill) #111111" fill-opacity="param(fill-opacity) 1" stroke="param(outline) none" stroke-opacity="param(outline-opacity) 1" stroke-width="param(outline-width) 0" stroke-linejoin="round"/>
  </g>
</svg>
