<svg xmlns="http://www.w3.org/2000/svg" width="100%" height="100%" viewBox="0 0 1624.00 1624.00">
  <g transform="translate(112.00,1312.00) scale(1,-1)">
    <path d="M424 1042H436Q452 1031 480 978Q526 986 544 986H548Q658 986 720 862Q835 902 900 902Q1077 902 1228 758Q1324 645 1324 526L1316 474Q1316 464 1400 354Q1392 350 1388 350Q1361 350 1264 354Q1155 254 1012 254Q805 254 644 470Q592 586 592 614Q558 606 532 606Q403 606 360 734Q360 738 356 738H284Q278 738 272 750V758Q279 774 300 774H352V794Q352 901 448 958V966Q412 1013 412 1030Q412 1036 424 1042ZM1164 1002Q1338 1002 1376 890Q1380 885 1380 862V850Q1380 775 1276 738Q1217 817 1136 866Q995 930 908 930V934Q1008 1002 1164 1002ZM652 514Q672 461 736 406Q875 543 924 686Q972 796 972 866Q922 874 888 874Q824 874 824 846Q799 711 656 518Q652 518 652 514ZM1112 814V806Q1112 604 924 374Q865 322 856 322V318Q946 282 1008 282Q1111 323 1212 574Q1236 653 1236 690V694Q1224 748 1112 814ZM292 718Q364 699 364 662Q368 662 372 650Q368 650 368 646L296 674Q296 670 180 578Q195 418 216 418L348 366Q459 457 464 466Q452 547 452 598Q492 598 492 562Q508 473 508 446L356 322Q164 389 164 402L136 590Q140 598 292 718ZM532 418Q568 397 568 362Q543 370 536 370Q424 278 424 270Q441 118 452 118Q590 66 596 66Q681 146 696 146Q708 126 708 114Q697 98 596 22Q408 85 408 102Q380 267 380 290ZM640 418H644Q775 285 836 266Q964 226 1020 226L1024 178V174Q1024 79 924 54H892Q832 54 748 158Q644 369 644 382ZM164 350Q337 286 344 274L368 86Q343 56 216 -42Q32 22 32 30Q8 114 0 230Q141 350 164 350Z" fill="param(fill) #111111" fill-opacity="param(fill-opacity) 1" stroke="param(outline) none" stroke-opacity="param(outline-opacity) 1" stroke-width="param(outline-width) 0" stroke-linejoin="round"/>
  </g>
</svg>
