<svg xmlns="http://www.w3.org/2000/svg" width="100%" height="100%" viewBox="0 0 1624.00 1624.00">
  <g transform="translate(112.00,1312.00) scale(1,-1)">
    <path d="M508 1200H548Q648 1200 732 1064Q740 1064 740 1072L720 1152V1160Q720 1166 736 1176H748Q775 1176 792 1052Q860 1096 932 1096Q1010 1096 1044 1064Q1044 1015 944 952L900 940V936Q1049 891 1176 732Q1288 564 1288 412V360Q1288 126 1068 -80Q893 -200 740 -200H676Q439 -200 248 4Q112 173 112 364V436Q112 555 216 724Q348 880 388 880Q396 907 552 956Q617 968 628 968V972Q464 1009 464 1152Q464 1200 508 1200ZM204 400Q204 70 516 -72Q610 -108 680 -108H724Q990 -108 1152 192Q1192 300 1192 380V412Q1192 685 888 840Q785 878 688 880Q562 874 428 800Q269 686 220 508Q204 451 204 400ZM492 804Q540 804 540 736Q540 725 500 720H492Q470 720 456 744V780Q457 789 492 804ZM424 720Q454 712 464 692V680Q464 664 392 588Q352 516 316 388H288Q252 388 252 428Q252 541 384 700Q411 720 424 720Z" fill="param(fill) #111111" fill-opacity="param(fill-opacity) 1" stroke="param(outline) none" stroke-opacity="param(outline-opacity) 1" stroke-width="param(outline-width) 0" stroke-linejoin="round"/>
  </g>
</svg>
