<svg xmlns="http://www.w3.org/2000/svg" width="100%" height="100%" viewBox="0 0 1624.00 1624.00">
  <g transform="translate(112.00,1312.00) scale(1,-1)">
    <path d="M764 1200V1192Q672 1120 672 1004Q672 904 772 776Q772 843 900 876Q900 881 940 904H944Q944 787 856 736Q840 728 812 728H792L784 732Q792 669 792 652Q792 562 728 408V392Q728 381 784 368Q789 368 860 332Q936 388 1000 500Q1074 696 1116 696H1128Q1159 696 1196 664V668Q1160 877 1160 964Q1160 1016 1240 1036Q1292 1021 1324 628V544Q1316 415 1316 404V380Q1316 310 1088 60Q1012 -39 1012 -108V-184Q1012 -192 1004 -192Q793 -200 696 -200Q582 -200 392 -192L388 -184V-164Q388 -43 360 -12Q302 73 176 216Q84 317 84 404Q76 537 76 556V616Q101 959 144 1020Q151 1036 172 1036Q240 1014 240 952Q240 890 204 664Q236 696 280 696H284Q325 696 388 528Q448 410 524 348Q544 338 544 332Q628 380 684 380V384Q684 393 680 400Q689 436 704 456Q635 456 600 564Q594 668 572 668V676L612 680Q683 680 712 596Q720 566 720 540V492H724Q760 579 760 640V652Q760 734 668 888Q649 939 644 992Q596 992 580 1036Q556 1084 540 1084V1092H544Q644 1076 644 1036H648Q648 1109 744 1196ZM560 324Q677 210 692 124Q696 117 696 104H700Q712 196 832 324V328Q767 364 712 364H704Q646 364 560 324Z" fill="param(fill) #111111" fill-opacity="param(fill-opacity) 1" stroke="param(outline) none" stroke-opacity="param(outline-opacity) 1" stroke-width="param(outline-width) 0" stroke-linejoin="round"/>
  </g>
</svg>
