<svg xmlns="http://www.w3.org/2000/svg" width="100%" height="100%" viewBox="0 0 1624.00 1624.00">
  <g transform="translate(112.00,1312.00) scale(1,-1)">
    <path d="M864 1150H872Q917 1150 944 998Q980 943 980 934Q974 866 956 866Q947 866 860 946Q807 974 736 994Q793 1150 864 1150ZM736 970H744Q890 927 940 846Q940 786 988 738V706Q949 642 888 642Q805 762 760 794Q728 802 720 802H688Q652 802 556 766Q528 811 528 834Q551 954 592 954L612 958Q637 958 652 882Q660 878 664 878Q688 878 736 970ZM1320 898Q1375 898 1400 710V686Q1400 587 1296 462H1292Q1312 603 1312 674V694Q1312 802 1216 834V842Q1264 898 1320 898ZM1204 822Q1277 822 1296 678Q1296 630 1300 630Q1277 398 1240 398Q1240 387 1196 350Q1191 355 1156 466Q1072 595 1072 650Q1072 714 1136 774Q1166 822 1204 822ZM688 786Q787 786 852 658Q855 626 860 626Q852 482 824 482Q808 462 804 462H800Q670 634 548 634V638Q548 762 584 762Q617 778 688 786ZM1056 658H1060V654Q1060 558 1156 430Q1168 394 1168 382V366Q1168 301 1116 278Q1089 260 1020 246Q1012 257 1004 310L908 478Q989 596 1056 658ZM536 614H544Q696 614 784 422Q800 335 800 310Q800 266 780 266Q703 266 632 162H624Q571 195 544 302Q528 427 460 506Q484 614 536 614ZM864 490Q886 490 948 358Q1004 286 1004 234Q1004 154 936 154Q812 193 812 318Q812 361 808 378Q815 490 864 490ZM452 462H460Q493 462 552 218Q553 196 696 58Q666 -38 600 -38Q500 -38 500 54Q396 309 396 354ZM368 350 476 70Q484 52 484 18V10Q484 1 372 -14Q276 184 276 218Q272 225 272 238Q272 309 368 350ZM256 222Q256 177 352 -2Q360 -42 360 -54Q360 -113 336 -150H324Q282 -150 104 -62H100Q100 -25 144 54Q164 190 172 190ZM152 170Q152 166 156 166Q128 14 76 -50H72Q0 -46 0 -2V10Q22 170 152 170Z" fill="param(fill) #111111" fill-opacity="param(fill-opacity) 1" stroke="param(outline) none" stroke-opacity="param(outline-opacity) 1" stroke-width="param(outline-width) 0" stroke-linejoin="round"/>
  </g>
</svg>
