<svg xmlns="http://www.w3.org/2000/svg" width="100%" height="100%" viewBox="0 0 1624.00 1624.00">
  <g transform="translate(112.00,1312.00) scale(1,-1)">
    <path d="M764 1200V1192Q672 1120 672 1004Q672 904 772 776Q772 843 900 876Q900 881 940 904H944Q944 787 856 736Q840 728 812 728H792L784 732Q792 669 792 652Q792 562 728 408V392Q728 381 784 368Q789 368 860 332Q936 388 1000 500Q1074 696 1116 696H1128Q1159 696 1196 664V668Q1160 877 1160 964Q1160 1016 1240 1036Q1292 1021 1324 628V544Q1316 415 1316 404V380Q1316 311 1088 60Q1012 -39 1012 -108V-184L1008 -192Q789 -200 692 -200Q583 -200 392 -192L388 -184V-164Q388 -43 360 -12Q306 69 176 216Q84 317 84 404Q76 537 76 556V616Q101 959 144 1020Q151 1036 172 1036Q240 1014 240 952Q240 890 204 664Q236 696 280 696H284Q325 696 388 528Q448 410 524 348Q544 338 544 332Q628 380 684 380V384Q684 393 680 400Q689 436 704 456Q635 456 600 564Q594 668 572 668V676L612 680Q683 680 712 596Q720 566 720 540V492H724Q760 579 760 640V652Q760 734 668 888Q649 939 644 992Q596 992 580 1036Q556 1084 540 1084V1092H544Q644 1076 644 1036H648Q648 1109 744 1196ZM88 584Q101 316 120 316Q120 304 340 44Q400 -42 400 -76V-108Q400 -130 404 -164Q400 -171 400 -184Q492 -184 692 -192Q696 -152 696 -132V-60Q696 227 492 356Q410 434 344 592Q307 688 276 688Q196 667 196 620L188 616H184V620Q224 896 224 952V960Q212 1024 168 1024H164Q134 1024 88 644ZM1176 956V952Q1176 906 1216 616L1208 612Q1177 688 1116 688Q1089 678 1000 476Q943 378 828 292Q712 163 712 40Q708 40 708 32Q712 -28 712 -68V-124Q712 -145 708 -192Q913 -184 996 -184Q996 -29 1036 4Q1091 86 1236 252Q1300 319 1300 420Q1312 542 1312 588Q1312 759 1248 1012Q1240 1012 1240 1024H1228Q1188 1024 1176 956ZM1200 592H1208V588Q1176 468 1104 324H1100V332Q1175 495 1200 592Z" fill="param(fill) #111111" fill-opacity="param(fill-opacity) 1" stroke="param(outline) none" stroke-opacity="param(outline-opacity) 1" stroke-width="param(outline-width) 0" stroke-linejoin="round"/>
  </g>
</svg>
