<svg xmlns="http://www.w3.org/2000/svg" width="100%" height="100%" viewBox="0 0 1624.00 1624.00">
  <g transform="translate(112.00,1312.00) scale(1,-1)">
    <path d="M930 1200H978Q1030 1195 1030 1160Q1029 1115 938 968Q1130 968 1290 772Q1370 634 1370 496V464Q1370 228 1178 24Q935 -200 678 -200H634Q364 -200 154 96Q30 308 30 484V548Q30 788 234 932Q362 996 494 996Q517 992 558 992H570Q510 1084 510 1120Q561 1164 614 1164Q645 1134 698 1040Q794 1200 930 1200ZM130 532V492Q130 249 338 36Q494 -100 674 -100Q674 -104 678 -104Q780 -104 986 0Q1199 135 1258 360Q1274 398 1274 456V496Q1274 723 1018 852Q955 868 906 868H850L822 864Q926 744 926 600Q906 356 866 356H858Q847 356 834 364Q870 548 870 588V612Q870 755 758 840L734 844Q725 844 718 840Q572 896 466 896H450Q223 896 142 648Q130 583 130 532Z" fill="param(fill) #111111" fill-opacity="param(fill-opacity) 1" stroke="param(outline) none" stroke-opacity="param(outline-opacity) 1" stroke-width="param(outline-width) 0" stroke-linejoin="round"/>
  </g>
</svg>
