<svg xmlns="http://www.w3.org/2000/svg" width="100%" height="100%" viewBox="0 0 1624.00 1624.00">
  <g transform="translate(112.00,1312.00) scale(1,-1)">
    <path d="M700 1164H740Q881 1164 1128 988Q1212 939 1316 932Q1400 898 1400 816Q1400 766 1384 580Q1388 510 1388 492Q1388 129 1164 -16Q982 -164 736 -164H680Q435 -164 212 -28Q175 -16 80 0Q0 46 0 80V100Q0 131 44 240V256Q8 406 8 500V540Q8 956 424 1108Q585 1164 700 1164ZM112 524Q112 436 152 240V224Q152 205 112 124L108 104Q266 80 296 48Q314 48 340 16Q433 -52 640 -52H656Q1064 -52 1196 168Q1280 252 1280 568Q1280 644 1296 804Q1296 839 1188 848Q1153 853 968 976Q829 1060 692 1060Q479 1060 240 880Q112 748 112 524ZM224 732H240Q271 732 276 692Q276 667 240 660Q204 667 204 676V700Q204 722 224 732ZM220 640H232Q242 640 248 604L236 484Q260 370 260 360Q250 328 236 328Q189 328 172 440Q168 471 168 504Q168 640 220 640Z" fill="param(fill) #111111" fill-opacity="param(fill-opacity) 1" stroke="param(outline) none" stroke-opacity="param(outline-opacity) 1" stroke-width="param(outline-width) 0" stroke-linejoin="round"/>
  </g>
</svg>
