<svg xmlns="http://www.w3.org/2000/svg" width="100%" height="100%" viewBox="0 0 1624.00 1624.00">
  <g transform="translate(112.00,1312.00) scale(1,-1)">
    <path d="M1038 1200Q1038 1196 1042 1196Q1046 1110 1046 1068V1008Q1046 790 890 720Q870 720 870 680Q870 640 866 468Q866 420 894 420V424Q927 604 962 604Q990 641 1110 676Q1226 708 1318 708H1342Q1353 708 1366 700Q1232 448 1078 408Q989 396 914 396Q907 371 902 332Q914 256 1018 256V252Q1017 245 978 224L982 216Q973 200 910 184Q910 210 854 224L858 252V256Q858 357 774 488Q717 468 682 468H670Q577 468 450 620Q359 685 318 728V732Q397 744 526 752Q733 752 786 608Q790 578 794 568Q790 561 790 552Q790 528 814 516H818V520Q830 680 830 708V716L814 856Q814 952 966 1148Q1017 1200 1038 1200ZM1030 240H1034Q1102 217 1102 184Q1036 232 1030 232ZM850 220V216Q833 197 822 180H830Q937 180 990 148Q960 72 878 72H770V68Q821 52 870 52Q983 52 1086 156Q1101 184 1106 184Q1107 176 1114 176Q1178 208 1198 208H1230Q1238 208 1238 196Q1238 78 882 -120Q788 -160 714 -160H682Q627 -160 458 -132H386Q311 -132 138 -200Q34 -8 34 0Q256 196 434 196H442Q638 180 678 180Q744 180 850 220Z" fill="param(fill) #111111" fill-opacity="param(fill-opacity) 1" stroke="param(outline) none" stroke-opacity="param(outline-opacity) 1" stroke-width="param(outline-width) 0" stroke-linejoin="round"/>
  </g>
</svg>
