<svg xmlns="http://www.w3.org/2000/svg" width="100%" height="100%" viewBox="0 0 1619.36 1619.36">
  <g transform="translate(109.68,1309.68) scale(1,-1)">
    <path d="M622 862H650Q683 862 762 830Q762 838 718 854V862H722Q787 862 906 782Q942 738 942 686V678Q942 631 906 538V534H910Q958 640 958 694Q955 737 894 806V810Q949 810 1014 706Q1034 662 1034 650H1038V658Q1034 665 1034 674H1038Q1076 674 1098 594Q1174 573 1174 522H1190Q1270 501 1270 442V438Q1270 338 1166 274Q1159 270 1150 270H1134Q1118 270 1034 318Q990 318 950 370Q918 402 874 434V454H870Q870 438 850 438Q814 438 814 470V474H810Q810 458 798 458Q758 458 758 498H754Q754 477 714 474H698Q662 474 662 514V518H658Q658 494 646 494H642Q619 494 598 510V506Q598 502 602 502Q595 446 558 446H550Q541 446 510 518H506V514Q530 455 530 434V422Q530 383 466 374Q444 497 398 538Q371 559 330 578H326V574Q454 500 454 370V346Q436 318 414 318Q408 318 386 442Q374 469 338 498H334Q394 440 394 346V334Q381 258 322 258Q322 262 318 262L322 270V346Q322 383 294 406V402Q314 353 314 286Q304 222 250 222H246V226Q246 358 174 410L142 450V458Q265 594 274 594L270 602V606Q270 650 326 650V654H314V670Q314 702 370 750Q418 810 458 810Q520 810 594 742V746Q594 764 490 818V822Q526 846 550 846H562Q699 846 754 638Q762 596 762 586H766V594Q766 781 602 850V858ZM330 650V646H338V650ZM1038 642V630H1042V642ZM366 638V634L438 598Q438 615 370 638ZM1042 622Q1042 583 1018 522Q1034 526 1050 578Q1046 600 1046 622ZM586 562V558Q595 514 602 514V530Q602 552 586 562ZM1094 514Q1094 495 1014 406H1018Q1077 443 1098 510V514ZM1170 458Q1165 417 1114 358H1118Q1174 396 1174 450V458ZM1282 458Q1398 419 1398 338V306Q1376 206 1302 206Q1302 202 1290 202Q1241 202 1178 262V266Q1274 313 1274 446V450Q1275 458 1282 458ZM90 438H94Q153 438 202 302Q210 284 210 250V234Q210 149 150 138H142Q129 138 98 150V158Q142 205 142 242Q142 337 38 358V366Q38 427 90 438ZM30 334H54Q108 334 122 250Q122 213 90 186H86Q74 186 38 198V206Q54 206 86 214V250Q86 306 30 306L2 302V310Q2 317 30 334ZM42 294Q74 294 74 254V230Q74 222 66 222H26Q21 222 6 242V258Q6 294 42 294Z" fill="param(fill) #111111" fill-opacity="param(fill-opacity) 1" stroke="param(outline) none" stroke-opacity="param(outline-opacity) 1" stroke-width="param(outline-width) 0" stroke-linejoin="round"/>
  </g>
</svg>
