<svg xmlns="http://www.w3.org/2000/svg" width="100%" height="100%" viewBox="0 0 1624.00 1624.00">
  <g transform="translate(112.00,1312.00) scale(1,-1)">
    <path d="M950 1200H982Q1002 1190 1002 1168Q1002 1100 934 996Q876 944 858 944Q966 887 1018 760Q1042 683 1054 516Q1093 456 1190 340Q1254 238 1254 140V112Q1254 -144 894 -192Q803 -200 754 -200H602Q229 -200 154 44Q146 76 146 112V152Q146 292 310 460Q358 513 358 660Q358 734 430 852Q508 938 586 956Q616 964 626 964V972Q522 1042 522 1112Q533 1144 562 1144H582Q641 1144 698 1088V1112Q698 1192 722 1192H726Q746 1175 746 1136V1092Q876 1196 950 1200ZM226 132Q226 -34 414 -88Q533 -116 766 -116Q1170 -116 1170 120Q1170 227 1118 292Q1113 307 1066 356Q966 472 966 524Q949 741 914 772Q848 888 706 888Q501 888 454 700Q428 460 410 460Q371 401 274 280Q226 201 226 132ZM638 852H654Q671 852 678 796Q651 776 638 776Q617 776 602 800V828Q616 852 638 852ZM578 792Q610 792 610 760V744Q554 674 542 564Q521 544 506 544Q474 544 474 592Q518 792 578 792Z" fill="param(fill) #111111" fill-opacity="param(fill-opacity) 1" stroke="param(outline) none" stroke-opacity="param(outline-opacity) 1" stroke-width="param(outline-width) 0" stroke-linejoin="round"/>
  </g>
</svg>
