<svg xmlns="http://www.w3.org/2000/svg" width="100%" height="100%" viewBox="0 0 1624.00 1624.00">
  <g transform="translate(112.00,1312.00) scale(1,-1)">
    <path d="M1172 968Q1223 968 1260 912Q1187 819 1056 684V680Q1305 872 1356 872Q1400 847 1400 812V796Q1400 719 1028 620V616H1064Q1187 628 1212 628H1244Q1352 614 1352 588Q1352 545 1260 516Q1141 564 1048 564L1000 560Q1008 542 1008 508V496Q1008 383 868 328Q629 190 4 32L0 40Q203 244 208 244H212L276 184V188Q273 211 224 260Q224 267 320 352H324Q328 352 404 264H408Q398 298 340 368Q366 400 452 468H460Q460 460 532 368H536Q515 417 468 480V484Q594 580 596 580L692 460V468Q670 525 624 588V596Q673 636 728 656Q792 579 804 556H812Q812 579 752 668Q764 679 808 688Q894 688 956 632Q1116 820 1152 968Z" fill="param(fill) #111111" fill-opacity="param(fill-opacity) 1" stroke="param(outline) none" stroke-opacity="param(outline-opacity) 1" stroke-width="param(outline-width) 0" stroke-linejoin="round"/>
  </g>
</svg>
