<svg xmlns="http://www.w3.org/2000/svg" width="100%" height="100%" viewBox="0 0 1624.00 1624.00">
  <g transform="translate(112.00,1312.00) scale(1,-1)">
    <path d="M704 1200Q752 1079 752 1012H756Q796 1128 876 1128H884Q955 1128 980 1020V1016H976Q937 1055 920 1056Q856 1056 828 936V932H832Q890 972 980 972Q1128 972 1192 788H1188Q1072 908 984 908H956Q868 908 736 744Q708 705 704 696H700Q598 840 528 880Q471 908 432 908Q325 908 212 788H208V792Q251 910 336 952Q385 972 444 972Q507 972 568 932H572Q552 1056 472 1056Q466 1056 420 1012V1036Q453 1128 520 1128H524Q618 1128 644 1000H648Q648 1112 700 1200ZM648 996V988H652V996ZM500 872Q535 872 704 680Q858 872 912 872H920Q1045 872 1084 672V656Q999 808 924 808Q894 808 860 764L912 772Q980 772 1004 704V684Q958 720 936 720H904Q808 708 704 564Q614 684 552 700Q509 724 476 724Q437 719 400 680H396V688Q396 752 484 772H496Q516 772 544 764H548V768Q492 808 476 808Q414 808 324 668V676Q394 872 500 872ZM496 704Q593 704 676 544V540Q676 535 616 500H612Q603 500 552 528V536Q584 558 584 568Q537 652 504 652Q476 652 436 588Q424 588 424 632Q431 704 496 704ZM912 704Q976 694 976 640V628Q976 584 964 584H960Q934 652 896 652Q866 652 824 580Q816 564 816 556Q843 540 848 540V528Q799 500 788 500Q733 527 720 544Q810 704 912 704ZM704 532Q770 497 772 488V484Q709 444 696 444Q631 481 628 488Q679 532 704 532ZM528 520Q588 500 588 488Q533 436 520 436Q480 457 476 468V472Q476 477 528 520ZM864 520H868Q914 483 924 468Q887 436 868 436L808 488Q808 500 864 520ZM608 476Q628 476 680 432Q667 413 616 380H600Q546 420 540 420V428Q597 476 608 476ZM792 476Q794 476 860 432V420Q797 380 788 380Q774 380 716 432Q773 476 792 476ZM468 452Q507 431 508 424Q458 364 436 364H432Q426 364 420 376Q448 452 468 452ZM936 452Q976 397 976 376Q976 370 964 364H952L888 424Q917 452 936 452ZM700 420Q747 394 772 368V364Q714 312 692 312Q628 359 628 364V368Q669 407 700 420ZM528 412Q579 383 596 364Q539 308 520 308L460 352Q513 412 528 412ZM880 412Q940 356 940 352L876 308H868Q804 359 804 364Q855 412 880 412ZM984 360Q996 338 996 328H988Q972 335 972 356Q976 356 984 360ZM408 356H420Q428 355 428 348Q428 342 404 324Q404 328 400 328Q408 344 408 356ZM616 352Q669 312 684 304V300Q670 281 624 248Q603 248 548 296V300Q595 352 616 352ZM788 352Q803 350 852 300V292Q789 248 776 248H772Q722 292 716 292V300Q771 349 788 352ZM444 336Q478 331 516 292L460 244Q439 244 396 284V288Q396 294 444 336ZM956 336 1008 288V280Q1002 280 952 244H948Q926 244 884 296Q932 336 956 336ZM540 284 604 236V232Q553 180 540 180L472 224V232Q521 284 540 284ZM700 284Q732 268 764 236Q718 189 700 184Q663 202 636 236Q684 284 700 284ZM868 284Q870 284 928 236V224Q922 224 864 180H852Q806 217 796 232V236Q854 284 868 284ZM392 264Q417 252 436 232V228Q436 222 380 172H376Q385 264 392 264ZM1008 264Q1011 256 1020 176L1012 172Q1006 172 956 228Q959 236 1008 264ZM616 220Q636 220 684 172V168Q684 164 628 116H620Q556 163 556 168ZM784 220Q840 174 840 168V164Q788 116 768 116Q712 167 712 172Q765 220 784 220ZM460 216Q502 190 528 164V160Q469 104 452 104Q390 145 388 152Q452 216 460 216ZM936 216H944Q978 181 1004 148Q958 104 936 104Q905 125 872 164V168ZM696 156H704Q710 156 756 104V100Q710 48 700 48H696Q641 96 640 100V104Q640 108 696 156ZM540 152H548Q608 109 608 104V100Q608 95 548 40Q495 68 476 92Q477 99 540 152ZM860 152Q924 97 924 92Q924 88 856 40H848Q843 40 788 100Q838 152 860 152ZM384 132H388Q444 97 444 92L388 32Q381 54 376 128ZM1016 132 1020 124Q1018 36 1004 36Q952 84 952 88Q1001 132 1016 132ZM624 88H628Q674 51 684 36V32Q684 27 624 -24Q568 19 568 24V28Q594 64 624 88ZM776 88Q836 33 836 28Q785 -24 764 -24L712 32V36Q764 88 776 88ZM472 76Q536 28 536 24Q494 -28 472 -28Q409 9 404 20Q450 76 472 76ZM940 76Q986 39 996 24V20Q987 5 920 -32Q910 -32 860 24Q920 76 940 76ZM704 20Q756 -32 756 -44L700 -100H696Q670 -79 644 -40V-36Q679 5 704 20ZM548 12H556Q616 -34 616 -40L560 -104Q551 -104 496 -44V-40Q496 -34 548 12ZM844 12H852Q889 -20 904 -44Q904 -48 840 -104Q809 -79 780 -40Q780 -35 844 12ZM404 0Q464 -38 464 -44Q464 -49 428 -80Q396 -16 396 -4ZM1000 0V-4Q1000 -12 972 -80H968Q963 -80 932 -44V-40Q995 0 1000 0ZM768 -52Q772 -52 824 -112V-124Q783 -178 764 -192Q712 -135 712 -112ZM624 -56H632Q637 -56 684 -112V-116Q684 -128 640 -192H632Q572 -129 572 -116Q572 -109 624 -56ZM488 -60Q544 -107 544 -124Q541 -124 512 -156H504Q441 -103 440 -96Q467 -60 488 -60ZM924 -60 952 -92V-100Q934 -124 892 -156H884Q856 -138 856 -116V-112Q899 -60 924 -60ZM556 -132H564Q564 -139 608 -188V-200Q524 -175 524 -164Q552 -132 556 -132ZM840 -132Q844 -132 872 -168Q848 -184 788 -200V-192Q788 -186 840 -132ZM692 -136H700Q716 -150 744 -196L736 -200H656V-196Q689 -146 692 -136Z" fill="param(fill) #111111" fill-opacity="param(fill-opacity) 1" stroke="param(outline) none" stroke-opacity="param(outline-opacity) 1" stroke-width="param(outline-width) 0" stroke-linejoin="round"/>
  </g>
</svg>
