<svg xmlns="http://www.w3.org/2000/svg" width="100%" height="100%" viewBox="0 0 1624.00 1624.00">
  <g transform="translate(112.00,1312.00) scale(1,-1)">
    <path d="M940 1200H968Q1031 1200 1064 1108Q1064 1048 1000 1000V968Q1183 916 1276 792V788Q1184 717 1136 532Q1062 268 940 168Q831 64 644 32Q622 21 548 12L524 16H484Q428 8 428 -24Q428 -113 488 -192V-200H484Q400 -135 400 -28Q400 64 500 204Q660 520 688 556Q846 712 1004 764Q1122 800 1168 800V804L1104 808Q910 785 720 668Q536 569 408 284Q308 108 308 -40Q308 -132 348 -196L340 -200Q280 -128 280 36Q280 92 180 200Q124 273 124 384Q124 525 296 716V720Q216 793 216 872V876Q216 911 244 992L240 1040L256 1052H264Q287 1052 300 1024V1016Q300 996 260 976Q232 910 232 856Q269 744 316 744Q326 757 340 852Q372 918 440 956Q537 1140 720 1140H740Q832 1184 860 1184Q895 1184 940 1200ZM952 1172V1168Q1008 1132 1008 1088H1012V1100Q992 1161 964 1172ZM924 1164V1156Q950 1156 996 1052H1000V1056Q984 1164 928 1164ZM996 1164V1160Q1028 1121 1028 1064H1032L1036 1084V1108Q1036 1137 1000 1164ZM832 1156Q886 1114 912 1044L924 984Q920 957 920 940H924Q949 940 956 980V1004Q956 1079 896 1144L848 1160Q841 1156 832 1156ZM904 1152Q972 1082 972 1000Q980 1000 980 1008V1020Q957 1148 912 1148Q912 1152 904 1152ZM792 1144V1140Q827 1140 864 1088Q892 1033 892 984Q892 956 884 928H888Q908 942 908 972Q880 1144 816 1144ZM760 1112Q840 1066 840 924H860Q876 924 876 972Q876 1097 800 1124H772Q766 1124 760 1112ZM672 1116V1112Q772 1026 772 848L768 832Q796 861 796 912V928Q796 1092 688 1120Q681 1116 672 1116ZM604 1096V1088Q688 1049 712 980Q732 905 732 872Q720 796 720 788Q743 788 756 856Q756 1030 660 1104H640Q630 1104 604 1096ZM756 1100V1096Q812 1027 812 924H816Q820 964 820 984Q820 1052 756 1100ZM532 1044Q577 1018 624 1008Q684 905 684 860Q684 821 656 764H664Q706 764 716 864V868Q716 1007 636 1056Q608 1076 584 1076H580Q556 1076 532 1044ZM1012 1076V1052H1016V1076ZM264 1040Q264 1038 256 1028V1008L276 1004Q284 1017 284 1024Q280 1040 264 1040ZM500 1008Q560 1008 620 876Q628 850 628 840V824Q628 802 620 764Q636 764 644 816V856Q644 937 580 964L576 984V1000L580 1008Q543 1024 528 1024H512Q506 1024 500 1008ZM588 972 600 964H620L624 984Q620 1000 608 1000Q588 994 588 972ZM464 944Q551 944 584 800Q584 784 588 768H596Q616 785 616 816V820Q616 918 520 988Q513 992 504 992H492Q477 992 464 944ZM628 952Q656 903 656 864H660V896Q647 947 632 952ZM952 940 944 908Q950 908 968 932L956 940ZM988 940Q988 899 900 868Q873 844 844 844H836Q828 844 828 852V860L856 900V908H844Q796 835 796 812L800 776Q771 724 740 724L732 736Q736 749 736 768Q720 762 720 756V752Q720 738 724 716Q699 668 636 668Q628 678 628 680V692Q664 726 664 740H652Q590 708 564 652Q549 644 508 560Q508 547 452 540Q452 494 400 488H388Q388 463 344 440H328Q308 440 268 488Q239 502 188 512Q148 443 148 376Q148 255 240 184H248Q333 184 376 300Q450 440 536 548Q663 666 856 752Q1030 820 1084 820H1116Q1144 820 1244 796Q1219 842 1116 904Q1042 940 988 940ZM444 928V924Q541 924 568 776V772H572V792Q572 883 480 928Q464 928 464 932Q457 928 444 928ZM912 916 908 900Q921 904 924 916ZM356 828H360Q405 848 436 848Q497 848 552 764V772Q552 866 480 900Q446 908 440 908Q380 908 360 840Q360 836 356 828ZM880 908Q873 868 856 868V864H860Q886 874 888 884V888L884 908ZM352 788V772Q382 788 476 788Q510 780 524 780Q488 832 440 832Q352 832 352 788ZM760 800 768 772Q764 764 764 760Q784 770 784 792L768 804ZM484 124V104Q484 63 544 56H548Q746 56 944 216Q1063 345 1136 628Q1154 691 1220 784V788H1216Q963 788 728 580Q675 527 540 252Q484 155 484 124ZM328 720V688H336Q336 712 348 712H356Q392 712 392 680V676Q386 660 364 660V656Q367 656 388 652Q414 660 424 660Q482 648 496 648H500Q543 648 576 712H584V716Q560 716 536 748Q511 772 468 772H464Q350 772 340 732ZM684 752 688 716Q652 694 652 688H660Q700 707 700 732Q697 752 688 752ZM576 740V732H580Q596 738 596 744V748H584Q576 747 576 740ZM500 708Q528 700 528 676V672Q522 656 500 656H488Q483 656 468 676V684Q484 708 500 708ZM292 676V672Q292 666 316 648H348Q348 653 312 684Q299 676 292 676ZM272 652Q237 619 196 552Q196 540 252 528V516Q254 520 288 520Q309 460 340 460Q368 472 368 500L364 508V516L368 524Q374 524 412 512Q412 530 432 540Q432 568 440 568H456Q504 568 504 596V600L488 608Q459 608 428 584Q421 585 396 604H376L364 596Q360 596 336 624L288 612V636Q288 642 272 652ZM384 632V628Q389 628 428 620H432Q450 632 468 632V636Q458 636 428 644ZM364 640V628H368V640ZM492 632V624H504V632Z" fill="param(fill) #111111" fill-opacity="param(fill-opacity) 1" stroke="param(outline) none" stroke-opacity="param(outline-opacity) 1" stroke-width="param(outline-width) 0" stroke-linejoin="round"/>
  </g>
</svg>
