<svg xmlns="http://www.w3.org/2000/svg" width="100%" height="100%" viewBox="0 0 1624.00 1624.00">
  <g transform="translate(112.00,1312.00) scale(1,-1)">
    <path d="M852 1200H900Q966 1200 1128 1100V1060Q1128 1051 1060 1032V996Q1060 990 1048 984H784Q692 984 692 996Q688 1018 688 1032V1036Q620 1053 620 1064V1100Q780 1200 852 1200ZM840 1112Q840 1086 876 1080Q901 1080 904 1112V1124Q904 1129 884 1144H872Q840 1144 840 1112ZM724 952H1024Q1032 952 1036 908Q1036 742 932 700Q896 692 880 692H864Q757 692 716 820Q712 889 712 932Q715 952 724 952ZM192 632Q314 628 372 628H764Q780 617 868 488L876 484Q961 611 984 628L1020 632Q1236 611 1236 484Q1240 484 1240 444V-192Q1240 -200 1232 -200H612Q604 -200 604 -192V452Q326 456 184 456Q160 482 160 532V556Q160 610 192 632Z" fill="param(fill) #111111" fill-opacity="param(fill-opacity) 1" stroke="param(outline) none" stroke-opacity="param(outline-opacity) 1" stroke-width="param(outline-width) 0" stroke-linejoin="round"/>
  </g>
</svg>
