<svg xmlns="http://www.w3.org/2000/svg" width="100%" height="100%" viewBox="0 0 1624.00 1624.00">
  <g transform="translate(112.00,1312.00) scale(1,-1)">
    <path d="M548 1096H584Q664 1096 720 992Q736 959 736 924Q736 800 592 752H544Q462 752 400 860Q388 904 388 924Q388 1042 516 1092Q532 1096 548 1096ZM840 864Q897 864 972 732Q984 720 1244 352Q1256 337 1256 320V280Q1256 217 1148 184Q1143 178 984 108V104H1180Q1206 104 1232 108Q1247 104 1276 104H1324Q1400 90 1400 28V-16Q1400 -88 1308 -96H556Q495 -96 488 -4L480 44Q480 116 616 156L876 280V284Q864 292 744 468H740Q688 244 664 244Q613 217 432 104Q402 92 380 92Q315 92 300 168V180Q300 248 468 328Q540 371 540 392Q616 678 616 712Q669 770 816 860Q819 860 840 864ZM136 248Q168 235 188 180Q184 109 184 64V16L272 -32Q310 -41 360 -92V-96H8Q0 -96 0 -88Q38 -20 56 -20Q81 -20 100 16Q129 28 136 28Q149 20 160 20H164V52L168 80Q164 80 164 84L124 80Q52 99 52 144L60 148H84Q130 148 160 96H164V140Q139 140 120 208Q125 233 136 248ZM276 116H284Q292 115 292 108Q292 52 212 52H200Q194 52 188 64Q216 116 276 116Z" fill="param(fill) #111111" fill-opacity="param(fill-opacity) 1" stroke="param(outline) none" stroke-opacity="param(outline-opacity) 1" stroke-width="param(outline-width) 0" stroke-linejoin="round"/>
  </g>
</svg>
