<svg xmlns="http://www.w3.org/2000/svg" width="100%" height="100%" viewBox="0 0 1624.00 1624.00">
  <g transform="translate(112.00,1312.00) scale(1,-1)">
    <path d="M1188 798Q1213 749 1252 698V694H1228Q1266 641 1304 474Q1300 409 1300 402Q1300 370 1340 354L1400 266V254Q1378 206 1352 206H1340Q1332 206 1332 214Q1348 220 1360 254Q1353 295 1264 346Q1244 385 1244 390H1240Q1240 388 1236 374Q1236 358 1240 302Q1236 268 1236 250Q1244 237 1244 226V206L1216 202H1164Q1156 202 1156 210V214Q1166 214 1204 230Q1184 351 1184 366L1188 390V414Q1188 457 1164 466V470L1168 478Q1164 478 1164 482Q1052 482 1020 366Q1020 353 1016 346Q1020 324 1020 310Q1020 259 944 214V218Q990 275 1000 342Q970 354 956 354V346H948Q948 366 900 366Q912 286 912 266Q898 266 892 222L884 218H828Q820 218 820 226Q864 264 864 306Q864 390 748 402L752 362V350Q687 280 672 270Q672 234 612 234L608 242Q608 270 684 338Q696 368 696 386Q692 410 684 410Q684 400 652 374Q648 374 636 390Q573 378 560 378H520L472 382Q484 341 492 230Q492 216 460 206Q436 211 436 218V226Q452 245 452 258Q451 301 408 362Q390 362 356 366Q320 322 320 270Q320 268 324 254Q307 222 288 222Q280 237 280 254V290Q301 377 316 394V398Q280 435 280 442L260 438L248 446H236Q189 445 172 434Q111 442 56 442Q35 438 32 438Q0 453 0 478V486Q14 507 60 530Q68 540 68 542V554Q68 565 60 578Q69 586 88 586L84 594Q84 657 204 686H220V678Q132 650 132 614V610Q132 598 176 586H212Q246 586 260 614Q284 614 320 654Q352 674 376 674H380Q409 674 468 666Q556 670 584 670Q695 658 700 654Q727 658 744 658H752Q920 642 920 538Q927 473 960 366Q972 362 1004 362Q1004 413 1076 474Q1106 494 1120 494V502Q1090 502 1072 554Q1061 554 1028 594H1032Q1083 546 1120 546H1136Q1145 546 1184 566Q1175 678 1160 678Q1167 682 1176 682V686H1132L1124 714V722L1128 730Q1076 750 1076 758V762Q1085 762 1188 798ZM864 610V606Q880 549 880 494V458Q901 386 908 378L936 370V374Q915 374 900 578Q881 605 864 610ZM1124 494H1176Q1184 494 1184 502V526Q1124 518 1124 494ZM756 438 752 430V418Q752 408 788 406Q788 411 756 438Z" fill="param(fill) #111111" fill-opacity="param(fill-opacity) 1" stroke="param(outline) none" stroke-opacity="param(outline-opacity) 1" stroke-width="param(outline-width) 0" stroke-linejoin="round"/>
  </g>
</svg>
