<svg xmlns="http://www.w3.org/2000/svg" width="100%" height="100%" viewBox="0 0 1624.00 1624.00">
  <g transform="translate(112.00,1312.00) scale(1,-1)">
    <path d="M378 1200Q392 1200 426 780Q426 757 470 744L530 688H534Q555 704 570 704Q602 704 706 644Q809 856 846 856Q868 876 878 876V884Q842 864 798 864Q753 864 698 904Q654 958 654 1012Q654 1117 762 1156Q778 1164 806 1164Q910 1164 950 1044Q954 1022 954 1012Q954 936 886 892V884Q954 932 982 932Q1102 932 1178 640Q1203 640 1242 -132Q1213 -200 1170 -200H1154Q1078 -200 1070 -84Q1070 -67 1050 240H1046Q1017 -164 998 -164Q963 -200 930 -200H926Q842 -184 842 -120L886 436Q886 556 846 624Q771 472 746 472H742Q732 472 618 536Q510 586 510 628V644L518 672Q473 716 438 716H430V456H618Q626 456 626 444Q626 308 518 288Q468 288 434 356H430L470 -196L462 -200H170Q158 -200 158 -128V-48Q158 65 194 552Q204 552 358 516H362V520Q190 571 190 580V584Q190 891 226 1200ZM354 700Q358 684 358 672Q389 720 426 720V756H418Q354 749 354 700ZM318 700V696Q318 691 338 676V680Q338 685 318 700ZM298 684V680Q306 664 322 664Q322 669 302 684ZM282 668V664Q282 659 314 632V636Q314 641 282 668ZM370 516V512H378V516ZM442 400V396Q470 312 514 312H526Q568 312 598 392H582Q571 392 442 400Z" fill="param(fill) #111111" fill-opacity="param(fill-opacity) 1" stroke="param(outline) none" stroke-opacity="param(outline-opacity) 1" stroke-width="param(outline-width) 0" stroke-linejoin="round"/>
  </g>
</svg>
