<svg xmlns="http://www.w3.org/2000/svg" width="100%" height="100%" viewBox="0 0 1624.00 1624.00">
  <g transform="translate(112.00,1312.00) scale(1,-1)">
    <path d="M608 1200H664Q723 1200 776 1096Q812 1069 812 1044V956Q928 931 928 888Q898 872 840 872H836L812 876Q805 872 792 872H780V856Q780 852 792 800Q781 780 768 780V752Q753 656 704 656Q684 656 680 628Q720 609 904 428Q936 428 992 348Q992 344 1076 260L1136 192V128Q1136 49 1008 24H1000Q968 24 936 40Q936 15 892 -28L896 -48V-56Q876 -80 876 -104V-116Q888 -160 888 -172Q884 -200 876 -200H392Q361 -181 356 -36Q356 64 324 96Q300 125 264 320V356Q315 552 372 604Q440 657 440 672Q440 720 468 720Q504 692 560 660V668Q476 713 476 760Q476 771 436 888Q436 956 416 956Q312 992 312 1020V1040Q352 1044 372 1044H468V1048Q468 1154 608 1200Z" fill="param(fill) #111111" fill-opacity="param(fill-opacity) 1" stroke="param(outline) none" stroke-opacity="param(outline-opacity) 1" stroke-width="param(outline-width) 0" stroke-linejoin="round"/>
  </g>
</svg>
