<svg xmlns="http://www.w3.org/2000/svg" width="100%" height="100%" viewBox="0 0 1624.00 1624.00">
  <g transform="translate(112.00,1312.00) scale(1,-1)">
    <path d="M848 1200H868Q984 1200 984 1044Q992 1044 992 1016V976Q992 955 980 952H968Q939 952 884 976Q884 966 824 928Q817 828 792 828Q792 784 748 728L744 692L760 680L752 716Q800 759 800 816Q804 816 804 824H812V780Q812 720 840 720Q896 713 896 704Q895 695 860 684L856 676H860Q885 676 924 704Q1035 704 1168 748H1180Q1204 734 1204 700V680Q1204 661 1056 656Q953 631 936 604H916Q861 604 820 624Q813 620 804 620Q848 547 848 512Q827 492 816 492Q916 319 916 216Q920 216 932 128Q920 -58 908 -104Q934 -156 980 -156Q992 -171 992 -184V-188Q968 -200 960 -200H932Q900 -200 880 -196Q855 -200 824 -200H792Q752 -192 752 -160V-140Q752 -112 760 -96Q756 -55 756 -32V0Q756 9 752 16Q756 23 760 64Q760 136 708 188Q640 16 608 -132Q680 -152 680 -184Q657 -200 640 -200Q566 -196 532 -196Q522 -196 472 -200L448 -188L452 -168V-120Q456 -20 476 -20L472 -12V12Q472 48 516 288Q496 440 464 440Q464 376 416 356Q408 366 408 368V388Q408 419 460 484Q544 484 544 512V528L540 548H536Q536 492 468 492H436Q315 430 300 360Q288 334 288 320V276Q316 38 316 -28Q316 -131 256 -176Q217 -196 200 -196L196 -188V-148Q264 -97 264 -52Q268 -32 268 0Q240 247 240 288V292Q240 447 412 536Q428 548 428 552Q392 571 392 580Q392 628 356 628Q349 596 332 596L308 608Q308 623 344 676Q344 685 312 720V736Q319 763 496 1080Q524 1120 556 1120H572Q607 1120 624 1068H652V1072Q643 1087 636 1116L644 1120H652L664 1112Q755 1134 780 1172Q814 1200 848 1200ZM780 1120V1116Q784 1108 784 1104H792V1108Q788 1116 788 1120ZM680 1100V1096L712 1060V1056H708L692 1060H688V1056Q710 1056 748 1016Q751 1016 788 1032V1036Q751 1036 680 1100ZM800 1100V1084Q813 1084 860 1016Q868 1012 872 1012Q853 1041 836 1092ZM592 992H596L636 1040H628Q592 1021 592 992ZM880 1012H884L904 1020L908 1012L904 996V992H908Q908 1004 928 1028H896Q890 1028 880 1012ZM768 1012V1008Q768 1003 800 976H808Q804 990 772 1012ZM556 956V952H564V956ZM764 956V948H768V956ZM548 944V940H556V944ZM544 656V648H548Q603 776 624 776Q656 790 732 888Q764 923 764 940Q722 898 648 812Q576 772 576 732Q544 694 544 656ZM540 932V928H548V932ZM528 916V912H536V916ZM424 744V740H428L448 800Q440 800 424 744ZM776 724V716H780L800 720V724Q796 724 788 728Q780 724 776 724ZM360 680Q360 668 372 668V660H360V640L388 644V664Q388 675 360 680ZM556 592V580H560Q608 607 784 660V664H764Q660 634 556 592ZM592 552H596Q759 610 760 616H756Q652 594 592 552ZM448 568V564L468 560Q528 580 536 596V600Q513 584 448 568ZM520 436V432H524Q626 432 664 472Q710 500 796 500V504Q766 512 756 512Q732 512 568 444Q539 444 520 436ZM544 404V396H556V404ZM572 388V384Q638 318 664 264H672Q642 344 572 388ZM684 240V236Q688 216 704 216Q699 233 684 240ZM780 -128V-132Q820 -136 840 -136H896Q896 -124 852 -124H808ZM488 -132V-140Q528 -148 560 -148H568Q590 -148 600 -132Z" fill="param(fill) #111111" fill-opacity="param(fill-opacity) 1" stroke="param(outline) none" stroke-opacity="param(outline-opacity) 1" stroke-width="param(outline-width) 0" stroke-linejoin="round"/>
  </g>
</svg>
