<svg xmlns="http://www.w3.org/2000/svg" width="100%" height="100%" viewBox="0 0 1624.00 1624.00">
  <g transform="translate(112.00,1312.00) scale(1,-1)">
    <path d="M850 1200H866Q932 1200 942 1116Q946 1109 946 1096L934 1088Q936 996 970 996Q1074 941 1074 840L1098 612Q1122 574 1122 524V512Q1122 498 1106 408V340Q1098 25 1098 -12V-96Q1106 -184 1106 -188Q1091 -200 1078 -200H1038Q1023 -200 1002 -180Q1002 -200 918 -200H866Q774 -200 774 -156V-140Q774 -128 846 -116Q922 -43 922 -12V8Q922 48 926 108Q878 312 846 348Q846 372 742 740H738V724Q738 646 734 368Q734 323 750 304V300Q733 300 722 256V-32Q722 -72 714 -72L718 -80V-144Q715 -200 698 -200H690Q670 -200 666 -116Q666 -99 670 -72Q662 -35 662 -8Q666 198 666 232L662 272Q653 272 642 292Q650 421 650 632V772H646Q482 315 414 92Q322 -154 298 -196H282Q282 -186 286 -136Q278 -106 278 -100Q324 -100 338 12Q377 112 442 348Q434 348 434 356V364Q459 364 558 688Q577 729 626 872L638 880L634 888V892Q634 898 646 904L642 912L654 952L642 968Q642 980 662 1016Q642 1027 642 1072Q650 1116 686 1116V1152Q686 1158 698 1164Q710 1160 710 1140V1116Q734 1116 734 1100Q763 1100 782 1156Q823 1200 850 1200ZM746 1088V1084Q749 1072 762 1068V1088ZM738 1016V1000Q758 1000 758 972V968Q738 953 738 936Q745 936 758 868Q770 859 770 848H774Q838 906 858 944Q824 960 786 968Q786 974 754 1036Q758 1044 758 1048Q738 1038 738 1016ZM682 820H670V472H714L718 520V748Q718 776 710 824ZM630 816 514 492H526L638 816ZM794 744Q870 462 906 356H910L906 404V420Q906 456 910 500Q910 513 870 616L826 760Q803 744 794 744ZM770 736V732Q814 550 834 488H838L842 496Q778 733 770 736ZM682 236V184Q683 164 690 164Q698 168 702 168L706 208Q702 230 702 244H690Q682 243 682 236Z" fill="param(fill) #111111" fill-opacity="param(fill-opacity) 1" stroke="param(outline) none" stroke-opacity="param(outline-opacity) 1" stroke-width="param(outline-width) 0" stroke-linejoin="round"/>
  </g>
</svg>
