<svg xmlns="http://www.w3.org/2000/svg" width="100%" height="100%" viewBox="0 0 1624.00 1624.00">
  <g transform="translate(112.00,1312.00) scale(1,-1)">
    <path d="M362 1200H426Q468 1132 506 1132L526 1108V1104Q506 1055 506 1044Q625 1044 670 936Q718 856 718 792Q792 848 986 1048Q1007 1073 1026 1136Q1063 1160 1090 1160H1118Q1135 1118 1174 1096Q1182 1096 1182 1084L1170 884Q1162 880 1158 880Q1102 918 998 940Q990 940 990 948L994 984Q967 969 746 748Q726 708 674 648L670 632Q702 508 710 424Q706 357 706 320V156Q706 -36 686 -116Q730 -146 730 -180V-192Q730 -200 722 -200H646Q595 -151 570 -32Q553 243 530 344H522V340Q502 224 498 28Q449 -112 338 -112H306L298 -108Q298 -63 378 -20Q370 31 366 84Q370 234 370 284Q354 383 342 504Q238 677 218 832V860Q218 906 294 972L310 996Q309 1009 242 1056V1060Q300 1122 322 1188Q348 1200 362 1200Z" fill="param(fill) #111111" fill-opacity="param(fill-opacity) 1" stroke="param(outline) none" stroke-opacity="param(outline-opacity) 1" stroke-width="param(outline-width) 0" stroke-linejoin="round"/>
  </g>
</svg>
