<svg xmlns="http://www.w3.org/2000/svg" width="100%" height="100%" viewBox="0 0 1624.00 1624.00">
  <g transform="translate(112.00,1312.00) scale(1,-1)">
    <path d="M376 1200H448Q508 1150 508 1128V1100Q508 1092 500 1092H304Q296 1092 296 1100V1144Q341 1200 376 1200ZM220 1080H580Q588 1079 588 1072V1056Q588 1048 580 1048H500V1044Q500 966 444 940L420 936H384Q315 936 304 1028V1048H220Q212 1048 212 1056V1072Q213 1080 220 1080ZM1092 1016Q1139 1016 1208 964Q1222 952 1256 952H1268L1296 960L1300 952V872Q1300 820 1240 820Q1203 820 1128 872Q1107 888 1084 888H1060Q1014 878 1008 864V772Q1010 766 1336 508Q1336 500 1328 500H1268V188H1328Q1336 187 1336 180V140Q1336 128 1292 128H696Q667 128 664 140V180Q665 188 672 188H732V504H676Q668 504 668 512Q988 764 988 768V992Q988 1003 1084 1016ZM480 900Q487 896 496 896H544Q736 706 736 692V684Q736 660 568 492Q528 445 528 432V-192Q528 -200 520 -200H440Q426 -200 404 216H400Q372 -165 372 -196L364 -200H284Q276 -200 276 -192V408L284 420L260 464Q165 559 64 680V692Q96 737 260 896H464Q473 896 480 900ZM168 680Q251 564 276 564V784H272Q264 784 168 680ZM528 784V564Q552 564 608 648Q613 648 636 680Q548 784 528 784Z" fill="param(fill) #111111" fill-opacity="param(fill-opacity) 1" stroke="param(outline) none" stroke-opacity="param(outline-opacity) 1" stroke-width="param(outline-width) 0" stroke-linejoin="round"/>
  </g>
</svg>
