<svg xmlns="http://www.w3.org/2000/svg" width="100%" height="100%" viewBox="0 0 1624.00 1624.00">
  <g transform="translate(112.00,1312.00) scale(1,-1)">
    <path d="M302 1200H318Q423 1200 470 1072V1028Q470 922 342 876H298Q193 876 146 1008V1040Q146 1156 270 1196Q286 1200 302 1200ZM694 1200H710Q817 1200 862 1068V1028Q862 923 734 876H690Q583 876 538 1008V1040Q538 1152 658 1196Q680 1200 694 1200ZM1086 1200H1102Q1189 1200 1238 1108Q1254 1079 1254 1044V1036Q1254 921 1126 876H1082Q977 876 930 1004V1048Q930 1173 1086 1200ZM286 824Q346 821 346 812Q346 742 350 724Q346 633 346 552V444Q346 268 374 268Q381 254 446 236V228Q446 149 442 -196L434 -200H254Q181 -200 154 -132Q150 -110 150 -96V284Q64 284 54 392V716Q54 820 182 820Q261 824 286 824ZM834 824Q950 824 974 780Q994 750 994 688V416Q994 284 894 284V-108Q894 -189 790 -200H610Q502 -200 502 -64Q506 -24 506 -4V284Q422 284 410 388Q406 409 406 464V668Q406 781 450 804Q476 820 510 820H706Q769 820 834 824ZM1118 824Q1306 824 1318 792Q1346 762 1346 728V388Q1335 284 1250 284V-108Q1230 -200 1158 -200H966Q954 -200 954 -148V72Q954 97 958 132Q954 146 954 172Q954 240 970 240Q1054 255 1054 356V812Q1054 824 1118 824Z" fill="param(fill) #111111" fill-opacity="param(fill-opacity) 1" stroke="param(outline) none" stroke-opacity="param(outline-opacity) 1" stroke-width="param(outline-width) 0" stroke-linejoin="round"/>
  </g>
</svg>
