<svg xmlns="http://www.w3.org/2000/svg" width="100%" height="100%" viewBox="0 0 1624.00 1624.00">
  <g transform="translate(112.00,1312.00) scale(1,-1)">
    <path d="M1042 1200H1062Q1117 1177 1130 1140V1080Q1130 1069 1154 1012Q1154 998 1126 992Q1077 1008 1070 1008Q1040 949 950 916H922Q890 848 766 768Q754 753 754 732V696Q751 687 726 664V604Q726 563 846 440Q846 403 922 356Q1063 235 1138 184Q1158 134 1158 104V72Q1158 17 1034 0Q1026 -3 966 -8Q950 29 950 68Q950 144 994 200Q994 221 826 380Q750 391 750 444Q750 461 706 496H702Q742 337 742 264Q722 154 722 104V96Q722 34 786 16Q842 16 882 -28V-52Q862 -84 826 -84H810L614 -48L606 -20Q606 14 614 36Q606 132 586 132Q544 132 538 328Q534 328 534 364H530V348Q538 246 538 212Q538 80 502 80Q493 80 474 -60Q516 -128 590 -128Q606 -145 606 -160V-180Q591 -200 530 -200H510Q483 -200 390 -168Q338 -168 338 -152V-140L358 -44L362 -4Q362 24 326 240Q326 441 254 672Q242 720 242 740V780Q242 936 542 1072Q609 1096 678 1096H706Q788 1096 874 1060Q883 1093 918 1128Q898 1164 898 1176V1180Q898 1186 910 1192H998Q1003 1192 1042 1200Z" fill="param(fill) #111111" fill-opacity="param(fill-opacity) 1" stroke="param(outline) none" stroke-opacity="param(outline-opacity) 1" stroke-width="param(outline-width) 0" stroke-linejoin="round"/>
  </g>
</svg>
