<svg xmlns="http://www.w3.org/2000/svg" width="100%" height="100%" viewBox="0 0 1624.00 1624.00">
  <g transform="translate(112.00,1312.00) scale(1,-1)">
    <path d="M636 1200H768Q800 1200 800 1168V1144Q858 1144 944 1056Q1004 972 1004 872Q1004 857 788 800Q722 788 680 788H660Q534 788 396 868V900Q396 1062 604 1144V1168Q604 1200 636 1200ZM736 1016Q703 988 668 988H648Q642 988 636 1000L640 1008L632 1012Q592 988 592 964V960Q592 903 688 892H696Q776 892 792 956Q777 1016 736 1016ZM280 820H288Q375 820 632 732Q636 732 700 724Q1062 820 1144 820H1156Q1216 820 1216 784V772Q1216 666 1080 528Q1065 516 1052 516V660Q1027 658 1004 636V548Q1004 315 756 236L700 228Q505 228 416 436Q401 436 396 640Q348 664 344 664V516H340Q184 629 184 788Q184 820 280 820ZM660 176H824Q950 150 1012 96Q1156 -29 1156 -196L1148 -200H256Q248 -200 248 -188Q248 4 440 132Q523 176 660 176Z" fill="param(fill) #111111" fill-opacity="param(fill-opacity) 1" stroke="param(outline) none" stroke-opacity="param(outline-opacity) 1" stroke-width="param(outline-width) 0" stroke-linejoin="round"/>
  </g>
</svg>
