<svg xmlns="http://www.w3.org/2000/svg" width="100%" height="100%" viewBox="0 0 1624.00 1624.00">
  <g transform="translate(112.00,1312.00) scale(1,-1)">
    <path d="M912 1200H960Q1122 1200 1248 1024Q1296 926 1296 836Q1296 665 1128 544H1124V540Q1320 415 1320 236V188Q1320 59 1184 -64Q1086 -140 964 -140Q912 -140 860 -124Q816 -200 708 -200H684V-196Q760 -95 760 -76Q653 8 620 120Q591 129 536 184Q480 172 444 172H424Q232 172 116 368Q80 444 80 504V536Q80 760 316 864Q374 884 428 884H440Q504 884 580 856V860Q580 1024 752 1152Q848 1200 912 1200ZM620 864V824Q620 680 772 572H776V568Q776 540 732 472H736Q762 472 820 544H824Q916 524 928 524Q1152 524 1244 752Q1256 803 1256 848V856Q1256 1020 1088 1128Q1004 1164 940 1164Q712 1164 628 924Q620 886 620 864ZM932 1076H964Q1039 1076 1060 964Q1044 913 1044 904Q1132 866 1132 748V668Q1132 660 1124 660H776Q768 660 768 668V764Q768 868 860 904Q840 936 840 972V976Q840 1048 932 1076ZM116 524Q116 323 332 224Q403 208 432 208Q486 212 552 228Q606 156 640 156Q596 228 596 252Q698 312 740 432L692 428H668L660 424Q660 428 656 428Q728 524 728 556Q623 648 600 724L580 812Q504 848 428 848Q257 848 148 668Q116 595 116 524ZM896 836 880 812 952 764Q994 800 1016 808V816Q1006 836 1000 836Q996 836 952 804H948Q904 836 896 836ZM424 744H456Q544 714 544 652V640Q544 616 528 572Q620 549 620 372V336Q620 328 612 328H260Q252 328 252 336V404Q252 536 344 576Q328 603 328 624V656Q328 718 424 744ZM944 488Q911 488 832 500Q772 446 764 384Q735 318 648 240V232Q648 200 716 116V108H664Q719 -18 804 -56V-60Q804 -78 760 -156H764Q789 -156 848 -84H852Q918 -100 936 -100H980Q1180 -100 1272 128Q1284 182 1284 216Q1284 418 1080 516Q1006 488 944 488ZM368 480Q432 438 432 432L504 480Q492 499 492 504H484L436 472Q432 472 388 504Q374 497 368 480ZM932 448H964Q1039 448 1060 336Q1044 285 1044 276Q1132 238 1132 120V40Q1132 32 1124 32H776Q768 32 768 40V136Q768 240 860 276Q840 308 840 344V348Q840 420 932 448ZM896 208 880 184 952 136Q994 172 1016 180V188Q1006 208 1000 208Q996 208 952 176H948Q904 208 896 208Z" fill="param(fill) #111111" fill-opacity="param(fill-opacity) 1" stroke="param(outline) none" stroke-opacity="param(outline-opacity) 1" stroke-width="param(outline-width) 0" stroke-linejoin="round"/>
  </g>
</svg>
