<svg xmlns="http://www.w3.org/2000/svg" width="100%" height="100%" viewBox="0 0 1624.00 1624.00">
  <g transform="translate(112.00,1312.00) scale(1,-1)">
    <path d="M662 1200H694Q777 1200 842 1120Q984 1068 1034 964Q1058 905 1086 784Q1254 743 1254 708Q1258 708 1258 704V680Q1231 629 1086 584Q755 496 474 496Q222 496 154 572Q142 587 142 600V616Q142 687 330 820Q330 916 410 1036Q442 1068 598 1180Q642 1200 662 1200ZM690 1036V1028Q690 976 682 944Q629 972 622 972Q518 784 518 752V740Q518 678 622 652Q585 710 578 760Q578 809 718 896Q718 901 738 916Q770 883 770 844Q779 844 806 816Q798 768 798 740Q798 725 818 676H826Q854 742 854 776Q854 791 810 936Q810 943 766 964Q751 1000 690 1036ZM1078 476V472Q1078 115 834 36Q769 16 702 16Q435 16 338 264Q302 374 302 468Q306 468 306 472Q438 442 438 404Q474 239 502 188Q592 60 702 60H706Q920 60 962 428Q1009 465 1078 476ZM1110 248H1114Q1129 248 1138 168Q1138 33 958 -128Q877 -184 850 -184Q842 -165 830 -16Q959 28 986 64Q1080 155 1110 248ZM286 232H294Q365 62 486 0Q513 -12 578 -32Q562 -182 554 -200Q447 -173 338 -32Q270 74 270 148V160Q270 197 286 232Z" fill="param(fill) #111111" fill-opacity="param(fill-opacity) 1" stroke="param(outline) none" stroke-opacity="param(outline-opacity) 1" stroke-width="param(outline-width) 0" stroke-linejoin="round"/>
  </g>
</svg>
