<svg xmlns="http://www.w3.org/2000/svg" width="100%" height="100%" viewBox="0 0 1624.00 1624.00">
  <g transform="translate(112.00,1312.00) scale(1,-1)">
    <path d="M640 1200Q657 1186 712 1168Q780 1121 780 1024Q824 982 836 944Q810 924 792 924Q808 879 816 820Q850 807 884 732Q880 724 880 720Q937 667 968 616L976 620Q1080 559 1172 468H1164L1144 480V476L1172 444L1180 448H1184Q1184 421 1028 296Q991 260 956 196Q952 196 952 200L944 196Q918 196 904 280Q894 272 892 272H884V276Q884 282 900 288Q897 320 876 344L868 340H852V348Q864 348 864 364Q864 368 968 412Q969 420 976 420H980V412H984Q984 427 992 436L988 444Q992 444 992 448Q879 536 836 536V500H840V488H832V496H828V476H836V460H832L824 464V444H832V428H824V440H820Q820 425 812 352V348H816V356H824Q824 344 840 344H844V336H816Q804 346 764 356Q758 356 700 332V328H716Q720 328 748 332L696 292V288L736 300H748Q708 272 708 268H712Q716 268 744 276L740 268V264H748Q753 264 792 272H812Q821 272 828 268Q835 272 844 272H860Q868 271 868 264V256L856 264H852V260Q908 185 956 40L960 20Q966 20 972 32Q972 42 952 100Q996 36 996 16Q981 -6 908 -36Q902 -200 884 -200H688Q680 -200 680 -188Q680 -154 688 -92Q648 -92 632 -168Q628 -200 616 -200H412L404 -196Q464 -48 468 -24H456L436 -20V-16Q436 -6 464 56Q451 48 440 48Q424 48 376 80Q352 80 344 88Q324 30 300 -80Q300 -84 296 -84L300 -92Q300 -100 280 -100V-104Q296 -104 296 -112L284 -120H272Q262 -120 252 -72Q260 -56 260 -28V4L256 44H264Q272 18 276 -48Q272 -56 272 -60L280 -64H292Q316 35 320 44L292 40Q248 47 248 76V88H256Q256 56 292 56H316Q327 56 332 84L324 80H296Q232 98 232 116V144L228 164H232Q243 164 248 112Q277 88 304 88H336Q344 88 344 96V100Q344 108 336 108Q336 96 296 96Q264 121 264 124V128L300 104H304V108Q285 148 252 156Q248 156 248 160H256Q264 156 268 156Q272 164 272 168Q315 108 320 108H328V112Q296 137 296 152H300Q292 165 292 176V212H300V208Q305 147 320 144H328Q349 144 352 156Q320 156 320 184V228H312Q312 300 380 580V676Q381 684 388 684Q388 680 392 680V696H384V700Q384 711 448 728V732H436Q429 732 412 724V728Q412 734 424 740H448Q511 740 544 700H540L532 704V696Q532 690 548 680Q564 704 580 704Q532 658 532 640V584L600 540H608Q627 595 640 604V596Q612 533 612 528L636 508H640V564H648V480Q648 254 512 112L484 80V76Q581 126 640 300Q664 401 664 468Q656 602 656 616H648L652 636V640H648Q628 628 620 628V632Q620 635 652 660V664Q631 664 616 652H612V656Q612 658 648 692V696L604 684L608 676H604Q596 676 596 684Q596 687 636 724Q624 724 600 760L592 764Q592 742 572 732H556Q490 752 448 752Q436 752 388 736Q381 740 372 740Q372 736 368 736L372 728Q305 663 280 544L232 244V228Q232 188 264 188V180H244Q216 196 216 228V244Q216 296 288 620Q288 648 448 840Q480 896 500 988Q484 1015 476 1044Q476 1082 532 1100Q532 1131 624 1200ZM604 1172 608 1164V1160Q588 1160 588 1140Q580 1139 580 1132Q595 1120 636 1120H652Q660 1120 660 1132V1136H656Q656 1124 648 1124H632Q624 1124 624 1132Q632 1132 632 1140Q620 1140 620 1148L632 1156H636Q644 1155 644 1148Q640 1140 640 1136H644Q652 1136 652 1144V1156Q628 1182 628 1188Q608 1172 604 1172ZM620 1164V1156H608V1160Q612 1160 620 1164ZM600 1064 572 1008Q584 1008 592 992H572L580 980V976Q544 972 544 964V944Q563 844 604 844H620Q662 844 704 892V900L656 976Q648 972 644 972Q636 976 632 976Q648 994 648 996H640Q632 992 628 992L624 1000Q630 1000 636 1012Q608 1061 600 1064ZM592 964H600V952Q600 948 596 948L604 924L596 920H592Q586 920 580 932Q592 952 592 964ZM596 912 604 908 628 912 640 896V892Q635 892 624 872Q617 868 608 868H596Q586 868 576 900ZM596 896Q600 888 600 884H608Q614 884 620 896ZM860 744 852 724H872V732Q872 738 860 744ZM824 736V732H832V736ZM840 736V728H848Q848 736 840 736ZM660 732V724H664V732ZM620 720Q620 711 580 704Q580 713 620 720ZM600 656V652Q600 646 588 640V644Q588 650 600 656ZM640 612H644V604H640ZM372 496V488H376V496ZM636 484Q576 387 532 244L484 176Q462 176 416 140Q364 116 344 116V112Q362 112 424 64L452 60Q640 242 640 480V484ZM372 460Q336 270 336 196V176Q336 170 348 164Q353 168 368 168V164Q407 197 424 228V240Q377 375 376 460ZM996 444V436H1004Q1004 444 996 444ZM820 408H828V364H820ZM872 364V360H880Q896 366 896 372H892Q879 364 872 364ZM328 132V128H340Q388 128 456 184V188Q436 215 436 224H432Q366 132 328 132ZM308 220H316V212H308Z" fill="param(fill) #111111" fill-opacity="param(fill-opacity) 1" stroke="param(outline) none" stroke-opacity="param(outline-opacity) 1" stroke-width="param(outline-width) 0" stroke-linejoin="round"/>
  </g>
</svg>
