<svg xmlns="http://www.w3.org/2000/svg" width="100%" height="100%" viewBox="0 0 1624.00 1624.00">
  <g transform="translate(112.00,1312.00) scale(1,-1)">
    <path d="M1040 890H1052Q1081 890 1104 838Q1108 838 1116 822Q1268 822 1268 770Q1276 770 1276 722V562Q1376 493 1376 454Q1376 442 1392 418Q1396 411 1396 398V362L1384 342Q1390 342 1400 326V250Q1400 245 1380 230H1292Q1292 214 1268 214H1248Q1248 137 1136 110H1108Q1038 110 1000 202Q1000 216 960 218Q956 226 956 230H448Q448 214 424 214H404Q404 139 296 110H264Q190 110 152 214Q112 214 112 230H80Q56 245 56 266Q68 292 68 302V594H20Q15 594 0 614V630Q0 636 16 646H52V710H32Q10 710 0 730V746Q10 766 32 766H76Q81 794 112 794H860Q869 818 896 818H976Q976 839 1020 886ZM996 822V814H1092V822Q1092 830 1084 830H1004Q996 829 996 822ZM920 746V574H1104Q1112 574 1112 582V742Q1112 748 1100 754H928Q920 753 920 746ZM1152 746V582Q1153 574 1160 574H1252L1256 594V714L1252 754H1160Q1152 753 1152 746ZM700 742V606Q701 598 708 598H832V742Q832 750 824 750H708Q700 749 700 742ZM20 742V734H652V742ZM72 718V642H76V718ZM160 718V642H164V718ZM248 718V642H252V718ZM336 718V642H340V718ZM424 718V698H428V718ZM20 626V618L40 614H628L656 618Q656 626 648 626ZM240 558V426Q240 420 252 414H652Q658 414 664 426V558Q664 566 656 566H248Q240 565 240 558ZM700 558V418L720 414H824Q832 414 832 422V566H708Q700 565 700 558ZM1324 418V366Q1325 358 1332 358H1364Q1372 358 1372 366V418ZM132 234H160V242Q160 327 280 350Q365 350 400 254V234H428Q428 351 280 374Q132 352 132 234ZM976 234H1004V246Q1004 313 1096 346L1124 350Q1214 350 1244 246V234H1272Q1272 324 1168 366Q1162 370 1124 374Q1018 374 976 258ZM436 278Q440 262 440 250H956Q961 250 980 310Q986 310 992 326H888Q860 326 852 278ZM1256 326V322Q1283 281 1284 250H1372Q1380 250 1380 258V322L1360 326ZM324 310V302H328V310ZM1172 310V302H1176V310ZM336 302V298Q336 292 348 286H352Q352 292 336 302ZM1184 302V298Q1185 290 1192 290H1196Q1196 296 1184 302ZM80 270V258Q81 250 88 250H120Q120 262 124 278H88Q80 277 80 270ZM232 238V234Q232 199 264 186H280Q328 190 328 226V234Q321 278 284 278Q232 273 232 238ZM1076 238V226Q1084 186 1116 186H1128Q1168 186 1172 234Q1163 278 1128 278Q1076 273 1076 238ZM1212 258V250H1216V258Z" fill="param(fill) #111111" fill-opacity="param(fill-opacity) 1" stroke="param(outline) none" stroke-opacity="param(outline-opacity) 1" stroke-width="param(outline-width) 0" stroke-linejoin="round"/>
  </g>
</svg>
