<svg xmlns="http://www.w3.org/2000/svg" width="100%" height="100%" viewBox="0 0 1624.00 1624.00">
  <g transform="translate(112.00,1312.00) scale(1,-1)">
    <path d="M342 1200H1062Q1070 1199 1070 1192V1068L1354 912V-192Q1354 -200 1346 -200H734Q714 -200 714 160Q710 259 710 356Q712 928 730 928Q882 997 1002 1064V1104Q1002 1132 994 1132Q811 1132 402 1136L398 1088V1060Q652 942 682 920V-192Q682 -200 674 -200H54Q46 -200 46 -192V912Q46 922 302 1048Q322 1060 330 1060L334 1196ZM114 712V660Q208 656 254 656H610Q618 690 618 696Q612 716 590 716H214Q180 716 114 712ZM786 716V680L790 660Q830 656 850 656H910Q1032 656 1290 660V716ZM114 520V468H118Q245 468 614 464V524Q508 528 446 528H254Q182 528 114 520ZM786 520V468H1290V524H1066Q970 524 786 520Z" fill="param(fill) #111111" fill-opacity="param(fill-opacity) 1" stroke="param(outline) none" stroke-opacity="param(outline-opacity) 1" stroke-width="param(outline-width) 0" stroke-linejoin="round"/>
  </g>
</svg>
