<svg xmlns="http://www.w3.org/2000/svg" width="100%" height="100%" viewBox="0 0 1619.36 1619.36">
  <g transform="translate(109.68,1309.68) scale(1,-1)">
    <path d="M878 1152Q1054 1031 1054 824Q1050 800 1046 724H1050Q1106 757 1106 828V844H1110Q1206 735 1206 612Q1206 448 998 288H994Q1078 378 1078 448V464Q1078 530 950 712Q950 717 942 756L946 780Q862 713 862 604V592Q862 571 866 524H862Q826 548 826 588Q770 520 770 448Q770 389 858 288H854Q642 462 642 616Q642 732 822 940Q886 1024 886 1084V1096Q886 1121 874 1152ZM542 756Q554 717 554 708L146 360H682Q689 360 730 308V304H330V-100H646V112Q647 120 654 120H794Q802 119 802 112V-100H1126V292Q1202 356 1230 356H1250L1226 376Q1247 412 1258 412Q1388 323 1398 308V304H1178V-144Q1178 -152 1170 -152H286Q278 -152 278 -144V304H10Q2 304 2 312L538 760Q542 760 542 756Z" fill="param(fill) #111111" fill-opacity="param(fill-opacity) 1" stroke="param(outline) none" stroke-opacity="param(outline-opacity) 1" stroke-width="param(outline-width) 0" stroke-linejoin="round"/>
  </g>
</svg>
