<svg xmlns="http://www.w3.org/2000/svg" width="100%" height="100%" viewBox="0 0 1624.00 1624.00">
  <g transform="translate(112.00,1312.00) scale(1,-1)">
    <path d="M944 1200H956Q1081 1200 1128 1100H1144Q1260 1100 1300 936V928Q1300 911 1244 816Q1356 726 1356 616V608Q1356 503 1208 448Q1193 448 1148 408Q1080 372 1004 372Q995 372 944 380Q944 294 952 156H956Q984 172 996 172H1000Q1008 151 1008 148Q999 139 952 120Q952 -101 984 -148Q984 -153 1020 -196V-200H816L808 -196Q852 -115 852 8Q864 286 864 372Q868 372 868 376H864Q795 348 744 348Q691 348 656 396Q504 426 504 540V572Q332 607 332 728V744Q332 877 508 972Q562 992 628 992Q636 988 640 988V996Q640 1089 820 1176Q889 1200 944 1200ZM720 324H724Q724 301 708 280L784 204V196Q784 172 668 160Q636 123 608 12Q589 -5 572 -16H552Q543 -89 536 -112Q540 -154 556 -180L544 -188Q522 -188 508 -164V-140Q508 -117 500 -60H496Q496 -86 492 -128Q500 -162 500 -172L492 -176H488Q472 -176 456 -156Q460 -102 460 -76Q460 -43 448 -24Q389 -35 332 -40Q282 -32 256 -20Q204 -33 204 -52Q192 -54 192 -84V-112Q192 -124 220 -172V-176L212 -180H188Q156 -159 156 -100Q148 -99 144 -72Q120 -94 120 -144V-152L136 -196V-200H116Q80 -195 80 -164Q80 -137 88 -92Q84 -65 84 -48Q92 -35 92 -24Q76 -10 76 128H72L60 16Q64 -5 64 -24Q56 -60 56 -64H48L44 -24V0Q52 10 52 16Q52 208 112 224Q112 229 140 236Q201 224 348 216Q592 247 592 268Q644 277 644 296V304H684Q699 304 720 324ZM76 152V136H80V152ZM1072 56Q1108 14 1108 -60H1112V4H1116L1128 -4Q1144 35 1144 52Q1162 52 1176 -48H1180V56H1188V-44H1192Q1192 -13 1216 52H1228Q1252 -19 1252 -52H1256V28H1264V-48H1268Q1268 14 1300 52V44Q1272 -27 1272 -80V-88H1276Q1295 -8 1312 -8H1316V-12Q1280 -72 1280 -116H1284L1300 -104H1312Q1320 -105 1320 -112V-116Q1289 -116 1276 -164Q1276 -171 1268 -184Q1276 -185 1276 -192Q1276 -200 1268 -200H1252Q1244 -200 1244 -188L1248 -180Q1233 -130 1220 -124Q1199 -156 1196 -184Q1200 -192 1200 -196L1192 -200H1176Q1168 -200 1168 -192Q1172 -178 1172 -176L1152 -128Q1145 -128 1124 -180L1128 -188V-200H1108Q1100 -200 1100 -188L1104 -180Q1089 -116 1052 -116V-108L1072 -104H1076Q1079 -104 1096 -124V-116Q1096 -78 1056 -8H1060Q1096 -42 1096 -76H1100V-64Q1100 -21 1072 56ZM1220 40Q1208 1 1208 -12L1224 -24L1236 -4Q1224 33 1224 40ZM1136 -16 1152 -28Q1160 -15 1160 -8Q1160 -2 1152 28Q1144 28 1136 -16ZM1120 -8V-40H1124Q1124 -28 1128 -12ZM1204 -16Q1204 -23 1196 -80V-88H1200Q1200 -79 1216 -28Q1208 -28 1208 -16ZM1228 -40Q1240 -62 1240 -72H1244V-60Q1240 -25 1240 -16Q1228 -20 1228 -40ZM164 -40H168Q174 -40 180 -28H176Q170 -28 164 -40ZM1132 -28V-32Q1132 -41 1128 -76V-84H1132Q1132 -74 1144 -40Q1140 -32 1140 -28ZM1156 -36V-40L1168 -88H1172V-84Q1172 -74 1164 -28Q1156 -29 1156 -36ZM492 -48V-56H496V-48ZM1220 -48 1204 -104H1236V-100Q1236 -87 1224 -48ZM1148 -56 1136 -104Q1148 -104 1148 -108Q1155 -104 1164 -104Q1152 -67 1152 -56ZM1244 -80V-92H1248V-80ZM1100 -84V-96H1104V-84ZM1132 -116V-128Q1140 -128 1140 -120V-116ZM1160 -116V-120Q1164 -128 1164 -132H1168V-120ZM1200 -116V-132H1204Q1208 -118 1208 -116ZM1232 -116Q1240 -126 1240 -132H1244V-120L1236 -116ZM1276 -124V-132H1280V-124Z" fill="param(fill) #111111" fill-opacity="param(fill-opacity) 1" stroke="param(outline) none" stroke-opacity="param(outline-opacity) 1" stroke-width="param(outline-width) 0" stroke-linejoin="round"/>
  </g>
</svg>
