<svg xmlns="http://www.w3.org/2000/svg" width="100%" height="100%" viewBox="0 0 1624.00 1624.00">
  <g transform="translate(112.00,1312.00) scale(1,-1)">
    <path d="M460 1112H1000Q1014 1102 1400 676V-104Q1400 -112 1392 -112H8Q0 -112 0 -104V668ZM504 1080Q901 695 916 688H1092Q870 946 732 1080ZM792 1080Q1136 696 1148 688H1336Q1151 912 972 1080ZM40 656V-80H872V580Q872 603 876 644Q876 671 764 768Q539 998 456 1068Q40 660 40 656ZM580 768H588Q560 699 560 664Q564 536 564 496Q564 385 460 360Q444 387 444 464Q444 528 476 604Q412 530 412 412L416 376Q359 376 340 508Q340 664 516 756Q559 768 580 768ZM916 652V348H1116V652ZM1160 652V348H1360V652ZM244 548Q244 496 372 376Q416 329 416 276V260Q416 226 392 212Q310 257 272 364H268V356Q268 285 356 192V184L328 180Q239 180 196 308Q184 337 184 388V392Q184 494 244 548ZM748 424 752 416V388Q752 239 592 160Q570 156 556 156H544Q499 156 464 204V208Q558 208 632 292V296Q559 240 468 240Q444 244 444 252V268Q444 360 620 376Q697 376 748 424ZM916 312V-80H1116V312ZM1160 312V-80H1360V312ZM424 184Q452 184 452 20L444 16H420Q396 16 396 160Q405 184 424 184Z" fill="param(fill) #111111" fill-opacity="param(fill-opacity) 1" stroke="param(outline) none" stroke-opacity="param(outline-opacity) 1" stroke-width="param(outline-width) 0" stroke-linejoin="round"/>
  </g>
</svg>
