<svg xmlns="http://www.w3.org/2000/svg" width="100%" height="100%" viewBox="0 0 1624.00 1624.00">
  <g transform="translate(112.00,1312.00) scale(1,-1)">
    <path d="M866 1200H898Q1123 1200 1238 1004Q1258 963 1258 908V892Q1258 725 1022 628Q946 608 874 608Q841 608 794 616Q621 548 606 548Q576 540 530 536V540Q634 645 634 680Q502 772 502 896V908Q502 1028 694 1152Q783 1200 866 1200ZM866 1140V1108Q866 1070 762 940Q734 897 734 856V836Q734 778 818 700H822Q798 735 798 760V772Q798 785 826 840H834Q837 807 850 804V808Q850 813 846 848Q846 898 894 944H902Q902 940 898 932Q898 908 962 812Q974 793 974 760Q974 729 950 696H954Q1038 768 1038 844V860Q1038 916 990 972Q990 930 954 908L950 916Q950 922 954 972Q954 1077 870 1140ZM510 1060 518 1056Q474 976 470 976H238Q206 976 206 936V96Q206 60 238 60H702Q726 70 726 104V552Q726 562 786 584L790 576V-104Q778 -200 706 -200H226Q142 -181 142 -116V964Q142 1038 222 1060ZM282 -12Q270 -64 258 -80Q270 -104 282 -152H354Q334 -94 334 -76L354 -12ZM394 -80Q405 -152 466 -152Q520 -152 534 -92V-72Q520 -12 466 -12Q394 -24 394 -80ZM578 -12V-16Q598 -76 598 -84Q578 -144 578 -152H642Q670 -105 670 -80Q650 -12 642 -12Z" fill="param(fill) #111111" fill-opacity="param(fill-opacity) 1" stroke="param(outline) none" stroke-opacity="param(outline-opacity) 1" stroke-width="param(outline-width) 0" stroke-linejoin="round"/>
  </g>
</svg>
