<svg xmlns="http://www.w3.org/2000/svg" width="100%" height="100%" viewBox="0 0 1619.36 1619.36">
  <g transform="translate(109.68,1309.68) scale(1,-1)">
    <path d="M886 1198H890Q1062 1073 1062 902V850Q1062 824 1058 770H1062Q1118 807 1118 878V890H1122Q1218 779 1218 662Q1218 497 1018 342H1014Q1090 430 1090 498V510Q1090 579 974 738Q958 766 954 802L958 826Q874 760 874 650V638Q874 617 878 570H874Q838 594 838 638H834Q782 551 782 502Q782 431 866 342V338H862Q654 510 654 666Q654 777 834 986Q898 1070 898 1130V1134Q898 1168 886 1198ZM274 994H386Q394 993 394 986V438H510V986Q511 994 518 994H630Q638 993 638 986V898Q618 878 618 866H610V966H538V418Q538 410 530 410H374Q366 410 366 418V966H294V418Q294 410 286 410H194V-170H1206V366Q1226 394 1230 394H1234V-190Q1234 -198 1226 -198H174Q166 -198 166 -190V430Q167 438 174 438H266V986Q267 994 274 994ZM610 546H618Q638 501 638 494V438H662Q667 438 682 418V410H618Q610 410 610 418ZM302 274H406Q414 273 414 266V162Q414 154 406 154H302Q294 154 294 162V266Q295 274 302 274ZM538 274H642Q650 273 650 266V162Q650 154 642 154H538Q530 154 530 162V266Q531 274 538 274ZM774 274H878Q886 273 886 266V162Q886 154 878 154H774Q766 154 766 162V266Q767 274 774 274ZM1058 274H1114Q1122 273 1122 266V162Q1122 154 1114 154H1010Q1002 154 1002 162V234Q1008 246 1058 274ZM302 62H406Q414 61 414 54V-46Q414 -54 406 -54H302Q294 -54 294 -46V54Q295 62 302 62ZM538 62H642Q650 61 650 54V-46Q650 -54 642 -54H538Q530 -54 530 -46V54Q531 62 538 62ZM774 62H878Q886 61 886 54V-46Q886 -54 878 -54H774Q766 -54 766 -46V54Q767 62 774 62ZM1010 62H1114Q1122 61 1122 54V-46Q1122 -54 1114 -54H1010Q1002 -54 1002 -46V54Q1003 62 1010 62Z" fill="param(fill) #111111" fill-opacity="param(fill-opacity) 1" stroke="param(outline) none" stroke-opacity="param(outline-opacity) 1" stroke-width="param(outline-width) 0" stroke-linejoin="round"/>
  </g>
</svg>
