<svg xmlns="http://www.w3.org/2000/svg" width="100%" height="100%" viewBox="0 0 1624.00 1624.00">
  <g transform="translate(112.00,1312.00) scale(1,-1)">
    <path d="M1236 1004H1240Q1248 1003 1248 996Q1225 976 636 824V796H640Q650 796 748 800Q752 792 752 788L760 792H764Q781 772 832 772L908 724Q1194 740 1216 740Q1216 746 1184 780V784Q1184 792 1196 792Q1244 748 1248 748H1268Q1320 748 1320 784Q1357 870 1372 888H1376L1384 884L1368 736H1392Q1400 735 1400 728Q1400 716 1372 716L1392 652L1372 640H1364Q1290 689 1276 704Q868 616 820 600Q805 587 768 576V568H780L776 540Q780 500 796 500Q837 504 860 504L864 496Q843 484 716 484L712 476L720 472Q755 472 824 480L828 472V464Q724 460 664 452Q702 232 712 232Q788 181 788 164Q796 130 812 32Q812 8 680 -4H676Q657 -4 640 140Q636 140 636 148L692 236Q656 452 648 452Q520 436 476 436Q376 458 376 476V480Q428 488 440 488V492Q418 492 416 516H376Q276 516 240 560V564Q269 628 292 628Q384 709 384 716V720L392 716Q495 742 516 764Q574 794 584 808Q584 838 216 864Q9 889 0 896V900Q4 900 4 904Q393 864 504 848L512 852H568Q577 852 624 864Q646 860 656 860Q689 860 1236 1004ZM708 540Q712 513 712 496H720L768 500V504Q768 524 760 552H752Q708 552 708 540ZM648 540V536Q649 528 656 528Q678 532 692 532H696V548Q688 548 648 540ZM604 532V524H640V536H636Q633 536 604 532ZM652 516Q656 510 656 492H696Q696 500 700 500Q696 507 696 520H692ZM632 512H608V496Q609 488 616 488H648L640 516ZM472 504 464 508V500L468 492Q482 492 536 500Q536 506 524 512H504Q501 512 472 504ZM552 504V484H588Q596 484 596 492V500Q596 508 588 508H580ZM500 484V480H540V488H536ZM420 468V464Q456 448 484 448Q505 448 540 456V464Q510 464 456 480Q420 477 420 468ZM660 476V468H688Q696 468 696 476V480H692Q689 480 660 476ZM556 468V456Q630 464 652 464Q648 472 648 476Q605 468 556 468ZM396 472V468H404V472ZM656 160V156Q666 156 768 176V180Q762 180 704 224H700Q694 223 656 160ZM716 144 700 76V60Q710 36 732 36H736Q772 41 772 72Q752 127 716 144Z" fill="param(fill) #111111" fill-opacity="param(fill-opacity) 1" stroke="param(outline) none" stroke-opacity="param(outline-opacity) 1" stroke-width="param(outline-width) 0" stroke-linejoin="round"/>
  </g>
</svg>
