<svg xmlns="http://www.w3.org/2000/svg" width="100%" height="100%" viewBox="0 0 1624.00 1624.00">
  <g transform="translate(112.00,1312.00) scale(1,-1)">
    <path d="M696 1166H704Q1399 742 1400 738V-158Q1400 -166 1392 -166H1300Q1292 -166 1292 -158V674Q1280 686 704 1038H696Q120 682 108 678V-158Q108 -166 100 -166H8Q0 -166 0 -158V738Q8 746 696 1166ZM700 782Q824 626 824 474V454Q824 312 716 254H708L720 74Q751 93 808 150Q796 171 796 190V202Q796 375 1068 438Q1090 438 1112 442Q1112 438 1116 438Q1098 303 1052 230Q973 122 876 122H864Q841 122 820 138Q753 58 724 18Q724 -36 736 -162L728 -166H672L664 -162Q676 -28 676 26Q580 131 580 138Q560 122 512 122Q391 122 312 310Q288 379 288 438V442Q454 442 580 298Q604 244 604 210V190Q604 177 592 146L680 74L692 254Q633 254 584 386Q576 426 576 458V462Q576 631 700 782ZM700 330 696 282V258H704V330ZM544 186V182Q574 142 580 142L584 150V154Q576 154 544 186ZM812 146Q816 146 824 142Q856 174 856 186Q812 150 812 146Z" fill="param(fill) #111111" fill-opacity="param(fill-opacity) 1" stroke="param(outline) none" stroke-opacity="param(outline-opacity) 1" stroke-width="param(outline-width) 0" stroke-linejoin="round"/>
  </g>
</svg>
