<svg xmlns="http://www.w3.org/2000/svg" width="100%" height="100%" viewBox="0 0 1624.00 1624.00">
  <g transform="translate(112.00,1312.00) scale(1,-1)">
    <path d="M704 964Q789 940 1356 728Q1400 719 1400 708V576L1396 568L1284 608Q1280 507 1280 460V44Q1280 36 1272 36H128Q120 36 120 44V604H116L4 568L0 576V704Q0 716 328 836Q658 956 704 964ZM48 640Q150 667 648 856Q696 872 704 872Q854 820 1304 652Q1340 640 1352 640V656Q1352 693 1232 720Q733 912 692 912Q59 684 48 676ZM428 236H396Q366 236 288 132Q284 132 248 88H804V92Q747 165 676 240Q561 376 532 376H524Q483 376 428 288ZM796 172Q872 102 872 88H1168Q1051 236 1016 236Q984 236 984 244V260L988 284Q988 308 940 324Q896 324 796 176ZM552 264H600Q608 263 608 256V220Q608 212 600 212H548Q540 212 540 220Q540 264 552 264ZM400 180H456L464 176Q461 132 452 132H404Q396 132 392 176ZM888 180H940Q948 179 948 172V140Q948 132 940 132H888Q880 132 880 140V172Q881 180 888 180Z" fill="param(fill) #111111" fill-opacity="param(fill-opacity) 1" stroke="param(outline) none" stroke-opacity="param(outline-opacity) 1" stroke-width="param(outline-width) 0" stroke-linejoin="round"/>
  </g>
</svg>
