<svg xmlns="http://www.w3.org/2000/svg" width="100%" height="100%" viewBox="0 0 1624.00 1624.00">
  <g transform="translate(112.00,1312.00) scale(1,-1)">
    <path d="M628 1200Q808 1041 832 972Q896 862 896 712V692Q896 679 900 672Q896 592 884 520H888Q984 570 984 696V716H988Q1136 536 1136 372V336Q1136 77 768 -188H760Q740 -156 740 -44V-36Q740 -28 768 -20V-16L764 -8Q751 -16 740 -16L736 12V88L732 108Q736 108 736 112Q755 104 772 104Q829 104 880 148Q932 148 956 224V236Q956 282 900 340Q924 396 924 400V412Q903 488 848 488Q837 488 808 524Q781 544 740 544Q632 544 580 448Q580 429 508 424Q412 373 412 304V288Q412 235 504 208Q508 120 580 120Q601 92 636 92Q657 92 696 108Q696 104 700 104Q695 -200 664 -200Q590 -180 388 44Q264 209 264 340V368Q264 524 444 736Q640 973 640 1076Q644 1083 644 1092Q636 1172 620 1196Z" fill="param(fill) #111111" fill-opacity="param(fill-opacity) 1" stroke="param(outline) none" stroke-opacity="param(outline-opacity) 1" stroke-width="param(outline-width) 0" stroke-linejoin="round"/>
  </g>
</svg>
