<svg xmlns="http://www.w3.org/2000/svg" width="100%" height="100%" viewBox="0 0 1624.00 1624.00">
  <g transform="translate(112.00,1312.00) scale(1,-1)">
    <path d="M736 1200H760Q865 1200 928 1100Q1044 1100 1092 956Q1092 924 1140 924Q1276 879 1276 796Q1276 711 1144 664V660Q1152 628 1152 608Q1152 519 1020 452Q990 452 944 408Q870 372 800 372Q765 372 736 384Q740 310 740 276V236H736L692 268L688 260Q723 224 740 224Q753 224 892 292H920Q947 292 996 236Q1003 232 1012 232H1024Q1035 232 1160 296Q1173 296 1180 300Q1224 300 1252 260V256H1248Q1227 276 1212 276Q1189 276 1072 212L1032 208Q1003 208 960 260L948 268H924Q918 268 788 204H752Q729 204 676 260L656 264Q642 264 520 200Q498 196 484 196Q452 196 400 256H380Q363 256 240 192H200Q175 192 148 228V232H152Q176 212 188 212Q209 212 328 276Q350 280 364 280Q400 280 440 228L452 220H468Q487 220 608 284Q626 284 632 288Q668 282 684 268V272Q684 276 656 296L660 304V376Q587 348 536 348Q488 348 448 396Q355 396 304 504Q296 522 296 560Q300 568 300 572Q124 605 124 732Q124 878 296 968Q350 992 412 992L432 988Q432 1097 636 1184Q691 1200 736 1200ZM652 248H660L744 192Q751 -132 772 -132Q799 -192 816 -192V-200H604V-196L644 -84Q652 180 652 248ZM1184 168V160H1176Q1028 120 940 84Q904 56 904 32V16Q904 4 956 4H968V-4H944V-8H956Q983 -4 1000 -4V0Q993 0 940 16V24Q977 24 1000 48H1008Q1012 48 1012 44L1052 64H1072V72L1100 68Q1160 88 1196 88H1208Q1301 88 1324 -20V-24Q1316 -25 1316 -32Q1324 -32 1324 -44Q1324 -115 1224 -196Q1217 -200 1208 -200L1200 -196L1204 -188V-184Q1191 -192 1180 -192H1164Q1156 -192 1156 -184V-180Q1156 -172 1168 -172V-168Q1140 -168 1140 -160Q1152 -136 1228 -120L1236 -68Q1230 -52 1224 -52H1216Q1216 -73 1204 -76H1196V-68H1176L1168 -72Q1168 -68 1164 -68Q1171 -33 1184 -20V-16Q1171 -24 1160 -24H1156L1148 -20Q1148 -28 1108 -28V-32H1120V-40Q1111 -40 1104 -44L1080 -40H1072Q1044 -61 1020 -84V-72Q1023 -63 1048 -40H1044L984 -64V-60Q1004 -38 1004 -36H1000L972 -52H964Q964 -32 1028 -12V-8Q1012 -8 1012 -4Q993 -16 940 -16Q916 -16 880 24V44Q880 106 1076 136Q1162 168 1184 168ZM888 44V36L892 16H896Q896 66 932 88V92Q888 72 888 44ZM1236 60V52H1240V60ZM1196 56V48H1200V56ZM280 52Q466 26 516 -12V-16Q516 -24 504 -24V-28H516V-32Q457 -80 340 -80L304 -76Q288 -84 260 -84H252Q252 -68 240 -68Q170 -36 148 -36Q108 -68 80 -68Q80 -64 76 -64L96 -16L80 40H84Q104 36 148 4H152Q276 23 276 44ZM1196 8V0H1200V8ZM1220 4V-8H1224V4ZM1188 -12H1196V-4Q1188 -5 1188 -12ZM1200 -4V-8H1208V-4ZM1036 -12V-16H1044V-12ZM1052 -16V-20H1060V-16ZM1272 -16V-20H1284V-16ZM1068 -20V-24H1076V-20ZM1204 -20V-28H1208V-20ZM1252 -20V-24H1260V-20ZM1036 -24V-28H1044V-24ZM1088 -24V-28H1096V-24ZM1304 -24V-28H1312V-24ZM1188 -36V-44Q1196 -44 1196 -36ZM1276 -68V-72H1284V-68Z" fill="param(fill) #111111" fill-opacity="param(fill-opacity) 1" stroke="param(outline) none" stroke-opacity="param(outline-opacity) 1" stroke-width="param(outline-width) 0" stroke-linejoin="round"/>
  </g>
</svg>
