<svg xmlns="http://www.w3.org/2000/svg" width="100%" height="100%" viewBox="0 0 1624.00 1624.00">
  <g transform="translate(112.00,1312.00) scale(1,-1)">
    <path d="M628 1200Q846 1016 880 860Q896 773 896 712V688Q896 679 900 672Q896 665 896 656V640Q896 584 884 520H888Q984 572 984 696V716H988Q1136 539 1136 368V344Q1136 70 760 -192Q744 -200 736 -200L732 -192V-4Q733 4 740 4L928 -28L776 176V180Q869 156 884 156Q884 159 752 356V364L804 348Q704 519 704 524H696Q696 519 596 348H600Q641 364 648 364V356Q516 161 516 152H520Q609 180 624 180V176L472 -28H476L664 4L668 -4V-192L664 -200Q581 -165 412 16Q264 193 264 348V368Q264 523 440 732Q644 975 644 1092Q636 1172 620 1196Z" fill="param(fill) #111111" fill-opacity="param(fill-opacity) 1" stroke="param(outline) none" stroke-opacity="param(outline-opacity) 1" stroke-width="param(outline-width) 0" stroke-linejoin="round"/>
  </g>
</svg>
