<svg xmlns="http://www.w3.org/2000/svg" width="100%" height="100%" viewBox="0 0 1624.00 1624.00">
  <g transform="translate(112.00,1312.00) scale(1,-1)">
    <path d="M276 1126H640Q648 1125 648 1118Q584 949 584 938Q718 894 792 762Q836 706 836 410V274Q836 198 832 82Q832 26 888 -66V-82Q888 -90 880 -90H8Q0 -90 0 -82Q56 46 56 90Q52 333 52 478Q52 767 160 842Q234 925 324 946L268 1122ZM852 990H1176Q1176 978 1108 782Q1268 720 1320 614Q1356 537 1356 422V74Q1356 -37 1396 -98L1400 -122L1392 -126H1256Q1157 -126 1024 -122Q999 -126 956 -126Q956 -123 928 -74L936 -70H1312Q1296 24 1296 38V170Q1296 222 1276 222H1272Q1201 222 1096 218Q980 218 980 274Q973 274 972 322V346Q972 422 988 422H1296Q1296 647 1136 706Q1095 722 1028 734Q1028 745 1092 930H928Q980 790 996 738L836 686Q816 733 816 742V746Q907 778 916 778L844 986ZM116 494V326Q387 322 424 322Q564 322 564 358Q568 373 568 394V486L572 494Z" fill="param(fill) #111111" fill-opacity="param(fill-opacity) 1" stroke="param(outline) none" stroke-opacity="param(outline-opacity) 1" stroke-width="param(outline-width) 0" stroke-linejoin="round"/>
  </g>
</svg>
