<svg xmlns="http://www.w3.org/2000/svg" width="100%" height="100%" viewBox="0 0 1624.00 1624.00">
  <g transform="translate(112.00,1312.00) scale(1,-1)">
    <path d="M680 1066H716Q795 1066 888 966L896 962Q966 974 996 974H1040Q1288 974 1388 706Q1400 663 1400 634V598Q1400 482 1260 346Q1183 274 1104 258L1108 218Q1104 154 1084 154H1080L1084 178Q1075 246 1060 246H1056Q1040 196 1032 114Q1032 77 1076 14V10Q1003 10 992 154Q992 214 976 214Q968 195 960 150Q964 70 964 30Q944 -30 936 -30H932Q926 -30 920 -18Q935 15 940 38Q914 101 908 134Q815 18 684 18Q532 18 460 134H452L424 46Q426 11 480 -62Q480 -66 476 -66Q407 -59 392 110Q392 214 356 230L352 206Q356 132 356 82Q336 14 296 14H288V18Q324 70 324 90Q287 198 276 266H272L260 250Q260 223 276 154H268Q236 176 236 230V282Q0 420 0 578V618Q0 818 272 994Q395 1046 424 1046Q392 972 392 934Q402 886 440 886Q460 940 524 998Q604 1066 680 1066ZM808 938V934H816V938ZM608 918H488Q488 913 472 878H488Q613 878 800 930V934H788Q673 918 608 918ZM364 570V566H368Q371 594 376 594L372 602Q373 610 380 610H388L392 590V570Q392 542 384 494Q384 448 416 430Q424 389 428 354Q436 354 528 458Q544 458 556 478V482Q496 516 496 550Q489 550 488 570V606Q516 658 560 658Q636 646 636 566Q640 566 640 542Q628 462 588 462Q550 462 484 382Q444 305 444 278V258Q444 130 592 54Q629 42 660 42H700Q814 42 888 150Q908 200 908 230V262Q908 391 792 454Q746 466 732 466V458Q709 362 692 362Q661 362 648 430Q640 430 636 462Q646 494 696 494Q723 482 728 482V486Q724 527 724 550V566Q748 658 804 658Q855 658 864 594V574Q864 519 800 470Q826 470 896 390Q906 390 932 358Q945 442 952 442H956Q964 442 964 422H968Q976 461 976 498Q952 560 952 590Q958 618 968 618Q980 608 984 566Q986 566 996 558H1000Q965 717 904 766Q808 842 672 842Q527 842 408 726Q369 638 364 570ZM980 702Q1024 570 1024 518Q1020 494 1012 494Q1003 494 1000 526H996Q992 486 992 466Q992 390 1000 346L992 342H984Q980 342 960 370V362Q960 342 964 302H952Q945 302 932 334H924V322L936 270Q928 199 928 154Q928 144 936 110H940Q940 246 984 246Q1001 235 1016 162H1020Q1024 238 1028 242Q1024 280 1008 322Q1018 330 1024 330Q1032 330 1072 286V290Q1048 388 1048 402H1044Q1044 381 1028 374L1024 382Q1024 486 1048 550Q1048 562 1068 582Q1068 610 988 698V702ZM296 582V566Q301 566 324 550Q320 528 320 518Q320 490 344 362H332Q319 362 316 406H296Q296 402 268 310L316 354H320L328 350Q308 284 308 250V238Q308 200 328 154H332V166Q332 185 328 206Q328 249 364 254Q416 227 416 114V106Q428 106 428 150V166Q428 170 432 170Q422 290 404 290Q400 317 400 334V354L388 346H380L372 350Q377 404 380 414Q367 494 344 494Q344 511 340 526Q340 603 368 682H360Q296 629 296 582ZM520 562Q524 542 548 506H556Q548 522 548 550Q553 586 584 586Q591 586 608 578V582Q595 606 564 606Q520 598 520 562ZM740 558V554Q768 582 784 582H792Q816 573 816 542Q816 529 800 506V502H804Q840 521 840 554Q840 606 776 606Q747 606 740 558ZM568 542Q571 522 592 522H596Q602 522 608 534V550Q608 559 588 562Q577 562 568 542ZM752 542Q755 522 776 522H780Q786 522 792 534V550Q792 559 772 562Q761 562 752 542ZM1072 558V542Q1084 542 1084 526H1088V546Q1088 552 1076 558ZM280 554Q272 544 264 510Q264 465 304 430Q304 434 308 442Q302 518 288 518H276V534L288 550ZM1060 526Q1044 493 1044 458V434H1048Q1088 434 1088 502V518ZM648 454Q672 393 680 382H692Q716 434 716 454V458Q716 470 680 474Q668 472 648 454ZM1044 282Q1044 278 1040 278Q1044 270 1044 266H1056V278Q1052 278 1044 282ZM880 230Q892 226 892 206Q806 142 704 142Q476 157 476 218Q477 226 484 226H488Q502 226 596 178Q644 166 684 166H708Q799 166 860 230ZM616 134Q628 134 676 122Q725 126 756 134L760 126V122Q751 98 688 98H676Q621 98 608 130Z" fill="param(fill) #111111" fill-opacity="param(fill-opacity) 1" stroke="param(outline) none" stroke-opacity="param(outline-opacity) 1" stroke-width="param(outline-width) 0" stroke-linejoin="round"/>
  </g>
</svg>
