<svg xmlns="http://www.w3.org/2000/svg" width="100%" height="100%" viewBox="0 0 1624.00 1624.00">
  <g transform="translate(112.00,1312.00) scale(1,-1)">
    <path d="M796 1044H800L808 1040Q804 1033 792 976Q913 1044 952 1044Q968 1044 968 1040Q940 994 940 984Q944 976 944 972Q1020 996 1056 996H1068Q1102 996 1120 988Q1080 944 1080 932Q1248 916 1248 884V880Q1192 861 1192 848Q1344 786 1344 744H1340L1276 740Q1276 729 1372 640Q1392 605 1392 588H1388L1320 600L1380 488Q1388 437 1388 428L1380 424Q1349 452 1324 452L1320 444Q1344 355 1344 324Q1341 280 1328 280H1320Q1292 312 1272 316V260Q1272 252 1264 252H484Q413 252 392 300V304Q439 308 460 308V312Q460 322 372 400Q349 436 348 456L356 460L416 448V452Q348 567 348 620Q352 620 352 624Q391 600 420 592V596Q400 679 396 712Q400 738 400 764V768L404 776L456 732H468V760Q468 872 508 904H516Q527 848 548 848Q591 976 648 1004L652 996Q648 975 648 972Q648 936 664 936Q671 936 720 996Q770 1044 796 1044ZM768 524Q784 424 868 424Q968 437 968 516V524Q968 608 880 624Q783 624 768 528ZM204 464Q243 448 284 404V396Q284 388 276 388H272Q189 435 188 440Q197 464 204 464ZM204 348Q316 313 316 288Q310 272 304 272H300Q198 294 188 308Q193 348 204 348ZM984 196Q1179 196 1384 188Q1400 166 1400 128V-4Q1374 -44 1312 -44Q902 -40 680 -40H452Q319 -40 56 -44Q0 -33 0 0V12Q72 188 128 188L156 192Q792 196 984 196Z" fill="param(fill) #111111" fill-opacity="param(fill-opacity) 1" stroke="param(outline) none" stroke-opacity="param(outline-opacity) 1" stroke-width="param(outline-width) 0" stroke-linejoin="round"/>
  </g>
</svg>
