<svg xmlns="http://www.w3.org/2000/svg" width="100%" height="100%" viewBox="0 0 1624.00 1624.00">
  <g transform="translate(112.00,1312.00) scale(1,-1)">
    <path d="M664 1200H712Q928 1166 1088 1076Q1110 1076 1228 936Q1400 732 1400 640V420Q1400 283 1304 180Q1193 4 1160 -32Q1092 -101 860 -176Q764 -200 716 -200H688Q548 -193 264 -36Q149 33 84 200Q0 359 0 376V388Q0 426 12 500Q8 554 8 592V664Q8 740 92 828Q121 856 184 1000Q210 1060 408 1132Q561 1200 664 1200ZM480 1120 484 1112V1100Q484 1059 508 1012Q595 1048 652 1048H672Q796 1048 816 1020V1012Q816 1004 808 1004Q766 1024 672 1024H664Q601 1024 520 992Q569 884 576 884H640Q648 883 648 876V872Q648 866 636 860H584Q628 776 628 764V748Q628 711 624 644Q636 618 636 608L608 628Q612 682 612 708V712Q612 721 540 856Q476 856 392 760Q344 664 344 512Q344 438 372 416V408Q372 400 364 400H360Q325 400 320 536Q320 800 492 868Q524 876 524 884Q520 888 476 972Q460 964 448 964L440 976Q448 992 464 992Q448 1012 448 1100H444Q259 1036 220 976Q164 849 104 776Q48 720 48 636Q52 512 56 504Q44 432 44 400V388Q44 354 120 232Q187 39 336 -28Q451 -88 564 -128V-52Q572 -22 624 92Q598 102 596 112Q602 128 608 128Q612 124 636 124L660 176Q647 320 636 320Q508 372 508 472Q514 548 528 548H532Q540 548 540 536Q540 505 532 464Q532 405 640 340Q640 372 656 396H664Q664 390 656 360Q656 320 736 320Q748 320 748 312V308Q748 302 736 296Q729 296 672 304Q704 173 704 164Q704 157 672 80Q719 76 740 76H788Q850 76 944 168Q1007 192 1036 228Q1042 228 1048 216V212Q1044 187 948 144Q873 52 788 52Q771 48 720 48Q692 48 664 60Q652 37 608 -76Q611 -144 616 -144Q681 -156 708 -156Q844 -156 1092 -32Q1178 40 1220 132L1260 192Q1213 197 964 356Q921 384 908 384H836Q819 394 812 412H820Q841 396 856 396H964Q974 396 1252 240L1288 228Q1356 297 1356 476Q1356 539 1360 604Q1360 726 1192 908Q1108 1047 912 1108Q756 1156 688 1156Q578 1156 480 1120ZM1032 860H1040L1072 800Q1072 791 1124 760Q1220 650 1220 544Q1220 471 1160 408H1152Q1144 408 1144 416V420Q1196 484 1196 544Q1196 650 1096 756Q1052 756 1024 856ZM676 692H720Q874 692 928 572Q936 544 936 524V460Q936 439 924 436H920Q912 436 912 444V496Q912 500 916 500Q916 602 828 644Q771 668 708 668H692Q671 668 668 680V684Q669 692 676 692ZM200 548H204L212 544Q208 450 208 404V384Q208 294 292 228Q346 134 384 96V92Q384 84 372 84Q341 84 280 208Q184 285 184 376V392Q184 439 188 540ZM724 536H732Q756 534 756 524Q749 464 740 464H724Q700 464 684 488V504Q684 536 724 536Z" fill="param(fill) #111111" fill-opacity="param(fill-opacity) 1" stroke="param(outline) none" stroke-opacity="param(outline-opacity) 1" stroke-width="param(outline-width) 0" stroke-linejoin="round"/>
  </g>
</svg>
