<svg xmlns="http://www.w3.org/2000/svg" width="100%" height="100%" viewBox="0 0 1624.00 1624.00">
  <g transform="translate(112.00,1312.00) scale(1,-1)">
    <path d="M544 1032H548Q611 1032 1180 884Q1208 865 1208 788Q1208 712 1244 712Q1304 693 1304 660Q1312 660 1312 624Q1312 595 1308 424Q1308 419 1340 364V352Q1316 296 1316 272Q1316 245 1376 192Q1400 162 1400 144V124Q1400 82 1340 72H1332Q1286 72 1172 208Q1159 216 1148 216H1112L1132 188V180H1096Q1021 180 1008 324Q1004 324 996 340V376L1000 384Q900 455 900 512Q900 561 964 572H972Q1003 572 1104 468Q1112 468 1112 464Q1125 472 1132 472Q1136 590 1136 624Q1100 665 1100 696Q1100 712 1128 748V804Q980 840 612 904Q768 456 792 396Q868 379 908 328Q928 285 928 228V148Q968 63 968 48Q968 -32 832 -32H168Q20 -32 20 92Q20 96 32 148Q0 178 0 208V372Q0 436 132 464Q132 471 160 476V544Q160 563 156 584Q156 684 236 684H248Q451 684 524 500Q548 427 548 388H620Q620 407 472 940V956Q485 1032 544 1032ZM1200 636V480Q1200 475 1252 444Q1252 438 1268 428V640Q1268 668 1240 668H1236Q1210 636 1200 636ZM244 588V492Q244 466 240 412H452Q452 489 372 564Q317 588 272 588ZM556 304V300Q556 288 608 288H748L768 292V304Q742 312 732 312H584ZM556 236Q556 230 568 224Q574 224 712 220Q768 223 768 236V244L720 248H600Q556 248 556 236ZM1304 140Q1310 104 1328 104Q1334 104 1364 112V144Q1364 172 1336 172Q1304 172 1304 140ZM228 156V152Q244 123 244 116Q247 116 268 148V152H236ZM428 136V132Q442 100 448 100Q448 107 464 136ZM616 124Q630 92 636 92L644 120L636 124ZM112 112 104 84V80Q107 56 116 56H144Q164 66 164 88Q164 109 124 112ZM792 104Q800 91 800 84H804Q804 92 816 112H800Q792 111 792 104ZM316 96V60Q316 50 352 44Q370 52 372 60V64Q372 95 356 100H336ZM508 84V52Q508 40 540 36Q564 36 564 64V80Q558 96 536 96H532Q508 94 508 84ZM684 72V60Q684 28 720 28Q741 28 744 68Q744 80 708 88Q692 88 684 72ZM848 52Q856 28 880 28H884L912 32V68Q906 84 884 84H880Q848 80 848 52ZM216 4H260V8Q244 37 244 44Q238 43 216 4ZM436 36Q424 7 424 4H460V8Q445 36 440 36Z" fill="param(fill) #111111" fill-opacity="param(fill-opacity) 1" stroke="param(outline) none" stroke-opacity="param(outline-opacity) 1" stroke-width="param(outline-width) 0" stroke-linejoin="round"/>
  </g>
</svg>
