<svg xmlns="http://www.w3.org/2000/svg" width="100%" height="100%" viewBox="0 0 1624.00 1624.00">
  <g transform="translate(112.00,1312.00) scale(1,-1)">
    <path d="M1032 1042Q1161 1042 1212 882Q1216 867 1216 850Q1216 815 1196 754H1228Q1353 754 1400 594V554Q1400 478 1244 302Q1103 98 1008 6Q924 -42 860 -42H824Q685 -42 584 114Q413 -42 296 -42H276Q89 -42 8 166Q0 202 0 218V262Q0 417 184 510Q312 550 320 550V558Q264 638 264 734Q264 855 392 962Q474 1018 680 1018Q934 1042 1032 1042ZM696 974Q840 872 840 722Q840 626 764 530V526Q767 526 1116 730Q1168 785 1168 846Q1168 953 1052 994Q1024 994 1024 998Q1003 994 696 974ZM316 746V706Q316 575 472 498Q530 486 544 486H548Q718 486 780 658Q788 675 792 726Q792 891 604 958L548 962Q403 962 328 806Q316 770 316 746ZM548 934Q712 934 760 754V706Q760 596 628 530Q590 514 556 514Q413 514 352 662Q344 690 344 710V738Q344 863 496 926ZM368 718Q368 596 508 546Q524 542 540 542H568Q665 542 720 654Q736 683 736 730Q736 856 592 902Q577 906 560 906H548Q413 906 368 750ZM556 878Q659 878 700 766Q708 741 708 734Q708 604 576 570H548Q448 570 404 682Q399 718 396 726Q396 831 524 878ZM424 734V714Q446 598 540 598L564 594Q616 594 668 662Q680 698 680 710V738Q654 850 568 850Q560 854 556 854Q449 854 424 734ZM544 822H564Q630 822 652 730V718Q652 641 548 622Q452 647 452 718V730Q471 822 544 822ZM480 738V710Q480 663 552 650H556Q615 650 628 726Q611 798 556 798H552Q480 785 480 738ZM552 770Q600 760 600 722Q600 683 544 678Q515 678 508 726Q515 770 552 770ZM532 722Q538 706 544 706H560Q566 706 572 718Q572 739 560 742H544Q535 742 532 722ZM864 526Q994 526 1092 382Q1128 321 1128 246V226Q1352 504 1352 542Q1352 565 1356 570Q1329 706 1220 706H1208Q1154 706 956 582Q864 530 864 526ZM604 242Q604 67 800 6Q839 6 840 2Q979 2 1056 134Q1080 191 1080 226V258Q1080 389 928 466Q852 482 844 482Q679 482 612 302Q604 268 604 242ZM48 262V222Q48 88 212 14L284 2Q357 2 444 62Q524 149 524 242Q524 408 340 474Q318 478 304 478H264Q141 478 68 338Q48 302 48 262ZM548 438Q522 438 488 446V442Q558 362 560 310Q565 310 596 390L648 454H644Q603 438 548 438ZM288 450H292Q430 450 488 290Q492 269 492 250V226Q492 98 332 38Q306 34 280 34H268Q145 34 80 190Q76 224 76 246V250Q76 391 240 446Q261 450 288 450ZM828 450H856Q981 450 1044 298Q1052 264 1052 238Q1052 106 904 42Q876 34 856 34H832Q694 34 636 198Q632 238 632 258Q632 343 732 422Q792 450 828 450ZM100 234Q100 116 244 62L292 58Q404 58 460 190Q468 220 468 246Q468 364 336 418Q306 426 280 426Q100 398 100 234ZM660 238Q660 105 808 62Q829 58 848 58Q959 58 1016 182Q1024 212 1024 238V246Q1024 376 880 422Q859 426 840 426Q708 426 660 274ZM292 398Q380 398 432 290Q440 253 440 246Q417 86 280 86Q184 86 136 198L128 254Q128 317 208 378Q246 394 292 398ZM844 398Q996 369 996 246Q996 131 876 90Q850 90 836 86Q746 86 696 194Q688 210 688 238Q688 376 844 398ZM156 254V230Q156 154 252 118Q268 114 284 114H296Q412 142 412 230V254Q412 333 308 370H272Q156 342 156 254ZM712 238Q712 151 820 114H840Q972 129 972 246Q972 333 864 370H840Q730 370 712 238ZM292 342Q384 321 384 250V234Q384 159 284 142H280Q184 160 184 238V242Q198 342 284 342ZM848 342Q926 342 944 238Q919 142 848 142H844Q771 142 744 218V258Q744 316 832 342ZM212 250V234Q224 170 272 170H296Q349 170 360 246Q345 314 292 314H272Q224 314 212 250ZM768 246V238Q785 166 836 166Q916 178 916 238V242Q903 314 856 314H828Q782 314 768 246ZM280 286H284Q328 283 328 246V238Q320 198 288 198H280Q240 206 240 238V246Q248 286 280 286ZM840 286Q888 282 888 242Q880 198 848 198H836Q804 198 796 242Q801 286 840 286ZM264 238Q264 232 280 222Q304 222 304 246Q300 262 280 262Q264 258 264 238ZM824 250V234Q824 225 844 222Q860 228 860 234V250Q860 256 848 262Q824 260 824 250Z" fill="param(fill) #111111" fill-opacity="param(fill-opacity) 1" stroke="param(outline) none" stroke-opacity="param(outline-opacity) 1" stroke-width="param(outline-width) 0" stroke-linejoin="round"/>
  </g>
</svg>
