<svg xmlns="http://www.w3.org/2000/svg" width="100%" height="100%" viewBox="0 0 1624.00 1624.00">
  <g transform="translate(112.00,1312.00) scale(1,-1)">
    <path d="M316 902H628Q654 902 852 694Q988 679 988 646Q1400 244 1400 222V130Q1400 98 1368 98H508Q431 98 408 142Q4 541 4 558Q0 565 0 578V658Q0 677 20 690Q60 686 80 686H148L156 690L152 726Q152 798 200 798H220Q228 798 308 794V894Q309 902 316 902ZM348 826V794Q348 772 440 690Q730 393 744 390Q744 402 748 402Q748 448 652 526Q398 793 348 826ZM196 718 192 710V698Q192 662 268 602Q268 587 584 286L592 282V302Q592 339 260 654Q260 659 196 718ZM40 614V562Q432 171 440 170V186Q440 235 396 262Q89 575 40 614ZM784 418V354H1052V422H1044Q965 422 808 426Q792 418 784 418ZM632 314V246H892Q902 246 904 286Q900 314 892 314ZM940 314V250Q980 242 1012 242Q1067 242 1208 246V314ZM476 206Q476 193 480 138H744V206ZM784 206V178L788 138H1052V206ZM1092 206V138H1120Q1200 138 1360 142V206Z" fill="param(fill) #111111" fill-opacity="param(fill-opacity) 1" stroke="param(outline) none" stroke-opacity="param(outline-opacity) 1" stroke-width="param(outline-width) 0" stroke-linejoin="round"/>
  </g>
</svg>
