<svg xmlns="http://www.w3.org/2000/svg" width="100%" height="100%" viewBox="0 0 1624.00 1624.00">
  <g transform="translate(112.00,1312.00) scale(1,-1)">
    <path d="M480 994H512Q544 994 1128 874Q1260 805 1260 698V686Q1260 637 1232 586H1236Q1311 586 1380 486Q1400 442 1400 422V386Q1400 302 1320 246L740 10Q713 6 696 6H664Q578 6 500 78H496Q307 26 276 26H244Q97 26 16 190Q0 230 0 270V306Q0 434 152 522Q210 546 256 546Q312 542 328 534H332V538Q282 569 248 650Q252 678 252 698Q236 726 236 738V750Q236 897 396 974Q396 968 408 962Q408 994 480 994ZM424 966V930H420Q393 951 392 954Q256 877 256 750V742Q256 732 272 690V678L268 654Q342 498 484 498H500V578L452 574H436Q394 574 380 638H372Q333 630 328 630Q296 663 296 754Q296 882 416 918Q460 930 480 930Q491 930 536 918V922L520 942V946Q536 964 536 974H500Q496 974 496 978ZM552 970Q552 958 536 950Q557 906 564 906Q700 844 700 754V742Q700 737 668 714L664 706V662Q664 616 512 582Q512 578 532 498Q636 524 684 590Q736 666 736 734Q736 891 572 962ZM636 954V950Q699 920 740 822Q752 774 756 742Q752 735 752 726V706L768 710Q797 710 1032 718V710H1028Q765 690 748 682Q748 618 644 522H664Q664 532 1064 570L1216 590Q1236 629 1236 638H1176V646L1216 650H1240L1244 670V706Q1244 799 1124 854Q1094 866 640 954ZM308 750Q317 642 336 642H344Q352 642 384 650Q404 586 436 586H460L500 590L496 598V622H504L508 594Q656 625 656 670L652 698Q652 719 688 742Q688 844 548 902L544 874H540L528 882L524 854Q616 796 616 750Q616 680 516 658H500Q389 658 340 742V774Q340 848 448 878Q499 866 512 866Q512 894 536 894V906Q493 918 476 918Q397 918 332 846Q320 846 308 750ZM348 762Q348 697 472 670Q482 670 504 666Q583 666 604 746Q604 797 520 846Q515 802 504 802V798L516 782V778Q514 778 496 794Q496 790 492 790Q492 810 464 810V818Q476 818 496 806Q508 839 508 850V854Q472 866 448 866Q374 866 348 762ZM448 818H452V810Q404 802 404 766Q404 742 440 714H432Q396 741 396 766Q410 818 448 818ZM460 774H480Q486 774 496 758V742Q496 736 480 726H460Q454 726 444 742V758Q444 764 460 774ZM520 774Q530 774 536 742V734Q536 694 480 694Q444 702 444 710H448Q474 702 484 702H488Q512 702 528 726V742Q528 746 520 774ZM1048 722H1072V714H1048ZM744 518V514Q795 514 880 430Q940 355 940 262V230H944Q944 258 1080 258Q1080 262 1100 262V254Q953 226 936 226Q936 165 868 82H872L1336 274Q1384 338 1384 370H1380Q1322 358 1228 334V342Q1377 384 1384 394V410Q1384 524 1244 570H1224Q1120 562 744 518ZM172 510V498Q211 506 216 506Q333 506 440 366H444Q444 376 464 406V410Q384 526 256 526Q243 526 172 510ZM608 458Q580 478 580 482Q440 410 440 254Q446 254 460 222Q456 195 456 178Q530 26 668 26H688V46Q688 66 684 106Q641 102 632 98Q580 98 568 166H560Q552 166 520 158Q484 172 484 266V290Q484 404 600 446Q658 458 664 458Q675 458 724 446L704 470V474Q720 488 720 502H664Q608 502 608 474ZM20 294V270Q20 135 172 62V66L184 86Q32 199 32 286H28Q28 389 148 486V498Q20 419 20 294ZM172 486V478L176 458Q215 470 224 470Q339 470 428 314Q428 346 436 346Q344 494 220 494H216Q211 494 172 486ZM736 494 724 474Q744 430 764 430Q888 365 888 266Q852 244 852 238V194Q852 143 700 110V106Q716 40 716 26Q793 26 880 130Q920 194 920 250V270Q920 431 744 494ZM40 290Q40 209 184 98L192 94L204 114Q68 207 68 294V302Q68 366 156 446L152 470H148Q40 384 40 290ZM180 450V442Q180 439 192 430L232 434Q323 434 388 318Q396 303 396 286V266H420V274Q420 393 248 458H220Q212 458 180 450ZM496 274Q502 166 528 166Q532 166 560 178Q576 178 596 122L632 110L684 118V142H692Q692 122 700 122Q840 157 840 186V238Q876 270 876 278Q876 358 752 422L732 426L728 402H724L716 406L708 382Q800 327 800 282V270Q800 207 704 186H684Q528 207 528 278Q524 278 524 302Q558 402 628 402H640Q662 402 700 390Q700 422 720 422V430Q720 439 668 446Q579 446 516 370Q496 334 496 274ZM76 290Q76 215 208 122L220 142Q100 221 100 290V294Q100 359 180 418V422Q173 422 160 434Q76 364 76 290ZM220 426Q232 414 232 398H240Q302 398 348 318V314Q293 390 240 390H228V382Q228 378 232 378L228 370Q228 350 284 334Q308 316 308 294V274H320L340 278V270H352V274L348 314Q360 312 360 282V270H388V282Q388 359 272 418Q257 426 240 426ZM108 294Q108 219 224 150Q231 146 240 146H244Q304 146 380 246Q380 250 376 250Q369 254 360 254H356Q293 174 240 174Q193 174 136 278V290Q136 343 204 394H216V406Q212 418 192 418Q108 358 108 294ZM536 294Q536 209 696 194Q788 211 788 274V282Q788 325 708 370Q700 338 692 326Q724 288 724 258V254Q709 222 672 222Q584 242 584 290V298Q584 332 636 346H656Q664 345 664 338Q592 338 592 294V290Q613 230 672 230H676Q716 236 716 266Q716 292 684 322Q684 314 676 314Q676 327 672 334Q690 334 696 378Q667 394 628 394Q536 364 536 294ZM144 290Q144 236 228 186Q234 182 252 182Q308 198 348 258H336L328 254Q328 265 304 270Q282 226 232 226Q176 258 176 318Q176 347 224 350Q218 366 212 366Q203 366 172 330V338Q172 342 212 378V386H208Q144 341 144 290ZM236 382H240Q282 382 324 326V322Q277 374 236 374ZM188 306Q203 238 240 238H244Q287 238 296 294Q296 338 220 338Q188 338 188 306ZM168 326V318L164 298H156V302Q160 326 168 326ZM328 318Q337 318 340 290H332ZM244 306H256Q262 306 268 294V286Q268 280 256 274H244Q238 274 232 290Q238 306 244 306ZM648 302H664Q670 302 680 286V266Q680 258 656 250Q640 256 632 270V286Q632 292 648 302ZM156 282H164Q164 275 176 246Q164 246 156 282ZM328 254V246Q328 241 308 226H304Q324 254 328 254ZM388 250Q388 207 260 138H224V118Q231 114 244 114Q310 114 408 230V246Q395 246 388 250ZM420 238Q373 150 252 102L232 106H216L212 86V82Q234 78 244 78Q310 78 428 198Q440 222 440 226Q440 238 420 238ZM180 242Q220 202 240 202V194Q215 194 180 238ZM296 222H300Q300 214 292 214H288Q289 222 296 222ZM284 210Q284 200 252 194V202Q256 202 284 210ZM232 66Q225 66 208 74Q200 58 200 50H204Q238 46 260 46H268Q374 46 452 142Q436 167 436 194Q317 66 232 66Z" fill="param(fill) #111111" fill-opacity="param(fill-opacity) 1" stroke="param(outline) none" stroke-opacity="param(outline-opacity) 1" stroke-width="param(outline-width) 0" stroke-linejoin="round"/>
  </g>
</svg>
