<svg xmlns="http://www.w3.org/2000/svg" width="100%" height="100%" viewBox="0 0 1624.00 1624.00">
  <g transform="translate(112.00,1312.00) scale(1,-1)">
    <path d="M782 1200H794Q921 1200 966 1100H982Q1095 1100 1142 936Q1142 913 1082 816Q1157 773 1194 644L1198 608Q1198 524 1074 456Q1025 450 1010 424Q938 372 842 372Q833 372 782 380Q782 312 790 156H794Q822 172 834 172H838L846 144Q793 120 790 120Q797 -136 818 -136Q828 -162 858 -196V-200H654L646 -196Q690 -107 690 -20Q690 30 694 72H598Q450 45 450 -4Q437 -4 434 -112Q434 -169 458 -188L450 -192H402V-188Q422 -167 422 -152V-84Q422 -56 370 -8L286 108L270 92H266V124Q266 133 286 136Q343 136 402 20Q402 7 414 -24H418L422 24V92Q422 177 390 196Q376 120 366 120H362Q354 156 354 172V176Q362 268 390 268Q404 264 422 244V368L426 388Q401 400 378 400Q362 370 362 360H354Q354 363 350 384Q350 412 386 440Q342 491 342 528V572Q246 572 178 676Q170 708 170 716V760Q170 825 262 920Q343 992 466 992Q474 988 478 988V996Q478 1099 682 1184Q737 1200 782 1200ZM394 488Q394 480 422 428Q423 412 438 412L458 448Q442 448 442 460Q442 470 450 508L438 500Q430 500 430 540Q422 540 418 492Q400 492 394 488ZM402 440V436Q403 428 410 428V432Q410 440 402 440ZM442 408 438 388V344H446Q454 344 478 392H486V396Q460 400 442 408ZM502 396V392Q502 386 526 368H530Q517 392 502 396ZM578 348Q568 348 538 356Q546 328 546 308V304Q546 257 522 236H518V300Q518 345 498 356H494Q483 292 442 292V88H446Q475 152 486 152H494Q500 152 506 140V128Q486 114 486 88V76Q538 116 570 116Q636 116 694 76V80Q702 306 702 364Q706 372 706 376Q628 348 578 348ZM1030 296Q1066 296 1102 76V52H1106V208H1114Q1118 162 1118 56H1122Q1122 182 1186 292L1194 296V292Q1134 148 1130 -8V-16H1134Q1151 95 1206 168Q1226 184 1230 184V180Q1189 138 1154 16Q1154 6 1138 -80V-84H1142Q1166 -12 1206 -12Q1230 -21 1230 -28V-32H1214Q1166 -32 1130 -168Q1138 -169 1138 -176V-188Q1138 -194 1126 -200H1098Q1092 -200 1082 -184L1094 -164Q1070 -89 1042 -44Q1032 -44 1014 -128V-132H1018Q1018 -119 1038 -108L1058 -112V-120Q1022 -120 1014 -172Q1010 -172 1010 -184Q1014 -192 1014 -196L1006 -200H986V-188Q986 -184 990 -184Q973 -120 942 -120V-116Q943 -108 950 -108H962Q978 -116 978 -132H982V-128Q982 -84 942 -16H946Q964 -16 982 -88H986V-76Q986 -49 962 40Q972 40 990 -28H994V12H1002V-20Q1008 -20 1034 44H1038V36Q1030 24 1022 -12Q1032 -12 1042 -20Q1050 -16 1054 -16L1050 -24Q1082 -71 1082 -88H1086V-84Q1086 -15 1022 144Q1019 144 994 180H1002Q1048 151 1078 36Q1086 11 1086 4H1090V16Q1090 146 1030 296ZM1090 -4V-20H1094V-4ZM990 -32V-48H994V-32ZM1002 -32V-56H1006V-32ZM1018 -32Q1010 -78 1010 -88V-96H1014Q1014 -81 1030 -36L1022 -32Z" fill="param(fill) #111111" fill-opacity="param(fill-opacity) 1" stroke="param(outline) none" stroke-opacity="param(outline-opacity) 1" stroke-width="param(outline-width) 0" stroke-linejoin="round"/>
  </g>
</svg>
