<svg xmlns="http://www.w3.org/2000/svg" width="100%" height="100%" viewBox="0 0 1624.00 1624.00">
  <g transform="translate(112.00,1312.00) scale(1,-1)">
    <path d="M696 938H752Q922 938 1068 758Q1080 718 1112 718Q1218 718 1332 594Q1400 497 1400 410V378Q1400 173 1168 74Q1117 62 1060 62H296Q67 62 4 294Q0 309 0 330V366Q0 516 164 606Q218 634 292 634H316Q321 634 352 718Q380 777 476 862Q601 938 696 938ZM392 522H388Q313 542 284 542Q138 542 92 382Q92 354 88 350Q88 208 240 158Q300 154 300 150Q380 154 420 154H1068Q1237 154 1300 318Q1312 350 1312 386V398Q1312 562 1132 622Q1096 630 1036 630Q924 850 720 850Q516 850 412 630Q400 588 392 522Z" fill="param(fill) #111111" fill-opacity="param(fill-opacity) 1" stroke="param(outline) none" stroke-opacity="param(outline-opacity) 1" stroke-width="param(outline-width) 0" stroke-linejoin="round"/>
  </g>
</svg>
