<svg xmlns="http://www.w3.org/2000/svg" width="100%" height="100%" viewBox="0 0 1624.00 1624.00">
  <g transform="translate(112.00,1312.00) scale(1,-1)">
    <path d="M304 1152H320Q340 1152 340 1080V1068Q340 1008 320 1008H308Q303 1008 288 1028V1136Q288 1142 304 1152ZM112 1068Q200 998 200 972V964Q196 952 176 952H168Q84 1024 84 1048Q90 1068 112 1068ZM524 1068Q544 1062 544 1040Q544 1025 456 952H444Q430 960 424 976Q490 1068 524 1068ZM1032 1008H1048Q1054 1008 1060 996V768Q1060 691 1064 540Q1088 562 1156 664V752Q1159 816 1176 816H1188Q1208 816 1212 744Q1261 816 1284 816Q1289 816 1304 796V788Q1279 747 1176 600H1180Q1238 620 1252 620H1264Q1270 620 1280 604V592Q1280 577 1120 524L1064 444V212Q1064 200 1112 200V196Q1048 136 1000 136H916Q896 165 880 228L888 232Q989 216 1012 216V628Q972 668 940 668H752Q731 668 724 684V704Q724 720 796 720H876V724Q763 792 724 832V836Q724 858 744 864Q753 864 840 812Q820 877 820 892Q826 912 848 912H852Q864 912 916 756Q1010 696 1012 696V976Q1012 998 1032 1008ZM316 960Q416 960 436 836Q436 738 312 716Q229 716 196 812Q192 817 192 840Q192 944 316 960ZM36 864H128Q134 864 144 848V840Q144 819 128 812H16Q0 819 0 840V848Q5 864 36 864ZM532 864H592Q623 864 628 848V832Q628 820 592 812H520Q480 812 480 840Q480 864 532 864ZM180 728Q198 720 200 712V704Q200 675 112 608H104Q99 608 84 628Q84 663 176 728ZM452 728Q544 655 544 624Q526 608 524 608H516Q424 678 424 708Q436 728 452 728ZM304 668H324Q330 668 340 652V584Q340 524 320 524H316Q295 524 288 540V652Q288 658 304 668ZM444 240H532Q560 240 620 236V228Q602 212 460 160H452Q444 180 436 236ZM760 240Q832 240 832 224Q868 123 868 116Q855 56 844 56Q672 210 672 236H676Q728 240 760 240ZM388 228Q404 188 404 148L396 144Q328 156 256 176V184Q332 212 388 228ZM1192 184Q1264 159 1264 108Q1272 63 1276 20H1272Q1124 33 1124 60Q1094 85 1080 108V112Q1172 184 1192 184ZM608 164Q596 24 552 24Q490 4 480 4Q460 52 460 108Q583 164 608 164ZM656 164H660Q819 21 828 -8Q784 -61 752 -88H744Q628 21 628 32ZM168 152Q168 148 172 148Q152 64 120 64Q120 59 52 16L48 24V104Q48 115 168 152ZM220 140Q407 94 416 84Q420 77 428 12L420 8Q246 60 200 84Q210 128 220 140ZM1316 108Q1383 71 1400 52V4L1396 -4Q1324 5 1324 20Q1312 68 1312 104Q1316 104 1316 108ZM960 92H1024Q1029 92 1104 12V8Q1104 2 1088 -8H888Q880 -8 880 0Q896 88 928 88Q932 92 960 92ZM176 40Q373 -20 404 -40Q345 -92 256 -152H52Q44 -152 44 -144V-52Q101 2 176 40ZM600 -8 712 -124V-128Q698 -152 676 -152H344V-148Q463 -36 572 -16Q592 -8 600 -8ZM1152 -8Q1288 -21 1288 -44L1300 -148L1292 -152H1084L1076 -148Q1112 -63 1152 -8ZM1340 -40Q1400 -43 1400 -56V-144Q1400 -152 1392 -152H1356Q1341 -152 1332 -44ZM868 -52H1004Q1051 -52 1068 -60Q1028 -152 1020 -152H764V-148Q842 -52 868 -52Z" fill="param(fill) #111111" fill-opacity="param(fill-opacity) 1" stroke="param(outline) none" stroke-opacity="param(outline-opacity) 1" stroke-width="param(outline-width) 0" stroke-linejoin="round"/>
  </g>
</svg>
