<svg xmlns="http://www.w3.org/2000/svg" width="100%" height="100%" viewBox="0 0 1624.00 1624.00">
  <g transform="translate(112.00,1312.00) scale(1,-1)">
    <path d="M1160 1200H1192Q1305 1200 1376 1096L1352 996Q1370 1012 1372 1012H1376Q1384 1011 1384 1004V988Q1348 887 1276 580Q1255 536 1188 536H1164Q1018 536 932 628Q980 819 996 904H1004Q976 770 944 636Q944 575 1160 544H1184Q1240 544 1240 580Q1280 836 1308 836Q1325 899 1372 988L1364 992Q1330 913 1320 908H1316L1340 1044H1324Q1312 1044 1272 856Q1256 803 1204 560H1196Q1196 604 1280 1008V1036Q1260 1036 1232 900H1224L1252 1040H1248L1152 1060Q1140 1032 1136 1004H1128L1132 1024V1060Q1132 1071 1076 1092V1088Q992 719 992 716H984Q1012 887 1056 1112V1120H1052L1008 912H1000Q1047 1188 1084 1188Q1108 1200 1160 1200ZM420 1192Q521 1192 560 1076V1052Q560 997 532 980Q532 939 436 916H408Q288 947 288 1036Q284 1044 284 1048Q294 1124 312 1124Q312 1120 316 1120V1124Q312 1132 312 1136Q361 1188 420 1192ZM1160 1184V1180Q1178 1180 1184 1176L1188 1184ZM1092 1148Q1092 1088 1276 1072Q1312 1072 1328 1096Q1328 1148 1216 1168Q1172 1172 1140 1172Q1106 1172 1092 1148ZM324 1120V1112H328V1120ZM336 1112V1104H340V1112ZM348 1104V1096H352V1104ZM360 1096V1088H364V1096ZM372 1088V1080H376V1088ZM392 1076V1068H396V1076ZM404 1068V1060H408V1068ZM416 1060V1052H420V1060ZM428 1052V1044H432V1052ZM440 1044V1036H444V1044ZM452 1036V1028H456V1036ZM464 1028V1020H468V1028ZM496 1008V1000H500V1008ZM508 1000V992H512V1000ZM520 992V984H524V992ZM312 900H320Q396 900 428 804Q445 762 540 668V664Q508 672 488 672Q469 672 408 644Q367 644 360 704Q360 723 384 808Q345 856 316 856H292Q228 840 228 728V680Q228 568 364 488Q364 458 492 380Q636 257 636 88Q636 -15 576 -180Q539 -200 520 -200H512Q457 -200 436 -108Q472 14 472 84Q472 198 376 264Q376 66 216 -120Q168 -164 124 -196H92Q16 -196 16 -120V-108Q16 -59 40 -44Q200 57 200 280V320Q120 369 120 488Q120 646 212 872Q280 900 312 900ZM316 832Q360 823 360 792Q348 741 348 716V688Q348 607 480 580Q520 556 520 520Q508 480 476 480H472Q244 531 244 700Q244 832 308 832ZM456 648Q680 635 680 628L668 420L660 416Q428 428 428 444L424 464L464 460H480Q532 460 544 516V528Q544 593 440 616Q436 616 436 620Q446 646 456 648ZM732 544Q758 516 760 516L788 536H792Q809 526 816 508Q849 532 856 532Q863 514 880 504L908 524H912Q929 514 936 496Q969 520 976 520Q983 502 1000 492L1028 512H1032Q1039 512 1056 484L1092 508Q1092 502 1120 480L1148 500Q1158 500 1160 468Q1186 476 1196 476V472Q1184 457 1184 448Q1192 435 1192 424H1188Q1172 436 1156 436Q1147 412 1140 412Q1114 440 1112 440Q1112 435 1084 416H1076Q1076 428 1052 444Q1031 424 1016 424Q999 452 992 452Q992 447 964 428Q940 444 940 456H932Q911 436 896 436Q879 464 872 464Q872 459 844 440Q820 456 820 468H812Q791 448 776 448Q769 466 752 476Q752 471 724 452Q717 453 696 488Q697 496 704 496L1140 452V460Q729 496 696 508V512ZM1068 352Q1187 352 1244 312V276L1240 252V248H1244Q1244 260 1260 268H1268Q1274 268 1280 256Q1244 167 1244 104V96Q1244 -73 1288 -124Q1144 -135 1144 -148Q1144 -160 1136 -160L1052 -128H1048Q920 -164 912 -164L908 -156Q908 -153 912 -132L904 -116L896 -120H840L832 -116Q876 -78 876 132H884V100Q884 -64 848 -112H852Q893 -96 900 -96Q920 -119 920 -136V-156Q978 -156 992 -48L1000 -44H1004Q1004 -54 1012 -100H1016Q1029 -100 1044 -88Q1114 -152 1136 -152Q1152 -56 1164 -56Q1185 -88 1188 -88Q1206 -88 1216 12Q1212 100 1212 128Q1212 157 1232 164Q1232 199 1268 252L1260 256Q1252 256 1236 208L1228 204H1224V208Q1224 215 1220 280H1216Q1188 280 1188 220L1180 -4H1172Q1164 50 1164 64V244Q1164 265 1152 268Q1139 268 1132 196H1124V220L1128 268H1008Q1008 258 1004 236H996Q996 272 956 272L920 276Q920 253 916 176Q920 106 920 92Q916 76 916 64H908Q896 167 896 268V288H888V152H880V296Q880 352 1068 352ZM924 304Q989 284 1056 284Q1196 288 1196 312Q1175 329 1072 336Q1046 332 1020 332V336Q934 320 928 312Z" fill="param(fill) #111111" fill-opacity="param(fill-opacity) 1" stroke="param(outline) none" stroke-opacity="param(outline-opacity) 1" stroke-width="param(outline-width) 0" stroke-linejoin="round"/>
  </g>
</svg>
