<svg xmlns="http://www.w3.org/2000/svg" width="100%" height="100%" viewBox="0 0 1624.00 1624.00">
  <g transform="translate(112.00,1312.00) scale(1,-1)">
    <path d="M976 816H1052Q1071 791 1104 532Q1104 504 1032 504H892Q858 504 784 508Q784 512 780 512Q776 586 776 620V656Q776 702 780 796Q780 816 976 816ZM808 772Q804 678 804 632Q804 540 824 540L864 536Q928 536 928 600Q944 660 980 660Q1040 660 1040 676Q1040 776 996 776H876Q855 776 808 772ZM500 656H588Q650 656 756 652L760 644V584Q760 492 796 492Q800 488 828 488H1112L1120 484Q1116 452 1100 432Q970 440 776 440H516Q398 440 364 360Q354 352 352 352Q284 366 284 380V436Q284 648 328 648Q381 656 500 656ZM88 564Q136 511 136 472V312Q167 300 188 300Q711 332 752 332Q784 332 784 292Q784 260 532 260Q180 241 180 228Q180 201 0 188V192Q56 262 56 348Q80 458 80 560ZM1344 452Q1396 452 1396 432Q1396 402 1400 264Q1392 238 1344 208H1340V212L1356 272Q1356 304 1308 316V448ZM1264 444H1280Q1286 444 1292 432V424Q1292 402 1172 392H1144Q1136 392 1136 400V416Q1136 435 1264 444ZM1008 424Q1118 424 1156 356Q1164 340 1168 308Q1149 188 1048 188Q1035 184 964 184H492Q432 184 408 220V224H412Q530 216 540 216H1036Q1132 225 1132 296V312Q1132 384 1040 392H512Q429 392 400 336Q387 328 376 328H372Q389 424 496 424ZM488 376H492Q524 376 540 348V340Q486 332 424 332V336Q449 376 488 376ZM1048 376Q1116 363 1116 308V292Q1116 252 1056 236H1036Q972 236 972 312Q972 362 1048 376ZM1268 340H1280Q1286 340 1292 328Q1292 300 1208 292Q1180 297 1180 304V320Q1180 340 1268 340Z" fill="param(fill) #111111" fill-opacity="param(fill-opacity) 1" stroke="param(outline) none" stroke-opacity="param(outline-opacity) 1" stroke-width="param(outline-width) 0" stroke-linejoin="round"/>
  </g>
</svg>
