<svg xmlns="http://www.w3.org/2000/svg" width="100%" height="100%" viewBox="0 0 1624.00 1624.00">
  <g transform="translate(112.00,1312.00) scale(1,-1)">
    <path d="M384 998Q461 926 464 914V906Q292 717 292 662Q284 632 284 606V562Q284 532 296 450H292Q213 465 16 678Q0 702 0 710Q117 778 288 922Q360 998 384 998ZM1028 998Q1316 747 1396 714L1400 706Q1346 606 1172 482Q1120 450 1104 450V454Q1116 525 1120 582Q1120 712 1032 794Q936 901 936 910Q999 998 1028 998ZM452 866Q459 866 696 626H700Q944 863 944 866H948Q988 836 1012 794V786L776 554Q1036 276 1224 126Q1248 110 1248 90Q1248 51 1164 2H1152L904 270Q901 270 700 474Q384 166 272 22Q251 2 236 2H228Q152 59 152 90Q152 113 264 202Q347 267 624 550L388 790Q388 808 452 866Z" fill="param(fill) #111111" fill-opacity="param(fill-opacity) 1" stroke="param(outline) none" stroke-opacity="param(outline-opacity) 1" stroke-width="param(outline-width) 0" stroke-linejoin="round"/>
  </g>
</svg>
