<svg xmlns="http://www.w3.org/2000/svg" width="100%" height="100%" viewBox="0 0 1624.00 1624.00">
  <g transform="translate(112.00,1312.00) scale(1,-1)">
    <path d="M698 1200H762Q1036 1200 1234 1104L1238 1096V1076Q1238 1038 1222 916Q1277 980 1294 980Q1331 964 1338 948V944Q1338 932 1274 776Q1230 647 1230 512V488Q1257 50 1298 -4Q1358 -81 1358 -100Q1310 -112 1054 -116Q934 -130 934 -188L926 -192H922Q874 -192 734 -116Q689 -104 666 -104Q619 -104 350 -192Q320 -200 294 -200H274Q266 -200 266 -192V-172Q274 -133 274 -128V-124Q274 -72 206 -72L82 -92H74Q45 -92 42 -80V-72Q42 -59 106 16Q162 141 162 384Q178 534 178 756V1044Q178 1116 242 1140Q441 1200 698 1200ZM486 1164V1160H562V1152Q302 1131 302 1080Q407 1020 662 1020H698Q1005 1020 1086 1072L1098 1092Q1050 1148 894 1148Q857 1160 778 1160H730Q641 1156 586 1156Q586 1165 582 1172ZM590 1168V1164H602V1168ZM202 1044Q186 151 146 56Q142 41 66 -76H70Q129 -76 178 -32L230 -24Q290 -66 290 -140Q286 -181 286 -188Q366 -188 438 -116Q469 -82 498 100Q518 132 522 132Q543 132 546 8Q561 -33 578 -40H586Q603 -40 658 0Q682 0 790 -116Q853 -166 922 -176Q950 -69 982 76Q990 88 998 88Q1025 88 1042 12L1066 -4H1070Q1139 -4 1158 300Q1146 533 1146 552Q1146 661 1170 672H1198Q1220 803 1262 864Q1306 907 1306 932L1278 948Q1254 929 1206 808L1190 796Q1178 796 1178 836Q1178 854 1174 1016Q1090 1003 1090 1000Q1072 1000 1046 228H1038Q1006 304 1006 536V544Q1006 759 1014 852Q1007 973 974 984Q947 984 922 892Q910 821 906 740H898Q890 806 890 824Q890 878 902 976H550L534 880H526Q514 980 486 980L294 1004Q282 808 282 776Q286 506 286 468Q286 458 270 396H262Q226 781 226 1024Q210 1044 206 1044Z" fill="param(fill) #111111" fill-opacity="param(fill-opacity) 1" stroke="param(outline) none" stroke-opacity="param(outline-opacity) 1" stroke-width="param(outline-width) 0" stroke-linejoin="round"/>
  </g>
</svg>
