<svg xmlns="http://www.w3.org/2000/svg" width="100%" height="100%" viewBox="0 0 1624.00 1624.00">
  <g transform="translate(112.00,1312.00) scale(1,-1)">
    <path d="M540 732H548Q554 732 560 720V480H916V680Q916 732 928 732H932Q936 732 948 716L944 668V480H1296V572Q1296 612 1300 672Q1296 687 1296 716Q1302 732 1308 732H1312Q1324 730 1324 700V476H1332Q1341 476 1348 480Q1380 476 1380 468V460Q1380 372 1364 372H1352Q1338 372 1280 428L1244 436Q1233 436 1164 404H1156Q1094 432 1064 432H1060Q1023 432 976 372H964Q920 372 920 416Q915 440 884 440Q822 440 712 444Q587 440 496 440Q468 446 468 456V460Q468 465 488 480H532V724Q533 732 540 732ZM488 708H512Q518 708 524 696V664Q524 656 516 656Q460 656 460 680V684Q460 708 488 708ZM576 708H900Q908 707 908 700V664Q908 656 900 656H576Q568 656 568 664V700Q569 708 576 708ZM968 708H1280Q1288 707 1288 700V664Q1288 656 1280 656H968Q960 656 960 664V700Q961 708 968 708ZM1340 708H1372Q1400 708 1400 680Q1400 656 1372 656H1340Q1332 656 1332 664V700Q1333 708 1340 708ZM392 664H400Q408 664 416 632Q412 580 412 548V464Q412 459 460 432L464 412Q446 404 412 404Q402 404 384 416Q380 555 380 616V652Q380 658 392 664ZM500 652Q524 648 524 640V608Q524 600 516 600H512Q466 600 460 620V632Q469 652 500 652ZM576 652H900Q908 651 908 644V608Q908 600 900 600H576Q568 600 568 608V644Q569 652 576 652ZM968 652H1280Q1288 651 1288 644V608Q1288 600 1280 600H1192V596H1284L1288 588V552Q1288 544 1280 544H1012Q960 544 960 556V584Q961 592 968 592H1084V596Q1044 596 964 600L960 608V644Q961 652 968 652ZM1340 652H1368Q1390 652 1400 632V620Q1391 600 1360 600H1344Q1334 600 1332 648ZM968 644V608H996L1024 612Q1016 624 1016 640ZM1040 640Q1044 608 1084 608H1148V640ZM228 632H360Q368 631 368 624V416Q368 404 284 404H260Q205 404 124 432H112Q108 432 52 408H8Q0 408 0 416V496Q0 507 200 520V524Q216 632 228 632ZM240 604V600Q232 544 232 524H328V600L288 604ZM496 596H516Q524 595 524 588V552L520 544Q460 544 460 576V580Q465 596 496 596ZM576 596H900Q908 595 908 588V552Q908 544 900 544H576Q568 544 568 552V588Q569 596 576 596ZM1344 596H1360Q1400 596 1400 564Q1394 544 1348 544H1340Q1332 544 1332 552V584Q1332 590 1344 596ZM492 540H516Q524 539 524 532V496Q524 488 516 488H488Q467 488 460 504V520Q470 540 492 540ZM576 540H900Q908 539 908 532V496Q908 488 900 488H576Q568 488 568 496V532Q569 540 576 540ZM1284 540 1288 532V500Q1288 488 1244 488H984Q963 488 960 500V528Q961 536 968 536Q1196 540 1284 540ZM1340 540H1368Q1390 540 1400 520V504Q1400 498 1384 488H1340Q1332 488 1332 496V532Q1333 540 1340 540ZM116 424Q204 416 204 352V348Q192 268 132 268H112Q59 268 44 344Q56 424 116 424ZM580 424H600Q648 424 664 348V332Q664 282 592 268H572Q524 268 504 344Q522 424 580 424ZM768 424Q824 424 840 344Q828 268 764 268H752Q692 268 680 348Q680 424 768 424ZM1072 424Q1148 413 1148 352V336Q1148 280 1076 268H1064Q992 279 992 340V352Q992 410 1072 424ZM1244 424Q1324 409 1324 356V344Q1311 268 1252 268H1232Q1178 268 1164 348Q1164 408 1244 424ZM8 400H48V396Q39 324 32 324H8Q0 324 0 332V392Q1 400 8 400ZM204 400H508L496 340Q500 332 500 328L492 324H216Q209 324 200 392Q196 392 196 396ZM844 400H872Q880 399 880 392V332Q880 324 872 324H860Q853 325 836 396ZM84 344Q84 314 124 308Q160 308 160 340V348Q160 380 120 384Q84 372 84 344ZM720 344Q728 308 760 308Q796 308 796 344Q789 384 764 384Q733 384 720 344ZM1032 344Q1032 315 1072 308Q1108 313 1108 344Q1108 374 1076 384Q1032 377 1032 344ZM1208 352V344Q1213 308 1244 308Q1272 308 1284 344Q1284 379 1236 384Q1208 376 1208 352ZM548 348V344Q553 308 584 308Q624 308 624 352Q616 380 592 380H580Q548 380 548 348Z" fill="param(fill) #111111" fill-opacity="param(fill-opacity) 1" stroke="param(outline) none" stroke-opacity="param(outline-opacity) 1" stroke-width="param(outline-width) 0" stroke-linejoin="round"/>
  </g>
</svg>
