<svg xmlns="http://www.w3.org/2000/svg" width="100%" height="100%" viewBox="0 0 1624.00 1624.00">
  <g transform="translate(112.00,1312.00) scale(1,-1)">
    <path d="M628 746H640Q646 746 652 730L624 614Q632 586 632 566V526Q632 504 656 490H660Q660 502 676 510L692 494H700L716 510L740 490Q740 495 760 510H764Q764 498 780 490Q780 495 800 510L824 490Q836 503 836 510H848Q848 498 864 490Q864 495 884 510Q902 490 908 490Q919 510 924 510L948 490Q948 495 968 510Q974 510 984 490Q990 490 1008 510L1032 490Q1044 503 1044 510H1056Q1056 498 1072 490Q1072 495 1092 510L1116 490Q1128 503 1128 510H1140Q1140 498 1156 490Q1156 495 1176 510L1192 494H1200L1216 510L1240 490Q1252 503 1252 510H1264Q1264 503 1276 490Q1280 490 1304 510H1308L1316 486H1320Q1328 486 1360 494V478Q1360 474 1356 474Q1356 452 1396 450Q1396 446 1376 422V418L1400 390Q1368 376 1368 370Q1376 345 1376 338H1364Q1355 338 1348 342Q1333 342 1328 306H1324Q1302 326 1300 326H1296L1276 306L1252 326Q1240 313 1240 306H1228Q1228 313 1216 326L1192 306L1168 326Q1156 313 1156 306H1152Q1147 306 1132 326L1108 306L1088 326Q1085 326 1068 306L1044 326Q1032 313 1032 306H1020Q1020 318 1004 326Q1001 326 984 306L960 326Q948 313 948 306H936Q936 318 920 326H916Q916 323 908 306H900Q882 326 876 326Q866 306 860 306Q855 306 840 326Q824 322 824 306H816Q811 306 800 326Q794 326 776 306Q754 326 752 326Q740 313 740 306H728Q728 313 716 326Q710 326 692 306L668 326Q658 306 652 306Q634 322 632 322Q632 254 592 254H432Q8 254 8 270Q0 285 0 302V362Q0 394 136 466Q148 469 228 554Q307 622 336 622Q356 626 388 626H580Q591 636 616 738ZM632 482V334H1232Q1338 334 1360 366Q1368 394 1368 414Q1368 482 1260 482ZM44 362V306L64 302H156L176 306V438H172Q167 438 136 402Q89 371 44 362ZM1260 442Q1292 435 1292 426V418Q1292 382 1256 382Q1235 382 1232 422Q1244 442 1260 442ZM680 430H1084Q1192 430 1192 414Q1192 394 1156 394H1148Q1144 394 1144 398L1136 394H808Q761 394 660 398L656 406V418Q660 430 680 430ZM448 358V334L468 330H480Q488 330 488 338V358Q488 364 476 370H460Q454 370 448 358ZM524 358V338Q525 330 532 330H556Q564 330 564 338V362Q564 370 556 370H548Q524 368 524 358Z" fill="param(fill) #111111" fill-opacity="param(fill-opacity) 1" stroke="param(outline) none" stroke-opacity="param(outline-opacity) 1" stroke-width="param(outline-width) 0" stroke-linejoin="round"/>
  </g>
</svg>
