<svg xmlns="http://www.w3.org/2000/svg" width="100%" height="100%" viewBox="0 0 1619.36 1619.36">
  <g transform="translate(109.68,1309.68) scale(1,-1)">
    <path d="M546 1112 550 1104Q550 906 458 772H454Q433 787 406 792V796Q445 965 490 1052Q533 1112 546 1112ZM394 940V928Q394 921 338 908Q274 872 254 828Q234 776 226 776H218Q218 862 350 932Q392 940 394 940ZM550 892Q618 822 618 740Q618 706 602 656H598Q592 656 586 668Q598 696 602 740Q602 808 542 876V884Q543 892 550 892ZM374 888H378V880L318 844L274 784L266 788Q318 888 374 888ZM526 840H530Q574 800 574 736Q570 726 566 696H562L554 700L558 740Q558 785 526 828ZM414 780Q458 773 458 736Q451 692 418 692H410Q370 700 370 732V748Q387 780 414 780ZM870 772H874Q941 724 978 584Q978 577 986 552Q954 544 954 536H958L978 544Q1006 536 1006 512Q1006 480 970 480Q946 488 946 512L950 532Q870 637 870 764ZM358 756Q363 710 370 704Q277 648 118 648H70Q26 654 26 664Q58 707 202 736Q274 748 358 756ZM982 720H986Q1108 720 1166 576V572H1158Q1151 572 1130 620Q1065 704 982 704L974 716ZM466 716Q582 633 646 516Q674 465 674 440V436H670Q532 502 438 664H434V660Q442 592 442 584H438V556H442L478 560L482 552Q482 544 442 536V532Q450 281 462 116Q498 116 702 56H706Q844 96 910 96H938L950 316Q944 320 926 320V324Q926 336 954 336V436H950Q899 340 806 292L802 300Q812 380 938 500Q953 479 990 472Q994 472 994 468V400L998 380Q1036 380 1086 428H1090Q1098 427 1098 420Q1042 367 998 364V336H1002Q1062 336 1134 420H1146V412Q1076 320 1002 320Q1002 316 998 316Q998 314 1002 300Q1002 263 1010 88Q1086 81 1206 16H1210Q1281 40 1394 140Q1394 136 1398 136Q1319 -15 1126 -92Q1069 -112 1014 -112H966Q864 -112 526 12Q423 36 346 36Q180 36 6 -88H2V-84Q64 35 234 92L366 128L370 148Q382 388 382 540Q317 540 254 620V624H266Q336 556 390 556V584Q302 612 302 632L310 636H314Q363 600 386 600H390L394 648V676Q395 684 402 684L410 680Q442 680 466 716ZM994 672H998Q1066 672 1114 584V580H1106Q1070 640 1002 660Q994 660 994 668ZM822 656H834V652Q834 644 798 580Q790 548 790 540V508Q790 478 810 428Q800 420 798 420H794Q770 484 770 516Q770 585 822 656ZM850 608H854V604Q830 540 830 516Q838 476 838 464L830 460H826Q818 496 818 512V524Q818 579 850 608ZM1018 532H1034Q1156 532 1250 480V468Q1197 456 1166 456Q1090 456 1006 488Q1010 532 1018 532ZM826 16Q826 -2 1006 -24H1054Q1112 -24 1162 -8V0Q1035 40 958 40Q912 40 826 16Z" fill="param(fill) #111111" fill-opacity="param(fill-opacity) 1" stroke="param(outline) none" stroke-opacity="param(outline-opacity) 1" stroke-width="param(outline-width) 0" stroke-linejoin="round"/>
  </g>
</svg>
