<svg xmlns="http://www.w3.org/2000/svg" width="100%" height="100%" viewBox="0 0 1624.00 1624.00">
  <g transform="translate(112.00,1312.00) scale(1,-1)">
    <path d="M696 1200H752Q922 1200 1068 1020Q1080 980 1112 980Q1230 980 1348 836Q1400 743 1400 672V632Q1400 462 1208 352Q1144 324 1060 324H296Q68 324 4 556Q0 571 0 592V628Q0 778 164 868Q214 896 292 896H316Q321 896 352 980Q380 1039 476 1124Q601 1200 696 1200ZM264 240Q297 240 308 196V192Q308 168 144 -24L116 -28Q76 -11 76 20Q76 46 184 168Q231 240 264 240ZM512 240H528Q568 232 568 200V192Q568 168 304 -148Q295 -174 256 -200H240Q200 -192 200 -160V-152Q200 -126 492 224Q492 230 512 240ZM788 240Q815 240 832 208V184Q713 23 656 -24H644Q600 -24 600 28Q698 172 776 240ZM1048 240H1052Q1080 240 1096 200Q1096 174 960 12Q812 -185 776 -200H752Q724 -184 724 -152Q724 -130 940 128Q1015 240 1048 240Z" fill="param(fill) #111111" fill-opacity="param(fill-opacity) 1" stroke="param(outline) none" stroke-opacity="param(outline-opacity) 1" stroke-width="param(outline-width) 0" stroke-linejoin="round"/>
  </g>
</svg>
