<svg xmlns="http://www.w3.org/2000/svg" width="100%" height="100%" viewBox="0 0 1624.00 1624.00">
  <g transform="translate(112.00,1312.00) scale(1,-1)">
    <path d="M32 1012H44Q79 1012 108 924Q168 844 260 844H268Q393 844 444 996Q461 1012 476 1012H496Q519 996 560 904Q621 844 700 844Q834 844 880 992Q893 1012 912 1012H924Q956 1012 984 928Q1041 844 1136 844H1140Q1272 844 1324 1000L1344 1012H1364Q1400 1012 1400 968V964Q1400 886 1284 796Q1211 752 1136 752Q1014 752 916 864Q831 752 696 752Q575 752 480 864Q384 752 260 752Q86 752 4 936L0 960V972Q0 1012 32 1012ZM36 624Q79 624 112 528Q170 452 268 452Q393 452 444 604Q462 620 464 620H496Q515 616 552 524Q612 452 704 452Q831 452 888 612Q901 620 912 620H924Q959 620 980 540Q1045 452 1136 452Q1272 452 1320 604Q1338 620 1340 620H1364Q1395 620 1400 580V572Q1400 517 1320 432Q1236 364 1160 364H1112Q1016 364 916 472Q824 360 700 360Q584 360 476 472Q388 360 260 360Q95 360 8 532Q0 558 0 568V584Q0 616 36 624ZM484 248Q515 248 552 148Q620 76 704 76Q829 76 884 232Q906 248 924 248Q950 248 996 144Q1055 76 1140 76Q1263 76 1316 216Q1336 248 1356 248Q1400 240 1400 208V192Q1400 105 1248 8Q1194 -12 1156 -12H1124Q1018 -12 916 96H912Q884 36 780 0Q748 -12 712 -12H684Q571 -12 480 96Q380 -12 276 -12H244Q92 -12 8 160Q0 175 0 192V212Q0 244 32 244H40Q85 244 104 164Q168 76 260 76Q389 76 448 232Q466 248 484 248Z" fill="param(fill) #111111" fill-opacity="param(fill-opacity) 1" stroke="param(outline) none" stroke-opacity="param(outline-opacity) 1" stroke-width="param(outline-width) 0" stroke-linejoin="round"/>
  </g>
</svg>
