<svg xmlns="http://www.w3.org/2000/svg" width="100%" height="100%" viewBox="0 0 1624.00 1624.00">
  <g transform="translate(112.00,1312.00) scale(1,-1)">
    <path d="M280 722Q365 621 412 558V550Q274 370 268 370H8Q0 370 0 378ZM704 722Q781 625 820 570V566Q718 432 696 414Q690 416 580 562V570Q695 718 704 722ZM1128 722 1400 374 1392 370H1300Q1241 370 1140 366Q996 549 996 558ZM496 634H508Q508 624 704 382Q901 634 904 634Q910 632 1180 286V278H224V282Q484 614 496 634Z" fill="param(fill) #111111" fill-opacity="param(fill-opacity) 1" stroke="param(outline) none" stroke-opacity="param(outline-opacity) 1" stroke-width="param(outline-width) 0" stroke-linejoin="round"/>
  </g>
</svg>
