<svg xmlns="http://www.w3.org/2000/svg" width="100%" height="100%" viewBox="0 0 1624.00 1624.00">
  <g transform="translate(112.00,1312.00) scale(1,-1)">
    <path d="M8 1200H44Q412 1200 536 1128Q536 1109 460 952Q344 624 344 444Q344 439 348 404Q348 349 312 312Q272 269 272 248Q272 126 540 92Q579 88 648 88Q678 88 700 52V44Q700 -24 628 -24H576Q326 -24 208 116Q165 176 160 240Q112 201 112 144Q112 35 380 -52Q534 -88 700 -88Q1065 -88 1244 60Q1282 101 1288 144Q1288 221 1188 284V260Q1188 114 1016 64Q943 52 908 52H840Q756 52 756 112Q756 168 880 168Q1076 168 1076 256Q1076 318 992 344L944 356Q944 352 940 352Q948 339 948 328V316Q948 246 776 216H740Q700 216 592 248Q567 236 512 228Q344 256 344 336Q356 392 392 392H412Q474 344 516 344Q601 376 612 376Q626 376 688 340Q703 331 748 328Q807 328 880 376H912L928 364V368Q908 368 908 492Q908 741 992 1048Q1018 1127 1080 1156Q1192 1200 1380 1200H1392Q1400 1199 1400 1192V132Q1400 1 1216 -84Q1148 -141 992 -172Q843 -200 732 -200H640Q328 -200 104 -48Q0 41 0 156V1192Q1 1200 8 1200ZM868 1156H872Q911 1156 928 1108Q928 1093 852 888Q816 726 796 464Q796 388 736 388Q696 388 684 444Q684 838 824 1128Q846 1156 868 1156ZM660 1132H684Q736 1125 736 1088V1080Q736 1067 648 864Q597 700 568 456Q547 424 516 424H508Q460 436 460 480V484Q466 724 596 1040Q637 1123 660 1132Z" fill="param(fill) #111111" fill-opacity="param(fill-opacity) 1" stroke="param(outline) none" stroke-opacity="param(outline-opacity) 1" stroke-width="param(outline-width) 0" stroke-linejoin="round"/>
  </g>
</svg>
