<svg xmlns="http://www.w3.org/2000/svg" width="100%" height="100%" viewBox="0 0 1624.00 1624.00">
  <g transform="translate(112.00,1312.00) scale(1,-1)">
    <path d="M660 1198H688Q735 1198 844 1110Q931 1046 1032 1046Q1089 1046 1232 1090V1082Q1104 994 992 994Q862 994 732 1118Q688 1142 660 1146Q566 1146 452 1038V1042Q452 1088 568 1170Q619 1198 660 1198ZM512 942Q636 942 636 850Q631 826 624 826H288Q280 826 280 834V846Q280 942 396 942ZM1136 898H1144Q1172 898 1264 826Q1276 818 1312 814L1392 826V818Q1344 762 1276 762Q1225 762 1140 842H1128Q1096 842 1040 798H1036Q1067 898 1136 898ZM288 770H624Q632 769 632 762V638H720Q812 630 812 558V506H940V558Q940 588 952 590H1140Q1148 589 1148 582V506H1204Q1300 496 1300 426V358H144Q100 358 100 370V514Q100 638 184 638H280V762Q281 770 288 770ZM1016 730H1072Q1135 730 1148 650L1140 646H952Q944 646 944 654V658Q959 730 1016 730ZM8 302H1392Q1400 301 1400 294V-114Q1400 -198 1316 -198H1024Q1016 -198 1016 -190V-22H1020Q1028 -22 1068 -38V-34L992 150H984Q976 126 908 -34Q912 -34 912 -38Q946 -22 956 -22H960V-190Q960 -198 952 -198H736Q728 -198 728 -190V-22H732Q744 -22 776 -38Q776 -34 780 -34Q704 139 704 150H696Q635 11 620 -38H624Q656 -22 668 -22H672V-190Q672 -198 664 -198H448Q440 -198 440 -190V-22H444L492 -38L412 154H408Q340 -18 328 -34V-38Q340 -38 380 -18L384 -26V-190Q384 -198 376 -198H72Q0 -186 0 -130V294Q1 302 8 302Z" fill="param(fill) #111111" fill-opacity="param(fill-opacity) 1" stroke="param(outline) none" stroke-opacity="param(outline-opacity) 1" stroke-width="param(outline-width) 0" stroke-linejoin="round"/>
  </g>
</svg>
