<svg xmlns="http://www.w3.org/2000/svg" width="100%" height="100%" viewBox="0 0 1619.36 1619.36">
  <g transform="translate(109.68,1309.68) scale(1,-1)">
    <path d="M688 1198H692Q814 1089 864 974Q1052 663 1052 418Q1052 176 804 90Q749 74 704 74H680Q466 74 364 310Q348 379 348 422Q348 600 552 890Q688 1086 688 1166ZM320 326 328 306Q229 266 172 238Q60 160 60 90Q60 -68 436 -150Q553 -174 700 -174Q1083 -174 1280 -22Q1340 36 1340 90Q1340 210 1076 302V322H1080Q1250 279 1332 182Q1368 137 1368 102V74Q1368 -31 1148 -126Q952 -198 736 -198H664Q308 -198 92 -34Q32 30 32 74V102Q32 213 272 310Q279 310 320 326ZM364 214Q364 210 368 202Q272 149 272 90V86Q272 -44 640 -86H740Q954 -86 1100 22Q1128 58 1128 86V90Q1128 144 1040 198V210H1044Q1152 161 1152 90Q1152 -37 852 -94Q770 -106 700 -106Q369 -106 256 50Q248 86 248 90Q248 163 364 214Z" fill="param(fill) #111111" fill-opacity="param(fill-opacity) 1" stroke="param(outline) none" stroke-opacity="param(outline-opacity) 1" stroke-width="param(outline-width) 0" stroke-linejoin="round"/>
  </g>
</svg>
