<svg xmlns="http://www.w3.org/2000/svg" width="100%" height="100%" viewBox="0 0 1633.28 1633.28">
  <g transform="translate(116.64,1316.64) scale(1,-1)">
    <path d="M668 1204H712Q1030 1204 1220 896Q1288 756 1288 640V596Q1288 291 984 100Q955 80 940 80Q946 33 1112 -184Q1112 -192 1104 -192L884 -204Q825 -44 780 -44Q756 -21 592 -4Q478 56 364 56Q185 122 164 152V160Q174 180 196 180H200Q220 180 248 172Q204 203 204 228Q211 244 232 244L248 240Q112 410 112 580V644Q112 929 412 1132Q558 1204 668 1204ZM552 1168V1160Q576 1160 576 1132L568 1128Q540 1128 512 1152Q512 1131 456 1104Q448 1091 448 1084L456 1080Q456 1085 480 1100Q510 1093 516 1076Q524 1076 524 1064H532L544 1072H548Q556 1071 556 1064Q540 1046 540 1044V1040Q557 1040 568 1008Q568 987 536 964L520 940V920H516Q492 920 492 936Q503 965 528 984Q540 1016 540 1020Q516 1035 516 1060L488 1080H484Q484 1078 492 1068V1052Q492 1017 460 996Q460 972 452 964Q484 964 484 944Q479 928 464 920Q460 920 448 940Q440 936 436 936Q436 944 428 944L408 928H404V936Q398 936 384 908H400Q400 920 408 920H424V916L412 900V888Q435 888 456 856Q456 767 404 724V712L412 700Q412 679 400 676H396Q388 676 388 684V688L396 700L388 704H380Q368 677 368 672Q368 660 420 644Q436 620 436 608Q426 556 416 556L380 572L360 568Q360 572 356 572V568Q364 536 388 516L404 520Q413 520 464 480V476Q464 472 460 472Q468 452 484 452Q484 460 496 460Q505 460 520 420Q563 435 596 460Q612 456 628 456Q628 442 536 408H524Q516 408 516 416L508 412H480Q476 412 476 416L468 412Q426 446 364 460L360 468V472Q367 472 380 480Q397 472 428 468V476Q414 476 356 524Q350 552 312 588Q312 568 300 568Q275 604 252 612Q247 596 232 588Q236 580 236 576Q228 518 220 496Q243 436 252 436Q257 436 272 416V412Q272 404 264 404H256L248 428H244Q244 412 236 412Q194 458 164 516L140 544H136Q136 414 268 240Q268 225 364 188Q284 263 284 268Q294 288 316 288Q338 288 444 200Q540 170 540 164L532 160H504Q487 160 460 164H456V160L484 156V148Q445 140 392 136V132Q400 132 400 128L552 156Q603 148 624 136V144Q456 210 456 248V256Q473 272 488 272Q507 272 664 224Q880 218 932 92Q1139 191 1228 392Q1272 507 1272 596V624Q1272 891 1044 1072Q892 1188 708 1188Q628 1188 552 1168ZM508 948V944H516V948ZM472 820H476L480 800V784H472Q464 784 464 792V812Q465 820 472 820ZM516 764Q528 749 528 736Q524 736 524 732Q536 728 536 724Q549 732 556 732Q557 724 564 724L584 728Q584 707 620 696L628 684L624 656H608L596 664L580 652L576 660V664Q584 680 596 680V688H588L572 676Q568 684 568 688L560 684Q552 684 552 692Q552 700 572 700V708Q562 708 552 716Q544 716 544 692H540Q507 712 496 744V752Q496 761 516 764ZM592 700V692H600Q600 700 592 700ZM872 696H880L904 692Q911 696 920 696Q920 673 972 668V660Q957 660 948 652H944Q916 660 912 660Q904 656 900 656V636Q900 622 856 616Q856 608 836 608V616L840 624Q820 633 820 636Q780 625 768 616Q734 628 720 628V632Q741 656 760 656Q760 644 784 644Q784 688 844 688Q844 695 872 696ZM676 644V640L684 644Q694 632 700 632L696 612Q704 611 704 604V600H696Q683 604 668 640ZM540 624Q540 622 548 612L556 616H560Q566 616 572 600Q564 599 564 592Q564 587 596 568L592 560L600 556H604V580Q604 584 648 612H652V604Q652 595 648 588Q652 581 652 572Q648 564 648 560Q680 542 680 536Q680 528 672 528V532L664 528H660L648 536L644 528Q652 527 652 520V516Q652 508 644 508Q630 526 616 528Q616 539 608 552Q601 548 592 548V544Q592 525 604 504Q593 493 564 488Q564 476 532 476Q496 498 496 504V512Q510 512 532 604Q528 612 528 616ZM900 616H904Q924 595 960 584Q975 556 1016 556Q1016 549 1064 536Q1088 507 1088 468L1080 416Q1084 409 1084 400Q1034 348 1012 348Q1012 355 988 364V356H980V364H976Q976 358 968 348L944 360Q892 337 872 296Q872 286 844 268Q834 244 812 244H808Q795 261 724 300L712 320Q712 342 752 388V404L748 424Q756 428 760 428V444Q765 484 776 484H800Q800 493 796 500L800 508Q796 516 796 520Q802 520 808 532L804 540Q832 550 852 564Q860 564 864 528H872Q924 528 924 540Q900 601 900 608ZM736 532H740V528Q725 492 720 492H712Q712 516 736 532ZM1208 532H1212L1232 516Q1232 506 1224 476H1216V480L1220 488Q1212 488 1208 532ZM1216 476V468Q1201 404 1188 404H1184V408Q1203 472 1216 476ZM1076 364Q1084 363 1084 356V348Q1084 342 1072 336H1068Q1062 336 1056 348V356Q1066 356 1076 364ZM396 180V176H404V180ZM408 176V172H416V176ZM424 172V168H432V172ZM440 168V164H448V168ZM284 160V156H292V160ZM316 148V144L360 132Q360 140 320 148Z" fill="param(fill) #111111" fill-opacity="param(fill-opacity) 1" stroke="param(outline) none" stroke-opacity="param(outline-opacity) 1" stroke-width="param(outline-width) 0" stroke-linejoin="round"/>
  </g>
</svg>
