<svg xmlns="http://www.w3.org/2000/svg" width="100%" height="100%" viewBox="0 0 1624.00 1624.00">
  <g transform="translate(112.00,1312.00) scale(1,-1)">
    <path d="M680 976H720Q868 940 868 820V796Q868 679 724 640Q706 640 700 636Q575 636 532 780V820Q532 940 680 976ZM560 808Q585 668 700 668Q840 693 840 808Q819 944 704 944Q704 948 700 948Q560 922 560 808ZM708 904Q776 892 776 852Q776 844 752 840Q733 876 700 876Q644 876 644 804Q644 740 700 740H704Q731 740 756 780H760Q767 780 784 772Q759 708 700 708Q612 724 612 792V820Q612 895 704 904ZM68 704H84Q163 704 176 592V548Q176 501 120 272Q116 251 116 224V192Q132 40 188 40Q140 108 140 200Q140 360 228 416Q256 424 276 424Q378 424 420 292Q432 236 432 204Q432 65 324 28Q309 24 292 24H276Q268 24 268 32V36Q318 36 372 124Q396 165 396 224Q396 339 308 388Q293 396 276 396H256Q195 396 184 264V220Q184 102 228 32V28L192 24Q114 24 84 172Q80 187 80 208V236Q80 326 140 536L144 576Q144 680 72 680Q8 662 8 616H0V648Q0 692 68 704ZM1328 596Q1400 584 1400 532V508Q1386 452 1352 452V460Q1372 490 1372 516V520Q1372 553 1324 560Q1285 560 1280 520V512Q1280 494 1304 464V456Q1248 467 1248 536Q1248 589 1324 596ZM840 428Q888 428 888 336Q868 179 868 152Q868 77 936 52Q896 121 896 192Q896 367 988 416Q1016 424 1036 424H1048Q1151 424 1176 332Q1180 311 1180 292V276Q1180 259 1140 84V80Q1146 48 1160 48L1204 60V56Q1182 24 1144 24H1140Q1100 45 1100 96Q1100 114 1144 288V300Q1144 375 1056 400H1020Q940 381 940 256V216Q940 117 984 28H980L956 24H948Q828 24 828 140Q856 328 856 352Q847 388 836 388Q812 388 812 356H808Q792 363 792 384Q792 418 840 428ZM632 424Q742 424 760 320Q760 202 616 188H608Q580 188 504 204V200Q504 95 580 64Q596 56 624 56H636Q700 56 764 116H768Q710 24 628 24H616Q514 24 472 156Q468 183 468 200V204Q468 351 580 412Q600 424 632 424ZM1276 416Q1328 416 1328 332L1308 156V132Q1308 82 1348 52H1352Q1332 91 1332 136V188Q1332 223 1356 352Q1352 389 1336 408V412Q1382 412 1392 344Q1372 201 1372 176V164Q1372 64 1400 28L1392 24H1380Q1268 24 1268 136Q1268 158 1296 328Q1290 376 1276 376H1264Q1252 372 1252 352V340H1248Q1238 340 1232 372Q1239 416 1276 416ZM504 216H596Q724 228 724 300Q724 384 648 384Q545 384 508 236Q508 223 504 216Z" fill="param(fill) #111111" fill-opacity="param(fill-opacity) 1" stroke="param(outline) none" stroke-opacity="param(outline-opacity) 1" stroke-width="param(outline-width) 0" stroke-linejoin="round"/>
  </g>
</svg>
