<svg xmlns="http://www.w3.org/2000/svg" width="100%" height="100%" viewBox="0 0 1624.00 1624.00">
  <g transform="translate(112.00,1312.00) scale(1,-1)">
    <path d="M670 1200H694Q702 1199 702 1192V1080Q838 1073 942 1016V1012Q1004 1052 1046 1052H1062Q1100 1052 1126 1016Q1126 1013 1050 940Q1174 773 1174 712Q1310 697 1310 608V588Q1270 584 1250 584H1190V576Q1190 479 1126 340Q1166 290 1166 240Q1166 203 1134 164H1126L1054 240Q1038 233 970 176Q892 132 826 112Q811 -24 702 -24L698 -16V96Q597 96 446 164Q404 123 358 120Q306 120 274 164L350 244Q263 337 226 464Q98 480 98 548Q91 548 90 568V588Q144 592 170 592H210Q210 699 278 844Q234 879 234 928Q234 981 270 1012H278L358 936Q471 1040 574 1064Q592 1164 618 1164Q618 1169 670 1200ZM542 536V532Q616 528 650 528H678Q686 527 686 520Q668 470 594 308H598Q791 525 834 588H706Q698 588 698 596L854 828V832H730Q686 832 662 752Q658 752 542 536ZM1262 -76Q1309 -76 1338 -120V-124H1334Q1313 -104 1298 -104H1286Q1263 -104 1138 -172Q1122 -180 1094 -180H1090Q1051 -180 990 -112Q977 -112 970 -108Q952 -108 818 -180Q790 -188 774 -188Q730 -188 674 -120Q671 -120 650 -116Q629 -116 490 -192Q467 -192 462 -196Q413 -196 350 -124H334Q310 -124 166 -200H122Q93 -200 62 -160V-152H70Q79 -176 106 -176Q135 -176 274 -100H314Q353 -100 406 -164L414 -168H430Q456 -168 578 -100Q594 -92 622 -92H638Q666 -92 730 -160H754Q773 -160 902 -92Q918 -84 946 -84Q990 -84 1046 -152Q1059 -152 1066 -156Q1085 -156 1230 -80Q1259 -76 1262 -76Z" fill="param(fill) #111111" fill-opacity="param(fill-opacity) 1" stroke="param(outline) none" stroke-opacity="param(outline-opacity) 1" stroke-width="param(outline-width) 0" stroke-linejoin="round"/>
  </g>
</svg>
