<svg xmlns="http://www.w3.org/2000/svg" width="100%" height="100%" viewBox="0 0 1624.00 1624.00">
  <g transform="translate(112.00,1312.00) scale(1,-1)">
    <path d="M684 1200H716Q1076 1200 1308 852Q1400 685 1400 516V484Q1400 124 1052 -108Q884 -200 716 -200H684Q363 -200 136 84Q0 272 0 484V516Q0 876 348 1108Q515 1200 684 1200ZM268 792Q304 660 432 660Q498 660 564 724H568Q624 660 704 660Q776 660 832 724H836Q898 660 976 660Q1094 660 1132 792Q1132 816 1104 816Q1094 816 1056 744Q1023 714 972 708Q890 708 852 812L832 816Q819 814 788 748Q748 714 720 712H680Q620 712 580 812L560 816Q547 814 516 748Q476 714 448 712H408Q348 712 308 812L288 816H284Q276 816 268 792ZM268 552Q268 469 392 420Q420 420 424 416Q511 416 556 484H564Q622 423 696 416Q769 416 836 484Q903 416 964 416Q1084 416 1128 532Q1132 546 1132 548Q1124 572 1116 572H1112Q1084 572 1072 524Q1031 468 968 468Q901 468 868 536Q857 567 844 572H828Q820 572 784 500Q742 468 696 468H692Q618 468 584 564Q571 572 560 572H556Q551 572 512 500Q472 468 428 468H420Q350 468 316 556Q316 562 300 572H284Q278 572 268 552ZM268 316Q268 264 344 208Q388 184 432 184Q498 184 564 252Q626 184 700 184Q774 184 836 252Q900 184 972 184Q1084 184 1132 308V320Q1126 340 1104 340H1100Q1088 330 1060 276Q1021 236 984 236H960Q895 236 848 340H828Q816 334 788 272Q744 236 712 236H688Q621 236 576 340H556Q501 236 428 236H416Q363 236 324 304Q314 340 288 340Q268 334 268 316Z" fill="param(fill) #111111" fill-opacity="param(fill-opacity) 1" stroke="param(outline) none" stroke-opacity="param(outline-opacity) 1" stroke-width="param(outline-width) 0" stroke-linejoin="round"/>
  </g>
</svg>
