<svg xmlns="http://www.w3.org/2000/svg" width="100%" height="100%" viewBox="0 0 1624.00 1624.00">
  <g transform="translate(112.00,1312.00) scale(1,-1)">
    <path d="M1096 1194H1108Q1114 1194 1124 1178V1070Q1124 1049 1112 1046H1096Q1090 1046 1084 1058V1170Q1087 1194 1096 1194ZM1240 1154H1252Q1268 1146 1268 1134Q1248 1090 1196 1022H1180Q1174 1022 1168 1038Q1220 1141 1240 1154ZM948 1150H960Q1030 1068 1032 1038V1030Q1032 1024 1020 1018Q986 1018 936 1134V1138Q936 1144 948 1150ZM1348 1054Q1354 1054 1364 1038V1030Q1330 994 1248 962H1240Q1234 962 1228 974V986Q1302 1044 1348 1054ZM856 1046Q965 1006 980 978V970Q980 964 968 958H964Q937 958 844 1014Q844 1018 840 1026Q848 1044 856 1046ZM1108 1022Q1206 1022 1224 898V886Q1224 858 1200 830Q1161 838 1092 838H1048L1024 834Q984 834 984 910Q984 986 1076 1018Q1092 1022 1108 1022ZM1284 922H1340Q1396 922 1396 906V894Q1390 878 1368 878H1276Q1255 878 1248 894V906Q1253 922 1284 922ZM332 802H1100Q1226 802 1244 754Q1264 703 1388 254Q1400 242 1400 202V190Q1384 154 1304 154H832V66Q832 -38 880 -38Q914 -52 1028 -82Q1076 -104 1076 -182V-186Q1076 -194 1068 -194H332Q324 -194 324 -186V-182Q324 -93 384 -78Q548 -41 548 -18Q564 -18 568 66V154H76Q19 154 0 186V190Q0 230 72 422Q173 721 204 774Q237 802 332 802ZM64 202Q74 190 172 190H1280Q1336 190 1336 206Q1204 734 1192 754Q1179 762 1168 762H268Q229 762 200 626Q100 332 64 202ZM788 734H808Q852 734 852 714Q856 693 856 666V646Q856 638 848 638H732Q724 638 724 646V722Q724 734 788 734ZM280 730H392Q380 638 368 638H252V642Q252 680 280 730ZM424 730H540L548 726Q537 638 528 638H412Q404 638 404 646Q414 730 424 730ZM580 730H692Q700 729 700 722Q696 663 696 642L688 638H572Q564 638 564 646Q564 730 580 730ZM884 730H1000Q1011 730 1016 642L1008 638H892Q880 638 880 682V718L876 726ZM1040 730H1152Q1165 730 1176 638H1052Q1040 638 1032 726ZM248 622H368V618Q358 538 344 538H228L220 542Q239 622 248 622ZM404 622H524Q532 621 532 614Q526 538 516 538H388L380 542Q395 622 404 622ZM568 622H688Q696 621 696 614Q692 566 692 542L684 538H552V542Q552 622 568 622ZM728 622H852Q860 621 860 614V546Q860 538 852 538H728Q720 538 720 546V614Q721 622 728 622ZM892 622H1012Q1023 622 1032 542L1024 538H896Q888 538 888 546V570L884 618ZM1056 622H1176Q1191 622 1200 538H1068Q1055 538 1048 618ZM220 522H340L348 518Q332 448 324 434Q284 438 264 438H192V442Q207 522 220 522ZM384 522H512L520 518Q511 445 504 434Q438 438 404 438H368Q360 438 360 446Q373 522 384 522ZM556 522H684Q692 521 692 514Q688 473 688 450V442L684 434Q637 438 616 438H540V442Q542 522 556 522ZM900 522H1028Q1040 522 1044 438Q1040 438 1040 434Q986 438 960 438H904Q892 438 892 518ZM1072 522H1200Q1212 522 1224 438Q1220 438 1220 434Q1173 438 1152 438H1084Q1070 438 1064 518ZM728 518H856Q864 517 864 510V486L868 438L860 434H724Q716 434 716 446Q716 518 728 518ZM192 418H316L324 414Q308 334 300 334H168L160 338Q172 399 192 418ZM360 418H496Q504 417 504 410Q499 334 488 334H340V338Q349 418 360 418ZM544 418H680L688 414L684 374V342Q684 334 676 334H536Q528 334 528 346Q531 418 544 418ZM724 418H860Q872 418 872 338L864 334H724Q716 334 716 342V410Q717 418 724 418ZM904 418H1040Q1053 418 1060 338L1052 334H912Q900 334 900 378V406L896 414ZM1088 418H1224Q1238 409 1248 338L1240 334H1100Q1087 334 1080 414ZM160 318H292Q300 317 300 310Q286 222 272 222H128V226Q147 318 160 318ZM340 318H484Q492 317 492 310Q482 222 472 222H324Q316 222 316 230Q330 318 340 318ZM532 318H676L684 314L680 306V230Q680 222 672 222H520L512 226Q522 318 532 318ZM720 318H864Q876 318 876 246V230Q876 222 868 222H720Q712 222 712 230V310Q713 318 720 318ZM912 318H1056Q1065 318 1076 226L1068 222H916Q908 222 908 230V254Q908 274 904 314ZM1104 318H1248Q1272 276 1272 222H1116Q1105 222 1096 314Z" fill="param(fill) #111111" fill-opacity="param(fill-opacity) 1" stroke="param(outline) none" stroke-opacity="param(outline-opacity) 1" stroke-width="param(outline-width) 0" stroke-linejoin="round"/>
  </g>
</svg>
