<svg xmlns="http://www.w3.org/2000/svg" width="100%" height="100%" viewBox="0 0 1619.36 1619.36">
  <g transform="translate(109.68,1309.68) scale(1,-1)">
    <path d="M344 1198H348Q484 1027 484 954Q484 863 544 842L552 838H556Q584 866 592 866V874Q544 884 544 950Q544 979 604 1010Q645 1010 680 1062Q703 1050 712 1050L732 1062H736Q761 1014 800 1014Q880 993 880 946V930Q863 874 824 874V870Q824 865 856 838Q928 857 928 910Q928 1011 976 1070Q1049 1181 1068 1194H1072V1190Q1072 1182 960 1022Q942 846 912 846Q912 839 864 806V794Q864 669 936 618Q964 645 1024 746L1040 762H1044V758Q1019 699 944 602Q984 538 1136 326Q1280 92 1280 -18V-38Q1280 -93 1208 -102Q1149 -102 996 -38L992 -46Q1044 -164 1044 -182V-186H1040Q1012 -163 968 -30Q929 5 852 58Q762 -70 716 -70H700Q645 -70 568 54L560 58Q439 -36 428 -62Q396 -176 368 -198L360 -194Q360 -182 412 -70L416 -50Q262 -118 208 -118H184Q134 -118 120 -50V-18Q120 136 464 598Q369 738 364 770Q393 744 456 638L480 618Q552 710 552 762V778Q552 807 480 870Q466 870 460 1002Q442 1044 372 1142Q344 1179 344 1194Z" fill="param(fill) #111111" fill-opacity="param(fill-opacity) 1" stroke="param(outline) none" stroke-opacity="param(outline-opacity) 1" stroke-width="param(outline-width) 0" stroke-linejoin="round"/>
  </g>
</svg>
