<svg xmlns="http://www.w3.org/2000/svg" width="100%" height="100%" viewBox="0 0 1624.00 1624.00">
  <g transform="translate(112.00,1312.00) scale(1,-1)">
    <path d="M820 738H824Q866 721 900 630Q900 603 964 586Q1065 506 1072 506L1396 490L1400 482Q1400 474 1392 474Q1068 462 1068 446Q1044 416 800 402Q738 282 668 262V274Q718 348 740 398H736Q723 398 620 402Q573 328 504 302L500 310Q508 336 508 346Q508 422 436 422Q395 414 348 414Q302 466 260 466Q156 390 92 374Q0 377 0 390Q5 400 84 426Q155 470 180 502Q172 502 172 514L176 522Q161 583 36 682Q37 690 44 690Q152 690 220 582Q264 538 264 526H272Q339 541 388 566Q405 538 412 538H420L508 578Q800 642 800 678Q816 738 820 738ZM824 722V714Q861 614 872 614Q881 614 888 610V614Q867 694 824 722ZM820 690 812 666Q836 621 836 610L856 614L824 690ZM76 670V666Q118 666 228 550V554Q145 670 80 670ZM792 650Q806 610 812 610H828L808 658H804ZM108 642Q115 627 228 526H236Q148 626 112 642ZM768 634 776 606H800Q788 635 788 642Q775 634 768 634ZM736 622Q744 609 744 598L768 602Q764 626 756 626ZM716 618V614Q724 601 724 594Q736 598 736 602Q730 618 724 618ZM692 610 696 590 716 594Q708 607 708 614Q701 610 692 610ZM668 606 672 586H680Q688 586 688 594Q684 602 684 606ZM644 594Q648 586 648 582H664Q664 602 656 602Q644 598 644 594ZM196 510V506Q416 414 736 414H748Q748 445 764 450H784V442Q762 442 748 378L784 426L788 418L700 298V294Q769 355 812 434V426Q808 418 808 414H812Q819 418 828 418H844Q865 418 912 422Q872 452 872 510Q876 545 876 554H884V514Q884 439 944 426Q1002 434 1060 454V458H1044Q1041 458 1012 454L1008 462Q1009 470 1016 470Q1170 478 1224 478L1228 486H1224Q1032 486 1032 518Q941 598 868 598Q814 598 376 518ZM620 594V590Q624 582 624 578H640V582Q636 590 636 594ZM596 586V582Q597 574 604 574H620Q612 590 608 590Q600 586 596 586ZM572 582V578Q573 570 580 570H592Q588 578 588 582ZM544 574Q544 568 556 562Q564 566 568 566L560 578Q553 574 544 574ZM168 570V566Q188 536 188 526H212Q212 531 168 570ZM528 570V566Q529 558 536 558H540V570ZM504 562V554H520V562ZM480 554V550H500L496 558Q489 554 480 554ZM380 550 376 542Q378 542 388 534H396Q396 540 380 550ZM356 538Q357 530 364 530Q372 530 372 538Q368 538 368 542Q360 538 356 538ZM240 538V530H244V538ZM976 534H988Q994 534 1004 518V514Q1004 486 980 486Q962 494 960 502V518Q960 524 976 534ZM972 510Q973 502 980 502H988V518H980Q972 517 972 510ZM172 474H176Q195 486 200 486Q200 494 192 494Q187 494 172 474ZM208 486Q194 470 88 418V414H92Q116 414 232 474V482Q211 486 208 486ZM40 390Q90 386 92 386Q166 418 248 470V474H244Q122 398 44 398ZM344 442V434H360Q360 442 352 442ZM376 434V430H384V434ZM504 410Q508 402 508 398H512Q518 398 524 410ZM516 386V382Q517 374 524 374L548 406H536Q531 406 516 386ZM556 406Q556 396 520 358V346H528Q543 356 580 402L560 406ZM588 402Q588 393 520 326H524Q561 343 604 402Z" fill="param(fill) #111111" fill-opacity="param(fill-opacity) 1" stroke="param(outline) none" stroke-opacity="param(outline-opacity) 1" stroke-width="param(outline-width) 0" stroke-linejoin="round"/>
  </g>
</svg>
