<svg xmlns="http://www.w3.org/2000/svg" width="100%" height="100%" viewBox="0 0 1605.44 1605.44">
  <g transform="translate(102.72,1302.72) scale(1,-1)">
    <path d="M580 1192H588Q576 1103 576 1012V964Q576 801 628 684H632Q632 691 644 704Q628 741 628 776Q628 791 640 880H648V876Q648 840 636 764Q636 755 648 716Q652 716 688 728H692Q720 728 752 716Q764 752 764 764Q752 847 752 880H760L772 776Q772 765 760 700Q766 684 772 684Q824 803 824 956V1036Q824 1101 812 1188H820Q848 1055 848 956V932Q848 780 788 660Q812 600 824 528H828L856 544Q857 536 864 536Q882 560 892 560V592Q916 680 916 696Q908 749 908 752Q912 869 912 900L908 948Q967 948 1008 780H1012V816Q1012 893 944 948H940V956H952Q1000 956 1060 872Q1076 834 1084 780Q1084 776 1080 768Q1084 724 1084 692V676Q1084 587 1024 520Q984 496 944 464Q893 416 828 416V392L824 364Q837 364 892 352L988 372Q1052 460 1052 472H1060V468Q1060 407 1004 344Q959 304 856 304L816 316L812 296V288Q874 276 888 276Q924 288 948 288H980Q1044 381 1044 388H1052Q1052 310 988 260Q935 224 856 224Q846 224 796 248V240Q841 184 896 184Q929 160 944 160Q944 164 1048 216Q1048 220 1052 220V216Q993 128 924 128Q871 128 804 160H800Q795 160 780 140Q792 123 792 108L776 80Q788 76 788 56Q788 43 776 28V24Q776 -4 812 -4Q856 -41 856 -72V-96Q848 -140 816 -140L796 -136Q772 -184 740 -184Q740 -192 732 -192H724Q721 -192 700 -168H696Q696 -180 676 -192H668Q657 -181 624 -168Q604 -147 604 -136L584 -140Q544 -134 544 -88V-80Q557 4 624 4V28L612 44V56Q612 69 624 84Q608 107 608 112Q620 139 620 144Q604 160 596 160Q520 128 504 128Q405 128 376 184Q348 204 348 220Q403 188 464 160Q503 186 560 196Q560 200 604 236V252Q570 224 532 224Q422 224 368 308Q352 357 348 392H356Q364 362 420 292V288H464Q473 288 516 276Q588 284 588 292Q588 310 580 328Q551 316 532 316Q417 316 368 396Q348 445 344 484H352Q369 444 416 384V380H420Q453 380 516 368L572 376V416Q507 416 452 468Q390 516 376 516Q316 593 316 680Q316 903 396 932Q429 956 456 956H464V948Q417 948 384 808Q388 803 388 780H392Q435 948 488 948H492L488 892Q492 772 492 752Q484 704 484 680Q508 603 508 592V568Q532 541 532 532L548 544Q552 544 572 528Q579 528 592 608Q612 648 612 660Q552 780 552 924V964Q552 1057 580 1192Z" fill="param(fill) #111111" fill-opacity="param(fill-opacity) 1" stroke="param(outline) none" stroke-opacity="param(outline-opacity) 1" stroke-width="param(outline-width) 0" stroke-linejoin="round"/>
  </g>
</svg>
