<svg xmlns="http://www.w3.org/2000/svg" width="100%" height="100%" viewBox="0 0 1624.00 1624.00">
  <g transform="translate(112.00,1312.00) scale(1,-1)">
    <path d="M916 1076H972V1068H968Q894 1068 724 992Q320 907 196 820Q68 744 68 648V636Q68 568 140 568Q161 564 216 564H284L304 560V552Q250 548 224 548H208Q176 548 124 552H120V548Q169 528 236 528Q365 536 376 536H388V532Q388 515 248 512H200Q124 512 56 576Q0 605 0 656V680Q0 870 404 928Q519 964 728 1012Q874 1076 916 1076ZM16 676V660Q16 622 52 596Q52 600 56 600L48 648Q48 780 280 884V888H276Q16 820 16 676ZM992 832H1000Q1128 832 1128 812V788Q1128 694 1080 568Q1077 554 1008 540Q1008 536 1004 536Q1004 540 1000 540Q1016 573 1016 628V652Q1016 752 968 824Q981 832 992 832ZM940 824H944Q1004 766 1004 644V624Q1004 519 928 492Q892 480 880 480H864Q853 480 832 620Q789 760 756 760L752 780Q879 824 940 824ZM1152 812Q1250 778 1308 700L1216 644Q1216 639 1104 532Q1086 540 1084 548Q1144 697 1144 808ZM608 772Q682 768 700 768L728 772Q786 740 816 628Q844 527 844 476Q810 464 780 464Q668 464 224 596V604H232V608L212 612H188V620L332 656Q332 631 376 608H392Q440 619 440 656V668L432 696Q460 708 472 708V716L456 720V728Q532 728 532 740Q524 740 524 748V752Q571 756 592 756H604L612 760L608 768ZM392 700Q423 700 428 660Q420 620 388 620Q348 628 348 660V664Q348 700 392 700ZM1324 684Q1400 548 1400 480V472L1396 464Q1295 504 1256 504Q1235 504 1144 484Q1131 489 1120 516Q1120 545 1252 652Q1294 684 1324 684ZM1060 536 1064 528Q1064 501 1000 476Q969 451 948 356Q929 338 908 332L904 340Q904 429 980 508Q1029 536 1060 536ZM1080 528Q1116 528 1132 460Q1114 388 1104 388Q1104 394 1092 400Q1059 400 1036 328Q1011 308 996 308V312Q1024 424 1060 424Q1108 456 1116 456V460L1088 464Q1044 452 984 348L956 344L948 348Q975 422 1040 476Q1048 476 1080 528ZM472 508Q600 476 764 448V444Q764 428 716 424Q688 424 608 432Q533 388 476 324Q457 294 436 280H432Q449 363 524 416Q534 416 556 440H552Q417 405 368 372Q355 359 316 336L312 344Q373 433 456 448Q495 464 536 476V480L500 484Q337 439 280 388Q267 380 260 380Q322 476 372 476Q442 508 472 508ZM1268 488Q1371 468 1396 436Q1387 288 1364 288Q1355 288 1280 336Q1249 348 1224 348H1180L1132 344L1120 360V364Q1134 472 1168 472Q1228 488 1268 488ZM1120 464V460H1128V464ZM1160 336H1220Q1282 336 1356 268Q1320 161 1228 84L1104 172Q1114 332 1140 332Q1147 336 1160 336ZM1096 156Q1173 107 1220 68V64Q1115 -76 1016 -76Q1012 -68 1012 -64Q1012 -58 1036 -12Q971 -52 924 -52Q911 -52 872 -40V-36Q872 16 924 16Q938 16 1000 44V52Q952 28 876 28Q816 33 816 48Q913 156 1096 156Z" fill="param(fill) #111111" fill-opacity="param(fill-opacity) 1" stroke="param(outline) none" stroke-opacity="param(outline-opacity) 1" stroke-width="param(outline-width) 0" stroke-linejoin="round"/>
  </g>
</svg>
