<svg xmlns="http://www.w3.org/2000/svg" width="100%" height="100%" viewBox="0 0 1624.00 1624.00">
  <g transform="translate(112.00,1312.00) scale(1,-1)">
    <path d="M692 938H712Q755 938 844 886Q861 886 876 878Q865 846 856 846Q819 846 760 838Q628 871 620 882Q620 887 616 922Q652 938 692 938ZM520 930Q604 930 604 902Q604 886 608 870Q534 830 392 830Q382 845 376 874Q450 930 520 930ZM356 870Q364 856 372 818Q306 757 248 730H244Q234 730 220 778Q285 870 356 870ZM900 870Q941 847 1000 802Q1015 794 1032 794Q1086 806 1096 806Q1096 801 1120 778V774Q1120 753 1108 750H1000Q884 833 884 838Q889 868 900 870ZM1280 858H1316Q1400 851 1400 802V770Q1400 762 1392 762Q1383 762 1376 766Q1312 746 1284 746V742L1304 738Q1360 750 1364 750H1384Q1392 749 1392 742Q1387 733 1312 678Q1276 639 1248 530Q1248 513 1208 466V462Q1232 380 1240 294Q1272 264 1272 250Q1255 210 1192 210Q1174 210 1104 214V218Q1192 281 1192 362V366Q1192 453 1100 478Q1072 482 1068 482Q948 482 832 306Q832 270 744 270Q476 234 336 234V238Q336 242 340 270Q340 322 236 398Q216 410 196 410H176Q133 410 80 350Q0 404 0 450V466Q0 474 16 474V502L12 522Q16 522 16 526L36 522H44Q57 522 64 526Q171 526 268 414Q370 358 476 358Q905 383 980 514Q1010 543 1088 650Q1156 650 1156 758Q1195 858 1280 858ZM624 854Q752 823 752 814Q752 798 776 642Q685 594 672 594Q544 614 544 634Q532 792 528 818Q549 831 624 854ZM868 830Q996 738 996 730Q972 647 920 618Q920 613 848 610Q792 631 792 690L776 818Q799 826 868 830ZM1292 806 1316 802Q1316 808 1324 818H1316Q1292 816 1292 806ZM1340 818V802H1356V806Q1356 812 1344 818ZM492 818H508Q519 818 532 622Q497 574 392 574Q392 569 364 566Q328 575 328 582V750Q383 814 412 814Q440 818 492 818ZM204 750Q218 750 224 706Q152 652 152 574V558Q152 541 220 530V486H212Q138 534 80 534H28V542Q33 552 112 578L140 666Q140 695 204 750ZM308 738V578Q292 554 240 554H212Q168 554 168 566Q168 677 308 738ZM1016 730H1092Q1100 730 1100 718Q1094 684 1064 654Q1020 658 988 658V662Q1003 730 1016 730ZM984 642Q1042 638 1048 638V634Q999 557 952 510H948L928 598Q974 642 984 642ZM792 622Q815 612 824 602Q800 414 784 414Q702 398 696 398Q688 398 684 574Q781 622 792 622ZM540 606Q660 581 660 566Q668 441 668 398Q637 390 512 378Q504 378 500 570ZM908 598Q912 589 936 490Q858 430 816 430Q838 594 848 594Q888 598 908 598ZM476 566Q482 566 488 378L480 374H472Q356 381 356 394Q386 546 396 554Q408 558 476 566ZM316 558Q368 549 368 542Q344 418 336 398Q273 418 236 470V526Q236 533 300 546Q300 552 316 558ZM1052 462H1072Q1172 451 1172 374V366Q1172 281 1068 218Q1068 210 1060 190Q1084 141 1084 138Q1084 90 976 90H964Q844 90 820 142Q820 147 812 186Q812 315 988 442Q1032 462 1052 462ZM188 394Q255 394 316 282V258Q316 219 256 198L252 190V174Q268 129 268 118V114Q268 66 160 66Q124 62 80 62Q4 100 4 174Q4 225 132 378Q170 394 188 394Z" fill="param(fill) #111111" fill-opacity="param(fill-opacity) 1" stroke="param(outline) none" stroke-opacity="param(outline-opacity) 1" stroke-width="param(outline-width) 0" stroke-linejoin="round"/>
  </g>
</svg>
