<svg xmlns="http://www.w3.org/2000/svg" width="100%" height="100%" viewBox="0 0 1624.00 1624.00">
  <g transform="translate(112.00,1312.00) scale(1,-1)">
    <path d="M716 970H752Q843 970 1016 846Q1024 846 1024 842L1032 846Q1084 846 1176 722Q1277 666 1400 506V498Q1331 400 1180 278Q1106 110 1056 110L1020 114Q874 30 780 30H744Q578 30 480 246Q453 299 408 338L388 334H376Q370 334 360 350V358Q364 382 364 394Q355 394 320 398Q67 314 48 314Q0 404 0 506V570Q0 625 12 638L320 606Q410 606 420 658Q532 970 716 970ZM712 950Q766 905 836 818H852Q757 954 728 954H724Q716 950 712 950ZM648 938Q696 910 788 818H820Q746 917 688 950Q653 938 648 938ZM764 950Q864 827 864 818H896Q822 946 784 946ZM628 930Q588 902 588 898Q633 898 732 810Q753 814 772 814Q669 928 628 930ZM836 930V926L916 814H948V818Q869 930 836 930ZM904 894Q965 811 972 810L1012 802Q964 872 904 894ZM572 890 552 866Q552 859 612 842Q679 798 684 798Q710 806 716 806Q637 885 572 890ZM536 846Q520 826 520 822Q583 822 644 782Q657 790 668 790Q607 846 536 846ZM1012 826V822Q1035 786 1064 786V790Q1041 826 1036 826ZM1064 814V810Q1083 772 1116 762V766Q1116 772 1068 814ZM508 810Q492 779 492 774H496Q499 774 520 778L616 766Q632 772 632 778Q566 810 528 810ZM268 502Q268 422 360 414Q381 410 384 410Q384 422 428 426Q468 424 468 414V410Q468 402 460 402L420 406Q384 400 384 378L500 398L504 390V386L380 366V354Q413 354 524 390Q524 388 532 378L492 354Q549 319 636 250Q710 206 840 206Q1060 206 1176 306Q1160 307 1088 386Q1039 323 988 290H984Q975 293 880 394Q890 410 1052 474V482Q1052 523 1084 570H1056Q975 570 860 478Q813 457 760 450Q693 450 480 506H456Q393 506 328 498V506Q436 526 468 526Q487 526 704 474Q729 470 760 470Q821 470 960 566Q1007 590 1048 590H1104L1144 622H1148Q1072 547 1072 478Q1072 430 1156 342Q1186 318 1200 318Q1311 410 1364 482H1356Q1343 482 1284 418Q1263 402 1248 402H1232Q1226 402 1220 414V418Q1245 450 1268 450L1244 422H1252Q1261 422 1336 494Q1372 505 1372 510Q1156 798 868 798H832Q649 798 544 682Q408 586 316 586Q268 548 268 502ZM480 762Q468 730 468 726H472Q494 730 508 730Q529 730 564 722Q596 749 596 754Q576 762 520 766ZM448 678 476 682H508Q546 710 552 710V714L504 718Q452 718 452 690Q448 690 448 678ZM432 638H436Q481 666 488 666V670H476Q432 670 432 638ZM24 618 20 598V586L272 566Q272 574 288 590ZM20 574V526Q159 522 220 522H232L252 518Q256 535 256 554Q248 558 20 574ZM1280 562H1292Q1297 562 1312 542V530Q1312 498 1276 498Q1258 505 1248 522V530Q1248 562 1280 562ZM1268 534V526Q1269 518 1276 518H1284Q1292 518 1292 526V542Q1284 542 1284 546Q1268 540 1268 534ZM20 514V502Q20 482 24 442Q208 474 252 478V502Q252 510 244 510H240Q165 510 20 514ZM28 426Q36 382 44 382Q53 382 268 438V442Q257 466 252 466Q28 436 28 426ZM908 394Q909 386 916 386Q934 386 1036 442V446H1032Q917 394 908 394ZM928 378V374L940 358Q995 382 1064 438V442ZM44 366Q56 344 56 334L296 410V414L272 426Q56 374 44 366ZM948 350Q948 345 968 330Q1070 414 1072 422V426Q987 367 948 350ZM976 322Q976 316 988 310Q1080 398 1080 402V410ZM436 338Q440 338 440 334Q447 338 476 342V346Q462 350 460 350Q436 346 436 338ZM452 326Q458 310 464 310H500L520 314V318Q508 318 496 334Q457 326 452 326ZM472 298Q488 262 500 262Q506 262 568 274V282Q538 302 532 302Q492 298 472 298ZM500 246Q512 218 524 218Q547 218 604 242V246Q604 251 580 266Q514 253 500 246ZM1064 130H1068Q1113 178 1152 262H1148Q1141 259 1064 130ZM1028 138 1040 130H1044Q1063 137 1116 242H1112Q1097 242 1040 154Q1034 154 1028 138ZM524 202Q540 178 540 170Q596 180 644 226Q636 226 616 238Q580 218 524 202ZM1024 162V154H1028Q1072 217 1072 222H1068Q1024 222 1024 162ZM652 218Q605 172 552 162V158Q565 135 580 126Q636 144 696 206Q686 206 652 218ZM1004 202Q988 150 972 110Q1008 130 1012 130Q1004 143 1004 154Q1004 171 1008 198V202ZM704 198Q641 133 588 118Q589 110 624 86Q680 105 756 190Q733 198 704 198ZM932 90Q959 90 992 198H988Q960 198 944 126Q932 120 932 90ZM928 190H920Q920 162 860 70V66Q914 66 928 126Q934 132 956 194ZM768 190Q685 91 640 82Q657 62 688 62Q754 106 808 186ZM780 50H788Q856 50 884 134Q889 134 908 190H904Q866 190 840 122ZM820 186Q799 139 700 54Q752 50 760 46Q847 140 860 186Z" fill="param(fill) #111111" fill-opacity="param(fill-opacity) 1" stroke="param(outline) none" stroke-opacity="param(outline-opacity) 1" stroke-width="param(outline-width) 0" stroke-linejoin="round"/>
  </g>
</svg>
