<svg xmlns="http://www.w3.org/2000/svg" width="100%" height="100%" viewBox="0 0 1624.00 1624.00">
  <g transform="translate(112.00,1312.00) scale(1,-1)">
    <path d="M868 940H876Q919 922 964 800Q972 782 984 708Q1123 708 1352 584Q1400 537 1400 516V504Q1400 441 1240 372Q1180 365 1180 352Q1180 320 1196 268Q1175 216 1140 216Q1128 216 1128 276Q1128 294 1136 348Q1081 336 1036 336Q1031 336 1016 252Q931 69 876 60Q860 67 860 88V128Q860 172 840 172H836Q840 193 840 196L828 256L832 264L828 284Q833 299 872 340V344Q841 344 720 384Q699 257 664 224H656Q600 291 540 344Q536 358 536 360Q541 389 592 440L532 476Q303 88 240 88L232 100V104L276 240Q276 306 292 372Q284 372 284 380V384Q288 408 288 420Q275 420 232 448L180 476Q174 487 60 528Q0 548 0 560V572Q0 606 288 644H324Q386 644 516 612Q533 612 620 640V644Q580 665 580 692V696Q593 719 652 748Q688 785 744 816Q759 841 868 940Z" fill="param(fill) #111111" fill-opacity="param(fill-opacity) 1" stroke="param(outline) none" stroke-opacity="param(outline-opacity) 1" stroke-width="param(outline-width) 0" stroke-linejoin="round"/>
  </g>
</svg>
