<svg xmlns="http://www.w3.org/2000/svg" width="100%" height="100%" viewBox="0 0 1624.00 1624.00">
  <g transform="translate(112.00,1312.00) scale(1,-1)">
    <path d="M652 712Q841 672 860 672Q1013 672 1344 548Q1392 535 1392 504Q1357 483 1344 464V460H1348Q1385 472 1392 472L1400 460Q1313 385 1216 364Q1182 368 1152 388H1148Q1179 360 1188 360V352Q995 308 904 308Q880 308 700 312Q618 288 596 288H560Q552 288 552 296V304Q565 332 628 332V336Q487 336 436 380Q363 429 192 452H188V448L220 440V436Q81 344 20 336Q0 341 0 348Q64 467 64 504Q48 594 12 684Q16 684 16 688Q55 688 212 568Q214 568 228 564V560L224 552Q244 552 652 652H656V656H640L612 652L608 660Q646 712 652 712ZM668 660V656H676V660ZM1136 400V392H1144Q1144 400 1136 400Z" fill="param(fill) #111111" fill-opacity="param(fill-opacity) 1" stroke="param(outline) none" stroke-opacity="param(outline-opacity) 1" stroke-width="param(outline-width) 0" stroke-linejoin="round"/>
  </g>
</svg>
