<svg xmlns="http://www.w3.org/2000/svg" width="100%" height="100%" viewBox="0 0 1624.00 1624.00">
  <g transform="translate(112.00,1312.00) scale(1,-1)">
    <path d="M350 1200H366Q438 1138 438 1064Q467 941 502 936Q502 931 594 880Q595 874 634 844Q634 860 706 868Q735 868 770 844Q795 877 914 944Q945 974 962 1084Q979 1155 1034 1200H1046Q1054 1199 1054 1192Q981 1109 970 1008Q952 939 894 904Q814 873 786 832V828Q830 783 830 720Q830 661 742 628H734L738 600V592Q738 580 726 560Q770 538 770 508H774Q840 508 910 600Q1005 807 1042 820Q1066 836 1086 836Q994 757 974 672Q941 581 870 516Q833 496 770 476Q770 461 738 428Q753 421 758 404L782 408Q797 408 902 372H910Q926 372 1062 432Q1109 448 1146 448H1186Q1218 448 1258 440V432H1194Q1086 432 934 348Q927 344 914 344H898L782 380Q761 380 746 340Q738 339 738 332Q761 300 946 240Q1018 195 1018 100Q1044 -20 1078 -76Q1081 -76 1126 -132V-136H1122Q1051 -98 1014 20Q978 212 930 212Q917 222 746 284V272Q746 235 726 200Q807 200 842 100Q846 95 846 72V56Q846 -69 702 -200H698Q554 -69 554 56Q554 160 642 196Q664 200 674 200Q654 234 654 280V284H650Q621 269 462 212Q425 212 382 -4Q343 -98 278 -136H274V-132Q355 -70 398 176Q398 232 602 292Q640 311 662 336Q656 336 630 380H622L502 344H490Q465 347 314 416Q260 432 206 432H142V440Q182 448 214 448H258Q315 448 490 368H494Q593 408 630 408Q638 404 642 404L662 432Q654 433 622 480Q557 480 478 572Q451 619 390 756Q372 785 314 836V840Q368 840 430 724Q515 532 562 532Q567 523 630 504Q630 535 674 560Q662 580 662 592V600L666 628Q570 650 570 724V732Q570 765 614 836Q581 872 482 920Q438 950 410 1100Q350 1181 350 1200Z" fill="param(fill) #111111" fill-opacity="param(fill-opacity) 1" stroke="param(outline) none" stroke-opacity="param(outline-opacity) 1" stroke-width="param(outline-width) 0" stroke-linejoin="round"/>
  </g>
</svg>
