<svg xmlns="http://www.w3.org/2000/svg" width="100%" height="100%" viewBox="0 0 1624.00 1624.00">
  <g transform="translate(112.00,1312.00) scale(1,-1)">
    <path d="M690 1200H710Q785 1200 818 1032V1020L814 1012Q748 1028 690 1028Q643 1028 582 1012Q582 1016 578 1016Q611 1200 690 1200ZM674 984 678 976V716Q468 584 446 584Q290 678 282 688Q367 869 530 948Q625 984 674 984ZM734 984Q889 984 1050 804Q1106 722 1118 684Q1052 642 946 584Q737 700 722 716V976Q722 984 734 984ZM1130 972Q1222 972 1330 792Q1370 709 1370 652V640Q1370 634 1354 624H1338Q1184 764 1126 764Q1103 817 1006 912Q1050 972 1130 972ZM258 968H286Q347 968 390 912V908Q311 826 270 760Q219 760 58 620H42Q36 620 30 632V652Q30 803 206 952Q243 968 258 968ZM702 672Q914 555 922 540V292Q915 280 702 160H694Q492 275 474 292V540Q518 578 698 672ZM1134 636Q1170 535 1170 436V396Q1170 305 1134 192Q1121 192 962 288V540Q995 570 1134 640ZM258 636H262Q283 633 430 544V288Q401 263 262 192Q222 304 222 420Q222 509 258 636ZM450 248H454Q662 128 674 112V-144Q674 -152 662 -152Q513 -152 354 20Q282 125 282 148V152Q289 152 450 248ZM938 248Q957 248 1114 148V144Q1081 60 970 -52Q833 -152 722 -152L718 -144V112Q729 127 938 248ZM298 16H302Q434 -124 462 -124V-136Q353 -200 298 -200H286Q226 -193 226 -140Q226 -91 298 16ZM1094 16H1098Q1170 -84 1170 -144Q1170 -192 1110 -200H1098Q1044 -200 934 -136V-132Q1005 -82 1094 16Z" fill="param(fill) #111111" fill-opacity="param(fill-opacity) 1" stroke="param(outline) none" stroke-opacity="param(outline-opacity) 1" stroke-width="param(outline-width) 0" stroke-linejoin="round"/>
  </g>
</svg>
