<svg xmlns="http://www.w3.org/2000/svg" width="100%" height="100%" viewBox="0 0 1624.00 1624.00">
  <g transform="translate(112.00,1312.00) scale(1,-1)">
    <path d="M748 1042H764Q808 1015 924 894V890Q924 864 880 730V702Q880 636 1072 534Q1140 623 1140 666Q1076 674 1064 682Q1069 738 1084 738H1104L1136 718H1144Q1152 718 1152 726Q1152 746 1112 842Q1112 869 1168 878Q1180 855 1184 838Q1172 812 1172 802Q1172 795 1184 766H1188Q1232 788 1232 822V906Q1236 918 1256 918H1284Q1306 918 1312 902V894Q1312 859 1268 822Q1260 815 1260 762Q1267 758 1276 758H1300Q1335 790 1340 810Q1347 814 1356 814H1368Q1392 798 1392 766V762Q1392 746 1296 730Q1237 703 1148 566Q1098 454 1064 454Q963 502 940 502Q972 389 972 374Q963 333 912 258H916Q1060 326 1104 326H1132L1140 322Q1140 281 1076 138H1080Q1148 138 1168 330L1176 334H1208Q1218 334 1228 294Q1204 280 1204 246V230Q1253 230 1288 322L1296 326H1304Q1346 326 1348 274Q1348 238 1280 238Q1257 212 1248 182H1280L1376 198H1388Q1400 194 1400 174V150Q1400 129 1388 126H1368Q1275 142 1248 142H1236Q1157 142 1000 -10Q960 -42 944 -42Q936 -17 936 -10Q936 28 980 154Q833 99 728 18Q713 10 696 10H680Q640 10 580 82Q549 110 412 186V182Q436 81 436 42Q436 29 424 -10Q385 -10 328 78Q205 214 144 214L24 198Q3 198 0 210V270Q1 278 8 278H24Q87 250 128 250H148Q148 291 84 322Q56 341 56 346Q63 394 96 394H112Q130 394 148 310Q184 290 200 290V294L180 362V370Q196 394 220 394H228Q248 394 248 262Q268 197 304 182H312Q272 314 272 342Q274 382 284 382Q295 382 460 302V306Q456 340 456 362V406Q456 438 488 534Q468 526 344 494Q302 555 244 710Q199 784 72 822V826Q85 890 96 890Q121 890 156 830Q171 822 188 822H200V838Q200 863 164 958V974Q164 981 188 986Q244 986 244 946Q236 903 236 890V882Q236 830 280 830L292 858Q288 880 288 890Q300 919 300 922H312Q356 910 356 898V882Q308 782 308 762H312L364 782Q384 776 384 754V738Q384 717 372 714H368Q355 714 312 722L308 714Q308 644 372 578H376Q572 666 572 738V746L544 874Q544 949 712 1038Q734 1042 748 1042Z" fill="param(fill) #111111" fill-opacity="param(fill-opacity) 1" stroke="param(outline) none" stroke-opacity="param(outline-opacity) 1" stroke-width="param(outline-width) 0" stroke-linejoin="round"/>
  </g>
</svg>
