<svg xmlns="http://www.w3.org/2000/svg" width="100%" height="100%" viewBox="0 0 1624.00 1624.00">
  <g transform="translate(112.00,1312.00) scale(1,-1)">
    <path d="M820 1058H868Q964 1048 1124 902Q1200 779 1200 726Q1240 696 1240 670V646Q1213 506 1168 506L1128 474L1132 466V462Q1127 452 1060 422V418L1100 422H1104L1144 418Q1225 502 1272 578Q1268 619 1268 642Q1276 706 1292 706Q1316 659 1316 606V582Q1316 435 1140 358L1100 354H1072Q1072 346 1116 342Q1124 346 1128 346Q1211 346 1348 286Q1400 237 1400 210V206Q1400 198 1392 198H1388Q1350 241 1268 258Q1216 275 1084 282Q1076 278 1072 278Q1072 274 1124 254Q1212 171 1212 94Q1186 6 1112 -42Q1106 -42 1100 -30L1148 46V66Q1137 118 1068 214Q1028 206 1020 206Q1077 155 1092 62Q1092 53 1096 46Q1059 -58 984 -58H976V-46Q1032 12 1032 18Q1000 79 1000 110Q1004 132 1004 142Q1004 150 828 162Q789 178 756 206Q724 206 644 214Q591 214 532 178Q409 148 368 130Q359 77 348 38Q414 8 416 -6Q416 -12 404 -18H376Q276 3 276 66V70Q276 136 352 202H348Q267 202 176 110Q122 82 96 -2L84 -10Q77 -10 72 18Q72 128 212 230Q279 252 296 270H468L508 266V274Q500 274 500 278L492 274H488Q452 274 304 302Q264 302 244 310Q125 277 36 238Q29 190 16 190H12Q0 194 0 214V238Q0 300 156 354L164 366Q104 395 60 534V546Q60 562 88 630H92Q104 630 112 550Q128 536 204 406Q213 406 220 410Q261 406 284 406H292Q300 406 300 414Q289 414 236 478Q206 478 184 526Q116 553 116 622Q104 680 104 698V706Q104 722 152 778L148 786Q165 807 216 906Q247 943 288 962Q376 1050 500 1050Q550 1050 564 1026V1022Q564 1014 556 1014H540Q380 989 380 922V918Q380 910 392 910Q480 926 532 926H552Q560 925 560 918V910Q556 897 372 810Q320 744 260 690Q256 649 256 626Q257 618 264 618Q376 750 528 750Q546 750 616 746Q642 758 652 758L664 750H684Q744 749 744 742Q764 750 816 750Q925 750 1048 658Q1071 622 1084 622V630Q1084 645 1004 750Q977 816 836 874Q785 889 772 906V914Q772 923 800 930Q867 930 956 902L960 910V922Q960 969 864 1006L844 1002Q831 1026 808 1026Q786 1022 772 1022L768 1030V1034Q768 1050 820 1058ZM908 330H916Q936 330 1064 346V350H956Q925 350 908 330Z" fill="param(fill) #111111" fill-opacity="param(fill-opacity) 1" stroke="param(outline) none" stroke-opacity="param(outline-opacity) 1" stroke-width="param(outline-width) 0" stroke-linejoin="round"/>
  </g>
</svg>
