<svg xmlns="http://www.w3.org/2000/svg" width="100%" height="100%" viewBox="0 0 1624.00 1624.00">
  <g transform="translate(112.00,1312.00) scale(1,-1)">
    <path d="M748 988 744 980V976Q744 965 836 932Q844 919 844 908V900L840 876Q860 823 860 808L812 780Q836 736 840 736Q939 789 1004 808Q1029 877 1180 968H1184L1188 960L1184 952Q1196 952 1196 944V940Q1123 916 1064 844Q974 720 896 720Q896 716 844 700L892 640Q1011 712 1064 712Q1131 712 1256 612V608H1244L1076 684H1068Q1035 684 916 616Q1053 468 1084 468Q1126 456 1264 380L1256 364Q1132 424 1112 424H1108Q1158 360 1320 244Q1400 159 1400 96V92Q1400 40 1288 40Q1104 40 964 172Q933 215 900 248H896Q826 24 716 24Q606 24 528 248H520Q376 12 120 12H88Q0 22 0 68V80Q0 155 264 352Q344 432 344 440Q292 440 164 372H156Q156 376 152 384Q286 468 392 488Q512 612 512 616V620Q497 620 352 688H344Q178 608 160 608L156 616V620Q293 712 336 712H356Q397 712 516 644L536 636Q568 662 568 696Q400 743 380 788Q330 839 312 868Q312 888 204 940V944Q204 952 216 952L212 960V964Q296 930 364 852Q398 792 444 792L572 728Q592 773 592 776Q544 791 544 804V812Q544 827 560 864Q552 901 552 908Q552 935 584 952H624Q654 988 748 988ZM624 552 604 440H608Q642 436 664 436H764L812 440Q788 529 788 548H784Q740 504 716 504H708Q673 504 624 552ZM724 400Q656 404 592 404L540 272Q540 228 560 228Q642 212 732 212H736Q880 223 880 244Q884 260 884 272Q824 393 824 408Q800 404 724 400ZM704 184H700Q642 184 560 200Q560 132 692 132H748Q864 132 864 200Q868 200 868 204H864Q745 184 704 184Z" fill="param(fill) #111111" fill-opacity="param(fill-opacity) 1" stroke="param(outline) none" stroke-opacity="param(outline-opacity) 1" stroke-width="param(outline-width) 0" stroke-linejoin="round"/>
  </g>
</svg>
