<svg xmlns="http://www.w3.org/2000/svg" width="100%" height="100%" viewBox="0 0 1624.00 1624.00">
  <g transform="translate(112.00,1312.00) scale(1,-1)">
    <path d="M518 1200Q618 924 618 900Q637 828 646 828Q682 836 698 836Q756 828 762 828Q762 889 866 1160Q887 1196 894 1196V1192Q774 857 774 804L850 700Q858 687 858 680L918 700V764Q918 774 926 800H930Q942 798 942 768V740Q942 668 914 668Q914 665 890 652H866V636Q866 537 914 508Q1082 420 1142 420Q1166 420 1214 424Q1262 417 1262 408Q1247 396 1226 396H1202Q1013 396 970 452L902 480V476Q902 380 930 380Q966 380 966 324Q1034 -2 1090 -48Q1174 -157 1174 -184H1170Q1113 -132 998 56Q953 299 926 324Q897 33 866 -32Q930 -123 930 -136H926L846 -84H838Q826 -136 758 -184Q734 -200 710 -200H686Q619 -200 554 -84Q485 -132 466 -132Q480 -91 534 -44Q493 52 474 316Q474 324 466 324Q442 280 390 32Q282 -129 226 -184H222Q222 -159 322 -28Q368 37 438 368Q486 387 486 396Q486 404 498 476Q479 476 346 408Q301 396 210 396H198Q138 396 138 412V416L186 420H242Q326 420 410 472Q530 511 530 612L534 648Q458 665 458 700V800H462Q473 800 478 760V724Q478 696 538 680Q538 696 614 792Q622 805 622 816Q575 1023 522 1132Q506 1166 506 1192Q508 1192 518 1200Z" fill="param(fill) #111111" fill-opacity="param(fill-opacity) 1" stroke="param(outline) none" stroke-opacity="param(outline-opacity) 1" stroke-width="param(outline-width) 0" stroke-linejoin="round"/>
  </g>
</svg>
