<svg xmlns="http://www.w3.org/2000/svg" width="100%" height="100%" viewBox="0 0 1591.52 1591.52">
  <g transform="translate(95.76,1295.76) scale(1,-1)">
    <path d="M686 1022H714Q735 1022 778 962Q826 951 826 942Q826 900 866 874Q898 821 898 798V782Q898 755 854 718H858Q878 730 886 730Q886 723 930 702Q962 737 1018 870Q1045 902 1150 946Q1174 941 1174 934Q1174 914 1098 910Q1018 863 1018 810Q988 722 950 686Q1030 583 1030 574Q1106 574 1242 514Q1257 510 1278 510Q1305 510 1386 530Q1351 490 1294 490Q1241 490 1054 546Q1028 554 1018 554H1010Q978 550 978 526Q978 502 1010 498H1022Q1035 498 1050 510H1058Q1074 440 1078 386Q1074 318 1058 254Q1054 254 1018 266Q982 266 982 234Q994 206 1022 206H1034L1018 154Q1047 129 1090 34Q1120 22 1142 22Q1213 22 1266 70H1282L1290 66Q1290 40 1138 2H1122Q1063 2 1010 126L1002 130Q910 30 882 30Q865 62 846 62Q822 54 822 46V38L826 -2Q756 -22 710 -22H690Q644 -22 574 -2L578 38V46Q578 54 554 62Q537 59 514 30Q483 37 398 130Q389 127 334 26Q303 2 278 2H262Q110 40 110 66L118 70H134Q186 22 262 22Q330 28 330 78Q353 121 382 158Q366 197 366 206H378Q418 212 418 242Q418 266 374 266Q354 254 342 254Q326 318 322 386Q326 440 342 510H350Q365 498 378 498H390Q422 502 422 526Q422 550 390 554H382Q370 554 154 494L106 490Q49 490 14 530H22Q87 510 122 510Q163 510 282 562Q335 574 370 574Q370 583 450 686V690Q424 690 370 850Q328 918 238 918L226 934Q226 941 250 946Q406 884 406 814Q437 742 470 702Q494 714 518 730Q538 718 546 718Q502 755 502 782V798Q502 838 574 918Q574 954 594 954Q624 954 670 1018Q677 1022 686 1022ZM642 682V678Q657 678 698 650Q748 678 758 678V682H754Q719 674 698 674Q682 674 646 682Z" fill="param(fill) #111111" fill-opacity="param(fill-opacity) 1" stroke="param(outline) none" stroke-opacity="param(outline-opacity) 1" stroke-width="param(outline-width) 0" stroke-linejoin="round"/>
  </g>
</svg>
