<svg xmlns="http://www.w3.org/2000/svg" width="100%" height="100%" viewBox="0 0 1610.08 1610.08">
  <g transform="translate(105.04,1305.04) scale(1,-1)">
    <path d="M1030 1194H1038Q1098 981 1098 950V934Q1020 746 986 746Q844 688 838 678Q854 651 854 646Q1130 706 1130 730Q1242 871 1242 942Q1278 1083 1286 1142H1294Q1272 806 1242 806Q1129 650 1094 650Q965 634 870 610Q870 590 906 590Q1178 590 1178 570Q1318 444 1318 434Q1346 234 1346 178H1338Q1283 392 1258 430Q1156 538 1114 538Q898 558 878 558L874 538V522Q892 503 1074 422Q1096 422 1182 198Q1187 198 1194 154Q1174 38 1130 -178H1122V-174Q1134 56 1134 122V154Q1061 374 1034 374Q872 466 858 466Q850 465 850 458Q850 450 906 410Q982 321 982 214Q982 59 830 -34Q773 -62 702 -62Q506 -62 430 130Q418 189 418 218Q418 348 546 454L550 462L542 466Q334 367 334 338Q262 154 262 142Q282 -123 282 -166V-194H274Q210 114 210 166V178Q294 402 330 426Q494 497 526 522V558H522Q222 542 222 506Q114 415 114 362Q98 323 62 178H54Q74 458 98 458Q232 578 242 578Q280 590 438 590H494Q530 590 530 610Q266 652 266 674Q134 815 134 870Q118 967 106 1142H114Q163 894 190 842Q286 709 298 706Q501 650 546 650L566 682Q370 755 370 790Q317 884 298 950Q314 1028 362 1190H370Q354 1042 354 950Q412 782 454 782Q519 741 598 710Q598 715 622 730Q586 809 586 818L646 886V878Q635 836 622 818Q654 759 690 746H694Q734 746 778 810L754 882V886Q781 859 810 818Q810 795 778 726Q798 714 810 714Q998 790 998 838Q1046 929 1046 958V978Q1046 1016 1030 1194Z" fill="param(fill) #111111" fill-opacity="param(fill-opacity) 1" stroke="param(outline) none" stroke-opacity="param(outline-opacity) 1" stroke-width="param(outline-width) 0" stroke-linejoin="round"/>
  </g>
</svg>
