<svg xmlns="http://www.w3.org/2000/svg" width="100%" height="100%" viewBox="0 0 1619.36 1619.36">
  <g transform="translate(109.68,1309.68) scale(1,-1)">
    <path d="M1090 1096H1122Q1195 1096 1290 1028Q1302 1028 1398 1012V1008Q1398 1003 1290 976Q1237 944 1218 884Q1210 858 1202 804L1206 784Q1206 541 858 448Q795 427 794 416Q966 380 1006 380Q1019 388 1030 388Q1057 388 1098 324V320Q1098 312 1086 312L1094 296Q1094 275 1070 260Q1070 264 1066 264L1074 284Q1070 292 1070 296H1066Q1066 264 1030 252V248H1034L1042 252V244Q1042 226 994 220Q802 59 802 48Q802 41 762 20Q762 -5 714 -56Q711 -56 690 -60V-56Q718 -36 718 -32V-28H710Q695 -28 614 -96Q570 -96 554 -28Q674 58 674 96V100Q654 215 606 364Q614 400 614 416V420Q614 458 522 520Q494 569 494 608V624Q434 629 362 696Q354 721 310 732Q252 732 2 828V832Q2 837 38 848H50L394 784Q454 784 558 824Q741 856 794 880Q894 914 894 956Q975 1096 1090 1096ZM1138 980Q1146 962 1154 960Q1178 960 1178 984Q1174 1000 1154 1000Q1146 998 1138 980ZM654 312Q696 116 730 116Q962 321 962 324V328Q962 363 878 372Q784 392 758 400Q677 366 654 312Z" fill="param(fill) #111111" fill-opacity="param(fill-opacity) 1" stroke="param(outline) none" stroke-opacity="param(outline-opacity) 1" stroke-width="param(outline-width) 0" stroke-linejoin="round"/>
  </g>
</svg>
