<svg xmlns="http://www.w3.org/2000/svg" width="100%" height="100%" viewBox="0 0 1591.52 1591.52">
  <g transform="translate(95.76,1295.76) scale(1,-1)">
    <path d="M782 1186V1182Q762 1129 762 1122Q798 1034 798 998V918H802Q859 934 950 966Q950 971 918 1022Q976 1126 1002 1126H1006V1098Q949 1045 946 1030Q990 963 990 942V938Q990 929 798 866V854Q798 738 886 690L1002 546H1030Q1050 546 1190 510Q1210 509 1210 498V486Q1210 478 1202 478H1198Q1055 526 1030 526Q995 522 986 522Q968 522 862 646Q843 662 830 662V658Q902 334 922 286L978 186Q970 168 962 166H958Q943 166 922 246Q910 255 910 266H906Q864 -90 846 -90H810Q789 -90 786 -78Q782 49 782 102H778Q766 -134 746 -134Q722 -186 714 -186H686Q622 -134 622 98H618L614 78V-18Q614 -90 586 -90H558Q531 -90 494 270H490Q457 187 442 162Q424 170 422 178Q422 186 482 298L570 662H566Q544 662 430 526H422Q309 526 214 478H198Q190 478 190 486V498Q190 513 378 550Q404 550 470 638Q510 682 586 754Q598 826 598 854V866Q445 919 406 938Q406 953 454 1034V1038Q425 1072 390 1098V1102L394 1122H406Q472 1063 478 1022Q450 979 450 962Q595 914 602 914V1018Q602 1055 634 1106V1114Q634 1124 626 1154L634 1158Q649 1134 654 1134L698 1146L754 1134Q774 1186 782 1186Z" fill="param(fill) #111111" fill-opacity="param(fill-opacity) 1" stroke="param(outline) none" stroke-opacity="param(outline-opacity) 1" stroke-width="param(outline-width) 0" stroke-linejoin="round"/>
  </g>
</svg>
