<svg xmlns="http://www.w3.org/2000/svg" width="100%" height="100%" viewBox="0 0 1624.00 1624.00">
  <g transform="translate(112.00,1312.00) scale(1,-1)">
    <path d="M888 1200Q988 1054 988 952Q988 881 924 832Q968 790 968 732V716Q968 677 932 616H936Q973 596 1024 588Q1088 698 1088 884Q1128 902 1128 932Q1168 997 1168 1044Q1168 1100 1132 1100V1104Q1132 1109 1176 1140Q1198 1107 1200 1072V1044Q1200 1008 1148 896L1156 860Q1132 725 1084 616Q1039 528 980 528Q955 528 936 496Q977 462 1100 412Q1176 357 1176 300L1080 388L920 440V436Q956 413 956 328Q956 294 1028 204Q1096 2 1096 -128Q1107 -163 1124 -180Q1124 -189 1072 -200L1068 -192V-84Q1068 -2 992 192Q966 223 956 224Q932 188 884 88Q834 24 728 24H704Q553 24 492 220Q484 220 484 236Q434 236 424 176Q364 33 364 -140Q361 -192 352 -192Q308 -178 304 -168Q336 -152 336 -40Q351 107 396 200Q432 262 476 316Q484 333 484 380V392Q332 349 332 308Q248 200 248 120Q252 120 252 116L244 112Q204 133 200 144V148Q234 168 308 328Q354 388 428 412Q503 460 512 460Q504 479 496 512Q407 512 376 576Q313 668 288 848L292 864Q292 887 240 1028V1072Q240 1106 280 1128L300 1124V1116H292V1112Q300 1096 312 1096V1084Q277 1084 272 1032Q281 956 356 848Q356 836 360 836L356 816V776Q356 714 420 580Q504 593 504 608Q460 669 460 716V720Q460 756 492 828Q416 863 416 940V944Q416 1055 528 1180H536Q536 1178 568 1100Q536 1100 488 992Q532 961 532 952Q524 939 524 928V916Q525 908 532 908Q559 928 572 928Q572 906 616 884Q640 929 640 936H644Q656 936 656 896Q652 888 652 884Q684 868 704 868H716Q768 868 768 880V904L744 936V944H748Q781 944 796 884Q832 903 832 936Q846 936 888 916Q891 944 896 944L868 996Q912 1010 912 1020V1024Q912 1052 840 1136Q840 1159 888 1200Z" fill="param(fill) #111111" fill-opacity="param(fill-opacity) 1" stroke="param(outline) none" stroke-opacity="param(outline-opacity) 1" stroke-width="param(outline-width) 0" stroke-linejoin="round"/>
  </g>
</svg>
