<svg xmlns="http://www.w3.org/2000/svg" width="100%" height="100%" viewBox="0 0 1624.00 1624.00">
  <g transform="translate(112.00,1312.00) scale(1,-1)">
    <path d="M1096 1200H1116Q1124 1199 1124 1192V1184Q1124 1152 1100 1092Q1176 1092 1256 988Q1292 928 1292 904Q1364 924 1392 924Q1400 923 1400 916V896Q1392 885 1300 852Q1300 683 1112 620Q1096 620 1064 612Q1068 562 1068 552Q1068 221 756 40Q656 -12 540 -12Q452 -12 348 36Q226 -9 180 -20Q180 -8 236 152Q188 248 188 336V344Q188 623 480 800Q592 868 756 868Q762 868 812 864Q812 993 944 1072Q981 1092 1056 1100Q1083 1200 1096 1200ZM408 896H428Q552 891 552 876Q546 867 476 840Q261 728 176 496H168Q77 496 20 576Q0 612 0 636V676Q0 736 104 812Q246 896 408 896ZM504 776Q504 706 716 476Q829 380 832 380Q927 308 976 308Q1028 406 1028 472Q791 630 676 828Q612 828 504 776ZM244 472Q274 349 452 180Q607 49 676 44Q754 64 856 148V152Q577 253 408 532Q352 627 352 656Q248 538 244 472ZM1076 352Q1093 352 1100 232Q1100 29 984 -136Q921 -200 872 -200H848Q744 -200 704 -80Q696 -42 696 -24Q944 73 1044 288Q1071 352 1076 352Z" fill="param(fill) #111111" fill-opacity="param(fill-opacity) 1" stroke="param(outline) none" stroke-opacity="param(outline-opacity) 1" stroke-width="param(outline-width) 0" stroke-linejoin="round"/>
  </g>
</svg>
