<svg xmlns="http://www.w3.org/2000/svg" width="100%" height="100%" viewBox="0 0 1624.00 1624.00">
  <g transform="translate(112.00,1312.00) scale(1,-1)">
    <path d="M964 1048Q990 1040 996 1040Q1003 1044 1012 1044L1032 1020L1040 1024Q1084 990 1084 968L1072 920Q1080 894 1080 884L1064 880L1044 884Q1044 878 1048 828Q1041 776 996 776Q996 758 1000 688Q1000 496 796 344Q760 302 588 240Q555 202 448 180Q437 166 424 88Q424 24 504 24Q556 11 556 -12H552Q493 -4 468 -4V-8L492 -36V-48H488Q410 -16 388 28Q362 20 352 20H336Q328 20 328 28Q328 42 372 52Q388 52 400 220Q400 272 308 332Q232 424 232 500Q164 500 136 548Q95 590 56 600L48 612V628Q48 652 64 652Q16 690 16 704Q16 710 44 740Q29 740 0 776V788Q0 828 84 852L80 872V888Q80 900 136 908Q228 908 336 772Q389 740 484 740Q697 740 740 804Q860 968 924 968Q912 988 912 1000V1020Q912 1027 952 1036Q952 1048 964 1048ZM1280 456Q1323 456 1384 388Q1400 386 1400 376V372Q1356 340 1356 308V256Q1356 145 1260 112Q1216 94 1216 88L1244 20Q1308 16 1320 16V8Q1276 8 1276 -24Q1206 8 1200 8H1176V12Q1176 16 1204 40Q1184 84 1180 84Q1096 76 1096 52Q1092 31 1092 12Q1092 -2 1176 -16V-24H1136Q1128 -25 1128 -32Q1134 -32 1140 -44V-48H1136Q1124 -48 1048 -16Q1041 -12 1032 -12V-4Q1068 -4 1068 56V64Q1039 78 1012 152Q984 185 984 220Q984 275 1156 340L1176 344Q1188 456 1280 456ZM748 300H756Q756 271 688 192V180Q723 32 764 32H800Q819 32 864 24V20Q864 0 776 0V-4Q798 -4 808 -24V-28Q808 -36 800 -36Q749 -26 684 24Q664 12 644 12Q636 16 632 16V20Q640 35 680 56Q673 119 588 216V224Q592 241 732 288Q732 292 748 300Z" fill="param(fill) #111111" fill-opacity="param(fill-opacity) 1" stroke="param(outline) none" stroke-opacity="param(outline-opacity) 1" stroke-width="param(outline-width) 0" stroke-linejoin="round"/>
  </g>
</svg>
