<svg xmlns="http://www.w3.org/2000/svg" width="100%" height="100%" viewBox="0 0 1624.00 1624.00">
  <g transform="translate(112.00,1312.00) scale(1,-1)">
    <path d="M464 1200H492Q598 1200 692 1108Q684 1095 684 1088Q692 1088 692 1100H700Q733 1069 736 1036V1016Q717 928 688 904Q680 904 660 868Q589 810 568 804V800Q615 800 620 780V776Q620 774 612 764V760Q624 760 624 752L640 764H644Q699 764 740 732V692H744Q744 743 836 764H844Q872 759 872 748V744Q806 732 784 712Q776 716 772 716L788 696V688Q788 677 780 664V660H784Q784 676 800 684Q824 684 824 660H828Q828 664 832 672Q880 652 896 652Q923 684 964 684H984L1004 680Q1030 788 1056 788Q1060 768 1064 768Q1053 672 1020 672Q1012 676 1008 676Q1008 667 932 648Q932 644 920 640Q916 644 892 644Q892 641 888 620V616H892Q896 640 904 640Q960 628 960 596V588H964Q964 595 972 608Q991 608 1008 576H1012Q1012 596 1056 664Q1052 664 1052 668Q1056 668 1056 672Q1134 672 1176 616V608Q1146 608 1080 640Q1067 640 1060 644Q1060 591 1016 552Q1016 529 996 480V476H1000Q1022 540 1028 540Q1068 535 1068 504V500Q1068 491 1064 484V480H1068Q1068 490 1088 508H1096Q1102 508 1112 492V488L1108 464V460H1112Q1113 480 1120 480Q1184 480 1200 408V404Q1200 384 1192 356V352H1196Q1204 378 1204 388V396H1208Q1304 339 1304 224Q1312 224 1312 192Q1312 130 1268 32H1260L1232 36L1252 12V8Q1138 -124 1112 -124L1092 -120L1100 -132V-136Q1001 -200 924 -200Q900 -192 900 -180H896V-184Q900 -192 900 -196L892 -200Q752 -181 752 -156Q757 -120 788 -120H800Q881 -120 892 -172H896Q896 -123 1024 -100Q1024 -96 1048 -96L1064 -100Q1064 -37 1204 52Q1212 48 1216 48Q1208 64 1208 76Q1234 208 1272 208V212Q1218 212 1156 284Q1148 284 1148 292V300L1156 312V316Q1142 308 1116 304Q1100 304 1036 348Q1000 363 1000 376Q1004 384 1004 388Q984 372 980 372Q963 372 944 404V408L948 416H944Q922 400 900 400L860 408V416L868 428V432H864L852 424H844L808 448H804L808 440V412Q808 402 828 344Q813 256 752 256H744Q744 280 812 352Q776 385 776 452Q777 460 784 460L796 452H800L796 460L804 472V476H800Q790 468 788 468H784Q726 524 676 524L672 496Q672 489 692 432H680Q644 452 644 532Q652 536 656 536L648 548Q654 548 664 564L636 560H624Q560 607 560 632V644H548L536 636H520Q496 652 496 668H492Q492 492 376 408Q361 400 344 400H340Q191 400 88 572Q72 617 72 632V668Q72 684 80 720H88Q99 616 128 616L132 624V640Q120 728 120 748V760Q121 768 128 768Q161 640 180 640Q344 604 344 524V520Q344 491 328 460Q363 470 392 516Q413 535 436 544Q440 566 440 580V636Q440 688 472 716Q473 708 480 708V716L476 736Q536 725 536 712V676H544Q544 684 552 684Q540 697 540 704Q556 737 556 740Q508 751 508 784Q515 788 524 788Q524 796 516 796Q516 846 656 908V912L644 928Q672 1012 672 1052V1056H668Q637 992 592 992Q530 992 432 1088L412 1092H404Q373 1092 300 1064V1068Q300 1096 416 1124Q432 1136 432 1148L424 1152H412Q386 1152 328 1132H324Q389 1200 464 1200ZM788 992Q854 935 864 892L856 888Q788 944 788 992ZM940 972H944Q984 923 984 856L976 852Q940 899 940 964ZM1008 932H1016Q1048 877 1048 824V816H1044Q1008 841 1008 928ZM868 864H880Q904 851 904 820Q904 778 888 748Q868 755 868 768Q868 784 864 840ZM988 828Q997 817 1000 788Q1000 750 952 708Q942 716 940 716Q940 704 864 688Q856 672 840 672Q822 680 820 688V692Q880 724 912 724H928L936 720Q966 828 988 828ZM564 672V652H568V672ZM540 668V660H544V668ZM884 612V604H888V612ZM1252 616Q1272 616 1328 608V600Q1292 588 1268 588H1248Q1208 593 1208 604V608Q1245 616 1252 616ZM876 592Q876 584 864 564V560H868Q868 568 880 588V592ZM956 584V576H960V584ZM952 572V564H956V572ZM716 512 744 496 740 468Q740 436 760 392H756Q712 392 712 476V504ZM1104 456V448H1108V456ZM1100 444Q1100 440 1096 432V428H1100Q1100 432 1104 440V444ZM1092 424V416H1096V424ZM680 424H688Q696 423 696 416Q662 364 616 364H592L584 368Q584 395 680 424ZM928 400Q913 320 856 320V328Q904 396 912 396ZM492 396Q536 396 560 368V364H520Q452 366 444 388V392ZM744 388H748Q754 388 760 376V368Q738 292 684 292H676V296Q676 323 744 388ZM848 316H872Q959 250 960 236V232H956Q890 232 848 312ZM624 292H652V288Q629 256 544 256H532V264Q584 292 624 292ZM692 252H716V248Q716 224 604 216H596V224Q648 252 692 252ZM976 216H980Q1014 216 1044 104H1040Q980 166 976 216ZM584 108H588Q644 108 644 -52V-68Q644 -75 740 -116Q748 -129 748 -140V-156H744Q580 -89 580 32H592L612 36V48Q612 66 584 104Z" fill="param(fill) #111111" fill-opacity="param(fill-opacity) 1" stroke="param(outline) none" stroke-opacity="param(outline-opacity) 1" stroke-width="param(outline-width) 0" stroke-linejoin="round"/>
  </g>
</svg>
