<svg xmlns="http://www.w3.org/2000/svg" width="100%" height="100%" viewBox="0 0 1624.00 1624.00">
  <g transform="translate(112.00,1312.00) scale(1,-1)">
    <path d="M1192 1030H1208Q1343 1030 1388 886Q1392 871 1392 850Q1392 823 1356 762Q1348 598 1336 566H1328Q1309 566 1272 786Q1204 821 1204 866Q1194 874 1188 874Q1128 835 1128 762Q1128 661 1308 454Q1400 328 1400 246V210Q1400 89 1124 2Q1008 -30 880 -30H820Q482 -30 208 162Q130 243 76 342Q23 387 12 434Q16 434 16 438L24 434H28Q0 487 0 494H8Q52 458 84 458Q104 489 104 514Q146 562 168 562Q176 562 208 550Q225 570 248 570L300 558Q301 566 308 566H328Q328 570 332 598Q324 598 324 606V638Q324 643 316 682Q323 686 332 686Q316 714 316 726Q316 734 340 734L336 742V754Q337 762 344 762H372V766Q368 774 368 778L376 782Q396 782 440 770V774L428 790V794H444Q495 794 556 762Q556 770 572 770V778Q515 804 512 814V818Q557 830 584 830H592Q637 830 752 786L756 794Q748 804 748 806V810Q915 758 984 638Q1058 486 1064 486H1068V498Q1068 517 1008 722Q1004 747 1004 778V786Q1004 973 1144 1026Z" fill="param(fill) #111111" fill-opacity="param(fill-opacity) 1" stroke="param(outline) none" stroke-opacity="param(outline-opacity) 1" stroke-width="param(outline-width) 0" stroke-linejoin="round"/>
  </g>
</svg>
