<svg xmlns="http://www.w3.org/2000/svg" width="100%" height="100%" viewBox="0 0 1624.00 1624.00">
  <g transform="translate(112.00,1312.00) scale(1,-1)">
    <path d="M1104 1070H1124Q1216 1070 1268 974Q1312 942 1400 906V894Q1400 886 1392 886Q1315 898 1276 898H1272V894Q1289 894 1368 834Q1368 826 1360 826H1352Q1234 870 1212 870H1160Q1136 870 1088 886L1084 858Q1084 780 1188 618Q1216 558 1216 510Q1216 346 748 170L768 110Q842 122 912 122Q920 109 920 102L912 98Q912 102 908 102V94H940Q946 94 952 82V74H948Q944 74 944 78Q931 70 924 70V66Q940 66 940 42H936Q926 50 924 50L920 42Q736 60 736 106H728V86H724Q716 86 716 94V106Q724 135 724 138L720 158H712Q699 158 696 94V38H728Q896 38 896 14V2L880 6Q864 0 864 -6Q870 -6 880 -22V-34H876Q868 -34 868 -26Q804 -35 804 -62V-70H800L720 -42Q664 -10 660 10V34Q648 34 648 54Q664 72 664 110V150H612Q498 150 292 238Q230 254 144 254Q141 246 92 218Q37 218 0 258V262Q0 272 112 302Q147 327 188 342V346Q166 346 144 350V358Q164 386 344 462Q344 475 464 522Q677 670 816 670Q894 670 964 618H988Q988 633 952 778Q948 816 948 850Q964 1010 1004 1026Q1043 1070 1104 1070Z" fill="param(fill) #111111" fill-opacity="param(fill-opacity) 1" stroke="param(outline) none" stroke-opacity="param(outline-opacity) 1" stroke-width="param(outline-width) 0" stroke-linejoin="round"/>
  </g>
</svg>
