<svg xmlns="http://www.w3.org/2000/svg" width="100%" height="100%" viewBox="0 0 1591.52 1591.52">
  <g transform="translate(95.76,1295.76) scale(1,-1)">
    <path d="M1314 942H1322V934H1314ZM1310 926H1318Q1288 801 1210 654L1218 638Q1374 718 1386 718L1222 618Q1196 474 1134 474Q1111 481 1102 502Q1077 494 1070 494L1126 350L1170 174Q1166 167 1166 158Q1166 129 1226 86L1230 78V74Q1230 68 1214 58H1206V62L1210 70Q1151 130 1146 130Q1129 241 1110 310Q1071 422 1034 458H1030Q1030 441 966 402Q959 370 866 326V318Q886 273 926 138Q934 137 934 130L926 118Q942 83 942 66L930 58H926Q914 58 910 118Q896 118 878 210Q822 314 822 338Q830 351 830 362Q815 350 802 350H782Q752 350 698 386Q664 378 550 362Q536 366 534 366Q500 362 478 362Q475 362 446 366Q433 358 422 358H410Q339 358 294 370Q188 172 178 162Q46 162 46 118Q46 110 30 110L26 118V126Q26 148 58 166Q58 182 114 182H158Q166 182 166 194V206Q174 206 174 210V222Q183 222 194 254L190 262L206 274L202 282V286Q214 286 218 306Q227 306 230 326Q222 326 222 334Q239 334 246 346L242 354Q242 362 254 362V366Q126 389 126 410Q14 428 14 478V486Q14 521 90 562Q137 577 206 590Q206 602 214 602L210 610V614Q226 614 226 630Q222 630 222 634Q250 654 250 674Q258 674 258 682V694Q266 694 274 706L270 714V718Q290 718 290 738Q302 738 302 750Q298 750 298 754Q316 762 318 770L314 778Q324 778 358 834Q382 854 398 890H422Q423 898 430 898H442Q478 898 530 822Q745 674 758 674Q821 682 842 682H898Q902 682 938 694Q1019 682 1046 682Q1128 690 1158 690H1162Q1177 690 1198 670Q1287 811 1310 926ZM250 594Q353 607 366 614Q393 670 442 698H470L526 638L606 650Q512 791 486 806Q426 825 418 846V850H410Q406 850 326 722Q250 624 250 594ZM410 618H414L442 622Q430 640 430 650Q420 650 410 618ZM858 378V374H866V378ZM838 370V362H842V370Z" fill="param(fill) #111111" fill-opacity="param(fill-opacity) 1" stroke="param(outline) none" stroke-opacity="param(outline-opacity) 1" stroke-width="param(outline-width) 0" stroke-linejoin="round"/>
  </g>
</svg>
