<svg xmlns="http://www.w3.org/2000/svg" width="100%" height="100%" viewBox="0 0 1624.00 1624.00">
  <g transform="translate(112.00,1312.00) scale(1,-1)">
    <path d="M872 1028H892Q900 1027 900 1020L832 972Q792 932 748 900V896Q820 871 820 820V804Q820 777 796 740Q800 732 800 728H804Q804 754 880 816Q860 850 860 904Q896 930 896 940H904V920L872 892Q888 870 900 824L896 816L900 796Q863 730 820 716V704L828 708Q837 708 840 688Q836 688 836 684Q843 680 852 680V672L848 664Q852 664 860 660Q1199 844 1340 844Q1400 836 1400 800V780Q1361 676 1260 616Q1236 616 1184 548Q1119 512 1076 512H1056L1016 516Q1016 504 980 496Q937 524 864 524Q861 500 848 500L852 492V488Q844 488 828 480V476Q834 476 844 464H864Q899 464 1020 420Q1020 410 1096 392Q1123 377 1136 340Q1163 340 1172 300L1160 292H1156Q1156 313 1124 336L1116 332H1112Q1056 339 1008 392V400Q994 392 968 388Q953 388 884 428Q876 424 872 424V420L876 412Q868 411 868 404Q868 397 928 332Q992 249 992 224Q992 216 980 216Q1036 160 1036 96Q1029 76 1016 76V72L1044 0V-4Q1044 -25 1032 -28L1024 -24L1028 -16Q1028 15 988 68Q955 68 940 172V204Q924 204 860 356H856V348Q864 298 864 264Q864 82 740 -20L712 -28H692Q569 3 540 288Q540 308 548 364V368H544Q488 241 488 216Q474 216 460 136Q432 72 416 72L396 76Q376 8 376 -4Q380 -4 380 -8L372 -12Q360 3 360 16V24Q360 37 388 84Q380 84 372 108Q402 196 416 212L412 220V244Q436 299 532 392L528 400V404Q528 414 544 416V420Q532 420 532 428L536 436H532Q523 436 448 388Q430 388 424 384L400 392Q400 370 284 328Q284 318 268 312Q256 294 256 288H252Q244 288 244 296V316Q288 351 288 356Q288 385 360 404Q478 464 552 464Q552 472 564 472L544 492Q548 499 548 508Q536 508 536 520Q473 520 432 488Q402 488 388 508Q366 500 324 500Q247 500 164 596Q106 596 4 744L0 768V792Q13 824 68 824H76Q215 824 548 652L564 696H572Q495 763 492 792L496 800Q488 825 488 840Q488 856 516 888V892L484 916V920Q508 920 528 892V884Q512 817 512 804Q545 790 600 712Q607 716 616 716V720Q572 770 572 804Q572 857 648 896V900Q612 919 540 976Q480 1003 480 1008Q480 1018 496 1020Q523 1012 660 904Q693 908 700 912Q707 908 736 904Q838 1001 872 1028Z" fill="param(fill) #111111" fill-opacity="param(fill-opacity) 1" stroke="param(outline) none" stroke-opacity="param(outline-opacity) 1" stroke-width="param(outline-width) 0" stroke-linejoin="round"/>
  </g>
</svg>
