<svg xmlns="http://www.w3.org/2000/svg" width="100%" height="100%" viewBox="0 0 1596.16 1596.16">
  <g transform="translate(98.08,1298.08) scale(1,-1)">
    <path d="M872 888Q872 884 876 884Q788 782 700 756V752Q796 752 916 704Q928 704 928 696Q770 636 736 636Q832 536 884 536Q990 528 1052 528Q1055 528 1076 524V516Q1026 512 1024 512Q996 512 880 520Q948 449 1148 404Q1262 376 1388 352V344H1384Q1288 344 956 436Q835 524 816 524Q740 524 660 592Q605 638 536 644V624Q536 611 524 596Q544 470 696 300Q708 300 824 200H816Q600 311 520 544Q520 548 512 576H508L496 568H484L476 572Q476 552 456 552Q456 545 464 472Q420 328 372 288V296Q444 431 444 480Q444 574 404 584H396V524Q396 498 400 472Q360 256 336 256Q202 112 176 112Q348 277 348 320Q380 420 380 508V536H376Q348 504 348 496Q341 357 320 300H312Q332 396 332 460V468H328Q300 371 124 240H112V244Q276 368 312 476Q266 442 252 396Q147 306 12 272Q13 278 104 316Q199 368 236 408H232Q222 400 220 400H212Q256 428 256 496Q289 649 312 724Q317 724 376 680Q376 720 384 720Q395 700 400 700L412 716V764H416Q436 748 436 728Q444 732 448 732V752Q449 760 456 760Q464 760 464 748H472Q478 800 488 800Q502 800 524 764Q532 764 544 836H548L596 792Q793 868 872 888ZM320 696Q320 686 268 452Q328 509 328 536Q316 559 316 576Q316 608 344 624H360L368 620Q368 663 320 696ZM656 628Q762 544 800 544H804V548Q797 548 700 628Z" fill="param(fill) #111111" fill-opacity="param(fill-opacity) 1" stroke="param(outline) none" stroke-opacity="param(outline-opacity) 1" stroke-width="param(outline-width) 0" stroke-linejoin="round"/>
  </g>
</svg>
