<svg xmlns="http://www.w3.org/2000/svg" width="100%" height="100%" viewBox="0 0 1619.36 1619.36">
  <g transform="translate(109.68,1309.68) scale(1,-1)">
    <path d="M812 1198H820Q820 1183 836 1122Q840 1122 868 1130H876Q960 1024 960 1006Q952 1005 952 998L912 1002H876Q864 1002 852 958Q864 811 896 802H900Q973 961 992 966Q999 970 1008 970Q1022 970 1048 882Q1098 803 1124 722V718H1104Q1097 718 1068 810Q1049 850 1044 850Q1048 803 1048 782V738Q1048 730 1040 730Q1024 736 1024 742Q1024 745 1028 838Q1028 863 1016 898H1012L1008 870L1012 742Q1012 702 956 654H952Q932 654 868 726Q836 726 808 850L796 862Q748 733 748 714V710Q783 659 836 534Q926 602 960 602H972Q977 602 1032 470Q1038 470 1136 394H1160V386Q1160 378 1152 378H1128Q1122 378 1060 438Q1056 426 1036 426Q1006 494 964 494Q951 494 848 470H840Q780 470 740 594H732Q732 553 692 382V370Q712 278 716 246Q716 211 660 202L636 206H600V194Q600 147 764 -170Q756 -198 732 -198Q724 -198 724 -190Q744 -174 748 -174Q650 17 580 174H576L468 46Q468 42 464 34Q468 -49 468 -102V-138Q466 -150 436 -150H432Q424 -150 424 -142V-138Q427 -138 452 -130V-110Q452 -64 448 30Q403 -4 272 -126Q259 -134 248 -134Q240 -134 240 -126V-122Q240 -100 356 106Q522 471 664 670Q684 682 744 858L824 1014Q797 1014 788 1054V1058L812 1086Q803 1086 752 1142H756L820 1090Q832 1093 832 1122Q812 1157 812 1194Z" fill="param(fill) #111111" fill-opacity="param(fill-opacity) 1" stroke="param(outline) none" stroke-opacity="param(outline-opacity) 1" stroke-width="param(outline-width) 0" stroke-linejoin="round"/>
  </g>
</svg>
