<svg xmlns="http://www.w3.org/2000/svg" width="100%" height="100%" viewBox="0 0 1624.00 1624.00">
  <g transform="translate(112.00,1312.00) scale(1,-1)">
    <path d="M1148 1170H1180Q1252 1170 1296 1042Q1344 979 1344 918V902Q1338 866 1312 866Q1292 901 1292 966V974Q1286 988 1240 998H1228Q1208 998 1200 978V962Q1200 942 1312 782Q1344 725 1344 682V662L1340 634Q1400 588 1400 502V478Q1400 333 1188 210Q1089 170 1084 170L1088 162V154Q1018 126 972 78Q1023 -86 1080 -86H1152Q1166 -86 1192 -98V-102Q1192 -118 1080 -118V-122Q1104 -122 1124 -150Q1124 -158 1112 -158Q1061 -158 996 -102Q996 -90 984 -90Q955 -106 920 -106Q912 -106 912 -98Q926 -84 972 -54Q957 9 872 94Q852 106 852 122Q947 146 972 146V150Q932 146 912 146H800Q800 127 724 38L720 -26Q726 -94 772 -94H840Q892 -97 892 -110Q866 -126 808 -126H772V-130Q802 -138 828 -166L820 -170H808Q741 -170 688 -110Q654 -130 640 -130H636L616 -126V-122Q676 -85 676 -46V-2Q676 64 664 98Q481 90 440 90Q308 103 308 162Q336 184 352 234Q375 246 392 246Q384 261 384 278Q444 311 444 338Q466 358 596 374V378H592L432 370Q412 393 412 410V426Q432 452 432 458Q428 482 420 482Q420 469 400 406Q400 391 424 362Q400 329 332 310H316Q276 316 276 362L256 358H228Q199 358 164 418Q96 420 96 446V470L100 490Q44 506 44 554Q44 564 60 594Q4 602 4 638V642Q4 670 28 702V706Q3 729 0 738V758Q0 785 40 830Q28 851 28 870Q28 932 92 954L88 978Q103 1058 156 1058H196Q205 1134 264 1134H268Q290 1134 320 1114Q337 1158 380 1158H396Q427 1158 448 1126H452Q452 1146 500 1158H508Q546 1158 576 1118L624 1122H628Q669 1122 676 1050H684Q736 1050 736 998Q732 970 732 966Q779 966 784 910Q784 877 748 866Q727 858 716 858V854H720Q773 862 824 862Q921 862 1100 770Q1108 774 1112 774V794Q1112 820 1052 1002Q1048 1023 1048 1042Q1048 1126 1124 1162Q1137 1170 1148 1170ZM984 154V150H992V154Z" fill="param(fill) #111111" fill-opacity="param(fill-opacity) 1" stroke="param(outline) none" stroke-opacity="param(outline-opacity) 1" stroke-width="param(outline-width) 0" stroke-linejoin="round"/>
  </g>
</svg>
