<svg xmlns="http://www.w3.org/2000/svg" width="100%" height="100%" viewBox="0 0 1624.00 1624.00">
  <g transform="translate(112.00,1312.00) scale(1,-1)">
    <path d="M1042 1200H1046Q1098 1166 1098 1068V1064Q1098 857 1138 632V568Q1138 475 1030 372Q965 232 834 232Q752 232 734 204Q682 108 682 -88Q742 -125 742 -132Q765 -173 770 -200H766Q682 -200 622 -124Q622 -99 658 120V148Q658 224 622 232Q592 240 586 240Q534 158 534 20Q534 -92 606 -180L610 -188L602 -192H598Q544 -192 518 -160Q518 -176 502 -184H490Q481 -184 478 -156Q506 76 506 104Q502 144 502 204Q374 239 374 296Q363 336 334 336H302L274 332Q262 358 262 388V424Q262 601 578 692Q679 712 730 712Q883 712 954 592Q1006 533 1006 524H1014Q1058 581 1058 660Q1049 1096 1022 1096Q1001 1100 982 1100L942 1096Q942 1136 1042 1200Z" fill="param(fill) #111111" fill-opacity="param(fill-opacity) 1" stroke="param(outline) none" stroke-opacity="param(outline-opacity) 1" stroke-width="param(outline-width) 0" stroke-linejoin="round"/>
  </g>
</svg>
