<svg xmlns="http://www.w3.org/2000/svg" width="100%" height="100%" viewBox="0 0 1624.00 1624.00">
  <g transform="translate(112.00,1312.00) scale(1,-1)">
    <path d="M938 1200H946Q970 1200 1030 1120Q1062 1096 1062 1068Q1058 1018 1046 988H1034Q993 1073 986 1080Q937 1100 894 1100Q882 1080 882 1060Q882 1004 1002 912Q1094 805 1094 752V720Q1094 605 778 520Q723 496 706 312Q686 147 686 -4V-80Q686 -156 706 -156Q777 -160 802 -172V-180Q728 -200 710 -200H702Q662 -200 662 40Q658 169 658 184Q678 318 686 428Q682 435 682 448V464H662Q576 399 538 348Q538 336 626 288Q644 281 654 264V244H650Q494 309 474 332V336Q474 361 570 424Q629 477 634 492V500Q477 560 438 560H378Q350 560 318 524H314Q322 557 342 596H338L310 556H306V564Q311 617 418 728Q586 844 726 844Q881 844 962 688L982 684H986Q1022 684 1030 736Q1030 822 878 956Q834 1013 834 1068Q859 1200 938 1200ZM710 236H714Q770 211 770 136Q766 63 766 44L758 40Q741 59 714 160V188Z" fill="param(fill) #111111" fill-opacity="param(fill-opacity) 1" stroke="param(outline) none" stroke-opacity="param(outline-opacity) 1" stroke-width="param(outline-width) 0" stroke-linejoin="round"/>
  </g>
</svg>
