<svg xmlns="http://www.w3.org/2000/svg" width="100%" height="100%" viewBox="0 0 1624.00 1624.00">
  <g transform="translate(112.00,1312.00) scale(1,-1)">
    <path d="M52 1152H84Q419 1152 656 712Q672 672 672 664H676Q676 684 700 684Q718 678 732 668Q751 774 940 988Q1120 1152 1328 1152H1348Q1400 1145 1400 1108V1096Q1400 1059 1352 944Q1340 869 1300 736Q1300 702 1260 632Q1226 572 1164 572Q1192 555 1212 496Q1248 476 1248 440Q1238 400 1236 400Q1236 396 1268 352V328Q1268 323 1220 276V272Q1220 259 1252 220V200Q1252 191 1196 156Q1192 149 1192 140V124Q1192 47 1284 -88L1288 -116V-132Q1288 -137 1268 -152H1244Q1220 -152 1188 12Q1172 44 1144 44Q1129 44 1104 12H1100Q1050 16 1040 16Q1021 -20 1000 -20H988Q982 -20 972 -4V52Q941 36 932 36Q914 36 872 180L752 396Q728 475 728 484H724V476Q728 416 728 388Q723 312 704 312H696Q676 312 672 396Q676 466 676 480V484H672Q664 396 552 228Q525 175 480 40L460 36L432 52H428V-4Q428 -10 412 -20H392Q389 -20 356 16L292 12Q281 44 248 44Q211 44 180 -128Q160 -152 144 -152H132Q112 -142 112 -120Q112 -87 192 40Q212 109 212 128Q212 165 160 184L148 200V208Q148 225 180 264V276Q132 323 132 328V340Q132 357 164 396Q160 422 152 440Q152 460 204 524Q204 547 236 572Q138 572 100 736Q76 827 76 836Q67 848 40 972Q0 1052 0 1100V1108Q0 1152 52 1152ZM248 976Q279 940 304 940H312Q321 941 336 976L280 980Q258 976 248 976ZM1068 976Q1076 940 1088 940H1096Q1121 940 1152 976Q1149 976 1120 980Q1118 980 1068 976ZM748 636Q919 754 1036 856Q1068 906 1068 932Q1057 972 1020 972Q948 961 868 860Q748 678 748 636ZM336 936V916Q336 846 612 668Q637 640 652 640V644Q596 791 488 908Q428 968 388 968H372Q336 968 336 936ZM212 916Q223 897 296 892H324Q324 928 288 928Q259 928 212 916ZM1076 892H1108Q1129 892 1188 908V912Q1188 924 1096 928Q1076 928 1076 892ZM188 864Q226 836 360 820H376Q331 876 308 876H268Q245 876 188 864ZM1024 820H1028Q1084 820 1216 856Q1216 870 1132 876H1092Q1070 876 1024 820ZM224 788Q300 752 392 752Q417 756 452 756Q411 808 324 808Q226 803 224 788ZM948 764V756H968Q995 756 1016 752Q1078 752 1176 784V788Q1176 802 1072 808Q1009 808 948 764ZM204 692Q208 677 312 668Q368 668 464 672Q518 672 616 640H620V644Q482 740 448 740H368Q310 740 204 692ZM788 644H792Q891 672 940 672Q950 672 1048 668V664L1056 668H1092Q1116 668 1192 684V688Q1192 706 1052 740H976Q902 740 788 644ZM288 600 308 596H392Q462 596 588 628V636Q528 652 484 652H456Q323 652 296 612ZM816 636V628Q933 596 1020 596H1112V600Q1089 652 952 652H916Q868 652 816 636ZM272 472H276Q524 511 524 544Q478 556 444 556Q364 556 276 480ZM876 544Q876 511 1128 472V476Q1128 500 992 552Q977 556 956 556Q931 556 876 544ZM472 460Q480 436 488 436H504Q533 436 656 540L660 548H656Q472 537 472 460ZM736 548Q862 437 904 432Q928 440 928 464Q914 540 748 548ZM772 496V492Q832 408 872 260Q872 211 924 172Q932 168 936 168V172Q840 456 780 492ZM468 180V172Q516 172 560 364Q598 449 628 492H624Q568 462 512 300Q468 199 468 180ZM224 408V396Q224 383 272 368Q377 405 456 472V488Q367 485 248 432ZM940 484Q940 456 1096 380Q1118 368 1132 368Q1176 380 1176 408Q1089 484 940 484ZM236 296V280L264 272H304Q329 272 464 424V432Q464 440 456 440H448Q325 372 240 304ZM940 440 936 432V424Q1070 272 1100 272H1140Q1161 272 1164 284Q1164 324 996 412Q996 423 940 440ZM396 168Q396 162 404 136H416Q453 170 548 436Q507 436 408 224Q396 198 396 168ZM856 432V428Q939 191 984 136H996Q1004 161 1004 176Q1004 230 892 408Q866 432 864 432ZM316 200Q323 180 336 180Q378 180 488 416Q371 312 320 224ZM916 412Q916 390 1032 196Q1050 180 1068 180Q1084 184 1084 204Q1070 268 928 408L920 412Z" fill="param(fill) #111111" fill-opacity="param(fill-opacity) 1" stroke="param(outline) none" stroke-opacity="param(outline-opacity) 1" stroke-width="param(outline-width) 0" stroke-linejoin="round"/>
  </g>
</svg>
