<svg xmlns="http://www.w3.org/2000/svg" width="100%" height="100%" viewBox="0 0 1624.00 1624.00">
  <g transform="translate(112.00,1312.00) scale(1,-1)">
    <path d="M906 1200H922Q994 1195 1018 1112Q1018 1074 1062 1020Q1101 953 1186 848V840Q1186 832 1178 832H1170Q984 1040 954 1040V1024L978 768V732Q978 548 786 412Q737 384 722 384V372Q722 110 830 -120Q843 -133 922 -168V-184Q914 -184 914 -188Q796 -180 758 -180Q750 -170 750 -168Q798 -134 798 -104Q694 121 694 340V376H674Q666 375 666 368Q658 232 658 172V76Q658 -136 690 -136Q692 -144 734 -172V-180Q734 -190 678 -200H646Q594 -192 594 -180V-176Q638 -139 638 -124Q626 -14 626 88V144Q626 314 642 372Q576 376 542 376H518Q376 376 258 232Q243 197 234 196H226Q220 196 214 208V264Q214 400 422 680Q591 872 806 872Q839 868 866 868Q870 890 870 904Q870 942 830 1096V1120Q846 1200 906 1200Z" fill="param(fill) #111111" fill-opacity="param(fill-opacity) 1" stroke="param(outline) none" stroke-opacity="param(outline-opacity) 1" stroke-width="param(outline-width) 0" stroke-linejoin="round"/>
  </g>
</svg>
