<svg xmlns="http://www.w3.org/2000/svg" width="100%" height="100%" viewBox="0 0 1614.72 1614.72">
  <g transform="translate(107.36,1307.36) scale(1,-1)">
    <path d="M1100 1196H1156Q1178 1184 1188 1136V1120Q1188 1104 1168 1044L1172 1036V1032Q1172 993 1188 896H1180L1148 984L1140 988H1136Q1164 800 1164 772Q1164 645 948 464Q917 432 784 344Q752 298 752 244Q752 151 820 -100Q876 -80 888 -80L892 -88V-92Q879 -92 848 -108L872 -148V-156L824 -152V-188Q824 -196 816 -196L740 112Q712 177 712 216Q744 304 744 316Q744 346 732 348Q692 265 692 132V104Q692 88 688 72Q692 57 692 40V-16Q745 4 760 4Q760 -1 704 -40V-44L768 -72V-80Q648 -72 648 -24Q641 -24 636 4L644 8H656V4Q652 -4 652 -8H656Q672 -8 672 212V220Q672 247 696 344H644Q348 344 348 132V68Q348 34 352 -40Q343 -40 332 -4Q323 -4 312 -68H308Q284 -68 284 120H280Q280 51 240 -20H232V-16Q232 -6 236 44Q228 44 220 16H212V20Q212 229 464 636Q570 756 648 780Q800 856 920 856Q967 856 1048 812Q1050 812 1064 808Q1083 808 1092 872Q1092 920 1016 1080Q1008 1110 1008 1120Q1008 1196 1100 1196Z" fill="param(fill) #111111" fill-opacity="param(fill-opacity) 1" stroke="param(outline) none" stroke-opacity="param(outline-opacity) 1" stroke-width="param(outline-width) 0" stroke-linejoin="round"/>
  </g>
</svg>
