<svg xmlns="http://www.w3.org/2000/svg" width="100%" height="100%" viewBox="0 0 1624.00 1624.00">
  <g transform="translate(112.00,1312.00) scale(1,-1)">
    <path d="M460 836H464V832Q440 765 440 736V708Q440 616 588 592Q580 618 580 628Q580 656 616 732H620Q628 732 652 676Q686 680 704 680Q739 676 744 676Q755 688 772 732H784Q820 664 820 628Q820 622 812 592Q960 616 960 708V736Q960 761 936 836H940Q1157 789 1284 668Q1400 549 1400 412V396H1396Q1280 492 1204 492H1188Q1110 492 1060 368Q1030 376 1004 376H992Q888 376 888 264Q892 248 892 236H884Q856 260 828 260H808Q750 260 700 164Q650 260 592 260H572Q544 260 516 236H508V240L512 264Q512 376 408 376H396Q370 376 340 368Q290 492 212 492H196Q121 492 4 396H0V412Q0 693 416 828Q421 828 460 836Z" fill="param(fill) #111111" fill-opacity="param(fill-opacity) 1" stroke="param(outline) none" stroke-opacity="param(outline-opacity) 1" stroke-width="param(outline-width) 0" stroke-linejoin="round"/>
  </g>
</svg>
