<svg xmlns="http://www.w3.org/2000/svg" width="100%" height="100%" viewBox="0 0 1624.00 1624.00">
  <g transform="translate(112.00,1312.00) scale(1,-1)">
    <path d="M1032 1200H1052Q1121 1174 1164 1132V1128Q1117 1128 1052 1088H1032L1040 1076Q1028 1056 1028 1036V1000Q1028 971 1124 760L1136 684Q1136 554 964 444Q930 428 920 428V432Q920 435 924 456V460H920Q897 411 820 296Q792 247 792 200Q835 -128 920 -128Q1020 -137 1020 -180L1012 -184H1000Q987 -184 980 -180L956 -184H932Q896 -152 892 -152H888Q916 -180 916 -192Q903 -200 892 -200H860Q828 -200 804 -144Q798 -144 772 36Q732 175 700 240V252L732 352H712L716 344V336Q584 275 584 68Q582 60 576 -28Q576 -132 680 -132Q744 -143 744 -180V-184L724 -180Q686 -184 652 -184Q638 -157 620 -152H616V-156Q631 -156 644 -196L636 -200H600Q540 -200 540 -156Q516 -138 516 -112Q536 72 536 132V144Q536 190 524 268Q524 297 592 336H600Q601 328 608 328V332Q604 340 604 344Q521 304 492 304H488Q480 304 480 312V324L484 344Q470 352 464 368Q471 385 488 404Q452 404 452 420Q452 438 492 488H488Q424 429 424 388V380Q424 370 436 328Q423 320 416 320Q392 332 392 348H388V336Q388 318 396 272L388 268L368 272Q376 259 376 248V244H356L360 236Q360 228 352 228H340Q340 220 328 220Q236 263 236 356V380Q236 425 272 512Q266 512 260 524V532Q275 596 396 664Q630 748 688 760Q719 760 744 764Q810 764 944 704Q959 696 976 696H984Q1040 696 1040 764L964 976Q956 1016 956 1048V1080Q956 1174 1032 1200ZM496 492H500Q505 492 520 512H516Q511 512 496 492ZM692 364V360H700V364ZM616 328V324H628Q667 333 680 352H676Q648 331 616 328Z" fill="param(fill) #111111" fill-opacity="param(fill-opacity) 1" stroke="param(outline) none" stroke-opacity="param(outline-opacity) 1" stroke-width="param(outline-width) 0" stroke-linejoin="round"/>
  </g>
</svg>
