<svg xmlns="http://www.w3.org/2000/svg" width="100%" height="100%" viewBox="0 0 1624.00 1624.00">
  <g transform="translate(112.00,1312.00) scale(1,-1)">
    <path d="M1126 1200H1154Q1334 1128 1334 1096Q1342 1096 1342 1076V1068Q1342 1039 1330 1036Q1330 1050 1286 1056H1274Q1230 1008 1194 1008V1004Q1238 951 1238 888V884L1266 880V872H1254V868Q1275 868 1286 848V844L1266 848Q1294 820 1294 804H1286Q1294 791 1294 780V772H1286L1290 752V740L1278 748V744Q1286 729 1286 712V708Q1283 708 1266 728V724L1274 688H1270L1262 692L1266 664V656Q1250 676 1246 676V668Q1246 660 1250 660Q1250 413 1050 300Q914 193 914 76Q886 30 882 0Q889 -144 902 -144Q1002 -164 1102 -164Q1122 -167 1122 -176V-180H1098Q1052 -200 1038 -200H994Q894 -188 862 -176Q847 -184 830 -184Q813 -184 798 -176Q785 -184 778 -184V-180Q778 -165 834 -152Q834 -148 838 -140Q834 -36 834 24L818 12Q801 42 774 52Q774 44 766 44Q749 76 722 80Q718 88 718 92Q599 -4 494 -4H478Q474 -4 474 0Q454 -13 362 -44Q213 -188 182 -188H162Q154 -188 154 -180V-168Q154 -150 178 -120H174Q120 -156 90 -156H70Q62 -156 62 -148Q62 -127 82 -92Q58 -73 58 -52V-48Q58 -31 66 -16Q58 -1 58 16V24Q58 58 150 152Q317 356 358 416Q403 578 514 648Q655 739 846 824Q918 865 946 896Q934 896 934 904L938 912Q930 912 930 920Q936 924 954 924V928H938V932Q938 936 954 944V956H970V960H962V968H982L1002 964Q994 1004 994 1044V1056Q994 1158 1094 1196Q1110 1200 1126 1200Z" fill="param(fill) #111111" fill-opacity="param(fill-opacity) 1" stroke="param(outline) none" stroke-opacity="param(outline-opacity) 1" stroke-width="param(outline-width) 0" stroke-linejoin="round"/>
  </g>
</svg>
