<svg xmlns="http://www.w3.org/2000/svg" width="100%" height="100%" viewBox="0 0 1624.00 1624.00">
  <g transform="translate(112.00,1312.00) scale(1,-1)">
    <path d="M664 1200H808Q977 1188 992 1112V1104Q992 1087 936 964V936Q957 828 1044 828Q1065 828 1080 824L1100 828Q1212 828 1236 780Q1236 764 1340 736V728L1300 732H1280Q1097 699 1032 636Q1024 617 1024 588Q1024 516 1156 432Q1176 413 1176 392Q1176 244 1048 104Q1031 44 840 -140Q759 -200 728 -200V-196Q804 -66 804 -64Q892 197 928 284Q928 322 808 448Q751 552 744 552Q653 552 144 280Q73 252 64 252H60V256Q82 290 292 384L384 456H380Q358 456 128 368Q107 364 104 364V368Q160 410 488 544Q712 656 712 732Q704 817 704 832Q704 856 740 996V1040Q572 1132 380 1132V1140Q526 1200 664 1200Z" fill="param(fill) #111111" fill-opacity="param(fill-opacity) 1" stroke="param(outline) none" stroke-opacity="param(outline-opacity) 1" stroke-width="param(outline-width) 0" stroke-linejoin="round"/>
  </g>
</svg>
