<svg xmlns="http://www.w3.org/2000/svg" width="100%" height="100%" viewBox="0 0 1619.36 1619.36">
  <g transform="translate(109.68,1309.68) scale(1,-1)">
    <path d="M1172 1198H1212Q1344 1189 1344 1170Q1236 1145 1236 1110Q1209 1110 1176 882Q1147 799 1080 766Q975 706 884 706Q912 638 976 614Q1040 600 1040 586V582H1028Q1017 582 1004 590H1000V586Q1012 586 1020 570Q1020 562 1012 562Q952 598 936 598Q908 595 908 586Q972 572 972 558L968 550Q955 558 944 558H940L952 542V538H948L868 570Q806 554 796 546H792V550Q792 566 840 582V590Q840 600 772 710Q668 626 668 418H660V466Q660 576 696 666V670H692Q636 555 636 390V358Q636 251 648 150H640Q592 320 592 534H588V406Q588 279 640 66H632Q600 163 600 174H596V170Q604 115 636 -38H628Q584 88 584 102H580V98L620 -62H612L596 -10H592V-14L612 -94H604Q532 128 532 162H528V150Q548 -11 596 -198H588Q492 83 492 154H488V142Q512 -7 544 -102H536Q500 -17 468 98H464V86Q472 -21 500 -182H492Q464 -134 404 138L376 258H372V214Q372 70 424 -186H416Q368 -27 348 70H344L348 78Q316 249 316 382Q320 437 320 450V458H316L312 410V334H304V362H300V210Q300 175 340 82Q333 82 312 130H308V122Q312 56 340 -114H332Q261 120 256 298Q244 328 244 362H240V286Q240 224 256 130H248Q212 263 212 350Q216 424 224 466V470H220Q204 411 204 278H196V302H192V246Q192 225 208 166Q195 166 168 286Q164 292 164 310H160L156 262V86H148V90Q148 108 132 226H128V214Q128 125 164 -62H160Q152 -62 104 114Q76 267 76 390Q76 460 88 558V566H84Q72 495 72 446V378H64Q56 459 56 506V562Q56 837 288 1010Q394 1062 460 1062V1066H428Q318 1066 176 958L124 910V914Q198 1023 360 1074L420 1090V1094H416Q347 1086 280 1062V1066Q312 1101 472 1118H540Q655 1118 740 1030V1034Q664 1142 508 1142H464V1150Q521 1158 544 1158H552Q739 1158 824 966Q845 978 1056 1046Q1085 1073 1108 1170Q1141 1198 1172 1198ZM1176 1162H1192Q1200 1162 1200 1170H1184Q1176 1169 1176 1162ZM812 682Q841 623 876 602Q906 602 908 614V618Q908 629 860 706H824Q816 706 812 682ZM88 578V570H92V578ZM320 478V470H324V478ZM472 326V318H476V326ZM476 250V238H480V250ZM480 210V190H484V210ZM484 182V158H488V182ZM524 178V166H528V178ZM304 142V134H308V142ZM572 134V122H576V134ZM576 118V106H580V118ZM460 114V106H464V114ZM588 2V-6H592V2Z" fill="param(fill) #111111" fill-opacity="param(fill-opacity) 1" stroke="param(outline) none" stroke-opacity="param(outline-opacity) 1" stroke-width="param(outline-width) 0" stroke-linejoin="round"/>
  </g>
</svg>
