<svg xmlns="http://www.w3.org/2000/svg" width="100%" height="100%" viewBox="0 0 1624.00 1624.00">
  <g transform="translate(112.00,1312.00) scale(1,-1)">
    <path d="M780 990H808Q830 990 868 978Q1264 978 1372 798Q1400 759 1400 706V686Q1400 680 1388 674Q1329 754 1172 754Q1095 758 1036 758Q904 758 904 722Q877 692 864 650Q872 616 872 562V546Q824 428 660 338Q614 322 568 310Q618 258 668 258Q788 252 788 222V210H784Q768 230 748 230V226L752 206H744Q744 219 724 230H712Q702 222 700 222L556 242Q536 250 528 250Q568 190 632 190Q665 178 676 158V142Q656 166 652 166H640V162Q684 122 684 118V90H676V110Q676 115 652 130L644 126H640Q617 154 496 178Q445 199 428 222H424L412 214H408V218Q416 236 424 238Q431 238 492 206Q512 198 520 198L524 206V210Q524 215 452 290Q340 290 264 238Q229 238 148 114Q120 86 36 38Q36 32 4 10Q4 14 0 14Q106 180 148 258L176 342Q120 342 120 354V358Q120 379 240 518Q353 607 528 722Q564 756 640 906Q717 986 780 990ZM496 290Q496 274 588 258Q587 270 536 302Q496 299 496 290Z" fill="param(fill) #111111" fill-opacity="param(fill-opacity) 1" stroke="param(outline) none" stroke-opacity="param(outline-opacity) 1" stroke-width="param(outline-width) 0" stroke-linejoin="round"/>
  </g>
</svg>
