<svg xmlns="http://www.w3.org/2000/svg" width="100%" height="100%" viewBox="0 0 1614.72 1614.72">
  <g transform="translate(107.36,1307.36) scale(1,-1)">
    <path d="M256 982H260Q309 982 380 890Q474 699 600 578Q627 567 696 366Q762 246 788 246Q818 246 880 330Q978 409 1100 430Q1304 512 1312 562Q1332 608 1332 662V702H1336Q1346 702 1352 666Q1354 666 1372 682Q1372 678 1376 678Q1360 636 1360 622Q1378 638 1396 638V630Q1367 630 1352 570H1380Q1386 570 1396 554V550H1392Q1383 550 1376 554Q1346 553 1324 510Q1324 506 1320 498Q1344 484 1344 462V458H1340Q1323 474 1304 478Q1295 463 1272 450L1276 442V418H1272Q1259 426 1252 426Q1227 389 1120 334Q949 218 928 142V134Q981 94 992 38V34Q986 18 980 18Q966 36 904 42L896 50Q878 42 860 42Q838 46 828 46Q828 37 764 26Q702 26 624 74L604 70Q575 86 568 86Q568 78 560 78H552Q546 78 536 94Q559 106 568 106V114L564 122Q546 114 508 114Q463 114 392 166Q371 166 364 182V190Q435 182 548 178V182Q524 213 460 274Q445 289 404 354Q389 354 364 406Q368 414 368 418L352 478V502Q341 502 332 542Q317 570 312 570Q249 633 216 646Q212 654 212 658L200 650Q177 662 148 662V670Q184 682 208 682V690Q158 698 124 698H92Q84 698 84 710L64 698H40L12 694L8 702Q37 732 152 746L232 738H236V742Q124 774 40 774H16L8 770L4 778Q46 802 88 802Q177 802 268 766H272V770Q111 858 48 874V882H88Q165 882 304 794H308Q185 902 120 926V934H124Q193 934 320 834H324Q245 920 184 962V966H188Q280 947 388 814V818Q342 905 256 978Z" fill="param(fill) #111111" fill-opacity="param(fill-opacity) 1" stroke="param(outline) none" stroke-opacity="param(outline-opacity) 1" stroke-width="param(outline-width) 0" stroke-linejoin="round"/>
  </g>
</svg>
