<svg xmlns="http://www.w3.org/2000/svg" width="100%" height="100%" viewBox="0 0 1624.00 1624.00">
  <g transform="translate(112.00,1312.00) scale(1,-1)">
    <path d="M964 1166Q1078 1123 1156 966Q1184 903 1184 838V834Q1315 789 1400 702V698Q1400 690 1392 690Q1269 766 1172 766H1168Q1068 737 1068 698Q1060 666 1060 630Q1060 621 1068 434V430Q1068 220 808 102V94Q808 -34 908 -66Q1016 -81 1016 -90V-94Q1016 -110 968 -110H960L812 -82H788Q764 -82 736 -102H732Q724 -102 724 -94V-86Q724 -75 796 -46L800 -26L760 86Q673 66 584 54Q431 -96 196 -158Q148 -166 120 -166H96Q41 -166 0 -122V-110L212 6Q317 73 440 190Q440 333 608 506Q755 595 840 682V694Q828 758 828 818V822Q828 851 840 894H836Q784 866 772 866Q764 866 764 874L776 934Q743 914 732 914Q728 922 728 926Q747 961 816 1026Q780 1026 780 1038V1042Q840 1090 904 1090L868 1126Q869 1134 876 1134H880Q922 1134 992 1110Q956 1145 956 1162Z" fill="param(fill) #111111" fill-opacity="param(fill-opacity) 1" stroke="param(outline) none" stroke-opacity="param(outline-opacity) 1" stroke-width="param(outline-width) 0" stroke-linejoin="round"/>
  </g>
</svg>
