<svg xmlns="http://www.w3.org/2000/svg" width="100%" height="100%" viewBox="0 0 1624.00 1624.00">
  <g transform="translate(112.00,1312.00) scale(1,-1)">
    <path d="M930 1200H942Q948 1200 954 1188V1180Q954 1124 882 1068V1060Q989 1013 1022 944V940Q1018 940 1018 936Q995 952 874 972L866 968Q734 968 734 948Q774 888 774 808V792Q774 648 706 504V468Q762 423 762 416H754Q720 436 706 436H702Q686 436 662 412V416L678 444V456Q626 384 606 364Q582 340 574 340L598 -124Q564 -144 530 -152Q530 -192 494 -192Q494 -200 474 -200Q474 -196 446 -172V-132H442Q442 -152 410 -152Q402 -152 402 -144Q418 270 422 292Q378 326 378 444V512Q378 627 446 772Q542 888 582 888H590Q618 868 618 840V820Q649 820 654 836V848Q570 910 570 964V980Q570 1058 706 1116Q713 1152 742 1152H814Q891 1152 930 1200Z" fill="param(fill) #111111" fill-opacity="param(fill-opacity) 1" stroke="param(outline) none" stroke-opacity="param(outline-opacity) 1" stroke-width="param(outline-width) 0" stroke-linejoin="round"/>
  </g>
</svg>
