<svg xmlns="http://www.w3.org/2000/svg" width="100%" height="100%" viewBox="0 0 1624.00 1624.00">
  <g transform="translate(112.00,1312.00) scale(1,-1)">
    <path d="M1044 1200Q1176 1182 1176 1068V1044Q1176 982 1124 936H1116Q1116 964 1072 964H1028Q933 964 900 872Q862 709 824 664L816 660H812L788 680H784Q773 679 728 576Q828 520 828 472L824 452H820Q799 480 780 480V472H772Q764 473 748 512Q732 536 700 536Q625 536 600 460Q590 432 580 432Q568 446 568 472H560Q537 419 432 104H400L392 108Q364 25 356 24Q320 24 320 -48Q306 -140 300 -140H284Q280 -200 268 -200Q240 -184 240 -152V-128L264 28V32H260Q260 27 232 -28H224V-24L288 176V180H284Q261 125 236 108H232Q232 129 324 328L336 400V404H332Q298 348 292 348V356L332 480H328Q320 481 316 504Q404 799 428 868Q617 1088 700 1088Q940 1200 1008 1200Z" fill="param(fill) #111111" fill-opacity="param(fill-opacity) 1" stroke="param(outline) none" stroke-opacity="param(outline-opacity) 1" stroke-width="param(outline-width) 0" stroke-linejoin="round"/>
  </g>
</svg>
