<svg xmlns="http://www.w3.org/2000/svg" width="100%" height="100%" viewBox="0 0 1624.00 1624.00">
  <g transform="translate(112.00,1312.00) scale(1,-1)">
    <path d="M1040 1092H1064Q1154 1092 1236 992Q1236 959 1304 944H1316V928L1308 916Q1400 815 1400 768V760Q1400 739 1340 688Q1332 658 1304 632H1300V704Q1300 744 1220 744L1232 728V720Q1214 720 1168 604Q1128 556 1092 460Q1028 356 980 356Q896 334 896 308Q896 302 888 272V268H892Q903 336 960 336Q972 336 972 332Q928 150 928 116Q928 39 976 -24L980 -48Q976 -60 956 -60H952Q904 -60 904 -32Q896 0 876 28Q876 37 872 44Q876 100 876 140V212H872Q828 81 828 32Q860 -78 860 -84Q853 -88 824 -92Q784 -92 784 -56Q784 -31 764 -8Q784 103 784 120V228Q784 272 776 304Q659 292 652 292Q489 292 324 356L268 296V292Q284 299 324 344H328Q376 328 380 328V320Q284 244 284 236V212Q284 35 352 -12Q364 -50 364 -52Q349 -60 332 -60H304Q278 -60 256 -8Q233 -8 220 140Q204 202 204 244Q152 218 152 156Q167 -36 204 -36Q224 -60 224 -92H156Q149 -92 112 -32Q95 -32 84 168Q79 168 76 232Q76 251 120 300Q132 331 132 356V376Q108 546 108 568V576Q108 627 132 668Q128 668 128 672Q115 664 104 664H88Q11 664 0 760V784Q1 792 8 792Q78 732 156 732Q171 732 284 780L376 788Q595 776 704 776Q877 796 912 796H940Q1006 796 1048 884Q1096 934 1096 944Q1047 1020 964 1020Q964 1025 908 1036V1044Q951 1057 996 1060Q1075 1060 1160 976H1164V980Q1145 1024 1076 1052Q1016 1072 1008 1084Q1023 1092 1040 1092ZM884 260V252H888V260ZM880 248V236H884V248ZM876 228V216H880V228Z" fill="param(fill) #111111" fill-opacity="param(fill-opacity) 1" stroke="param(outline) none" stroke-opacity="param(outline-opacity) 1" stroke-width="param(outline-width) 0" stroke-linejoin="round"/>
  </g>
</svg>
