<svg xmlns="http://www.w3.org/2000/svg" width="100%" height="100%" viewBox="0 0 1624.00 1624.00">
  <g transform="translate(112.00,1312.00) scale(1,-1)">
    <path d="M810 1200Q849 1200 954 1080Q1029 1031 1082 848Q1207 805 1250 732Q1318 656 1322 624V620Q1322 539 1206 488L1194 472Q1194 459 1198 356Q1198 223 1030 96Q1010 71 1010 -80Q1010 -105 1062 -120Q1082 -133 1082 -152V-156Q1082 -195 1030 -200H998Q922 -200 894 -144Q882 -124 854 -20H846L706 -80V-84Q890 -84 890 -176Q890 -193 754 -196H694Q516 -196 326 -164H322Q310 -164 222 -200H206Q78 -164 78 -104V-84Q78 -48 134 8Q110 113 110 148V164Q110 388 346 556Q447 608 534 608H546Q591 608 782 576H794Q842 576 842 660V664Q694 684 566 732Q470 771 470 816Q633 848 742 848Q803 848 914 792Q930 816 930 824L822 996Q798 1062 798 1120Q798 1200 810 1200ZM1066 684Q1089 652 1118 652H1134Q1134 679 1066 684Z" fill="param(fill) #111111" fill-opacity="param(fill-opacity) 1" stroke="param(outline) none" stroke-opacity="param(outline-opacity) 1" stroke-width="param(outline-width) 0" stroke-linejoin="round"/>
  </g>
</svg>
