<svg xmlns="http://www.w3.org/2000/svg" width="100%" height="100%" viewBox="0 0 1624.00 1624.00">
  <g transform="translate(112.00,1312.00) scale(1,-1)">
    <path d="M1096 1200H1112Q1188 1200 1188 1000Q1200 931 1260 780Q1260 778 1264 728Q1264 714 1252 620Q1352 530 1352 516Q1384 435 1384 424V376Q1384 200 1296 136Q1260 88 1204 88H1200Q1130 88 928 196Q920 196 920 192Q988 103 988 72L976 64Q951 64 880 160Q844 200 840 200V196Q924 -49 924 -120Q910 -200 856 -200H812Q678 -161 648 -132Q648 -124 564 -52Q564 -37 512 40Q508 62 508 76Q424 76 308 220Q206 285 200 300Q118 350 80 424Q16 462 16 504V512Q16 568 128 576H140Q352 576 688 384V388L672 416L676 464Q676 525 652 556H656Q680 546 688 452Q724 461 724 500H732V464Q757 432 760 432Q775 647 808 748Q975 1200 1096 1200ZM668 620Q676 619 676 612V608H668ZM684 604H688Q694 604 716 576V568Q712 568 684 604ZM616 584V572Q608 572 608 580ZM632 572H636Q642 572 648 560H644Q636 564 632 564ZM716 564Q724 563 724 556V552H716ZM720 544H728V532H720ZM696 384Q697 376 704 376V384Z" fill="param(fill) #111111" fill-opacity="param(fill-opacity) 1" stroke="param(outline) none" stroke-opacity="param(outline-opacity) 1" stroke-width="param(outline-width) 0" stroke-linejoin="round"/>
  </g>
</svg>
