<svg xmlns="http://www.w3.org/2000/svg" width="100%" height="100%" viewBox="0 0 1624.00 1624.00">
  <g transform="translate(112.00,1312.00) scale(1,-1)">
    <path d="M1176 1050H1188Q1227 1050 1284 990Q1400 987 1400 966V962Q1383 870 1340 870Q1340 862 1328 862V858H1340Q1342 858 1356 862Q1364 844 1364 826Q1364 822 1344 798L1296 802H1244L1204 806Q1204 767 1124 618Q1104 501 1096 490Q1036 396 1036 362Q1032 259 1032 186Q1032 86 1080 86Q1112 65 1112 42Q1105 22 1092 22Q1045 22 1012 54V50Q1012 32 1068 6Q1084 -12 1084 -14V-38Q1084 -46 1076 -46H1052Q986 -46 968 -2Q957 28 924 66Q896 265 872 358Q820 356 820 350Q729 350 528 430Q501 434 484 434H452Q360 434 308 318Q254 258 184 202Q180 195 180 186V146Q196 146 212 122V110Q208 98 188 98H168Q140 116 140 138Q125 138 100 18Q148 -6 148 -34Q142 -50 120 -50H112Q47 -50 36 10Q56 120 56 150V170Q56 187 120 262L112 266Q112 255 56 242Q15 242 0 270V278Q2 287 80 310Q120 340 120 486Q120 658 232 694Q328 730 376 730Q422 730 644 714Q710 714 932 830Q956 877 1024 954Q1082 1050 1176 1050Z" fill="param(fill) #111111" fill-opacity="param(fill-opacity) 1" stroke="param(outline) none" stroke-opacity="param(outline-opacity) 1" stroke-width="param(outline-width) 0" stroke-linejoin="round"/>
  </g>
</svg>
