<svg xmlns="http://www.w3.org/2000/svg" width="100%" height="100%" viewBox="0 0 1624.00 1624.00">
  <g transform="translate(112.00,1312.00) scale(1,-1)">
    <path d="M528 964H564Q660 964 940 864Q959 892 988 892Q1024 892 1080 820Q1173 820 1332 596Q1400 546 1400 516V492Q1377 452 1320 452Q1285 452 1132 416H1100Q1091 416 1048 428Q970 415 936 392Q936 384 1048 372Q1064 361 1064 352Q1053 322 1044 320H996Q947 320 796 352H788Q707 352 588 340Q612 321 612 308Q606 296 524 284Q512 292 496 292Q278 280 232 280Q184 285 184 312Q44 296 44 200Q44 115 256 80L312 76Q431 76 592 192Q611 204 636 204Q652 198 652 192V188H640Q599 174 464 80Q386 36 308 36H288Q146 36 24 124Q0 160 0 184V204Q0 219 44 376Q80 567 124 684Q197 845 348 916Q444 964 528 964ZM1088 636Q1093 596 1128 596H1140Q1170 596 1172 608V612Q1172 645 1124 652Q1088 648 1088 636Z" fill="param(fill) #111111" fill-opacity="param(fill-opacity) 1" stroke="param(outline) none" stroke-opacity="param(outline-opacity) 1" stroke-width="param(outline-width) 0" stroke-linejoin="round"/>
  </g>
</svg>
