<svg xmlns="http://www.w3.org/2000/svg" width="100%" height="100%" viewBox="0 0 1624.00 1624.00">
  <g transform="translate(112.00,1312.00) scale(1,-1)">
    <path d="M28 1048H36Q214 1048 480 832Q668 636 668 572H672V584Q668 591 668 600Q683 612 696 612H704Q732 612 732 584H736Q762 680 924 832Q1075 986 1340 1048H1372Q1400 1048 1400 1020V1004Q1400 925 1316 812Q1297 768 1236 580Q1172 448 1088 448Q1038 456 1008 456Q1124 362 1124 320Q1124 306 1108 288V264Q1108 239 1076 212Q1066 148 1032 148V96Q1032 69 976 44Q973 28 968 28L972 20V-12Q966 -48 936 -48L900 -44Q872 -48 852 -48Q826 -22 796 96Q752 127 752 300Q752 375 728 480H720V464Q728 292 728 280Q728 236 700 220Q678 220 672 284V292Q672 303 680 432V480Q653 480 640 160Q596 88 572 -16Q572 -31 540 -48Q521 -48 500 -44Q479 -48 460 -48Q428 -38 428 -12V40Q368 73 368 96V148Q336 148 324 196Q324 220 292 244Q292 280 276 320Q281 370 392 456H388Q311 451 308 448Q186 448 108 752Q84 815 24 908Q0 958 0 1004V1020Q0 1048 28 1048ZM148 964V956Q148 950 164 940H180Q210 940 212 952V956Q212 968 176 976H160Q154 976 148 964ZM1188 956V952Q1191 940 1220 940H1236Q1242 940 1252 956V964Q1252 970 1240 976H1224Q1188 968 1188 956ZM180 916Q180 876 220 876Q276 883 276 896Q276 915 216 928ZM1124 892Q1157 876 1184 876Q1216 879 1216 908V920L1196 924H1168Q1124 914 1124 892ZM216 848V844Q224 824 244 824H252Q279 824 324 836Q324 868 284 868Q216 865 216 848ZM1076 848V844Q1076 828 1148 824H1156Q1176 824 1184 844V848Q1184 863 1124 868Q1076 865 1076 848ZM252 792Q252 752 296 752Q368 752 376 780Q356 816 336 816Q252 810 252 792ZM1024 788V776Q1033 757 1112 752Q1148 752 1148 800Q1099 816 1068 816Q1026 800 1024 788ZM292 708Q303 680 336 680Q414 696 420 712Q414 748 388 748Q292 748 292 708ZM980 724V712Q980 695 1068 680Q1108 680 1108 724Q1108 736 1008 748Q990 741 980 724ZM336 644Q336 608 380 608Q432 608 464 644Q464 673 432 684Q336 673 336 644ZM936 656V652Q947 608 1028 608Q1057 608 1064 648Q1064 668 976 684Q950 684 936 656ZM376 568Q385 528 416 528Q512 540 512 568Q503 612 472 612Q376 602 376 568ZM888 564Q888 541 992 528Q1024 542 1024 572Q1024 600 928 612Q888 603 888 564ZM728 580V572H732V580ZM412 492Q419 472 432 472Q540 484 540 504Q540 526 524 532H520Q414 523 412 492ZM860 516V504Q860 482 976 472Q984 479 984 504Q938 532 880 532H876Q870 532 860 516ZM440 452Q440 416 500 380H508Q588 425 588 456V464Q588 471 564 484Q440 461 440 452ZM812 456V444Q854 395 892 380Q930 380 960 448Q960 463 880 472Q880 475 840 484Q812 479 812 456ZM520 360V344Q520 297 544 284H556Q612 332 612 392V408Q612 414 600 420H592Q534 379 520 360ZM792 420Q789 392 784 392Q816 284 844 284H856Q884 313 884 344Q884 371 808 420ZM376 284Q376 256 416 244Q460 251 460 284V288Q460 314 432 328H416Q383 328 376 284ZM968 288Q980 244 1012 244Q1052 257 1052 272V292Q1047 328 1016 328H1008Q968 319 968 288ZM608 320Q556 250 556 232L576 136H580Q607 136 612 292V320ZM788 320V288Q795 136 816 136H824Q840 202 840 244V248Q820 285 788 320Z" fill="param(fill) #111111" fill-opacity="param(fill-opacity) 1" stroke="param(outline) none" stroke-opacity="param(outline-opacity) 1" stroke-width="param(outline-width) 0" stroke-linejoin="round"/>
  </g>
</svg>
