<svg xmlns="http://www.w3.org/2000/svg" width="100%" height="100%" viewBox="0 0 1624.00 1624.00">
  <g transform="translate(112.00,1312.00) scale(1,-1)">
    <path d="M1176 1046H1196Q1306 1014 1312 1014H1316L1304 986Q1368 934 1400 842V830Q1400 801 1344 770Q1286 804 1192 818Q1220 792 1220 790Q1176 675 1128 482Q1081 373 984 330Q868 298 868 258Q812 171 812 94Q812 79 844 -26V-30Q844 -36 832 -42H800Q767 -42 760 22Q748 45 748 50Q772 176 772 206Q772 227 736 302Q639 290 532 286Q482 286 312 322H300Q282 322 208 254Q169 230 124 214V206Q124 39 168 18Q181 18 196 -38Q180 -46 152 -46H136Q111 -46 80 18Q64 18 40 302Q60 302 76 438Q52 602 52 630Q52 668 68 726Q63 726 36 650L28 646Q0 658 0 682V698Q0 790 172 858Q273 886 416 886Q588 878 844 878Q910 878 980 950Q1116 1046 1176 1046ZM932 298 940 294Q916 202 916 166Q916 94 968 14V-2Q968 -10 960 -10H916Q886 -10 880 54L864 74V230Q885 298 932 298ZM248 262 272 122Q272 97 332 14L336 -2Q313 -14 284 -14Q248 -14 232 38Q206 38 184 230Z" fill="param(fill) #111111" fill-opacity="param(fill-opacity) 1" stroke="param(outline) none" stroke-opacity="param(outline-opacity) 1" stroke-width="param(outline-width) 0" stroke-linejoin="round"/>
  </g>
</svg>
