<svg xmlns="http://www.w3.org/2000/svg" width="100%" height="100%" viewBox="0 0 1624.00 1624.00">
  <g transform="translate(112.00,1312.00) scale(1,-1)">
    <path d="M1134 1200H1150Q1294 1186 1294 1144Q1288 1126 1278 1112V1104Q1291 1081 1330 1044Q1358 1014 1358 996V980Q1358 945 1330 928H1314Q1304 928 1294 960H1286Q1274 904 1254 904H1218Q1201 904 1186 912V908Q1194 899 1202 808Q1202 741 1106 568Q1106 397 1062 232Q1062 181 1098 160Q1114 154 1114 132Q1106 128 1102 128Q1090 132 1090 136L1074 128Q994 139 994 188V196L998 204Q994 204 994 208L958 200L946 216V260Q946 292 902 416Q894 520 878 568H874Q829 524 810 524V436Q810 398 766 260V240Q767 232 774 232Q838 240 842 240Q887 240 934 196V192L914 168Q902 168 882 176Q789 168 710 148L694 156L666 132L694 124H698L722 128L730 124L754 128H762Q806 104 806 100Q806 75 646 68Q594 68 570 152Q620 231 646 340Q598 385 558 456Q436 550 414 628Q350 587 266 304Q226 137 206 -56Q149 -200 70 -200H42V-192Q150 -110 150 -32Q170 79 194 304Q264 578 378 748Q484 858 658 936Q693 952 898 1016Q1038 1071 1038 1124Q1038 1200 1134 1200Z" fill="param(fill) #111111" fill-opacity="param(fill-opacity) 1" stroke="param(outline) none" stroke-opacity="param(outline-opacity) 1" stroke-width="param(outline-width) 0" stroke-linejoin="round"/>
  </g>
</svg>
