<svg xmlns="http://www.w3.org/2000/svg" width="100%" height="100%" viewBox="0 0 1624.00 1624.00">
  <g transform="translate(112.00,1312.00) scale(1,-1)">
    <path d="M704 920Q721 896 760 896L764 888V864Q764 852 736 852Q763 820 788 820Q828 908 876 908L880 900Q839 900 800 804Q792 792 784 792L752 808V800Q764 781 792 768Q847 840 880 840Q848 812 832 788H836Q929 816 1100 852Q1239 912 1328 912Q1382 912 1400 880V868Q1400 810 1220 744Q1107 672 1028 672H980Q965 672 768 712Q776 703 892 668Q1016 612 1236 560Q1344 509 1344 464Q1344 418 1268 408Q983 450 932 484Q880 512 768 632H764L760 592V580L772 520H768Q740 564 740 592Q740 610 752 656L736 668Q736 665 740 644Q740 634 732 596Q736 574 736 564Q736 547 728 524Q732 502 732 488Q732 448 724 448L732 400Q729 376 724 376L728 368V308Q728 295 716 272Q728 213 728 132V128Q719 80 708 80Q708 86 696 92Q696 80 688 80Q672 109 672 132Q672 177 680 276Q672 302 672 312V340Q672 377 668 408L672 436Q668 484 668 508L672 524Q664 540 664 568V580Q664 589 668 596Q660 618 660 652Q664 666 664 668Q658 668 652 656V652Q652 646 660 588Q660 565 628 516V524Q640 573 640 592Q640 597 636 632H632Q481 468 420 468Q364 444 148 408H128Q71 408 56 464V468Q56 546 364 612Q527 676 632 708V712H628Q418 668 392 668Q305 668 124 768Q0 813 0 872V880Q20 912 60 912H80Q138 912 364 836Q492 812 568 788Q568 794 520 840H528Q547 840 604 772H616Q652 794 652 812Q623 792 608 792Q560 900 520 900V904L528 908Q570 904 616 816Q641 828 660 848V852Q632 852 632 880Q640 898 648 900H680Q680 916 704 920Z" fill="param(fill) #111111" fill-opacity="param(fill-opacity) 1" stroke="param(outline) none" stroke-opacity="param(outline-opacity) 1" stroke-width="param(outline-width) 0" stroke-linejoin="round"/>
  </g>
</svg>
