<svg xmlns="http://www.w3.org/2000/svg" width="100%" height="100%" viewBox="0 0 1624.00 1624.00">
  <g transform="translate(112.00,1312.00) scale(1,-1)">
    <path d="M1108 906H1120Q1139 906 1160 878H1176Q1176 891 1196 902H1200Q1210 902 1216 866Q1239 866 1328 802Q1400 774 1400 762V754Q1382 714 1232 706Q1135 672 1080 546Q1043 503 1012 486V466Q1044 326 1076 326Q1116 301 1116 294V282Q1116 270 1052 270H1044Q1021 287 944 414L924 430Q908 409 908 386V338Q908 329 960 314L964 306V294Q964 282 948 282Q860 282 860 342Q846 382 840 382Q844 429 844 450V474L840 502L740 490Q678 494 640 506Q640 490 596 414V398Q622 330 644 330L664 334H676Q684 332 692 314Q687 282 676 282H672Q584 282 584 322Q532 389 532 398Q540 413 540 430V446Q518 428 380 358Q356 342 356 322V290H380Q404 288 404 278V250Q404 244 392 238H328Q312 245 312 266Q312 288 316 378Q360 408 360 434Q333 554 296 554Q64 466 64 294Q64 208 124 174Q244 131 244 106V102Q244 94 236 94H232Q197 114 96 142Q0 219 0 290V330Q0 480 236 666Q430 818 568 818H576Q604 818 864 782Q923 778 944 778Q977 778 1056 846Q1100 864 1100 902ZM1228 798V786L1248 782Q1264 788 1264 794Q1251 802 1240 802Q1232 798 1228 798Z" fill="param(fill) #111111" fill-opacity="param(fill-opacity) 1" stroke="param(outline) none" stroke-opacity="param(outline-opacity) 1" stroke-width="param(outline-width) 0" stroke-linejoin="round"/>
  </g>
</svg>
