<svg xmlns="http://www.w3.org/2000/svg" width="100%" height="100%" viewBox="0 0 1624.00 1624.00">
  <g transform="translate(112.00,1312.00) scale(1,-1)">
    <path d="M220 1084H252Q324 1072 324 1020Q324 992 296 992H252Q180 992 168 892V888Q168 750 280 656H284L352 664Q382 664 860 604H912Q1021 604 1120 732Q1195 756 1220 800L1252 824H1256Q1264 740 1284 740Q1317 740 1376 604Q1392 591 1392 564V556Q1392 493 1280 488Q1200 462 1200 368V348Q1200 174 1340 24Q1400 -24 1400 -36V-52Q1390 -72 1364 -72Q1295 -70 1044 204Q1002 220 984 220Q879 220 804 4V-4Q818 -33 828 -48Q823 -84 792 -84H788Q745 -84 736 -8Q768 140 768 188Q768 248 620 248Q620 252 560 252Q482 252 456 180Q376 87 376 48Q376 -17 464 -32Q480 -51 480 -64Q474 -84 452 -84H428Q343 -84 276 56L272 92Q281 180 284 180Q280 204 276 204Q104 166 104 140Q89 140 60 20Q41 -16 16 -16Q6 -16 0 16V44Q0 189 100 288Q139 335 196 524Q204 525 208 548Q64 699 64 880Q64 1024 196 1080Z" fill="param(fill) #111111" fill-opacity="param(fill-opacity) 1" stroke="param(outline) none" stroke-opacity="param(outline-opacity) 1" stroke-width="param(outline-width) 0" stroke-linejoin="round"/>
  </g>
</svg>
