<svg xmlns="http://www.w3.org/2000/svg" width="100%" height="100%" viewBox="0 0 1624.00 1624.00">
  <g transform="translate(112.00,1312.00) scale(1,-1)">
    <path d="M696 942Q775 942 924 790V794Q889 865 864 906L868 914Q993 817 1028 722H1032V782L1028 810L1036 814Q1092 756 1092 634Q1124 668 1124 706H1132Q1152 653 1152 618Q1152 524 1072 462Q705 286 564 226Q505 214 492 214V218Q532 247 584 306Q572 310 572 314Q453 242 280 242Q222 226 188 226V230Q248 291 292 302V306H288Q150 306 68 246Q60 246 60 254Q129 341 200 362V366Q52 378 52 398V402Q121 442 164 458Q164 470 36 490H12V494Q74 568 212 606V610Q106 642 36 642H8Q0 642 0 650Q118 750 260 750H316Q268 787 192 810V814Q263 850 368 850Q441 850 576 814Q575 825 472 918L480 922Q553 922 748 826V830Q711 887 684 938Q692 942 696 942ZM764 874V870Q776 857 776 850H780V854Q772 872 764 874ZM608 838V834Q615 834 628 822V826Q628 832 612 838ZM344 806V802Q348 802 356 798H360V802Q356 802 348 806ZM948 794V786H952V794ZM472 786V782H480V786ZM484 782V778Q491 778 504 770H508V774Q501 774 488 782ZM568 782Q569 774 576 774H580Q580 782 572 782ZM408 754V750H420V754ZM424 750V746Q432 746 452 734H456V738Q448 738 428 750ZM724 750Q725 742 732 742H736Q736 750 728 750ZM944 742V738Q960 709 960 702H964V706Q948 735 948 742ZM740 738V734H748V738ZM616 726V722Q623 722 636 714H640V718Q633 718 620 726ZM1060 722V694H1064V722ZM864 718V710H868V718ZM536 714V710Q540 710 548 706H552V710Q548 710 540 714ZM644 710V706Q648 706 656 702H660V706Q656 706 648 710ZM828 706V698H836Q836 706 828 706ZM400 702V698H408V702ZM876 702V698Q884 688 884 682H888V686Q882 702 876 702ZM412 698V694Q429 694 452 674H456Q455 683 420 698ZM964 698V690H968V698ZM164 690V686H200V690ZM768 682Q768 677 788 662H792Q792 667 772 682ZM312 678V674H320V678ZM892 678V670H896V678ZM328 670V666H336V670ZM940 662V654Q952 628 952 618H956V626Q944 648 944 662ZM676 654V650Q680 650 688 646H692V650Q688 650 680 654ZM696 642V638H704V642ZM328 626V622H336V626ZM1020 626V614H1024V626ZM340 622V618H348V622ZM588 622V618Q592 618 600 614H604V618Q600 618 592 622ZM1024 610V578H1028V610ZM500 606V602Q507 602 552 578H556V582Q549 582 504 606ZM876 606Q876 601 896 586V590Q896 596 880 606ZM788 590V586H796V590ZM676 586V582H684V586ZM800 582V578H808V582ZM812 574Q813 566 820 566V574ZM1084 574V546H1088V574ZM196 570V566H208V570ZM216 570V566H228V570ZM988 570V554H992V570ZM340 566V562H364V566ZM464 558V554H472V558ZM476 554V550H484V554ZM688 554V546H696Q696 554 688 554ZM488 550V546H496V550ZM700 542V538H708V542ZM1080 542V530H1084V542ZM608 534V526H616Q616 534 608 534ZM712 534V530Q716 530 724 526H728V530Q724 530 716 534ZM316 530V526H328V530ZM332 526V522H348V526ZM936 526Q937 518 944 518V526ZM624 518V514H632V518ZM428 514V510H460V514ZM796 514V510Q797 502 804 502V506Q804 514 796 514ZM948 514V510Q956 497 956 490H960V494Q952 507 952 514ZM1372 518Q1400 510 1400 486V482Q1400 453 1360 446Q1360 386 1244 282Q1170 238 1076 238Q1010 238 956 270Q964 286 976 286V290H972Q944 281 944 274Q990 238 1000 238V234Q988 220 900 186V178Q916 143 920 94Q910 86 908 86Q885 103 836 162Q815 75 788 58H784Q774 58 764 158Q738 138 568 134Q550 138 504 138Q496 62 480 62H476Q450 79 432 134H424Q390 73 348 58Q348 62 344 62Q344 77 360 158Q314 191 296 222V234H300Q465 234 560 302H568V298Q509 234 444 206V202H456Q567 202 748 298Q887 369 1032 430Q1032 435 1064 454Q1121 422 1184 422Q1267 422 1336 474L1332 482Q1340 518 1372 518ZM468 510V506H488V510ZM896 510Q904 500 904 494H908V498Q904 506 904 510ZM1344 490V486Q1344 462 1368 462H1376Q1392 470 1392 486Q1384 504 1376 506H1360Q1354 506 1344 490ZM244 502V498H268V502ZM272 498V494H284V498ZM796 474Q797 466 804 466H808Q808 474 800 474ZM348 462V458H372V462ZM376 458V454H388V458ZM484 446V442H500V446ZM588 442V438Q607 438 652 414H656V418Q600 442 592 442ZM248 430V426H276V430ZM760 430V426Q768 426 788 414H792V418Q784 418 764 430ZM328 398V394H352V398ZM464 398V394H472V398ZM1100 374V354Q1101 346 1108 346Q1116 346 1116 354V374Q1116 382 1108 382Q1100 381 1100 374ZM604 378V374H616V378ZM704 378V374H712V378ZM716 374V370H724V374ZM1056 366V358L1060 338H1064Q1072 338 1072 346V366Q1072 374 1064 374Q1056 373 1056 366ZM728 370V366H740V370ZM356 358V354H388V358ZM260 350V346H276V350ZM492 338V334H504V338ZM616 326V322H660V326ZM384 306V302H432V306ZM600 278V274H608V278ZM616 274V270H628V274ZM936 270Q936 266 932 258V254H936Q936 258 940 266V270Z" fill="param(fill) #111111" fill-opacity="param(fill-opacity) 1" stroke="param(outline) none" stroke-opacity="param(outline-opacity) 1" stroke-width="param(outline-width) 0" stroke-linejoin="round"/>
  </g>
</svg>
