<svg xmlns="http://www.w3.org/2000/svg" width="100%" height="100%" viewBox="0 0 1624.00 1624.00">
  <g transform="translate(112.00,1312.00) scale(1,-1)">
    <path d="M1084 1124Q1102 1124 1120 1016V988Q1120 962 1100 940Q1148 906 1148 828Q1148 804 1104 744Q1160 633 1160 552V540Q1160 351 976 160Q1021 124 1028 104Q1194 138 1204 148V152Q1204 159 1196 176L1304 208Q1345 208 1400 132V120Q1400 109 1360 48Q1356 48 1336 64Q1325 64 1312 56Q1304 68 1304 88L1276 84H1264Q1240 100 1240 112H1216Q1190 112 1036 52L1008 48Q1022 24 1060 24Q1064 38 1064 40Q1060 40 1060 44Q1073 55 1148 80Q1148 84 1160 88Q1223 88 1268 12Q1272 -3 1272 -20V-28Q1272 -90 1252 -100Q1252 -92 1244 -92Q1235 -124 1220 -124Q1176 -111 1176 -84V-72H1168L1160 -92H1156Q1136 -76 1136 -56V-52L1140 -32Q1138 -32 1088 -36Q1088 -16 976 0Q926 -4 924 -4Q864 11 864 16Q864 45 804 52H796Q746 44 728 44Q648 64 412 84Q243 127 176 220Q105 305 8 332Q0 332 0 340V404Q1 412 8 412Q95 412 224 296Q284 240 332 240Q340 253 340 264V268Q330 338 288 412Q240 541 240 616Q248 740 300 740H304Q326 740 388 712Q534 864 580 868Q540 974 540 980V984H572Q669 984 772 1064Q798 1072 824 1072Q853 1072 968 1064Q1021 1074 1084 1124ZM900 912Q914 844 968 844H972Q1040 855 1040 912Q1029 984 972 984Q900 973 900 912ZM968 968H976Q1007 968 1016 924Q1011 876 972 876Q940 892 940 920V928Q940 950 968 968ZM692 880V868Q692 811 764 800Q828 818 828 860V876Q828 932 760 940Q692 930 692 880ZM756 924H780Q804 908 804 884V876Q804 852 780 836H756Q728 857 728 880Q728 903 756 924ZM832 708V688Q832 668 904 652Q912 676 912 700Q933 668 964 668Q992 697 992 732Q984 766 908 804H884Q832 752 832 708ZM908 748Q940 740 940 720L912 700Q872 706 872 732Q890 748 908 748ZM884 376Q924 317 924 300V276Q888 204 764 204L744 208Q739 204 716 204Q787 157 804 140Q841 132 848 132Q858 167 920 220Q1008 380 1008 464Q993 464 928 404Z" fill="param(fill) #111111" fill-opacity="param(fill-opacity) 1" stroke="param(outline) none" stroke-opacity="param(outline-opacity) 1" stroke-width="param(outline-width) 0" stroke-linejoin="round"/>
  </g>
</svg>
