<svg xmlns="http://www.w3.org/2000/svg" width="100%" height="100%" viewBox="0 0 1624.00 1624.00">
  <g transform="translate(112.00,1312.00) scale(1,-1)">
    <path d="M1184 1070Q1194 1070 1216 970Q1220 970 1220 926H1224Q1224 982 1300 1046H1304V1038Q1304 925 1272 898V894Q1330 842 1368 778Q1400 756 1400 722Q1400 705 1344 690Q1300 702 1276 702Q1232 702 1232 634V566Q1232 513 1176 478Q1176 426 1272 326Q1292 278 1292 274Q1275 258 1260 258H1244Q1227 258 1220 326Q1151 406 1140 406Q1192 263 1192 238V234Q1192 178 1176 178H1172Q1129 178 1116 206Q1140 236 1140 254Q1140 304 1080 382Q1047 366 996 266Q942 225 932 158Q908 81 908 62Q908 2 1092 2Q1159 2 1208 -46Q1208 -54 1200 -54V-50Q1169 -70 1148 -70Q1126 -70 1072 -62Q984 -66 916 -66H884Q796 -66 796 -38Q796 -34 792 -26L824 142Q773 93 760 86H756Q725 86 704 158H696Q657 158 588 26Q511 -62 332 -62H288Q0 -46 0 2V6Q0 17 60 22Q221 10 276 10Q451 10 504 122Q581 421 660 522Q760 658 1000 658Q1100 672 1100 758Q1100 793 1160 898Q1140 964 1140 974Q1140 1027 1184 1070Z" fill="param(fill) #111111" fill-opacity="param(fill-opacity) 1" stroke="param(outline) none" stroke-opacity="param(outline-opacity) 1" stroke-width="param(outline-width) 0" stroke-linejoin="round"/>
  </g>
</svg>
