<svg xmlns="http://www.w3.org/2000/svg" width="100%" height="100%" viewBox="0 0 1624.00 1624.00">
  <g transform="translate(112.00,1312.00) scale(1,-1)">
    <path d="M836 1200H876Q980 1170 980 1144L960 1120V1116Q963 1094 1068 1064V1060Q1068 981 1020 952Q988 944 952 944H920Q920 940 916 932L896 936H888Q909 908 924 908L920 900Q992 824 1000 756V732Q1000 690 976 620Q964 560 964 556Q1060 384 1060 332V288Q1036 220 992 220L968 240Q972 280 972 300Q972 325 932 368Q932 383 864 388Q854 372 800 340L904 224Q912 198 912 188V76Q912 -28 868 -72H956Q1005 -72 1028 -108V-112Q1016 -112 1016 -116Q1020 -124 1020 -128L1012 -132Q992 -132 960 -116Q952 -134 944 -136H904V-140Q964 -154 964 -192Q951 -200 940 -200H916Q900 -200 884 -188Q876 -192 808 -200Q722 -200 704 -160Q720 -120 720 -80V-68Q720 -34 708 -20L712 4Q707 63 688 68H684V60H676V88Q667 88 664 104Q662 104 552 232Q558 232 564 244Q542 271 508 292H504Q472 247 472 72Q468 17 448 -116V-164Q448 -181 344 -188H340Q332 -188 332 -180Q341 -179 368 -140Q394 -140 408 100Q408 171 412 188Q408 208 408 240V248Q408 314 532 440V452Q524 497 524 520Q524 553 608 812Q608 850 684 1008Q697 1103 744 1172Q779 1200 836 1200Z" fill="param(fill) #111111" fill-opacity="param(fill-opacity) 1" stroke="param(outline) none" stroke-opacity="param(outline-opacity) 1" stroke-width="param(outline-width) 0" stroke-linejoin="round"/>
  </g>
</svg>
