<svg xmlns="http://www.w3.org/2000/svg" width="100%" height="100%" viewBox="0 0 1624.00 1624.00">
  <g transform="translate(112.00,1312.00) scale(1,-1)">
    <path d="M702 1200H722Q806 1200 854 1068V1040Q854 969 750 952Q766 915 770 876V852Q815 826 946 724Q1160 632 1198 564Q1306 440 1306 316V272Q1306 118 1134 28Q1086 -13 1054 -60H1026Q967 -84 962 -84H958Q942 -76 942 -64L894 -76Q862 -70 862 -44Q862 -39 890 12L862 16H850Q834 7 814 -64Q842 -123 842 -132V-136L830 -152Q846 -170 846 -180Q836 -188 834 -188Q810 -180 810 -176Q802 -180 798 -180Q750 -152 738 -152H734Q709 -152 690 -200H678Q659 -200 638 -124Q632 -124 566 -152Q538 -152 538 -144L518 -148H498V-144Q560 -70 606 -52Q638 -14 638 48V76L546 160Q510 60 490 -40Q474 -60 446 -60L354 -52Q316 -56 278 -56L262 -52Q236 -64 226 -64H222V-56Q224 -47 274 -16Q274 -2 390 24Q409 24 418 356Q358 496 358 560Q358 597 366 664Q299 700 266 808L262 824Q198 796 182 796Q117 796 94 964V996Q109 1120 198 1120H202Q256 1120 318 1036Q400 1092 478 1092H586Q592 1092 650 1176Q677 1200 702 1200Z" fill="param(fill) #111111" fill-opacity="param(fill-opacity) 1" stroke="param(outline) none" stroke-opacity="param(outline-opacity) 1" stroke-width="param(outline-width) 0" stroke-linejoin="round"/>
  </g>
</svg>
