<svg xmlns="http://www.w3.org/2000/svg" width="100%" height="100%" viewBox="0 0 1624.00 1624.00">
  <g transform="translate(112.00,1312.00) scale(1,-1)">
    <path d="M1032 1024H1036Q1053 1024 1200 944Q1258 936 1268 936V924Q1268 916 1248 916Q1269 896 1316 804Q1400 728 1400 708Q1367 672 1336 672Q1259 672 1156 708L1160 700V696Q1023 566 972 552Q905 519 872 436Q872 402 804 376V372H832V368Q887 8 912 8L916 0L908 -4H860Q836 -4 836 120Q731 283 720 352H712Q712 330 608 172Q564 82 564 44Q564 37 584 0Q576 -4 572 -4Q508 -4 508 24Q520 90 520 100Q512 113 512 124Q536 136 568 292Q580 302 580 344Q553 348 536 348H384V356L396 372V376Q252 270 248 260Q224 244 224 212V204L252 120Q260 63 260 -4V-12L264 -20L256 -24H244Q200 -24 200 -12V-4Q200 0 204 0Q164 107 164 276V280Q164 300 236 380L240 400L236 424H232Q232 380 204 380Q192 380 168 400L172 380Q172 370 88 208Q71 182 64 96Q64 54 88 -4H76Q20 -4 20 20Q16 58 16 96V132L0 228V232Q44 324 44 368V412Q44 424 48 424Q44 438 44 440Q40 580 40 620Q40 743 276 832Q316 836 336 836H368Q380 836 380 840L400 836H480L680 856Q880 832 896 832Q946 832 1044 864Q1044 858 1056 852V856Q1048 884 1048 904Q1048 907 1068 924Q1043 924 956 996H960Q970 996 1100 952ZM716 364V356H720V364Z" fill="param(fill) #111111" fill-opacity="param(fill-opacity) 1" stroke="param(outline) none" stroke-opacity="param(outline-opacity) 1" stroke-width="param(outline-width) 0" stroke-linejoin="round"/>
  </g>
</svg>
