<svg xmlns="http://www.w3.org/2000/svg" width="100%" height="100%" viewBox="0 0 1614.72 1614.72">
  <g transform="translate(107.36,1307.36) scale(1,-1)">
    <path d="M576 890H680Q1025 890 1224 686H1228Q1228 710 1268 718H1276Q1316 710 1316 678L1344 682H1352Q1379 682 1396 650V626Q1396 600 1364 582L1360 590Q1368 606 1368 614H1364Q1358 614 1320 594L1324 574Q1324 562 1312 498Q1312 442 1388 386V382Q1388 320 1272 306Q1145 306 1012 394H1008Q992 356 992 318Q992 248 1060 186V174Q1060 166 1052 166H1048Q1031 166 1016 174V166Q1024 153 1024 142Q967 130 956 130Q900 130 900 222Q900 249 844 318Q844 404 784 418Q766 418 732 422Q598 410 504 410H496Q450 410 356 414Q356 403 296 290V266Q296 250 360 146Q345 138 328 138H308Q291 138 276 146L280 166Q278 213 224 274H220V238Q220 181 264 134V130Q264 126 260 126L264 118Q264 110 252 110Q180 110 180 162Q180 235 152 302Q152 318 156 374Q156 389 68 502Q52 545 52 582V590Q52 609 60 654H56L16 650Q8 654 4 654V662H24V682Q28 694 48 694Q60 694 60 674H72Q107 773 264 842Q437 890 576 890ZM40 678V674H48V678Z" fill="param(fill) #111111" fill-opacity="param(fill-opacity) 1" stroke="param(outline) none" stroke-opacity="param(outline-opacity) 1" stroke-width="param(outline-width) 0" stroke-linejoin="round"/>
  </g>
</svg>
