<svg xmlns="http://www.w3.org/2000/svg" width="100%" height="100%" viewBox="0 0 1624.00 1624.00">
  <g transform="translate(112.00,1312.00) scale(1,-1)">
    <path d="M910 1200Q923 1147 1082 1052Q1134 1027 1134 988V964Q1116 944 1090 944L1022 956Q988 952 950 944Q950 848 1062 744Q1074 726 1078 688Q1074 681 1074 668Q1198 696 1214 696H1218Q1283 696 1318 540V488Q1318 436 1302 436Q1270 436 1262 496Q1268 496 1274 508V524Q1274 595 1222 636H1202Q1181 636 1162 612V608Q1201 608 1230 548Q1262 405 1262 380V340L1254 328Q1213 328 1198 484Q1185 544 1174 544L1150 548Q1011 548 910 424Q850 373 830 360Q752 320 746 320Q774 258 774 248Q774 220 662 32V20Q667 -41 766 -156Q770 -178 770 -192V-196H754Q713 -196 686 -124Q582 27 582 40Q582 50 626 136Q630 158 630 172Q628 172 586 200H578Q552 151 486 60Q466 10 466 -20V-44Q466 -88 510 -196V-200H474Q439 -200 414 48V52Q414 61 458 140L462 168L458 216Q378 114 366 112Q354 101 310 84V88Q329 109 350 136V140Q266 80 198 80H178V84Q194 104 194 108Q165 108 150 112V116L194 140Q202 140 202 148Q171 148 82 160V164Q82 173 198 184Q356 223 430 320Q495 484 610 548Q754 679 754 812V816H750Q750 811 738 788H730V812Q731 843 758 884V888L734 860V880Q734 906 774 956V960L766 956H758V960L770 976H750V984L782 1012Q764 1024 758 1024V1036Q771 1036 842 1116Q902 1144 902 1196Z" fill="param(fill) #111111" fill-opacity="param(fill-opacity) 1" stroke="param(outline) none" stroke-opacity="param(outline-opacity) 1" stroke-width="param(outline-width) 0" stroke-linejoin="round"/>
  </g>
</svg>
