<svg xmlns="http://www.w3.org/2000/svg" width="100%" height="100%" viewBox="0 0 1624.00 1624.00">
  <g transform="translate(112.00,1312.00) scale(1,-1)">
    <path d="M576 1200H580Q681 1200 728 1068Q732 1041 732 1024V996Q732 839 424 728Q288 656 288 532V528Q288 424 404 392H412Q565 444 588 444Q600 448 636 448Q688 448 912 364L972 348Q1017 348 1060 400Q1073 408 1084 408Q1176 408 1176 336Q1204 299 1204 272V268Q1204 210 1112 200H1108Q1061 216 1048 216Q1036 128 1004 48V44Q1004 25 1056 -48Q1084 -124 1120 -124Q1192 -136 1192 -152V-156Q1183 -176 1152 -176Q1072 -176 1016 -100Q929 -3 912 60L904 64H896Q876 64 868 -104Q868 -152 896 -152Q918 -148 932 -148Q964 -153 964 -180Q964 -185 944 -200H908Q828 -200 828 -136Q780 -2 780 48V64Q780 85 808 140Q791 156 744 156Q736 152 732 152Q756 115 756 100V96Q756 42 692 -104V-112Q692 -125 816 -160Q836 -176 836 -180V-184Q836 -192 812 -196Q628 -176 628 -120V-116Q639 -73 648 76Q603 116 540 128Q540 -24 288 -56V-68Q376 -152 376 -156V-172Q372 -184 352 -184Q296 -184 212 -64V-48Q212 -12 264 4Q396 72 408 84L412 108Q412 124 400 208L408 288Q408 304 320 316Q196 387 196 512V544Q196 753 516 828Q680 900 680 1012Q680 1112 564 1168L560 1176V1184Q560 1190 576 1200Z" fill="param(fill) #111111" fill-opacity="param(fill-opacity) 1" stroke="param(outline) none" stroke-opacity="param(outline-opacity) 1" stroke-width="param(outline-width) 0" stroke-linejoin="round"/>
  </g>
</svg>
