<svg xmlns="http://www.w3.org/2000/svg" width="100%" height="100%" viewBox="0 0 1624.00 1624.00">
  <g transform="translate(112.00,1312.00) scale(1,-1)">
    <path d="M646 1200H658Q692 1200 706 1148V1136Q688 1064 666 1064V1060Q667 1052 674 1052L670 1024Q710 939 710 932V896Q762 890 762 876L758 840Q834 785 866 780H870Q936 837 1098 900Q1190 912 1214 912Q1227 904 1238 904H1254Q1276 936 1282 936H1286Q1294 935 1294 928V892H1298Q1336 904 1346 904Q1354 903 1354 896L1338 864Q1354 830 1354 820V796L1334 664V604Q1334 504 1298 504Q1298 494 1266 488H1258Q1222 514 1154 532Q1098 568 1070 568Q1046 531 1046 504Q1046 492 1050 428Q1009 328 986 328Q1010 269 1086 144Q1097 128 1106 24Q1121 -2 1146 -176L1138 -180H1126Q1101 -180 1058 -128V-112L1074 -88Q1059 -88 1046 72Q1025 138 902 240Q867 260 862 260Q828 224 798 108Q798 97 750 -16Q742 -46 742 -72Q742 -100 806 -192V-200H790Q702 -193 702 -168L706 -132Q674 -118 674 -88Q711 1 726 132Q746 251 746 288H742Q590 288 446 376L406 392Q326 344 326 288Q314 251 314 196Q314 89 370 24Q430 -90 430 -148L410 -156Q338 -141 338 -104L350 -64Q334 -31 310 48Q233 167 230 180V184Q178 138 178 8Q178 -21 238 -104V-112Q217 -128 202 -128H178Q147 -111 142 -100V-96Q142 -79 150 -64Q137 -60 118 -40V8Q97 8 62 96Q46 96 46 108V160Q46 540 118 608Q176 675 250 720Q301 732 346 732H362Q385 732 466 704Q466 709 498 728V732Q498 738 482 744L486 752V772Q486 820 502 820L534 796V800Q534 813 514 840Q522 856 522 864Q514 904 514 936Q514 1032 566 1052Q566 1063 598 1096L594 1136Q606 1200 646 1200ZM722 836V820Q775 792 810 756H826V760Q759 827 722 836ZM1106 632Q1090 604 1090 592Q1181 544 1214 544V548Q1199 596 1150 616Q1143 616 1106 632ZM142 476Q142 473 138 452Q138 436 134 264Q142 200 142 192H150L146 212Q160 237 198 288Q218 333 218 340Q218 351 170 436Q151 476 142 476Z" fill="param(fill) #111111" fill-opacity="param(fill-opacity) 1" stroke="param(outline) none" stroke-opacity="param(outline-opacity) 1" stroke-width="param(outline-width) 0" stroke-linejoin="round"/>
  </g>
</svg>
