<svg xmlns="http://www.w3.org/2000/svg" width="100%" height="100%" viewBox="0 0 1624.00 1624.00">
  <g transform="translate(112.00,1312.00) scale(1,-1)">
    <path d="M984 726H1012Q1176 726 1300 546Q1354 526 1400 398V370Q1400 362 1388 362Q1345 403 1292 418Q1292 422 1260 434V426Q1294 335 1304 326Q1320 334 1328 334Q1348 329 1348 322Q1348 302 1340 302Q1332 306 1328 306Q1328 295 1288 290Q1262 290 1204 354Q1104 386 1104 434Q1089 434 1080 474H1076Q957 441 952 434V430Q973 374 1028 374L1040 358Q997 319 968 314Q906 322 856 390Q836 345 836 318L876 294Q876 274 820 274H804Q751 274 736 350L748 434L740 438H720L716 458L660 418H652L640 426Q599 382 356 358V362Q352 358 304 354Q292 358 292 362L276 358Q250 358 196 362Q48 350 48 330Q13 326 4 326Q4 330 0 330Q39 394 208 438Q499 478 572 538Q826 726 984 726Z" fill="param(fill) #111111" fill-opacity="param(fill-opacity) 1" stroke="param(outline) none" stroke-opacity="param(outline-opacity) 1" stroke-width="param(outline-width) 0" stroke-linejoin="round"/>
  </g>
</svg>
