<svg xmlns="http://www.w3.org/2000/svg" width="100%" height="100%" viewBox="0 0 1624.00 1624.00">
  <g transform="translate(112.00,1312.00) scale(1,-1)">
    <path d="M106 1200H114Q202 1200 214 1132Q368 1003 430 872Q479 756 522 756L518 784Q518 824 582 824Q634 872 694 872Q721 872 742 860Q770 868 790 868Q838 846 838 808Q838 796 822 748V728H850Q916 728 1006 528Q1010 509 1106 476Q1239 333 1314 268Q1334 226 1334 192V168Q1334 146 1306 128H1302Q1269 174 1250 184V224Q1175 328 1110 328Q914 391 914 424Q914 467 894 480Q874 472 866 472V404Q866 391 858 348Q1001 295 1062 196Q1073 196 1078 156V148Q1078 84 906 -40V-56Q950 -109 950 -124Q931 -177 890 -200Q884 -200 878 -184Q883 -161 898 -144V-132Q893 -119 866 -108Q853 -154 834 -160Q828 -160 822 -148Q822 -137 850 -96Q846 -81 822 -56Q814 -43 814 -36Q863 57 910 112Q758 134 758 168L750 172Q681 116 602 108L522 120Q578 68 578 36Q497 0 466 0Q474 -32 474 -48H470Q460 -48 430 -20Q410 -20 410 0Q410 20 430 52Q366 161 366 200V204Q366 248 482 256Q562 269 562 284Q518 353 506 480Q506 603 454 632Q294 737 294 848Q246 1052 190 1052Q162 1081 162 1092H150Q129 1092 122 1108V1116H154Q139 1152 114 1152Q75 1124 66 1124V1132Q66 1172 106 1200Z" fill="param(fill) #111111" fill-opacity="param(fill-opacity) 1" stroke="param(outline) none" stroke-opacity="param(outline-opacity) 1" stroke-width="param(outline-width) 0" stroke-linejoin="round"/>
  </g>
</svg>
