<svg xmlns="http://www.w3.org/2000/svg" width="100%" height="100%" viewBox="0 0 1624.00 1624.00">
  <g transform="translate(112.00,1312.00) scale(1,-1)">
    <path d="M1056 1200H1060V1196Q1032 1174 1032 1144Q1092 1184 1128 1184L1132 1176Q1012 1112 1012 1052L1024 1044H1036Q1064 1044 1120 1092H1124V1084Q1124 1032 1008 1008V972Q1008 929 1044 908H1052Q1129 908 1160 1040H1164Q1172 1040 1176 1016Q1160 961 1160 952Q1189 952 1216 980H1220Q1228 979 1228 972Q1228 947 1096 896Q1096 893 1076 876Q1112 842 1112 820Q1228 844 1228 872L1236 876Q1244 875 1244 868Q1244 859 1204 816H1244Q1288 832 1292 832V820Q1270 788 1224 788Q1170 792 1132 792Q1116 772 1116 768Q1171 753 1204 708Q1306 611 1308 604V592Q1308 586 1284 568H1256Q1217 576 1212 576H1100Q1074 542 972 376Q938 280 868 248Q846 236 836 236V232H840L864 240L868 232Q820 39 820 8Q820 -42 856 -156L848 -160H820Q791 -160 784 -100L776 -76Q780 6 788 96V100H784Q756 -12 756 -56V-80Q756 -127 780 -192Q773 -196 744 -200Q722 -200 708 -136L700 -132Q704 -91 724 40L700 208H656Q519 208 348 268Q332 244 332 236L356 256Q400 250 400 240Q373 207 284 136Q276 116 276 108Q295 -116 324 -116Q324 -120 344 -156L336 -160H288Q244 -108 244 -84Q236 -38 216 116H212Q180 99 180 56Q180 -137 224 -172Q228 -172 236 -188Q236 -194 224 -200H180Q136 -139 136 -132Q128 -1 116 124Q168 177 168 248V268Q144 400 144 428H140Q140 396 96 396H92V400Q115 564 204 564Q311 580 324 580Q604 552 636 552Q857 592 892 632Q1012 732 1012 736Q940 788 940 832Q943 892 956 892Q994 892 1044 804Q1044 788 1068 772H1072L1076 792V808Q1076 834 1016 888Q912 1025 912 1064V1072Q918 1116 928 1116Q939 1116 944 1028Q962 1012 964 1012H972Q1014 1196 1040 1196Q1047 1200 1056 1200ZM144 444V436H148V444ZM808 212V208H812Q816 222 816 224Q808 224 808 212ZM804 200V184H808V200ZM800 176V168H804V176ZM796 156V148H800V156Z" fill="param(fill) #111111" fill-opacity="param(fill-opacity) 1" stroke="param(outline) none" stroke-opacity="param(outline-opacity) 1" stroke-width="param(outline-width) 0" stroke-linejoin="round"/>
  </g>
</svg>
