<svg xmlns="http://www.w3.org/2000/svg" width="100%" height="100%" viewBox="0 0 1624.00 1624.00">
  <g transform="translate(112.00,1312.00) scale(1,-1)">
    <path d="M1236 952Q1244 939 1244 928Q1230 852 1172 852V848Q1201 848 1252 804Q1301 792 1320 792Q1366 792 1392 864H1396L1400 856V836Q1381 752 1316 752H1272V732Q1272 679 1324 636V628Q1324 572 1236 572Q1192 592 1192 596L1164 592H1120L1096 596Q1040 587 1040 508V468Q1133 386 1136 368V352Q1136 315 1072 292Q1023 228 996 228Q979 228 948 196Q944 204 944 208Q944 300 1008 300Q1008 309 1052 340Q1022 348 996 348H992Q972 348 936 292Q927 292 920 288Q893 300 876 300H872Q886 176 920 140Q937 114 976 76V60Q972 48 952 48H936Q883 48 860 152Q860 175 796 248Q774 344 700 344L676 348Q575 328 540 328L484 332V328Q484 314 480 292Q480 192 564 148Q588 129 588 112Q568 100 556 100H520Q514 100 464 192Q396 247 396 276V332Q349 387 344 404H324Q254 404 216 312Q91 216 72 172Q76 161 84 92Q65 80 40 80Q24 86 16 100V108Q48 188 72 316Q108 324 108 380Q125 394 148 524Q177 628 196 628Q236 655 236 660Q173 672 140 672H104Q64 664 64 652V648Q84 575 84 556V544Q84 531 48 476Q36 424 8 424L0 436V456Q0 485 56 520Q60 527 60 536V544Q60 556 32 640V656Q32 700 140 716H168Q271 696 300 696Q312 716 332 716Q366 712 388 712H412Q536 712 732 812Q815 876 868 876Q878 876 928 880L1072 864Q1072 889 1188 892Q1207 905 1236 952Z" fill="param(fill) #111111" fill-opacity="param(fill-opacity) 1" stroke="param(outline) none" stroke-opacity="param(outline-opacity) 1" stroke-width="param(outline-width) 0" stroke-linejoin="round"/>
  </g>
</svg>
