<svg xmlns="http://www.w3.org/2000/svg" width="100%" height="100%" viewBox="0 0 1619.36 1619.36">
  <g transform="translate(109.68,1309.68) scale(1,-1)">
    <path d="M612 1198V1190Q612 1174 596 1078Q596 1015 696 990H716Q745 990 832 1022Q856 1022 932 1014Q939 1030 960 1030H976Q1097 998 1116 998Q1199 998 1236 1074Q1244 1110 1244 1126V1186H1252Q1276 1103 1276 1078V1042Q1276 964 1188 930Q1174 926 1144 926Q1152 913 1152 902V894Q1142 834 1096 834Q1062 842 1056 842Q1056 830 1052 814Q1055 769 1096 694V670Q1079 642 1044 642Q1004 650 972 650H964Q992 452 992 350Q992 207 932 38L928 -10Q928 -88 1020 -166L1028 -194L1020 -198Q946 -194 896 -194H892V-186Q916 -154 916 -114V-102H912Q899 -110 888 -110Q888 -102 880 -102Q884 -54 884 -30Q884 52 808 146Q804 170 796 170L740 158V122Q740 83 724 -2Q724 -29 776 -154V-182Q701 -174 680 -174H676L668 -170Q692 -134 692 -106L668 -98Q676 -82 676 -54V-38Q676 -34 680 -34Q680 28 600 138V142H448Q436 142 424 98V94Q424 73 476 -6Q476 -66 536 -94Q552 -119 560 -146Q556 -146 556 -150Q543 -142 532 -142Q532 -162 508 -162H496Q450 -162 432 -118L436 -98V-86Q436 -66 396 -34Q404 -21 404 -10Q404 15 348 62Q332 95 332 126V150Q307 150 232 158L224 130V114Q224 102 236 22Q236 16 224 -26V-42Q260 -119 260 -138Q256 -153 256 -170V-174H252Q234 -158 232 -158Q222 -166 220 -166H208Q136 -146 136 -94Q160 -42 160 -30Q160 -22 136 26H140Q164 38 164 66Q124 150 124 290V362Q124 382 184 530Q184 574 240 574H304Q533 574 588 662Q602 717 704 762Q732 785 732 806Q727 825 716 826Q669 822 648 822Q622 822 612 858Q628 890 656 890Q716 886 744 886Q776 903 776 922H772Q728 902 696 902H680Q560 902 540 978V990Q550 1107 612 1198ZM1040 938Q1040 919 1080 906Q1115 918 1120 918V922Q1045 938 1040 938Z" fill="param(fill) #111111" fill-opacity="param(fill-opacity) 1" stroke="param(outline) none" stroke-opacity="param(outline-opacity) 1" stroke-width="param(outline-width) 0" stroke-linejoin="round"/>
  </g>
</svg>
