<svg xmlns="http://www.w3.org/2000/svg" width="100%" height="100%" viewBox="0 0 1624.00 1624.00">
  <g transform="translate(112.00,1152.00) scale(1,-1)">
    <path d="M412 680Q615 656 668 656H676L764 676L792 672H880Q902 672 936 676Q1052 653 1052 576H1060Q1060 588 1084 604Q1105 604 1120 580V568Q1120 555 1108 540Q1128 540 1212 564L1216 556Q1216 519 1172 492H1148L1152 476L1148 440Q1163 364 1212 364Q1212 358 1236 340H1264Q1302 340 1392 404Q1400 403 1400 396Q1400 349 1260 224Q1256 136 1216 136H1204Q1176 136 1176 144L1156 140H1148Q1073 173 1028 208Q996 214 996 236Q960 212 956 212L932 224Q912 212 892 212H868Q868 203 808 136L796 96Q799 52 832 52Q840 39 840 28V24Q840 19 808 8H792Q716 8 716 28Q716 38 728 60L720 120Q692 94 692 72V56Q712 28 712 4Q704 0 700 0Q588 0 588 16V20Q628 119 628 148V180Q628 188 620 188H540Q364 188 288 268Q249 268 240 200L224 136V132Q224 110 268 52Q272 45 272 36V32Q272 24 244 16Q152 22 152 36V48Q152 58 160 84Q120 138 120 156Q120 199 64 288Q0 412 0 448V464Q8 523 64 580Q141 668 288 668Q402 680 412 680Z" fill="param(fill) #111111" fill-opacity="param(fill-opacity) 1" stroke="param(outline) none" stroke-opacity="param(outline-opacity) 1" stroke-width="param(outline-width) 0" stroke-linejoin="round"/>
  </g>
</svg>
