<svg xmlns="http://www.w3.org/2000/svg" width="100%" height="100%" viewBox="0 0 1624.00 1624.00">
  <g transform="translate(112.00,1312.00) scale(1,-1)">
    <path d="M1280 996H1284V988Q1284 950 1260 920V916Q1291 868 1400 772V764Q1400 708 1292 708Q1271 696 1236 696H1220Q1200 696 1172 704H1168V700L1184 696V688Q1106 598 1088 464Q1079 417 1036 376Q1005 356 976 348L972 356Q980 372 980 380V384H976Q956 353 932 148Q932 122 968 36Q948 28 936 28Q908 28 876 76Q876 102 880 156Q867 340 796 340H784V336Q856 326 856 256Q856 241 848 144Q848 132 864 60V56L836 52H828Q801 52 780 104Q792 180 792 228V240Q792 283 768 340Q636 312 580 312H576Q479 312 396 348Q396 335 316 320Q276 257 276 216V208Q276 122 336 68V56Q330 40 308 40H300Q255 40 240 80Q240 88 224 104V112Q224 178 192 232V240Q192 275 288 352Q296 356 300 356V360H296Q260 360 180 248Q140 171 140 108V100Q140 75 180 16Q165 4 152 4H136Q82 4 68 76Q68 92 84 216Q76 280 76 284Q96 327 96 336Q60 397 60 492Q60 637 80 716V720H76Q52 665 28 396Q36 396 40 348L20 260H16Q3 260 0 344V372Q20 410 20 472Q20 745 112 800Q157 824 176 824H180Q290 808 568 792Q658 792 936 844Q1123 914 1140 928Q1140 960 1148 960H1152Q1204 948 1208 948Q1232 948 1280 996ZM304 364V360H316V364ZM384 352V348H392V352Z" fill="param(fill) #111111" fill-opacity="param(fill-opacity) 1" stroke="param(outline) none" stroke-opacity="param(outline-opacity) 1" stroke-width="param(outline-width) 0" stroke-linejoin="round"/>
  </g>
</svg>
