<svg xmlns="http://www.w3.org/2000/svg" width="100%" height="100%" viewBox="0 0 1624.00 1624.00">
  <g transform="translate(112.00,1312.00) scale(1,-1)">
    <path d="M436 892H456Q664 892 968 828Q1097 763 1236 672L1260 668Q1272 696 1292 708Q1314 708 1320 692V684Q1320 668 1292 632Q1334 564 1360 516Q1400 395 1400 324V304Q1387 208 1364 208H1352Q1322 208 1316 248Q1324 261 1324 272Q1324 299 1284 308Q1275 335 1192 376Q1154 424 1116 440Q1116 449 1064 452Q1060 452 992 428Q1041 350 1080 188Q1104 147 1112 112L1104 108H1100Q1072 116 1068 116H1060Q1050 108 1044 108Q1007 140 1000 140Q984 140 984 152Q984 156 988 156L984 176V212Q984 266 884 348H880Q856 284 856 268V260Q885 188 928 188Q948 172 948 164Q939 157 904 152L900 144Q808 144 808 192Q768 267 768 400Q763 448 728 448Q645 420 568 420Q490 420 388 456Q334 456 300 256Q300 181 352 160Q369 141 380 124L368 116H364Q333 116 308 112Q240 112 240 164Q240 181 188 308Q196 338 196 348Q91 223 76 172Q76 163 100 136V124Q93 124 80 112Q0 128 0 168V192Q40 237 56 352Q128 434 128 476Q128 496 64 580Q30 576 12 576Q4 586 4 588V604Q45 633 60 672Q119 756 236 816Q358 892 436 892Z" fill="param(fill) #111111" fill-opacity="param(fill-opacity) 1" stroke="param(outline) none" stroke-opacity="param(outline-opacity) 1" stroke-width="param(outline-width) 0" stroke-linejoin="round"/>
  </g>
</svg>
