<svg xmlns="http://www.w3.org/2000/svg" width="100%" height="100%" viewBox="0 0 1624.00 1624.00">
  <g transform="translate(112.00,1312.00) scale(1,-1)">
    <path d="M956 954H960Q981 954 1016 934Q1016 946 1024 946L1056 926H1060V934H1068Q1095 906 1100 906Q1115 914 1132 914Q1164 912 1164 902V894L1128 862H1136Q1149 870 1160 870H1164Q1194 870 1196 858V854Q1196 848 1156 822L1148 826V822Q1225 718 1316 670Q1363 646 1400 638V630Q1400 601 1348 566H1332Q1322 566 1284 578Q1264 572 1264 550Q1296 538 1300 538V534Q1300 515 1224 502Q1106 526 1088 526H1084Q1068 526 1024 494Q1016 498 1012 498V482Q1012 462 1116 422Q1139 388 1204 330Q1260 267 1260 234V230H1252L1240 238V234L1252 210L1244 206H1240Q1190 206 1156 278Q1131 278 1104 338L1024 370Q1024 366 1136 258Q1176 211 1176 186H1172Q1165 186 1136 198Q1152 174 1152 162L1132 158Q1082 158 1060 226Q1060 230 1056 230Q1056 222 1048 222Q1030 242 1016 282Q936 350 828 350Q805 354 768 378Q604 386 576 386H476Q449 355 316 310Q276 280 276 226Q286 126 312 70Q312 68 316 54Q312 54 312 50L288 62V58L292 50L284 46H264Q241 46 212 82V102Q212 128 220 158Q196 176 192 194Q212 283 228 322L220 326Q128 306 128 274Q116 274 104 210Q132 171 132 154V150Q132 98 104 66Q95 66 88 98H84Q84 62 72 62Q20 89 20 134Q20 139 28 178Q0 192 0 198V202Q73 369 92 390Q196 401 196 482V486Q196 535 188 578H176Q150 578 120 586V582Q120 572 124 522Q87 430 48 430Q41 426 32 426V438Q32 448 44 486V546Q44 615 112 626Q130 626 172 614Q202 614 244 670Q491 810 560 810Q552 820 552 822Q585 850 624 850L616 862Q616 872 692 890Q692 914 776 914H784Q793 914 800 910Q808 914 812 914V918Q800 918 792 934L800 938H868V950H884Q899 950 956 930ZM1104 762V754L1124 758V766ZM1128 762V758Q1134 758 1160 726H1172V734Q1172 743 1132 762ZM1260 642Q1260 613 1220 562L1236 558Q1272 575 1272 614Q1268 642 1260 642ZM1172 590Q1187 582 1204 582Q1210 582 1216 594V598Q1207 598 1200 602Q1172 598 1172 590Z" fill="param(fill) #111111" fill-opacity="param(fill-opacity) 1" stroke="param(outline) none" stroke-opacity="param(outline-opacity) 1" stroke-width="param(outline-width) 0" stroke-linejoin="round"/>
  </g>
</svg>
