<svg xmlns="http://www.w3.org/2000/svg" width="100%" height="100%" viewBox="0 0 1624.00 1624.00">
  <g transform="translate(112.00,1312.00) scale(1,-1)">
    <path d="M1260 1014H1268V998L1264 978L1288 998H1296V990L1292 950Q1313 942 1336 874L1400 782V758Q1382 730 1360 730H1352Q1261 774 1252 774Q1222 774 1204 790Q1181 790 1120 630Q1095 624 1044 458Q1010 458 964 158V146Q964 88 1000 -6Q985 -14 968 -14Q928 -14 928 26V46Q912 46 912 58Q912 89 916 206Q912 296 908 306H904Q868 169 868 146V90Q868 71 896 10Q883 2 872 2H860Q820 2 820 42V62Q804 62 804 78Q824 229 824 258V414Q824 422 852 422V426Q628 426 556 458L568 442Q416 305 416 238V126Q416 84 448 10Q433 2 416 2H396Q384 2 376 50Q352 50 352 186Q344 240 344 302V314Q303 314 260 70Q284 14 284 -10Q277 -14 268 -14H240Q220 -3 220 2V34Q200 34 200 50Q248 312 248 322Q300 375 300 434V454Q300 476 284 582V594Q284 646 328 706H324Q247 677 196 566Q100 318 68 274Q27 234 4 234L0 242Q16 326 28 474Q98 622 328 746Q371 758 412 762Q547 750 704 742Q889 742 1072 910Q1143 956 1236 982Q1236 992 1260 1014ZM504 470V466H524V470Z" fill="param(fill) #111111" fill-opacity="param(fill-opacity) 1" stroke="param(outline) none" stroke-opacity="param(outline-opacity) 1" stroke-width="param(outline-width) 0" stroke-linejoin="round"/>
  </g>
</svg>
