<svg xmlns="http://www.w3.org/2000/svg" width="100%" height="100%" viewBox="0 0 1619.36 1619.36">
  <g transform="translate(109.68,1309.68) scale(1,-1)">
    <path d="M874 1126H878L882 1086V1026Q882 1009 902 982Q902 909 946 886Q974 859 1150 770Q1150 765 1182 742Q1226 981 1258 1118H1262Q1282 1106 1282 1090Q1266 1020 1254 942V938H1258Q1290 1008 1354 1042Q1354 1063 1394 1066H1398V1062Q1272 930 1250 866Q1218 766 1218 642V534Q1250 534 1250 470L1238 454Q1282 342 1282 234Q1282 210 1254 -118V-126H1250Q1237 -126 1230 -122L1206 -126H1194V-122Q1194 -88 1242 226Q1242 360 1214 442H1210Q1165 396 1118 382Q1094 350 1078 350Q1074 358 1074 362H1070Q1049 345 1018 334Q1011 338 1002 338Q962 306 954 306Q946 310 942 310Q942 304 914 282H910Q910 286 906 294Q842 254 842 250V242Q862 170 862 150V122L854 110V82Q854 55 918 38Q978 -2 994 -2Q1022 6 1042 6H1058Q1066 5 1066 -2L1038 -18Q1038 -78 1110 -78V-86Q1110 -115 1098 -118H1066Q1027 -118 966 -62Q794 6 794 26Q777 26 742 238V242Q729 242 706 258H702Q702 242 694 242Q666 254 654 254Q654 246 646 246Q641 246 618 274H606Q572 357 506 474L498 478Q491 474 482 474H478V486Q460 486 434 466Q430 473 430 482Q427 482 394 466Q394 474 386 474Q380 458 374 458L334 482Q334 474 326 474Q296 511 198 578Q107 702 82 702Q35 702 18 738Q2 775 2 782V786Q2 794 14 794Q102 791 102 754Q152 703 266 630Q307 582 346 582H382Q422 582 422 614Q418 635 418 638Q435 714 478 714H490Q502 714 562 678Q596 674 614 674Q626 674 662 702H670V694Q709 705 766 714Q814 799 834 946Q840 946 854 970Q854 986 846 1042Q846 1076 874 1126ZM878 906Q862 849 862 738V714Q862 665 830 614Q826 607 826 594Q830 594 830 590Q826 590 826 586Q806 598 798 598Q798 590 750 586Q750 566 746 566Q726 578 714 578H706Q710 547 806 474Q806 469 830 390Q960 426 1102 442Q1190 489 1190 514Q1178 593 1178 626V706Q1121 755 934 850L882 906Z" fill="param(fill) #111111" fill-opacity="param(fill-opacity) 1" stroke="param(outline) none" stroke-opacity="param(outline-opacity) 1" stroke-width="param(outline-width) 0" stroke-linejoin="round"/>
  </g>
</svg>
