<svg xmlns="http://www.w3.org/2000/svg" width="100%" height="100%" viewBox="0 0 1624.00 1624.00">
  <g transform="translate(112.00,1312.00) scale(1,-1)">
    <path d="M458 1200H502Q549 1200 790 1128Q808 1128 814 1124Q841 1128 858 1128H886Q958 1128 1094 964Q1117 948 1222 852H1226Q1255 876 1282 876Q1329 876 1338 816V788Q1338 743 1326 724Q1354 676 1354 636V604Q1354 529 1274 424V408Q1274 384 1294 304Q1250 248 1186 248Q1112 248 1050 304V280Q1050 233 950 32Q938 -21 938 -36Q938 -64 1010 -100Q1030 -127 1030 -140V-156Q998 -200 922 -200H890Q826 -200 806 -148Q786 -108 746 176Q741 324 718 324H706Q630 324 630 268Q619 255 618 192V188Q618 100 674 8Q682 -6 682 -28Q682 -90 606 -112H582Q482 -112 374 280Q374 304 362 348H354Q299 238 294 112V80Q305 54 374 16Q382 3 382 -8V-20Q369 -52 282 -52H254Q150 -52 150 8V20L122 16Q46 16 46 116V148Q46 213 90 304Q94 309 94 332V380Q94 424 50 744V800Q50 1005 306 1164Q392 1200 458 1200ZM1250 476H1262Q1268 476 1278 492V508H1266Q1254 508 1250 476ZM1106 492V484Q1116 464 1138 464H1154Q1162 464 1162 472Q1157 489 1142 496H1126Z" fill="param(fill) #111111" fill-opacity="param(fill-opacity) 1" stroke="param(outline) none" stroke-opacity="param(outline-opacity) 1" stroke-width="param(outline-width) 0" stroke-linejoin="round"/>
  </g>
</svg>
