<svg xmlns="http://www.w3.org/2000/svg" width="100%" height="100%" viewBox="0 0 1624.00 1624.00">
  <g transform="translate(112.00,1312.00) scale(1,-1)">
    <path d="M992 924Q1019 924 1072 856Q1113 723 1184 640Q1236 544 1264 544Q1318 544 1344 600Q1348 622 1348 636V656Q1308 749 1308 768Q1304 768 1304 792Q1304 815 1312 888H1316Q1325 875 1360 864L1364 856Q1364 833 1340 808V800Q1340 772 1396 672L1400 632V624Q1400 516 1296 480Q1274 476 1260 476Q1202 483 1128 552L1104 572Q1104 548 1096 548Q1083 573 1028 596L1012 588Q946 596 932 616H924Q880 584 880 576L884 560Q884 549 860 488Q894 449 952 356Q1004 308 1004 220L1000 212Q1036 149 1036 140V132Q1036 126 1024 120H964Q923 120 912 180V196Q912 209 916 216L912 240V256Q899 256 796 336Q780 290 768 228Q758 183 740 164V136Q767 109 776 84Q776 76 768 76H708Q660 76 660 92Q656 163 656 208Q656 231 672 280L668 308V348L672 388L652 384V388L576 352Q558 340 484 328L476 332L468 328Q446 332 432 332H428Q352 305 352 248Q352 244 348 244L352 236V228Q352 224 348 224L352 216V164Q352 155 348 148Q348 141 388 92V80L380 76H264Q258 76 236 164Q260 235 260 276L232 288Q205 288 160 208Q129 185 112 156Q120 141 120 124V108Q120 100 112 100H96Q20 100 20 148V188Q20 227 100 288Q136 332 136 364Q132 372 132 376L152 452V464Q152 553 172 572V584L168 592L140 584Q133 588 124 588Q60 558 60 448Q60 416 16 340Q16 308 4 308L0 316V336Q0 348 36 428V480Q36 489 32 496Q32 586 136 656Q177 656 216 728Q297 815 500 872V868L508 872H548Q557 872 564 868Q568 868 568 872L688 852Q707 864 748 864H792Q873 891 948 924Z" fill="param(fill) #111111" fill-opacity="param(fill-opacity) 1" stroke="param(outline) none" stroke-opacity="param(outline-opacity) 1" stroke-width="param(outline-width) 0" stroke-linejoin="round"/>
  </g>
</svg>
