<svg xmlns="http://www.w3.org/2000/svg" width="100%" height="100%" viewBox="0 0 1624.00 1624.00">
  <g transform="translate(112.00,1312.00) scale(1,-1)">
    <path d="M536 836H568Q674 836 840 800H856Q893 800 964 836H980Q997 836 1032 824Q1051 831 1080 836L1088 832L1108 836Q1169 816 1240 800H1248Q1289 828 1300 828Q1300 824 1304 824Q1300 820 1296 776Q1360 746 1360 688Q1400 631 1400 620V616Q1383 564 1344 564L1348 556Q1343 508 1308 508Q1277 508 1232 564H1216Q1216 555 1204 548Q1196 552 1192 552L1188 544Q1168 550 1160 560L1152 556H1140V564Q1130 564 1120 484Q1170 274 1204 264Q1264 264 1264 236Q1264 234 1284 212V208Q1228 199 1228 180H1224L1208 192H1184Q1156 192 1140 216Q1106 216 1056 336Q997 408 984 464Q876 430 876 364Q844 302 844 276V268Q844 262 912 228L916 220V216Q896 216 896 196L900 188V180H896Q884 184 884 188Q832 180 832 176V164H824Q824 178 776 188Q756 212 756 252V264Q756 306 768 416Q762 423 672 428L552 472Q552 476 544 476V472Q488 392 488 372V368Q500 296 528 296Q548 296 580 260V256Q564 256 564 244Q568 237 568 228L548 232L528 228L532 220V216H528Q513 228 492 228H468Q446 244 420 312Q376 380 376 404Q384 434 384 436Q212 365 212 320Q204 319 200 292V284Q200 277 236 272Q236 268 268 232V224H264Q260 224 260 228Q240 223 240 216Q244 208 244 204L236 200Q236 206 224 212H208L204 196H196Q196 212 188 212H172Q172 196 164 196H160Q160 207 116 244L108 264Q163 433 224 524Q250 550 268 632Q101 400 8 400L0 412V428Q0 434 12 440H24Q30 440 40 420Q113 458 168 576Q293 836 536 836Z" fill="param(fill) #111111" fill-opacity="param(fill-opacity) 1" stroke="param(outline) none" stroke-opacity="param(outline-opacity) 1" stroke-width="param(outline-width) 0" stroke-linejoin="round"/>
  </g>
</svg>
