<svg xmlns="http://www.w3.org/2000/svg" width="100%" height="100%" viewBox="0 0 1624.00 1624.00">
  <g transform="translate(112.00,1312.00) scale(1,-1)">
    <path d="M592 1026H640Q684 1026 856 974Q952 974 1032 926H1044Q1127 954 1144 954Q1165 954 1276 882Q1292 848 1324 750Q1341 727 1348 694L1340 642Q1348 591 1352 486Q1340 348 1340 306V298Q1340 192 1400 102V86Q1396 12 1396 -6L1388 -10H1348Q1342 -10 1336 2Q1348 23 1348 42V66Q1348 92 1260 214Q1228 350 1208 454L1108 498H1100Q1066 498 1052 474V382Q1052 375 1108 286Q1128 214 1140 142Q1175 34 1196 34Q1212 7 1212 -2Q1212 -10 1204 -10Q1106 -14 1048 -14H1044Q1028 -6 1028 10L1032 38Q1010 142 996 142Q986 152 944 234L896 262Q880 262 856 142Q828 85 828 38V34Q828 21 840 -10Q823 -18 776 -18H668L656 -10L696 146Q704 186 720 326H716Q598 294 548 294L508 298Q495 298 444 234L404 210V206Q404 195 412 98L408 34Q408 30 448 -2L452 -10V-14Q452 -26 360 -26H264L256 -22Q272 72 272 90Q272 96 264 126Q258 126 228 86Q170 58 140 -22Q140 -26 136 -26H96Q58 -26 16 54Q12 75 12 78Q21 108 136 198Q172 242 172 290V306Q172 322 128 498Q124 510 124 554H120Q92 375 20 262L4 254L0 262V290L52 446Q52 707 200 886Q226 917 360 962Q539 1026 592 1026Z" fill="param(fill) #111111" fill-opacity="param(fill-opacity) 1" stroke="param(outline) none" stroke-opacity="param(outline-opacity) 1" stroke-width="param(outline-width) 0" stroke-linejoin="round"/>
  </g>
</svg>
