<svg xmlns="http://www.w3.org/2000/svg" width="100%" height="100%" viewBox="0 0 1624.00 1624.00">
  <g transform="translate(112.00,1312.00) scale(1,-1)">
    <path d="M320 804H376Q464 776 476 764Q476 709 576 696H604Q657 696 788 664Q895 664 1180 540Q1257 520 1308 520Q1330 520 1396 540L1400 532Q1336 448 1208 448Q1100 456 1016 476L1012 468Q1027 468 1048 368Q1031 324 968 324Q964 316 964 312H956Q948 312 948 324H924L920 308H916Q908 308 908 328H900L884 308Q875 332 856 332V308H852Q843 308 840 336Q842 360 896 416V420Q876 448 872 448H748Q612 420 612 400Q588 380 584 380Q584 337 616 304Q616 285 620 264Q616 257 616 248H608Q604 262 604 264H588Q570 248 560 248Q560 237 568 224L560 220H556Q540 228 540 244Q532 244 532 232Q536 224 536 220H520Q500 231 500 236Q464 229 464 200Q464 196 460 196Q444 219 444 244Q416 244 416 208H412Q392 218 392 240Q401 281 412 292V308Q412 351 460 424H424Q294 424 180 492H176L156 488Q156 492 152 492Q156 460 160 376Q160 342 88 332V340H96V348H92Q82 340 76 340L80 332V328H64Q54 336 52 336Q44 336 44 320H40Q32 320 32 340H24Q24 328 16 328H12Q12 352 0 352Q0 394 28 408H32L20 392V388L36 400H40L28 384V380H32L52 396H56Q40 376 40 372Q44 372 52 368Q52 385 84 392V384Q68 384 60 368Q60 362 72 356Q79 376 96 376V372L88 360Q97 360 112 348Q148 357 148 368Q148 397 92 412V420Q113 424 140 424L136 432V456Q136 469 124 500H116L120 492V452H112Q112 487 76 524Q93 529 116 544V536L104 520H136Q144 520 144 528V544Q144 554 136 580H140Q158 560 164 560V564Q164 574 160 624L164 648H160Q48 562 48 484Q48 469 60 420L52 416H44L48 424Q36 478 36 488Q36 556 128 632Q136 652 180 664Q180 742 292 796Q292 803 320 804ZM248 752V728L224 712L228 704Q224 704 224 700Q228 700 228 696Q220 695 220 688Q224 688 224 684Q214 676 212 676L216 668V664Q216 656 204 656L208 648Q194 636 176 636V632L180 624Q225 627 236 640H252L260 636Q261 644 268 644L276 640V656Q260 673 260 692L264 720Q260 727 260 736Q271 768 280 768L296 756Q291 696 284 688Q298 672 320 672V664H312L284 668V644Q284 638 304 628L332 632H376Q402 632 432 624Q443 631 480 636V632L488 636H528V644H504Q495 644 488 640Q484 640 484 644L436 640H420Q361 656 356 656Q352 656 316 648L292 652V660Q352 664 376 664Q403 648 424 648Q440 648 492 660H508Q508 668 516 668V680Q504 680 504 688Q512 692 516 692V700Q508 700 468 740L460 736L432 768V772H440V776L364 796H332Q328 796 328 800Q287 800 248 752ZM456 768V760H460V768ZM340 764H348Q353 764 368 744V740Q359 740 348 724L352 716Q352 704 336 704V700Q344 700 344 696Q360 704 368 704V700Q364 688 344 688Q328 688 316 708V712L324 724Q316 724 316 736Q320 748 324 748L320 756V760ZM276 756 272 716V712Q272 706 284 700L280 728V748L284 756ZM384 760H388Q472 740 472 708Q476 708 476 704V700Q455 718 384 760ZM464 756V752Q465 744 472 744V748Q472 756 464 756ZM256 716V712L252 692L260 660Q256 660 256 656L236 660L228 656L224 664Q230 668 248 668Q248 672 244 700Q250 716 256 716ZM456 704Q460 704 480 680Q480 672 468 672Q456 672 456 692H452L444 688V692Q444 698 456 704ZM544 688V684L564 680Q564 688 552 688ZM580 688Q580 679 608 676Q616 680 620 680V676Q627 680 640 680V688ZM444 688Q444 682 452 672V668H448Q432 674 432 680Q434 680 444 688ZM648 684V680Q658 680 668 672L672 680V684ZM420 684H428V676H420ZM676 680V676Q677 668 684 668L692 672L712 664V676ZM728 668V664H736V668ZM748 664V656H752V664ZM212 620H200L192 584Q192 575 204 560V556H200Q180 565 180 588H176L172 548Q172 492 352 476V468Q340 464 296 464V460Q311 456 356 456V460L376 456H400Q430 456 432 468V476L424 488V492H428Q450 480 472 480Q487 480 564 500H568Q472 442 472 380Q427 380 420 308Q420 287 408 276V272Q408 267 428 256Q436 256 436 264V300H444V268H448Q458 276 468 276L464 284V300H468Q475 300 480 280L488 284H496V280L484 264V256H492Q501 264 516 264V300H524V288Q527 264 536 264Q536 272 556 272Q556 280 544 280V288H556L564 284V308H572Q575 284 584 284H588Q588 300 604 300Q604 307 580 332L576 368H572Q572 332 560 332H544V340H552L548 348V352H556V356Q548 356 548 372H564V376Q564 388 516 388V396H544V408H572V412H564V420Q585 420 628 476H632L628 484V496Q628 505 632 512L620 532V536Q644 528 644 520V516Q644 505 636 492H640Q650 500 660 500V512Q660 562 520 592Q510 603 468 612Q446 612 380 560Q366 552 340 548V556Q377 563 400 588V592Q327 556 312 556L284 552V560Q362 576 368 592V600Q348 588 272 576V584Q369 604 372 620V624Q306 600 300 600H288V608Q304 608 304 616Q291 624 284 624Q249 624 220 596V588Q220 572 248 544H240Q235 544 204 580V592Q204 609 260 624V628H244Q240 628 212 620ZM648 596V592H656V596ZM608 592Q608 579 636 564V572Q627 572 612 592ZM700 592Q700 586 712 580V584Q712 592 704 592ZM772 588V584Q782 500 828 500Q912 504 944 504V496Q888 488 888 476Q888 458 928 424V420Q914 420 868 372H864V368Q864 362 880 352Q900 368 900 380H908V372L896 356V352Q900 352 908 348Q946 384 948 384H952V380Q945 360 932 360V356Q932 350 944 344L980 384H984V368L968 348Q975 348 988 340Q1028 355 1028 384Q1018 424 948 424V432H976Q976 444 984 444L972 468Q976 468 976 472Q964 472 964 480Q974 488 980 488V496Q980 502 952 524H916Q903 540 804 568Q804 577 772 588ZM656 584Q656 578 668 572H672Q672 578 660 584ZM812 576V572H824V576ZM436 576H444V572Q444 547 412 520H408Q436 552 436 576ZM404 564H412Q412 507 324 496V504Q404 526 404 564ZM208 540H212Q236 538 236 528V524H232Q219 532 208 532ZM252 540H260V536H252ZM532 540 560 536 580 540V536Q580 533 568 524L532 532ZM440 520 468 516H524V508Q491 504 484 500Q440 506 440 516ZM156 504V500H172V508H168Q160 504 156 504ZM668 452V448H676Q719 448 760 500H756Q696 456 668 452ZM1004 492V488H1016V492ZM632 488V484H640V488ZM1024 488V484H1032V488ZM648 484V476H652V484ZM1040 484V480H1052V484ZM1056 480V476H1072V480ZM1076 476V472H1096V476ZM1100 472V468H1120V472ZM848 468V460H864V468ZM1132 468V464H1152V468ZM752 460V456H840Q840 464 828 464L820 460L812 464L788 460Q784 460 784 464Q780 460 752 460ZM1176 464V460H1248V464ZM464 444H460L452 448Q452 436 424 436V432H436Q472 432 488 452H476ZM628 452V448H636V452ZM612 428H616Q624 428 624 436H620Q612 435 612 428ZM1008 432V428Q1012 428 1020 424V436Q1012 432 1008 432ZM36 416H44V412H36ZM560 400V396H584V400ZM28 360V356H36V360ZM40 348V336Q46 336 52 348ZM852 348V340H860V348ZM884 344V328H888L892 344ZM916 336V328Q922 328 928 340V344H924Q916 343 916 336ZM956 332V328Q964 328 964 336V340Q956 339 956 332ZM596 292V284Q597 276 604 276H608V284Q608 292 600 292ZM544 264V248Q545 240 552 240V264ZM408 260V228H412Q412 238 420 248Q420 254 408 260ZM464 260V256Q470 256 480 248V252Q480 260 468 260ZM500 256Q500 236 520 228H524V232Q512 248 512 256ZM460 252 452 224 460 220Q460 231 472 244V248Q468 248 460 252Z" fill="param(fill) #111111" fill-opacity="param(fill-opacity) 1" stroke="param(outline) none" stroke-opacity="param(outline-opacity) 1" stroke-width="param(outline-width) 0" stroke-linejoin="round"/>
  </g>
</svg>
