<svg xmlns="http://www.w3.org/2000/svg" width="100%" height="100%" viewBox="0 0 1624.00 1624.00">
  <g transform="translate(112.00,1312.00) scale(1,-1)">
    <path d="M62 1200H94Q294 1166 294 1112Q331 1017 354 1000Q466 900 466 796Q466 705 350 564L338 524V500Q346 436 402 436H414Q500 436 570 696Q641 879 770 932Q832 964 902 964H918Q1081 964 1162 768Q1170 730 1170 708V696Q1170 517 902 344Q698 187 698 104V80Q698 23 762 0H786Q875 0 974 224Q1082 420 1198 420Q1280 420 1322 316Q1330 300 1330 272V264Q1330 224 1262 84Q1254 50 1254 40Q1254 -74 1398 -196V-200H1394Q1306 -177 1226 -68Q1194 -12 1194 40Q1194 89 1250 260V280Q1235 332 1202 332Q1113 332 994 28Q889 -132 778 -132H750Q629 -132 562 20Q554 52 554 88V92Q554 264 822 452Q1014 598 1014 696Q996 800 914 800H910Q764 800 686 540Q575 252 390 252H370Q248 252 174 408Q166 440 166 476V488Q166 589 298 728Q330 772 330 800V820Q330 863 270 932L262 936Q221 932 198 932Q106 932 18 1080Q2 1106 2 1140V1152Q2 1191 62 1200Z" fill="param(fill) #111111" fill-opacity="param(fill-opacity) 1" stroke="param(outline) none" stroke-opacity="param(outline-opacity) 1" stroke-width="param(outline-width) 0" stroke-linejoin="round"/>
  </g>
</svg>
