<svg xmlns="http://www.w3.org/2000/svg" width="100%" height="100%" viewBox="0 0 1610.08 1610.08">
  <g transform="translate(105.04,1305.04) scale(1,-1)">
    <path d="M1010 1064H1042Q1274 1042 1274 1000Q1301 960 1326 888Q1348 859 1350 836V832Q1350 820 1326 820Q1358 768 1394 728H1390L1374 740L1378 720V716Q1373 716 1350 772Q1321 802 1310 808Q1306 796 1286 796H1278Q1213 796 1150 836Q1086 733 1086 696Q1262 564 1262 356Q1262 185 1094 28Q968 -64 838 -64H802Q575 -64 206 204Q146 244 118 244Q82 244 82 200Q82 148 150 32H146Q46 98 6 208V240Q6 309 130 320H134Q213 320 510 132Q663 56 774 56H794Q970 56 1102 224Q1142 288 1142 364Q1142 487 1038 576Q1015 490 994 292Q981 248 974 248V252L990 316Q981 408 970 408H966V416H978V452Q978 500 966 500H962V508Q978 508 978 536V592H966V600H982Q982 624 994 684H990Q969 684 866 708V704Q862 677 862 660V628Q862 615 954 604V596H950Q938 596 858 616V528Q908 516 922 516V508Q912 508 858 520V432Q896 424 914 424V416H910Q862 424 858 424V420Q850 354 850 340Q913 328 946 328H978V320H946Q870 328 846 328Q834 286 818 252Q872 240 906 240V232H902Q891 232 810 244Q810 234 746 180Q809 156 838 156V148H834Q741 172 730 172Q678 144 662 144V140H674V132Q503 180 430 296Q390 381 390 456Q390 646 598 756Q653 780 770 800Q847 1064 1010 1064ZM958 984Q958 974 994 972V964H990Q953 972 946 972Q918 932 906 900Q977 872 1050 872V864H1046Q989 864 902 892V888Q890 856 882 808L918 800V792Q913 792 878 804Q878 787 866 716Q963 692 994 692Q1007 746 1018 768L1014 776V780Q1022 780 1054 852Q1061 871 1074 872Q1074 880 1110 912V916Q1099 943 1086 952H1062V960H1082V964Q1027 1000 1002 1000ZM1002 968H1014V960H1002ZM1022 964H1046V956H1022ZM1286 920V912H1294V920ZM1214 892 1222 888 1226 896V900H1222Q1214 899 1214 892ZM926 796H934V788H926ZM942 792H950V784H942ZM958 788H974V780H958ZM982 784H1002V776H982ZM502 460Q502 315 666 264Q700 260 718 260Q830 276 830 364Q830 377 834 384Q834 459 766 668Q738 672 718 672Q587 672 518 536Q506 496 502 460ZM930 512H946V504H930ZM922 420H950V412H922ZM974 244V236Q960 204 954 204V212L962 228H914V236H962ZM950 200V196Q950 186 906 148H898ZM850 152H862V144H850ZM870 148H898Q892 127 810 124V132H818Q870 132 870 148ZM682 136H694V128H682ZM706 132Q760 128 786 128H794V120Q766 120 706 124Z" fill="param(fill) #111111" fill-opacity="param(fill-opacity) 1" stroke="param(outline) none" stroke-opacity="param(outline-opacity) 1" stroke-width="param(outline-width) 0" stroke-linejoin="round"/>
  </g>
</svg>
