<svg xmlns="http://www.w3.org/2000/svg" width="100%" height="100%" viewBox="0 0 1624.00 1624.00">
  <g transform="translate(112.00,1312.00) scale(1,-1)">
    <path d="M228 870H244Q296 858 312 858H336Q353 844 412 834Q444 809 444 782Q459 782 512 794L520 790Q524 790 560 814V810Q536 774 452 774H436Q385 718 248 718Q227 704 152 682L148 674V670Q159 685 248 706Q248 716 296 718H308Q316 718 316 706Q316 688 244 622V618Q247 618 308 674Q396 614 472 614Q562 594 632 594Q778 602 816 602Q956 602 1252 434Q1320 414 1352 414H1372Q1388 421 1388 442Q1385 461 1344 490H1352Q1395 467 1400 450V422Q1376 386 1336 386Q1283 386 1056 450H1048V446Q1277 382 1316 382V374H1312L1024 418H980L932 414Q932 418 928 418Q932 439 932 442V466H928Q928 405 868 354L860 334Q896 261 896 242V230Q868 171 868 142H860Q844 142 844 190L820 146Q804 163 804 178V194L808 202H800Q791 162 784 162Q776 162 768 186Q768 237 828 242Q760 347 760 366Q767 413 812 482V486Q709 446 608 446Q539 446 480 486Q476 486 436 502H432V498Q560 454 560 390Q632 290 632 238Q583 167 580 154Q572 130 564 130Q548 137 548 158L552 186Q527 154 524 154H516V190Q523 206 532 206V210H524Q505 170 500 170Q492 170 492 178V182Q492 242 556 242V246Q532 246 512 350Q462 346 452 346Q399 346 348 394V390L376 358V354Q323 366 312 366Q284 362 280 362Q219 362 172 422V418Q172 414 196 382V378L176 374H116L108 378V374Q116 363 120 322Q116 270 108 250Q108 247 128 190Q102 166 84 166H80Q72 166 72 186Q69 186 44 154H40Q34 154 28 166V182Q36 192 36 194V198Q11 170 8 170Q0 170 0 178V186Q0 220 52 230Q20 284 20 334Q20 365 56 426Q56 470 140 510Q128 548 128 574Q140 646 140 654H132V666Q132 706 120 754Q120 851 204 866H208Q216 862 220 862Q221 870 228 870ZM232 846V830Q234 822 252 814V818L248 826Q252 842 264 842V850H252ZM536 814V810Q536 804 520 794H516Q516 799 536 814ZM428 782V778H436V782ZM200 754Q184 758 184 774H180V770Q186 750 208 750Q279 770 304 770Q330 770 372 766H384V770Q307 778 304 778Q291 778 200 754ZM388 774V770H404V774ZM140 666V658H144V666ZM236 614V606H240V614ZM420 506V502H428V506ZM140 502V486H144V502ZM796 470Q773 442 752 382Q668 358 596 358Q576 382 552 438V446Q584 438 620 438H672ZM1016 458V454H1028V458ZM1036 454V450H1044V454ZM748 370H752V354Q772 305 772 302Q756 294 744 274L748 254V246Q748 238 740 238Q716 252 716 274H712Q712 242 704 242Q688 242 688 278H684Q684 252 672 250L660 266V286L708 326Q708 366 724 366Z" fill="param(fill) #111111" fill-opacity="param(fill-opacity) 1" stroke="param(outline) none" stroke-opacity="param(outline-opacity) 1" stroke-width="param(outline-width) 0" stroke-linejoin="round"/>
  </g>
</svg>
