<svg xmlns="http://www.w3.org/2000/svg" width="100%" height="100%" viewBox="0 0 1624.00 1624.00">
  <g transform="translate(112.00,1312.00) scale(1,-1)">
    <path d="M1048 1130H1052Q1079 1130 1116 1034Q1116 968 1184 958Q1204 958 1400 786Q1395 738 1364 738Q1285 750 1252 750H1172Q1114 750 1040 554Q991 438 880 382Q816 382 816 262Q768 102 768 54V-18Q768 -44 788 -102V-118Q788 -124 776 -130H744Q724 -130 708 -26V-18L728 158Q707 338 696 338Q492 338 296 410Q284 391 204 298V294Q237 321 304 398Q348 384 352 374Q321 328 232 270Q216 234 216 210Q216 37 288 -78L276 -86H232Q164 -34 164 102Q160 102 144 238Q104 211 104 178V126Q104 -65 160 -102Q160 -109 168 -126L160 -130H104L60 -78Q52 -78 52 -70L32 250Q92 307 92 398Q64 528 64 610H60Q60 554 12 554Q6 554 0 566Q11 593 32 690Q77 758 188 758Q188 765 256 766Q291 766 740 722H776Q922 722 976 810Q1034 873 1052 938V942Q976 983 976 1054Q980 1104 980 1106H988L1028 1102Q1042 1130 1048 1130Z" fill="param(fill) #111111" fill-opacity="param(fill-opacity) 1" stroke="param(outline) none" stroke-opacity="param(outline-opacity) 1" stroke-width="param(outline-width) 0" stroke-linejoin="round"/>
  </g>
</svg>
