<svg xmlns="http://www.w3.org/2000/svg" width="100%" height="100%" viewBox="0 0 1624.00 1624.00">
  <g transform="translate(112.00,1312.00) scale(1,-1)">
    <path d="M1180 1200H1192Q1198 1200 1204 1188Q1176 1144 1176 1132V1120Q1206 1120 1208 1108V1100Q1207 1085 1124 1056Q1100 1024 1100 1000V992Q1100 910 1244 844Q1380 755 1380 636V616Q1380 456 1208 376V372Q1214 372 1232 348V344H1224Q1211 344 1156 364H1116Q1048 372 1040 372H988V368Q1088 256 1144 256V244H1140Q1000 244 900 396Q858 422 832 428Q800 388 792 340L796 316Q776 243 776 192V188Q776 146 816 48Q820 -36 840 -112Q840 -142 768 -148Q672 -148 672 -92Q688 -14 688 4L628 196Q589 134 584 64Q584 -5 624 -160Q608 -200 544 -200H496Q432 -193 432 -156V-148Q444 -94 444 -84Q444 -39 416 120H412V64Q412 52 432 -4Q432 -28 352 -36Q284 -28 284 -12Q296 63 296 76Q272 278 272 288Q260 283 192 168Q179 168 168 68V40Q168 22 184 -40V-44Q184 -66 84 -76Q20 -69 20 -52V-44L40 80Q36 87 36 96Q72 339 72 484Q79 576 192 700Q283 787 416 812Q436 812 436 820Q408 872 408 884Q408 901 416 924Q487 916 532 916Q538 916 588 920Q660 904 724 880Q760 904 824 904Q917 884 940 844Q1031 741 1052 684Q1080 544 1148 544H1160Q1216 562 1216 616Q1216 706 1100 764Q996 853 996 980Q996 1072 1124 1180Q1160 1200 1180 1200Z" fill="param(fill) #111111" fill-opacity="param(fill-opacity) 1" stroke="param(outline) none" stroke-opacity="param(outline-opacity) 1" stroke-width="param(outline-width) 0" stroke-linejoin="round"/>
  </g>
</svg>
