<svg xmlns="http://www.w3.org/2000/svg" width="100%" height="100%" viewBox="0 0 1624.00 1624.00">
  <g transform="translate(112.00,1312.00) scale(1,-1)">
    <path d="M1228 928H1240Q1288 928 1288 912V908Q1288 891 1280 876Q1294 876 1320 840Q1326 840 1332 828V820H1328L1320 824V820Q1320 803 1400 672V668Q1359 576 1336 576Q1312 612 1292 612Q1266 516 1232 516Q1212 501 1212 484V468L1216 440Q1188 440 1188 408Q1255 188 1308 188Q1368 188 1368 152Q1343 128 1300 128H1260Q1185 200 1124 308Q1069 370 1052 396Q1044 396 1044 384H1036V392H1028Q1006 372 1004 372Q995 372 992 392H988Q980 348 968 348H964V372H960L952 368Q952 376 944 376Q944 372 940 372Q936 378 936 396Q928 396 928 380H920Q920 402 892 420Q868 372 840 180Q862 142 868 112Q853 100 812 100H788Q778 100 760 172Q760 178 780 416Q780 426 664 432Q567 467 556 488L540 500H536Q456 284 456 248Q477 164 540 164Q556 158 556 152V148Q548 108 516 108H500Q459 108 440 160Q418 160 368 276V284Q383 318 388 364L384 388V400H380Q240 294 240 268Q217 206 216 160Q216 140 268 96V88Q268 79 232 72H216Q186 72 152 164Q180 323 208 396H200Q109 336 60 336Q32 336 0 356Q15 360 36 392H60Q64 392 100 380H112Q236 421 236 564Q236 694 296 744Q360 800 492 800Q508 800 680 796Q690 796 712 800Q743 796 780 796H844L864 800L860 808V812Q892 812 960 880Q1038 916 1076 916L1084 912Q1091 916 1104 916Q1147 908 1160 908Q1166 908 1228 928Z" fill="param(fill) #111111" fill-opacity="param(fill-opacity) 1" stroke="param(outline) none" stroke-opacity="param(outline-opacity) 1" stroke-width="param(outline-width) 0" stroke-linejoin="round"/>
  </g>
</svg>
