<svg xmlns="http://www.w3.org/2000/svg" width="100%" height="100%" viewBox="0 0 1624.00 1624.00">
  <g transform="translate(112.00,1312.00) scale(1,-1)">
    <path d="M380 916H408Q468 916 680 856Q716 848 748 848Q862 860 880 860H888Q900 860 1020 804Q1100 780 1152 780Q1178 780 1220 808H1232Q1232 800 1240 780Q1232 767 1232 760Q1374 648 1400 556Q1387 536 1328 504Q1322 488 1300 488Q1158 504 1092 504H1084Q980 504 980 476Q916 288 916 228V176L964 180H968Q1016 173 1016 160V124Q1016 100 908 84H884Q812 84 812 132Q780 208 772 208Q737 137 724 128Q676 140 676 152Q676 183 680 264Q680 280 608 376Q604 390 604 392Q392 364 392 356Q360 286 360 252Q444 204 444 176Q444 151 360 144Q216 171 216 228Q224 277 228 320H224L124 236V232Q204 214 204 180V176Q204 140 152 140Q84 140 0 196V256Q0 279 52 372Q63 417 68 468Q68 472 64 480Q60 587 60 648Q60 750 172 824Q283 916 380 916Z" fill="param(fill) #111111" fill-opacity="param(fill-opacity) 1" stroke="param(outline) none" stroke-opacity="param(outline-opacity) 1" stroke-width="param(outline-width) 0" stroke-linejoin="round"/>
  </g>
</svg>
