<svg xmlns="http://www.w3.org/2000/svg" width="100%" height="100%" viewBox="0 0 1624.00 1624.00">
  <g transform="translate(112.00,1312.00) scale(1,-1)">
    <path d="M984 1048H992Q1001 1048 1016 1012H1032Q1055 1012 1072 972Q1101 972 1132 848H1136L1132 868V876Q1204 844 1204 792Q1279 762 1300 748Q1313 733 1396 688L1400 680V668Q1399 657 1344 632L1308 636Q1266 632 1240 632Q1228 632 1220 416Q1212 416 1200 364H1236L1264 368Q1280 351 1280 328V320Q1280 303 1212 296L1160 304H1156V300Q1236 275 1236 240V216Q1236 210 1224 204H1208Q1184 204 1068 248Q1054 252 1052 252Q1099 172 1104 172Q1152 130 1152 80Q1144 29 1144 -4Q1152 -28 1176 -28Q1189 -20 1196 -20V-28Q1186 -48 1164 -48H1152Q1131 -48 1128 -36L1120 -40Q1112 -40 1112 -24H1108V-32H1100Q1096 -16 1096 0Q1073 -24 1032 -24Q1032 -36 1016 -36Q941 -24 844 4Q844 -5 816 -8L808 4V12L812 20H800Q800 4 788 4H780Q744 4 716 36Q750 64 788 64V68Q781 68 768 76Q759 76 724 72Q677 72 560 124Q401 88 340 88Q340 79 304 76Q282 76 268 100V116Q268 151 320 156H328V164H320Q285 164 268 192V204Q273 240 304 240H360Q360 285 304 320Q268 355 236 416Q217 435 184 444Q104 436 48 420H36Q12 429 0 456V468Q9 487 100 548Q131 596 180 596Q212 684 252 684L280 644Q295 652 312 652H348Q356 651 356 644Q356 606 316 556Q369 460 432 460H444Q522 467 552 492Q621 540 708 540Q711 540 732 536Q778 548 852 548Q898 547 924 536Q967 556 1060 572Q1080 572 1092 704Q1104 713 1104 732V736Q1088 736 1040 772L1044 780Q1032 780 1020 800V804Q1025 804 1064 812H1076L1104 808Q1101 827 1024 832Q937 868 904 944Q901 944 888 964Q892 964 892 968Q924 964 968 884H976V888Q964 910 964 924L972 928Q981 926 1012 860Q1116 842 1116 832Q1149 788 1152 788H1156Q1096 865 1096 888Q1096 948 1048 948Q1025 948 1000 980V984H1004Q1016 973 1064 960Q1049 990 996 1008Z" fill="param(fill) #111111" fill-opacity="param(fill-opacity) 1" stroke="param(outline) none" stroke-opacity="param(outline-opacity) 1" stroke-width="param(outline-width) 0" stroke-linejoin="round"/>
  </g>
</svg>
