<svg xmlns="http://www.w3.org/2000/svg" width="100%" height="100%" viewBox="0 0 1624.00 1624.00">
  <g transform="translate(112.00,1312.00) scale(1,-1)">
    <path d="M1224 924H1228Q1244 905 1316 860Q1400 735 1400 720V708Q1367 664 1340 664L1352 648Q1352 642 1324 620H1320Q1240 660 1152 660H1148Q1090 660 992 392Q956 212 956 200Q956 132 1000 132L1020 112V92Q1020 84 1012 84H980Q952 76 948 76H868Q847 76 824 188L828 204Q812 408 800 408Q597 408 428 484Q424 484 424 480Q416 424 300 280L292 252V244Q292 140 344 140Q356 125 356 112V104Q356 96 348 96H308Q269 88 264 88H200Q171 88 160 276Q200 425 200 472Q180 597 180 640H176Q112 527 112 412Q112 386 128 256V244Q128 153 48 140Q14 140 0 164V168L4 176Q32 168 48 168Q83 168 96 232V244Q72 382 72 452Q72 591 172 728Q252 812 524 812H536Q588 812 752 800H764Q787 800 900 844L1144 904Q1156 908 1192 908Q1209 924 1224 924Z" fill="param(fill) #111111" fill-opacity="param(fill-opacity) 1" stroke="param(outline) none" stroke-opacity="param(outline-opacity) 1" stroke-width="param(outline-width) 0" stroke-linejoin="round"/>
  </g>
</svg>
