<svg xmlns="http://www.w3.org/2000/svg" width="100%" height="100%" viewBox="0 0 1624.00 1624.00">
  <g transform="translate(112.00,1312.00) scale(1,-1)">
    <path d="M204 926H208L240 906Q240 910 244 910L240 918Q241 926 248 926Q276 900 276 878Q400 910 420 910Q472 905 472 870V822L464 810L492 806Q501 812 544 822Q552 822 584 810Q584 822 592 822H600L612 814H620Q622 814 640 830H648Q668 814 676 814Q689 822 696 822Q720 806 732 806Q732 812 744 818H748Q775 797 776 794L796 806L820 790H828L848 794Q848 788 864 778H872L884 786L916 754H920L936 766Q937 758 944 758Q977 790 1012 790Q1070 790 1128 654Q1128 645 1132 638Q1128 638 1128 634L1120 638H1116V634Q1132 634 1168 602Q1183 602 1212 574Q1225 569 1236 558Q1232 550 1232 546L1288 506L1284 498Q1284 475 1328 454Q1336 444 1348 414Q1376 387 1376 374L1372 366L1396 306L1388 302Q1400 264 1400 230Q1400 202 1376 190Q1269 74 1172 74H1104Q996 74 804 182Q717 245 396 278Q376 278 376 286V290Q436 302 476 302H488Q560 302 580 294Q581 302 588 302H592Q603 302 648 286H652L664 294Q720 270 736 270Q737 278 744 278H748Q768 278 808 246Q808 252 820 258Q872 234 872 230Q880 234 884 234Q889 234 928 198L940 206H944Q968 206 968 190H972Q972 199 976 206Q1032 178 1056 178Q1086 178 1104 162Q1104 178 1112 178Q1146 170 1156 170Q1208 170 1208 242Q1208 310 1056 430Q1053 430 1032 426Q1012 438 1004 438Q1056 369 1056 346Q1056 310 992 310Q961 310 836 346Q816 346 816 354Q816 362 832 362V366Q793 378 788 378V382Q789 390 796 390Q810 390 832 386H836V390Q807 402 804 402V410H852Q884 410 928 390V394Q891 448 888 466Q848 462 828 462H824Q731 462 668 498V486L672 462Q669 426 640 426H620Q614 426 528 442H524V438Q532 425 532 414V398H520Q509 434 500 434Q493 382 484 382Q476 395 476 406V442Q433 406 420 406V410Q423 422 448 454H444Q433 454 388 438H380V442Q396 466 408 466V470H372V478Q411 478 540 506H548L492 554Q479 546 468 546Q442 546 412 566H364Q185 542 128 542H48Q16 542 0 590V602Q20 627 176 686Q211 702 248 762Q272 774 372 802V834Q313 822 272 822Q204 836 176 858Q183 862 196 862Q196 871 160 878V886H200Q200 889 168 918H176Q193 918 216 898H220V902Q220 904 204 922ZM376 806V802H384V806ZM420 806V802H428V806ZM440 802V798H448V802ZM972 746Q972 740 996 722V726Q996 731 976 746ZM1076 666V662H1084V666ZM580 602V598H588V602ZM600 594V590H608V594ZM492 586Q492 582 488 574V570H492Q492 574 496 582V586ZM612 586V582H620V586ZM964 578V574H996V578ZM944 574V570H952V574ZM1040 566V562H1048V566ZM904 562V558H912V562ZM664 510V502H668V510ZM1100 494V486H1104V494ZM1092 470V462H1096V470ZM1084 454V446H1088V454ZM1068 438V434H1076V438Z" fill="param(fill) #111111" fill-opacity="param(fill-opacity) 1" stroke="param(outline) none" stroke-opacity="param(outline-opacity) 1" stroke-width="param(outline-width) 0" stroke-linejoin="round"/>
  </g>
</svg>
