<svg xmlns="http://www.w3.org/2000/svg" width="100%" height="100%" viewBox="0 0 1624.00 1624.00">
  <g transform="translate(112.00,1312.00) scale(1,-1)">
    <path d="M1184 668H1220Q1228 667 1228 660Q1228 636 1196 636Q1180 634 1180 624V596H1208Q1216 595 1216 588V576Q1216 568 1208 568H1180V412Q1180 404 1172 404H1152Q1144 404 1144 412V568H1124Q1116 568 1116 576V588Q1117 596 1124 596H1144V628Q1152 668 1184 668ZM504 664H524Q532 663 532 656V632Q532 624 524 624H504Q496 624 496 632V656Q497 664 504 664ZM864 664H884Q892 663 892 656V632Q892 624 884 624H864Q856 624 856 632V656Q857 664 864 664ZM68 600 100 592V584Q100 571 88 556L68 564Q32 564 32 476V412Q32 404 24 404H8Q0 404 0 412V588Q1 596 8 596H24Q32 596 32 576H36Q36 593 68 600ZM180 600Q256 591 256 548L244 540H228Q211 568 192 568H172Q150 568 144 548Q144 530 244 504L264 476V460Q264 413 188 400Q108 400 108 464L128 468H136Q156 432 176 432H196Q228 435 228 460Q228 478 144 496Q112 513 112 540V548Q112 592 180 600ZM368 600Q390 600 420 576Q420 596 428 596H444Q452 595 452 588V416Q452 344 388 332H352Q292 341 292 384Q293 392 300 392H316Q339 360 368 360Q416 364 416 400V424Q393 407 368 404Q300 404 284 496Q294 600 368 600ZM644 600Q716 588 716 548L704 540H688Q667 568 648 568H632Q611 568 604 552V544Q604 532 700 504Q724 486 724 464Q724 409 640 400Q583 400 564 460Q577 468 588 468H592Q621 432 628 432H656Q678 432 688 456Q688 480 600 496Q569 520 568 544Q568 592 644 600ZM1028 600Q1092 600 1092 516V412Q1092 404 1084 404H1064Q1056 404 1056 412V524Q1056 568 1020 568Q972 568 972 516V412Q972 404 964 404H944Q936 404 936 412V588Q937 596 944 596H960Q968 596 968 572H972Q972 592 1028 600ZM1312 600Q1400 590 1400 512V484Q1400 413 1312 400Q1233 400 1224 496V504Q1233 600 1312 600ZM504 596H524Q532 595 532 588V412Q532 404 524 404H504Q496 404 496 412V588Q497 596 504 596ZM864 596H884Q892 595 892 588V412Q892 404 884 404H864Q856 404 856 412V588Q857 596 864 596ZM320 504Q320 436 368 436Q420 436 420 504V508Q420 568 368 568Q320 568 320 504ZM1260 508V492Q1267 432 1308 432H1312Q1364 432 1364 488V520Q1364 562 1312 568H1308Q1267 568 1260 508ZM772 444H796Q804 443 804 436V412Q804 404 796 404H772Q764 404 764 412V436Q765 444 772 444Z" fill="param(fill) #111111" fill-opacity="param(fill-opacity) 1" stroke="param(outline) none" stroke-opacity="param(outline-opacity) 1" stroke-width="param(outline-width) 0" stroke-linejoin="round"/>
  </g>
</svg>
